<?xml version="1.0" encoding="utf-8" standalone="no"?>
<!DOCTYPE svg PUBLIC "-//W3C//DTD SVG 1.1//EN"
  "http://www.w3.org/Graphics/SVG/1.1/DTD/svg11.dtd">
<svg xmlns:xlink="http://www.w3.org/1999/xlink" width="346.854375pt" height="409.840937pt" viewBox="0 0 346.854375 409.840937" xmlns="http://www.w3.org/2000/svg" version="1.1">
 <metadata>
  <rdf:RDF xmlns:dc="http://purl.org/dc/elements/1.1/" xmlns:cc="http://creativecommons.org/ns#" xmlns:rdf="http://www.w3.org/1999/02/22-rdf-syntax-ns#">
   <cc:Work>
    <dc:type rdf:resource="http://purl.org/dc/dcmitype/StillImage"/>
    <dc:date>2026-06-08T12:50:58.048298</dc:date>
    <dc:format>image/svg+xml</dc:format>
    <dc:creator>
     <cc:Agent>
      <dc:title>Matplotlib v3.10.6, https://matplotlib.org/</dc:title>
     </cc:Agent>
    </dc:creator>
   </cc:Work>
  </rdf:RDF>
 </metadata>
 <defs>
  <style type="text/css">*{stroke-linejoin: round; stroke-linecap: butt}</style>
 </defs>
 <g id="figure_1">
  <g id="patch_1">
   <path d="M 0 409.840937 
L 346.854375 409.840937 
L 346.854375 0 
L 0 0 
z
" style="fill: #ffffff"/>
  </g>
  <g id="axes_1">
   <g id="patch_2">
    <path d="M 60.654375 360.477812 
L 339.654375 360.477812 
L 339.654375 27.837812 
L 60.654375 27.837812 
z
" style="fill: #ffffff"/>
   </g>
   <g id="FillBetweenPolyCollection_1"/>
   <g id="matplotlib.axis_1">
    <g id="xtick_1">
     <g id="line2d_1">
      <path d="M 73.336193 360.477812 
L 73.336193 27.837812 
" clip-path="url(#p5ec9fd6e1a)" style="fill: none; stroke: #b0b0b0; stroke-width: 0.8; stroke-linecap: square"/>
     </g>
     <g id="line2d_2">
      <defs>
       <path id="md45d479526" d="M 0 0 
L 0 3.5 
" style="stroke: #000000; stroke-width: 0.8"/>
      </defs>
      <g>
       <use xlink:href="#md45d479526" x="73.336193" y="360.477812" style="stroke: #000000; stroke-width: 0.8"/>
      </g>
     </g>
     <g id="text_1">
      <!-- 0 -->
      <g transform="translate(69.518693 376.595937) scale(0.12 -0.12)">
       <defs>
        <path id="DejaVuSans-30" d="M 2034 4250 
Q 1547 4250 1301 3770 
Q 1056 3291 1056 2328 
Q 1056 1369 1301 889 
Q 1547 409 2034 409 
Q 2525 409 2770 889 
Q 3016 1369 3016 2328 
Q 3016 3291 2770 3770 
Q 2525 4250 2034 4250 
z
M 2034 4750 
Q 2819 4750 3233 4129 
Q 3647 3509 3647 2328 
Q 3647 1150 3233 529 
Q 2819 -91 2034 -91 
Q 1250 -91 836 529 
Q 422 1150 422 2328 
Q 422 3509 836 4129 
Q 1250 4750 2034 4750 
z
" transform="scale(0.015625)"/>
       </defs>
       <use xlink:href="#DejaVuSans-30"/>
      </g>
     </g>
    </g>
    <g id="xtick_2">
     <g id="line2d_3">
      <path d="M 120.957715 360.477812 
L 120.957715 27.837812 
" clip-path="url(#p5ec9fd6e1a)" style="fill: none; stroke: #b0b0b0; stroke-width: 0.8; stroke-linecap: square"/>
     </g>
     <g id="line2d_4">
      <g>
       <use xlink:href="#md45d479526" x="120.957715" y="360.477812" style="stroke: #000000; stroke-width: 0.8"/>
      </g>
     </g>
     <g id="text_2">
      <!-- 1 -->
      <g transform="translate(117.140215 376.595937) scale(0.12 -0.12)">
       <defs>
        <path id="DejaVuSans-31" d="M 794 531 
L 1825 531 
L 1825 4091 
L 703 3866 
L 703 4441 
L 1819 4666 
L 2450 4666 
L 2450 531 
L 3481 531 
L 3481 0 
L 794 0 
L 794 531 
z
" transform="scale(0.015625)"/>
       </defs>
       <use xlink:href="#DejaVuSans-31"/>
      </g>
     </g>
    </g>
    <g id="xtick_3">
     <g id="line2d_5">
      <path d="M 168.579236 360.477812 
L 168.579236 27.837812 
" clip-path="url(#p5ec9fd6e1a)" style="fill: none; stroke: #b0b0b0; stroke-width: 0.8; stroke-linecap: square"/>
     </g>
     <g id="line2d_6">
      <g>
       <use xlink:href="#md45d479526" x="168.579236" y="360.477812" style="stroke: #000000; stroke-width: 0.8"/>
      </g>
     </g>
     <g id="text_3">
      <!-- 2 -->
      <g transform="translate(164.761736 376.595937) scale(0.12 -0.12)">
       <defs>
        <path id="DejaVuSans-32" d="M 1228 531 
L 3431 531 
L 3431 0 
L 469 0 
L 469 531 
Q 828 903 1448 1529 
Q 2069 2156 2228 2338 
Q 2531 2678 2651 2914 
Q 2772 3150 2772 3378 
Q 2772 3750 2511 3984 
Q 2250 4219 1831 4219 
Q 1534 4219 1204 4116 
Q 875 4013 500 3803 
L 500 4441 
Q 881 4594 1212 4672 
Q 1544 4750 1819 4750 
Q 2544 4750 2975 4387 
Q 3406 4025 3406 3419 
Q 3406 3131 3298 2873 
Q 3191 2616 2906 2266 
Q 2828 2175 2409 1742 
Q 1991 1309 1228 531 
z
" transform="scale(0.015625)"/>
       </defs>
       <use xlink:href="#DejaVuSans-32"/>
      </g>
     </g>
    </g>
    <g id="xtick_4">
     <g id="line2d_7">
      <path d="M 216.200757 360.477812 
L 216.200757 27.837812 
" clip-path="url(#p5ec9fd6e1a)" style="fill: none; stroke: #b0b0b0; stroke-width: 0.8; stroke-linecap: square"/>
     </g>
     <g id="line2d_8">
      <g>
       <use xlink:href="#md45d479526" x="216.200757" y="360.477812" style="stroke: #000000; stroke-width: 0.8"/>
      </g>
     </g>
     <g id="text_4">
      <!-- 3 -->
      <g transform="translate(212.383257 376.595937) scale(0.12 -0.12)">
       <defs>
        <path id="DejaVuSans-33" d="M 2597 2516 
Q 3050 2419 3304 2112 
Q 3559 1806 3559 1356 
Q 3559 666 3084 287 
Q 2609 -91 1734 -91 
Q 1441 -91 1130 -33 
Q 819 25 488 141 
L 488 750 
Q 750 597 1062 519 
Q 1375 441 1716 441 
Q 2309 441 2620 675 
Q 2931 909 2931 1356 
Q 2931 1769 2642 2001 
Q 2353 2234 1838 2234 
L 1294 2234 
L 1294 2753 
L 1863 2753 
Q 2328 2753 2575 2939 
Q 2822 3125 2822 3475 
Q 2822 3834 2567 4026 
Q 2313 4219 1838 4219 
Q 1578 4219 1281 4162 
Q 984 4106 628 3988 
L 628 4550 
Q 988 4650 1302 4700 
Q 1616 4750 1894 4750 
Q 2613 4750 3031 4423 
Q 3450 4097 3450 3541 
Q 3450 3153 3228 2886 
Q 3006 2619 2597 2516 
z
" transform="scale(0.015625)"/>
       </defs>
       <use xlink:href="#DejaVuSans-33"/>
      </g>
     </g>
    </g>
    <g id="xtick_5">
     <g id="line2d_9">
      <path d="M 263.822279 360.477812 
L 263.822279 27.837812 
" clip-path="url(#p5ec9fd6e1a)" style="fill: none; stroke: #b0b0b0; stroke-width: 0.8; stroke-linecap: square"/>
     </g>
     <g id="line2d_10">
      <g>
       <use xlink:href="#md45d479526" x="263.822279" y="360.477812" style="stroke: #000000; stroke-width: 0.8"/>
      </g>
     </g>
     <g id="text_5">
      <!-- 4 -->
      <g transform="translate(260.004779 376.595937) scale(0.12 -0.12)">
       <defs>
        <path id="DejaVuSans-34" d="M 2419 4116 
L 825 1625 
L 2419 1625 
L 2419 4116 
z
M 2253 4666 
L 3047 4666 
L 3047 1625 
L 3713 1625 
L 3713 1100 
L 3047 1100 
L 3047 0 
L 2419 0 
L 2419 1100 
L 313 1100 
L 313 1709 
L 2253 4666 
z
" transform="scale(0.015625)"/>
       </defs>
       <use xlink:href="#DejaVuSans-34"/>
      </g>
     </g>
    </g>
    <g id="xtick_6">
     <g id="line2d_11">
      <path d="M 311.4438 360.477812 
L 311.4438 27.837812 
" clip-path="url(#p5ec9fd6e1a)" style="fill: none; stroke: #b0b0b0; stroke-width: 0.8; stroke-linecap: square"/>
     </g>
     <g id="line2d_12">
      <g>
       <use xlink:href="#md45d479526" x="311.4438" y="360.477812" style="stroke: #000000; stroke-width: 0.8"/>
      </g>
     </g>
     <g id="text_6">
      <!-- 5 -->
      <g transform="translate(307.6263 376.595937) scale(0.12 -0.12)">
       <defs>
        <path id="DejaVuSans-35" d="M 691 4666 
L 3169 4666 
L 3169 4134 
L 1269 4134 
L 1269 2991 
Q 1406 3038 1543 3061 
Q 1681 3084 1819 3084 
Q 2600 3084 3056 2656 
Q 3513 2228 3513 1497 
Q 3513 744 3044 326 
Q 2575 -91 1722 -91 
Q 1428 -91 1123 -41 
Q 819 9 494 109 
L 494 744 
Q 775 591 1075 516 
Q 1375 441 1709 441 
Q 2250 441 2565 725 
Q 2881 1009 2881 1497 
Q 2881 1984 2565 2268 
Q 2250 2553 1709 2553 
Q 1456 2553 1204 2497 
Q 953 2441 691 2322 
L 691 4666 
z
" transform="scale(0.015625)"/>
       </defs>
       <use xlink:href="#DejaVuSans-35"/>
      </g>
     </g>
    </g>
    <g id="text_7">
     <!-- Dissolved Oxygen [umol/L] -->
     <g transform="translate(105.768125 399.729375) scale(0.14 -0.14)">
      <defs>
       <path id="DejaVuSans-44" d="M 1259 4147 
L 1259 519 
L 2022 519 
Q 2988 519 3436 956 
Q 3884 1394 3884 2338 
Q 3884 3275 3436 3711 
Q 2988 4147 2022 4147 
L 1259 4147 
z
M 628 4666 
L 1925 4666 
Q 3281 4666 3915 4102 
Q 4550 3538 4550 2338 
Q 4550 1131 3912 565 
Q 3275 0 1925 0 
L 628 0 
L 628 4666 
z
" transform="scale(0.015625)"/>
       <path id="DejaVuSans-69" d="M 603 3500 
L 1178 3500 
L 1178 0 
L 603 0 
L 603 3500 
z
M 603 4863 
L 1178 4863 
L 1178 4134 
L 603 4134 
L 603 4863 
z
" transform="scale(0.015625)"/>
       <path id="DejaVuSans-73" d="M 2834 3397 
L 2834 2853 
Q 2591 2978 2328 3040 
Q 2066 3103 1784 3103 
Q 1356 3103 1142 2972 
Q 928 2841 928 2578 
Q 928 2378 1081 2264 
Q 1234 2150 1697 2047 
L 1894 2003 
Q 2506 1872 2764 1633 
Q 3022 1394 3022 966 
Q 3022 478 2636 193 
Q 2250 -91 1575 -91 
Q 1294 -91 989 -36 
Q 684 19 347 128 
L 347 722 
Q 666 556 975 473 
Q 1284 391 1588 391 
Q 1994 391 2212 530 
Q 2431 669 2431 922 
Q 2431 1156 2273 1281 
Q 2116 1406 1581 1522 
L 1381 1569 
Q 847 1681 609 1914 
Q 372 2147 372 2553 
Q 372 3047 722 3315 
Q 1072 3584 1716 3584 
Q 2034 3584 2315 3537 
Q 2597 3491 2834 3397 
z
" transform="scale(0.015625)"/>
       <path id="DejaVuSans-6f" d="M 1959 3097 
Q 1497 3097 1228 2736 
Q 959 2375 959 1747 
Q 959 1119 1226 758 
Q 1494 397 1959 397 
Q 2419 397 2687 759 
Q 2956 1122 2956 1747 
Q 2956 2369 2687 2733 
Q 2419 3097 1959 3097 
z
M 1959 3584 
Q 2709 3584 3137 3096 
Q 3566 2609 3566 1747 
Q 3566 888 3137 398 
Q 2709 -91 1959 -91 
Q 1206 -91 779 398 
Q 353 888 353 1747 
Q 353 2609 779 3096 
Q 1206 3584 1959 3584 
z
" transform="scale(0.015625)"/>
       <path id="DejaVuSans-6c" d="M 603 4863 
L 1178 4863 
L 1178 0 
L 603 0 
L 603 4863 
z
" transform="scale(0.015625)"/>
       <path id="DejaVuSans-76" d="M 191 3500 
L 800 3500 
L 1894 563 
L 2988 3500 
L 3597 3500 
L 2284 0 
L 1503 0 
L 191 3500 
z
" transform="scale(0.015625)"/>
       <path id="DejaVuSans-65" d="M 3597 1894 
L 3597 1613 
L 953 1613 
Q 991 1019 1311 708 
Q 1631 397 2203 397 
Q 2534 397 2845 478 
Q 3156 559 3463 722 
L 3463 178 
Q 3153 47 2828 -22 
Q 2503 -91 2169 -91 
Q 1331 -91 842 396 
Q 353 884 353 1716 
Q 353 2575 817 3079 
Q 1281 3584 2069 3584 
Q 2775 3584 3186 3129 
Q 3597 2675 3597 1894 
z
M 3022 2063 
Q 3016 2534 2758 2815 
Q 2500 3097 2075 3097 
Q 1594 3097 1305 2825 
Q 1016 2553 972 2059 
L 3022 2063 
z
" transform="scale(0.015625)"/>
       <path id="DejaVuSans-64" d="M 2906 2969 
L 2906 4863 
L 3481 4863 
L 3481 0 
L 2906 0 
L 2906 525 
Q 2725 213 2448 61 
Q 2172 -91 1784 -91 
Q 1150 -91 751 415 
Q 353 922 353 1747 
Q 353 2572 751 3078 
Q 1150 3584 1784 3584 
Q 2172 3584 2448 3432 
Q 2725 3281 2906 2969 
z
M 947 1747 
Q 947 1113 1208 752 
Q 1469 391 1925 391 
Q 2381 391 2643 752 
Q 2906 1113 2906 1747 
Q 2906 2381 2643 2742 
Q 2381 3103 1925 3103 
Q 1469 3103 1208 2742 
Q 947 2381 947 1747 
z
" transform="scale(0.015625)"/>
       <path id="DejaVuSans-20" transform="scale(0.015625)"/>
       <path id="DejaVuSans-4f" d="M 2522 4238 
Q 1834 4238 1429 3725 
Q 1025 3213 1025 2328 
Q 1025 1447 1429 934 
Q 1834 422 2522 422 
Q 3209 422 3611 934 
Q 4013 1447 4013 2328 
Q 4013 3213 3611 3725 
Q 3209 4238 2522 4238 
z
M 2522 4750 
Q 3503 4750 4090 4092 
Q 4678 3434 4678 2328 
Q 4678 1225 4090 567 
Q 3503 -91 2522 -91 
Q 1538 -91 948 565 
Q 359 1222 359 2328 
Q 359 3434 948 4092 
Q 1538 4750 2522 4750 
z
" transform="scale(0.015625)"/>
       <path id="DejaVuSans-78" d="M 3513 3500 
L 2247 1797 
L 3578 0 
L 2900 0 
L 1881 1375 
L 863 0 
L 184 0 
L 1544 1831 
L 300 3500 
L 978 3500 
L 1906 2253 
L 2834 3500 
L 3513 3500 
z
" transform="scale(0.015625)"/>
       <path id="DejaVuSans-79" d="M 2059 -325 
Q 1816 -950 1584 -1140 
Q 1353 -1331 966 -1331 
L 506 -1331 
L 506 -850 
L 844 -850 
Q 1081 -850 1212 -737 
Q 1344 -625 1503 -206 
L 1606 56 
L 191 3500 
L 800 3500 
L 1894 763 
L 2988 3500 
L 3597 3500 
L 2059 -325 
z
" transform="scale(0.015625)"/>
       <path id="DejaVuSans-67" d="M 2906 1791 
Q 2906 2416 2648 2759 
Q 2391 3103 1925 3103 
Q 1463 3103 1205 2759 
Q 947 2416 947 1791 
Q 947 1169 1205 825 
Q 1463 481 1925 481 
Q 2391 481 2648 825 
Q 2906 1169 2906 1791 
z
M 3481 434 
Q 3481 -459 3084 -895 
Q 2688 -1331 1869 -1331 
Q 1566 -1331 1297 -1286 
Q 1028 -1241 775 -1147 
L 775 -588 
Q 1028 -725 1275 -790 
Q 1522 -856 1778 -856 
Q 2344 -856 2625 -561 
Q 2906 -266 2906 331 
L 2906 616 
Q 2728 306 2450 153 
Q 2172 0 1784 0 
Q 1141 0 747 490 
Q 353 981 353 1791 
Q 353 2603 747 3093 
Q 1141 3584 1784 3584 
Q 2172 3584 2450 3431 
Q 2728 3278 2906 2969 
L 2906 3500 
L 3481 3500 
L 3481 434 
z
" transform="scale(0.015625)"/>
       <path id="DejaVuSans-6e" d="M 3513 2113 
L 3513 0 
L 2938 0 
L 2938 2094 
Q 2938 2591 2744 2837 
Q 2550 3084 2163 3084 
Q 1697 3084 1428 2787 
Q 1159 2491 1159 1978 
L 1159 0 
L 581 0 
L 581 3500 
L 1159 3500 
L 1159 2956 
Q 1366 3272 1645 3428 
Q 1925 3584 2291 3584 
Q 2894 3584 3203 3211 
Q 3513 2838 3513 2113 
z
" transform="scale(0.015625)"/>
       <path id="DejaVuSans-5b" d="M 550 4863 
L 1875 4863 
L 1875 4416 
L 1125 4416 
L 1125 -397 
L 1875 -397 
L 1875 -844 
L 550 -844 
L 550 4863 
z
" transform="scale(0.015625)"/>
       <path id="DejaVuSans-75" d="M 544 1381 
L 544 3500 
L 1119 3500 
L 1119 1403 
Q 1119 906 1312 657 
Q 1506 409 1894 409 
Q 2359 409 2629 706 
Q 2900 1003 2900 1516 
L 2900 3500 
L 3475 3500 
L 3475 0 
L 2900 0 
L 2900 538 
Q 2691 219 2414 64 
Q 2138 -91 1772 -91 
Q 1169 -91 856 284 
Q 544 659 544 1381 
z
M 1991 3584 
L 1991 3584 
z
" transform="scale(0.015625)"/>
       <path id="DejaVuSans-6d" d="M 3328 2828 
Q 3544 3216 3844 3400 
Q 4144 3584 4550 3584 
Q 5097 3584 5394 3201 
Q 5691 2819 5691 2113 
L 5691 0 
L 5113 0 
L 5113 2094 
Q 5113 2597 4934 2840 
Q 4756 3084 4391 3084 
Q 3944 3084 3684 2787 
Q 3425 2491 3425 1978 
L 3425 0 
L 2847 0 
L 2847 2094 
Q 2847 2600 2669 2842 
Q 2491 3084 2119 3084 
Q 1678 3084 1418 2786 
Q 1159 2488 1159 1978 
L 1159 0 
L 581 0 
L 581 3500 
L 1159 3500 
L 1159 2956 
Q 1356 3278 1631 3431 
Q 1906 3584 2284 3584 
Q 2666 3584 2933 3390 
Q 3200 3197 3328 2828 
z
" transform="scale(0.015625)"/>
       <path id="DejaVuSans-2f" d="M 1625 4666 
L 2156 4666 
L 531 -594 
L 0 -594 
L 1625 4666 
z
" transform="scale(0.015625)"/>
       <path id="DejaVuSans-4c" d="M 628 4666 
L 1259 4666 
L 1259 531 
L 3531 531 
L 3531 0 
L 628 0 
L 628 4666 
z
" transform="scale(0.015625)"/>
       <path id="DejaVuSans-5d" d="M 1947 4863 
L 1947 -844 
L 622 -844 
L 622 -397 
L 1369 -397 
L 1369 4416 
L 622 4416 
L 622 4863 
L 1947 4863 
z
" transform="scale(0.015625)"/>
      </defs>
      <use xlink:href="#DejaVuSans-44"/>
      <use xlink:href="#DejaVuSans-69" transform="translate(77.001953 0)"/>
      <use xlink:href="#DejaVuSans-73" transform="translate(104.785156 0)"/>
      <use xlink:href="#DejaVuSans-73" transform="translate(156.884766 0)"/>
      <use xlink:href="#DejaVuSans-6f" transform="translate(208.984375 0)"/>
      <use xlink:href="#DejaVuSans-6c" transform="translate(270.166016 0)"/>
      <use xlink:href="#DejaVuSans-76" transform="translate(297.949219 0)"/>
      <use xlink:href="#DejaVuSans-65" transform="translate(357.128906 0)"/>
      <use xlink:href="#DejaVuSans-64" transform="translate(418.652344 0)"/>
      <use xlink:href="#DejaVuSans-20" transform="translate(482.128906 0)"/>
      <use xlink:href="#DejaVuSans-4f" transform="translate(513.916016 0)"/>
      <use xlink:href="#DejaVuSans-78" transform="translate(592.626953 0)"/>
      <use xlink:href="#DejaVuSans-79" transform="translate(651.806641 0)"/>
      <use xlink:href="#DejaVuSans-67" transform="translate(710.986328 0)"/>
      <use xlink:href="#DejaVuSans-65" transform="translate(774.462891 0)"/>
      <use xlink:href="#DejaVuSans-6e" transform="translate(835.986328 0)"/>
      <use xlink:href="#DejaVuSans-20" transform="translate(899.365234 0)"/>
      <use xlink:href="#DejaVuSans-5b" transform="translate(931.152344 0)"/>
      <use xlink:href="#DejaVuSans-75" transform="translate(970.166016 0)"/>
      <use xlink:href="#DejaVuSans-6d" transform="translate(1033.544922 0)"/>
      <use xlink:href="#DejaVuSans-6f" transform="translate(1130.957031 0)"/>
      <use xlink:href="#DejaVuSans-6c" transform="translate(1192.138672 0)"/>
      <use xlink:href="#DejaVuSans-2f" transform="translate(1219.921875 0)"/>
      <use xlink:href="#DejaVuSans-4c" transform="translate(1253.613281 0)"/>
      <use xlink:href="#DejaVuSans-5d" transform="translate(1309.326172 0)"/>
     </g>
    </g>
   </g>
   <g id="matplotlib.axis_2">
    <g id="ytick_1">
     <g id="line2d_13">
      <path d="M 60.654375 27.837813 
L 339.654375 27.837813 
" clip-path="url(#p5ec9fd6e1a)" style="fill: none; stroke: #b0b0b0; stroke-width: 0.8; stroke-linecap: square"/>
     </g>
     <g id="line2d_14">
      <defs>
       <path id="mb674719aea" d="M 0 0 
L -3.5 0 
" style="stroke: #000000; stroke-width: 0.8"/>
      </defs>
      <g>
       <use xlink:href="#mb674719aea" x="60.654375" y="27.837813" style="stroke: #000000; stroke-width: 0.8"/>
      </g>
     </g>
     <g id="text_8">
      <!-- 140 -->
      <g transform="translate(30.749375 32.396875) scale(0.12 -0.12)">
       <use xlink:href="#DejaVuSans-31"/>
       <use xlink:href="#DejaVuSans-34" transform="translate(63.623047 0)"/>
       <use xlink:href="#DejaVuSans-30" transform="translate(127.246094 0)"/>
      </g>
     </g>
    </g>
    <g id="ytick_2">
     <g id="line2d_15">
      <path d="M 60.654375 94.020228 
L 339.654375 94.020228 
" clip-path="url(#p5ec9fd6e1a)" style="fill: none; stroke: #b0b0b0; stroke-width: 0.8; stroke-linecap: square"/>
     </g>
     <g id="line2d_16">
      <g>
       <use xlink:href="#mb674719aea" x="60.654375" y="94.020228" style="stroke: #000000; stroke-width: 0.8"/>
      </g>
     </g>
     <g id="text_9">
      <!-- 145 -->
      <g transform="translate(30.749375 98.579291) scale(0.12 -0.12)">
       <use xlink:href="#DejaVuSans-31"/>
       <use xlink:href="#DejaVuSans-34" transform="translate(63.623047 0)"/>
       <use xlink:href="#DejaVuSans-35" transform="translate(127.246094 0)"/>
      </g>
     </g>
    </g>
    <g id="ytick_3">
     <g id="line2d_17">
      <path d="M 60.654375 160.202644 
L 339.654375 160.202644 
" clip-path="url(#p5ec9fd6e1a)" style="fill: none; stroke: #b0b0b0; stroke-width: 0.8; stroke-linecap: square"/>
     </g>
     <g id="line2d_18">
      <g>
       <use xlink:href="#mb674719aea" x="60.654375" y="160.202644" style="stroke: #000000; stroke-width: 0.8"/>
      </g>
     </g>
     <g id="text_10">
      <!-- 150 -->
      <g transform="translate(30.749375 164.761706) scale(0.12 -0.12)">
       <use xlink:href="#DejaVuSans-31"/>
       <use xlink:href="#DejaVuSans-35" transform="translate(63.623047 0)"/>
       <use xlink:href="#DejaVuSans-30" transform="translate(127.246094 0)"/>
      </g>
     </g>
    </g>
    <g id="ytick_4">
     <g id="line2d_19">
      <path d="M 60.654375 226.385059 
L 339.654375 226.385059 
" clip-path="url(#p5ec9fd6e1a)" style="fill: none; stroke: #b0b0b0; stroke-width: 0.8; stroke-linecap: square"/>
     </g>
     <g id="line2d_20">
      <g>
       <use xlink:href="#mb674719aea" x="60.654375" y="226.385059" style="stroke: #000000; stroke-width: 0.8"/>
      </g>
     </g>
     <g id="text_11">
      <!-- 155 -->
      <g transform="translate(30.749375 230.944122) scale(0.12 -0.12)">
       <use xlink:href="#DejaVuSans-31"/>
       <use xlink:href="#DejaVuSans-35" transform="translate(63.623047 0)"/>
       <use xlink:href="#DejaVuSans-35" transform="translate(127.246094 0)"/>
      </g>
     </g>
    </g>
    <g id="ytick_5">
     <g id="line2d_21">
      <path d="M 60.654375 292.567475 
L 339.654375 292.567475 
" clip-path="url(#p5ec9fd6e1a)" style="fill: none; stroke: #b0b0b0; stroke-width: 0.8; stroke-linecap: square"/>
     </g>
     <g id="line2d_22">
      <g>
       <use xlink:href="#mb674719aea" x="60.654375" y="292.567475" style="stroke: #000000; stroke-width: 0.8"/>
      </g>
     </g>
     <g id="text_12">
      <!-- 160 -->
      <g transform="translate(30.749375 297.126538) scale(0.12 -0.12)">
       <defs>
        <path id="DejaVuSans-36" d="M 2113 2584 
Q 1688 2584 1439 2293 
Q 1191 2003 1191 1497 
Q 1191 994 1439 701 
Q 1688 409 2113 409 
Q 2538 409 2786 701 
Q 3034 994 3034 1497 
Q 3034 2003 2786 2293 
Q 2538 2584 2113 2584 
z
M 3366 4563 
L 3366 3988 
Q 3128 4100 2886 4159 
Q 2644 4219 2406 4219 
Q 1781 4219 1451 3797 
Q 1122 3375 1075 2522 
Q 1259 2794 1537 2939 
Q 1816 3084 2150 3084 
Q 2853 3084 3261 2657 
Q 3669 2231 3669 1497 
Q 3669 778 3244 343 
Q 2819 -91 2113 -91 
Q 1303 -91 875 529 
Q 447 1150 447 2328 
Q 447 3434 972 4092 
Q 1497 4750 2381 4750 
Q 2619 4750 2861 4703 
Q 3103 4656 3366 4563 
z
" transform="scale(0.015625)"/>
       </defs>
       <use xlink:href="#DejaVuSans-31"/>
       <use xlink:href="#DejaVuSans-36" transform="translate(63.623047 0)"/>
       <use xlink:href="#DejaVuSans-30" transform="translate(127.246094 0)"/>
      </g>
     </g>
    </g>
    <g id="ytick_6">
     <g id="line2d_23">
      <path d="M 60.654375 358.749891 
L 339.654375 358.749891 
" clip-path="url(#p5ec9fd6e1a)" style="fill: none; stroke: #b0b0b0; stroke-width: 0.8; stroke-linecap: square"/>
     </g>
     <g id="line2d_24">
      <g>
       <use xlink:href="#mb674719aea" x="60.654375" y="358.749891" style="stroke: #000000; stroke-width: 0.8"/>
      </g>
     </g>
     <g id="text_13">
      <!-- 165 -->
      <g transform="translate(30.749375 363.308953) scale(0.12 -0.12)">
       <use xlink:href="#DejaVuSans-31"/>
       <use xlink:href="#DejaVuSans-36" transform="translate(63.623047 0)"/>
       <use xlink:href="#DejaVuSans-35" transform="translate(127.246094 0)"/>
      </g>
     </g>
    </g>
    <g id="text_14">
     <!-- Depth [m] -->
     <g transform="translate(17.837813 229.984688) rotate(-90) scale(0.14 -0.14)">
      <defs>
       <path id="DejaVuSans-70" d="M 1159 525 
L 1159 -1331 
L 581 -1331 
L 581 3500 
L 1159 3500 
L 1159 2969 
Q 1341 3281 1617 3432 
Q 1894 3584 2278 3584 
Q 2916 3584 3314 3078 
Q 3713 2572 3713 1747 
Q 3713 922 3314 415 
Q 2916 -91 2278 -91 
Q 1894 -91 1617 61 
Q 1341 213 1159 525 
z
M 3116 1747 
Q 3116 2381 2855 2742 
Q 2594 3103 2138 3103 
Q 1681 3103 1420 2742 
Q 1159 2381 1159 1747 
Q 1159 1113 1420 752 
Q 1681 391 2138 391 
Q 2594 391 2855 752 
Q 3116 1113 3116 1747 
z
" transform="scale(0.015625)"/>
       <path id="DejaVuSans-74" d="M 1172 4494 
L 1172 3500 
L 2356 3500 
L 2356 3053 
L 1172 3053 
L 1172 1153 
Q 1172 725 1289 603 
Q 1406 481 1766 481 
L 2356 481 
L 2356 0 
L 1766 0 
Q 1100 0 847 248 
Q 594 497 594 1153 
L 594 3053 
L 172 3053 
L 172 3500 
L 594 3500 
L 594 4494 
L 1172 4494 
z
" transform="scale(0.015625)"/>
       <path id="DejaVuSans-68" d="M 3513 2113 
L 3513 0 
L 2938 0 
L 2938 2094 
Q 2938 2591 2744 2837 
Q 2550 3084 2163 3084 
Q 1697 3084 1428 2787 
Q 1159 2491 1159 1978 
L 1159 0 
L 581 0 
L 581 4863 
L 1159 4863 
L 1159 2956 
Q 1366 3272 1645 3428 
Q 1925 3584 2291 3584 
Q 2894 3584 3203 3211 
Q 3513 2838 3513 2113 
z
" transform="scale(0.015625)"/>
      </defs>
      <use xlink:href="#DejaVuSans-44"/>
      <use xlink:href="#DejaVuSans-65" transform="translate(77.001953 0)"/>
      <use xlink:href="#DejaVuSans-70" transform="translate(138.525391 0)"/>
      <use xlink:href="#DejaVuSans-74" transform="translate(202.001953 0)"/>
      <use xlink:href="#DejaVuSans-68" transform="translate(241.210938 0)"/>
      <use xlink:href="#DejaVuSans-20" transform="translate(304.589844 0)"/>
      <use xlink:href="#DejaVuSans-5b" transform="translate(336.376953 0)"/>
      <use xlink:href="#DejaVuSans-6d" transform="translate(375.390625 0)"/>
      <use xlink:href="#DejaVuSans-5d" transform="translate(472.802734 0)"/>
     </g>
    </g>
   </g>
   <g id="line2d_25">
    <path d="M 73.336193 360.477812 
L 73.336193 27.837812 
" clip-path="url(#p5ec9fd6e1a)" style="fill: none; stroke-dasharray: 5.55,2.4; stroke-dashoffset: 0; stroke: #000000; stroke-width: 1.5"/>
   </g>
   <g id="line2d_26">
    <path d="M 210.248067 27.892098 
L 210.248067 28.939057 
L 210.992153 29.414014 
L 210.372081 29.794459 
L 209.131938 30.362482 
L 206.65165 31.265073 
L 201.071003 32.599413 
L 197.152149 33.167431 
L 194.771073 33.692277 
L 189.413651 35.498877 
L 186.189278 36.069562 
L 185.569206 36.59303 
L 184.329062 37.16107 
L 184.329062 38.780108 
L 187.032575 39.728595 
L 188.818382 40.250768 
L 188.818382 40.774235 
L 190.00892 41.296381 
L 189.909709 41.819842 
L 191.769925 42.343337 
L 194.175804 42.818294 
L 194.870284 43.344503 
L 196.110428 43.866649 
L 198.342687 44.437367 
L 200.723763 45.242857 
L 202.50957 45.720499 
L 204.295377 46.339788 
L 207.866991 47.385463 
L 209.057529 47.904855 
L 212.629143 48.478294 
L 213.224412 49.001789 
L 213.224412 49.4268 
L 215.952728 50.047498 
L 217.192872 50.519663 
L 217.192872 50.995969 
L 218.581833 52.138747 
L 218.433016 52.617539 
L 216.796026 53.1372 
L 216.200757 53.610743 
L 217.192872 54.04114 
L 215.952728 54.56332 
L 214.140211 55.086815 
L 212.995462 55.559006 
L 214.41495 56.225484 
L 215.010219 56.796234 
L 213.819681 57.701559 
L 213.819681 58.126558 
L 211.850714 58.744497 
L 210.843336 59.267992 
L 210.843336 59.698397 
L 210.248067 60.217804 
L 209.131938 60.741264 
L 208.511866 61.216187 
L 207.866991 61.457773 
L 206.676453 62.120193 
L 206.676453 62.500739 
L 205.485915 63.168711 
L 204.791434 63.786753 
L 204.982226 64.258931 
L 203.700108 64.832326 
L 203.265104 65.305819 
L 203.265104 65.875152 
L 203.700108 66.544378 
L 204.890646 67.444252 
L 206.081184 67.970463 
L 209.652798 69.013352 
L 207.891794 69.535497 
L 208.511866 70.44219 
L 209.057529 70.867136 
L 210.843336 71.29487 
L 213.224412 71.725326 
L 215.605488 72.723676 
L 215.010219 73.244413 
L 212.629143 74.387291 
L 213.472441 74.908059 
L 212.852369 75.433033 
L 212.447974 76.24128 
L 210.992153 77.189678 
L 209.75201 77.617379 
L 209.131938 78.19086 
L 207.271722 78.808868 
L 207.271722 79.281025 
L 205.485915 79.804519 
L 205.485915 80.425192 
L 209.057529 80.945918 
L 212.232297 81.611045 
L 216.5728 82.088704 
L 216.330163 82.894077 
L 219.565321 83.417537 
L 225.388605 83.94249 
L 229.917826 84.465984 
L 235.094078 84.893685 
L 240.27033 85.939325 
L 240.135532 86.411437 
L 241.995748 86.934931 
L 247.576395 87.508461 
L 251.296826 88.170877 
L 256.257401 88.693125 
L 264.857529 90.119378 
L 266.798624 90.695447 
L 272.621907 91.310852 
L 279.092223 91.735802 
L 282.327381 92.306553 
L 291.385822 93.402167 
L 292.679885 93.875651 
L 289.444728 94.921221 
L 287.503633 95.779377 
L 289.121212 96.207112 
L 287.503633 96.872308 
L 284.915507 97.490248 
L 278.57999 98.016287 
L 277.339846 99.246723 
L 276.719774 99.817404 
L 275.47963 100.342381 
L 271.139127 100.913063 
L 271.327844 101.385153 
L 266.798624 101.908681 
L 264.210497 102.766882 
L 261.622371 103.14736 
L 260.328308 103.61948 
L 255.152056 104.193068 
L 253.157042 104.6207 
L 248.196467 105.14281 
L 245.716179 105.6635 
L 238.895388 106.803514 
L 235.844635 107.520019 
L 226.493951 108.946033 
L 222.153447 109.561127 
L 217.192872 109.991609 
L 212.447974 110.941455 
L 210.50688 111.464914 
L 206.65165 112.082888 
L 203.551291 112.463395 
L 202.931219 113.081403 
L 203.551291 113.506321 
L 203.700108 114.124294 
L 204.890646 114.649187 
L 206.081184 115.553125 
L 207.866991 116.025192 
L 208.511866 116.550158 
L 210.992153 117.118052 
L 214.389069 117.597181 
L 216.977195 118.116502 
L 217.192872 118.642785 
L 218.271258 118.971867 
L 220.859384 119.545408 
L 222.153447 120.067524 
L 226.493951 120.543825 
L 230.214382 121.113192 
L 234.654097 122.111608 
L 237.630442 122.632307 
L 240.135532 123.300299 
L 243.235892 123.868183 
L 246.336251 124.583469 
L 250.676754 125.201442 
L 256.446119 125.724936 
L 259.681277 126.247081 
L 263.563466 126.722004 
L 263.563466 127.149739 
L 268.739718 127.530216 
L 270.680813 128.243984 
L 270.680813 128.716103 
L 278.57999 129.193899 
L 281.680349 129.761775 
L 289.418846 130.857477 
L 292.395191 131.475415 
L 297.157343 132.046132 
L 300.133689 132.565468 
L 305.49111 133.279164 
L 312.063872 133.851341 
L 314.544159 134.517887 
L 317.024447 135.373357 
L 317.024447 135.75245 
L 319.504734 136.228827 
L 322.443336 136.60934 
L 321.985022 136.988503 
L 325.678494 137.843868 
L 326.972557 138.271603 
L 326.972557 138.792244 
L 326.325525 139.365814 
L 324.46531 139.935251 
L 324.46531 140.550335 
L 318.587028 141.501562 
L 318.587028 141.979341 
L 306.681648 142.644502 
L 298.42229 143.3582 
L 295.321931 143.877484 
L 290.091759 144.498283 
L 276.504097 145.446615 
L 267.445655 146.018809 
L 267.445655 146.542302 
L 255.152056 146.91988 
L 248.68174 147.682315 
L 249.436611 148.110015 
L 242.858457 148.633508 
L 242.61582 149.248579 
L 238.895388 149.770687 
L 236.415101 150.344202 
L 229.59431 150.913533 
L 223.393591 152.054894 
L 223.393591 152.57413 
L 216.330163 153.854503 
L 212.232297 154.665262 
L 210.992153 155.048686 
L 207.891794 155.619508 
L 204.171362 156.047243 
L 201.691075 156.665111 
L 188.049493 157.757794 
L 178.128343 159.468805 
L 177.508271 159.990985 
L 176.214208 160.514443 
L 169.174505 161.176647 
L 162.626546 161.60431 
L 157.864394 162.082118 
L 138.014461 163.742662 
L 135.724965 164.267596 
L 130.573599 164.882607 
L 125.422232 165.360385 
L 119.126118 165.785191 
L 113.219217 166.451664 
L 103.099644 167.307097 
L 103.672018 167.782018 
L 99.093026 168.209681 
L 95.956416 168.779047 
L 95.956416 169.349762 
L 96.551685 169.730274 
L 96.803529 170.208094 
L 96.803529 171.11068 
L 96.231155 171.77584 
L 96.231155 174.104575 
L 96.803529 174.672384 
L 96.803529 175.100119 
L 97.742223 175.718056 
L 97.742223 176.098532 
L 98.337492 176.623584 
L 97.742223 177.048374 
L 97.518997 177.43176 
L 96.898925 177.812237 
L 96.898925 179.091073 
L 96.551685 179.70901 
L 98.139069 180.329861 
L 98.139069 180.847749 
L 98.759141 181.372582 
L 98.932761 181.946213 
L 98.759141 182.418182 
L 99.52803 183.086295 
L 99.52803 183.654127 
L 100.619356 184.179154 
L 101.239428 184.749905 
L 101.158549 185.553738 
L 101.805581 185.981509 
L 103.099644 186.505001 
L 103.746676 186.982809 
L 103.694913 188.547736 
L 104.339788 189.071228 
L 104.290182 190.116827 
L 105.579932 191.351315 
L 105.579932 192.730204 
L 101.158549 194.678494 
L 99.379213 196.199013 
L 98.139069 196.72413 
L 97.518997 197.246238 
L 96.629329 198.147303 
L 96.278853 198.669446 
L 95.658781 199.24016 
L 94.418638 199.856675 
L 93.798566 200.427389 
L 92.747139 200.949532 
L 89.458062 203.705887 
L 88.83799 204.323787 
L 88.217919 205.179148 
L 88.217919 205.653996 
L 89.458062 206.794111 
L 89.511982 207.364788 
L 90.159013 207.743915 
L 90.159013 209.217211 
L 88.217919 210.787947 
L 86.432112 212.25832 
L 86.357703 216.632749 
L 86.276824 217.107706 
L 86.357703 218.244816 
L 85.737631 218.81553 
L 85.241574 219.436365 
L 84.497487 219.955572 
L 83.257343 220.480687 
L 82.637272 221.048464 
L 82.637272 222.616314 
L 83.257343 223.234286 
L 84.335729 223.756392 
L 84.982761 224.468772 
L 86.276824 225.514442 
L 86.357703 226.039602 
L 86.276824 227.132459 
L 85.737631 227.84317 
L 85.629792 228.840269 
L 85.737631 229.455448 
L 85.629792 229.933124 
L 85.737631 232.312063 
L 86.923856 233.401929 
L 86.977775 234.449207 
L 86.923856 235.539033 
L 87.597847 236.013989 
L 87.597847 237.394487 
L 84.497487 240.055122 
L 84.646304 240.527078 
L 85.117559 241.287992 
L 85.117559 242.240726 
L 84.497487 242.81144 
L 84.051035 243.855688 
L 83.877415 244.188942 
L 83.877415 244.660891 
L 83.257343 245.088589 
L 82.637272 245.657953 
L 81.669959 246.181407 
L 81.07469 246.750771 
L 81.07469 247.415855 
L 79.884152 248.555895 
L 78.693614 249.221053 
L 77.676696 250.076448 
L 78.098345 250.456923 
L 77.676696 251.359577 
L 77.865414 251.837552 
L 77.865414 252.312436 
L 77.503076 253.306515 
L 76.436553 254.352222 
L 76.436553 255.445113 
L 77.056625 256.347693 
L 76.436553 256.869761 
L 75.924319 257.534881 
L 75.816481 257.962579 
L 76.041961 259.434596 
L 76.571351 259.909442 
L 77.394846 260.432933 
L 77.394846 263.140746 
L 78.74773 263.71011 
L 81.453498 264.28086 
L 84.982761 264.900446 
L 86.923856 265.468084 
L 90.247245 266.087672 
L 94.305897 267.273317 
L 94.982339 267.702744 
L 99.717434 269.885374 
L 102.423202 270.410561 
L 106.334802 270.928268 
L 106.820075 271.500556 
L 108.275896 272.074428 
L 112.400722 273.115701 
L 114.260938 273.733673 
L 119.221513 274.777881 
L 121.081729 275.348594 
L 123.157622 275.726251 
L 123.804653 276.583152 
L 123.157622 277.061163 
L 122.941945 277.536083 
L 121.701801 278.103778 
L 121.216527 278.721713 
L 121.081729 279.246949 
L 120.569496 279.674647 
L 121.081729 280.291196 
L 119.841585 280.81465 
L 120.461657 281.333806 
L 119.841585 281.859009 
L 119.922464 282.426622 
L 117.981369 283.423683 
L 116.687306 283.898565 
L 116.687306 284.566749 
L 117.981369 285.133009 
L 117.361298 285.754011 
L 115.393243 286.320307 
L 110.864022 288.315739 
L 109.569959 288.790658 
L 107.628865 289.693275 
L 106.334802 290.171268 
L 105.68777 290.69341 
L 106.981833 291.215589 
L 106.820075 291.690547 
L 106.820075 292.214038 
L 106.200003 292.736217 
L 104.339788 293.258321 
L 103.099644 293.777346 
L 103.099644 294.348021 
L 101.805581 294.96588 
L 99.999285 295.535167 
L 100.619356 296.488089 
L 99.999285 297.057452 
L 98.139069 297.577858 
L 96.278853 298.243053 
L 95.038709 298.812491 
L 95.038709 299.290497 
L 96.278853 299.809589 
L 96.898925 300.33173 
L 96.629329 300.759427 
L 96.629329 301.709227 
L 96.898925 301.995219 
L 97.518997 302.852356 
L 97.518997 303.324145 
L 96.898925 303.846286 
L 95.038709 304.514537 
L 93.798566 305.701798 
L 92.558422 306.363895 
L 91.93835 306.838814 
L 91.318278 307.456748 
L 91.318278 308.029173 
L 90.698206 308.596785 
L 90.078134 309.356385 
L 88.83799 309.784082 
L 88.86495 311.493519 
L 87.570887 311.924322 
L 86.865034 312.584947 
L 83.482824 313.586388 
L 83.041666 313.962366 
L 82.12994 314.583448 
L 81.453498 314.820908 
L 81.100572 315.627731 
L 80.100614 316.198444 
L 79.159477 317.049337 
L 79.806509 317.714493 
L 80.45354 319.233655 
L 81.397128 319.994604 
L 80.777056 321.229084 
L 80.777056 321.707161 
L 81.100572 322.226143 
L 81.840036 322.841163 
L 81.453498 323.223132 
L 81.453498 324.36633 
L 81.747603 324.885346 
L 82.394635 325.313043 
L 83.041666 325.929627 
L 83.455766 326.597949 
L 84.646304 327.260008 
L 85.241574 327.972386 
L 85.241574 329.681822 
L 85.737631 330.299724 
L 85.629792 332.391453 
L 85.51215 332.721608 
L 85.629792 333.147955 
L 85.51215 333.481137 
L 85.629792 333.81304 
L 86.865034 334.668465 
L 86.977775 336.044616 
L 87.62265 336.662582 
L 87.541477 339.653725 
L 87.287811 342.459195 
L 88.217919 342.835207 
L 88.217919 344.640398 
L 88.217919 344.640398 
" clip-path="url(#p5ec9fd6e1a)" style="fill: none; stroke: #2ca02c; stroke-width: 1.5; stroke-linecap: square"/>
   </g>
   <g id="patch_3">
    <path d="M 60.654375 360.477813 
L 60.654375 27.837813 
" style="fill: none; stroke: #000000; stroke-width: 0.8; stroke-linejoin: miter; stroke-linecap: square"/>
   </g>
   <g id="patch_4">
    <path d="M 339.654375 360.477813 
L 339.654375 27.837813 
" style="fill: none; stroke: #000000; stroke-width: 0.8; stroke-linejoin: miter; stroke-linecap: square"/>
   </g>
   <g id="patch_5">
    <path d="M 60.654375 360.477812 
L 339.654375 360.477812 
" style="fill: none; stroke: #000000; stroke-width: 0.8; stroke-linejoin: miter; stroke-linecap: square"/>
   </g>
   <g id="patch_6">
    <path d="M 60.654375 27.837812 
L 339.654375 27.837812 
" style="fill: none; stroke: #000000; stroke-width: 0.8; stroke-linejoin: miter; stroke-linecap: square"/>
   </g>
   <g id="text_15">
    <!-- P6 2026-03-20 -->
    <g transform="translate(148.574219 17.837812) scale(0.14 -0.14)">
     <defs>
      <path id="DejaVuSans-50" d="M 1259 4147 
L 1259 2394 
L 2053 2394 
Q 2494 2394 2734 2622 
Q 2975 2850 2975 3272 
Q 2975 3691 2734 3919 
Q 2494 4147 2053 4147 
L 1259 4147 
z
M 628 4666 
L 2053 4666 
Q 2838 4666 3239 4311 
Q 3641 3956 3641 3272 
Q 3641 2581 3239 2228 
Q 2838 1875 2053 1875 
L 1259 1875 
L 1259 0 
L 628 0 
L 628 4666 
z
" transform="scale(0.015625)"/>
      <path id="DejaVuSans-2d" d="M 313 2009 
L 1997 2009 
L 1997 1497 
L 313 1497 
L 313 2009 
z
" transform="scale(0.015625)"/>
     </defs>
     <use xlink:href="#DejaVuSans-50"/>
     <use xlink:href="#DejaVuSans-36" transform="translate(60.302734 0)"/>
     <use xlink:href="#DejaVuSans-20" transform="translate(123.925781 0)"/>
     <use xlink:href="#DejaVuSans-32" transform="translate(155.712891 0)"/>
     <use xlink:href="#DejaVuSans-30" transform="translate(219.335938 0)"/>
     <use xlink:href="#DejaVuSans-32" transform="translate(282.958984 0)"/>
     <use xlink:href="#DejaVuSans-36" transform="translate(346.582031 0)"/>
     <use xlink:href="#DejaVuSans-2d" transform="translate(410.205078 0)"/>
     <use xlink:href="#DejaVuSans-30" transform="translate(446.289062 0)"/>
     <use xlink:href="#DejaVuSans-33" transform="translate(509.912109 0)"/>
     <use xlink:href="#DejaVuSans-2d" transform="translate(573.535156 0)"/>
     <use xlink:href="#DejaVuSans-32" transform="translate(609.619141 0)"/>
     <use xlink:href="#DejaVuSans-30" transform="translate(673.242188 0)"/>
    </g>
   </g>
  </g>
 </g>
 <defs>
  <clipPath id="p5ec9fd6e1a">
   <rect x="60.654375" y="27.837812" width="279" height="332.64"/>
  </clipPath>
 </defs>
</svg>
