<?xml version="1.0" encoding="utf-8" standalone="no"?>
<!DOCTYPE svg PUBLIC "-//W3C//DTD SVG 1.1//EN"
  "http://www.w3.org/Graphics/SVG/1.1/DTD/svg11.dtd">
<svg xmlns:xlink="http://www.w3.org/1999/xlink" width="453.24pt" height="222.883125pt" viewBox="0 0 453.24 222.883125" xmlns="http://www.w3.org/2000/svg" version="1.1">
 <metadata>
  <rdf:RDF xmlns:dc="http://purl.org/dc/elements/1.1/" xmlns:cc="http://creativecommons.org/ns#" xmlns:rdf="http://www.w3.org/1999/02/22-rdf-syntax-ns#">
   <cc:Work>
    <dc:type rdf:resource="http://purl.org/dc/dcmitype/StillImage"/>
    <dc:date>2026-06-01T17:19:13.930787</dc:date>
    <dc:format>image/svg+xml</dc:format>
    <dc:creator>
     <cc:Agent>
      <dc:title>Matplotlib v3.10.6, https://matplotlib.org/</dc:title>
     </cc:Agent>
    </dc:creator>
   </cc:Work>
  </rdf:RDF>
 </metadata>
 <defs>
  <style type="text/css">*{stroke-linejoin: round; stroke-linecap: butt}</style>
 </defs>
 <g id="figure_1">
  <g id="patch_1">
   <path d="M 0 222.883125 
L 453.24 222.883125 
L 453.24 0 
L 0 0 
z
" style="fill: #ffffff"/>
  </g>
  <g id="axes_1">
   <g id="patch_2">
    <path d="M 55.44 173.52 
L 446.04 173.52 
L 446.04 7.2 
L 55.44 7.2 
z
" style="fill: #ffffff"/>
   </g>
   <g id="patch_3">
    <path d="M 173.546324 173.52 
L 275.00087 173.52 
L 275.00087 7.2 
L 173.546324 7.2 
z
" clip-path="url(#pefe42173f7)" style="fill: #c0c0c0; opacity: 0.3; stroke: #c0c0c0; stroke-linejoin: miter"/>
   </g>
   <g id="FillBetweenPolyCollection_1"/>
   <g id="FillBetweenPolyCollection_2"/>
   <g id="matplotlib.axis_1">
    <g id="xtick_1">
     <g id="line2d_1">
      <defs>
       <path id="m99ea86d845" d="M 0 0 
L 0 3.5 
" style="stroke: #000000; stroke-width: 0.8"/>
      </defs>
      <g>
       <use xlink:href="#m99ea86d845" x="74.297312" y="173.52" style="stroke: #000000; stroke-width: 0.8"/>
      </g>
     </g>
     <g id="text_1">
      <!-- 2025-11 -->
      <g transform="translate(49.227625 189.638125) scale(0.12 -0.12)">
       <defs>
        <path id="DejaVuSans-32" d="M 1228 531 
L 3431 531 
L 3431 0 
L 469 0 
L 469 531 
Q 828 903 1448 1529 
Q 2069 2156 2228 2338 
Q 2531 2678 2651 2914 
Q 2772 3150 2772 3378 
Q 2772 3750 2511 3984 
Q 2250 4219 1831 4219 
Q 1534 4219 1204 4116 
Q 875 4013 500 3803 
L 500 4441 
Q 881 4594 1212 4672 
Q 1544 4750 1819 4750 
Q 2544 4750 2975 4387 
Q 3406 4025 3406 3419 
Q 3406 3131 3298 2873 
Q 3191 2616 2906 2266 
Q 2828 2175 2409 1742 
Q 1991 1309 1228 531 
z
" transform="scale(0.015625)"/>
        <path id="DejaVuSans-30" d="M 2034 4250 
Q 1547 4250 1301 3770 
Q 1056 3291 1056 2328 
Q 1056 1369 1301 889 
Q 1547 409 2034 409 
Q 2525 409 2770 889 
Q 3016 1369 3016 2328 
Q 3016 3291 2770 3770 
Q 2525 4250 2034 4250 
z
M 2034 4750 
Q 2819 4750 3233 4129 
Q 3647 3509 3647 2328 
Q 3647 1150 3233 529 
Q 2819 -91 2034 -91 
Q 1250 -91 836 529 
Q 422 1150 422 2328 
Q 422 3509 836 4129 
Q 1250 4750 2034 4750 
z
" transform="scale(0.015625)"/>
        <path id="DejaVuSans-35" d="M 691 4666 
L 3169 4666 
L 3169 4134 
L 1269 4134 
L 1269 2991 
Q 1406 3038 1543 3061 
Q 1681 3084 1819 3084 
Q 2600 3084 3056 2656 
Q 3513 2228 3513 1497 
Q 3513 744 3044 326 
Q 2575 -91 1722 -91 
Q 1428 -91 1123 -41 
Q 819 9 494 109 
L 494 744 
Q 775 591 1075 516 
Q 1375 441 1709 441 
Q 2250 441 2565 725 
Q 2881 1009 2881 1497 
Q 2881 1984 2565 2268 
Q 2250 2553 1709 2553 
Q 1456 2553 1204 2497 
Q 953 2441 691 2322 
L 691 4666 
z
" transform="scale(0.015625)"/>
        <path id="DejaVuSans-2d" d="M 313 2009 
L 1997 2009 
L 1997 1497 
L 313 1497 
L 313 2009 
z
" transform="scale(0.015625)"/>
        <path id="DejaVuSans-31" d="M 794 531 
L 1825 531 
L 1825 4091 
L 703 3866 
L 703 4441 
L 1819 4666 
L 2450 4666 
L 2450 531 
L 3481 531 
L 3481 0 
L 794 0 
L 794 531 
z
" transform="scale(0.015625)"/>
       </defs>
       <use xlink:href="#DejaVuSans-32"/>
       <use xlink:href="#DejaVuSans-30" transform="translate(63.623047 0)"/>
       <use xlink:href="#DejaVuSans-32" transform="translate(127.246094 0)"/>
       <use xlink:href="#DejaVuSans-35" transform="translate(190.869141 0)"/>
       <use xlink:href="#DejaVuSans-2d" transform="translate(254.492188 0)"/>
       <use xlink:href="#DejaVuSans-31" transform="translate(290.576172 0)"/>
       <use xlink:href="#DejaVuSans-31" transform="translate(354.199219 0)"/>
      </g>
     </g>
    </g>
    <g id="xtick_2">
     <g id="line2d_2">
      <g>
       <use xlink:href="#m99ea86d845" x="140.46332" y="173.52" style="stroke: #000000; stroke-width: 0.8"/>
      </g>
     </g>
     <g id="text_2">
      <!-- 2025-12 -->
      <g transform="translate(115.393633 189.638125) scale(0.12 -0.12)">
       <use xlink:href="#DejaVuSans-32"/>
       <use xlink:href="#DejaVuSans-30" transform="translate(63.623047 0)"/>
       <use xlink:href="#DejaVuSans-32" transform="translate(127.246094 0)"/>
       <use xlink:href="#DejaVuSans-35" transform="translate(190.869141 0)"/>
       <use xlink:href="#DejaVuSans-2d" transform="translate(254.492188 0)"/>
       <use xlink:href="#DejaVuSans-31" transform="translate(290.576172 0)"/>
       <use xlink:href="#DejaVuSans-32" transform="translate(354.199219 0)"/>
      </g>
     </g>
    </g>
    <g id="xtick_3">
     <g id="line2d_3">
      <g>
       <use xlink:href="#m99ea86d845" x="208.834862" y="173.52" style="stroke: #000000; stroke-width: 0.8"/>
      </g>
     </g>
     <g id="text_3">
      <!-- 2026-01 -->
      <g transform="translate(183.765174 189.638125) scale(0.12 -0.12)">
       <defs>
        <path id="DejaVuSans-36" d="M 2113 2584 
Q 1688 2584 1439 2293 
Q 1191 2003 1191 1497 
Q 1191 994 1439 701 
Q 1688 409 2113 409 
Q 2538 409 2786 701 
Q 3034 994 3034 1497 
Q 3034 2003 2786 2293 
Q 2538 2584 2113 2584 
z
M 3366 4563 
L 3366 3988 
Q 3128 4100 2886 4159 
Q 2644 4219 2406 4219 
Q 1781 4219 1451 3797 
Q 1122 3375 1075 2522 
Q 1259 2794 1537 2939 
Q 1816 3084 2150 3084 
Q 2853 3084 3261 2657 
Q 3669 2231 3669 1497 
Q 3669 778 3244 343 
Q 2819 -91 2113 -91 
Q 1303 -91 875 529 
Q 447 1150 447 2328 
Q 447 3434 972 4092 
Q 1497 4750 2381 4750 
Q 2619 4750 2861 4703 
Q 3103 4656 3366 4563 
z
" transform="scale(0.015625)"/>
       </defs>
       <use xlink:href="#DejaVuSans-32"/>
       <use xlink:href="#DejaVuSans-30" transform="translate(63.623047 0)"/>
       <use xlink:href="#DejaVuSans-32" transform="translate(127.246094 0)"/>
       <use xlink:href="#DejaVuSans-36" transform="translate(190.869141 0)"/>
       <use xlink:href="#DejaVuSans-2d" transform="translate(254.492188 0)"/>
       <use xlink:href="#DejaVuSans-30" transform="translate(290.576172 0)"/>
       <use xlink:href="#DejaVuSans-31" transform="translate(354.199219 0)"/>
      </g>
     </g>
    </g>
    <g id="xtick_4">
     <g id="line2d_4">
      <g>
       <use xlink:href="#m99ea86d845" x="277.206403" y="173.52" style="stroke: #000000; stroke-width: 0.8"/>
      </g>
     </g>
     <g id="text_4">
      <!-- 2026-02 -->
      <g transform="translate(252.136716 189.638125) scale(0.12 -0.12)">
       <use xlink:href="#DejaVuSans-32"/>
       <use xlink:href="#DejaVuSans-30" transform="translate(63.623047 0)"/>
       <use xlink:href="#DejaVuSans-32" transform="translate(127.246094 0)"/>
       <use xlink:href="#DejaVuSans-36" transform="translate(190.869141 0)"/>
       <use xlink:href="#DejaVuSans-2d" transform="translate(254.492188 0)"/>
       <use xlink:href="#DejaVuSans-30" transform="translate(290.576172 0)"/>
       <use xlink:href="#DejaVuSans-32" transform="translate(354.199219 0)"/>
      </g>
     </g>
    </g>
    <g id="xtick_5">
     <g id="line2d_5">
      <g>
       <use xlink:href="#m99ea86d845" x="338.961344" y="173.52" style="stroke: #000000; stroke-width: 0.8"/>
      </g>
     </g>
     <g id="text_5">
      <!-- 2026-03 -->
      <g transform="translate(313.891656 189.638125) scale(0.12 -0.12)">
       <defs>
        <path id="DejaVuSans-33" d="M 2597 2516 
Q 3050 2419 3304 2112 
Q 3559 1806 3559 1356 
Q 3559 666 3084 287 
Q 2609 -91 1734 -91 
Q 1441 -91 1130 -33 
Q 819 25 488 141 
L 488 750 
Q 750 597 1062 519 
Q 1375 441 1716 441 
Q 2309 441 2620 675 
Q 2931 909 2931 1356 
Q 2931 1769 2642 2001 
Q 2353 2234 1838 2234 
L 1294 2234 
L 1294 2753 
L 1863 2753 
Q 2328 2753 2575 2939 
Q 2822 3125 2822 3475 
Q 2822 3834 2567 4026 
Q 2313 4219 1838 4219 
Q 1578 4219 1281 4162 
Q 984 4106 628 3988 
L 628 4550 
Q 988 4650 1302 4700 
Q 1616 4750 1894 4750 
Q 2613 4750 3031 4423 
Q 3450 4097 3450 3541 
Q 3450 3153 3228 2886 
Q 3006 2619 2597 2516 
z
" transform="scale(0.015625)"/>
       </defs>
       <use xlink:href="#DejaVuSans-32"/>
       <use xlink:href="#DejaVuSans-30" transform="translate(63.623047 0)"/>
       <use xlink:href="#DejaVuSans-32" transform="translate(127.246094 0)"/>
       <use xlink:href="#DejaVuSans-36" transform="translate(190.869141 0)"/>
       <use xlink:href="#DejaVuSans-2d" transform="translate(254.492188 0)"/>
       <use xlink:href="#DejaVuSans-30" transform="translate(290.576172 0)"/>
       <use xlink:href="#DejaVuSans-33" transform="translate(354.199219 0)"/>
      </g>
     </g>
    </g>
    <g id="xtick_6">
     <g id="line2d_6">
      <g>
       <use xlink:href="#m99ea86d845" x="407.332885" y="173.52" style="stroke: #000000; stroke-width: 0.8"/>
      </g>
     </g>
     <g id="text_6">
      <!-- 2026-04 -->
      <g transform="translate(382.263198 189.638125) scale(0.12 -0.12)">
       <defs>
        <path id="DejaVuSans-34" d="M 2419 4116 
L 825 1625 
L 2419 1625 
L 2419 4116 
z
M 2253 4666 
L 3047 4666 
L 3047 1625 
L 3713 1625 
L 3713 1100 
L 3047 1100 
L 3047 0 
L 2419 0 
L 2419 1100 
L 313 1100 
L 313 1709 
L 2253 4666 
z
" transform="scale(0.015625)"/>
       </defs>
       <use xlink:href="#DejaVuSans-32"/>
       <use xlink:href="#DejaVuSans-30" transform="translate(63.623047 0)"/>
       <use xlink:href="#DejaVuSans-32" transform="translate(127.246094 0)"/>
       <use xlink:href="#DejaVuSans-36" transform="translate(190.869141 0)"/>
       <use xlink:href="#DejaVuSans-2d" transform="translate(254.492188 0)"/>
       <use xlink:href="#DejaVuSans-30" transform="translate(290.576172 0)"/>
       <use xlink:href="#DejaVuSans-34" transform="translate(354.199219 0)"/>
      </g>
     </g>
    </g>
    <g id="text_7">
     <!-- Time -->
     <g transform="translate(233.612969 212.771563) scale(0.14 -0.14)">
      <defs>
       <path id="DejaVuSans-54" d="M -19 4666 
L 3928 4666 
L 3928 4134 
L 2272 4134 
L 2272 0 
L 1638 0 
L 1638 4134 
L -19 4134 
L -19 4666 
z
" transform="scale(0.015625)"/>
       <path id="DejaVuSans-69" d="M 603 3500 
L 1178 3500 
L 1178 0 
L 603 0 
L 603 3500 
z
M 603 4863 
L 1178 4863 
L 1178 4134 
L 603 4134 
L 603 4863 
z
" transform="scale(0.015625)"/>
       <path id="DejaVuSans-6d" d="M 3328 2828 
Q 3544 3216 3844 3400 
Q 4144 3584 4550 3584 
Q 5097 3584 5394 3201 
Q 5691 2819 5691 2113 
L 5691 0 
L 5113 0 
L 5113 2094 
Q 5113 2597 4934 2840 
Q 4756 3084 4391 3084 
Q 3944 3084 3684 2787 
Q 3425 2491 3425 1978 
L 3425 0 
L 2847 0 
L 2847 2094 
Q 2847 2600 2669 2842 
Q 2491 3084 2119 3084 
Q 1678 3084 1418 2786 
Q 1159 2488 1159 1978 
L 1159 0 
L 581 0 
L 581 3500 
L 1159 3500 
L 1159 2956 
Q 1356 3278 1631 3431 
Q 1906 3584 2284 3584 
Q 2666 3584 2933 3390 
Q 3200 3197 3328 2828 
z
" transform="scale(0.015625)"/>
       <path id="DejaVuSans-65" d="M 3597 1894 
L 3597 1613 
L 953 1613 
Q 991 1019 1311 708 
Q 1631 397 2203 397 
Q 2534 397 2845 478 
Q 3156 559 3463 722 
L 3463 178 
Q 3153 47 2828 -22 
Q 2503 -91 2169 -91 
Q 1331 -91 842 396 
Q 353 884 353 1716 
Q 353 2575 817 3079 
Q 1281 3584 2069 3584 
Q 2775 3584 3186 3129 
Q 3597 2675 3597 1894 
z
M 3022 2063 
Q 3016 2534 2758 2815 
Q 2500 3097 2075 3097 
Q 1594 3097 1305 2825 
Q 1016 2553 972 2059 
L 3022 2063 
z
" transform="scale(0.015625)"/>
      </defs>
      <use xlink:href="#DejaVuSans-54"/>
      <use xlink:href="#DejaVuSans-69" transform="translate(57.958984 0)"/>
      <use xlink:href="#DejaVuSans-6d" transform="translate(85.742188 0)"/>
      <use xlink:href="#DejaVuSans-65" transform="translate(183.154297 0)"/>
     </g>
    </g>
   </g>
   <g id="matplotlib.axis_2">
    <g id="ytick_1">
     <g id="line2d_7">
      <defs>
       <path id="ma3e93ef9ad" d="M 0 0 
L -3.5 0 
" style="stroke: #000000; stroke-width: 0.8"/>
      </defs>
      <g>
       <use xlink:href="#ma3e93ef9ad" x="55.44" y="142.131041" style="stroke: #000000; stroke-width: 0.8"/>
      </g>
     </g>
     <g id="text_8">
      <!-- −5 -->
      <g transform="translate(30.749375 146.690104) scale(0.12 -0.12)">
       <defs>
        <path id="DejaVuSans-2212" d="M 678 2272 
L 4684 2272 
L 4684 1741 
L 678 1741 
L 678 2272 
z
" transform="scale(0.015625)"/>
       </defs>
       <use xlink:href="#DejaVuSans-2212"/>
       <use xlink:href="#DejaVuSans-35" transform="translate(83.789062 0)"/>
      </g>
     </g>
    </g>
    <g id="ytick_2">
     <g id="line2d_8">
      <g>
       <use xlink:href="#ma3e93ef9ad" x="55.44" y="110.592713" style="stroke: #000000; stroke-width: 0.8"/>
      </g>
     </g>
     <g id="text_9">
      <!-- 0 -->
      <g transform="translate(40.805 115.151776) scale(0.12 -0.12)">
       <use xlink:href="#DejaVuSans-30"/>
      </g>
     </g>
    </g>
    <g id="ytick_3">
     <g id="line2d_9">
      <g>
       <use xlink:href="#ma3e93ef9ad" x="55.44" y="79.054386" style="stroke: #000000; stroke-width: 0.8"/>
      </g>
     </g>
     <g id="text_10">
      <!-- 5 -->
      <g transform="translate(40.805 83.613448) scale(0.12 -0.12)">
       <use xlink:href="#DejaVuSans-35"/>
      </g>
     </g>
    </g>
    <g id="ytick_4">
     <g id="line2d_10">
      <g>
       <use xlink:href="#ma3e93ef9ad" x="55.44" y="47.516058" style="stroke: #000000; stroke-width: 0.8"/>
      </g>
     </g>
     <g id="text_11">
      <!-- 10 -->
      <g transform="translate(33.17 52.07512) scale(0.12 -0.12)">
       <use xlink:href="#DejaVuSans-31"/>
       <use xlink:href="#DejaVuSans-30" transform="translate(63.623047 0)"/>
      </g>
     </g>
    </g>
    <g id="ytick_5">
     <g id="line2d_11">
      <g>
       <use xlink:href="#ma3e93ef9ad" x="55.44" y="15.97773" style="stroke: #000000; stroke-width: 0.8"/>
      </g>
     </g>
     <g id="text_12">
      <!-- 15 -->
      <g transform="translate(33.17 20.536792) scale(0.12 -0.12)">
       <use xlink:href="#DejaVuSans-31"/>
       <use xlink:href="#DejaVuSans-35" transform="translate(63.623047 0)"/>
      </g>
     </g>
    </g>
    <g id="text_13">
     <!-- Temperature [°C] -->
     <g transform="translate(17.837812 150.772188) rotate(-90) scale(0.14 -0.14)">
      <defs>
       <path id="DejaVuSans-70" d="M 1159 525 
L 1159 -1331 
L 581 -1331 
L 581 3500 
L 1159 3500 
L 1159 2969 
Q 1341 3281 1617 3432 
Q 1894 3584 2278 3584 
Q 2916 3584 3314 3078 
Q 3713 2572 3713 1747 
Q 3713 922 3314 415 
Q 2916 -91 2278 -91 
Q 1894 -91 1617 61 
Q 1341 213 1159 525 
z
M 3116 1747 
Q 3116 2381 2855 2742 
Q 2594 3103 2138 3103 
Q 1681 3103 1420 2742 
Q 1159 2381 1159 1747 
Q 1159 1113 1420 752 
Q 1681 391 2138 391 
Q 2594 391 2855 752 
Q 3116 1113 3116 1747 
z
" transform="scale(0.015625)"/>
       <path id="DejaVuSans-72" d="M 2631 2963 
Q 2534 3019 2420 3045 
Q 2306 3072 2169 3072 
Q 1681 3072 1420 2755 
Q 1159 2438 1159 1844 
L 1159 0 
L 581 0 
L 581 3500 
L 1159 3500 
L 1159 2956 
Q 1341 3275 1631 3429 
Q 1922 3584 2338 3584 
Q 2397 3584 2469 3576 
Q 2541 3569 2628 3553 
L 2631 2963 
z
" transform="scale(0.015625)"/>
       <path id="DejaVuSans-61" d="M 2194 1759 
Q 1497 1759 1228 1600 
Q 959 1441 959 1056 
Q 959 750 1161 570 
Q 1363 391 1709 391 
Q 2188 391 2477 730 
Q 2766 1069 2766 1631 
L 2766 1759 
L 2194 1759 
z
M 3341 1997 
L 3341 0 
L 2766 0 
L 2766 531 
Q 2569 213 2275 61 
Q 1981 -91 1556 -91 
Q 1019 -91 701 211 
Q 384 513 384 1019 
Q 384 1609 779 1909 
Q 1175 2209 1959 2209 
L 2766 2209 
L 2766 2266 
Q 2766 2663 2505 2880 
Q 2244 3097 1772 3097 
Q 1472 3097 1187 3025 
Q 903 2953 641 2809 
L 641 3341 
Q 956 3463 1253 3523 
Q 1550 3584 1831 3584 
Q 2591 3584 2966 3190 
Q 3341 2797 3341 1997 
z
" transform="scale(0.015625)"/>
       <path id="DejaVuSans-74" d="M 1172 4494 
L 1172 3500 
L 2356 3500 
L 2356 3053 
L 1172 3053 
L 1172 1153 
Q 1172 725 1289 603 
Q 1406 481 1766 481 
L 2356 481 
L 2356 0 
L 1766 0 
Q 1100 0 847 248 
Q 594 497 594 1153 
L 594 3053 
L 172 3053 
L 172 3500 
L 594 3500 
L 594 4494 
L 1172 4494 
z
" transform="scale(0.015625)"/>
       <path id="DejaVuSans-75" d="M 544 1381 
L 544 3500 
L 1119 3500 
L 1119 1403 
Q 1119 906 1312 657 
Q 1506 409 1894 409 
Q 2359 409 2629 706 
Q 2900 1003 2900 1516 
L 2900 3500 
L 3475 3500 
L 3475 0 
L 2900 0 
L 2900 538 
Q 2691 219 2414 64 
Q 2138 -91 1772 -91 
Q 1169 -91 856 284 
Q 544 659 544 1381 
z
M 1991 3584 
L 1991 3584 
z
" transform="scale(0.015625)"/>
       <path id="DejaVuSans-20" transform="scale(0.015625)"/>
       <path id="DejaVuSans-5b" d="M 550 4863 
L 1875 4863 
L 1875 4416 
L 1125 4416 
L 1125 -397 
L 1875 -397 
L 1875 -844 
L 550 -844 
L 550 4863 
z
" transform="scale(0.015625)"/>
       <path id="DejaVuSans-b0" d="M 1600 4347 
Q 1350 4347 1178 4173 
Q 1006 4000 1006 3750 
Q 1006 3503 1178 3333 
Q 1350 3163 1600 3163 
Q 1850 3163 2022 3333 
Q 2194 3503 2194 3750 
Q 2194 3997 2020 4172 
Q 1847 4347 1600 4347 
z
M 1600 4750 
Q 1800 4750 1984 4673 
Q 2169 4597 2303 4453 
Q 2447 4313 2519 4134 
Q 2591 3956 2591 3750 
Q 2591 3338 2302 3052 
Q 2013 2766 1594 2766 
Q 1172 2766 890 3047 
Q 609 3328 609 3750 
Q 609 4169 896 4459 
Q 1184 4750 1600 4750 
z
" transform="scale(0.015625)"/>
       <path id="DejaVuSans-43" d="M 4122 4306 
L 4122 3641 
Q 3803 3938 3442 4084 
Q 3081 4231 2675 4231 
Q 1875 4231 1450 3742 
Q 1025 3253 1025 2328 
Q 1025 1406 1450 917 
Q 1875 428 2675 428 
Q 3081 428 3442 575 
Q 3803 722 4122 1019 
L 4122 359 
Q 3791 134 3420 21 
Q 3050 -91 2638 -91 
Q 1578 -91 968 557 
Q 359 1206 359 2328 
Q 359 3453 968 4101 
Q 1578 4750 2638 4750 
Q 3056 4750 3426 4639 
Q 3797 4528 4122 4306 
z
" transform="scale(0.015625)"/>
       <path id="DejaVuSans-5d" d="M 1947 4863 
L 1947 -844 
L 622 -844 
L 622 -397 
L 1369 -397 
L 1369 4416 
L 622 4416 
L 622 4863 
L 1947 4863 
z
" transform="scale(0.015625)"/>
      </defs>
      <use xlink:href="#DejaVuSans-54"/>
      <use xlink:href="#DejaVuSans-65" transform="translate(44.083984 0)"/>
      <use xlink:href="#DejaVuSans-6d" transform="translate(105.607422 0)"/>
      <use xlink:href="#DejaVuSans-70" transform="translate(203.019531 0)"/>
      <use xlink:href="#DejaVuSans-65" transform="translate(266.496094 0)"/>
      <use xlink:href="#DejaVuSans-72" transform="translate(328.019531 0)"/>
      <use xlink:href="#DejaVuSans-61" transform="translate(369.132812 0)"/>
      <use xlink:href="#DejaVuSans-74" transform="translate(430.412109 0)"/>
      <use xlink:href="#DejaVuSans-75" transform="translate(469.621094 0)"/>
      <use xlink:href="#DejaVuSans-72" transform="translate(533 0)"/>
      <use xlink:href="#DejaVuSans-65" transform="translate(571.863281 0)"/>
      <use xlink:href="#DejaVuSans-20" transform="translate(633.386719 0)"/>
      <use xlink:href="#DejaVuSans-5b" transform="translate(665.173828 0)"/>
      <use xlink:href="#DejaVuSans-b0" transform="translate(704.1875 0)"/>
      <use xlink:href="#DejaVuSans-43" transform="translate(754.1875 0)"/>
      <use xlink:href="#DejaVuSans-5d" transform="translate(824.011719 0)"/>
     </g>
    </g>
   </g>
   <g id="line2d_12">
    <path d="M 73.194545 42.246529 
L 73.408972 43.179538 
L 73.791877 45.623758 
L 73.94504 46.33337 
L 74.802747 51.672985 
L 74.848696 51.699266 
L 74.894644 51.629181 
L 75.03249 51.353221 
L 75.446028 48.36146 
L 76.410949 38.0677 
L 76.456897 37.975714 
L 76.502846 38.076461 
L 76.977648 41.269717 
L 77.329921 43.906671 
L 77.789407 48.62428 
L 78.524585 57.406828 
L 78.662431 57.822958 
L 78.708379 57.70907 
L 78.892174 56.705976 
L 79.244447 55.067735 
L 79.382292 55.107158 
L 79.458874 55.53643 
L 79.964308 60.28032 
L 81.021126 71.839993 
L 81.036443 71.835613 
L 81.404032 71.923219 
L 81.526561 72.567127 
L 81.863518 74.021394 
L 82.169842 74.446285 
L 82.353636 74.200987 
L 82.430217 73.894365 
L 82.476166 74.052056 
L 82.813123 74.954403 
L 83.058182 76.259739 
L 83.241976 76.833562 
L 83.379822 76.934309 
L 83.624881 77.455568 
L 83.701462 77.613259 
L 83.977154 78.108236 
L 84.053735 78.200222 
L 84.252846 78.756524 
L 84.620435 81.358436 
L 84.712332 80.986108 
L 85.095237 79.063146 
L 85.171818 79.334726 
L 85.32498 80.762712 
L 86.167372 91.998241 
L 86.366482 92.38809 
L 86.473696 92.204116 
L 86.642174 91.157219 
L 86.902549 89.961391 
L 87.162925 89.580302 
L 87.453933 89.523358 
L 87.637727 89.895686 
L 87.99 90.90316 
L 88.020632 90.872498 
L 88.5567 90.162885 
L 88.694545 90.110322 
L 88.863024 90.009574 
L 89.108083 89.659148 
L 89.414407 89.168552 
L 89.628834 89.212355 
L 90.149585 89.527739 
L 90.302747 89.501457 
L 90.517174 89.501457 
L 90.65502 89.365667 
L 90.838814 88.752421 
L 91.696522 83.828938 
L 92.018162 79.299684 
L 92.676759 70.517135 
L 93.105613 66.960313 
L 93.534466 66.592366 
L 93.96332 65.992261 
L 93.978636 66.022924 
L 94.453439 67.994069 
L 95.280514 74.126522 
L 95.403043 73.981971 
L 95.770632 73.092766 
L 95.816581 73.15847 
L 96.031008 74.078338 
L 96.122905 73.872463 
L 96.276067 72.61093 
L 96.536443 69.457097 
L 97.011245 64.257653 
L 97.240988 63.583084 
L 97.39415 63.740775 
L 97.700474 65.755724 
L 98.634763 75.948736 
L 98.987036 76.925548 
L 99.109565 77.113902 
L 99.17083 77.148945 
L 99.201462 77.061338 
L 99.354625 76.903647 
L 99.615 75.620212 
L 100.013221 72.821185 
L 100.288913 69.553464 
L 101.131304 58.874236 
L 101.636739 55.488246 
L 101.789901 55.155342 
L 101.851166 55.26923 
L 102.050277 55.580233 
L 102.126858 55.81239 
L 103.581897 64.665023 
L 103.61253 64.717587 
L 103.673794 64.608079 
L 103.719743 64.48105 
L 103.826957 63.758297 
L 105.680217 40.323567 
L 105.971225 37.826783 
L 106.017174 37.866205 
L 106.093755 37.844304 
L 106.124387 37.910009 
L 106.216285 37.975714 
L 106.507292 39.815449 
L 106.92083 42.412981 
L 107.181206 44.248337 
L 107.472213 49.452161 
L 107.855119 54.660365 
L 108.345237 59.093252 
L 108.498399 59.259705 
L 108.513715 59.233423 
L 108.758775 58.755967 
L 108.835356 58.65084 
L 108.896621 58.335456 
L 109.478636 54.025218 
L 109.509269 53.985795 
L 109.555217 54.082162 
L 109.677747 55.054594 
L 109.938123 59.540045 
L 110.443557 67.455289 
L 111.132787 81.735143 
L 111.776067 96.72899 
L 112.00581 97.793409 
L 112.113024 97.977382 
L 112.266186 98.76146 
L 112.526561 101.700657 
L 113.031996 106.466449 
L 113.705909 108.577765 
L 113.843755 108.577765 
L 113.920336 108.494539 
L 114.303241 107.482684 
L 114.502352 106.418265 
L 115.23753 100.123741 
L 115.543854 96.120125 
L 116.018656 90.719187 
L 116.141186 90.508931 
L 116.202451 90.565875 
L 116.279032 90.784891 
L 116.416877 91.731041 
L 116.998893 96.891062 
L 117.228636 98.393513 
L 118.484565 110.189724 
L 118.744941 111.175296 
L 119.005316 112.03384 
L 119.326957 112.235335 
L 119.694545 112.796016 
L 120.016186 114.254664 
L 120.490988 116.830294 
L 120.552253 116.90914 
L 121.180217 118.792679 
L 121.670336 124.276843 
L 122.528043 134.132571 
L 122.834368 135.297737 
L 123.048794 135.192609 
L 123.263221 134.631928 
L 123.447016 133.282788 
L 123.891186 127.294886 
L 124.32004 117.645034 
L 124.993953 102.949049 
L 125.821028 92.300483 
L 126.372411 86.606063 
L 126.586838 86.115467 
L 126.602154 86.128608 
L 126.663419 86.115467 
L 126.678735 86.080424 
L 127.337332 83.5924 
L 127.383281 83.662486 
L 127.674289 84.074236 
L 127.75087 84.008531 
L 127.904032 84.034813 
L 128.041877 84.328295 
L 128.792372 88.029668 
L 129.359071 92.445034 
L 129.665395 95.695234 
L 130.538419 100.071177 
L 130.768162 100.373419 
L 130.951957 100.312095 
L 131.05917 100.211347 
L 131.105119 100.281432 
L 131.411443 100.66252 
L 131.50334 100.439124 
L 131.794348 98.143835 
L 132.054723 96.812216 
L 132.115988 96.807836 
L 132.146621 96.86916 
L 132.284466 97.350996 
L 132.590791 99.374705 
L 132.973696 103.176826 
L 133.188123 106.659183 
L 133.754822 115.065023 
L 133.938617 115.647606 
L 134.091779 115.735213 
L 134.107095 115.717692 
L 134.290889 115.231476 
L 134.658478 112.756593 
L 135.133281 107.101596 
L 135.424289 101.411556 
L 136.036937 90.136604 
L 136.603636 85.567926 
L 136.741482 85.370812 
L 136.772115 85.401474 
L 137.124387 85.966536 
L 137.752352 88.717379 
L 138.150573 90.035856 
L 138.410949 91.31491 
L 138.610059 91.757323 
L 138.701957 91.639054 
L 138.80917 91.17912 
L 139.82004 84.446564 
L 140.126364 82.817083 
L 140.478636 81.879694 
L 140.570534 81.96292 
L 140.662431 82.238881 
L 141.167866 85.239402 
L 141.657984 89.186073 
L 142.68417 93.316718 
L 142.714802 93.281676 
L 142.852648 92.909348 
L 143.051759 92.39247 
L 143.082391 92.409991 
L 143.189605 92.720994 
L 143.679723 94.254107 
L 143.786937 94.538828 
L 144.46085 96.952387 
L 144.644644 97.40794 
L 144.889704 98.704516 
L 145.410455 102.96657 
L 145.471719 102.887725 
L 145.640198 101.924054 
L 145.869941 101.166258 
L 146.160949 100.666901 
L 146.635751 100.163164 
L 146.957391 100.154403 
L 147.079921 99.869682 
L 147.294348 98.76146 
L 147.57004 97.688281 
L 147.753834 97.631337 
L 147.983577 97.289671 
L 148.565593 95.686473 
L 148.871917 94.376756 
L 149.116976 92.537021 
L 149.515198 90.075279 
L 150.204427 87.560973 
L 150.265692 87.64858 
L 150.418854 88.480841 
L 151.307194 95.217779 
L 151.353142 95.248441 
L 151.414407 95.178356 
L 151.628834 94.324193 
L 152.486542 90.841836 
L 152.792866 85.686195 
L 153.466779 73.316162 
L 153.74247 71.607836 
L 154.002846 71.147902 
L 154.201957 70.468952 
L 156.101166 54.423828 
L 156.514704 50.490297 
L 156.790395 48.882719 
L 156.821028 48.865197 
L 156.85166 48.939663 
L 156.943557 49.535387 
L 157.219249 51.966466 
L 157.586838 56.530763 
L 158.015692 62.474862 
L 158.904032 78.993061 
L 159.240988 82.352769 
L 159.685158 84.827652 
L 160.052747 86.56226 
L 160.083379 86.549119 
L 160.190593 86.29944 
L 160.313123 85.221881 
L 160.987036 80.175748 
L 161.645632 76.67149 
L 162.028538 73.894365 
L 162.411443 72.720438 
L 162.426759 72.694156 
L 162.472708 72.834326 
L 162.656502 73.443191 
L 162.702451 73.355585 
L 163.100672 72.295547 
L 163.223202 72.238602 
L 163.238518 72.256124 
L 163.483577 72.689776 
L 163.943063 74.262312 
L 163.958379 74.257932 
L 164.096225 74.012633 
L 164.494447 72.847467 
L 164.60166 73.02268 
L 164.999881 74.923741 
L 165.428735 77.192748 
L 165.61253 77.140184 
L 165.796324 77.035056 
L 165.964802 77.07886 
L 166.133281 77.740289 
L 166.730613 81.980442 
L 167.971225 90.736708 
L 169.181206 95.274723 
L 169.564111 96.59758 
L 169.947016 97.521829 
L 170.513715 99.471072 
L 171.570534 104.341992 
L 171.892174 105.069126 
L 172.305711 105.660469 
L 172.749881 106.015276 
L 173.163419 105.80064 
L 173.377846 105.222437 
L 174.143656 103.343278 
L 174.480613 103.189967 
L 174.756304 103.154924 
L 175.01668 103.019134 
L 175.108577 103.09798 
L 175.139209 103.027895 
L 175.552747 101.512303 
L 175.889704 97.578773 
L 176.379822 92.164693 
L 176.624881 91.196642 
L 176.640198 91.218543 
L 176.762727 91.433179 
L 176.808676 91.402517 
L 176.869941 91.345573 
L 176.900573 91.398137 
L 177.390692 93.47003 
L 177.697016 95.682093 
L 178.355613 104.701179 
L 178.784466 109.357462 
L 179.167372 110.9519 
L 179.198004 110.969421 
L 179.274585 110.912477 
L 179.412431 110.759166 
L 179.565593 110.746025 
L 179.672806 110.640897 
L 179.994447 109.782354 
L 180.300771 108.612807 
L 180.453933 108.008323 
L 180.683676 106.567196 
L 180.928735 104.245625 
L 181.893656 96.667666 
L 182.261245 94.346094 
L 183.042372 88.953916 
L 183.272115 88.454559 
L 183.318063 88.384474 
L 183.348696 88.472081 
L 183.792866 90.390662 
L 184.114506 91.04333 
L 184.191087 91.253586 
L 184.466779 93.172168 
L 185.4317 102.760695 
L 185.538913 103.181206 
L 185.600178 103.111121 
L 185.692075 102.935908 
L 185.983083 102.305142 
L 186.212826 102.300761 
L 186.96332 101.989758 
L 187.254328 101.643713 
L 187.392174 101.779503 
L 187.821028 103.036656 
L 188.311146 104.438359 
L 188.61747 104.631093 
L 188.801265 104.688038 
L 189.06164 104.876391 
L 189.245435 105.485256 
L 189.551759 106.418265 
L 189.674289 106.370082 
L 190.639209 104.504064 
L 190.868953 103.623619 
L 191.190593 102.475974 
L 191.359071 102.475974 
L 192.232095 102.857062 
L 192.400573 102.83078 
L 192.584368 103.203108 
L 192.829427 104.219343 
L 193.365494 106.536534 
L 193.533972 106.470829 
L 193.855613 106.181728 
L 194.299783 106.418265 
L 194.575474 107.005229 
L 194.820534 107.211104 
L 194.943063 107.189202 
L 195.356601 106.943904 
L 195.371917 106.965806 
L 195.586344 107.552769 
L 196.352154 109.786734 
L 196.750375 110.505107 
L 197.531502 111.078929 
L 198.220731 111.880528 
L 198.71085 111.990037 
L 198.894644 112.357984 
L 199.262233 113.470586 
L 199.813617 114.850388 
L 199.966779 114.846007 
L 200.196522 114.504342 
L 200.395632 114.359791 
L 200.625375 114.250283 
L 201.865988 112.975609 
L 202.187628 113.39612 
L 202.938123 115.121968 
L 203.642668 117.500483 
L 204.24 119.226331 
L 204.301265 119.129963 
L 204.531008 118.056784 
L 205.465296 113.759687 
L 205.511245 113.772828 
L 205.603142 113.842913 
L 205.909466 115.15263 
L 206.874387 120.321411 
L 207.042866 120.886473 
L 207.22666 122.46339 
L 208.451957 134.942931 
L 208.635751 135.424766 
L 208.6817 135.411625 
L 208.758281 135.512373 
L 208.972708 135.661304 
L 209.095237 135.359061 
L 209.355613 134.408531 
L 209.600672 133.611312 
L 209.707885 133.44486 
L 210.090791 131.902986 
L 210.259269 130.46624 
L 210.53496 125.757393 
L 211.009763 116.208288 
L 211.300771 113.79911 
L 211.54583 112.003177 
L 211.898103 106.492731 
L 212.265692 102.029181 
L 212.602648 99.44041 
L 212.617964 99.462312 
L 212.771126 100.136882 
L 213.031502 103.189967 
L 214.394644 122.59918 
L 214.823498 127.785482 
L 215.482095 136.787047 
L 215.834368 137.566744 
L 216.30917 140.519082 
L 216.814605 146.358053 
L 216.952451 146.577069 
L 217.013715 146.458801 
L 217.120929 145.884978 
L 217.64168 142.065336 
L 217.687628 142.11352 
L 217.886739 142.814372 
L 218.300277 145.823654 
L 218.53002 147.584544 
L 218.744447 148.574497 
L 218.958874 151.19393 
L 219.985059 165.14964 
L 220.245435 165.96 
L 220.322016 165.837351 
L 220.50581 164.825496 
L 221.041877 158.202447 
L 221.746423 148.132084 
L 222.297806 144.338724 
L 222.542866 143.383814 
L 222.864506 143.085952 
L 223.109565 141.390767 
L 223.569051 136.200083 
L 223.921324 130.102673 
L 224.258281 125.341262 
L 224.748399 119.918422 
L 225.483577 109.73855 
L 225.897115 104.346372 
L 227.336838 80.679485 
L 227.704427 78.717101 
L 227.735059 78.756524 
L 227.888221 78.83975 
L 227.949486 78.887933 
L 228.179229 80.710148 
L 228.485553 84.144321 
L 229.205415 94.806028 
L 229.772115 102.261338 
L 230.844249 111.09207 
L 231.073992 111.77102 
L 231.257787 112.0426 
L 231.441581 113.041314 
L 232.25334 120.124297 
L 232.544348 120.886473 
L 232.69751 120.776965 
L 232.896621 120.049831 
L 233.371423 117.084353 
L 233.723696 112.739072 
L 234.535455 101.46412 
L 234.719249 100.732606 
L 234.734565 100.697563 
L 234.811146 100.767648 
L 234.948992 100.78955 
L 235.010257 100.780789 
L 235.040889 100.842114 
L 235.194051 101.161877 
L 235.255316 101.043609 
L 235.423794 100.303334 
L 235.852648 97.364137 
L 235.883281 97.368517 
L 236.158972 97.605055 
L 236.740988 100.364658 
L 236.817569 100.850874 
L 236.89415 100.807071 
L 237.077945 100.447885 
L 237.139209 100.474167 
L 237.277055 100.027374 
L 237.445534 98.590627 
L 238.012233 94.635196 
L 238.732095 90.881258 
L 239.084368 86.509696 
L 239.697016 80.591879 
L 239.988024 78.988681 
L 240.355613 77.586977 
L 240.401561 77.608879 
L 240.44751 77.586977 
L 240.478142 77.683344 
L 240.493458 77.670203 
L 240.830415 78.686438 
L 241.014209 80.416666 
L 241.734071 90.044617 
L 242.055711 98.932293 
L 242.515198 108.433214 
L 242.959368 111.871768 
L 243.250375 113.006272 
L 243.587332 114.040028 
L 243.847708 114.714598 
L 244.169348 114.697076 
L 244.690099 114.495581 
L 244.858577 114.999319 
L 245.149585 115.932327 
L 245.195534 115.840341 
L 245.900079 113.050075 
L 246.206403 111.998797 
L 246.359565 111.985656 
L 246.528043 112.397407 
L 246.910949 113.488107 
L 247.033478 113.479346 
L 247.355119 112.607662 
L 247.416383 112.673367 
L 247.676759 113.216527 
L 248.120929 114.968656 
L 248.794842 117.548667 
L 249.97419 120.124297 
L 250.770632 123.28689 
L 251.322016 124.63165 
L 251.689605 126.278651 
L 252.210356 128.389967 
L 252.501364 128.779816 
L 252.930217 129.489428 
L 253.251858 129.690923 
L 253.450968 129.717205 
L 253.619447 129.739107 
L 253.803241 129.721585 
L 253.956403 129.454386 
L 254.201462 129.068917 
L 254.385257 128.902465 
L 254.615 128.29798 
L 254.844743 127.838046 
L 255.028538 127.947554 
L 255.151067 127.912512 
L 255.319545 127.435056 
L 255.687134 126.405681 
L 256.131304 125.31936 
L 256.223202 125.433249 
L 256.345731 125.428868 
L 256.575474 125.18357 
L 256.590791 125.196711 
L 256.897115 125.380685 
L 256.912431 125.350023 
L 257.203439 124.303125 
L 257.356601 123.851952 
L 257.417866 123.869473 
L 257.494447 123.943939 
L 257.770138 124.460817 
L 258.107095 124.7762 
L 258.229625 124.820003 
L 258.244941 124.798102 
L 258.444051 124.50024 
L 258.719743 123.164241 
L 259.0567 121.035404 
L 259.562134 118.735734 
L 259.868458 116.738307 
L 262.257787 97.845973 
L 262.885751 95.296624 
L 263.084862 94.919917 
L 263.406502 93.548875 
L 263.896621 90.798032 
L 264.662431 84.928399 
L 264.739012 85.033527 
L 265.137233 85.909592 
L 265.275079 86.903925 
L 265.688617 93.159027 
L 266.255316 102.541679 
L 266.638221 106.554055 
L 266.975178 108.634709 
L 267.158972 108.849345 
L 267.174289 108.823063 
L 267.373399 108.275522 
L 267.526561 107.241766 
L 268.552747 99.602482 
L 268.721225 99.764554 
L 268.813123 99.856541 
L 268.859071 99.795216 
L 269.487036 99.089984 
L 269.686146 98.713277 
L 269.900573 97.771507 
L 271.294348 89.479555 
L 271.309664 89.505837 
L 271.462826 90.123463 
L 271.906996 93.426226 
L 273.254822 106.562816 
L 273.607095 108.095929 
L 273.86747 108.227339 
L 273.99 108.10469 
L 274.75581 105.480876 
L 274.954921 105.419552 
L 275.215296 105.450214 
L 275.628834 106.238672 
L 275.690099 106.054698 
L 275.981107 105.034083 
L 276.302747 103.943383 
L 276.670336 102.979711 
L 276.915395 102.541679 
L 277.083874 101.810165 
L 277.282984 100.228868 
L 277.757787 95.64267 
L 277.849684 95.533162 
L 277.880316 95.603247 
L 278.768656 100.171924 
L 279.427253 105.003421 
L 279.779526 108.126591 
L 279.96332 108.279903 
L 279.993953 108.209817 
L 280.131798 107.307471 
L 281.41836 93.321099 
L 282.276067 79.39167 
L 282.444545 79.777139 
L 282.704921 81.743904 
L 283.731107 93.132745 
L 284.466285 106.768691 
L 284.833874 109.164728 
L 285.017668 109.528295 
L 285.032984 109.519534 
L 285.400573 108.796781 
L 286.05917 107.885674 
L 286.258281 107.885674 
L 286.334862 107.960139 
L 286.809664 108.731076 
L 286.855613 108.65661 
L 287.100672 107.758644 
L 287.315099 107.132258 
L 287.71332 105.419552 
L 288.080909 101.941575 
L 288.9233 89.159791 
L 289.581897 80.188889 
L 289.918854 77.245312 
L 290.317075 75.239124 
L 291.14415 67.99845 
L 291.159466 68.01159 
L 291.190099 68.059774 
L 291.26668 67.985309 
L 291.327945 68.064154 
L 291.511739 69.330068 
L 292.706403 85.226261 
L 293.257787 96.093843 
L 293.579427 97.933579 
L 293.656008 97.850353 
L 293.778538 97.075036 
L 294.421818 92.808601 
L 295.371423 88.975818 
L 295.448004 89.063424 
L 295.601166 89.82122 
L 296.045336 94.074514 
L 296.948992 103.382701 
L 297.056206 103.487829 
L 297.086838 103.404603 
L 297.776067 100.24639 
L 298.12834 96.150787 
L 298.373399 90.951344 
L 299.261739 67.937125 
L 299.675277 62.483622 
L 300.333874 55.624036 
L 300.441087 55.396259 
L 300.471719 55.448823 
L 300.67083 57.551378 
L 301.130316 62.781484 
L 301.697016 66.758818 
L 301.773597 66.912129 
L 301.834862 66.767579 
L 301.911443 66.92527 
L 302.432194 68.445242 
L 302.478142 68.375157 
L 302.646621 68.099197 
L 303.152055 66.636169 
L 303.182688 66.64931 
L 303.397115 66.338307 
L 303.78002 64.546755 
L 304.009763 63.460435 
L 304.132292 63.162573 
L 304.331403 62.671976 
L 304.4233 62.759583 
L 304.607095 63.022402 
L 304.974684 64.108722 
L 305.265692 65.387777 
L 305.510751 66.307645 
L 305.694545 67.525375 
L 306.046818 71.577174 
L 306.827945 80.631302 
L 307.700968 90.197928 
L 308.512727 97.626956 
L 308.773103 98.735178 
L 308.941581 98.945434 
L 309.018162 99.02428 
L 309.064111 98.984857 
L 309.217273 98.581867 
L 309.324486 97.968622 
L 309.538913 95.866066 
L 310.044348 88.988959 
L 310.626364 83.224453 
L 310.64168 83.193791 
L 310.687628 83.290158 
L 310.764209 83.417188 
L 310.825474 83.364624 
L 311.361542 82.002343 
L 311.392174 82.037386 
L 311.560652 82.006723 
L 311.683182 82.076809 
L 312.755316 86.763755 
L 312.816581 86.487794 
L 313.031008 86.054142 
L 313.06164 86.097945 
L 313.475178 86.684909 
L 313.582391 86.965249 
L 313.812134 88.397615 
L 315.313123 100.369039 
L 315.527549 101.030468 
L 315.864506 102.099266 
L 315.879822 102.081745 
L 316.0483 102.081745 
L 316.17083 101.726939 
L 316.676265 99.418509 
L 316.722213 99.339663 
L 316.890692 97.981763 
L 317.610553 91.363094 
L 317.978142 87.683622 
L 318.728636 79.969873 
L 319.065593 77.902361 
L 319.341285 77.389863 
L 319.877352 76.684631 
L 320.198992 76.2685 
L 320.505316 75.826087 
L 320.658478 75.615832 
L 320.995435 75.164658 
L 321.271126 75.05515 
L 321.37834 74.971924 
L 321.654032 72.672254 
L 322.113518 69.509661 
L 322.312628 69.09353 
L 322.343261 69.172376 
L 322.90996 71.673541 
L 323.139704 72.87813 
L 323.15502 72.873749 
L 323.308182 72.61531 
L 323.522609 71.327495 
L 323.828933 69.321307 
L 324.349684 66.982214 
L 324.533478 65.790767 
L 324.977648 62.133197 
L 326.172312 52.181102 
L 326.417372 50.512199 
L 327.688617 38.851778 
L 327.841779 38.567057 
L 327.872411 38.615241 
L 327.979625 38.983188 
L 328.224684 39.609574 
L 328.331897 39.473784 
L 328.454427 39.154021 
L 328.531008 39.294191 
L 328.653538 39.710322 
L 328.944545 42.6758 
L 330.598696 65.694399 
L 331.042866 68.966501 
L 331.961838 72.431337 
L 332.038419 72.19918 
L 332.176265 70.683588 
L 332.406008 66.027304 
L 332.819545 59.172098 
L 333.508775 54.349362 
L 333.89168 52.803108 
L 333.952945 52.632275 
L 334.320534 51.646703 
L 334.381798 51.537195 
L 334.53496 51.278755 
L 334.550277 51.300657 
L 334.626858 51.283136 
L 334.642174 51.248093 
L 334.703439 51.134205 
L 334.764704 51.243713 
L 335.040395 51.050979 
L 335.162925 50.831962 
L 335.193557 50.840723 
L 335.377352 51.06412 
L 335.438617 51.015936 
L 335.561146 51.103542 
L 335.637727 51.20867 
L 335.698992 51.121064 
L 335.882787 50.893287 
L 335.913419 50.92833 
L 336.066581 51.427686 
L 336.204427 51.269995 
L 336.357589 51.024697 
L 336.403538 51.116683 
L 336.602648 51.60728 
L 336.801759 54.060261 
L 337.506304 63.009261 
L 337.613518 63.237038 
L 337.64415 63.223897 
L 337.76668 63.000501 
L 338.226166 60.617605 
L 338.578439 58.068257 
L 338.670336 57.993791 
L 338.700968 58.015693 
L 338.869447 58.020073 
L 339.083874 57.695929 
L 339.09919 57.70907 
L 339.313617 57.963129 
L 339.573992 58.147102 
L 339.803735 59.399875 
L 340.064111 62.229564 
L 340.538913 69.22056 
L 341.19751 79.763998 
L 341.243458 79.733336 
L 341.289407 79.79466 
L 341.411937 79.461756 
L 341.51915 78.958018 
L 342.162431 75.918074 
L 342.53002 75.04639 
L 342.560652 75.042009 
L 342.575968 75.002586 
L 343.081403 72.558366 
L 343.908478 64.577417 
L 344.291383 63.552421 
L 344.858083 62.781484 
L 344.995929 62.794625 
L 345.011245 62.763963 
L 345.317569 62.558088 
L 345.486047 62.571229 
L 345.547312 62.439819 
L 345.623893 62.31279 
L 345.669842 62.360973 
L 345.930217 62.912894 
L 346.84919 65.050492 
L 346.864506 65.02421 
L 346.910455 65.124957 
L 347.17083 65.738203 
L 347.186146 65.729442 
L 347.232095 65.817048 
L 347.461838 66.250701 
L 347.814111 66.938411 
L 347.860059 67.043539 
L 348.242964 68.440862 
L 348.426759 68.563511 
L 348.62587 68.256889 
L 348.978142 67.337021 
L 349.606107 64.056159 
L 349.881798 63.692592 
L 350.019644 63.732015 
L 350.15749 63.784578 
L 350.172806 63.815241 
L 350.218755 63.710113 
L 350.662925 62.636934 
L 350.785455 62.492383 
L 350.938617 62.277747 
L 351.030514 62.111295 
L 351.290889 61.36226 
L 351.719743 60.639506 
L 351.781008 60.573801 
L 352.163913 58.615797 
L 352.408972 57.275418 
L 352.868458 55.882475 
L 353.236047 54.673506 
L 353.312628 54.778634 
L 353.358577 54.839958 
L 353.404526 54.72607 
L 353.419842 54.691027 
L 353.511739 54.756732 
L 353.557688 54.791775 
L 353.603636 54.72169 
L 353.848696 54.380024 
L 354.216285 53.937612 
L 354.721719 52.68922 
L 354.7983 52.487725 
L 354.982095 52.207384 
L 355.058676 52.119778 
L 355.518162 50.954612 
L 355.717273 50.433353 
L 355.977648 50.363268 
L 356.222708 49.684318 
L 356.406502 49.552908 
L 356.544348 49.57919 
L 356.666877 49.767544 
L 356.881304 49.929616 
L 357.095731 49.933996 
L 357.340791 49.863911 
L 357.46332 50.12235 
L 357.861542 52.452682 
L 358.35166 54.831198 
L 358.458874 54.975748 
L 358.489506 54.945086 
L 358.964308 54.673506 
L 359.071522 54.822437 
L 359.408478 55.602135 
L 359.515692 55.580233 
L 359.760751 54.520195 
L 360.312134 47.756975 
L 360.786937 42.036273 
L 360.89415 41.865441 
L 360.909466 41.909244 
L 361.33832 43.626331 
L 361.797806 44.940428 
L 362.915889 49.16744 
L 363.55917 52.96956 
L 363.988024 55.580233 
L 364.493458 59.798484 
L 364.723202 63.307123 
L 365.106107 67.801335 
L 365.243953 67.853899 
L 365.351166 67.801335 
L 365.412431 67.564797 
L 365.871917 65.168761 
L 366.10166 63.994834 
L 366.653043 59.829147 
L 367.035949 54.879381 
L 367.250375 51.493391 
L 367.326957 51.821916 
L 367.495435 54.069021 
L 367.817075 62.106915 
L 368.736047 86.908305 
L 369.501858 100.596816 
L 369.639704 100.750127 
L 369.670336 100.671281 
L 369.838814 99.799597 
L 370.083874 97.386039 
L 371.523597 82.133753 
L 371.952451 79.343487 
L 372.457885 75.812946 
L 372.840791 74.257932 
L 373.070534 73.570221 
L 373.08585 73.592122 
L 373.392174 74.222889 
L 373.683182 74.941262 
L 373.958874 75.791045 
L 374.004822 75.720959 
L 374.203933 74.844895 
L 374.464308 71.984544 
L 374.954427 67.928364 
L 375.06164 67.853899 
L 375.092273 67.923984 
L 375.230119 68.125479 
L 375.245435 68.112338 
L 375.475178 67.86704 
L 375.735553 66.837664 
L 375.980613 65.795147 
L 376.225672 65.032971 
L 376.39415 65.251987 
L 376.853636 66.408392 
L 377.098696 67.069821 
L 377.236542 67.319499 
L 377.374387 67.564797 
L 377.435652 67.525375 
L 377.72666 67.853899 
L 378.385257 70.836899 
L 378.645632 71.007732 
L 378.660949 70.98583 
L 378.783478 70.806237 
L 379.105119 69.435196 
L 379.411443 67.862659 
L 379.610553 66.885847 
L 379.702451 66.947172 
L 380.26915 66.614267 
L 380.315099 66.710634 
L 380.330415 66.723775 
L 380.361047 66.618648 
L 380.652055 66.184996 
L 380.774585 66.184996 
L 380.851166 66.23756 
L 381.004328 66.255081 
L 381.47913 65.944078 
L 381.494447 65.97474 
L 381.816087 66.758818 
L 381.877352 66.684353 
L 381.938617 66.710634 
L 382.229625 67.761912 
L 382.244941 67.74001 
L 382.597213 67.455289 
L 382.61253 67.477191 
L 382.704427 67.477191 
L 382.719743 67.45967 
L 382.903538 67.284457 
L 382.964802 67.437768 
L 383.424289 68.418961 
L 383.69998 68.892035 
L 383.745929 68.81757 
L 384.389209 65.015449 
L 384.864012 60.792818 
L 385.017174 60.586942 
L 385.03249 60.626365 
L 385.185652 60.788437 
L 385.323498 60.989932 
L 385.553241 61.204568 
L 385.660455 61.344738 
L 385.721719 61.283414 
L 385.7983 61.152004 
L 385.966779 60.512477 
L 386.04336 60.639506 
L 386.257787 61.217709 
L 386.441581 61.449866 
L 386.518162 61.646981 
L 387.176759 64.489811 
L 387.268656 64.61246 
L 387.314605 64.559896 
L 387.467767 64.489811 
L 387.666877 64.783292 
L 388.386739 67.407106 
L 389.443557 71.988924 
L 389.47419 71.945121 
L 389.581403 71.673541 
L 389.719249 70.959548 
L 390.745435 63.81086 
L 391.633775 55.019552 
L 391.89415 52.233666 
L 391.986047 51.865719 
L 392.01668 51.957706 
L 392.123893 54.156628 
L 392.65996 65.742583 
L 393.058182 70.911365 
L 393.762727 79.006202 
L 394.069051 87.854455 
L 394.360059 93.715328 
L 394.788913 97.245868 
L 394.926759 97.561252 
L 395.095237 98.748319 
L 395.615988 101.59991 
L 395.89168 102.221916 
L 396.152055 102.563581 
L 396.167372 102.528538 
L 396.33585 102.340184 
L 396.381798 102.322663 
L 396.397115 102.292001 
L 397.055711 98.980476 
L 397.162925 99.03304 
L 397.407984 99.462312 
L 398.127846 103.3608 
L 398.204427 103.264432 
L 398.43417 102.765076 
L 398.832391 101.021707 
L 398.908972 101.19692 
L 399.368458 102.940289 
L 399.383775 102.927148 
L 399.64415 101.954716 
L 400.501858 96.571298 
L 400.716285 96.247155 
L 400.762233 96.304099 
L 400.884763 96.334761 
L 400.915395 96.286577 
L 400.946028 96.369804 
L 400.991976 96.531876 
L 401.037925 96.347902 
L 401.160455 95.463077 
L 401.727154 91.424419 
L 402.079427 89.448893 
L 402.676759 85.230641 
L 402.738024 85.305107 
L 402.845237 85.392713 
L 402.87587 85.366431 
L 403.059664 84.748806 
L 403.120929 85.068569 
L 403.427253 86.43085 
L 403.503834 86.636725 
L 403.672312 87.420803 
L 403.718261 87.359479 
L 403.748893 87.37262 
L 403.779526 87.289393 
L 404.070534 86.667387 
L 404.101166 86.715571 
L 404.468755 87.942062 
L 404.836344 89.619725 
L 404.897609 89.597824 
L 405.066087 89.532119 
L 405.157984 89.637247 
L 405.280514 90.119082 
L 405.326462 89.94825 
L 405.510257 89.164172 
L 405.540889 89.190454 
L 405.602154 89.497076 
L 406.000375 92.208496 
L 406.551759 95.261582 
L 406.94998 96.536256 
L 406.995929 96.396086 
L 407.424783 95.309765 
L 407.715791 94.026331 
L 407.83832 92.887447 
L 408.40502 87.236829 
L 408.680711 86.303821 
L 408.833874 86.461512 
L 409.140198 86.733092 
L 409.155514 86.689289 
L 409.308676 86.281919 
L 409.997905 82.151274 
L 410.334862 80.407905 
L 410.533972 79.711434 
L 411.207885 75.409957 
L 411.238518 75.423098 
L 411.315099 75.05515 
L 411.774585 70.972689 
L 412.356601 64.625601 
L 413.107095 54.305559 
L 413.81164 44.239576 
L 414.087332 42.150162 
L 414.638715 37.65157 
L 415.082885 37.204777 
L 415.312628 38.072081 
L 415.649585 40.117692 
L 415.756798 39.894295 
L 415.925277 38.843018 
L 416.384763 31.69871 
L 416.767668 26.911017 
L 417.793854 17.458279 
L 418.023597 16.621637 
L 418.100178 16.577834 
L 418.13081 16.643539 
L 418.513715 18.575262 
L 418.927253 21.619586 
L 419.172312 22.245973 
L 419.631798 25.513694 
L 420.060652 27.927252 
L 420.152549 28.155029 
L 420.22913 28.054281 
L 420.657984 27.112512 
L 420.857095 25.789654 
L 421.653538 21.045764 
L 421.990494 20.270447 
L 422.051759 20.112755 
L 422.358083 19.254212 
L 422.541877 18.951969 
L 422.924783 18.426331 
L 423.123893 18.325583 
L 423.139209 18.351865 
L 423.261739 18.754855 
L 423.506798 19.446946 
L 423.65996 19.538933 
L 423.767174 19.50827 
L 423.78249 19.543313 
L 423.920336 19.665962 
L 423.950968 19.512651 
L 424.134763 19.214789 
L 424.318557 19.1009 
L 424.333874 19.131563 
L 424.624881 19.749188 
L 424.640198 19.736047 
L 424.900573 19.705385 
L 425.084368 20.007627 
L 425.390692 20.791705 
L 425.406008 20.782945 
L 425.467273 20.690958 
L 426.110553 18.351865 
L 426.370929 17.072811 
L 426.815099 14.76 
L 426.876364 14.869508 
L 426.998893 15.644825 
L 427.320534 20.344912 
L 428.285455 35.697945 
L 428.285455 35.697945 
" clip-path="url(#pefe42173f7)" style="fill: none; stroke: #000000; stroke-width: 1.5; stroke-linecap: square"/>
   </g>
   <g id="line2d_13">
    <path d="M 87.530514 33.53311 
L 102.969249 37.383653 
L 118.407984 45.215494 
L 129.435652 52.291339 
L 131.641186 51.352695 
L 133.846719 52.641982 
L 173.546324 60.4535 
L 180.162925 61.300019 
L 222.068063 72.47103 
L 233.095731 73.25615 
L 235.301265 73.541065 
L 237.506798 73.382848 
L 268.384269 75.606195 
L 272.795336 74.951722 
L 286.028538 75.467847 
L 297.056206 75.207831 
L 303.672806 72.559382 
L 334.550277 68.100035 
L 356.605613 57.958398 
L 378.660949 55.735892 
L 380.866482 55.955252 
L 396.305217 64.501291 
L 424.977154 29.664733 
L 427.182688 27.124952 
" clip-path="url(#pefe42173f7)" style="fill: none; stroke: #1f77b4; stroke-width: 1.5; stroke-linecap: square"/>
    <defs>
     <path id="m6d3b379d8c" d="M 0 3 
C 0.795609 3 1.55874 2.683901 2.12132 2.12132 
C 2.683901 1.55874 3 0.795609 3 0 
C 3 -0.795609 2.683901 -1.55874 2.12132 -2.12132 
C 1.55874 -2.683901 0.795609 -3 0 -3 
C -0.795609 -3 -1.55874 -2.683901 -2.12132 -2.12132 
C -2.683901 -1.55874 -3 -0.795609 -3 0 
C -3 0.795609 -2.683901 1.55874 -2.12132 2.12132 
C -1.55874 2.683901 -0.795609 3 0 3 
z
" style="stroke: #ffffff; stroke-width: 0.75"/>
    </defs>
    <g clip-path="url(#pefe42173f7)">
     <use xlink:href="#m6d3b379d8c" x="87.530514" y="33.53311" style="fill: #1f77b4; stroke: #ffffff; stroke-width: 0.75"/>
     <use xlink:href="#m6d3b379d8c" x="102.969249" y="37.383653" style="fill: #1f77b4; stroke: #ffffff; stroke-width: 0.75"/>
     <use xlink:href="#m6d3b379d8c" x="118.407984" y="45.215494" style="fill: #1f77b4; stroke: #ffffff; stroke-width: 0.75"/>
     <use xlink:href="#m6d3b379d8c" x="129.435652" y="52.291339" style="fill: #1f77b4; stroke: #ffffff; stroke-width: 0.75"/>
     <use xlink:href="#m6d3b379d8c" x="131.641186" y="51.352695" style="fill: #1f77b4; stroke: #ffffff; stroke-width: 0.75"/>
     <use xlink:href="#m6d3b379d8c" x="133.846719" y="52.641982" style="fill: #1f77b4; stroke: #ffffff; stroke-width: 0.75"/>
     <use xlink:href="#m6d3b379d8c" x="173.546324" y="60.4535" style="fill: #1f77b4; stroke: #ffffff; stroke-width: 0.75"/>
     <use xlink:href="#m6d3b379d8c" x="180.162925" y="61.300019" style="fill: #1f77b4; stroke: #ffffff; stroke-width: 0.75"/>
     <use xlink:href="#m6d3b379d8c" x="222.068063" y="72.47103" style="fill: #1f77b4; stroke: #ffffff; stroke-width: 0.75"/>
     <use xlink:href="#m6d3b379d8c" x="233.095731" y="73.25615" style="fill: #1f77b4; stroke: #ffffff; stroke-width: 0.75"/>
     <use xlink:href="#m6d3b379d8c" x="235.301265" y="73.541065" style="fill: #1f77b4; stroke: #ffffff; stroke-width: 0.75"/>
     <use xlink:href="#m6d3b379d8c" x="237.506798" y="73.382848" style="fill: #1f77b4; stroke: #ffffff; stroke-width: 0.75"/>
     <use xlink:href="#m6d3b379d8c" x="268.384269" y="75.606195" style="fill: #1f77b4; stroke: #ffffff; stroke-width: 0.75"/>
     <use xlink:href="#m6d3b379d8c" x="272.795336" y="74.951722" style="fill: #1f77b4; stroke: #ffffff; stroke-width: 0.75"/>
     <use xlink:href="#m6d3b379d8c" x="286.028538" y="75.467847" style="fill: #1f77b4; stroke: #ffffff; stroke-width: 0.75"/>
     <use xlink:href="#m6d3b379d8c" x="297.056206" y="75.207831" style="fill: #1f77b4; stroke: #ffffff; stroke-width: 0.75"/>
     <use xlink:href="#m6d3b379d8c" x="303.672806" y="72.559382" style="fill: #1f77b4; stroke: #ffffff; stroke-width: 0.75"/>
     <use xlink:href="#m6d3b379d8c" x="334.550277" y="68.100035" style="fill: #1f77b4; stroke: #ffffff; stroke-width: 0.75"/>
     <use xlink:href="#m6d3b379d8c" x="356.605613" y="57.958398" style="fill: #1f77b4; stroke: #ffffff; stroke-width: 0.75"/>
     <use xlink:href="#m6d3b379d8c" x="378.660949" y="55.735892" style="fill: #1f77b4; stroke: #ffffff; stroke-width: 0.75"/>
     <use xlink:href="#m6d3b379d8c" x="380.866482" y="55.955252" style="fill: #1f77b4; stroke: #ffffff; stroke-width: 0.75"/>
     <use xlink:href="#m6d3b379d8c" x="396.305217" y="64.501291" style="fill: #1f77b4; stroke: #ffffff; stroke-width: 0.75"/>
     <use xlink:href="#m6d3b379d8c" x="424.977154" y="29.664733" style="fill: #1f77b4; stroke: #ffffff; stroke-width: 0.75"/>
     <use xlink:href="#m6d3b379d8c" x="427.182688" y="27.124952" style="fill: #1f77b4; stroke: #ffffff; stroke-width: 0.75"/>
    </g>
   </g>
   <g id="patch_4">
    <path d="M 55.44 173.52 
L 55.44 7.2 
" style="fill: none; stroke: #000000; stroke-width: 0.8; stroke-linejoin: miter; stroke-linecap: square"/>
   </g>
   <g id="patch_5">
    <path d="M 55.44 173.52 
L 446.04 173.52 
" style="fill: none; stroke: #000000; stroke-width: 0.8; stroke-linejoin: miter; stroke-linecap: square"/>
   </g>
   <g id="legend_1">
    <g id="patch_6">
     <path d="M 316.235 161.204 
L 439.64 161.204 
Q 442.04 161.204 442.04 158.804 
L 442.04 124.7765 
Q 442.04 122.3765 439.64 122.3765 
L 316.235 122.3765 
Q 313.835 122.3765 313.835 124.7765 
L 313.835 158.804 
Q 313.835 161.204 316.235 161.204 
z
" style="fill: #4d4d4d; opacity: 0.5; stroke: #4d4d4d; stroke-linejoin: miter"/>
    </g>
    <g id="patch_7">
     <path d="M 314.235 159.204 
L 437.64 159.204 
Q 440.04 159.204 440.04 156.804 
L 440.04 122.7765 
Q 440.04 120.3765 437.64 120.3765 
L 314.235 120.3765 
Q 311.835 120.3765 311.835 122.7765 
L 311.835 156.804 
Q 311.835 159.204 314.235 159.204 
z
" style="fill: #ffffff; stroke: #cccccc; stroke-linejoin: miter"/>
    </g>
    <g id="line2d_14">
     <path d="M 316.635 130.094625 
L 328.635 130.094625 
L 340.635 130.094625 
" style="fill: none; stroke: #000000; stroke-width: 1.5; stroke-linecap: square"/>
    </g>
    <g id="text_14">
     <!-- Air -->
     <g transform="translate(350.235 134.294625) scale(0.12 -0.12)">
      <defs>
       <path id="DejaVuSans-41" d="M 2188 4044 
L 1331 1722 
L 3047 1722 
L 2188 4044 
z
M 1831 4666 
L 2547 4666 
L 4325 0 
L 3669 0 
L 3244 1197 
L 1141 1197 
L 716 0 
L 50 0 
L 1831 4666 
z
" transform="scale(0.015625)"/>
      </defs>
      <use xlink:href="#DejaVuSans-41"/>
      <use xlink:href="#DejaVuSans-69" transform="translate(68.408203 0)"/>
      <use xlink:href="#DejaVuSans-72" transform="translate(96.191406 0)"/>
     </g>
    </g>
    <g id="line2d_15">
     <path d="M 316.635 147.708375 
L 328.635 147.708375 
L 340.635 147.708375 
" style="fill: none; stroke: #1f77b4; stroke-width: 1.5; stroke-linecap: square"/>
     <g>
      <use xlink:href="#m6d3b379d8c" x="328.635" y="147.708375" style="fill: #1f77b4; stroke: #ffffff; stroke-width: 0.75"/>
     </g>
    </g>
    <g id="text_15">
     <!-- Water Surface -->
     <g transform="translate(350.235 151.908375) scale(0.12 -0.12)">
      <defs>
       <path id="DejaVuSans-57" d="M 213 4666 
L 850 4666 
L 1831 722 
L 2809 4666 
L 3519 4666 
L 4500 722 
L 5478 4666 
L 6119 4666 
L 4947 0 
L 4153 0 
L 3169 4050 
L 2175 0 
L 1381 0 
L 213 4666 
z
" transform="scale(0.015625)"/>
       <path id="DejaVuSans-53" d="M 3425 4513 
L 3425 3897 
Q 3066 4069 2747 4153 
Q 2428 4238 2131 4238 
Q 1616 4238 1336 4038 
Q 1056 3838 1056 3469 
Q 1056 3159 1242 3001 
Q 1428 2844 1947 2747 
L 2328 2669 
Q 3034 2534 3370 2195 
Q 3706 1856 3706 1288 
Q 3706 609 3251 259 
Q 2797 -91 1919 -91 
Q 1588 -91 1214 -16 
Q 841 59 441 206 
L 441 856 
Q 825 641 1194 531 
Q 1563 422 1919 422 
Q 2459 422 2753 634 
Q 3047 847 3047 1241 
Q 3047 1584 2836 1778 
Q 2625 1972 2144 2069 
L 1759 2144 
Q 1053 2284 737 2584 
Q 422 2884 422 3419 
Q 422 4038 858 4394 
Q 1294 4750 2059 4750 
Q 2388 4750 2728 4690 
Q 3069 4631 3425 4513 
z
" transform="scale(0.015625)"/>
       <path id="DejaVuSans-66" d="M 2375 4863 
L 2375 4384 
L 1825 4384 
Q 1516 4384 1395 4259 
Q 1275 4134 1275 3809 
L 1275 3500 
L 2222 3500 
L 2222 3053 
L 1275 3053 
L 1275 0 
L 697 0 
L 697 3053 
L 147 3053 
L 147 3500 
L 697 3500 
L 697 3744 
Q 697 4328 969 4595 
Q 1241 4863 1831 4863 
L 2375 4863 
z
" transform="scale(0.015625)"/>
       <path id="DejaVuSans-63" d="M 3122 3366 
L 3122 2828 
Q 2878 2963 2633 3030 
Q 2388 3097 2138 3097 
Q 1578 3097 1268 2742 
Q 959 2388 959 1747 
Q 959 1106 1268 751 
Q 1578 397 2138 397 
Q 2388 397 2633 464 
Q 2878 531 3122 666 
L 3122 134 
Q 2881 22 2623 -34 
Q 2366 -91 2075 -91 
Q 1284 -91 818 406 
Q 353 903 353 1747 
Q 353 2603 823 3093 
Q 1294 3584 2113 3584 
Q 2378 3584 2631 3529 
Q 2884 3475 3122 3366 
z
" transform="scale(0.015625)"/>
      </defs>
      <use xlink:href="#DejaVuSans-57"/>
      <use xlink:href="#DejaVuSans-61" transform="translate(92.501953 0)"/>
      <use xlink:href="#DejaVuSans-74" transform="translate(153.78125 0)"/>
      <use xlink:href="#DejaVuSans-65" transform="translate(192.990234 0)"/>
      <use xlink:href="#DejaVuSans-72" transform="translate(254.513672 0)"/>
      <use xlink:href="#DejaVuSans-20" transform="translate(295.626953 0)"/>
      <use xlink:href="#DejaVuSans-53" transform="translate(327.414062 0)"/>
      <use xlink:href="#DejaVuSans-75" transform="translate(390.890625 0)"/>
      <use xlink:href="#DejaVuSans-72" transform="translate(454.269531 0)"/>
      <use xlink:href="#DejaVuSans-66" transform="translate(495.382812 0)"/>
      <use xlink:href="#DejaVuSans-61" transform="translate(530.587891 0)"/>
      <use xlink:href="#DejaVuSans-63" transform="translate(591.867188 0)"/>
      <use xlink:href="#DejaVuSans-65" transform="translate(646.847656 0)"/>
     </g>
    </g>
   </g>
  </g>
 </g>
 <defs>
  <clipPath id="pefe42173f7">
   <rect x="55.44" y="7.2" width="390.6" height="166.32"/>
  </clipPath>
 </defs>
</svg>
