<?xml version="1.0" encoding="utf-8" standalone="no"?>
<!DOCTYPE svg PUBLIC "-//W3C//DTD SVG 1.1//EN"
  "http://www.w3.org/Graphics/SVG/1.1/DTD/svg11.dtd">
<svg xmlns:xlink="http://www.w3.org/1999/xlink" width="312.965688pt" height="222.883125pt" viewBox="0 0 312.965688 222.883125" xmlns="http://www.w3.org/2000/svg" version="1.1">
 <metadata>
  <rdf:RDF xmlns:dc="http://purl.org/dc/elements/1.1/" xmlns:cc="http://creativecommons.org/ns#" xmlns:rdf="http://www.w3.org/1999/02/22-rdf-syntax-ns#">
   <cc:Work>
    <dc:type rdf:resource="http://purl.org/dc/dcmitype/StillImage"/>
    <dc:date>2026-06-02T17:17:46.987457</dc:date>
    <dc:format>image/svg+xml</dc:format>
    <dc:creator>
     <cc:Agent>
      <dc:title>Matplotlib v3.10.6, https://matplotlib.org/</dc:title>
     </cc:Agent>
    </dc:creator>
   </cc:Work>
  </rdf:RDF>
 </metadata>
 <defs>
  <style type="text/css">*{stroke-linejoin: round; stroke-linecap: butt}</style>
 </defs>
 <g id="figure_1">
  <g id="patch_1">
   <path d="M 0 222.883125 
L 312.965688 222.883125 
L 312.965688 0 
L 0 0 
z
" style="fill: #ffffff"/>
  </g>
  <g id="axes_1">
   <g id="patch_2">
    <path d="M 82.565688 173.52 
L 305.765688 173.52 
L 305.765688 7.2 
L 82.565688 7.2 
z
" style="fill: #ffffff"/>
   </g>
   <g id="matplotlib.axis_1">
    <g id="xtick_1">
     <g id="line2d_1">
      <defs>
       <path id="m9a85f8d335" d="M 0 0 
L 0 3.5 
" style="stroke: #000000; stroke-width: 0.8"/>
      </defs>
      <g>
       <use xlink:href="#m9a85f8d335" x="104.885688" y="173.52" style="stroke: #000000; stroke-width: 0.8"/>
      </g>
     </g>
     <g id="text_1">
      <!-- N -->
      <g transform="translate(100.396938 189.638125) scale(0.12 -0.12)">
       <defs>
        <path id="DejaVuSans-4e" d="M 628 4666 
L 1478 4666 
L 3547 763 
L 3547 4666 
L 4159 4666 
L 4159 0 
L 3309 0 
L 1241 3903 
L 1241 0 
L 628 0 
L 628 4666 
z
" transform="scale(0.015625)"/>
       </defs>
       <use xlink:href="#DejaVuSans-4e"/>
      </g>
     </g>
    </g>
    <g id="xtick_2">
     <g id="line2d_2">
      <g>
       <use xlink:href="#m9a85f8d335" x="149.525688" y="173.52" style="stroke: #000000; stroke-width: 0.8"/>
      </g>
     </g>
     <g id="text_2">
      <!-- W -->
      <g transform="translate(143.593187 189.638125) scale(0.12 -0.12)">
       <defs>
        <path id="DejaVuSans-57" d="M 213 4666 
L 850 4666 
L 1831 722 
L 2809 4666 
L 3519 4666 
L 4500 722 
L 5478 4666 
L 6119 4666 
L 4947 0 
L 4153 0 
L 3169 4050 
L 2175 0 
L 1381 0 
L 213 4666 
z
" transform="scale(0.015625)"/>
       </defs>
       <use xlink:href="#DejaVuSans-57"/>
      </g>
     </g>
    </g>
    <g id="xtick_3">
     <g id="line2d_3">
      <g>
       <use xlink:href="#m9a85f8d335" x="194.165688" y="173.52" style="stroke: #000000; stroke-width: 0.8"/>
      </g>
     </g>
     <g id="text_3">
      <!-- C -->
      <g transform="translate(189.976 189.638125) scale(0.12 -0.12)">
       <defs>
        <path id="DejaVuSans-43" d="M 4122 4306 
L 4122 3641 
Q 3803 3938 3442 4084 
Q 3081 4231 2675 4231 
Q 1875 4231 1450 3742 
Q 1025 3253 1025 2328 
Q 1025 1406 1450 917 
Q 1875 428 2675 428 
Q 3081 428 3442 575 
Q 3803 722 4122 1019 
L 4122 359 
Q 3791 134 3420 21 
Q 3050 -91 2638 -91 
Q 1578 -91 968 557 
Q 359 1206 359 2328 
Q 359 3453 968 4101 
Q 1578 4750 2638 4750 
Q 3056 4750 3426 4639 
Q 3797 4528 4122 4306 
z
" transform="scale(0.015625)"/>
       </defs>
       <use xlink:href="#DejaVuSans-43"/>
      </g>
     </g>
    </g>
    <g id="xtick_4">
     <g id="line2d_4">
      <g>
       <use xlink:href="#m9a85f8d335" x="238.805688" y="173.52" style="stroke: #000000; stroke-width: 0.8"/>
      </g>
     </g>
     <g id="text_4">
      <!-- E -->
      <g transform="translate(235.014438 189.638125) scale(0.12 -0.12)">
       <defs>
        <path id="DejaVuSans-45" d="M 628 4666 
L 3578 4666 
L 3578 4134 
L 1259 4134 
L 1259 2753 
L 3481 2753 
L 3481 2222 
L 1259 2222 
L 1259 531 
L 3634 531 
L 3634 0 
L 628 0 
L 628 4666 
z
" transform="scale(0.015625)"/>
       </defs>
       <use xlink:href="#DejaVuSans-45"/>
      </g>
     </g>
    </g>
    <g id="xtick_5">
     <g id="line2d_5">
      <g>
       <use xlink:href="#m9a85f8d335" x="283.445688" y="173.52" style="stroke: #000000; stroke-width: 0.8"/>
      </g>
     </g>
     <g id="text_5">
      <!-- S -->
      <g transform="translate(279.636625 189.638125) scale(0.12 -0.12)">
       <defs>
        <path id="DejaVuSans-53" d="M 3425 4513 
L 3425 3897 
Q 3066 4069 2747 4153 
Q 2428 4238 2131 4238 
Q 1616 4238 1336 4038 
Q 1056 3838 1056 3469 
Q 1056 3159 1242 3001 
Q 1428 2844 1947 2747 
L 2328 2669 
Q 3034 2534 3370 2195 
Q 3706 1856 3706 1288 
Q 3706 609 3251 259 
Q 2797 -91 1919 -91 
Q 1588 -91 1214 -16 
Q 841 59 441 206 
L 441 856 
Q 825 641 1194 531 
Q 1563 422 1919 422 
Q 2459 422 2753 634 
Q 3047 847 3047 1241 
Q 3047 1584 2836 1778 
Q 2625 1972 2144 2069 
L 1759 2144 
Q 1053 2284 737 2584 
Q 422 2884 422 3419 
Q 422 4038 858 4394 
Q 1294 4750 2059 4750 
Q 2388 4750 2728 4690 
Q 3069 4631 3425 4513 
z
" transform="scale(0.015625)"/>
       </defs>
       <use xlink:href="#DejaVuSans-53"/>
      </g>
     </g>
    </g>
    <g id="text_6">
     <!-- Basin -->
     <g transform="translate(175.045844 212.771563) scale(0.14 -0.14)">
      <defs>
       <path id="DejaVuSans-42" d="M 1259 2228 
L 1259 519 
L 2272 519 
Q 2781 519 3026 730 
Q 3272 941 3272 1375 
Q 3272 1813 3026 2020 
Q 2781 2228 2272 2228 
L 1259 2228 
z
M 1259 4147 
L 1259 2741 
L 2194 2741 
Q 2656 2741 2882 2914 
Q 3109 3088 3109 3444 
Q 3109 3797 2882 3972 
Q 2656 4147 2194 4147 
L 1259 4147 
z
M 628 4666 
L 2241 4666 
Q 2963 4666 3353 4366 
Q 3744 4066 3744 3513 
Q 3744 3084 3544 2831 
Q 3344 2578 2956 2516 
Q 3422 2416 3680 2098 
Q 3938 1781 3938 1306 
Q 3938 681 3513 340 
Q 3088 0 2303 0 
L 628 0 
L 628 4666 
z
" transform="scale(0.015625)"/>
       <path id="DejaVuSans-61" d="M 2194 1759 
Q 1497 1759 1228 1600 
Q 959 1441 959 1056 
Q 959 750 1161 570 
Q 1363 391 1709 391 
Q 2188 391 2477 730 
Q 2766 1069 2766 1631 
L 2766 1759 
L 2194 1759 
z
M 3341 1997 
L 3341 0 
L 2766 0 
L 2766 531 
Q 2569 213 2275 61 
Q 1981 -91 1556 -91 
Q 1019 -91 701 211 
Q 384 513 384 1019 
Q 384 1609 779 1909 
Q 1175 2209 1959 2209 
L 2766 2209 
L 2766 2266 
Q 2766 2663 2505 2880 
Q 2244 3097 1772 3097 
Q 1472 3097 1187 3025 
Q 903 2953 641 2809 
L 641 3341 
Q 956 3463 1253 3523 
Q 1550 3584 1831 3584 
Q 2591 3584 2966 3190 
Q 3341 2797 3341 1997 
z
" transform="scale(0.015625)"/>
       <path id="DejaVuSans-73" d="M 2834 3397 
L 2834 2853 
Q 2591 2978 2328 3040 
Q 2066 3103 1784 3103 
Q 1356 3103 1142 2972 
Q 928 2841 928 2578 
Q 928 2378 1081 2264 
Q 1234 2150 1697 2047 
L 1894 2003 
Q 2506 1872 2764 1633 
Q 3022 1394 3022 966 
Q 3022 478 2636 193 
Q 2250 -91 1575 -91 
Q 1294 -91 989 -36 
Q 684 19 347 128 
L 347 722 
Q 666 556 975 473 
Q 1284 391 1588 391 
Q 1994 391 2212 530 
Q 2431 669 2431 922 
Q 2431 1156 2273 1281 
Q 2116 1406 1581 1522 
L 1381 1569 
Q 847 1681 609 1914 
Q 372 2147 372 2553 
Q 372 3047 722 3315 
Q 1072 3584 1716 3584 
Q 2034 3584 2315 3537 
Q 2597 3491 2834 3397 
z
" transform="scale(0.015625)"/>
       <path id="DejaVuSans-69" d="M 603 3500 
L 1178 3500 
L 1178 0 
L 603 0 
L 603 3500 
z
M 603 4863 
L 1178 4863 
L 1178 4134 
L 603 4134 
L 603 4863 
z
" transform="scale(0.015625)"/>
       <path id="DejaVuSans-6e" d="M 3513 2113 
L 3513 0 
L 2938 0 
L 2938 2094 
Q 2938 2591 2744 2837 
Q 2550 3084 2163 3084 
Q 1697 3084 1428 2787 
Q 1159 2491 1159 1978 
L 1159 0 
L 581 0 
L 581 3500 
L 1159 3500 
L 1159 2956 
Q 1366 3272 1645 3428 
Q 1925 3584 2291 3584 
Q 2894 3584 3203 3211 
Q 3513 2838 3513 2113 
z
" transform="scale(0.015625)"/>
      </defs>
      <use xlink:href="#DejaVuSans-42"/>
      <use xlink:href="#DejaVuSans-61" transform="translate(68.603516 0)"/>
      <use xlink:href="#DejaVuSans-73" transform="translate(129.882812 0)"/>
      <use xlink:href="#DejaVuSans-69" transform="translate(181.982422 0)"/>
      <use xlink:href="#DejaVuSans-6e" transform="translate(209.765625 0)"/>
     </g>
    </g>
   </g>
   <g id="matplotlib.axis_2">
    <g id="ytick_1">
     <g id="line2d_6">
      <defs>
       <path id="md5868fb112" d="M 0 0 
L -3.5 0 
" style="stroke: #000000; stroke-width: 0.8"/>
      </defs>
      <g>
       <use xlink:href="#md5868fb112" x="82.565688" y="154.393049" style="stroke: #000000; stroke-width: 0.8"/>
      </g>
     </g>
     <g id="text_7">
      <!-- −0.4 -->
      <g transform="translate(46.426313 158.952112) scale(0.12 -0.12)">
       <defs>
        <path id="DejaVuSans-2212" d="M 678 2272 
L 4684 2272 
L 4684 1741 
L 678 1741 
L 678 2272 
z
" transform="scale(0.015625)"/>
        <path id="DejaVuSans-30" d="M 2034 4250 
Q 1547 4250 1301 3770 
Q 1056 3291 1056 2328 
Q 1056 1369 1301 889 
Q 1547 409 2034 409 
Q 2525 409 2770 889 
Q 3016 1369 3016 2328 
Q 3016 3291 2770 3770 
Q 2525 4250 2034 4250 
z
M 2034 4750 
Q 2819 4750 3233 4129 
Q 3647 3509 3647 2328 
Q 3647 1150 3233 529 
Q 2819 -91 2034 -91 
Q 1250 -91 836 529 
Q 422 1150 422 2328 
Q 422 3509 836 4129 
Q 1250 4750 2034 4750 
z
" transform="scale(0.015625)"/>
        <path id="DejaVuSans-2e" d="M 684 794 
L 1344 794 
L 1344 0 
L 684 0 
L 684 794 
z
" transform="scale(0.015625)"/>
        <path id="DejaVuSans-34" d="M 2419 4116 
L 825 1625 
L 2419 1625 
L 2419 4116 
z
M 2253 4666 
L 3047 4666 
L 3047 1625 
L 3713 1625 
L 3713 1100 
L 3047 1100 
L 3047 0 
L 2419 0 
L 2419 1100 
L 313 1100 
L 313 1709 
L 2253 4666 
z
" transform="scale(0.015625)"/>
       </defs>
       <use xlink:href="#DejaVuSans-2212"/>
       <use xlink:href="#DejaVuSans-30" transform="translate(83.789062 0)"/>
       <use xlink:href="#DejaVuSans-2e" transform="translate(147.412109 0)"/>
       <use xlink:href="#DejaVuSans-34" transform="translate(179.199219 0)"/>
      </g>
     </g>
    </g>
    <g id="ytick_2">
     <g id="line2d_7">
      <g>
       <use xlink:href="#md5868fb112" x="82.565688" y="119.851885" style="stroke: #000000; stroke-width: 0.8"/>
      </g>
     </g>
     <g id="text_8">
      <!-- −0.2 -->
      <g transform="translate(46.426313 124.410948) scale(0.12 -0.12)">
       <defs>
        <path id="DejaVuSans-32" d="M 1228 531 
L 3431 531 
L 3431 0 
L 469 0 
L 469 531 
Q 828 903 1448 1529 
Q 2069 2156 2228 2338 
Q 2531 2678 2651 2914 
Q 2772 3150 2772 3378 
Q 2772 3750 2511 3984 
Q 2250 4219 1831 4219 
Q 1534 4219 1204 4116 
Q 875 4013 500 3803 
L 500 4441 
Q 881 4594 1212 4672 
Q 1544 4750 1819 4750 
Q 2544 4750 2975 4387 
Q 3406 4025 3406 3419 
Q 3406 3131 3298 2873 
Q 3191 2616 2906 2266 
Q 2828 2175 2409 1742 
Q 1991 1309 1228 531 
z
" transform="scale(0.015625)"/>
       </defs>
       <use xlink:href="#DejaVuSans-2212"/>
       <use xlink:href="#DejaVuSans-30" transform="translate(83.789062 0)"/>
       <use xlink:href="#DejaVuSans-2e" transform="translate(147.412109 0)"/>
       <use xlink:href="#DejaVuSans-32" transform="translate(179.199219 0)"/>
      </g>
     </g>
    </g>
    <g id="ytick_3">
     <g id="line2d_8">
      <g>
       <use xlink:href="#md5868fb112" x="82.565688" y="85.310721" style="stroke: #000000; stroke-width: 0.8"/>
      </g>
     </g>
     <g id="text_9">
      <!-- 0.0 -->
      <g transform="translate(56.481938 89.869783) scale(0.12 -0.12)">
       <use xlink:href="#DejaVuSans-30"/>
       <use xlink:href="#DejaVuSans-2e" transform="translate(63.623047 0)"/>
       <use xlink:href="#DejaVuSans-30" transform="translate(95.410156 0)"/>
      </g>
     </g>
    </g>
    <g id="ytick_4">
     <g id="line2d_9">
      <g>
       <use xlink:href="#md5868fb112" x="82.565688" y="50.769557" style="stroke: #000000; stroke-width: 0.8"/>
      </g>
     </g>
     <g id="text_10">
      <!-- 0.2 -->
      <g transform="translate(56.481938 55.328619) scale(0.12 -0.12)">
       <use xlink:href="#DejaVuSans-30"/>
       <use xlink:href="#DejaVuSans-2e" transform="translate(63.623047 0)"/>
       <use xlink:href="#DejaVuSans-32" transform="translate(95.410156 0)"/>
      </g>
     </g>
    </g>
    <g id="ytick_5">
     <g id="line2d_10">
      <g>
       <use xlink:href="#md5868fb112" x="82.565688" y="16.228392" style="stroke: #000000; stroke-width: 0.8"/>
      </g>
     </g>
     <g id="text_11">
      <!-- 0.4 -->
      <g transform="translate(56.481938 20.787455) scale(0.12 -0.12)">
       <use xlink:href="#DejaVuSans-30"/>
       <use xlink:href="#DejaVuSans-2e" transform="translate(63.623047 0)"/>
       <use xlink:href="#DejaVuSans-34" transform="translate(95.410156 0)"/>
      </g>
     </g>
    </g>
    <g id="text_12">
     <!-- $L_{T} - \mu$ -->
     <g transform="translate(17.809375 110.52) rotate(-90) scale(0.14 -0.14)">
      <defs>
       <path id="DejaVuSans-Oblique-4c" d="M 1075 4666 
L 1709 4666 
L 909 525 
L 3181 525 
L 3078 0 
L 172 0 
L 1075 4666 
z
" transform="scale(0.015625)"/>
       <path id="DejaVuSans-Oblique-54" d="M 378 4666 
L 4325 4666 
L 4225 4134 
L 2559 4134 
L 1759 0 
L 1125 0 
L 1925 4134 
L 275 4134 
L 378 4666 
z
" transform="scale(0.015625)"/>
       <path id="DejaVuSans-Oblique-3bc" d="M -84 -1331 
L 856 3500 
L 1434 3500 
L 1009 1322 
Q 997 1256 987 1175 
Q 978 1094 978 1013 
Q 978 722 1161 565 
Q 1344 409 1684 409 
Q 2147 409 2431 671 
Q 2716 934 2816 1459 
L 3213 3500 
L 3788 3500 
L 3266 809 
Q 3253 750 3248 706 
Q 3244 663 3244 628 
Q 3244 531 3283 486 
Q 3322 441 3406 441 
Q 3438 441 3492 456 
Q 3547 472 3647 513 
L 3559 50 
Q 3422 -19 3297 -55 
Q 3172 -91 3053 -91 
Q 2847 -91 2730 40 
Q 2613 172 2613 403 
Q 2438 153 2195 31 
Q 1953 -91 1625 -91 
Q 1334 -91 1117 43 
Q 900 178 831 397 
L 494 -1331 
L -84 -1331 
z
" transform="scale(0.015625)"/>
      </defs>
      <use xlink:href="#DejaVuSans-Oblique-4c" transform="translate(0 0.09375)"/>
      <use xlink:href="#DejaVuSans-Oblique-54" transform="translate(55.712891 -16.3125) scale(0.7)"/>
      <use xlink:href="#DejaVuSans-2212" transform="translate(120.688477 0.09375)"/>
      <use xlink:href="#DejaVuSans-Oblique-3bc" transform="translate(223.959961 0.09375)"/>
     </g>
     <!-- (80-110 m) -->
     <g transform="translate(33.51475 129.659531) rotate(-90) scale(0.14 -0.14)">
      <defs>
       <path id="DejaVuSans-28" d="M 1984 4856 
Q 1566 4138 1362 3434 
Q 1159 2731 1159 2009 
Q 1159 1288 1364 580 
Q 1569 -128 1984 -844 
L 1484 -844 
Q 1016 -109 783 600 
Q 550 1309 550 2009 
Q 550 2706 781 3412 
Q 1013 4119 1484 4856 
L 1984 4856 
z
" transform="scale(0.015625)"/>
       <path id="DejaVuSans-38" d="M 2034 2216 
Q 1584 2216 1326 1975 
Q 1069 1734 1069 1313 
Q 1069 891 1326 650 
Q 1584 409 2034 409 
Q 2484 409 2743 651 
Q 3003 894 3003 1313 
Q 3003 1734 2745 1975 
Q 2488 2216 2034 2216 
z
M 1403 2484 
Q 997 2584 770 2862 
Q 544 3141 544 3541 
Q 544 4100 942 4425 
Q 1341 4750 2034 4750 
Q 2731 4750 3128 4425 
Q 3525 4100 3525 3541 
Q 3525 3141 3298 2862 
Q 3072 2584 2669 2484 
Q 3125 2378 3379 2068 
Q 3634 1759 3634 1313 
Q 3634 634 3220 271 
Q 2806 -91 2034 -91 
Q 1263 -91 848 271 
Q 434 634 434 1313 
Q 434 1759 690 2068 
Q 947 2378 1403 2484 
z
M 1172 3481 
Q 1172 3119 1398 2916 
Q 1625 2713 2034 2713 
Q 2441 2713 2670 2916 
Q 2900 3119 2900 3481 
Q 2900 3844 2670 4047 
Q 2441 4250 2034 4250 
Q 1625 4250 1398 4047 
Q 1172 3844 1172 3481 
z
" transform="scale(0.015625)"/>
       <path id="DejaVuSans-2d" d="M 313 2009 
L 1997 2009 
L 1997 1497 
L 313 1497 
L 313 2009 
z
" transform="scale(0.015625)"/>
       <path id="DejaVuSans-31" d="M 794 531 
L 1825 531 
L 1825 4091 
L 703 3866 
L 703 4441 
L 1819 4666 
L 2450 4666 
L 2450 531 
L 3481 531 
L 3481 0 
L 794 0 
L 794 531 
z
" transform="scale(0.015625)"/>
       <path id="DejaVuSans-20" transform="scale(0.015625)"/>
       <path id="DejaVuSans-6d" d="M 3328 2828 
Q 3544 3216 3844 3400 
Q 4144 3584 4550 3584 
Q 5097 3584 5394 3201 
Q 5691 2819 5691 2113 
L 5691 0 
L 5113 0 
L 5113 2094 
Q 5113 2597 4934 2840 
Q 4756 3084 4391 3084 
Q 3944 3084 3684 2787 
Q 3425 2491 3425 1978 
L 3425 0 
L 2847 0 
L 2847 2094 
Q 2847 2600 2669 2842 
Q 2491 3084 2119 3084 
Q 1678 3084 1418 2786 
Q 1159 2488 1159 1978 
L 1159 0 
L 581 0 
L 581 3500 
L 1159 3500 
L 1159 2956 
Q 1356 3278 1631 3431 
Q 1906 3584 2284 3584 
Q 2666 3584 2933 3390 
Q 3200 3197 3328 2828 
z
" transform="scale(0.015625)"/>
       <path id="DejaVuSans-29" d="M 513 4856 
L 1013 4856 
Q 1481 4119 1714 3412 
Q 1947 2706 1947 2009 
Q 1947 1309 1714 600 
Q 1481 -109 1013 -844 
L 513 -844 
Q 928 -128 1133 580 
Q 1338 1288 1338 2009 
Q 1338 2731 1133 3434 
Q 928 4138 513 4856 
z
" transform="scale(0.015625)"/>
      </defs>
      <use xlink:href="#DejaVuSans-28"/>
      <use xlink:href="#DejaVuSans-38" transform="translate(39.013672 0)"/>
      <use xlink:href="#DejaVuSans-30" transform="translate(102.636719 0)"/>
      <use xlink:href="#DejaVuSans-2d" transform="translate(166.259766 0)"/>
      <use xlink:href="#DejaVuSans-31" transform="translate(202.34375 0)"/>
      <use xlink:href="#DejaVuSans-31" transform="translate(265.966797 0)"/>
      <use xlink:href="#DejaVuSans-30" transform="translate(329.589844 0)"/>
      <use xlink:href="#DejaVuSans-20" transform="translate(393.212891 0)"/>
      <use xlink:href="#DejaVuSans-6d" transform="translate(425 0)"/>
      <use xlink:href="#DejaVuSans-29" transform="translate(522.412109 0)"/>
     </g>
    </g>
   </g>
   <g id="line2d_11">
    <path d="M 82.565688 85.310721 
L 305.765688 85.310721 
" clip-path="url(#pc8380c4616)" style="fill: none; stroke-dasharray: 5.55,2.4; stroke-dashoffset: 0; stroke: #000000; stroke-width: 1.5"/>
   </g>
   <g id="line2d_12">
    <defs>
     <path id="m368495dee2" d="M 0 3.383948 
C 0.897434 3.383948 1.758231 3.027394 2.392813 2.392813 
C 3.027394 1.758231 3.383948 0.897434 3.383948 0 
C 3.383948 -0.897434 3.027394 -1.758231 2.392813 -2.392813 
C 1.758231 -3.027394 0.897434 -3.383948 0 -3.383948 
C -0.897434 -3.383948 -1.758231 -3.027394 -2.392813 -2.392813 
C -3.027394 -1.758231 -3.383948 -0.897434 -3.383948 0 
C -3.383948 0.897434 -3.027394 1.758231 -2.392813 2.392813 
C -1.758231 3.027394 -0.897434 3.383948 0 3.383948 
z
" style="stroke: #d62728; stroke-width: 2.025"/>
    </defs>
    <g clip-path="url(#pc8380c4616)">
     <use xlink:href="#m368495dee2" x="104.885688" y="130.735199" style="fill: #d62728; stroke: #d62728; stroke-width: 2.025"/>
    </g>
   </g>
   <g id="line2d_13">
    <path d="M 104.885688 165.96 
L 104.885688 95.510399 
" clip-path="url(#pc8380c4616)" style="fill: none; stroke: #d62728; stroke-width: 2.7; stroke-linecap: square"/>
   </g>
   <g id="line2d_14">
    <path clip-path="url(#pc8380c4616)" style="fill: none; stroke: #d62728; stroke-width: 2.7; stroke-linecap: square"/>
   </g>
   <g id="line2d_15">
    <path clip-path="url(#pc8380c4616)" style="fill: none; stroke: #d62728; stroke-width: 2.7; stroke-linecap: square"/>
   </g>
   <g id="line2d_16">
    <path clip-path="url(#pc8380c4616)" style="fill: none; stroke: #d62728; stroke-width: 2.7; stroke-linecap: square"/>
   </g>
   <g id="line2d_17">
    <path clip-path="url(#pc8380c4616)" style="fill: none; stroke: #d62728; stroke-width: 2.7; stroke-linecap: square"/>
   </g>
   <g id="line2d_18">
    <defs>
     <path id="m45a03428fe" d="M 0 3.383948 
C 0.897434 3.383948 1.758231 3.027394 2.392813 2.392813 
C 3.027394 1.758231 3.383948 0.897434 3.383948 0 
C 3.383948 -0.897434 3.027394 -1.758231 2.392813 -2.392813 
C 1.758231 -3.027394 0.897434 -3.383948 0 -3.383948 
C -0.897434 -3.383948 -1.758231 -3.027394 -2.392813 -2.392813 
C -3.027394 -1.758231 -3.383948 -0.897434 -3.383948 0 
C -3.383948 0.897434 -3.027394 1.758231 -2.392813 2.392813 
C -1.758231 3.027394 -0.897434 3.383948 0 3.383948 
z
" style="stroke: #ff7f0e; stroke-width: 2.025"/>
    </defs>
    <g clip-path="url(#pc8380c4616)">
     <use xlink:href="#m45a03428fe" x="149.525688" y="55.779851" style="fill: #ff7f0e; stroke: #ff7f0e; stroke-width: 2.025"/>
    </g>
   </g>
   <g id="line2d_19">
    <path clip-path="url(#pc8380c4616)" style="fill: none; stroke: #ff7f0e; stroke-width: 2.7; stroke-linecap: square"/>
   </g>
   <g id="line2d_20">
    <path d="M 149.525688 96.799703 
L 149.525688 14.76 
" clip-path="url(#pc8380c4616)" style="fill: none; stroke: #ff7f0e; stroke-width: 2.7; stroke-linecap: square"/>
   </g>
   <g id="line2d_21">
    <path clip-path="url(#pc8380c4616)" style="fill: none; stroke: #ff7f0e; stroke-width: 2.7; stroke-linecap: square"/>
   </g>
   <g id="line2d_22">
    <path clip-path="url(#pc8380c4616)" style="fill: none; stroke: #ff7f0e; stroke-width: 2.7; stroke-linecap: square"/>
   </g>
   <g id="line2d_23">
    <path clip-path="url(#pc8380c4616)" style="fill: none; stroke: #ff7f0e; stroke-width: 2.7; stroke-linecap: square"/>
   </g>
   <g id="line2d_24">
    <defs>
     <path id="mec392e0d56" d="M 0 3.383948 
C 0.897434 3.383948 1.758231 3.027394 2.392813 2.392813 
C 3.027394 1.758231 3.383948 0.897434 3.383948 0 
C 3.383948 -0.897434 3.027394 -1.758231 2.392813 -2.392813 
C 1.758231 -3.027394 0.897434 -3.383948 0 -3.383948 
C -0.897434 -3.383948 -1.758231 -3.027394 -2.392813 -2.392813 
C -3.027394 -1.758231 -3.383948 -0.897434 -3.383948 0 
C -3.383948 0.897434 -3.027394 1.758231 -2.392813 2.392813 
C -1.758231 3.027394 -0.897434 3.383948 0 3.383948 
z
" style="stroke: #1f77b4; stroke-width: 2.025"/>
    </defs>
    <g clip-path="url(#pc8380c4616)">
     <use xlink:href="#mec392e0d56" x="194.165688" y="69.332522" style="fill: #1f77b4; stroke: #1f77b4; stroke-width: 2.025"/>
    </g>
   </g>
   <g id="line2d_25">
    <path clip-path="url(#pc8380c4616)" style="fill: none; stroke: #1f77b4; stroke-width: 2.7; stroke-linecap: square"/>
   </g>
   <g id="line2d_26">
    <path clip-path="url(#pc8380c4616)" style="fill: none; stroke: #1f77b4; stroke-width: 2.7; stroke-linecap: square"/>
   </g>
   <g id="line2d_27">
    <path d="M 194.165688 102.244623 
L 194.165688 36.42042 
" clip-path="url(#pc8380c4616)" style="fill: none; stroke: #1f77b4; stroke-width: 2.7; stroke-linecap: square"/>
   </g>
   <g id="line2d_28">
    <path clip-path="url(#pc8380c4616)" style="fill: none; stroke: #1f77b4; stroke-width: 2.7; stroke-linecap: square"/>
   </g>
   <g id="line2d_29">
    <path clip-path="url(#pc8380c4616)" style="fill: none; stroke: #1f77b4; stroke-width: 2.7; stroke-linecap: square"/>
   </g>
   <g id="line2d_30">
    <defs>
     <path id="maf72016a13" d="M 0 3.383948 
C 0.897434 3.383948 1.758231 3.027394 2.392813 2.392813 
C 3.027394 1.758231 3.383948 0.897434 3.383948 0 
C 3.383948 -0.897434 3.027394 -1.758231 2.392813 -2.392813 
C 1.758231 -3.027394 0.897434 -3.383948 0 -3.383948 
C -0.897434 -3.383948 -1.758231 -3.027394 -2.392813 -2.392813 
C -3.027394 -1.758231 -3.383948 -0.897434 -3.383948 0 
C -3.383948 0.897434 -3.027394 1.758231 -2.392813 2.392813 
C -1.758231 3.027394 -0.897434 3.383948 0 3.383948 
z
" style="stroke: #2ca02c; stroke-width: 2.025"/>
    </defs>
    <g clip-path="url(#pc8380c4616)">
     <use xlink:href="#maf72016a13" x="238.805688" y="110.883137" style="fill: #2ca02c; stroke: #2ca02c; stroke-width: 2.025"/>
    </g>
   </g>
   <g id="line2d_31">
    <path clip-path="url(#pc8380c4616)" style="fill: none; stroke: #2ca02c; stroke-width: 2.7; stroke-linecap: square"/>
   </g>
   <g id="line2d_32">
    <path clip-path="url(#pc8380c4616)" style="fill: none; stroke: #2ca02c; stroke-width: 2.7; stroke-linecap: square"/>
   </g>
   <g id="line2d_33">
    <path clip-path="url(#pc8380c4616)" style="fill: none; stroke: #2ca02c; stroke-width: 2.7; stroke-linecap: square"/>
   </g>
   <g id="line2d_34">
    <path d="M 238.805688 155.634222 
L 238.805688 66.132053 
" clip-path="url(#pc8380c4616)" style="fill: none; stroke: #2ca02c; stroke-width: 2.7; stroke-linecap: square"/>
   </g>
   <g id="line2d_35">
    <path clip-path="url(#pc8380c4616)" style="fill: none; stroke: #2ca02c; stroke-width: 2.7; stroke-linecap: square"/>
   </g>
   <g id="line2d_36">
    <defs>
     <path id="m66dac9852b" d="M 0 3.383948 
C 0.897434 3.383948 1.758231 3.027394 2.392813 2.392813 
C 3.027394 1.758231 3.383948 0.897434 3.383948 0 
C 3.383948 -0.897434 3.027394 -1.758231 2.392813 -2.392813 
C 1.758231 -3.027394 0.897434 -3.383948 0 -3.383948 
C -0.897434 -3.383948 -1.758231 -3.027394 -2.392813 -2.392813 
C -3.027394 -1.758231 -3.383948 -0.897434 -3.383948 0 
C -3.383948 0.897434 -3.027394 1.758231 -2.392813 2.392813 
C -1.758231 3.027394 -0.897434 3.383948 0 3.383948 
z
" style="stroke: #9467bd; stroke-width: 2.025"/>
    </defs>
    <g clip-path="url(#pc8380c4616)">
     <use xlink:href="#m66dac9852b" x="283.445688" y="107.429327" style="fill: #9467bd; stroke: #9467bd; stroke-width: 2.025"/>
    </g>
   </g>
   <g id="line2d_37">
    <path clip-path="url(#pc8380c4616)" style="fill: none; stroke: #9467bd; stroke-width: 2.7; stroke-linecap: square"/>
   </g>
   <g id="line2d_38">
    <path clip-path="url(#pc8380c4616)" style="fill: none; stroke: #9467bd; stroke-width: 2.7; stroke-linecap: square"/>
   </g>
   <g id="line2d_39">
    <path clip-path="url(#pc8380c4616)" style="fill: none; stroke: #9467bd; stroke-width: 2.7; stroke-linecap: square"/>
   </g>
   <g id="line2d_40">
    <path clip-path="url(#pc8380c4616)" style="fill: none; stroke: #9467bd; stroke-width: 2.7; stroke-linecap: square"/>
   </g>
   <g id="line2d_41">
    <path d="M 283.445688 146.505424 
L 283.445688 68.353231 
" clip-path="url(#pc8380c4616)" style="fill: none; stroke: #9467bd; stroke-width: 2.7; stroke-linecap: square"/>
   </g>
   <g id="patch_3">
    <path d="M 82.565688 173.52 
L 82.565688 7.2 
" style="fill: none; stroke: #000000; stroke-width: 0.8; stroke-linejoin: miter; stroke-linecap: square"/>
   </g>
   <g id="patch_4">
    <path d="M 82.565688 173.52 
L 305.765688 173.52 
" style="fill: none; stroke: #000000; stroke-width: 0.8; stroke-linejoin: miter; stroke-linecap: square"/>
   </g>
  </g>
 </g>
 <defs>
  <clipPath id="pc8380c4616">
   <rect x="82.565688" y="7.2" width="223.2" height="166.32"/>
  </clipPath>
 </defs>
</svg>
