<?xml version="1.0" encoding="utf-8" standalone="no"?>
<!DOCTYPE svg PUBLIC "-//W3C//DTD SVG 1.1//EN"
  "http://www.w3.org/Graphics/SVG/1.1/DTD/svg11.dtd">
<svg xmlns:xlink="http://www.w3.org/1999/xlink" width="235.254375pt" height="338.763125pt" viewBox="0 0 235.254375 338.763125" xmlns="http://www.w3.org/2000/svg" version="1.1">
 <metadata>
  <rdf:RDF xmlns:dc="http://purl.org/dc/elements/1.1/" xmlns:cc="http://creativecommons.org/ns#" xmlns:rdf="http://www.w3.org/1999/02/22-rdf-syntax-ns#">
   <cc:Work>
    <dc:type rdf:resource="http://purl.org/dc/dcmitype/StillImage"/>
    <dc:date>2026-05-19T22:28:41.358312</dc:date>
    <dc:format>image/svg+xml</dc:format>
    <dc:creator>
     <cc:Agent>
      <dc:title>Matplotlib v3.10.6, https://matplotlib.org/</dc:title>
     </cc:Agent>
    </dc:creator>
   </cc:Work>
  </rdf:RDF>
 </metadata>
 <defs>
  <style type="text/css">*{stroke-linejoin: round; stroke-linecap: butt}</style>
 </defs>
 <g id="figure_1">
  <g id="patch_1">
   <path d="M 0 338.763125 
L 235.254375 338.763125 
L 235.254375 0 
L 0 0 
z
" style="fill: #ffffff"/>
  </g>
  <g id="axes_1">
   <g id="patch_2">
    <path d="M 60.654375 284.4 
L 228.054375 284.4 
L 228.054375 7.2 
L 60.654375 7.2 
z
" style="fill: #ffffff"/>
   </g>
   <g id="FillBetweenPolyCollection_1"/>
   <g id="matplotlib.axis_1">
    <g id="xtick_1">
     <g id="line2d_1">
      <path d="M 78.764605 284.4 
L 78.764605 7.2 
" clip-path="url(#p0c07a98e55)" style="fill: none; stroke: #b0b0b0; stroke-width: 0.8; stroke-linecap: square"/>
     </g>
     <g id="line2d_2">
      <defs>
       <path id="m98a8bc9d16" d="M 0 0 
L 0 3.5 
" style="stroke: #000000; stroke-width: 0.8"/>
      </defs>
      <g>
       <use xlink:href="#m98a8bc9d16" x="78.764605" y="284.4" style="stroke: #000000; stroke-width: 0.8"/>
      </g>
     </g>
     <g id="text_1">
      <!-- 0.05 -->
      <g transform="translate(65.40523 300.518125) scale(0.12 -0.12)">
       <defs>
        <path id="DejaVuSans-30" d="M 2034 4250 
Q 1547 4250 1301 3770 
Q 1056 3291 1056 2328 
Q 1056 1369 1301 889 
Q 1547 409 2034 409 
Q 2525 409 2770 889 
Q 3016 1369 3016 2328 
Q 3016 3291 2770 3770 
Q 2525 4250 2034 4250 
z
M 2034 4750 
Q 2819 4750 3233 4129 
Q 3647 3509 3647 2328 
Q 3647 1150 3233 529 
Q 2819 -91 2034 -91 
Q 1250 -91 836 529 
Q 422 1150 422 2328 
Q 422 3509 836 4129 
Q 1250 4750 2034 4750 
z
" transform="scale(0.015625)"/>
        <path id="DejaVuSans-2e" d="M 684 794 
L 1344 794 
L 1344 0 
L 684 0 
L 684 794 
z
" transform="scale(0.015625)"/>
        <path id="DejaVuSans-35" d="M 691 4666 
L 3169 4666 
L 3169 4134 
L 1269 4134 
L 1269 2991 
Q 1406 3038 1543 3061 
Q 1681 3084 1819 3084 
Q 2600 3084 3056 2656 
Q 3513 2228 3513 1497 
Q 3513 744 3044 326 
Q 2575 -91 1722 -91 
Q 1428 -91 1123 -41 
Q 819 9 494 109 
L 494 744 
Q 775 591 1075 516 
Q 1375 441 1709 441 
Q 2250 441 2565 725 
Q 2881 1009 2881 1497 
Q 2881 1984 2565 2268 
Q 2250 2553 1709 2553 
Q 1456 2553 1204 2497 
Q 953 2441 691 2322 
L 691 4666 
z
" transform="scale(0.015625)"/>
       </defs>
       <use xlink:href="#DejaVuSans-30"/>
       <use xlink:href="#DejaVuSans-2e" transform="translate(63.623047 0)"/>
       <use xlink:href="#DejaVuSans-30" transform="translate(95.410156 0)"/>
       <use xlink:href="#DejaVuSans-35" transform="translate(159.033203 0)"/>
      </g>
     </g>
    </g>
    <g id="xtick_2">
     <g id="line2d_3">
      <path d="M 131.238648 284.4 
L 131.238648 7.2 
" clip-path="url(#p0c07a98e55)" style="fill: none; stroke: #b0b0b0; stroke-width: 0.8; stroke-linecap: square"/>
     </g>
     <g id="line2d_4">
      <g>
       <use xlink:href="#m98a8bc9d16" x="131.238648" y="284.4" style="stroke: #000000; stroke-width: 0.8"/>
      </g>
     </g>
     <g id="text_2">
      <!-- 0.10 -->
      <g transform="translate(117.879273 300.518125) scale(0.12 -0.12)">
       <defs>
        <path id="DejaVuSans-31" d="M 794 531 
L 1825 531 
L 1825 4091 
L 703 3866 
L 703 4441 
L 1819 4666 
L 2450 4666 
L 2450 531 
L 3481 531 
L 3481 0 
L 794 0 
L 794 531 
z
" transform="scale(0.015625)"/>
       </defs>
       <use xlink:href="#DejaVuSans-30"/>
       <use xlink:href="#DejaVuSans-2e" transform="translate(63.623047 0)"/>
       <use xlink:href="#DejaVuSans-31" transform="translate(95.410156 0)"/>
       <use xlink:href="#DejaVuSans-30" transform="translate(159.033203 0)"/>
      </g>
     </g>
    </g>
    <g id="xtick_3">
     <g id="line2d_5">
      <path d="M 183.712691 284.4 
L 183.712691 7.2 
" clip-path="url(#p0c07a98e55)" style="fill: none; stroke: #b0b0b0; stroke-width: 0.8; stroke-linecap: square"/>
     </g>
     <g id="line2d_6">
      <g>
       <use xlink:href="#m98a8bc9d16" x="183.712691" y="284.4" style="stroke: #000000; stroke-width: 0.8"/>
      </g>
     </g>
     <g id="text_3">
      <!-- 0.15 -->
      <g transform="translate(170.353316 300.518125) scale(0.12 -0.12)">
       <use xlink:href="#DejaVuSans-30"/>
       <use xlink:href="#DejaVuSans-2e" transform="translate(63.623047 0)"/>
       <use xlink:href="#DejaVuSans-31" transform="translate(95.410156 0)"/>
       <use xlink:href="#DejaVuSans-35" transform="translate(159.033203 0)"/>
      </g>
     </g>
    </g>
    <g id="text_4">
     <!-- Density [kg/m^3] -->
     <g transform="translate(82.062031 328.651563) scale(0.14 -0.14)">
      <defs>
       <path id="DejaVuSans-44" d="M 1259 4147 
L 1259 519 
L 2022 519 
Q 2988 519 3436 956 
Q 3884 1394 3884 2338 
Q 3884 3275 3436 3711 
Q 2988 4147 2022 4147 
L 1259 4147 
z
M 628 4666 
L 1925 4666 
Q 3281 4666 3915 4102 
Q 4550 3538 4550 2338 
Q 4550 1131 3912 565 
Q 3275 0 1925 0 
L 628 0 
L 628 4666 
z
" transform="scale(0.015625)"/>
       <path id="DejaVuSans-65" d="M 3597 1894 
L 3597 1613 
L 953 1613 
Q 991 1019 1311 708 
Q 1631 397 2203 397 
Q 2534 397 2845 478 
Q 3156 559 3463 722 
L 3463 178 
Q 3153 47 2828 -22 
Q 2503 -91 2169 -91 
Q 1331 -91 842 396 
Q 353 884 353 1716 
Q 353 2575 817 3079 
Q 1281 3584 2069 3584 
Q 2775 3584 3186 3129 
Q 3597 2675 3597 1894 
z
M 3022 2063 
Q 3016 2534 2758 2815 
Q 2500 3097 2075 3097 
Q 1594 3097 1305 2825 
Q 1016 2553 972 2059 
L 3022 2063 
z
" transform="scale(0.015625)"/>
       <path id="DejaVuSans-6e" d="M 3513 2113 
L 3513 0 
L 2938 0 
L 2938 2094 
Q 2938 2591 2744 2837 
Q 2550 3084 2163 3084 
Q 1697 3084 1428 2787 
Q 1159 2491 1159 1978 
L 1159 0 
L 581 0 
L 581 3500 
L 1159 3500 
L 1159 2956 
Q 1366 3272 1645 3428 
Q 1925 3584 2291 3584 
Q 2894 3584 3203 3211 
Q 3513 2838 3513 2113 
z
" transform="scale(0.015625)"/>
       <path id="DejaVuSans-73" d="M 2834 3397 
L 2834 2853 
Q 2591 2978 2328 3040 
Q 2066 3103 1784 3103 
Q 1356 3103 1142 2972 
Q 928 2841 928 2578 
Q 928 2378 1081 2264 
Q 1234 2150 1697 2047 
L 1894 2003 
Q 2506 1872 2764 1633 
Q 3022 1394 3022 966 
Q 3022 478 2636 193 
Q 2250 -91 1575 -91 
Q 1294 -91 989 -36 
Q 684 19 347 128 
L 347 722 
Q 666 556 975 473 
Q 1284 391 1588 391 
Q 1994 391 2212 530 
Q 2431 669 2431 922 
Q 2431 1156 2273 1281 
Q 2116 1406 1581 1522 
L 1381 1569 
Q 847 1681 609 1914 
Q 372 2147 372 2553 
Q 372 3047 722 3315 
Q 1072 3584 1716 3584 
Q 2034 3584 2315 3537 
Q 2597 3491 2834 3397 
z
" transform="scale(0.015625)"/>
       <path id="DejaVuSans-69" d="M 603 3500 
L 1178 3500 
L 1178 0 
L 603 0 
L 603 3500 
z
M 603 4863 
L 1178 4863 
L 1178 4134 
L 603 4134 
L 603 4863 
z
" transform="scale(0.015625)"/>
       <path id="DejaVuSans-74" d="M 1172 4494 
L 1172 3500 
L 2356 3500 
L 2356 3053 
L 1172 3053 
L 1172 1153 
Q 1172 725 1289 603 
Q 1406 481 1766 481 
L 2356 481 
L 2356 0 
L 1766 0 
Q 1100 0 847 248 
Q 594 497 594 1153 
L 594 3053 
L 172 3053 
L 172 3500 
L 594 3500 
L 594 4494 
L 1172 4494 
z
" transform="scale(0.015625)"/>
       <path id="DejaVuSans-79" d="M 2059 -325 
Q 1816 -950 1584 -1140 
Q 1353 -1331 966 -1331 
L 506 -1331 
L 506 -850 
L 844 -850 
Q 1081 -850 1212 -737 
Q 1344 -625 1503 -206 
L 1606 56 
L 191 3500 
L 800 3500 
L 1894 763 
L 2988 3500 
L 3597 3500 
L 2059 -325 
z
" transform="scale(0.015625)"/>
       <path id="DejaVuSans-20" transform="scale(0.015625)"/>
       <path id="DejaVuSans-5b" d="M 550 4863 
L 1875 4863 
L 1875 4416 
L 1125 4416 
L 1125 -397 
L 1875 -397 
L 1875 -844 
L 550 -844 
L 550 4863 
z
" transform="scale(0.015625)"/>
       <path id="DejaVuSans-6b" d="M 581 4863 
L 1159 4863 
L 1159 1991 
L 2875 3500 
L 3609 3500 
L 1753 1863 
L 3688 0 
L 2938 0 
L 1159 1709 
L 1159 0 
L 581 0 
L 581 4863 
z
" transform="scale(0.015625)"/>
       <path id="DejaVuSans-67" d="M 2906 1791 
Q 2906 2416 2648 2759 
Q 2391 3103 1925 3103 
Q 1463 3103 1205 2759 
Q 947 2416 947 1791 
Q 947 1169 1205 825 
Q 1463 481 1925 481 
Q 2391 481 2648 825 
Q 2906 1169 2906 1791 
z
M 3481 434 
Q 3481 -459 3084 -895 
Q 2688 -1331 1869 -1331 
Q 1566 -1331 1297 -1286 
Q 1028 -1241 775 -1147 
L 775 -588 
Q 1028 -725 1275 -790 
Q 1522 -856 1778 -856 
Q 2344 -856 2625 -561 
Q 2906 -266 2906 331 
L 2906 616 
Q 2728 306 2450 153 
Q 2172 0 1784 0 
Q 1141 0 747 490 
Q 353 981 353 1791 
Q 353 2603 747 3093 
Q 1141 3584 1784 3584 
Q 2172 3584 2450 3431 
Q 2728 3278 2906 2969 
L 2906 3500 
L 3481 3500 
L 3481 434 
z
" transform="scale(0.015625)"/>
       <path id="DejaVuSans-2f" d="M 1625 4666 
L 2156 4666 
L 531 -594 
L 0 -594 
L 1625 4666 
z
" transform="scale(0.015625)"/>
       <path id="DejaVuSans-6d" d="M 3328 2828 
Q 3544 3216 3844 3400 
Q 4144 3584 4550 3584 
Q 5097 3584 5394 3201 
Q 5691 2819 5691 2113 
L 5691 0 
L 5113 0 
L 5113 2094 
Q 5113 2597 4934 2840 
Q 4756 3084 4391 3084 
Q 3944 3084 3684 2787 
Q 3425 2491 3425 1978 
L 3425 0 
L 2847 0 
L 2847 2094 
Q 2847 2600 2669 2842 
Q 2491 3084 2119 3084 
Q 1678 3084 1418 2786 
Q 1159 2488 1159 1978 
L 1159 0 
L 581 0 
L 581 3500 
L 1159 3500 
L 1159 2956 
Q 1356 3278 1631 3431 
Q 1906 3584 2284 3584 
Q 2666 3584 2933 3390 
Q 3200 3197 3328 2828 
z
" transform="scale(0.015625)"/>
       <path id="DejaVuSans-5e" d="M 2988 4666 
L 4684 2925 
L 4056 2925 
L 2681 4159 
L 1306 2925 
L 678 2925 
L 2375 4666 
L 2988 4666 
z
" transform="scale(0.015625)"/>
       <path id="DejaVuSans-33" d="M 2597 2516 
Q 3050 2419 3304 2112 
Q 3559 1806 3559 1356 
Q 3559 666 3084 287 
Q 2609 -91 1734 -91 
Q 1441 -91 1130 -33 
Q 819 25 488 141 
L 488 750 
Q 750 597 1062 519 
Q 1375 441 1716 441 
Q 2309 441 2620 675 
Q 2931 909 2931 1356 
Q 2931 1769 2642 2001 
Q 2353 2234 1838 2234 
L 1294 2234 
L 1294 2753 
L 1863 2753 
Q 2328 2753 2575 2939 
Q 2822 3125 2822 3475 
Q 2822 3834 2567 4026 
Q 2313 4219 1838 4219 
Q 1578 4219 1281 4162 
Q 984 4106 628 3988 
L 628 4550 
Q 988 4650 1302 4700 
Q 1616 4750 1894 4750 
Q 2613 4750 3031 4423 
Q 3450 4097 3450 3541 
Q 3450 3153 3228 2886 
Q 3006 2619 2597 2516 
z
" transform="scale(0.015625)"/>
       <path id="DejaVuSans-5d" d="M 1947 4863 
L 1947 -844 
L 622 -844 
L 622 -397 
L 1369 -397 
L 1369 4416 
L 622 4416 
L 622 4863 
L 1947 4863 
z
" transform="scale(0.015625)"/>
      </defs>
      <use xlink:href="#DejaVuSans-44"/>
      <use xlink:href="#DejaVuSans-65" transform="translate(77.001953 0)"/>
      <use xlink:href="#DejaVuSans-6e" transform="translate(138.525391 0)"/>
      <use xlink:href="#DejaVuSans-73" transform="translate(201.904297 0)"/>
      <use xlink:href="#DejaVuSans-69" transform="translate(254.003906 0)"/>
      <use xlink:href="#DejaVuSans-74" transform="translate(281.787109 0)"/>
      <use xlink:href="#DejaVuSans-79" transform="translate(320.996094 0)"/>
      <use xlink:href="#DejaVuSans-20" transform="translate(380.175781 0)"/>
      <use xlink:href="#DejaVuSans-5b" transform="translate(411.962891 0)"/>
      <use xlink:href="#DejaVuSans-6b" transform="translate(450.976562 0)"/>
      <use xlink:href="#DejaVuSans-67" transform="translate(508.886719 0)"/>
      <use xlink:href="#DejaVuSans-2f" transform="translate(572.363281 0)"/>
      <use xlink:href="#DejaVuSans-6d" transform="translate(606.054688 0)"/>
      <use xlink:href="#DejaVuSans-5e" transform="translate(703.466797 0)"/>
      <use xlink:href="#DejaVuSans-33" transform="translate(787.255859 0)"/>
      <use xlink:href="#DejaVuSans-5d" transform="translate(850.878906 0)"/>
     </g>
    </g>
    <g id="text_5">
     <!-- +1e3 -->
     <g transform="translate(195.345 315.131875) scale(0.12 -0.12)">
      <defs>
       <path id="DejaVuSans-2b" d="M 2944 4013 
L 2944 2272 
L 4684 2272 
L 4684 1741 
L 2944 1741 
L 2944 0 
L 2419 0 
L 2419 1741 
L 678 1741 
L 678 2272 
L 2419 2272 
L 2419 4013 
L 2944 4013 
z
" transform="scale(0.015625)"/>
      </defs>
      <use xlink:href="#DejaVuSans-2b"/>
      <use xlink:href="#DejaVuSans-31" transform="translate(83.789062 0)"/>
      <use xlink:href="#DejaVuSans-65" transform="translate(147.412109 0)"/>
      <use xlink:href="#DejaVuSans-33" transform="translate(208.935547 0)"/>
     </g>
    </g>
   </g>
   <g id="matplotlib.axis_2">
    <g id="ytick_1">
     <g id="line2d_7">
      <path d="M 60.654375 18.963634 
L 228.054375 18.963634 
" clip-path="url(#p0c07a98e55)" style="fill: none; stroke: #b0b0b0; stroke-width: 0.8; stroke-linecap: square"/>
     </g>
     <g id="line2d_8">
      <defs>
       <path id="md74d2c675e" d="M 0 0 
L -3.5 0 
" style="stroke: #000000; stroke-width: 0.8"/>
      </defs>
      <g>
       <use xlink:href="#md74d2c675e" x="60.654375" y="18.963634" style="stroke: #000000; stroke-width: 0.8"/>
      </g>
     </g>
     <g id="text_6">
      <!-- 0 -->
      <g transform="translate(46.019375 23.522697) scale(0.12 -0.12)">
       <use xlink:href="#DejaVuSans-30"/>
      </g>
     </g>
    </g>
    <g id="ytick_2">
     <g id="line2d_9">
      <path d="M 60.654375 49.809742 
L 228.054375 49.809742 
" clip-path="url(#p0c07a98e55)" style="fill: none; stroke: #b0b0b0; stroke-width: 0.8; stroke-linecap: square"/>
     </g>
     <g id="line2d_10">
      <g>
       <use xlink:href="#md74d2c675e" x="60.654375" y="49.809742" style="stroke: #000000; stroke-width: 0.8"/>
      </g>
     </g>
     <g id="text_7">
      <!-- 20 -->
      <g transform="translate(38.384375 54.368805) scale(0.12 -0.12)">
       <defs>
        <path id="DejaVuSans-32" d="M 1228 531 
L 3431 531 
L 3431 0 
L 469 0 
L 469 531 
Q 828 903 1448 1529 
Q 2069 2156 2228 2338 
Q 2531 2678 2651 2914 
Q 2772 3150 2772 3378 
Q 2772 3750 2511 3984 
Q 2250 4219 1831 4219 
Q 1534 4219 1204 4116 
Q 875 4013 500 3803 
L 500 4441 
Q 881 4594 1212 4672 
Q 1544 4750 1819 4750 
Q 2544 4750 2975 4387 
Q 3406 4025 3406 3419 
Q 3406 3131 3298 2873 
Q 3191 2616 2906 2266 
Q 2828 2175 2409 1742 
Q 1991 1309 1228 531 
z
" transform="scale(0.015625)"/>
       </defs>
       <use xlink:href="#DejaVuSans-32"/>
       <use xlink:href="#DejaVuSans-30" transform="translate(63.623047 0)"/>
      </g>
     </g>
    </g>
    <g id="ytick_3">
     <g id="line2d_11">
      <path d="M 60.654375 80.655851 
L 228.054375 80.655851 
" clip-path="url(#p0c07a98e55)" style="fill: none; stroke: #b0b0b0; stroke-width: 0.8; stroke-linecap: square"/>
     </g>
     <g id="line2d_12">
      <g>
       <use xlink:href="#md74d2c675e" x="60.654375" y="80.655851" style="stroke: #000000; stroke-width: 0.8"/>
      </g>
     </g>
     <g id="text_8">
      <!-- 40 -->
      <g transform="translate(38.384375 85.214913) scale(0.12 -0.12)">
       <defs>
        <path id="DejaVuSans-34" d="M 2419 4116 
L 825 1625 
L 2419 1625 
L 2419 4116 
z
M 2253 4666 
L 3047 4666 
L 3047 1625 
L 3713 1625 
L 3713 1100 
L 3047 1100 
L 3047 0 
L 2419 0 
L 2419 1100 
L 313 1100 
L 313 1709 
L 2253 4666 
z
" transform="scale(0.015625)"/>
       </defs>
       <use xlink:href="#DejaVuSans-34"/>
       <use xlink:href="#DejaVuSans-30" transform="translate(63.623047 0)"/>
      </g>
     </g>
    </g>
    <g id="ytick_4">
     <g id="line2d_13">
      <path d="M 60.654375 111.501959 
L 228.054375 111.501959 
" clip-path="url(#p0c07a98e55)" style="fill: none; stroke: #b0b0b0; stroke-width: 0.8; stroke-linecap: square"/>
     </g>
     <g id="line2d_14">
      <g>
       <use xlink:href="#md74d2c675e" x="60.654375" y="111.501959" style="stroke: #000000; stroke-width: 0.8"/>
      </g>
     </g>
     <g id="text_9">
      <!-- 60 -->
      <g transform="translate(38.384375 116.061022) scale(0.12 -0.12)">
       <defs>
        <path id="DejaVuSans-36" d="M 2113 2584 
Q 1688 2584 1439 2293 
Q 1191 2003 1191 1497 
Q 1191 994 1439 701 
Q 1688 409 2113 409 
Q 2538 409 2786 701 
Q 3034 994 3034 1497 
Q 3034 2003 2786 2293 
Q 2538 2584 2113 2584 
z
M 3366 4563 
L 3366 3988 
Q 3128 4100 2886 4159 
Q 2644 4219 2406 4219 
Q 1781 4219 1451 3797 
Q 1122 3375 1075 2522 
Q 1259 2794 1537 2939 
Q 1816 3084 2150 3084 
Q 2853 3084 3261 2657 
Q 3669 2231 3669 1497 
Q 3669 778 3244 343 
Q 2819 -91 2113 -91 
Q 1303 -91 875 529 
Q 447 1150 447 2328 
Q 447 3434 972 4092 
Q 1497 4750 2381 4750 
Q 2619 4750 2861 4703 
Q 3103 4656 3366 4563 
z
" transform="scale(0.015625)"/>
       </defs>
       <use xlink:href="#DejaVuSans-36"/>
       <use xlink:href="#DejaVuSans-30" transform="translate(63.623047 0)"/>
      </g>
     </g>
    </g>
    <g id="ytick_5">
     <g id="line2d_15">
      <path d="M 60.654375 142.348067 
L 228.054375 142.348067 
" clip-path="url(#p0c07a98e55)" style="fill: none; stroke: #b0b0b0; stroke-width: 0.8; stroke-linecap: square"/>
     </g>
     <g id="line2d_16">
      <g>
       <use xlink:href="#md74d2c675e" x="60.654375" y="142.348067" style="stroke: #000000; stroke-width: 0.8"/>
      </g>
     </g>
     <g id="text_10">
      <!-- 80 -->
      <g transform="translate(38.384375 146.90713) scale(0.12 -0.12)">
       <defs>
        <path id="DejaVuSans-38" d="M 2034 2216 
Q 1584 2216 1326 1975 
Q 1069 1734 1069 1313 
Q 1069 891 1326 650 
Q 1584 409 2034 409 
Q 2484 409 2743 651 
Q 3003 894 3003 1313 
Q 3003 1734 2745 1975 
Q 2488 2216 2034 2216 
z
M 1403 2484 
Q 997 2584 770 2862 
Q 544 3141 544 3541 
Q 544 4100 942 4425 
Q 1341 4750 2034 4750 
Q 2731 4750 3128 4425 
Q 3525 4100 3525 3541 
Q 3525 3141 3298 2862 
Q 3072 2584 2669 2484 
Q 3125 2378 3379 2068 
Q 3634 1759 3634 1313 
Q 3634 634 3220 271 
Q 2806 -91 2034 -91 
Q 1263 -91 848 271 
Q 434 634 434 1313 
Q 434 1759 690 2068 
Q 947 2378 1403 2484 
z
M 1172 3481 
Q 1172 3119 1398 2916 
Q 1625 2713 2034 2713 
Q 2441 2713 2670 2916 
Q 2900 3119 2900 3481 
Q 2900 3844 2670 4047 
Q 2441 4250 2034 4250 
Q 1625 4250 1398 4047 
Q 1172 3844 1172 3481 
z
" transform="scale(0.015625)"/>
       </defs>
       <use xlink:href="#DejaVuSans-38"/>
       <use xlink:href="#DejaVuSans-30" transform="translate(63.623047 0)"/>
      </g>
     </g>
    </g>
    <g id="ytick_6">
     <g id="line2d_17">
      <path d="M 60.654375 173.194176 
L 228.054375 173.194176 
" clip-path="url(#p0c07a98e55)" style="fill: none; stroke: #b0b0b0; stroke-width: 0.8; stroke-linecap: square"/>
     </g>
     <g id="line2d_18">
      <g>
       <use xlink:href="#md74d2c675e" x="60.654375" y="173.194176" style="stroke: #000000; stroke-width: 0.8"/>
      </g>
     </g>
     <g id="text_11">
      <!-- 100 -->
      <g transform="translate(30.749375 177.753238) scale(0.12 -0.12)">
       <use xlink:href="#DejaVuSans-31"/>
       <use xlink:href="#DejaVuSans-30" transform="translate(63.623047 0)"/>
       <use xlink:href="#DejaVuSans-30" transform="translate(127.246094 0)"/>
      </g>
     </g>
    </g>
    <g id="ytick_7">
     <g id="line2d_19">
      <path d="M 60.654375 204.040284 
L 228.054375 204.040284 
" clip-path="url(#p0c07a98e55)" style="fill: none; stroke: #b0b0b0; stroke-width: 0.8; stroke-linecap: square"/>
     </g>
     <g id="line2d_20">
      <g>
       <use xlink:href="#md74d2c675e" x="60.654375" y="204.040284" style="stroke: #000000; stroke-width: 0.8"/>
      </g>
     </g>
     <g id="text_12">
      <!-- 120 -->
      <g transform="translate(30.749375 208.599347) scale(0.12 -0.12)">
       <use xlink:href="#DejaVuSans-31"/>
       <use xlink:href="#DejaVuSans-32" transform="translate(63.623047 0)"/>
       <use xlink:href="#DejaVuSans-30" transform="translate(127.246094 0)"/>
      </g>
     </g>
    </g>
    <g id="ytick_8">
     <g id="line2d_21">
      <path d="M 60.654375 234.886392 
L 228.054375 234.886392 
" clip-path="url(#p0c07a98e55)" style="fill: none; stroke: #b0b0b0; stroke-width: 0.8; stroke-linecap: square"/>
     </g>
     <g id="line2d_22">
      <g>
       <use xlink:href="#md74d2c675e" x="60.654375" y="234.886392" style="stroke: #000000; stroke-width: 0.8"/>
      </g>
     </g>
     <g id="text_13">
      <!-- 140 -->
      <g transform="translate(30.749375 239.445455) scale(0.12 -0.12)">
       <use xlink:href="#DejaVuSans-31"/>
       <use xlink:href="#DejaVuSans-34" transform="translate(63.623047 0)"/>
       <use xlink:href="#DejaVuSans-30" transform="translate(127.246094 0)"/>
      </g>
     </g>
    </g>
    <g id="ytick_9">
     <g id="line2d_23">
      <path d="M 60.654375 265.732501 
L 228.054375 265.732501 
" clip-path="url(#p0c07a98e55)" style="fill: none; stroke: #b0b0b0; stroke-width: 0.8; stroke-linecap: square"/>
     </g>
     <g id="line2d_24">
      <g>
       <use xlink:href="#md74d2c675e" x="60.654375" y="265.732501" style="stroke: #000000; stroke-width: 0.8"/>
      </g>
     </g>
     <g id="text_14">
      <!-- 160 -->
      <g transform="translate(30.749375 270.291563) scale(0.12 -0.12)">
       <use xlink:href="#DejaVuSans-31"/>
       <use xlink:href="#DejaVuSans-36" transform="translate(63.623047 0)"/>
       <use xlink:href="#DejaVuSans-30" transform="translate(127.246094 0)"/>
      </g>
     </g>
    </g>
    <g id="text_15">
     <!-- Depth [m] -->
     <g transform="translate(17.837813 181.626875) rotate(-90) scale(0.14 -0.14)">
      <defs>
       <path id="DejaVuSans-70" d="M 1159 525 
L 1159 -1331 
L 581 -1331 
L 581 3500 
L 1159 3500 
L 1159 2969 
Q 1341 3281 1617 3432 
Q 1894 3584 2278 3584 
Q 2916 3584 3314 3078 
Q 3713 2572 3713 1747 
Q 3713 922 3314 415 
Q 2916 -91 2278 -91 
Q 1894 -91 1617 61 
Q 1341 213 1159 525 
z
M 3116 1747 
Q 3116 2381 2855 2742 
Q 2594 3103 2138 3103 
Q 1681 3103 1420 2742 
Q 1159 2381 1159 1747 
Q 1159 1113 1420 752 
Q 1681 391 2138 391 
Q 2594 391 2855 752 
Q 3116 1113 3116 1747 
z
" transform="scale(0.015625)"/>
       <path id="DejaVuSans-68" d="M 3513 2113 
L 3513 0 
L 2938 0 
L 2938 2094 
Q 2938 2591 2744 2837 
Q 2550 3084 2163 3084 
Q 1697 3084 1428 2787 
Q 1159 2491 1159 1978 
L 1159 0 
L 581 0 
L 581 4863 
L 1159 4863 
L 1159 2956 
Q 1366 3272 1645 3428 
Q 1925 3584 2291 3584 
Q 2894 3584 3203 3211 
Q 3513 2838 3513 2113 
z
" transform="scale(0.015625)"/>
      </defs>
      <use xlink:href="#DejaVuSans-44"/>
      <use xlink:href="#DejaVuSans-65" transform="translate(77.001953 0)"/>
      <use xlink:href="#DejaVuSans-70" transform="translate(138.525391 0)"/>
      <use xlink:href="#DejaVuSans-74" transform="translate(202.001953 0)"/>
      <use xlink:href="#DejaVuSans-68" transform="translate(241.210938 0)"/>
      <use xlink:href="#DejaVuSans-20" transform="translate(304.589844 0)"/>
      <use xlink:href="#DejaVuSans-5b" transform="translate(336.376953 0)"/>
      <use xlink:href="#DejaVuSans-6d" transform="translate(375.390625 0)"/>
      <use xlink:href="#DejaVuSans-5d" transform="translate(472.802734 0)"/>
     </g>
    </g>
   </g>
   <g id="line2d_25">
    <path d="M 70.908234 19.8 
L 70.383712 19.915573 
L 69.547405 20.091527 
L 68.263466 20.223611 
L 68.531 20.317169 
L 79.980017 20.603331 
L 78.558357 20.652864 
L 72.373967 20.773949 
L 73.419868 20.828982 
L 86.394689 21.049093 
L 85.864634 21.104128 
L 93.727928 21.450821 
L 93.544675 21.549881 
L 95.336164 21.753499 
L 98.248518 21.88557 
L 97.036241 21.951613 
L 99.003608 22.391871 
L 100.86555 22.474414 
L 97.476762 22.639524 
L 98.81164 22.705559 
L 96.832714 22.848652 
L 97.718399 22.920192 
L 95.860762 23.052278 
L 96.064916 23.12382 
L 99.299316 23.327429 
L 98.038375 23.431997 
L 98.403221 23.487028 
L 98.80136 23.542217 
L 96.710535 23.784371 
L 96.914141 23.855913 
L 101.520581 24.015486 
L 107.037805 24.18606 
L 106.464983 24.246599 
L 106.896405 24.307133 
L 108.399551 24.356811 
L 107.320664 24.411849 
L 107.555371 24.477887 
L 109.37112 24.631968 
L 108.173821 24.69251 
L 109.605372 24.747535 
L 108.368845 24.81358 
L 109.988872 24.929139 
L 108.790943 24.995342 
L 110.378347 25.121907 
L 110.79968 25.424582 
L 109.484426 25.490786 
L 111.071595 25.60084 
L 109.794973 25.661384 
L 109.872557 25.727422 
L 111.226859 25.859491 
L 109.95012 25.925695 
L 111.34325 25.997228 
L 110.066424 26.063275 
L 111.459595 26.162324 
L 110.182681 26.217365 
L 111.53067 26.277891 
L 110.182681 26.437651 
L 110.182681 26.553219 
L 111.53067 26.663273 
L 110.214966 26.718472 
L 110.292435 26.806523 
L 111.608187 26.861546 
L 110.331161 26.933097 
L 110.369882 26.999136 
L 110.447309 27.054167 
L 111.879329 27.175384 
L 111.918042 27.301958 
L 112.034151 27.478217 
L 110.679461 27.621312 
L 111.995453 27.681836 
L 110.640782 27.74254 
L 111.95675 27.8636 
L 112.034151 27.935141 
L 110.718135 28.050877 
L 112.11153 28.188445 
L 110.795466 28.248992 
L 110.834123 28.337201 
L 112.188887 28.491278 
L 112.188887 28.6015 
L 110.911423 28.662047 
L 112.266224 28.70606 
L 110.988701 28.766607 
L 112.375748 28.86581 
L 110.988701 29.030919 
L 112.266224 29.097103 
L 110.988701 29.223689 
L 112.337097 29.289714 
L 111.020893 29.355923 
L 112.337097 29.416445 
L 111.05952 29.493503 
L 112.453033 29.548678 
L 111.175368 29.620233 
L 111.406921 29.680766 
L 113.410891 29.873515 
L 110.815605 29.928574 
L 112.170973 29.989095 
L 112.209441 30.104819 
L 113.641829 30.226032 
L 113.641829 30.29207 
L 112.324814 30.358123 
L 113.6803 30.418644 
L 112.363261 30.51237 
L 113.718765 30.672105 
L 113.6803 30.771163 
L 112.324814 30.84838 
L 112.363261 30.903412 
L 113.718765 30.980441 
L 113.6803 31.024467 
L 112.44014 31.09618 
L 114.058316 31.30544 
L 112.856195 31.371493 
L 112.9713 31.437687 
L 113.086357 31.56426 
L 114.518928 31.624935 
L 113.348254 31.690987 
L 113.424859 31.751522 
L 114.819194 31.872732 
L 114.665908 31.960785 
L 113.278013 32.021495 
L 113.316328 32.087533 
L 114.819194 32.148049 
L 113.922279 32.208753 
L 115.577983 32.401501 
L 114.297936 32.473058 
L 114.56504 32.533747 
L 114.977902 32.704498 
L 114.901728 32.825569 
L 116.334682 32.952281 
L 114.977902 33.007488 
L 116.487041 33.068003 
L 115.396477 33.123049 
L 116.111635 33.315808 
L 117.728118 33.381982 
L 116.824908 33.486712 
L 117.013955 33.547244 
L 117.687142 33.789532 
L 119.082979 33.850204 
L 117.875582 33.910756 
L 117.982306 33.971447 
L 118.095261 34.03198 
L 119.71709 34.153183 
L 118.803273 34.252411 
L 120.387226 34.307419 
L 119.403287 34.373472 
L 121.58548 34.682088 
L 120.59028 34.737134 
L 122.284129 34.858336 
L 122.648159 35.07311 
L 125.133083 35.464266 
L 127.085336 35.827913 
L 127.303327 35.882941 
L 126.194308 35.954656 
L 128.55906 36.141881 
L 129.064361 36.202564 
L 128.162505 36.263114 
L 130.770962 36.467 
L 131.479968 36.566201 
L 130.542536 36.621248 
L 130.963568 36.687435 
L 132.998084 36.819632 
L 131.880116 36.885688 
L 132.09248 36.951879 
L 134.435958 37.144604 
L 133.591197 37.210813 
L 136.314075 37.420197 
L 138.11325 37.668117 
L 138.765512 37.739645 
L 138.218651 37.800346 
L 140.2705 37.877352 
L 139.546139 37.938056 
L 141.403546 38.174967 
L 143.616395 38.362345 
L 142.447288 38.411893 
L 142.644177 38.478083 
L 143.014953 38.53861 
L 146.49374 38.725962 
L 153.25085 39.034473 
L 152.57571 39.106025 
L 153.17942 39.166704 
L 155.095924 39.243865 
L 152.875014 39.304441 
L 153.346153 39.376128 
L 155.137434 39.442286 
L 154.100653 39.508342 
L 154.321669 39.57453 
L 155.98006 39.668206 
L 154.789133 39.728762 
L 154.97788 39.789448 
L 156.541412 39.849949 
L 155.443666 39.910661 
L 155.751787 39.982351 
L 157.632904 40.114541 
L 156.589918 40.180755 
L 158.40184 40.329455 
L 157.268989 40.379162 
L 158.929857 40.478339 
L 157.85267 40.53339 
L 158.161805 40.599576 
L 159.9709 40.660072 
L 159.075704 40.72078 
L 162.217168 41.101046 
L 161.167584 41.200278 
L 161.319276 41.249801 
L 161.405173 41.304986 
L 160.029357 41.365705 
L 161.768491 41.52541 
L 163.304124 41.663264 
L 162.005233 41.734988 
L 162.065624 41.806524 
L 162.367253 42.060124 
L 161.020144 42.120843 
L 162.693402 42.286051 
L 162.753544 42.583837 
L 164.048287 42.64434 
L 162.723476 42.760246 
L 162.753544 42.831783 
L 163.113939 42.980668 
L 163.43862 43.195589 
L 163.558341 43.598085 
L 163.618168 43.730469 
L 163.852283 43.967403 
L 165.357519 44.044565 
L 162.621977 44.24871 
L 162.681555 44.342416 
L 165.506767 44.507749 
L 164.384018 44.557302 
L 164.770543 44.612479 
L 167.193829 44.844014 
L 171.910595 44.981626 
L 171.739643 45.0865 
L 176.690376 45.301302 
L 187.608108 45.96828 
L 188.188465 46.116998 
L 189.784287 46.183147 
L 187.335492 46.381783 
L 187.383755 46.442469 
L 190.167723 46.502927 
L 187.500301 46.651887 
L 188.930575 46.707034 
L 187.620728 46.767757 
L 187.71697 46.822939 
L 189.335706 46.888929 
L 188.240722 46.949646 
L 188.59504 47.142706 
L 190.121376 47.269386 
L 190.450599 47.545145 
L 190.731377 47.61683 
L 189.607375 47.677549 
L 191.341636 47.798719 
L 190.051001 47.859442 
L 191.506356 47.98628 
L 191.854504 48.206853 
L 190.539435 48.322762 
L 190.6563 48.504665 
L 192.065142 48.565313 
L 190.703007 48.626039 
L 190.726352 48.686726 
L 192.111889 48.752877 
L 190.769136 48.841117 
L 190.86242 48.896299 
L 192.341406 48.96229 
L 191.002178 49.028518 
L 191.071981 49.089204 
L 191.277223 49.342954 
L 191.323632 49.409143 
L 192.802688 49.557989 
L 191.439558 49.602208 
L 192.872271 49.657194 
L 192.895454 49.717881 
L 191.509047 49.784112 
L 192.941803 49.844757 
L 191.578485 49.905485 
L 191.60162 49.977177 
L 193.034435 50.109516 
L 191.647873 50.170244 
L 193.034435 50.236393 
L 191.647873 50.335642 
L 193.057579 50.390784 
L 191.647873 50.506699 
L 191.670992 50.561726 
L 191.694104 50.61691 
L 193.123124 50.738242 
L 191.736463 50.793469 
L 193.146247 50.859616 
L 191.921082 50.914838 
L 192.128351 50.975519 
L 192.331342 51.07472 
L 193.856458 51.129858 
L 192.560618 51.201591 
L 192.606406 51.256774 
L 192.716969 51.438833 
L 194.150496 51.493816 
L 192.762681 51.554547 
L 192.785528 51.609731 
L 192.80837 51.764279 
L 194.196238 51.824923 
L 192.831207 51.885496 
L 192.854038 51.946183 
L 192.922497 52.128243 
L 194.333328 52.244071 
L 192.990905 52.315806 
L 193.013697 52.376493 
L 193.305696 52.944682 
L 194.762332 53.049501 
L 193.441899 53.115734 
L 193.487255 53.17642 
L 194.943964 53.259071 
L 193.619417 53.319802 
L 193.687312 53.374984 
L 195.144102 53.441126 
L 192.857889 53.628767 
L 194.53549 53.744583 
L 193.279867 53.799809 
L 195.090348 53.948638 
L 195.290587 53.998313 
L 194.051419 54.059042 
L 195.575328 54.119678 
L 194.294833 54.180408 
L 195.837065 54.290726 
L 194.533897 54.35696 
L 196.035607 54.472781 
L 196.079666 54.533466 
L 194.753989 54.583193 
L 194.819907 54.671392 
L 196.255679 54.73203 
L 194.904063 54.787261 
L 196.361846 54.908586 
L 195.057526 54.963815 
L 195.101322 55.030004 
L 196.668626 55.151324 
L 195.338162 55.201052 
L 195.425445 55.261736 
L 197.079587 55.405064 
L 195.835195 55.465795 
L 197.65808 55.592766 
L 196.523263 55.64799 
L 196.777588 55.714171 
L 197.287437 55.830024 
L 199.083328 55.945833 
L 197.899987 56.006562 
L 200.730356 56.216036 
L 199.785407 56.282259 
L 200.152897 56.343091 
L 200.824811 56.513965 
L 202.322532 56.585761 
L 199.691157 56.773419 
L 202.907556 57.065732 
L 201.608321 57.131968 
L 201.725793 57.198311 
L 202.123761 57.391362 
L 200.725927 57.457603 
L 202.443196 57.606585 
L 202.698367 57.849323 
L 201.219554 57.904562 
L 204.295153 58.09767 
L 202.952609 58.16391 
L 202.992147 58.241103 
L 203.304365 58.732246 
L 203.966785 58.991633 
L 204.080342 59.06898 
L 202.618143 59.12422 
L 204.216357 59.251035 
L 204.274565 59.537958 
L 204.371465 60.211325 
L 204.371465 60.47624 
L 204.371465 60.735652 
L 202.850598 60.790897 
L 202.889262 60.868247 
L 205.888366 61.028176 
L 202.982605 61.199348 
L 204.503666 61.254471 
L 202.982605 61.337387 
L 204.503666 61.464201 
L 202.982605 61.519447 
L 204.522991 61.596736 
L 202.982605 61.668491 
L 204.503666 61.800965 
L 202.982605 61.872719 
L 204.522991 61.999689 
L 204.58093 62.568192 
L 203.079029 62.628941 
L 204.619528 62.761413 
L 204.600232 62.860776 
L 203.079029 62.927029 
L 204.619528 63.0595 
L 204.677383 63.578478 
L 206.100976 63.672278 
L 204.696657 63.722019 
L 204.735187 63.782704 
L 206.139559 63.84333 
L 203.233012 63.915304 
L 204.773695 63.975924 
L 204.773695 64.252001 
L 203.252235 64.318256 
L 203.271452 64.423121 
L 203.271452 64.544651 
L 204.81218 64.605271 
L 204.79294 64.671461 
L 204.81218 64.853677 
L 203.290663 64.91443 
L 204.81218 65.041397 
L 204.81218 65.096581 
L 203.309869 65.201669 
L 204.81218 65.256787 
L 203.290663 65.323043 
L 204.831414 65.461014 
L 204.831414 65.659738 
L 203.290663 65.720651 
L 204.831414 65.847458 
L 204.831414 65.996502 
L 203.309869 66.062916 
L 204.831414 66.200886 
L 204.831414 66.267076 
L 203.309869 66.333491 
L 203.329069 66.399679 
L 204.850642 66.47146 
L 203.309869 66.532216 
L 204.850642 66.670184 
L 204.831414 67.073295 
L 203.309869 67.150716 
L 204.850642 67.272019 
L 204.831414 67.641956 
L 203.309869 67.70287 
L 204.850642 67.768988 
L 204.831414 67.824173 
L 204.866662 68.20527 
L 203.345064 68.310206 
L 204.866662 68.370979 
L 204.850642 68.442671 
L 204.88588 68.746417 
L 203.345064 68.818339 
L 204.88588 68.945298 
L 204.88588 69.309732 
L 204.88588 69.375921 
L 203.364254 69.442341 
L 206.290458 69.558227 
L 203.383438 69.619054 
L 204.905092 69.679667 
L 204.88588 69.817863 
L 203.383438 69.928304 
L 204.905092 69.989074 
L 203.383438 70.055337 
L 204.905092 70.132615 
L 204.88588 70.204465 
L 204.905092 70.524718 
L 206.309697 70.579833 
L 204.905092 70.740108 
L 204.924299 71.08253 
L 204.9435 72.120959 
L 206.348157 72.187077 
L 204.962696 72.336348 
L 204.962696 72.397034 
L 203.440956 72.457955 
L 204.981886 72.513061 
L 204.962696 72.568245 
L 204.981886 72.634591 
L 203.479273 72.7617 
L 205.00107 72.833471 
L 203.479273 72.905399 
L 205.020248 72.971508 
L 203.498423 73.087614 
L 205.020248 73.225574 
L 203.479273 73.297503 
L 203.498423 73.363848 
L 205.020248 73.485299 
L 205.020248 73.540483 
L 203.517567 73.656589 
L 203.517567 73.717275 
L 205.039421 73.888564 
L 205.058589 74.225483 
L 203.536706 74.297412 
L 205.07775 74.369022 
L 205.058589 74.43537 
L 205.07775 74.507218 
L 203.555839 74.579147 
L 205.096906 74.739271 
L 205.096906 74.943655 
L 203.555839 75.009927 
L 205.07775 75.142538 
L 205.116056 75.545802 
L 203.574966 75.606571 
L 205.116056 75.73918 
L 203.574966 75.871799 
L 205.116056 76.004408 
L 205.116056 76.363495 
L 205.135201 76.6729 
L 203.613204 76.733671 
L 205.135201 76.877285 
L 205.173473 77.11484 
L 203.670519 77.175767 
L 205.192601 77.247374 
L 205.173473 77.313721 
L 205.192601 77.55678 
L 206.5976 77.683891 
L 203.689612 77.838757 
L 206.635891 77.899278 
L 205.211723 77.965704 
L 206.635891 78.103819 
L 203.7087 78.297363 
L 205.230839 78.369125 
L 205.211723 78.429813 
L 205.230839 78.551499 
L 206.635891 78.700462 
L 205.211723 78.827733 
L 206.616748 78.888339 
L 203.7087 78.960354 
L 205.211723 79.021111 
L 205.230839 79.087456 
L 203.7087 79.142727 
L 205.24995 79.275331 
L 205.230839 79.772614 
L 206.655028 79.838878 
L 205.230839 79.965993 
L 205.24995 80.303068 
L 203.74368 80.358497 
L 206.670971 80.49086 
L 203.781818 80.701074 
L 205.304067 80.839179 
L 205.380389 81.308943 
L 206.785647 81.364043 
L 205.418516 81.491314 
L 205.418516 82.110282 
L 203.896097 82.17106 
L 206.823827 82.231727 
L 203.915123 82.298249 
L 205.456621 82.347837 
L 205.456621 82.414183 
L 206.842908 82.508115 
L 205.437572 82.563384 
L 206.861984 82.629644 
L 205.456621 82.751259 
L 205.456621 82.944794 
L 206.881054 83.082902 
L 205.494703 83.259857 
L 205.532763 83.596931 
L 206.938231 83.657687 
L 205.532763 83.718617 
L 205.551784 83.7738 
L 205.551784 83.834643 
L 206.957279 83.88974 
L 205.551784 83.934162 
L 205.570799 84.088864 
L 206.957279 84.149621 
L 205.570799 84.293405 
L 205.608814 84.713489 
L 207.033412 84.879265 
L 205.627812 84.934536 
L 205.64364 85.000881 
L 207.049262 85.050474 
L 205.627812 85.116909 
L 205.64364 85.166747 
L 205.627812 85.282774 
L 207.033412 85.349032 
L 204.086109 85.421067 
L 205.627812 85.47631 
L 205.627812 85.763705 
L 204.120883 85.830147 
L 205.64364 85.88539 
L 205.627812 85.946077 
L 205.662629 86.128605 
L 204.139843 86.195049 
L 207.068277 86.426915 
L 205.662629 86.498854 
L 207.049262 86.559608 
L 205.662629 86.686887 
L 207.068277 86.747639 
L 204.158797 86.9302 
L 204.158797 87.002049 
L 205.681611 87.15115 
L 205.700588 87.339182 
L 205.681611 87.676415 
L 207.087286 87.742669 
L 205.681611 87.897621 
L 205.700588 88.07449 
L 207.106289 88.124078 
L 205.681611 88.251361 
L 205.681611 89.113859 
L 207.106289 89.168947 
L 205.700588 89.224382 
L 205.700588 89.434425 
L 207.106289 89.495174 
L 205.700588 89.622457 
L 205.71956 89.694305 
L 207.106289 89.755054 
L 205.71956 89.899002 
L 205.814331 90.413098 
L 207.22019 90.473846 
L 204.291318 90.673083 
L 205.814331 90.733823 
L 204.310226 90.805774 
L 205.814331 90.971536 
L 205.871127 91.745672 
L 207.277065 91.806418 
L 207.258112 91.878268 
L 207.277065 92.121639 
L 204.348027 92.177027 
L 205.871127 92.237764 
L 205.871127 92.35945 
L 207.277065 92.458871 
L 204.348027 92.57526 
L 207.277065 92.779594 
L 205.871127 92.906882 
L 205.871127 93.034071 
L 204.366919 93.089518 
L 205.890047 93.139091 
L 205.871127 93.238769 
L 207.277065 93.282847 
L 205.871127 93.354795 
L 207.277065 93.481885 
L 205.871127 93.614676 
L 205.852201 94.035078 
L 207.258112 94.084658 
L 205.852201 94.134596 
L 205.852201 94.250623 
L 207.258112 94.372208 
L 207.277065 94.438553 
L 205.871127 94.51066 
L 207.277065 94.582407 
L 207.258112 94.654257 
L 207.239154 94.759436 
L 205.852201 94.82038 
L 205.871127 94.886724 
L 207.239154 94.947468 
L 205.852201 95.05259 
L 205.871127 95.102427 
L 207.258112 95.21285 
L 207.258112 95.273693 
L 205.871127 95.39548 
L 205.871127 95.561345 
L 207.277065 95.633248 
L 205.852201 95.777049 
L 205.908962 96.728368 
L 207.333888 96.855451 
L 205.908962 96.9164 
L 207.333888 97.060148 
L 205.927871 97.109933 
L 205.946775 97.176435 
L 205.965672 97.508162 
L 207.390661 97.580061 
L 205.984565 97.646512 
L 206.003451 97.712857 
L 207.409573 97.801265 
L 207.390661 97.856606 
L 206.019186 97.923055 
L 207.409573 97.978291 
L 206.003451 98.044743 
L 206.019186 98.105585 
L 207.42533 98.166322 
L 206.038062 98.238275 
L 207.463129 98.376518 
L 206.056932 98.431965 
L 206.075797 98.531483 
L 207.500906 98.647558 
L 206.094656 98.769351 
L 206.075797 98.896541 
L 207.500906 98.951773 
L 206.094656 99.023729 
L 207.48202 99.073461 
L 206.094656 99.211918 
L 206.094656 99.42762 
L 207.500906 99.482853 
L 206.094656 99.621155 
L 206.11351 99.759505 
L 207.519786 99.820239 
L 206.11351 99.881191 
L 206.132358 99.953038 
L 206.11351 100.107898 
L 207.519786 100.174292 
L 206.11351 100.307093 
L 206.132358 100.379097 
L 207.557529 100.445332 
L 206.1512 100.567127 
L 206.1512 100.699819 
L 207.557529 100.766212 
L 206.1512 100.854835 
L 207.557529 100.921071 
L 206.1512 101.048369 
L 207.576392 101.120263 
L 206.1512 101.192223 
L 207.576392 101.258457 
L 206.170036 101.396918 
L 206.170036 101.457762 
L 207.595249 101.523995 
L 206.170036 101.590453 
L 206.188867 101.69563 
L 207.595249 101.800697 
L 206.207693 101.927995 
L 207.632946 102.060574 
L 207.632946 102.104909 
L 206.245326 102.171365 
L 207.632946 102.232098 
L 206.245326 102.398229 
L 207.670621 102.464461 
L 206.264134 102.530919 
L 207.670621 102.663655 
L 207.68945 102.735502 
L 206.282937 102.796615 
L 207.708274 102.857344 
L 206.301734 102.918299 
L 206.339311 102.979139 
L 207.727091 103.039871 
L 206.339311 103.095323 
L 207.745903 103.250069 
L 206.339311 103.32769 
L 207.76471 103.465926 
L 207.745903 103.543278 
L 206.358091 103.676239 
L 207.783511 103.747972 
L 206.376865 103.808928 
L 206.395634 103.86977 
L 206.395634 103.936273 
L 207.802306 104.024672 
L 206.395634 104.080126 
L 207.817964 104.223864 
L 206.41127 104.279319 
L 206.430029 104.356668 
L 206.430029 104.428674 
L 207.855528 104.483898 
L 206.523736 104.550352 
L 208.005556 104.627739 
L 206.654687 104.694195 
L 206.692051 104.79937 
L 206.692051 104.849051 
L 208.09914 104.909936 
L 206.710725 104.954228 
L 206.692051 105.09258 
L 208.09914 105.153308 
L 206.692051 105.203261 
L 206.692051 105.269606 
L 208.09914 105.407842 
L 206.692051 105.584984 
L 206.692051 105.701167 
L 209.524955 105.767436 
L 206.673372 105.900363 
L 206.673372 106.138389 
L 206.673372 106.365253 
L 208.061724 106.420478 
L 206.617301 106.553289 
L 206.617301 106.625295 
L 208.043007 106.746861 
L 206.673372 106.813322 
L 206.710725 106.879821 
L 208.155223 106.951548 
L 206.782254 107.012664 
L 208.22681 107.172903 
L 208.245471 107.244907 
L 206.838175 107.305868 
L 206.875428 107.377713 
L 206.894046 107.5659 
L 208.282776 107.637788 
L 206.875428 107.704253 
L 206.894046 107.770597 
L 206.931264 107.925609 
L 208.357319 108.052834 
L 208.357319 108.169017 
L 206.96846 108.301826 
L 206.98705 108.506678 
L 208.394556 108.572904 
L 208.394556 108.689087 
L 206.98705 108.80539 
L 208.394556 108.871772 
L 207.005634 108.932734 
L 208.394556 108.998961 
L 207.005634 109.043415 
L 206.98705 109.275783 
L 208.394556 109.347667 
L 206.98705 109.447464 
L 207.005634 109.51931 
L 206.98705 109.779505 
L 208.413167 109.840225 
L 206.98705 109.967537 
L 208.413167 110.022753 
L 206.98705 110.161228 
L 207.005634 110.271907 
L 208.394556 110.332786 
L 205.480807 110.399385 
L 207.005634 110.471257 
L 208.413167 110.542983 
L 206.98705 110.60961 
L 208.394556 110.67033 
L 206.98705 110.725793 
L 207.005634 110.786634 
L 206.98705 110.853139 
L 208.413167 110.891689 
L 206.98705 111.04117 
L 208.413167 111.107547 
L 208.394556 111.179397 
L 208.394556 111.323407 
L 206.98705 111.467384 
L 206.98705 111.816091 
L 208.394556 111.865804 
L 206.98705 111.932274 
L 208.394556 111.992992 
L 206.98705 112.054117 
L 208.394556 112.120337 
L 206.98705 112.186808 
L 208.394556 112.26419 
L 206.98705 112.397164 
L 206.98705 112.63519 
L 208.375941 112.751249 
L 206.98705 112.878718 
L 208.394556 112.92843 
L 206.98705 112.983896 
L 206.96846 113.338107 
L 208.394556 113.476329 
L 206.96846 113.603803 
L 206.96846 113.736651 
L 208.375941 113.863712 
L 206.96846 113.941347 
L 208.394556 114.002218 
L 208.375941 114.068565 
L 206.98705 114.173869 
L 208.394556 114.234584 
L 206.98705 114.295711 
L 208.375941 114.361931 
L 206.96846 114.422901 
L 208.375941 114.544616 
L 208.375941 114.599956 
L 206.98705 114.721768 
L 206.98705 114.788271 
L 208.394556 114.959665 
L 208.375941 115.159017 
L 206.98705 115.302998 
L 208.394556 115.363869 
L 208.375941 115.435718 
L 206.98705 115.502348 
L 208.375941 115.607398 
L 208.375941 115.745749 
L 206.98705 115.86206 
L 208.375941 115.922932 
L 206.98705 115.989405 
L 208.394556 116.06128 
L 206.98705 116.138918 
L 208.394556 116.210636 
L 206.98705 116.354776 
L 206.96846 116.692479 
L 208.375941 116.803028 
L 206.96846 116.8585 
L 208.375941 116.913708 
L 208.394556 117.212575 
L 206.98705 117.362219 
L 206.98705 117.64458 
L 207.005634 117.771924 
L 208.394556 117.893478 
L 206.98705 117.943448 
L 208.413167 118.081821 
L 206.98705 118.209144 
L 206.98705 118.270144 
L 208.394556 118.419524 
L 208.375941 118.497033 
L 206.96846 118.652024 
L 206.96846 119.211243 
L 208.375941 119.321789 
L 208.375941 119.382789 
L 206.96846 119.543441 
L 206.98705 119.615444 
L 208.375941 119.742499 
L 208.394556 119.825665 
L 206.98705 119.886643 
L 208.394556 119.964015 
L 206.98705 120.091496 
L 206.96846 120.202178 
L 208.375941 120.263042 
L 206.949865 120.34619 
L 208.394556 120.451228 
L 208.375941 120.501067 
L 206.96846 120.562046 
L 208.375941 120.694757 
L 208.357319 121.165464 
L 206.949865 121.231946 
L 208.357319 121.397986 
L 208.357319 121.514169 
L 206.949865 121.575306 
L 208.357319 121.630509 
L 206.96846 121.69699 
L 208.357319 121.757854 
L 208.357319 122.006884 
L 206.96846 122.090188 
L 208.357319 122.162056 
L 206.949865 122.223037 
L 208.357319 122.289401 
L 208.338692 122.350246 
L 208.338692 122.416591 
L 209.746119 122.471949 
L 208.357319 122.527426 
L 208.357319 122.787619 
L 208.357319 122.920466 
L 206.931264 122.98711 
L 208.338692 123.119818 
L 206.949865 123.180956 
L 208.338692 123.319168 
L 208.357319 123.385668 
L 206.949865 123.485483 
L 208.357319 123.601526 
L 208.357319 124.000225 
L 209.746119 124.121929 
L 208.338692 124.271582 
L 209.764773 124.337784 
L 208.338692 124.459769 
L 208.375941 125.085485 
L 206.949865 125.146472 
L 208.357319 125.307004 
L 206.949865 125.356984 
L 208.357319 125.484186 
L 208.338692 125.838553 
L 206.949865 125.916202 
L 208.357319 126.054565 
L 208.338692 126.120912 
L 206.931264 126.182056 
L 209.708795 126.403289 
L 208.30142 126.486443 
L 209.708795 126.536136 
L 208.320059 126.586116 
L 209.708795 126.657978 
L 208.30142 126.779965 
L 208.264126 127.217343 
L 209.671448 127.36671 
L 209.652766 127.427711 
L 208.245471 127.483197 
L 209.634079 127.593733 
L 208.208143 127.649378 
L 208.22681 127.704716 
L 209.615386 127.765414 
L 208.22681 127.821056 
L 209.634079 127.887255 
L 209.615386 127.981429 
L 208.22681 128.108918 
L 209.634079 128.247278 
L 209.596687 128.385632 
L 208.208143 128.441274 
L 209.615386 128.551807 
L 208.208143 128.612953 
L 209.615386 128.656984 
L 209.615386 128.745653 
L 208.18947 128.801142 
L 209.5811 128.856337 
L 209.506229 128.928349 
L 210.875796 128.989205 
L 209.412513 129.122206 
L 210.81947 129.194063 
L 209.393753 129.316055 
L 209.450017 129.437891 
L 208.043007 129.537714 
L 209.46876 129.581898 
L 209.431268 129.642744 
L 209.431268 129.703744 
L 210.838251 129.758935 
L 208.005556 129.886579 
L 209.412513 129.94743 
L 209.393753 130.013934 
L 209.412513 130.135617 
L 207.986822 130.224438 
L 209.412513 130.390463 
L 208.024284 130.451453 
L 209.431268 130.573146 
L 209.412513 130.783659 
L 207.986822 130.938826 
L 209.393753 131.09935 
L 209.412513 131.16019 
L 210.800684 131.215539 
L 209.393753 131.282034 
L 210.800684 131.331721 
L 207.986822 131.393022 
L 209.393753 131.459373 
L 207.968083 131.520369 
L 209.393753 131.64756 
L 209.412513 132.035251 
L 210.800684 132.162603 
L 209.374987 132.323274 
L 209.337439 132.710971 
L 210.706666 132.782827 
L 209.262274 132.910329 
L 210.66902 132.971175 
L 207.855528 133.148663 
L 209.262274 133.309184 
L 209.243468 134.217576 
L 207.836748 134.273071 
L 209.224657 134.328258 
L 209.224657 134.405765 
L 210.631351 134.483275 
L 209.208977 134.605273 
L 209.299867 135.602165 
L 210.706666 135.663008 
L 209.299867 135.829341 
L 209.299867 136.172699 
L 210.687846 136.333218 
L 209.281073 136.471882 
L 210.687846 136.543729 
L 209.281073 136.682393 
L 210.687846 136.74858 
L 209.281073 136.870737 
L 209.299867 137.081089 
L 210.706666 137.136428 
L 210.687846 137.197272 
L 209.299867 137.330432 
L 209.262274 137.790134 
L 210.66902 137.878644 
L 210.650188 137.933986 
L 209.243468 138.072652 
L 209.224657 138.405007 
L 210.615648 138.465848 
L 209.171328 138.632189 
L 209.152496 138.809372 
L 210.559088 138.870211 
L 209.152496 138.936874 
L 210.540223 139.008719 
L 209.114813 139.136227 
L 209.114813 139.197226 
L 210.502477 139.263569 
L 209.058247 139.424251 
L 210.464708 139.496252 
L 209.058247 139.623757 
L 209.152496 139.967262 
L 209.152496 140.100108 
L 207.745903 140.166773 
L 209.133657 140.271947 
L 209.114813 140.332791 
L 209.077108 140.526642 
L 210.502477 140.592978 
L 209.114813 140.665144 
L 209.133657 140.748308 
L 209.133657 140.81481 
L 210.540223 140.886651 
L 209.095964 141.058498 
L 209.039381 141.385355 
L 210.445815 141.44053 
L 210.426916 141.518197 
L 209.039381 141.645703 
L 210.426916 141.717545 
L 209.00163 141.89505 
L 209.00163 141.961552 
L 210.408012 142.038894 
L 209.00163 142.105561 
L 210.389102 142.1719 
L 208.982747 142.238567 
L 210.389102 142.365746 
L 210.370186 142.426748 
L 208.963857 142.548755 
L 208.982747 142.703924 
L 210.370186 142.7591 
L 208.944963 142.836775 
L 210.351265 142.903111 
L 210.332338 142.969615 
L 210.256574 143.385142 
L 208.831474 143.490488 
L 210.221818 143.54582 
L 210.202853 143.617827 
L 210.145922 143.856014 
L 208.758861 143.917178 
L 210.164905 143.97801 
L 210.145922 144.033352 
L 210.050925 144.498719 
L 209.955786 144.903244 
L 209.879573 145.063769 
L 211.367346 145.185589 
L 209.768268 145.313125 
L 209.71095 145.435131 
L 211.233484 145.501292 
L 211.214338 145.562294 
L 211.233484 145.689792 
L 209.691833 145.856154 
L 211.195187 145.972311 
L 209.67271 146.09984 
L 211.195187 146.243821 
L 209.691833 146.299343 
L 211.17603 146.360162 
L 209.67271 146.432349 
L 211.195187 146.482001 
L 209.67271 146.537683 
L 211.195187 146.687009 
L 209.653582 146.803535 
L 211.17603 146.930851 
L 211.17603 146.997352 
L 212.581367 147.063525 
L 211.156867 147.213367 
L 211.156867 147.590053 
L 212.562178 147.645378 
L 211.156867 147.712052 
L 211.17603 147.772891 
L 211.156867 147.977901 
L 212.562178 148.04423 
L 211.156867 148.216238 
L 211.17603 148.465578 
L 211.156867 148.532082 
L 212.581367 148.598408 
L 211.17603 148.664926 
L 211.195187 148.731425 
L 211.17603 148.792427 
L 212.60055 148.858752 
L 211.195187 149.019599 
L 211.195187 149.773128 
L 212.60055 149.833952 
L 211.17603 149.900631 
L 212.60055 149.961295 
L 211.195187 150.027972 
L 212.60055 150.094298 
L 211.17603 150.149973 
L 211.195187 150.216472 
L 211.214338 150.698489 
L 212.619728 150.864488 
L 212.619728 150.936492 
L 211.214338 151.00317 
L 211.252624 151.064164 
L 211.329128 151.65701 
L 212.734675 151.717831 
L 211.329128 151.856515 
L 212.734675 151.922838 
L 211.329128 151.99502 
L 211.34824 152.072682 
L 211.34824 152.233355 
L 212.734675 152.305183 
L 211.31001 152.438367 
L 212.715531 152.571191 
L 212.715531 152.693032 
L 211.31001 152.820712 
L 211.290887 152.98689 
L 212.715531 153.047707 
L 212.696382 153.108708 
L 212.696382 153.435556 
L 211.290887 153.502238 
L 212.677227 153.635063 
L 211.290887 153.746077 
L 212.696382 153.801236 
L 212.677227 153.873399 
L 212.677227 154.011905 
L 211.271758 154.078587 
L 212.677227 154.216912 
L 212.677227 154.288916 
L 211.271758 154.350096 
L 212.696382 154.405252 
L 212.677227 154.471756 
L 212.677227 155.219937 
L 211.271758 155.397299 
L 212.696382 155.535777 
L 212.696382 155.81829 
L 211.271758 155.89048 
L 212.696382 156.012292 
L 212.677227 156.156302 
L 211.290887 156.206478 
L 212.696382 156.272795 
L 212.677227 156.339299 
L 212.677227 156.671649 
L 212.677227 156.721643 
L 211.271758 156.815999 
L 212.696382 156.976484 
L 212.658066 157.236993 
L 214.063508 157.319816 
L 212.658066 157.375498 
L 212.677227 157.441997 
L 212.677227 157.796671 
L 212.677227 158.151345 
L 214.063508 158.223165 
L 212.677227 158.378519 
L 212.677227 158.644525 
L 214.082695 158.782843 
L 212.658066 158.844032 
L 212.677227 158.910531 
L 212.677227 158.971529 
L 214.082695 159.026681 
L 212.677227 159.193201 
L 212.658066 159.248543 
L 214.082695 159.414684 
L 212.658066 159.486879 
L 214.063508 159.558694 
L 212.658066 159.636546 
L 212.677227 159.691883 
L 212.753813 159.763876 
L 214.251936 159.835836 
L 212.922622 159.896856 
L 214.385738 159.957659 
L 213.017978 160.018841 
L 214.462072 160.179319 
L 214.442997 160.362161 
L 213.037032 160.417847 
L 213.056081 160.478843 
L 214.462072 160.622661 
L 213.056081 160.678347 
L 214.462072 160.738999 
L 213.056081 160.905521 
L 213.056081 160.977525 
L 214.462072 161.104834 
L 213.056081 161.166024 
L 214.462072 161.282171 
L 213.056081 161.343361 
L 214.462072 161.47067 
L 214.442997 161.758845 
L 213.037032 161.919708 
L 213.056081 162.058211 
L 214.423916 162.130028 
L 214.385738 162.196534 
L 214.385738 162.263035 
L 212.960781 162.363061 
L 212.941704 162.496066 
L 214.347537 162.55137 
L 214.328428 162.612214 
L 214.328428 162.745217 
L 212.922622 162.806408 
L 214.347537 162.961382 
L 214.347537 163.105547 
L 215.772499 163.171852 
L 214.347537 163.33272 
L 214.36664 163.393716 
L 214.347537 163.565553 
L 212.922622 163.621088 
L 214.347537 163.676388 
L 214.385738 164.042061 
L 212.998918 164.097749 
L 214.385738 164.219397 
L 214.423916 164.806898 
L 212.998918 164.923434 
L 215.829854 165.111538 
L 214.442997 165.228069 
L 214.442997 165.344564 
L 213.037032 165.411262 
L 214.462072 165.477564 
L 214.442997 165.57724 
L 214.500205 165.771233 
L 213.113193 165.84343 
L 214.519263 165.987398 
L 214.462072 166.253411 
L 213.056081 166.314607 
L 215.848961 166.39738 
L 214.442997 166.447414 
L 214.442997 166.696754 
L 213.056081 166.757948 
L 214.481141 166.885248 
L 214.462072 166.951751 
L 215.887158 167.023554 
L 214.462072 167.190086 
L 214.500205 167.389584 
L 213.094162 167.445122 
L 214.500205 167.583585 
L 214.519263 167.771924 
L 213.113193 167.833122 
L 214.538316 168.010256 
L 214.538316 168.065752 
L 213.132219 168.193452 
L 214.538316 168.30959 
L 214.519263 168.542425 
L 213.113193 168.647958 
L 214.519263 168.697594 
L 214.500205 168.775103 
L 214.519263 168.852763 
L 213.113193 168.930628 
L 215.944412 169.002226 
L 214.519263 169.068931 
L 213.094162 169.130134 
L 214.519263 169.25743 
L 214.500205 169.301766 
L 214.500205 169.650936 
L 215.906248 169.717236 
L 213.113193 169.78964 
L 214.538316 169.855937 
L 213.132219 169.928142 
L 214.538316 170.005603 
L 214.519263 170.072107 
L 214.519263 170.382446 
L 213.113193 170.443647 
L 214.519263 170.609775 
L 214.519263 170.770447 
L 213.113193 170.831649 
L 214.519263 171.041954 
L 214.519263 171.19162 
L 213.113193 171.258325 
L 214.519263 171.396783 
L 214.519263 171.718284 
L 214.519263 171.773622 
L 213.113193 171.829323 
L 214.519263 171.884458 
L 213.094162 171.945664 
L 214.519263 172.072956 
L 213.113193 172.145164 
L 214.538316 172.205955 
L 214.519263 172.272459 
L 213.113193 172.333663 
L 213.132219 172.400161 
L 214.557362 172.483118 
L 213.15124 172.544323 
L 214.592267 172.732453 
L 214.592267 173.037289 
L 214.592267 173.403123 
L 215.979375 173.46942 
L 213.186096 173.586326 
L 214.592267 173.707958 
L 214.611298 174.107119 
L 215.998437 174.167912 
L 214.592267 174.284457 
L 214.611298 174.345453 
L 213.2051 174.40666 
L 214.611298 174.533794 
L 213.2051 174.606163 
L 214.592267 174.761126 
L 214.57323 174.943968 
L 213.167086 174.99417 
L 214.57323 175.115801 
L 213.167086 175.177009 
L 214.57323 175.237798 
L 213.15124 175.293349 
L 214.592267 175.470627 
L 213.186096 175.537338 
L 214.592267 175.675633 
L 214.57323 175.880798 
L 213.2051 175.991838 
L 213.2051 176.052836 
L 214.592267 176.11913 
L 213.2051 176.185838 
L 214.611298 176.351802 
L 214.611298 176.423962 
L 213.224099 176.490671 
L 214.630323 176.556961 
L 214.611298 176.623465 
L 214.630323 177.016965 
L 213.224099 177.072673 
L 214.630323 177.216468 
L 214.649342 177.371791 
L 213.26208 177.444004 
L 214.668356 177.515795 
L 214.649342 177.576797 
L 214.649342 177.643297 
L 213.26208 177.710008 
L 214.668356 177.765292 
L 213.243092 177.854175 
L 214.630323 177.892797 
L 214.611298 177.953798 
L 214.687364 178.496956 
L 214.668356 178.779627 
L 213.26208 178.846342 
L 216.074632 178.962251 
L 214.668356 179.095467 
L 214.668356 179.777298 
L 213.243092 179.838514 
L 216.055592 180.037586 
L 213.2051 180.243186 
L 214.630323 180.309468 
L 214.611298 180.359307 
L 213.2051 180.426024 
L 214.630323 180.481301 
L 214.611298 180.542302 
L 214.592267 180.885814 
L 213.186096 181.008028 
L 215.998437 181.05743 
L 214.592267 181.129808 
L 214.630323 181.185141 
L 213.224099 181.240854 
L 214.649342 181.356971 
L 214.649342 181.595305 
L 216.036546 181.706082 
L 213.224099 181.83952 
L 214.649342 181.983305 
L 214.649342 182.171803 
L 213.224099 182.233023 
L 214.649342 182.282638 
L 214.649342 182.731636 
L 213.243092 182.804016 
L 214.668356 182.875797 
L 214.649342 182.947803 
L 214.668356 183.147303 
L 216.074632 183.219243 
L 213.26208 183.36935 
L 214.649342 183.430131 
L 214.649342 183.490972 
L 213.243092 183.55785 
L 214.649342 183.679469 
L 213.26208 183.751848 
L 214.630323 183.806972 
L 214.611298 183.89014 
L 214.611298 183.956641 
L 213.186096 184.062197 
L 214.611298 184.17831 
L 214.592267 184.505472 
L 215.998437 184.571751 
L 214.592267 184.704974 
L 214.592267 184.926644 
L 213.167086 184.999029 
L 214.557362 185.06531 
L 213.167086 185.132031 
L 215.979375 185.198087 
L 213.167086 185.265033 
L 214.57323 185.331311 
L 214.57323 185.397812 
L 213.15124 185.525536 
L 213.186096 185.741698 
L 216.036546 185.940747 
L 213.224099 186.151859 
L 213.224099 186.223862 
L 214.649342 186.279131 
L 213.224099 186.345859 
L 214.630323 186.434303 
L 213.224099 186.490023 
L 214.649342 186.550794 
L 214.630323 186.606136 
L 214.630323 186.733635 
L 213.224099 186.80602 
L 214.649342 186.960961 
L 214.668356 187.271294 
L 216.074632 187.337569 
L 213.281062 187.509851 
L 216.074632 187.653565 
L 214.668356 187.786793 
L 214.668356 188.041791 
L 213.281062 188.103013 
L 214.687364 188.24129 
L 214.668356 188.856621 
L 216.093667 188.917389 
L 214.687364 188.978615 
L 216.112695 189.033722 
L 216.093667 189.105886 
L 214.687364 189.244618 
L 216.093667 189.299885 
L 214.668356 189.43862 
L 214.706367 189.931945 
L 214.687364 190.319948 
L 214.706367 190.486275 
L 213.300038 190.558508 
L 214.687364 190.713449 
L 214.687364 191.090444 
L 213.26208 191.157178 
L 214.668356 191.301111 
L 213.26208 191.367843 
L 214.668356 191.517277 
L 214.687364 191.799941 
L 216.093667 191.938213 
L 216.093667 192.004714 
L 214.668356 192.187944 
L 214.706367 192.514938 
L 213.300038 192.598336 
L 214.706367 192.747769 
L 214.744355 192.902931 
L 213.337973 192.969665 
L 214.76334 193.080263 
L 214.78232 193.24659 
L 216.188754 193.307354 
L 214.76334 193.440592 
L 214.78232 193.76759 
L 213.356933 193.823323 
L 214.78232 193.911753 
L 214.76334 193.983759 
L 214.76334 194.044757 
L 216.150736 194.105524 
L 214.744355 194.172259 
L 216.169748 194.227517 
L 214.78232 194.388419 
L 214.801295 194.438252 
L 216.188754 194.504678 
L 214.801295 194.615744 
L 214.801295 194.676743 
L 216.207755 194.74851 
L 216.188754 194.815014 
L 214.78232 194.887252 
L 214.801295 194.95375 
L 214.76334 195.214413 
L 216.169748 195.35268 
L 213.356933 195.463988 
L 216.188754 195.68518 
L 214.78232 195.796408 
L 214.78232 196.189909 
L 216.188754 196.256172 
L 214.801295 196.317404 
L 214.820263 196.389404 
L 214.820263 196.516903 
L 216.22675 196.566501 
L 214.801295 196.733072 
L 214.801295 196.782908 
L 216.22675 196.849167 
L 214.820263 196.916063 
L 214.839226 196.971399 
L 216.22675 197.09316 
L 214.839226 197.220894 
L 216.245739 197.342494 
L 216.245739 197.403492 
L 214.839226 197.575563 
L 214.839226 197.658728 
L 216.245739 197.730492 
L 214.801295 197.874901 
L 214.820263 198.11323 
L 213.394834 198.16331 
L 214.801295 198.213063 
L 214.801295 198.334902 
L 216.22675 198.390154 
L 214.820263 198.468057 
L 217.750444 198.600557 
L 214.78232 198.761735 
L 214.78232 198.922562 
L 216.188754 198.999826 
L 214.78232 199.188564 
L 216.188754 199.238159 
L 216.169748 199.304662 
L 214.76334 199.432403 
L 214.76334 199.637564 
L 213.356933 199.704307 
L 214.76334 199.814898 
L 213.356933 199.881641 
L 216.169748 200.025319 
L 214.76334 200.097565 
L 214.78232 200.175224 
L 216.169748 200.235825 
L 214.78232 200.308225 
L 216.188754 200.374483 
L 214.76334 200.491065 
L 214.76334 200.646233 
L 216.169748 200.695983 
L 214.76334 200.762727 
L 216.169748 200.823481 
L 214.744355 200.951227 
L 214.744355 201.300394 
L 216.150736 201.405481 
L 214.76334 201.472223 
L 216.150736 201.532822 
L 214.744355 201.594065 
L 214.76334 201.660562 
L 214.744355 201.821393 
L 216.150736 201.876486 
L 214.76334 201.921061 
L 214.744355 202.20939 
L 214.858183 202.636042 
L 216.264723 202.702454 
L 214.877135 202.769197 
L 216.302673 202.829788 
L 214.915021 202.929861 
L 214.933956 202.990855 
L 214.933956 203.118354 
L 216.340601 203.162441 
L 214.952885 203.218023 
L 216.359557 203.323107 
L 214.952885 203.37885 
L 217.883451 203.433673 
L 216.359557 203.494939 
L 214.952885 203.556184 
L 216.394294 203.672267 
L 214.968655 203.75018 
L 216.394294 203.916259 
L 214.987574 203.994012 
L 216.394294 204.076928 
L 214.987574 204.143677 
L 216.394294 204.276429 
L 214.987574 204.332173 
L 216.375349 204.387267 
L 216.375349 204.675592 
L 214.968655 204.736681 
L 216.394294 204.802929 
L 214.968655 204.869839 
L 216.375349 205.008093 
L 216.375349 205.26309 
L 214.987574 205.324334 
L 216.394294 205.396087 
L 214.968655 205.468343 
L 217.91824 205.600819 
L 215.006487 205.800838 
L 216.413233 205.978079 
L 216.432167 206.759572 
L 215.006487 206.848494 
L 215.006487 206.970332 
L 216.413233 207.036581 
L 215.025394 207.16983 
L 215.006487 207.26416 
L 217.95617 207.335634 
L 215.006487 207.441494 
L 216.432167 207.601908 
L 216.432167 207.657404 
L 215.006487 207.735165 
L 216.432167 207.823733 
L 216.413233 207.912403 
L 216.413233 208.006572 
L 215.006487 208.173155 
L 216.413233 208.328069 
L 214.987574 208.378162 
L 216.413233 208.438903 
L 215.006487 208.500154 
L 216.413233 208.538574 
L 216.413233 208.715908 
L 215.006487 208.854823 
L 216.394294 209.015241 
L 214.987574 209.093158 
L 216.375349 209.187076 
L 216.375349 209.397739 
L 217.91824 209.469461 
L 216.375349 209.530739 
L 216.394294 209.630408 
L 216.394294 209.719074 
L 214.968655 209.841329 
L 216.394294 209.990735 
L 216.470017 210.217891 
L 216.488934 210.395221 
L 215.100967 210.484141 
L 216.507845 210.561547 
L 216.488934 210.633553 
L 216.488934 210.755548 
L 215.063192 210.849978 
L 216.488934 210.99388 
L 216.451095 211.503722 
L 215.025394 211.575986 
L 216.413233 211.658896 
L 216.394294 211.747566 
L 214.968655 211.819988 
L 216.394294 211.886226 
L 216.375349 211.963734 
L 214.968655 212.019488 
L 216.394294 212.13006 
L 214.968655 212.18566 
L 216.394294 212.218727 
L 216.394294 212.750728 
L 214.987574 212.89515 
L 215.006487 212.989316 
L 217.937208 213.149443 
L 215.025394 213.249811 
L 217.975127 213.299101 
L 216.470017 213.33821 
L 216.507845 213.570875 
L 216.526751 213.626367 
L 215.119846 213.693128 
L 215.119846 213.809464 
L 216.545651 213.958864 
L 216.526751 214.363371 
L 215.13872 214.419125 
L 216.564545 214.468695 
L 216.564545 215.022862 
L 215.17645 215.100784 
L 216.583433 215.161519 
L 216.564545 215.239027 
L 216.564545 215.477358 
L 215.157588 215.549624 
L 218.088748 215.648904 
L 216.583433 215.771024 
L 216.564545 215.887521 
L 218.107665 215.937067 
L 216.564545 215.992695 
L 216.621193 216.685511 
L 215.233002 216.74677 
L 216.640065 216.923838 
L 216.658931 217.295009 
L 218.183277 217.344714 
L 216.640065 217.483508 
L 216.658931 217.915676 
L 218.183277 217.981887 
L 216.658931 218.043174 
L 218.202166 218.092717 
L 216.658931 218.276002 
L 216.621193 218.370179 
L 218.145482 218.414222 
L 216.621193 218.47551 
L 216.621193 219.00751 
L 215.214157 219.090785 
L 216.602316 219.207013 
L 216.602316 219.334354 
L 218.145482 219.395057 
L 216.621193 219.53385 
L 216.602316 219.799854 
L 215.214157 219.844453 
L 216.602316 219.971685 
L 215.214157 220.038451 
L 216.621193 220.154517 
L 216.658931 220.28751 
L 218.221049 220.414707 
L 216.734338 220.470331 
L 216.750036 220.558994 
L 218.293382 220.608691 
L 216.750036 220.658823 
L 216.768869 220.719817 
L 218.274521 220.774866 
L 216.768869 220.89715 
L 216.768869 220.952488 
L 218.274521 221.018698 
L 216.768869 221.146486 
L 216.862949 221.622972 
L 218.387605 221.683675 
L 216.862949 221.805808 
L 218.368772 221.872017 
L 216.844144 222.082973 
L 216.825334 222.143817 
L 218.349933 222.204519 
L 216.787697 222.321157 
L 216.806518 222.509649 
L 218.312238 222.625692 
L 218.331088 222.719858 
L 216.806518 222.781151 
L 218.349933 222.908191 
L 216.825334 222.980647 
L 218.368772 223.041187 
L 218.349933 223.107691 
L 216.825334 223.252149 
L 216.825334 223.318649 
L 218.331088 223.379196 
L 216.750036 223.54033 
L 216.677791 223.817349 
L 215.308327 223.878614 
L 216.768869 224.016831 
L 216.806518 224.166487 
L 218.349933 224.332357 
L 216.862949 224.399147 
L 218.387605 224.43768 
L 216.844144 224.620817 
L 216.862949 224.737149 
L 218.387605 224.792188 
L 216.862949 224.847982 
L 216.881748 225.208147 
L 215.474347 225.263762 
L 216.900542 225.396481 
L 216.900542 225.523978 
L 215.511875 225.590752 
L 218.55685 225.806159 
L 217.050685 225.856448 
L 217.069427 225.911783 
L 217.069427 226.432619 
L 218.594397 226.531989 
L 217.069427 226.582283 
L 218.594397 226.63732 
L 218.613163 226.698313 
L 217.069427 226.825959 
L 218.594397 226.897816 
L 218.613163 227.002986 
L 217.069427 227.058787 
L 217.050685 227.12529 
L 218.575626 227.180326 
L 217.031937 227.341301 
L 218.55685 227.451831 
L 218.538067 227.507172 
L 217.013183 227.568473 
L 217.031937 227.634969 
L 218.538067 227.701169 
L 216.994423 227.828974 
L 218.519279 227.900672 
L 217.031937 228.000639 
L 218.55685 228.111169 
L 217.031937 228.261136 
L 218.55685 228.355001 
L 217.013183 228.410647 
L 217.031937 228.466138 
L 217.013183 228.526982 
L 218.55685 228.593174 
L 217.031937 228.759806 
L 218.575626 228.8315 
L 218.55685 228.909008 
L 218.575626 229.186008 
L 217.031937 229.252817 
L 217.050685 229.302648 
L 218.575626 229.352335 
L 217.050685 229.407979 
L 218.55685 229.490841 
L 217.013183 229.612988 
L 217.031937 230.017486 
L 218.55685 230.078019 
L 217.031937 230.155987 
L 218.55685 230.294182 
L 217.050685 230.355483 
L 218.575626 230.410514 
L 217.050685 230.466159 
L 217.031937 230.815326 
L 218.55685 230.88136 
L 217.050685 230.981493 
L 218.575626 231.025518 
L 217.050685 231.10333 
L 218.594397 231.152854 
L 218.575626 231.213855 
L 217.050685 231.34166 
L 217.050685 231.529998 
L 218.575626 231.651526 
L 217.050685 231.801499 
L 218.594397 231.928526 
L 218.594397 232.061525 
L 217.069427 232.200336 
L 218.594397 232.366197 
L 217.050685 232.510515 
L 217.106895 232.687836 
L 218.594397 232.742871 
L 217.088164 232.815337 
L 217.106895 232.887335 
L 217.088164 232.964844 
L 218.613163 233.031032 
L 217.069427 233.14218 
L 218.575626 233.313546 
L 218.575626 233.385548 
L 217.050685 233.513356 
L 217.050685 233.579856 
L 218.575626 233.634882 
L 217.031937 233.768197 
L 218.55685 233.834384 
L 217.031937 233.956534 
L 217.050685 234.21687 
L 218.575626 234.321887 
L 218.55685 234.377229 
L 217.050685 234.543708 
L 217.031937 234.709883 
L 218.55685 234.770567 
L 217.031937 234.892718 
L 217.050685 235.11438 
L 218.575626 235.180565 
L 217.050685 235.230715 
L 218.594397 235.285734 
L 218.594397 235.357736 
L 217.088164 235.441211 
L 218.613163 235.507396 
L 217.088164 235.56855 
L 218.647551 235.640388 
L 217.088164 235.779054 
L 217.1225 235.906544 
L 218.631923 235.972732 
L 217.106895 236.028385 
L 218.631923 236.083564 
L 217.106895 236.216722 
L 218.647551 236.271898 
L 218.631923 236.332741 
L 218.647551 236.631907 
L 217.1225 236.754061 
L 217.1225 236.820561 
L 218.631923 236.914416 
L 217.106895 237.042229 
L 217.088164 237.164071 
L 218.631923 237.22459 
L 217.106895 237.352404 
L 218.613163 237.401926 
L 217.069427 237.474249 
L 218.613163 237.529265 
L 218.594397 237.584764 
L 218.613163 237.662264 
L 215.680473 237.773708 
L 218.594397 237.889436 
L 217.088164 237.939585 
L 217.069427 238.061427 
L 218.613163 238.194103 
L 218.594397 238.260607 
L 217.088164 238.366095 
L 218.594397 238.487617 
L 218.594397 238.548614 
L 217.088164 238.598765 
L 218.631923 238.720279 
L 218.631923 238.775616 
L 217.088164 238.803766 
L 218.613163 238.880951 
L 218.575626 238.925291 
L 216.956888 239.075137 
L 218.481686 239.130155 
L 216.994423 239.196966 
L 218.55685 239.318476 
L 217.050685 239.446289 
L 218.575626 239.501306 
L 217.050685 239.617962 
L 218.594397 239.744976 
L 217.088164 239.850624 
L 218.613163 239.900138 
L 218.594397 239.949977 
L 217.069427 240.000134 
L 217.088164 240.061127 
L 217.106895 240.116461 
L 220.020854 240.248846 
L 217.088164 240.310304 
L 218.594397 240.370984 
L 216.994423 240.526329 
L 217.013183 240.58182 
L 218.538067 240.686671 
L 216.975658 240.825503 
L 218.500486 240.941515 
L 216.994423 241.013836 
L 218.538067 241.152011 
L 217.031937 241.207667 
L 218.594397 241.362502 
L 217.050685 241.534501 
L 217.050685 241.656339 
L 218.594397 241.772346 
L 217.050685 241.839173 
L 218.55685 241.916357 
L 218.500486 241.977209 
L 216.919329 242.082876 
L 218.425254 242.143395 
L 215.493114 242.210518 
L 216.881748 242.282225 
L 218.387605 242.33174 
L 218.368772 242.398243 
L 218.368772 242.464743 
L 216.862949 242.525903 
L 218.387605 242.581074 
L 216.900542 242.647733 
L 218.425254 242.702903 
L 216.900542 242.852734 
L 216.881748 243.002244 
L 215.493114 243.063537 
L 218.481686 243.273402 
L 216.938111 243.334572 
L 216.956888 243.401068 
L 218.500486 243.456075 
L 218.481686 243.517076 
L 216.956888 243.661406 
L 218.481686 243.716417 
L 216.919329 243.783252 
L 216.956888 243.833079 
L 216.975658 243.893915 
L 218.500486 244.026587 
L 218.538067 244.087419 
L 217.031937 244.170905 
L 217.069427 244.242899 
L 217.088164 244.337064 
L 218.631923 244.408734 
L 217.1225 244.458893 
L 220.055291 244.524763 
L 217.1225 244.569569 
L 217.106895 244.746904 
L 217.069427 244.818914 
L 218.575626 244.868425 
L 218.55685 244.940431 
L 217.069427 245.001591 
L 217.088164 245.106917 
L 218.631923 245.161922 
L 217.106895 245.223091 
L 218.631923 245.289261 
L 217.088164 245.345089 
L 218.613163 245.4056 
L 218.631923 245.505266 
L 217.106895 245.572095 
L 217.106895 245.871107 
L 218.613163 245.931778 
L 217.088164 246.009612 
L 218.613163 246.075782 
L 217.031937 246.231132 
L 216.994423 246.585647 
L 218.500486 246.640658 
L 216.956888 246.69633 
L 218.481686 246.762499 
L 216.956888 246.890169 
L 216.956888 247.02867 
L 218.481686 247.172342 
L 216.956888 247.316677 
L 216.844144 247.754058 
L 218.368772 247.814722 
L 216.806518 247.947905 
L 218.331088 248.019574 
L 218.312238 248.13041 
L 216.787697 248.263585 
L 216.806518 248.346744 
L 218.331088 248.407251 
L 216.806518 248.540583 
L 218.331088 248.590085 
L 216.825334 248.717754 
L 218.368772 248.761749 
L 216.862949 248.961419 
L 218.406433 249.093923 
L 216.919329 249.160748 
L 216.938111 249.227086 
L 216.975658 249.360077 
L 218.519279 249.420578 
L 217.013183 249.509574 
L 219.964462 249.569766 
L 216.956888 249.825262 
L 217.088164 250.024575 
L 218.575626 250.085087 
L 216.975658 250.22394 
L 216.975658 250.345777 
L 218.55685 250.472768 
L 217.031937 250.528442 
L 217.050685 250.583775 
L 217.069427 250.644768 
L 218.631923 250.721927 
L 217.159936 250.783092 
L 218.703782 250.854753 
L 217.197349 250.910423 
L 218.722515 250.959921 
L 218.741242 251.242421 
L 217.216047 251.292594 
L 218.741242 251.308763 
L 218.722515 251.419599 
L 217.197349 251.475274 
L 217.216047 251.580443 
L 217.216047 251.657947 
L 218.741242 251.718606 
L 217.197349 251.835126 
L 218.722515 251.87912 
L 217.216047 251.92929 
L 218.741242 251.99545 
L 218.722515 252.04529 
L 218.722515 252.161624 
L 217.197349 252.316971 
L 217.197349 252.449812 
L 218.722515 252.582314 
L 217.197349 252.654655 
L 220.13036 252.714999 
L 218.722515 252.776153 
L 217.197349 252.842992 
L 218.741242 252.897985 
L 217.197349 252.975833 
L 218.703782 253.041996 
L 217.178646 253.169676 
L 218.741242 253.263338 
L 218.703782 253.313181 
L 218.703782 253.374178 
L 217.197349 253.429852 
L 218.703782 253.551352 
L 218.703782 253.795026 
L 218.722515 254.049699 
L 218.722515 254.099534 
L 217.178646 254.166222 
L 218.722515 254.276708 
L 218.703782 254.326548 
L 218.722515 254.503718 
L 217.178646 254.564904 
L 217.197349 254.625739 
L 218.703782 254.791571 
L 218.759963 255.118237 
L 217.23474 255.184922 
L 218.778678 255.245572 
L 217.253427 255.312257 
L 218.797388 255.45041 
L 218.87217 256.020589 
L 217.346776 256.08193 
L 218.853483 256.142429 
L 217.346776 256.203609 
L 217.346776 256.325446 
L 218.87217 256.374936 
L 217.346776 256.441781 
L 218.87217 256.579779 
L 217.328118 256.640968 
L 218.87217 256.773617 
L 218.853483 256.828958 
L 217.309453 256.939983 
L 218.834791 257.072479 
L 218.834791 257.138978 
L 217.346776 257.211317 
L 218.853483 257.271815 
L 217.328118 257.333001 
L 218.834791 257.399158 
L 217.290784 257.460348 
L 220.205339 257.531687 
L 218.797388 257.581842 
L 218.778678 257.91953 
L 217.23474 257.980721 
L 217.253427 258.052719 
L 217.23474 258.10806 
L 218.778678 258.190872 
L 217.253427 258.252059 
L 220.167861 258.378733 
L 218.759963 258.506393 
L 218.741242 258.600408 
L 217.216047 258.634084 
L 217.23474 258.711584 
L 218.759963 258.838574 
L 218.759963 258.904916 
L 217.23474 259.032604 
L 218.778678 259.087588 
L 218.759963 259.14293 
L 218.759963 259.209429 
L 217.23474 259.359283 
L 218.759963 259.403109 
L 217.216047 259.46446 
L 217.253427 259.6138 
L 218.778678 259.757453 
L 218.834791 259.818279 
L 217.309453 259.934964 
L 218.834791 259.989951 
L 217.328118 260.095469 
L 218.834791 260.200295 
L 218.890852 260.930986 
L 217.346776 261.091852 
L 218.87217 261.157842 
L 217.346776 261.213532 
L 218.834791 261.279687 
L 218.816092 261.335029 
L 218.909528 262.060051 
L 217.384076 262.132406 
L 218.928198 262.30372 
L 218.909528 262.436565 
L 217.402718 262.508759 
L 218.946862 262.574899 
L 217.439984 262.647093 
L 218.946862 262.785244 
L 217.402718 262.907282 
L 218.928198 262.973426 
L 218.946862 263.089599 
L 217.421354 263.150793 
L 220.317637 263.211116 
L 218.853483 263.277799 
L 217.272108 263.344666 
L 218.797388 263.410653 
L 218.778678 263.465994 
L 218.797388 263.726169 
L 220.205339 263.770174 
L 217.23474 263.981054 
L 218.741242 264.119203 
L 217.197349 264.230238 
L 217.23474 264.36307 
L 218.722515 264.423562 
L 217.197349 264.484758 
L 218.741242 264.550896 
L 218.759963 264.722406 
L 217.253427 264.800262 
L 218.797388 264.866242 
L 217.272108 264.938601 
L 218.797388 265.004585 
L 218.778678 265.065586 
L 217.253427 265.126784 
L 218.816092 265.292429 
L 218.816092 265.397601 
L 217.290784 265.514136 
L 217.253427 265.812998 
L 218.816092 265.939969 
L 218.890852 266.078294 
L 217.365429 266.25567 
L 218.890852 266.316307 
L 218.87217 266.393815 
L 218.834791 266.460166 
L 217.309453 266.515863 
L 218.816092 266.687021 
L 218.853483 266.831015 
L 217.328118 266.930888 
L 218.87217 267.0467 
L 217.346776 267.124564 
L 218.890852 267.201702 
L 217.365429 267.262903 
L 218.87217 267.395387 
L 218.87217 267.467388 
L 217.365429 267.534087 
L 218.890852 267.688732 
L 218.890852 267.93775 
L 217.365429 267.987947 
L 218.946862 268.131417 
L 217.439984 268.181609 
L 218.984175 268.225418 
L 217.439984 268.325455 
L 217.439984 268.485964 
L 218.984175 268.662613 
L 219.021464 269.072131 
L 217.477228 269.127836 
L 220.445284 269.259969 
L 217.529951 269.43768 
L 219.055626 269.547991 
L 219.055626 269.619835 
L 217.511348 269.697707 
L 219.021464 269.857855 
L 217.495841 269.935724 
L 219.036995 270.129035 
L 219.021464 270.311557 
L 217.495841 270.372762 
L 219.002822 270.411231 
L 219.036995 271.285455 
L 217.511348 271.357666 
L 219.055626 271.412632 
L 219.021464 271.47348 
L 217.495841 271.545848 
L 219.021464 271.628486 
L 217.495841 271.689693 
L 219.036995 271.744659 
L 219.021464 271.8 
" clip-path="url(#p0c07a98e55)" style="fill: none; stroke: #7f7f7f; stroke-width: 1.5; stroke-linecap: square"/>
   </g>
   <g id="patch_3">
    <path d="M 60.654375 284.4 
L 60.654375 7.2 
" style="fill: none; stroke: #000000; stroke-width: 0.8; stroke-linejoin: miter; stroke-linecap: square"/>
   </g>
   <g id="patch_4">
    <path d="M 60.654375 284.4 
L 228.054375 284.4 
" style="fill: none; stroke: #000000; stroke-width: 0.8; stroke-linejoin: miter; stroke-linecap: square"/>
   </g>
  </g>
 </g>
 <defs>
  <clipPath id="p0c07a98e55">
   <rect x="60.654375" y="7.2" width="167.4" height="277.2"/>
  </clipPath>
 </defs>
</svg>
