<?xml version="1.0" encoding="utf-8" standalone="no"?>
<!DOCTYPE svg PUBLIC "-//W3C//DTD SVG 1.1//EN"
  "http://www.w3.org/Graphics/SVG/1.1/DTD/svg11.dtd">
<svg xmlns:xlink="http://www.w3.org/1999/xlink" width="299.064313pt" height="389.203125pt" viewBox="0 0 299.064313 389.203125" xmlns="http://www.w3.org/2000/svg" version="1.1">
 <metadata>
  <rdf:RDF xmlns:dc="http://purl.org/dc/elements/1.1/" xmlns:cc="http://creativecommons.org/ns#" xmlns:rdf="http://www.w3.org/1999/02/22-rdf-syntax-ns#">
   <cc:Work>
    <dc:type rdf:resource="http://purl.org/dc/dcmitype/StillImage"/>
    <dc:date>2026-05-19T22:31:50.182228</dc:date>
    <dc:format>image/svg+xml</dc:format>
    <dc:creator>
     <cc:Agent>
      <dc:title>Matplotlib v3.10.6, https://matplotlib.org/</dc:title>
     </cc:Agent>
    </dc:creator>
   </cc:Work>
  </rdf:RDF>
 </metadata>
 <defs>
  <style type="text/css">*{stroke-linejoin: round; stroke-linecap: butt}</style>
 </defs>
 <g id="figure_1">
  <g id="patch_1">
   <path d="M 0 389.203125 
L 299.064313 389.203125 
L 299.064313 0 
L 0 0 
z
" style="fill: #ffffff"/>
  </g>
  <g id="axes_1">
   <g id="patch_2">
    <path d="M 60.654375 339.84 
L 283.854375 339.84 
L 283.854375 7.2 
L 60.654375 7.2 
z
" style="fill: #ffffff"/>
   </g>
   <g id="PathCollection_1">
    <defs>
     <path id="ma3fe9f4ba9" d="M 0 3 
C 0.795609 3 1.55874 2.683901 2.12132 2.12132 
C 2.683901 1.55874 3 0.795609 3 0 
C 3 -0.795609 2.683901 -1.55874 2.12132 -2.12132 
C 1.55874 -2.683901 0.795609 -3 0 -3 
C -0.795609 -3 -1.55874 -2.683901 -2.12132 -2.12132 
C -2.683901 -1.55874 -3 -0.795609 -3 0 
C -3 0.795609 -2.683901 1.55874 -2.12132 2.12132 
C -1.55874 2.683901 -0.795609 3 0 3 
z
" style="stroke: #ffffff; stroke-opacity: 0.7; stroke-width: 0.48"/>
    </defs>
    <g clip-path="url(#pe9654df55f)">
     <use xlink:href="#ma3fe9f4ba9" x="128.257079" y="28.893913" style="fill: #7f7f7f; fill-opacity: 0.7; stroke: #ffffff; stroke-opacity: 0.7; stroke-width: 0.48"/>
     <use xlink:href="#ma3fe9f4ba9" x="160.904389" y="32.18087" style="fill: #7f7f7f; fill-opacity: 0.7; stroke: #ffffff; stroke-opacity: 0.7; stroke-width: 0.48"/>
     <use xlink:href="#ma3fe9f4ba9" x="76.367995" y="35.467826" style="fill: #7f7f7f; fill-opacity: 0.7; stroke: #ffffff; stroke-opacity: 0.7; stroke-width: 0.48"/>
     <use xlink:href="#ma3fe9f4ba9" x="125.627981" y="38.754783" style="fill: #7f7f7f; fill-opacity: 0.7; stroke: #ffffff; stroke-opacity: 0.7; stroke-width: 0.48"/>
     <use xlink:href="#ma3fe9f4ba9" x="122.688896" y="42.041739" style="fill: #7f7f7f; fill-opacity: 0.7; stroke: #ffffff; stroke-opacity: 0.7; stroke-width: 0.48"/>
     <use xlink:href="#ma3fe9f4ba9" x="152.100309" y="45.328696" style="fill: #7f7f7f; fill-opacity: 0.7; stroke: #ffffff; stroke-opacity: 0.7; stroke-width: 0.48"/>
     <use xlink:href="#ma3fe9f4ba9" x="173.334486" y="48.615652" style="fill: #7f7f7f; fill-opacity: 0.7; stroke: #ffffff; stroke-opacity: 0.7; stroke-width: 0.48"/>
     <use xlink:href="#ma3fe9f4ba9" x="214.808092" y="55.189565" style="fill: #7f7f7f; fill-opacity: 0.7; stroke: #ffffff; stroke-opacity: 0.7; stroke-width: 0.48"/>
     <use xlink:href="#ma3fe9f4ba9" x="215.083061" y="58.476522" style="fill: #7f7f7f; fill-opacity: 0.7; stroke: #ffffff; stroke-opacity: 0.7; stroke-width: 0.48"/>
     <use xlink:href="#ma3fe9f4ba9" x="220.251539" y="65.050435" style="fill: #7f7f7f; fill-opacity: 0.7; stroke: #ffffff; stroke-opacity: 0.7; stroke-width: 0.48"/>
     <use xlink:href="#ma3fe9f4ba9" x="203.354885" y="68.337391" style="fill: #7f7f7f; fill-opacity: 0.7; stroke: #ffffff; stroke-opacity: 0.7; stroke-width: 0.48"/>
     <use xlink:href="#ma3fe9f4ba9" x="120.13669" y="74.911304" style="fill: #7f7f7f; fill-opacity: 0.7; stroke: #ffffff; stroke-opacity: 0.7; stroke-width: 0.48"/>
     <use xlink:href="#ma3fe9f4ba9" x="86.669879" y="78.198261" style="fill: #7f7f7f; fill-opacity: 0.7; stroke: #ffffff; stroke-opacity: 0.7; stroke-width: 0.48"/>
     <use xlink:href="#ma3fe9f4ba9" x="188.567011" y="84.772174" style="fill: #7f7f7f; fill-opacity: 0.7; stroke: #ffffff; stroke-opacity: 0.7; stroke-width: 0.48"/>
     <use xlink:href="#ma3fe9f4ba9" x="190.562446" y="88.05913" style="fill: #7f7f7f; fill-opacity: 0.7; stroke: #ffffff; stroke-opacity: 0.7; stroke-width: 0.48"/>
     <use xlink:href="#ma3fe9f4ba9" x="200.396993" y="94.633043" style="fill: #7f7f7f; fill-opacity: 0.7; stroke: #ffffff; stroke-opacity: 0.7; stroke-width: 0.48"/>
     <use xlink:href="#ma3fe9f4ba9" x="178.200748" y="97.92" style="fill: #7f7f7f; fill-opacity: 0.7; stroke: #ffffff; stroke-opacity: 0.7; stroke-width: 0.48"/>
     <use xlink:href="#ma3fe9f4ba9" x="196.632383" y="104.493913" style="fill: #7f7f7f; fill-opacity: 0.7; stroke: #ffffff; stroke-opacity: 0.7; stroke-width: 0.48"/>
     <use xlink:href="#ma3fe9f4ba9" x="183.753946" y="107.78087" style="fill: #7f7f7f; fill-opacity: 0.7; stroke: #ffffff; stroke-opacity: 0.7; stroke-width: 0.48"/>
     <use xlink:href="#ma3fe9f4ba9" x="205.033607" y="114.354783" style="fill: #7f7f7f; fill-opacity: 0.7; stroke: #ffffff; stroke-opacity: 0.7; stroke-width: 0.48"/>
     <use xlink:href="#ma3fe9f4ba9" x="199.375781" y="117.641739" style="fill: #7f7f7f; fill-opacity: 0.7; stroke: #ffffff; stroke-opacity: 0.7; stroke-width: 0.48"/>
     <use xlink:href="#ma3fe9f4ba9" x="174.750668" y="124.215652" style="fill: #7f7f7f; fill-opacity: 0.7; stroke: #ffffff; stroke-opacity: 0.7; stroke-width: 0.48"/>
     <use xlink:href="#ma3fe9f4ba9" x="189.370072" y="127.502609" style="fill: #7f7f7f; fill-opacity: 0.7; stroke: #ffffff; stroke-opacity: 0.7; stroke-width: 0.48"/>
     <use xlink:href="#ma3fe9f4ba9" x="212.12902" y="134.076522" style="fill: #7f7f7f; fill-opacity: 0.7; stroke: #ffffff; stroke-opacity: 0.7; stroke-width: 0.48"/>
     <use xlink:href="#ma3fe9f4ba9" x="160.904394" y="176.806957" style="fill: #7f7f7f; fill-opacity: 0.7; stroke: #ffffff; stroke-opacity: 0.7; stroke-width: 0.48"/>
     <use xlink:href="#ma3fe9f4ba9" x="125.627988" y="180.093913" style="fill: #7f7f7f; fill-opacity: 0.7; stroke: #ffffff; stroke-opacity: 0.7; stroke-width: 0.48"/>
     <use xlink:href="#ma3fe9f4ba9" x="165.788882" y="183.38087" style="fill: #7f7f7f; fill-opacity: 0.7; stroke: #ffffff; stroke-opacity: 0.7; stroke-width: 0.48"/>
     <use xlink:href="#ma3fe9f4ba9" x="151.121621" y="186.667826" style="fill: #7f7f7f; fill-opacity: 0.7; stroke: #ffffff; stroke-opacity: 0.7; stroke-width: 0.48"/>
     <use xlink:href="#ma3fe9f4ba9" x="189.417921" y="189.954783" style="fill: #7f7f7f; fill-opacity: 0.7; stroke: #ffffff; stroke-opacity: 0.7; stroke-width: 0.48"/>
     <use xlink:href="#ma3fe9f4ba9" x="198.955304" y="193.241739" style="fill: #7f7f7f; fill-opacity: 0.7; stroke: #ffffff; stroke-opacity: 0.7; stroke-width: 0.48"/>
     <use xlink:href="#ma3fe9f4ba9" x="70.79983" y="196.528696" style="fill: #7f7f7f; fill-opacity: 0.7; stroke: #ffffff; stroke-opacity: 0.7; stroke-width: 0.48"/>
     <use xlink:href="#ma3fe9f4ba9" x="125.627988" y="199.815652" style="fill: #7f7f7f; fill-opacity: 0.7; stroke: #ffffff; stroke-opacity: 0.7; stroke-width: 0.48"/>
     <use xlink:href="#ma3fe9f4ba9" x="174.577968" y="203.102609" style="fill: #7f7f7f; fill-opacity: 0.7; stroke: #ffffff; stroke-opacity: 0.7; stroke-width: 0.48"/>
     <use xlink:href="#ma3fe9f4ba9" x="187.864762" y="206.389565" style="fill: #7f7f7f; fill-opacity: 0.7; stroke: #ffffff; stroke-opacity: 0.7; stroke-width: 0.48"/>
     <use xlink:href="#ma3fe9f4ba9" x="208.578881" y="209.676522" style="fill: #7f7f7f; fill-opacity: 0.7; stroke: #ffffff; stroke-opacity: 0.7; stroke-width: 0.48"/>
     <use xlink:href="#ma3fe9f4ba9" x="192.261211" y="212.963478" style="fill: #7f7f7f; fill-opacity: 0.7; stroke: #ffffff; stroke-opacity: 0.7; stroke-width: 0.48"/>
     <use xlink:href="#ma3fe9f4ba9" x="158.794399" y="216.250435" style="fill: #7f7f7f; fill-opacity: 0.7; stroke: #ffffff; stroke-opacity: 0.7; stroke-width: 0.48"/>
     <use xlink:href="#ma3fe9f4ba9" x="128.257081" y="219.537391" style="fill: #7f7f7f; fill-opacity: 0.7; stroke: #ffffff; stroke-opacity: 0.7; stroke-width: 0.48"/>
     <use xlink:href="#ma3fe9f4ba9" x="169.396669" y="222.824348" style="fill: #7f7f7f; fill-opacity: 0.7; stroke: #ffffff; stroke-opacity: 0.7; stroke-width: 0.48"/>
     <use xlink:href="#ma3fe9f4ba9" x="217.764452" y="226.111304" style="fill: #7f7f7f; fill-opacity: 0.7; stroke: #ffffff; stroke-opacity: 0.7; stroke-width: 0.48"/>
     <use xlink:href="#ma3fe9f4ba9" x="199.997422" y="229.398261" style="fill: #7f7f7f; fill-opacity: 0.7; stroke: #ffffff; stroke-opacity: 0.7; stroke-width: 0.48"/>
     <use xlink:href="#ma3fe9f4ba9" x="224.986227" y="232.685217" style="fill: #7f7f7f; fill-opacity: 0.7; stroke: #ffffff; stroke-opacity: 0.7; stroke-width: 0.48"/>
     <use xlink:href="#ma3fe9f4ba9" x="218.529689" y="235.972174" style="fill: #7f7f7f; fill-opacity: 0.7; stroke: #ffffff; stroke-opacity: 0.7; stroke-width: 0.48"/>
     <use xlink:href="#ma3fe9f4ba9" x="196.890603" y="239.25913" style="fill: #7f7f7f; fill-opacity: 0.7; stroke: #ffffff; stroke-opacity: 0.7; stroke-width: 0.48"/>
     <use xlink:href="#ma3fe9f4ba9" x="222.414517" y="242.546087" style="fill: #7f7f7f; fill-opacity: 0.7; stroke: #ffffff; stroke-opacity: 0.7; stroke-width: 0.48"/>
     <use xlink:href="#ma3fe9f4ba9" x="227.853374" y="245.833043" style="fill: #7f7f7f; fill-opacity: 0.7; stroke: #ffffff; stroke-opacity: 0.7; stroke-width: 0.48"/>
     <use xlink:href="#ma3fe9f4ba9" x="273.70892" y="249.12" style="fill: #7f7f7f; fill-opacity: 0.7; stroke: #ffffff; stroke-opacity: 0.7; stroke-width: 0.48"/>
     <use xlink:href="#ma3fe9f4ba9" x="229.750318" y="252.406957" style="fill: #7f7f7f; fill-opacity: 0.7; stroke: #ffffff; stroke-opacity: 0.7; stroke-width: 0.48"/>
     <use xlink:href="#ma3fe9f4ba9" x="263.049603" y="255.693913" style="fill: #7f7f7f; fill-opacity: 0.7; stroke: #ffffff; stroke-opacity: 0.7; stroke-width: 0.48"/>
     <use xlink:href="#ma3fe9f4ba9" x="212.539269" y="258.98087" style="fill: #7f7f7f; fill-opacity: 0.7; stroke: #ffffff; stroke-opacity: 0.7; stroke-width: 0.48"/>
     <use xlink:href="#ma3fe9f4ba9" x="249.660822" y="262.267826" style="fill: #7f7f7f; fill-opacity: 0.7; stroke: #ffffff; stroke-opacity: 0.7; stroke-width: 0.48"/>
     <use xlink:href="#ma3fe9f4ba9" x="226.320403" y="265.554783" style="fill: #7f7f7f; fill-opacity: 0.7; stroke: #ffffff; stroke-opacity: 0.7; stroke-width: 0.48"/>
     <use xlink:href="#ma3fe9f4ba9" x="210.406724" y="268.841739" style="fill: #7f7f7f; fill-opacity: 0.7; stroke: #ffffff; stroke-opacity: 0.7; stroke-width: 0.48"/>
     <use xlink:href="#ma3fe9f4ba9" x="200.102781" y="272.128696" style="fill: #7f7f7f; fill-opacity: 0.7; stroke: #ffffff; stroke-opacity: 0.7; stroke-width: 0.48"/>
     <use xlink:href="#ma3fe9f4ba9" x="168.417979" y="275.415652" style="fill: #7f7f7f; fill-opacity: 0.7; stroke: #ffffff; stroke-opacity: 0.7; stroke-width: 0.48"/>
     <use xlink:href="#ma3fe9f4ba9" x="223.246138" y="278.702609" style="fill: #7f7f7f; fill-opacity: 0.7; stroke: #ffffff; stroke-opacity: 0.7; stroke-width: 0.48"/>
     <use xlink:href="#ma3fe9f4ba9" x="204.4647" y="281.989565" style="fill: #7f7f7f; fill-opacity: 0.7; stroke: #ffffff; stroke-opacity: 0.7; stroke-width: 0.48"/>
     <use xlink:href="#ma3fe9f4ba9" x="239.896508" y="285.276522" style="fill: #7f7f7f; fill-opacity: 0.7; stroke: #ffffff; stroke-opacity: 0.7; stroke-width: 0.48"/>
     <use xlink:href="#ma3fe9f4ba9" x="199.391816" y="288.563478" style="fill: #7f7f7f; fill-opacity: 0.7; stroke: #ffffff; stroke-opacity: 0.7; stroke-width: 0.48"/>
     <use xlink:href="#ma3fe9f4ba9" x="151.121617" y="291.850435" style="fill: #7f7f7f; fill-opacity: 0.7; stroke: #ffffff; stroke-opacity: 0.7; stroke-width: 0.48"/>
     <use xlink:href="#ma3fe9f4ba9" x="185.714343" y="295.137391" style="fill: #7f7f7f; fill-opacity: 0.7; stroke: #ffffff; stroke-opacity: 0.7; stroke-width: 0.48"/>
     <use xlink:href="#ma3fe9f4ba9" x="165.78888" y="298.424348" style="fill: #7f7f7f; fill-opacity: 0.7; stroke: #ffffff; stroke-opacity: 0.7; stroke-width: 0.48"/>
     <use xlink:href="#ma3fe9f4ba9" x="228.208137" y="301.711304" style="fill: #7f7f7f; fill-opacity: 0.7; stroke: #ffffff; stroke-opacity: 0.7; stroke-width: 0.48"/>
     <use xlink:href="#ma3fe9f4ba9" x="217.677953" y="304.998261" style="fill: #7f7f7f; fill-opacity: 0.7; stroke: #ffffff; stroke-opacity: 0.7; stroke-width: 0.48"/>
     <use xlink:href="#ma3fe9f4ba9" x="231.443422" y="308.285217" style="fill: #7f7f7f; fill-opacity: 0.7; stroke: #ffffff; stroke-opacity: 0.7; stroke-width: 0.48"/>
     <use xlink:href="#ma3fe9f4ba9" x="192.261211" y="311.572174" style="fill: #7f7f7f; fill-opacity: 0.7; stroke: #ffffff; stroke-opacity: 0.7; stroke-width: 0.48"/>
     <use xlink:href="#ma3fe9f4ba9" x="200.381597" y="314.85913" style="fill: #7f7f7f; fill-opacity: 0.7; stroke: #ffffff; stroke-opacity: 0.7; stroke-width: 0.48"/>
     <use xlink:href="#ma3fe9f4ba9" x="151.121612" y="318.146087" style="fill: #7f7f7f; fill-opacity: 0.7; stroke: #ffffff; stroke-opacity: 0.7; stroke-width: 0.48"/>
     <use xlink:href="#ma3fe9f4ba9" x="233.876117" y="321.433043" style="fill: #7f7f7f; fill-opacity: 0.7; stroke: #ffffff; stroke-opacity: 0.7; stroke-width: 0.48"/>
     <use xlink:href="#ma3fe9f4ba9" x="265.429956" y="324.72" style="fill: #7f7f7f; fill-opacity: 0.7; stroke: #ffffff; stroke-opacity: 0.7; stroke-width: 0.48"/>
    </g>
   </g>
   <g id="FillBetweenPolyCollection_1"/>
   <g id="matplotlib.axis_1">
    <g id="xtick_1">
     <g id="line2d_1">
      <path d="M 105.392538 339.84 
L 105.392538 7.2 
" clip-path="url(#pe9654df55f)" style="fill: none; stroke: #b0b0b0; stroke-width: 0.8; stroke-linecap: square"/>
     </g>
     <g id="line2d_2">
      <defs>
       <path id="m90308d8fd2" d="M 0 0 
L 0 3.5 
" style="stroke: #000000; stroke-width: 0.8"/>
      </defs>
      <g>
       <use xlink:href="#m90308d8fd2" x="105.392538" y="339.84" style="stroke: #000000; stroke-width: 0.8"/>
      </g>
     </g>
     <g id="text_1">
      <!-- $\mathdefault{10^{-6}}$ -->
      <g transform="translate(91.292538 355.958125) scale(0.12 -0.12)">
       <defs>
        <path id="DejaVuSans-31" d="M 794 531 
L 1825 531 
L 1825 4091 
L 703 3866 
L 703 4441 
L 1819 4666 
L 2450 4666 
L 2450 531 
L 3481 531 
L 3481 0 
L 794 0 
L 794 531 
z
" transform="scale(0.015625)"/>
        <path id="DejaVuSans-30" d="M 2034 4250 
Q 1547 4250 1301 3770 
Q 1056 3291 1056 2328 
Q 1056 1369 1301 889 
Q 1547 409 2034 409 
Q 2525 409 2770 889 
Q 3016 1369 3016 2328 
Q 3016 3291 2770 3770 
Q 2525 4250 2034 4250 
z
M 2034 4750 
Q 2819 4750 3233 4129 
Q 3647 3509 3647 2328 
Q 3647 1150 3233 529 
Q 2819 -91 2034 -91 
Q 1250 -91 836 529 
Q 422 1150 422 2328 
Q 422 3509 836 4129 
Q 1250 4750 2034 4750 
z
" transform="scale(0.015625)"/>
        <path id="DejaVuSans-2212" d="M 678 2272 
L 4684 2272 
L 4684 1741 
L 678 1741 
L 678 2272 
z
" transform="scale(0.015625)"/>
        <path id="DejaVuSans-36" d="M 2113 2584 
Q 1688 2584 1439 2293 
Q 1191 2003 1191 1497 
Q 1191 994 1439 701 
Q 1688 409 2113 409 
Q 2538 409 2786 701 
Q 3034 994 3034 1497 
Q 3034 2003 2786 2293 
Q 2538 2584 2113 2584 
z
M 3366 4563 
L 3366 3988 
Q 3128 4100 2886 4159 
Q 2644 4219 2406 4219 
Q 1781 4219 1451 3797 
Q 1122 3375 1075 2522 
Q 1259 2794 1537 2939 
Q 1816 3084 2150 3084 
Q 2853 3084 3261 2657 
Q 3669 2231 3669 1497 
Q 3669 778 3244 343 
Q 2819 -91 2113 -91 
Q 1303 -91 875 529 
Q 447 1150 447 2328 
Q 447 3434 972 4092 
Q 1497 4750 2381 4750 
Q 2619 4750 2861 4703 
Q 3103 4656 3366 4563 
z
" transform="scale(0.015625)"/>
       </defs>
       <use xlink:href="#DejaVuSans-31" transform="translate(0 0.765625)"/>
       <use xlink:href="#DejaVuSans-30" transform="translate(63.623047 0.765625)"/>
       <use xlink:href="#DejaVuSans-2212" transform="translate(128.203125 39.046875) scale(0.7)"/>
       <use xlink:href="#DejaVuSans-36" transform="translate(186.855469 39.046875) scale(0.7)"/>
      </g>
     </g>
    </g>
    <g id="xtick_2">
     <g id="line2d_3">
      <path d="M 162.849796 339.84 
L 162.849796 7.2 
" clip-path="url(#pe9654df55f)" style="fill: none; stroke: #b0b0b0; stroke-width: 0.8; stroke-linecap: square"/>
     </g>
     <g id="line2d_4">
      <g>
       <use xlink:href="#m90308d8fd2" x="162.849796" y="339.84" style="stroke: #000000; stroke-width: 0.8"/>
      </g>
     </g>
     <g id="text_2">
      <!-- $\mathdefault{10^{-5}}$ -->
      <g transform="translate(148.749796 355.958125) scale(0.12 -0.12)">
       <defs>
        <path id="DejaVuSans-35" d="M 691 4666 
L 3169 4666 
L 3169 4134 
L 1269 4134 
L 1269 2991 
Q 1406 3038 1543 3061 
Q 1681 3084 1819 3084 
Q 2600 3084 3056 2656 
Q 3513 2228 3513 1497 
Q 3513 744 3044 326 
Q 2575 -91 1722 -91 
Q 1428 -91 1123 -41 
Q 819 9 494 109 
L 494 744 
Q 775 591 1075 516 
Q 1375 441 1709 441 
Q 2250 441 2565 725 
Q 2881 1009 2881 1497 
Q 2881 1984 2565 2268 
Q 2250 2553 1709 2553 
Q 1456 2553 1204 2497 
Q 953 2441 691 2322 
L 691 4666 
z
" transform="scale(0.015625)"/>
       </defs>
       <use xlink:href="#DejaVuSans-31" transform="translate(0 0.684375)"/>
       <use xlink:href="#DejaVuSans-30" transform="translate(63.623047 0.684375)"/>
       <use xlink:href="#DejaVuSans-2212" transform="translate(128.203125 38.965625) scale(0.7)"/>
       <use xlink:href="#DejaVuSans-35" transform="translate(186.855469 38.965625) scale(0.7)"/>
      </g>
     </g>
    </g>
    <g id="xtick_3">
     <g id="line2d_5">
      <path d="M 220.307055 339.84 
L 220.307055 7.2 
" clip-path="url(#pe9654df55f)" style="fill: none; stroke: #b0b0b0; stroke-width: 0.8; stroke-linecap: square"/>
     </g>
     <g id="line2d_6">
      <g>
       <use xlink:href="#m90308d8fd2" x="220.307055" y="339.84" style="stroke: #000000; stroke-width: 0.8"/>
      </g>
     </g>
     <g id="text_3">
      <!-- $\mathdefault{10^{-4}}$ -->
      <g transform="translate(206.207055 355.958125) scale(0.12 -0.12)">
       <defs>
        <path id="DejaVuSans-34" d="M 2419 4116 
L 825 1625 
L 2419 1625 
L 2419 4116 
z
M 2253 4666 
L 3047 4666 
L 3047 1625 
L 3713 1625 
L 3713 1100 
L 3047 1100 
L 3047 0 
L 2419 0 
L 2419 1100 
L 313 1100 
L 313 1709 
L 2253 4666 
z
" transform="scale(0.015625)"/>
       </defs>
       <use xlink:href="#DejaVuSans-31" transform="translate(0 0.684375)"/>
       <use xlink:href="#DejaVuSans-30" transform="translate(63.623047 0.684375)"/>
       <use xlink:href="#DejaVuSans-2212" transform="translate(128.203125 38.965625) scale(0.7)"/>
       <use xlink:href="#DejaVuSans-34" transform="translate(186.855469 38.965625) scale(0.7)"/>
      </g>
     </g>
    </g>
    <g id="xtick_4">
     <g id="line2d_7">
      <path d="M 277.764313 339.84 
L 277.764313 7.2 
" clip-path="url(#pe9654df55f)" style="fill: none; stroke: #b0b0b0; stroke-width: 0.8; stroke-linecap: square"/>
     </g>
     <g id="line2d_8">
      <g>
       <use xlink:href="#m90308d8fd2" x="277.764313" y="339.84" style="stroke: #000000; stroke-width: 0.8"/>
      </g>
     </g>
     <g id="text_4">
      <!-- $\mathdefault{10^{-3}}$ -->
      <g transform="translate(263.664313 355.958125) scale(0.12 -0.12)">
       <defs>
        <path id="DejaVuSans-33" d="M 2597 2516 
Q 3050 2419 3304 2112 
Q 3559 1806 3559 1356 
Q 3559 666 3084 287 
Q 2609 -91 1734 -91 
Q 1441 -91 1130 -33 
Q 819 25 488 141 
L 488 750 
Q 750 597 1062 519 
Q 1375 441 1716 441 
Q 2309 441 2620 675 
Q 2931 909 2931 1356 
Q 2931 1769 2642 2001 
Q 2353 2234 1838 2234 
L 1294 2234 
L 1294 2753 
L 1863 2753 
Q 2328 2753 2575 2939 
Q 2822 3125 2822 3475 
Q 2822 3834 2567 4026 
Q 2313 4219 1838 4219 
Q 1578 4219 1281 4162 
Q 984 4106 628 3988 
L 628 4550 
Q 988 4650 1302 4700 
Q 1616 4750 1894 4750 
Q 2613 4750 3031 4423 
Q 3450 4097 3450 3541 
Q 3450 3153 3228 2886 
Q 3006 2619 2597 2516 
z
" transform="scale(0.015625)"/>
       </defs>
       <use xlink:href="#DejaVuSans-31" transform="translate(0 0.765625)"/>
       <use xlink:href="#DejaVuSans-30" transform="translate(63.623047 0.765625)"/>
       <use xlink:href="#DejaVuSans-2212" transform="translate(128.203125 39.046875) scale(0.7)"/>
       <use xlink:href="#DejaVuSans-33" transform="translate(186.855469 39.046875) scale(0.7)"/>
      </g>
     </g>
    </g>
    <g id="xtick_5">
     <g id="line2d_9">
      <defs>
       <path id="m8c611a7cf4" d="M 0 0 
L 0 2 
" style="stroke: #000000; stroke-width: 0.6"/>
      </defs>
      <g>
       <use xlink:href="#m8c611a7cf4" x="65.231637" y="339.84" style="stroke: #000000; stroke-width: 0.6"/>
      </g>
     </g>
    </g>
    <g id="xtick_6">
     <g id="line2d_10">
      <g>
       <use xlink:href="#m8c611a7cf4" x="75.349358" y="339.84" style="stroke: #000000; stroke-width: 0.6"/>
      </g>
     </g>
    </g>
    <g id="xtick_7">
     <g id="line2d_11">
      <g>
       <use xlink:href="#m8c611a7cf4" x="82.527996" y="339.84" style="stroke: #000000; stroke-width: 0.6"/>
      </g>
     </g>
    </g>
    <g id="xtick_8">
     <g id="line2d_12">
      <g>
       <use xlink:href="#m8c611a7cf4" x="88.096179" y="339.84" style="stroke: #000000; stroke-width: 0.6"/>
      </g>
     </g>
    </g>
    <g id="xtick_9">
     <g id="line2d_13">
      <g>
       <use xlink:href="#m8c611a7cf4" x="92.645717" y="339.84" style="stroke: #000000; stroke-width: 0.6"/>
      </g>
     </g>
    </g>
    <g id="xtick_10">
     <g id="line2d_14">
      <g>
       <use xlink:href="#m8c611a7cf4" x="96.492296" y="339.84" style="stroke: #000000; stroke-width: 0.6"/>
      </g>
     </g>
    </g>
    <g id="xtick_11">
     <g id="line2d_15">
      <g>
       <use xlink:href="#m8c611a7cf4" x="99.824354" y="339.84" style="stroke: #000000; stroke-width: 0.6"/>
      </g>
     </g>
    </g>
    <g id="xtick_12">
     <g id="line2d_16">
      <g>
       <use xlink:href="#m8c611a7cf4" x="102.763438" y="339.84" style="stroke: #000000; stroke-width: 0.6"/>
      </g>
     </g>
    </g>
    <g id="xtick_13">
     <g id="line2d_17">
      <g>
       <use xlink:href="#m8c611a7cf4" x="122.688896" y="339.84" style="stroke: #000000; stroke-width: 0.6"/>
      </g>
     </g>
    </g>
    <g id="xtick_14">
     <g id="line2d_18">
      <g>
       <use xlink:href="#m8c611a7cf4" x="132.806617" y="339.84" style="stroke: #000000; stroke-width: 0.6"/>
      </g>
     </g>
    </g>
    <g id="xtick_15">
     <g id="line2d_19">
      <g>
       <use xlink:href="#m8c611a7cf4" x="139.985254" y="339.84" style="stroke: #000000; stroke-width: 0.6"/>
      </g>
     </g>
    </g>
    <g id="xtick_16">
     <g id="line2d_20">
      <g>
       <use xlink:href="#m8c611a7cf4" x="145.553438" y="339.84" style="stroke: #000000; stroke-width: 0.6"/>
      </g>
     </g>
    </g>
    <g id="xtick_17">
     <g id="line2d_21">
      <g>
       <use xlink:href="#m8c611a7cf4" x="150.102975" y="339.84" style="stroke: #000000; stroke-width: 0.6"/>
      </g>
     </g>
    </g>
    <g id="xtick_18">
     <g id="line2d_22">
      <g>
       <use xlink:href="#m8c611a7cf4" x="153.949554" y="339.84" style="stroke: #000000; stroke-width: 0.6"/>
      </g>
     </g>
    </g>
    <g id="xtick_19">
     <g id="line2d_23">
      <g>
       <use xlink:href="#m8c611a7cf4" x="157.281613" y="339.84" style="stroke: #000000; stroke-width: 0.6"/>
      </g>
     </g>
    </g>
    <g id="xtick_20">
     <g id="line2d_24">
      <g>
       <use xlink:href="#m8c611a7cf4" x="160.220696" y="339.84" style="stroke: #000000; stroke-width: 0.6"/>
      </g>
     </g>
    </g>
    <g id="xtick_21">
     <g id="line2d_25">
      <g>
       <use xlink:href="#m8c611a7cf4" x="180.146155" y="339.84" style="stroke: #000000; stroke-width: 0.6"/>
      </g>
     </g>
    </g>
    <g id="xtick_22">
     <g id="line2d_26">
      <g>
       <use xlink:href="#m8c611a7cf4" x="190.263876" y="339.84" style="stroke: #000000; stroke-width: 0.6"/>
      </g>
     </g>
    </g>
    <g id="xtick_23">
     <g id="line2d_27">
      <g>
       <use xlink:href="#m8c611a7cf4" x="197.442513" y="339.84" style="stroke: #000000; stroke-width: 0.6"/>
      </g>
     </g>
    </g>
    <g id="xtick_24">
     <g id="line2d_28">
      <g>
       <use xlink:href="#m8c611a7cf4" x="203.010697" y="339.84" style="stroke: #000000; stroke-width: 0.6"/>
      </g>
     </g>
    </g>
    <g id="xtick_25">
     <g id="line2d_29">
      <g>
       <use xlink:href="#m8c611a7cf4" x="207.560234" y="339.84" style="stroke: #000000; stroke-width: 0.6"/>
      </g>
     </g>
    </g>
    <g id="xtick_26">
     <g id="line2d_30">
      <g>
       <use xlink:href="#m8c611a7cf4" x="211.406813" y="339.84" style="stroke: #000000; stroke-width: 0.6"/>
      </g>
     </g>
    </g>
    <g id="xtick_27">
     <g id="line2d_31">
      <g>
       <use xlink:href="#m8c611a7cf4" x="214.738871" y="339.84" style="stroke: #000000; stroke-width: 0.6"/>
      </g>
     </g>
    </g>
    <g id="xtick_28">
     <g id="line2d_32">
      <g>
       <use xlink:href="#m8c611a7cf4" x="217.677955" y="339.84" style="stroke: #000000; stroke-width: 0.6"/>
      </g>
     </g>
    </g>
    <g id="xtick_29">
     <g id="line2d_33">
      <g>
       <use xlink:href="#m8c611a7cf4" x="237.603413" y="339.84" style="stroke: #000000; stroke-width: 0.6"/>
      </g>
     </g>
    </g>
    <g id="xtick_30">
     <g id="line2d_34">
      <g>
       <use xlink:href="#m8c611a7cf4" x="247.721134" y="339.84" style="stroke: #000000; stroke-width: 0.6"/>
      </g>
     </g>
    </g>
    <g id="xtick_31">
     <g id="line2d_35">
      <g>
       <use xlink:href="#m8c611a7cf4" x="254.899771" y="339.84" style="stroke: #000000; stroke-width: 0.6"/>
      </g>
     </g>
    </g>
    <g id="xtick_32">
     <g id="line2d_36">
      <g>
       <use xlink:href="#m8c611a7cf4" x="260.467955" y="339.84" style="stroke: #000000; stroke-width: 0.6"/>
      </g>
     </g>
    </g>
    <g id="xtick_33">
     <g id="line2d_37">
      <g>
       <use xlink:href="#m8c611a7cf4" x="265.017492" y="339.84" style="stroke: #000000; stroke-width: 0.6"/>
      </g>
     </g>
    </g>
    <g id="xtick_34">
     <g id="line2d_38">
      <g>
       <use xlink:href="#m8c611a7cf4" x="268.864071" y="339.84" style="stroke: #000000; stroke-width: 0.6"/>
      </g>
     </g>
    </g>
    <g id="xtick_35">
     <g id="line2d_39">
      <g>
       <use xlink:href="#m8c611a7cf4" x="272.19613" y="339.84" style="stroke: #000000; stroke-width: 0.6"/>
      </g>
     </g>
    </g>
    <g id="xtick_36">
     <g id="line2d_40">
      <g>
       <use xlink:href="#m8c611a7cf4" x="275.135213" y="339.84" style="stroke: #000000; stroke-width: 0.6"/>
      </g>
     </g>
    </g>
    <g id="text_5">
     <!-- $S^{2}$ -->
     <g transform="translate(163.994375 379.091563) scale(0.14 -0.14)">
      <defs>
       <path id="DejaVuSans-Oblique-53" d="M 3859 4513 
L 3738 3897 
Q 3422 4066 3111 4152 
Q 2800 4238 2509 4238 
Q 1944 4238 1609 3991 
Q 1275 3744 1275 3334 
Q 1275 3109 1398 2989 
Q 1522 2869 2034 2731 
L 2413 2638 
Q 3053 2472 3303 2217 
Q 3553 1963 3553 1503 
Q 3553 797 2998 353 
Q 2444 -91 1538 -91 
Q 1166 -91 791 -17 
Q 416 56 38 206 
L 166 856 
Q 513 641 861 531 
Q 1209 422 1556 422 
Q 2147 422 2503 684 
Q 2859 947 2859 1369 
Q 2859 1650 2717 1795 
Q 2575 1941 2106 2059 
L 1728 2156 
Q 1081 2325 845 2545 
Q 609 2766 609 3163 
Q 609 3859 1145 4304 
Q 1681 4750 2541 4750 
Q 2875 4750 3203 4690 
Q 3531 4631 3859 4513 
z
" transform="scale(0.015625)"/>
       <path id="DejaVuSans-32" d="M 1228 531 
L 3431 531 
L 3431 0 
L 469 0 
L 469 531 
Q 828 903 1448 1529 
Q 2069 2156 2228 2338 
Q 2531 2678 2651 2914 
Q 2772 3150 2772 3378 
Q 2772 3750 2511 3984 
Q 2250 4219 1831 4219 
Q 1534 4219 1204 4116 
Q 875 4013 500 3803 
L 500 4441 
Q 881 4594 1212 4672 
Q 1544 4750 1819 4750 
Q 2544 4750 2975 4387 
Q 3406 4025 3406 3419 
Q 3406 3131 3298 2873 
Q 3191 2616 2906 2266 
Q 2828 2175 2409 1742 
Q 1991 1309 1228 531 
z
" transform="scale(0.015625)"/>
      </defs>
      <use xlink:href="#DejaVuSans-Oblique-53" transform="translate(0 0.765625)"/>
      <use xlink:href="#DejaVuSans-32" transform="translate(70.677083 39.046875) scale(0.7)"/>
     </g>
    </g>
   </g>
   <g id="matplotlib.axis_2">
    <g id="ytick_1">
     <g id="line2d_41">
      <path d="M 60.654375 19.033043 
L 283.854375 19.033043 
" clip-path="url(#pe9654df55f)" style="fill: none; stroke: #b0b0b0; stroke-width: 0.8; stroke-linecap: square"/>
     </g>
     <g id="line2d_42">
      <defs>
       <path id="m9a6f109619" d="M 0 0 
L -3.5 0 
" style="stroke: #000000; stroke-width: 0.8"/>
      </defs>
      <g>
       <use xlink:href="#m9a6f109619" x="60.654375" y="19.033043" style="stroke: #000000; stroke-width: 0.8"/>
      </g>
     </g>
     <g id="text_6">
      <!-- 40 -->
      <g transform="translate(38.384375 23.592106) scale(0.12 -0.12)">
       <use xlink:href="#DejaVuSans-34"/>
       <use xlink:href="#DejaVuSans-30" transform="translate(63.623047 0)"/>
      </g>
     </g>
    </g>
    <g id="ytick_2">
     <g id="line2d_43">
      <path d="M 60.654375 84.772174 
L 283.854375 84.772174 
" clip-path="url(#pe9654df55f)" style="fill: none; stroke: #b0b0b0; stroke-width: 0.8; stroke-linecap: square"/>
     </g>
     <g id="line2d_44">
      <g>
       <use xlink:href="#m9a6f109619" x="60.654375" y="84.772174" style="stroke: #000000; stroke-width: 0.8"/>
      </g>
     </g>
     <g id="text_7">
      <!-- 60 -->
      <g transform="translate(38.384375 89.331236) scale(0.12 -0.12)">
       <use xlink:href="#DejaVuSans-36"/>
       <use xlink:href="#DejaVuSans-30" transform="translate(63.623047 0)"/>
      </g>
     </g>
    </g>
    <g id="ytick_3">
     <g id="line2d_45">
      <path d="M 60.654375 150.511304 
L 283.854375 150.511304 
" clip-path="url(#pe9654df55f)" style="fill: none; stroke: #b0b0b0; stroke-width: 0.8; stroke-linecap: square"/>
     </g>
     <g id="line2d_46">
      <g>
       <use xlink:href="#m9a6f109619" x="60.654375" y="150.511304" style="stroke: #000000; stroke-width: 0.8"/>
      </g>
     </g>
     <g id="text_8">
      <!-- 80 -->
      <g transform="translate(38.384375 155.070367) scale(0.12 -0.12)">
       <defs>
        <path id="DejaVuSans-38" d="M 2034 2216 
Q 1584 2216 1326 1975 
Q 1069 1734 1069 1313 
Q 1069 891 1326 650 
Q 1584 409 2034 409 
Q 2484 409 2743 651 
Q 3003 894 3003 1313 
Q 3003 1734 2745 1975 
Q 2488 2216 2034 2216 
z
M 1403 2484 
Q 997 2584 770 2862 
Q 544 3141 544 3541 
Q 544 4100 942 4425 
Q 1341 4750 2034 4750 
Q 2731 4750 3128 4425 
Q 3525 4100 3525 3541 
Q 3525 3141 3298 2862 
Q 3072 2584 2669 2484 
Q 3125 2378 3379 2068 
Q 3634 1759 3634 1313 
Q 3634 634 3220 271 
Q 2806 -91 2034 -91 
Q 1263 -91 848 271 
Q 434 634 434 1313 
Q 434 1759 690 2068 
Q 947 2378 1403 2484 
z
M 1172 3481 
Q 1172 3119 1398 2916 
Q 1625 2713 2034 2713 
Q 2441 2713 2670 2916 
Q 2900 3119 2900 3481 
Q 2900 3844 2670 4047 
Q 2441 4250 2034 4250 
Q 1625 4250 1398 4047 
Q 1172 3844 1172 3481 
z
" transform="scale(0.015625)"/>
       </defs>
       <use xlink:href="#DejaVuSans-38"/>
       <use xlink:href="#DejaVuSans-30" transform="translate(63.623047 0)"/>
      </g>
     </g>
    </g>
    <g id="ytick_4">
     <g id="line2d_47">
      <path d="M 60.654375 216.250435 
L 283.854375 216.250435 
" clip-path="url(#pe9654df55f)" style="fill: none; stroke: #b0b0b0; stroke-width: 0.8; stroke-linecap: square"/>
     </g>
     <g id="line2d_48">
      <g>
       <use xlink:href="#m9a6f109619" x="60.654375" y="216.250435" style="stroke: #000000; stroke-width: 0.8"/>
      </g>
     </g>
     <g id="text_9">
      <!-- 100 -->
      <g transform="translate(30.749375 220.809497) scale(0.12 -0.12)">
       <use xlink:href="#DejaVuSans-31"/>
       <use xlink:href="#DejaVuSans-30" transform="translate(63.623047 0)"/>
       <use xlink:href="#DejaVuSans-30" transform="translate(127.246094 0)"/>
      </g>
     </g>
    </g>
    <g id="ytick_5">
     <g id="line2d_49">
      <path d="M 60.654375 281.989565 
L 283.854375 281.989565 
" clip-path="url(#pe9654df55f)" style="fill: none; stroke: #b0b0b0; stroke-width: 0.8; stroke-linecap: square"/>
     </g>
     <g id="line2d_50">
      <g>
       <use xlink:href="#m9a6f109619" x="60.654375" y="281.989565" style="stroke: #000000; stroke-width: 0.8"/>
      </g>
     </g>
     <g id="text_10">
      <!-- 120 -->
      <g transform="translate(30.749375 286.548628) scale(0.12 -0.12)">
       <use xlink:href="#DejaVuSans-31"/>
       <use xlink:href="#DejaVuSans-32" transform="translate(63.623047 0)"/>
       <use xlink:href="#DejaVuSans-30" transform="translate(127.246094 0)"/>
      </g>
     </g>
    </g>
    <g id="text_11">
     <!-- Depth [m] -->
     <g transform="translate(17.837813 209.346875) rotate(-90) scale(0.14 -0.14)">
      <defs>
       <path id="DejaVuSans-44" d="M 1259 4147 
L 1259 519 
L 2022 519 
Q 2988 519 3436 956 
Q 3884 1394 3884 2338 
Q 3884 3275 3436 3711 
Q 2988 4147 2022 4147 
L 1259 4147 
z
M 628 4666 
L 1925 4666 
Q 3281 4666 3915 4102 
Q 4550 3538 4550 2338 
Q 4550 1131 3912 565 
Q 3275 0 1925 0 
L 628 0 
L 628 4666 
z
" transform="scale(0.015625)"/>
       <path id="DejaVuSans-65" d="M 3597 1894 
L 3597 1613 
L 953 1613 
Q 991 1019 1311 708 
Q 1631 397 2203 397 
Q 2534 397 2845 478 
Q 3156 559 3463 722 
L 3463 178 
Q 3153 47 2828 -22 
Q 2503 -91 2169 -91 
Q 1331 -91 842 396 
Q 353 884 353 1716 
Q 353 2575 817 3079 
Q 1281 3584 2069 3584 
Q 2775 3584 3186 3129 
Q 3597 2675 3597 1894 
z
M 3022 2063 
Q 3016 2534 2758 2815 
Q 2500 3097 2075 3097 
Q 1594 3097 1305 2825 
Q 1016 2553 972 2059 
L 3022 2063 
z
" transform="scale(0.015625)"/>
       <path id="DejaVuSans-70" d="M 1159 525 
L 1159 -1331 
L 581 -1331 
L 581 3500 
L 1159 3500 
L 1159 2969 
Q 1341 3281 1617 3432 
Q 1894 3584 2278 3584 
Q 2916 3584 3314 3078 
Q 3713 2572 3713 1747 
Q 3713 922 3314 415 
Q 2916 -91 2278 -91 
Q 1894 -91 1617 61 
Q 1341 213 1159 525 
z
M 3116 1747 
Q 3116 2381 2855 2742 
Q 2594 3103 2138 3103 
Q 1681 3103 1420 2742 
Q 1159 2381 1159 1747 
Q 1159 1113 1420 752 
Q 1681 391 2138 391 
Q 2594 391 2855 752 
Q 3116 1113 3116 1747 
z
" transform="scale(0.015625)"/>
       <path id="DejaVuSans-74" d="M 1172 4494 
L 1172 3500 
L 2356 3500 
L 2356 3053 
L 1172 3053 
L 1172 1153 
Q 1172 725 1289 603 
Q 1406 481 1766 481 
L 2356 481 
L 2356 0 
L 1766 0 
Q 1100 0 847 248 
Q 594 497 594 1153 
L 594 3053 
L 172 3053 
L 172 3500 
L 594 3500 
L 594 4494 
L 1172 4494 
z
" transform="scale(0.015625)"/>
       <path id="DejaVuSans-68" d="M 3513 2113 
L 3513 0 
L 2938 0 
L 2938 2094 
Q 2938 2591 2744 2837 
Q 2550 3084 2163 3084 
Q 1697 3084 1428 2787 
Q 1159 2491 1159 1978 
L 1159 0 
L 581 0 
L 581 4863 
L 1159 4863 
L 1159 2956 
Q 1366 3272 1645 3428 
Q 1925 3584 2291 3584 
Q 2894 3584 3203 3211 
Q 3513 2838 3513 2113 
z
" transform="scale(0.015625)"/>
       <path id="DejaVuSans-20" transform="scale(0.015625)"/>
       <path id="DejaVuSans-5b" d="M 550 4863 
L 1875 4863 
L 1875 4416 
L 1125 4416 
L 1125 -397 
L 1875 -397 
L 1875 -844 
L 550 -844 
L 550 4863 
z
" transform="scale(0.015625)"/>
       <path id="DejaVuSans-6d" d="M 3328 2828 
Q 3544 3216 3844 3400 
Q 4144 3584 4550 3584 
Q 5097 3584 5394 3201 
Q 5691 2819 5691 2113 
L 5691 0 
L 5113 0 
L 5113 2094 
Q 5113 2597 4934 2840 
Q 4756 3084 4391 3084 
Q 3944 3084 3684 2787 
Q 3425 2491 3425 1978 
L 3425 0 
L 2847 0 
L 2847 2094 
Q 2847 2600 2669 2842 
Q 2491 3084 2119 3084 
Q 1678 3084 1418 2786 
Q 1159 2488 1159 1978 
L 1159 0 
L 581 0 
L 581 3500 
L 1159 3500 
L 1159 2956 
Q 1356 3278 1631 3431 
Q 1906 3584 2284 3584 
Q 2666 3584 2933 3390 
Q 3200 3197 3328 2828 
z
" transform="scale(0.015625)"/>
       <path id="DejaVuSans-5d" d="M 1947 4863 
L 1947 -844 
L 622 -844 
L 622 -397 
L 1369 -397 
L 1369 4416 
L 622 4416 
L 622 4863 
L 1947 4863 
z
" transform="scale(0.015625)"/>
      </defs>
      <use xlink:href="#DejaVuSans-44"/>
      <use xlink:href="#DejaVuSans-65" transform="translate(77.001953 0)"/>
      <use xlink:href="#DejaVuSans-70" transform="translate(138.525391 0)"/>
      <use xlink:href="#DejaVuSans-74" transform="translate(202.001953 0)"/>
      <use xlink:href="#DejaVuSans-68" transform="translate(241.210938 0)"/>
      <use xlink:href="#DejaVuSans-20" transform="translate(304.589844 0)"/>
      <use xlink:href="#DejaVuSans-5b" transform="translate(336.376953 0)"/>
      <use xlink:href="#DejaVuSans-6d" transform="translate(375.390625 0)"/>
      <use xlink:href="#DejaVuSans-5d" transform="translate(472.802734 0)"/>
     </g>
    </g>
   </g>
   <g id="line2d_51">
    <path d="M 128.257079 22.32 
L 149.577619 25.606957 
L 140.11488 28.893913 
L 137.204062 32.18087 
L 134.899741 35.467826 
L 140.372133 38.754783 
L 146.803902 42.041739 
L 152.073637 45.328696 
L 186.679694 48.615652 
L 207.078105 55.189565 
L 216.842617 58.476522 
L 213.848056 65.050435 
L 203.38677 68.337391 
L 177.037538 74.911304 
L 163.102662 78.198261 
L 179.667948 84.772174 
L 193.731304 88.05913 
L 191.319458 94.633043 
L 193.448202 97.92 
L 187.428548 104.493913 
L 196.608501 107.78087 
L 197.55777 114.354783 
L 196.065096 117.641739 
L 189.781747 124.215652 
L 196.834439 127.502609 
L 203.258994 134.076522 
L 212.12902 137.363478 
L 212.12902 140.650435 
L 160.904394 170.233043 
L 149.040972 173.52 
L 155.946892 176.806957 
L 154.825203 180.093913 
L 166.553378 183.38087 
L 177.861248 186.667826 
L 177.30824 189.954783 
L 174.655832 193.241739 
L 177.517058 196.528696 
L 177.027071 199.815652 
L 182.124289 203.102609 
L 188.631231 206.389565 
L 189.717277 209.676522 
L 187.309194 212.963478 
L 184.486875 216.250435 
L 189.727903 219.537391 
L 191.658961 222.824348 
L 205.000355 226.111304 
L 212.204902 229.398261 
L 213.946637 232.685217 
L 215.110394 235.972174 
L 220.156887 239.25913 
L 242.695468 242.546087 
L 243.748779 245.833043 
L 252.196048 249.12 
L 251.696604 252.406957 
L 254.242402 255.693913 
L 242.672564 258.98087 
L 241.014887 262.267826 
L 226.330209 265.554783 
L 223.827114 268.841739 
L 212.3855 272.128696 
L 206.692754 275.415652 
L 217.21623 278.702609 
L 217.14552 281.989565 
L 216.788934 285.276522 
L 211.174019 288.563478 
L 207.972695 291.850435 
L 200.158798 295.137391 
L 204.908016 298.424348 
L 215.941492 301.711304 
L 216.383416 304.998261 
L 218.280587 308.285217 
L 209.938542 311.572174 
L 215.491601 314.85913 
L 234.013364 318.146087 
L 238.627051 321.433043 
L 244.420744 324.72 
" clip-path="url(#pe9654df55f)" style="fill: none; stroke: #d62728; stroke-width: 1.5; stroke-linecap: square"/>
   </g>
   <g id="patch_3">
    <path d="M 60.654375 339.84 
L 60.654375 7.2 
" style="fill: none; stroke: #000000; stroke-width: 0.8; stroke-linejoin: miter; stroke-linecap: square"/>
   </g>
   <g id="patch_4">
    <path d="M 60.654375 339.84 
L 283.854375 339.84 
" style="fill: none; stroke: #000000; stroke-width: 0.8; stroke-linejoin: miter; stroke-linecap: square"/>
   </g>
   <g id="legend_1">
    <g id="patch_5">
     <path d="M 222.494375 56.81375 
L 277.454375 56.81375 
Q 279.854375 56.81375 279.854375 54.41375 
L 279.854375 17.6 
Q 279.854375 15.2 277.454375 15.2 
L 222.494375 15.2 
Q 220.094375 15.2 220.094375 17.6 
L 220.094375 54.41375 
Q 220.094375 56.81375 222.494375 56.81375 
z
" style="fill: #4d4d4d; opacity: 0.5; stroke: #4d4d4d; stroke-linejoin: miter"/>
    </g>
    <g id="patch_6">
     <path d="M 220.494375 54.81375 
L 275.454375 54.81375 
Q 277.854375 54.81375 277.854375 52.41375 
L 277.854375 15.6 
Q 277.854375 13.2 275.454375 13.2 
L 220.494375 13.2 
Q 218.094375 13.2 218.094375 15.6 
L 218.094375 52.41375 
Q 218.094375 54.81375 220.494375 54.81375 
z
" style="fill: #ffffff; stroke: #cccccc; stroke-linejoin: miter"/>
    </g>
    <g id="PathCollection_2">
     <g>
      <use xlink:href="#ma3fe9f4ba9" x="234.894375" y="23.968125" style="fill: #7f7f7f; fill-opacity: 0.7; stroke: #ffffff; stroke-opacity: 0.7; stroke-width: 0.48"/>
     </g>
    </g>
    <g id="text_12">
     <!-- $S^{2}$ -->
     <g transform="translate(256.494375 27.118125) scale(0.12 -0.12)">
      <use xlink:href="#DejaVuSans-Oblique-53" transform="translate(0 0.765625)"/>
      <use xlink:href="#DejaVuSans-32" transform="translate(70.677083 39.046875) scale(0.7)"/>
     </g>
    </g>
    <g id="line2d_52">
     <path d="M 222.894375 42.33375 
L 234.894375 42.33375 
L 246.894375 42.33375 
" style="fill: none; stroke: #d62728; stroke-width: 1.5; stroke-linecap: square"/>
    </g>
    <g id="text_13">
     <!-- $S^{2}_{ra}$ -->
     <g transform="translate(256.494375 46.53375) scale(0.12 -0.12)">
      <defs>
       <path id="DejaVuSans-Oblique-72" d="M 2853 2969 
Q 2766 3016 2653 3041 
Q 2541 3066 2413 3066 
Q 1953 3066 1609 2717 
Q 1266 2369 1153 1784 
L 800 0 
L 225 0 
L 909 3500 
L 1484 3500 
L 1375 2956 
Q 1603 3259 1920 3421 
Q 2238 3584 2597 3584 
Q 2691 3584 2781 3573 
Q 2872 3563 2963 3538 
L 2853 2969 
z
" transform="scale(0.015625)"/>
       <path id="DejaVuSans-Oblique-61" d="M 3438 1997 
L 3047 0 
L 2472 0 
L 2578 531 
Q 2325 219 2001 64 
Q 1678 -91 1281 -91 
Q 834 -91 548 182 
Q 263 456 263 884 
Q 263 1497 752 1853 
Q 1241 2209 2100 2209 
L 2900 2209 
L 2931 2363 
Q 2938 2388 2941 2417 
Q 2944 2447 2944 2509 
Q 2944 2788 2717 2942 
Q 2491 3097 2081 3097 
Q 1800 3097 1504 3025 
Q 1209 2953 897 2809 
L 997 3341 
Q 1322 3463 1633 3523 
Q 1944 3584 2234 3584 
Q 2853 3584 3176 3315 
Q 3500 3047 3500 2534 
Q 3500 2431 3484 2292 
Q 3469 2153 3438 1997 
z
M 2816 1759 
L 2241 1759 
Q 1534 1759 1195 1570 
Q 856 1381 856 984 
Q 856 709 1029 553 
Q 1203 397 1509 397 
Q 1978 397 2328 733 
Q 2678 1069 2791 1631 
L 2816 1759 
z
" transform="scale(0.015625)"/>
      </defs>
      <use xlink:href="#DejaVuSans-Oblique-53" transform="translate(0 0.765625)"/>
      <use xlink:href="#DejaVuSans-32" transform="translate(70.677083 39.046875) scale(0.7)"/>
      <use xlink:href="#DejaVuSans-Oblique-72" transform="translate(63.476562 -26.578125) scale(0.7)"/>
      <use xlink:href="#DejaVuSans-Oblique-61" transform="translate(92.255859 -26.578125) scale(0.7)"/>
     </g>
    </g>
   </g>
  </g>
 </g>
 <defs>
  <clipPath id="pe9654df55f">
   <rect x="60.654375" y="7.2" width="223.2" height="332.64"/>
  </clipPath>
 </defs>
</svg>
