<?xml version="1.0" encoding="utf-8" standalone="no"?>
<!DOCTYPE svg PUBLIC "-//W3C//DTD SVG 1.1//EN"
  "http://www.w3.org/Graphics/SVG/1.1/DTD/svg11.dtd">
<svg xmlns:xlink="http://www.w3.org/1999/xlink" width="496.624375pt" height="281.157875pt" viewBox="0 0 496.624375 281.157875" xmlns="http://www.w3.org/2000/svg" version="1.1">
 <metadata>
  <rdf:RDF xmlns:dc="http://purl.org/dc/elements/1.1/" xmlns:cc="http://creativecommons.org/ns#" xmlns:rdf="http://www.w3.org/1999/02/22-rdf-syntax-ns#">
   <cc:Work>
    <dc:type rdf:resource="http://purl.org/dc/dcmitype/StillImage"/>
    <dc:date>2026-03-15T02:44:30.366436</dc:date>
    <dc:format>image/svg+xml</dc:format>
    <dc:creator>
     <cc:Agent>
      <dc:title>Matplotlib v3.10.6, https://matplotlib.org/</dc:title>
     </cc:Agent>
    </dc:creator>
   </cc:Work>
  </rdf:RDF>
 </metadata>
 <defs>
  <style type="text/css">*{stroke-linejoin: round; stroke-linecap: butt}</style>
 </defs>
 <g id="figure_1">
  <g id="patch_1">
   <path d="M 0 281.157875 
L 496.624375 281.157875 
L 496.624375 0 
L 0 0 
z
" style="fill: #ffffff"/>
  </g>
  <g id="axes_1">
   <g id="patch_2">
    <path d="M 60.654375 216.117812 
L 161.485804 216.117812 
L 161.485804 23.837812 
L 60.654375 23.837812 
z
" style="fill: #ffffff"/>
   </g>
   <g id="matplotlib.axis_1">
    <g id="xtick_1">
     <g id="line2d_1">
      <path d="M 64.553555 216.117812 
L 64.553555 23.837812 
" clip-path="url(#pc7731e5582)" style="fill: none; stroke: #b0b0b0; stroke-width: 0.8; stroke-linecap: square"/>
     </g>
     <g id="line2d_2">
      <defs>
       <path id="m610f983eac" d="M 0 0 
L 0 3.5 
" style="stroke: #000000; stroke-width: 0.8"/>
      </defs>
      <g>
       <use xlink:href="#m610f983eac" x="64.553555" y="216.117812" style="stroke: #000000; stroke-width: 0.8"/>
      </g>
     </g>
     <g id="text_1">
      <!-- 0 -->
      <g transform="translate(60.736055 232.235937) scale(0.12 -0.12)">
       <defs>
        <path id="DejaVuSans-30" d="M 2034 4250 
Q 1547 4250 1301 3770 
Q 1056 3291 1056 2328 
Q 1056 1369 1301 889 
Q 1547 409 2034 409 
Q 2525 409 2770 889 
Q 3016 1369 3016 2328 
Q 3016 3291 2770 3770 
Q 2525 4250 2034 4250 
z
M 2034 4750 
Q 2819 4750 3233 4129 
Q 3647 3509 3647 2328 
Q 3647 1150 3233 529 
Q 2819 -91 2034 -91 
Q 1250 -91 836 529 
Q 422 1150 422 2328 
Q 422 3509 836 4129 
Q 1250 4750 2034 4750 
z
" transform="scale(0.015625)"/>
       </defs>
       <use xlink:href="#DejaVuSans-30"/>
      </g>
     </g>
    </g>
    <g id="xtick_2">
     <g id="line2d_3">
      <path d="M 121.559112 216.117812 
L 121.559112 23.837812 
" clip-path="url(#pc7731e5582)" style="fill: none; stroke: #b0b0b0; stroke-width: 0.8; stroke-linecap: square"/>
     </g>
     <g id="line2d_4">
      <g>
       <use xlink:href="#m610f983eac" x="121.559112" y="216.117812" style="stroke: #000000; stroke-width: 0.8"/>
      </g>
     </g>
     <g id="text_2">
      <!-- 5 -->
      <g transform="translate(117.741612 232.235937) scale(0.12 -0.12)">
       <defs>
        <path id="DejaVuSans-35" d="M 691 4666 
L 3169 4666 
L 3169 4134 
L 1269 4134 
L 1269 2991 
Q 1406 3038 1543 3061 
Q 1681 3084 1819 3084 
Q 2600 3084 3056 2656 
Q 3513 2228 3513 1497 
Q 3513 744 3044 326 
Q 2575 -91 1722 -91 
Q 1428 -91 1123 -41 
Q 819 9 494 109 
L 494 744 
Q 775 591 1075 516 
Q 1375 441 1709 441 
Q 2250 441 2565 725 
Q 2881 1009 2881 1497 
Q 2881 1984 2565 2268 
Q 2250 2553 1709 2553 
Q 1456 2553 1204 2497 
Q 953 2441 691 2322 
L 691 4666 
z
" transform="scale(0.015625)"/>
       </defs>
       <use xlink:href="#DejaVuSans-35"/>
      </g>
     </g>
    </g>
    <g id="text_3">
     <!-- Dissolved Oxygen -->
     <g transform="translate(48.111652 255.369375) scale(0.14 -0.14)">
      <defs>
       <path id="DejaVuSans-44" d="M 1259 4147 
L 1259 519 
L 2022 519 
Q 2988 519 3436 956 
Q 3884 1394 3884 2338 
Q 3884 3275 3436 3711 
Q 2988 4147 2022 4147 
L 1259 4147 
z
M 628 4666 
L 1925 4666 
Q 3281 4666 3915 4102 
Q 4550 3538 4550 2338 
Q 4550 1131 3912 565 
Q 3275 0 1925 0 
L 628 0 
L 628 4666 
z
" transform="scale(0.015625)"/>
       <path id="DejaVuSans-69" d="M 603 3500 
L 1178 3500 
L 1178 0 
L 603 0 
L 603 3500 
z
M 603 4863 
L 1178 4863 
L 1178 4134 
L 603 4134 
L 603 4863 
z
" transform="scale(0.015625)"/>
       <path id="DejaVuSans-73" d="M 2834 3397 
L 2834 2853 
Q 2591 2978 2328 3040 
Q 2066 3103 1784 3103 
Q 1356 3103 1142 2972 
Q 928 2841 928 2578 
Q 928 2378 1081 2264 
Q 1234 2150 1697 2047 
L 1894 2003 
Q 2506 1872 2764 1633 
Q 3022 1394 3022 966 
Q 3022 478 2636 193 
Q 2250 -91 1575 -91 
Q 1294 -91 989 -36 
Q 684 19 347 128 
L 347 722 
Q 666 556 975 473 
Q 1284 391 1588 391 
Q 1994 391 2212 530 
Q 2431 669 2431 922 
Q 2431 1156 2273 1281 
Q 2116 1406 1581 1522 
L 1381 1569 
Q 847 1681 609 1914 
Q 372 2147 372 2553 
Q 372 3047 722 3315 
Q 1072 3584 1716 3584 
Q 2034 3584 2315 3537 
Q 2597 3491 2834 3397 
z
" transform="scale(0.015625)"/>
       <path id="DejaVuSans-6f" d="M 1959 3097 
Q 1497 3097 1228 2736 
Q 959 2375 959 1747 
Q 959 1119 1226 758 
Q 1494 397 1959 397 
Q 2419 397 2687 759 
Q 2956 1122 2956 1747 
Q 2956 2369 2687 2733 
Q 2419 3097 1959 3097 
z
M 1959 3584 
Q 2709 3584 3137 3096 
Q 3566 2609 3566 1747 
Q 3566 888 3137 398 
Q 2709 -91 1959 -91 
Q 1206 -91 779 398 
Q 353 888 353 1747 
Q 353 2609 779 3096 
Q 1206 3584 1959 3584 
z
" transform="scale(0.015625)"/>
       <path id="DejaVuSans-6c" d="M 603 4863 
L 1178 4863 
L 1178 0 
L 603 0 
L 603 4863 
z
" transform="scale(0.015625)"/>
       <path id="DejaVuSans-76" d="M 191 3500 
L 800 3500 
L 1894 563 
L 2988 3500 
L 3597 3500 
L 2284 0 
L 1503 0 
L 191 3500 
z
" transform="scale(0.015625)"/>
       <path id="DejaVuSans-65" d="M 3597 1894 
L 3597 1613 
L 953 1613 
Q 991 1019 1311 708 
Q 1631 397 2203 397 
Q 2534 397 2845 478 
Q 3156 559 3463 722 
L 3463 178 
Q 3153 47 2828 -22 
Q 2503 -91 2169 -91 
Q 1331 -91 842 396 
Q 353 884 353 1716 
Q 353 2575 817 3079 
Q 1281 3584 2069 3584 
Q 2775 3584 3186 3129 
Q 3597 2675 3597 1894 
z
M 3022 2063 
Q 3016 2534 2758 2815 
Q 2500 3097 2075 3097 
Q 1594 3097 1305 2825 
Q 1016 2553 972 2059 
L 3022 2063 
z
" transform="scale(0.015625)"/>
       <path id="DejaVuSans-64" d="M 2906 2969 
L 2906 4863 
L 3481 4863 
L 3481 0 
L 2906 0 
L 2906 525 
Q 2725 213 2448 61 
Q 2172 -91 1784 -91 
Q 1150 -91 751 415 
Q 353 922 353 1747 
Q 353 2572 751 3078 
Q 1150 3584 1784 3584 
Q 2172 3584 2448 3432 
Q 2725 3281 2906 2969 
z
M 947 1747 
Q 947 1113 1208 752 
Q 1469 391 1925 391 
Q 2381 391 2643 752 
Q 2906 1113 2906 1747 
Q 2906 2381 2643 2742 
Q 2381 3103 1925 3103 
Q 1469 3103 1208 2742 
Q 947 2381 947 1747 
z
" transform="scale(0.015625)"/>
       <path id="DejaVuSans-20" transform="scale(0.015625)"/>
       <path id="DejaVuSans-4f" d="M 2522 4238 
Q 1834 4238 1429 3725 
Q 1025 3213 1025 2328 
Q 1025 1447 1429 934 
Q 1834 422 2522 422 
Q 3209 422 3611 934 
Q 4013 1447 4013 2328 
Q 4013 3213 3611 3725 
Q 3209 4238 2522 4238 
z
M 2522 4750 
Q 3503 4750 4090 4092 
Q 4678 3434 4678 2328 
Q 4678 1225 4090 567 
Q 3503 -91 2522 -91 
Q 1538 -91 948 565 
Q 359 1222 359 2328 
Q 359 3434 948 4092 
Q 1538 4750 2522 4750 
z
" transform="scale(0.015625)"/>
       <path id="DejaVuSans-78" d="M 3513 3500 
L 2247 1797 
L 3578 0 
L 2900 0 
L 1881 1375 
L 863 0 
L 184 0 
L 1544 1831 
L 300 3500 
L 978 3500 
L 1906 2253 
L 2834 3500 
L 3513 3500 
z
" transform="scale(0.015625)"/>
       <path id="DejaVuSans-79" d="M 2059 -325 
Q 1816 -950 1584 -1140 
Q 1353 -1331 966 -1331 
L 506 -1331 
L 506 -850 
L 844 -850 
Q 1081 -850 1212 -737 
Q 1344 -625 1503 -206 
L 1606 56 
L 191 3500 
L 800 3500 
L 1894 763 
L 2988 3500 
L 3597 3500 
L 2059 -325 
z
" transform="scale(0.015625)"/>
       <path id="DejaVuSans-67" d="M 2906 1791 
Q 2906 2416 2648 2759 
Q 2391 3103 1925 3103 
Q 1463 3103 1205 2759 
Q 947 2416 947 1791 
Q 947 1169 1205 825 
Q 1463 481 1925 481 
Q 2391 481 2648 825 
Q 2906 1169 2906 1791 
z
M 3481 434 
Q 3481 -459 3084 -895 
Q 2688 -1331 1869 -1331 
Q 1566 -1331 1297 -1286 
Q 1028 -1241 775 -1147 
L 775 -588 
Q 1028 -725 1275 -790 
Q 1522 -856 1778 -856 
Q 2344 -856 2625 -561 
Q 2906 -266 2906 331 
L 2906 616 
Q 2728 306 2450 153 
Q 2172 0 1784 0 
Q 1141 0 747 490 
Q 353 981 353 1791 
Q 353 2603 747 3093 
Q 1141 3584 1784 3584 
Q 2172 3584 2450 3431 
Q 2728 3278 2906 2969 
L 2906 3500 
L 3481 3500 
L 3481 434 
z
" transform="scale(0.015625)"/>
       <path id="DejaVuSans-6e" d="M 3513 2113 
L 3513 0 
L 2938 0 
L 2938 2094 
Q 2938 2591 2744 2837 
Q 2550 3084 2163 3084 
Q 1697 3084 1428 2787 
Q 1159 2491 1159 1978 
L 1159 0 
L 581 0 
L 581 3500 
L 1159 3500 
L 1159 2956 
Q 1366 3272 1645 3428 
Q 1925 3584 2291 3584 
Q 2894 3584 3203 3211 
Q 3513 2838 3513 2113 
z
" transform="scale(0.015625)"/>
      </defs>
      <use xlink:href="#DejaVuSans-44"/>
      <use xlink:href="#DejaVuSans-69" transform="translate(77.001953 0)"/>
      <use xlink:href="#DejaVuSans-73" transform="translate(104.785156 0)"/>
      <use xlink:href="#DejaVuSans-73" transform="translate(156.884766 0)"/>
      <use xlink:href="#DejaVuSans-6f" transform="translate(208.984375 0)"/>
      <use xlink:href="#DejaVuSans-6c" transform="translate(270.166016 0)"/>
      <use xlink:href="#DejaVuSans-76" transform="translate(297.949219 0)"/>
      <use xlink:href="#DejaVuSans-65" transform="translate(357.128906 0)"/>
      <use xlink:href="#DejaVuSans-64" transform="translate(418.652344 0)"/>
      <use xlink:href="#DejaVuSans-20" transform="translate(482.128906 0)"/>
      <use xlink:href="#DejaVuSans-4f" transform="translate(513.916016 0)"/>
      <use xlink:href="#DejaVuSans-78" transform="translate(592.626953 0)"/>
      <use xlink:href="#DejaVuSans-79" transform="translate(651.806641 0)"/>
      <use xlink:href="#DejaVuSans-67" transform="translate(710.986328 0)"/>
      <use xlink:href="#DejaVuSans-65" transform="translate(774.462891 0)"/>
      <use xlink:href="#DejaVuSans-6e" transform="translate(835.986328 0)"/>
     </g>
     <!-- [mg/L] -->
     <g transform="translate(88.087121 271.046312) scale(0.14 -0.14)">
      <defs>
       <path id="DejaVuSans-5b" d="M 550 4863 
L 1875 4863 
L 1875 4416 
L 1125 4416 
L 1125 -397 
L 1875 -397 
L 1875 -844 
L 550 -844 
L 550 4863 
z
" transform="scale(0.015625)"/>
       <path id="DejaVuSans-6d" d="M 3328 2828 
Q 3544 3216 3844 3400 
Q 4144 3584 4550 3584 
Q 5097 3584 5394 3201 
Q 5691 2819 5691 2113 
L 5691 0 
L 5113 0 
L 5113 2094 
Q 5113 2597 4934 2840 
Q 4756 3084 4391 3084 
Q 3944 3084 3684 2787 
Q 3425 2491 3425 1978 
L 3425 0 
L 2847 0 
L 2847 2094 
Q 2847 2600 2669 2842 
Q 2491 3084 2119 3084 
Q 1678 3084 1418 2786 
Q 1159 2488 1159 1978 
L 1159 0 
L 581 0 
L 581 3500 
L 1159 3500 
L 1159 2956 
Q 1356 3278 1631 3431 
Q 1906 3584 2284 3584 
Q 2666 3584 2933 3390 
Q 3200 3197 3328 2828 
z
" transform="scale(0.015625)"/>
       <path id="DejaVuSans-2f" d="M 1625 4666 
L 2156 4666 
L 531 -594 
L 0 -594 
L 1625 4666 
z
" transform="scale(0.015625)"/>
       <path id="DejaVuSans-4c" d="M 628 4666 
L 1259 4666 
L 1259 531 
L 3531 531 
L 3531 0 
L 628 0 
L 628 4666 
z
" transform="scale(0.015625)"/>
       <path id="DejaVuSans-5d" d="M 1947 4863 
L 1947 -844 
L 622 -844 
L 622 -397 
L 1369 -397 
L 1369 4416 
L 622 4416 
L 622 4863 
L 1947 4863 
z
" transform="scale(0.015625)"/>
      </defs>
      <use xlink:href="#DejaVuSans-5b"/>
      <use xlink:href="#DejaVuSans-6d" transform="translate(39.013672 0)"/>
      <use xlink:href="#DejaVuSans-67" transform="translate(136.425781 0)"/>
      <use xlink:href="#DejaVuSans-2f" transform="translate(199.902344 0)"/>
      <use xlink:href="#DejaVuSans-4c" transform="translate(233.59375 0)"/>
      <use xlink:href="#DejaVuSans-5d" transform="translate(289.306641 0)"/>
     </g>
    </g>
   </g>
   <g id="matplotlib.axis_2">
    <g id="ytick_1">
     <g id="line2d_5">
      <path d="M 60.654375 26.308819 
L 161.485804 26.308819 
" clip-path="url(#pc7731e5582)" style="fill: none; stroke: #b0b0b0; stroke-width: 0.8; stroke-linecap: square"/>
     </g>
     <g id="line2d_6">
      <defs>
       <path id="m5ef28a7ae8" d="M 0 0 
L -3.5 0 
" style="stroke: #000000; stroke-width: 0.8"/>
      </defs>
      <g>
       <use xlink:href="#m5ef28a7ae8" x="60.654375" y="26.308819" style="stroke: #000000; stroke-width: 0.8"/>
      </g>
     </g>
     <g id="text_4">
      <!-- 0 -->
      <g transform="translate(46.019375 30.867881) scale(0.12 -0.12)">
       <use xlink:href="#DejaVuSans-30"/>
      </g>
     </g>
    </g>
    <g id="ytick_2">
     <g id="line2d_7">
      <path d="M 60.654375 51.104607 
L 161.485804 51.104607 
" clip-path="url(#pc7731e5582)" style="fill: none; stroke: #b0b0b0; stroke-width: 0.8; stroke-linecap: square"/>
     </g>
     <g id="line2d_8">
      <g>
       <use xlink:href="#m5ef28a7ae8" x="60.654375" y="51.104607" style="stroke: #000000; stroke-width: 0.8"/>
      </g>
     </g>
     <g id="text_5">
      <!-- 20 -->
      <g transform="translate(38.384375 55.663669) scale(0.12 -0.12)">
       <defs>
        <path id="DejaVuSans-32" d="M 1228 531 
L 3431 531 
L 3431 0 
L 469 0 
L 469 531 
Q 828 903 1448 1529 
Q 2069 2156 2228 2338 
Q 2531 2678 2651 2914 
Q 2772 3150 2772 3378 
Q 2772 3750 2511 3984 
Q 2250 4219 1831 4219 
Q 1534 4219 1204 4116 
Q 875 4013 500 3803 
L 500 4441 
Q 881 4594 1212 4672 
Q 1544 4750 1819 4750 
Q 2544 4750 2975 4387 
Q 3406 4025 3406 3419 
Q 3406 3131 3298 2873 
Q 3191 2616 2906 2266 
Q 2828 2175 2409 1742 
Q 1991 1309 1228 531 
z
" transform="scale(0.015625)"/>
       </defs>
       <use xlink:href="#DejaVuSans-32"/>
       <use xlink:href="#DejaVuSans-30" transform="translate(63.623047 0)"/>
      </g>
     </g>
    </g>
    <g id="ytick_3">
     <g id="line2d_9">
      <path d="M 60.654375 75.900395 
L 161.485804 75.900395 
" clip-path="url(#pc7731e5582)" style="fill: none; stroke: #b0b0b0; stroke-width: 0.8; stroke-linecap: square"/>
     </g>
     <g id="line2d_10">
      <g>
       <use xlink:href="#m5ef28a7ae8" x="60.654375" y="75.900395" style="stroke: #000000; stroke-width: 0.8"/>
      </g>
     </g>
     <g id="text_6">
      <!-- 40 -->
      <g transform="translate(38.384375 80.459457) scale(0.12 -0.12)">
       <defs>
        <path id="DejaVuSans-34" d="M 2419 4116 
L 825 1625 
L 2419 1625 
L 2419 4116 
z
M 2253 4666 
L 3047 4666 
L 3047 1625 
L 3713 1625 
L 3713 1100 
L 3047 1100 
L 3047 0 
L 2419 0 
L 2419 1100 
L 313 1100 
L 313 1709 
L 2253 4666 
z
" transform="scale(0.015625)"/>
       </defs>
       <use xlink:href="#DejaVuSans-34"/>
       <use xlink:href="#DejaVuSans-30" transform="translate(63.623047 0)"/>
      </g>
     </g>
    </g>
    <g id="ytick_4">
     <g id="line2d_11">
      <path d="M 60.654375 100.696183 
L 161.485804 100.696183 
" clip-path="url(#pc7731e5582)" style="fill: none; stroke: #b0b0b0; stroke-width: 0.8; stroke-linecap: square"/>
     </g>
     <g id="line2d_12">
      <g>
       <use xlink:href="#m5ef28a7ae8" x="60.654375" y="100.696183" style="stroke: #000000; stroke-width: 0.8"/>
      </g>
     </g>
     <g id="text_7">
      <!-- 60 -->
      <g transform="translate(38.384375 105.255246) scale(0.12 -0.12)">
       <defs>
        <path id="DejaVuSans-36" d="M 2113 2584 
Q 1688 2584 1439 2293 
Q 1191 2003 1191 1497 
Q 1191 994 1439 701 
Q 1688 409 2113 409 
Q 2538 409 2786 701 
Q 3034 994 3034 1497 
Q 3034 2003 2786 2293 
Q 2538 2584 2113 2584 
z
M 3366 4563 
L 3366 3988 
Q 3128 4100 2886 4159 
Q 2644 4219 2406 4219 
Q 1781 4219 1451 3797 
Q 1122 3375 1075 2522 
Q 1259 2794 1537 2939 
Q 1816 3084 2150 3084 
Q 2853 3084 3261 2657 
Q 3669 2231 3669 1497 
Q 3669 778 3244 343 
Q 2819 -91 2113 -91 
Q 1303 -91 875 529 
Q 447 1150 447 2328 
Q 447 3434 972 4092 
Q 1497 4750 2381 4750 
Q 2619 4750 2861 4703 
Q 3103 4656 3366 4563 
z
" transform="scale(0.015625)"/>
       </defs>
       <use xlink:href="#DejaVuSans-36"/>
       <use xlink:href="#DejaVuSans-30" transform="translate(63.623047 0)"/>
      </g>
     </g>
    </g>
    <g id="ytick_5">
     <g id="line2d_13">
      <path d="M 60.654375 125.491971 
L 161.485804 125.491971 
" clip-path="url(#pc7731e5582)" style="fill: none; stroke: #b0b0b0; stroke-width: 0.8; stroke-linecap: square"/>
     </g>
     <g id="line2d_14">
      <g>
       <use xlink:href="#m5ef28a7ae8" x="60.654375" y="125.491971" style="stroke: #000000; stroke-width: 0.8"/>
      </g>
     </g>
     <g id="text_8">
      <!-- 80 -->
      <g transform="translate(38.384375 130.051034) scale(0.12 -0.12)">
       <defs>
        <path id="DejaVuSans-38" d="M 2034 2216 
Q 1584 2216 1326 1975 
Q 1069 1734 1069 1313 
Q 1069 891 1326 650 
Q 1584 409 2034 409 
Q 2484 409 2743 651 
Q 3003 894 3003 1313 
Q 3003 1734 2745 1975 
Q 2488 2216 2034 2216 
z
M 1403 2484 
Q 997 2584 770 2862 
Q 544 3141 544 3541 
Q 544 4100 942 4425 
Q 1341 4750 2034 4750 
Q 2731 4750 3128 4425 
Q 3525 4100 3525 3541 
Q 3525 3141 3298 2862 
Q 3072 2584 2669 2484 
Q 3125 2378 3379 2068 
Q 3634 1759 3634 1313 
Q 3634 634 3220 271 
Q 2806 -91 2034 -91 
Q 1263 -91 848 271 
Q 434 634 434 1313 
Q 434 1759 690 2068 
Q 947 2378 1403 2484 
z
M 1172 3481 
Q 1172 3119 1398 2916 
Q 1625 2713 2034 2713 
Q 2441 2713 2670 2916 
Q 2900 3119 2900 3481 
Q 2900 3844 2670 4047 
Q 2441 4250 2034 4250 
Q 1625 4250 1398 4047 
Q 1172 3844 1172 3481 
z
" transform="scale(0.015625)"/>
       </defs>
       <use xlink:href="#DejaVuSans-38"/>
       <use xlink:href="#DejaVuSans-30" transform="translate(63.623047 0)"/>
      </g>
     </g>
    </g>
    <g id="ytick_6">
     <g id="line2d_15">
      <path d="M 60.654375 150.287759 
L 161.485804 150.287759 
" clip-path="url(#pc7731e5582)" style="fill: none; stroke: #b0b0b0; stroke-width: 0.8; stroke-linecap: square"/>
     </g>
     <g id="line2d_16">
      <g>
       <use xlink:href="#m5ef28a7ae8" x="60.654375" y="150.287759" style="stroke: #000000; stroke-width: 0.8"/>
      </g>
     </g>
     <g id="text_9">
      <!-- 100 -->
      <g transform="translate(30.749375 154.846822) scale(0.12 -0.12)">
       <defs>
        <path id="DejaVuSans-31" d="M 794 531 
L 1825 531 
L 1825 4091 
L 703 3866 
L 703 4441 
L 1819 4666 
L 2450 4666 
L 2450 531 
L 3481 531 
L 3481 0 
L 794 0 
L 794 531 
z
" transform="scale(0.015625)"/>
       </defs>
       <use xlink:href="#DejaVuSans-31"/>
       <use xlink:href="#DejaVuSans-30" transform="translate(63.623047 0)"/>
       <use xlink:href="#DejaVuSans-30" transform="translate(127.246094 0)"/>
      </g>
     </g>
    </g>
    <g id="ytick_7">
     <g id="line2d_17">
      <path d="M 60.654375 175.083547 
L 161.485804 175.083547 
" clip-path="url(#pc7731e5582)" style="fill: none; stroke: #b0b0b0; stroke-width: 0.8; stroke-linecap: square"/>
     </g>
     <g id="line2d_18">
      <g>
       <use xlink:href="#m5ef28a7ae8" x="60.654375" y="175.083547" style="stroke: #000000; stroke-width: 0.8"/>
      </g>
     </g>
     <g id="text_10">
      <!-- 120 -->
      <g transform="translate(30.749375 179.64261) scale(0.12 -0.12)">
       <use xlink:href="#DejaVuSans-31"/>
       <use xlink:href="#DejaVuSans-32" transform="translate(63.623047 0)"/>
       <use xlink:href="#DejaVuSans-30" transform="translate(127.246094 0)"/>
      </g>
     </g>
    </g>
    <g id="ytick_8">
     <g id="line2d_19">
      <path d="M 60.654375 199.879335 
L 161.485804 199.879335 
" clip-path="url(#pc7731e5582)" style="fill: none; stroke: #b0b0b0; stroke-width: 0.8; stroke-linecap: square"/>
     </g>
     <g id="line2d_20">
      <g>
       <use xlink:href="#m5ef28a7ae8" x="60.654375" y="199.879335" style="stroke: #000000; stroke-width: 0.8"/>
      </g>
     </g>
     <g id="text_11">
      <!-- 140 -->
      <g transform="translate(30.749375 204.438398) scale(0.12 -0.12)">
       <use xlink:href="#DejaVuSans-31"/>
       <use xlink:href="#DejaVuSans-34" transform="translate(63.623047 0)"/>
       <use xlink:href="#DejaVuSans-30" transform="translate(127.246094 0)"/>
      </g>
     </g>
    </g>
    <g id="text_12">
     <!-- Depth [m] -->
     <g transform="translate(17.837813 155.804687) rotate(-90) scale(0.14 -0.14)">
      <defs>
       <path id="DejaVuSans-70" d="M 1159 525 
L 1159 -1331 
L 581 -1331 
L 581 3500 
L 1159 3500 
L 1159 2969 
Q 1341 3281 1617 3432 
Q 1894 3584 2278 3584 
Q 2916 3584 3314 3078 
Q 3713 2572 3713 1747 
Q 3713 922 3314 415 
Q 2916 -91 2278 -91 
Q 1894 -91 1617 61 
Q 1341 213 1159 525 
z
M 3116 1747 
Q 3116 2381 2855 2742 
Q 2594 3103 2138 3103 
Q 1681 3103 1420 2742 
Q 1159 2381 1159 1747 
Q 1159 1113 1420 752 
Q 1681 391 2138 391 
Q 2594 391 2855 752 
Q 3116 1113 3116 1747 
z
" transform="scale(0.015625)"/>
       <path id="DejaVuSans-74" d="M 1172 4494 
L 1172 3500 
L 2356 3500 
L 2356 3053 
L 1172 3053 
L 1172 1153 
Q 1172 725 1289 603 
Q 1406 481 1766 481 
L 2356 481 
L 2356 0 
L 1766 0 
Q 1100 0 847 248 
Q 594 497 594 1153 
L 594 3053 
L 172 3053 
L 172 3500 
L 594 3500 
L 594 4494 
L 1172 4494 
z
" transform="scale(0.015625)"/>
       <path id="DejaVuSans-68" d="M 3513 2113 
L 3513 0 
L 2938 0 
L 2938 2094 
Q 2938 2591 2744 2837 
Q 2550 3084 2163 3084 
Q 1697 3084 1428 2787 
Q 1159 2491 1159 1978 
L 1159 0 
L 581 0 
L 581 4863 
L 1159 4863 
L 1159 2956 
Q 1366 3272 1645 3428 
Q 1925 3584 2291 3584 
Q 2894 3584 3203 3211 
Q 3513 2838 3513 2113 
z
" transform="scale(0.015625)"/>
      </defs>
      <use xlink:href="#DejaVuSans-44"/>
      <use xlink:href="#DejaVuSans-65" transform="translate(77.001953 0)"/>
      <use xlink:href="#DejaVuSans-70" transform="translate(138.525391 0)"/>
      <use xlink:href="#DejaVuSans-74" transform="translate(202.001953 0)"/>
      <use xlink:href="#DejaVuSans-68" transform="translate(241.210938 0)"/>
      <use xlink:href="#DejaVuSans-20" transform="translate(304.589844 0)"/>
      <use xlink:href="#DejaVuSans-5b" transform="translate(336.376953 0)"/>
      <use xlink:href="#DejaVuSans-6d" transform="translate(375.390625 0)"/>
      <use xlink:href="#DejaVuSans-5d" transform="translate(472.802734 0)"/>
     </g>
    </g>
   </g>
   <g id="line2d_21">
    <path d="M 156.104479 32.577812 
L 156.104479 33.297067 
L 156.21849 33.399187 
L 156.21849 33.50573 
L 156.104479 33.727789 
L 156.104479 34.153973 
L 156.21849 34.256082 
L 156.21849 34.367174 
L 156.332501 34.469305 
L 156.104479 34.686804 
L 156.21849 34.806755 
L 156.21849 34.953237 
L 156.104479 35.126374 
L 156.104479 35.201952 
L 156.21849 35.326201 
L 156.104479 35.481644 
L 156.104479 35.530555 
L 155.990468 35.645945 
L 156.21849 35.805822 
L 156.21849 35.992368 
L 156.21849 35.987831 
L 156.332501 35.956854 
L 156.104479 36.032307 
L 156.21849 36.076682 
L 156.21849 36.125593 
L 156.104479 36.289881 
L 156.104479 36.494133 
L 155.990468 36.685102 
L 156.104479 36.942663 
L 156.104479 37.067026 
L 155.990468 37.10254 
L 156.104479 37.173569 
L 156.104479 37.297948 
L 155.990468 37.515583 
L 155.990468 37.648778 
L 156.104479 37.742066 
L 155.990468 37.915215 
L 155.990468 38.004064 
L 156.104479 38.079516 
L 155.990468 38.226108 
L 155.990468 38.270486 
L 155.876457 38.430347 
L 155.990468 38.594792 
L 155.762446 38.692472 
L 155.876457 38.741273 
L 155.876457 38.856773 
L 155.990468 38.98556 
L 155.990468 39.069986 
L 155.876457 39.252107 
L 155.876457 39.669578 
L 155.762446 39.78067 
L 155.990468 39.967198 
L 155.762446 40.095987 
L 155.762446 40.149322 
L 155.876457 40.247018 
L 155.762446 40.3714 
L 155.762446 41.237522 
L 155.762446 41.224231 
L 155.648435 41.224251 
L 155.876457 41.219808 
L 155.876457 41.330902 
L 155.876457 41.375263 
L 155.762446 41.481953 
L 155.876457 41.664054 
L 155.762446 41.752923 
L 155.762446 41.935045 
L 155.648435 42.028318 
L 155.762446 42.134861 
L 155.762446 42.179349 
L 155.648435 42.25478 
L 155.762446 42.410382 
L 155.762446 42.476966 
L 155.648435 42.605775 
L 155.648435 43.409945 
L 155.534423 43.512065 
L 155.534423 43.59209 
L 155.648435 43.707584 
L 155.534423 43.827547 
L 155.534423 44.076275 
L 155.648435 44.15183 
L 155.420412 44.231832 
L 155.534423 44.276193 
L 155.420412 44.405107 
L 155.420412 44.47616 
L 155.648435 44.693899 
L 155.648435 44.778324 
L 155.420412 44.853802 
L 155.534423 44.880444 
L 155.534423 44.978292 
L 155.648435 45.080387 
L 155.648435 45.147118 
L 155.420412 45.302598 
L 155.534423 45.360356 
L 155.534423 45.79573 
L 155.420412 45.871335 
L 155.534423 46.040161 
L 155.420412 46.15128 
L 155.534423 46.324529 
L 155.534423 47.315547 
L 155.420412 47.408792 
L 155.534423 47.524337 
L 155.420412 47.644248 
L 155.420412 47.973104 
L 155.534423 48.09317 
L 155.420412 48.239778 
L 155.420412 48.368751 
L 155.534423 48.453147 
L 155.420412 48.62197 
L 155.420412 48.862007 
L 155.534423 48.946402 
L 155.420412 49.070795 
L 155.420412 49.501866 
L 155.306401 49.59972 
L 155.420412 49.648631 
L 155.306401 49.719629 
L 155.306401 49.772995 
L 155.420412 49.915306 
L 155.420412 50.733058 
L 155.534423 50.866363 
L 155.420412 50.990852 
L 155.420412 51.03079 
L 155.534423 51.159704 
L 155.534423 51.306438 
L 155.420412 51.461986 
L 155.420412 51.599746 
L 155.534423 51.697568 
L 155.306401 51.74648 
L 155.420412 51.795265 
L 155.420412 51.901968 
L 155.534423 52.066521 
L 155.534423 52.195434 
L 155.420412 52.337583 
L 155.420412 52.386495 
L 155.306401 52.493164 
L 155.420412 52.702079 
L 155.306401 52.79109 
L 155.420412 52.888751 
L 155.306401 52.977762 
L 155.420412 53.071001 
L 155.306401 53.253286 
L 155.306401 53.502264 
L 155.420412 53.586654 
L 155.19239 53.728964 
L 155.306401 53.795569 
L 155.19239 53.840057 
L 155.19239 53.880158 
L 155.306401 54.022342 
L 155.306401 54.173463 
L 155.19239 54.297952 
L 155.306401 54.426904 
L 155.306401 54.51588 
L 155.19239 54.613538 
L 155.306401 54.747002 
L 155.19239 54.831465 
L 155.306401 55.0181 
L 155.306401 55.773926 
L 155.19239 55.876172 
L 155.420412 56.053957 
L 155.420412 56.107459 
L 155.306401 56.262999 
L 155.306401 56.511979 
L 155.420412 56.618649 
L 155.306401 56.765423 
L 155.306401 56.814294 
L 155.19239 56.916582 
L 155.306401 57.063274 
L 155.306401 57.272231 
L 155.420412 57.330074 
L 155.306401 57.370053 
L 155.306401 57.654673 
L 155.420412 57.756921 
L 155.306401 57.956946 
L 155.306401 58.134772 
L 155.19239 58.246033 
L 155.306401 58.30375 
L 155.19239 58.446059 
L 155.306401 58.606233 
L 155.306401 58.930748 
L 155.19239 59.042012 
L 155.420412 59.184322 
L 155.420412 59.339904 
L 155.306401 59.513305 
L 155.306401 59.806774 
L 155.19239 59.975706 
L 155.19239 60.046906 
L 155.306401 60.207037 
L 155.306401 60.2693 
L 155.19239 60.442747 
L 155.19239 60.50046 
L 155.306401 60.611679 
L 155.19239 60.713972 
L 155.306401 60.820721 
L 155.19239 60.949681 
L 155.19239 60.994123 
L 155.306401 61.14975 
L 155.306401 61.318808 
L 155.19239 61.456568 
L 155.306401 61.567788 
L 155.19239 61.638943 
L 155.306401 61.674584 
L 155.306401 61.710145 
L 155.19239 61.7901 
L 155.306401 61.870325 
L 155.19239 61.954655 
L 155.306401 62.008164 
L 155.306401 62.163745 
L 155.19239 62.306008 
L 155.306401 62.421698 
L 155.19239 62.581829 
L 155.19239 62.635116 
L 155.306401 62.764205 
L 155.306401 62.915363 
L 155.19239 63.057624 
L 155.19239 63.18229 
L 155.306401 63.328975 
L 155.306401 63.466862 
L 155.19239 63.618195 
L 155.19239 63.698147 
L 155.420412 63.969548 
L 155.306401 64.094038 
L 155.306401 64.30308 
L 155.19239 64.387582 
L 155.420412 64.58765 
L 155.19239 64.676626 
L 155.306401 64.783422 
L 155.306401 65.232723 
L 155.19239 65.361636 
L 155.19239 65.4106 
L 155.306401 65.548435 
L 155.306401 65.628616 
L 155.19239 65.735413 
L 155.306401 65.837604 
L 155.19239 65.984466 
L 155.19239 66.117856 
L 155.306401 66.278114 
L 155.306401 66.415947 
L 155.19239 66.589348 
L 155.19239 67.043073 
L 155.306401 67.18551 
L 155.306401 67.43904 
L 155.19239 67.545836 
L 155.306401 67.661479 
L 155.19239 67.803789 
L 155.306401 67.919558 
L 155.19239 68.101934 
L 155.306401 68.262064 
L 155.306401 68.435592 
L 155.19239 68.546812 
L 155.19239 68.671302 
L 155.306401 68.760334 
L 155.19239 68.902713 
L 155.19239 69.352016 
L 155.306401 69.458812 
L 155.19239 69.556691 
L 155.306401 69.681309 
L 155.306401 69.74804 
L 155.19239 69.859202 
L 155.19239 69.908114 
L 155.306401 70.028306 
L 155.306401 70.14843 
L 155.19239 70.268623 
L 155.306401 70.402088 
L 155.306401 70.642347 
L 155.19239 70.771387 
L 155.306401 70.829272 
L 155.19239 70.882548 
L 155.19239 70.971582 
L 155.306401 71.131714 
L 155.19239 71.185115 
L 155.306401 71.234086 
L 155.306401 71.576658 
L 155.19239 71.679031 
L 155.306401 71.84807 
L 155.306401 72.034933 
L 155.19239 72.097241 
L 155.306401 72.132943 
L 155.306401 72.359805 
L 155.420412 72.479938 
L 155.19239 72.591219 
L 155.306401 72.649042 
L 155.306401 72.818208 
L 155.19239 72.907183 
L 155.306401 73.049493 
L 155.306401 73.107378 
L 155.19239 73.205265 
L 155.19239 73.280844 
L 155.306401 73.320909 
L 155.19239 73.36982 
L 155.19239 73.41892 
L 155.306401 73.538986 
L 155.306401 74.081941 
L 155.19239 74.228801 
L 155.19239 74.384508 
L 155.306401 74.522457 
L 155.306401 74.58028 
L 155.078379 74.678165 
L 155.306401 74.771563 
L 155.19239 74.816178 
L 155.19239 74.856115 
L 155.306401 74.985282 
L 155.306401 75.087593 
L 155.19239 75.181119 
L 155.306401 75.314583 
L 155.306401 75.354712 
L 155.19239 75.443623 
L 155.306401 75.563749 
L 155.306401 75.772918 
L 155.19239 75.879714 
L 155.306401 76.035547 
L 155.306401 76.080036 
L 155.19239 76.249207 
L 155.19239 76.863248 
L 155.306401 76.965621 
L 155.19239 77.130369 
L 155.19239 77.174857 
L 155.306401 77.321649 
L 155.306401 77.655558 
L 155.19239 77.806843 
L 155.19239 78.091786 
L 155.306401 78.198512 
L 155.078379 78.412173 
L 155.19239 78.585828 
L 155.19239 78.621273 
L 155.078379 78.759285 
L 155.078379 78.848387 
L 155.19239 79.008519 
L 155.19239 79.110962 
L 155.078379 79.298013 
L 155.078379 79.591663 
L 155.19239 79.743017 
L 155.19239 79.800831 
L 155.078379 79.921023 
L 155.19239 80.036865 
L 155.078379 80.148085 
L 155.19239 80.245962 
L 155.078379 80.286099 
L 155.19239 80.352831 
L 155.19239 80.837954 
L 155.078379 80.922634 
L 155.19239 80.971544 
L 155.19239 81.016106 
L 155.078379 81.100584 
L 155.19239 81.225327 
L 155.19239 81.363286 
L 155.306401 81.487956 
L 155.19239 81.65271 
L 155.19239 81.701621 
L 155.078379 81.80392 
L 155.19239 81.93316 
L 155.19239 82.24925 
L 155.306401 82.355972 
L 155.19239 82.538473 
L 155.19239 82.58751 
L 155.078379 82.694308 
L 155.19239 82.841244 
L 155.078379 82.965784 
L 155.078379 83.139514 
L 155.306401 83.406617 
L 155.19239 83.584694 
L 155.19239 84.06989 
L 155.306401 84.176813 
L 155.19239 84.323673 
L 155.19239 84.546238 
L 155.078379 84.670981 
L 155.078379 85.00497 
L 155.306401 85.107264 
L 155.19239 85.254203 
L 155.19239 85.396687 
L 155.306401 85.427778 
L 154.964368 85.521383 
L 155.19239 85.659317 
L 155.19239 86.073356 
L 155.078379 86.158035 
L 155.19239 86.282652 
L 155.19239 86.327138 
L 155.078379 86.394077 
L 155.19239 86.438484 
L 155.19239 86.803614 
L 155.078379 86.919463 
L 155.19239 87.030684 
L 155.078379 87.208887 
L 155.078379 87.329081 
L 155.19239 87.431454 
L 155.078379 87.467093 
L 155.19239 87.529321 
L 155.19239 88.090346 
L 155.078379 88.11714 
L 155.19239 88.161628 
L 155.306401 88.24618 
L 155.078379 88.375429 
L 155.078379 88.428891 
L 155.306401 88.553508 
L 155.078379 88.789596 
L 155.19239 88.940797 
L 155.19239 89.132272 
L 155.078379 89.23043 
L 155.19239 89.346115 
L 155.078379 89.519856 
L 155.306401 89.675688 
L 155.078379 89.755733 
L 155.19239 89.800305 
L 155.19239 89.947206 
L 155.078379 90.134257 
L 155.078379 90.178745 
L 155.19239 90.263423 
L 155.078379 90.294601 
L 155.078379 90.44601 
L 155.19239 90.526179 
L 155.078379 90.561694 
L 155.078379 90.619791 
L 155.19239 90.793359 
L 155.19239 90.935882 
L 155.078379 91.020561 
L 155.19239 91.127357 
L 155.078379 91.207526 
L 155.19239 91.300924 
L 155.078379 91.407847 
L 155.19239 91.577251 
L 155.19239 92.743958 
L 155.306401 92.832973 
L 155.306401 93.184919 
L 155.19239 93.287293 
L 155.420412 93.416456 
L 155.19239 93.527894 
L 155.306401 93.567868 
L 155.306401 94.062199 
L 155.19239 94.173636 
L 155.306401 94.324955 
L 155.306401 94.422995 
L 155.19239 94.525403 
L 155.306401 94.650112 
L 155.19239 94.792584 
L 155.306401 94.961813 
L 155.306401 95.1712 
L 155.19239 95.269184 
L 155.306401 95.349404 
L 155.19239 95.438506 
L 155.306401 95.603221 
L 155.306401 95.656682 
L 155.420412 95.772452 
L 155.306401 95.910686 
L 155.306401 96.057452 
L 155.420412 96.177771 
L 155.420412 96.262448 
L 155.534423 96.351424 
L 155.420412 96.480685 
L 155.534423 96.587607 
L 155.420412 96.694435 
L 155.534423 96.783537 
L 155.420412 96.944016 
L 155.420412 97.175458 
L 155.306401 97.215744 
L 155.420412 97.260136 
L 155.420412 97.589748 
L 155.306401 97.781348 
L 155.306401 97.928334 
L 155.19239 98.084266 
L 155.306401 98.249073 
L 155.19239 98.396059 
L 155.19239 98.569742 
L 155.078379 98.734547 
L 155.19239 98.779132 
L 154.850357 98.886053 
L 155.078379 98.970729 
L 154.964368 99.015118 
L 154.964368 99.255753 
L 154.622335 99.505113 
L 154.622335 99.607709 
L 154.508323 99.74575 
L 154.508323 100.400548 
L 154.394312 100.53424 
L 154.394312 100.694625 
L 154.508323 100.797023 
L 154.280301 100.846159 
L 154.394312 100.895097 
L 154.394312 101.082149 
L 154.280301 101.238109 
L 154.280301 101.393942 
L 154.394312 101.549902 
L 154.394312 101.603463 
L 154.280301 101.701414 
L 154.394312 101.888485 
L 154.280301 102.017651 
L 154.280301 102.17371 
L 154.052279 102.387453 
L 154.16629 102.538965 
L 154.052279 102.686078 
L 154.052279 103.278575 
L 153.938268 103.447806 
L 153.938268 103.804326 
L 153.710246 103.888774 
L 153.710246 104.040309 
L 153.596235 104.058233 
L 153.710246 104.089348 
L 153.710246 104.16958 
L 153.710246 104.142807 
L 153.596235 104.298642 
L 153.596235 104.40114 
L 153.710246 104.463677 
L 153.596235 104.503637 
L 153.596235 104.668547 
L 153.482223 104.775363 
L 153.596235 104.931322 
L 153.596235 104.971619 
L 153.482223 105.122923 
L 153.482223 105.287959 
L 153.254201 105.479329 
L 153.254201 105.711113 
L 153.14019 105.844809 
L 153.14019 105.938355 
L 153.026179 106.045276 
L 153.14019 106.161045 
L 153.026179 106.339249 
L 153.026179 106.508607 
L 152.912168 106.65117 
L 152.798157 106.70463 
L 152.912168 106.758091 
L 152.912168 107.114733 
L 152.798157 107.199303 
L 152.912168 107.292828 
L 152.684146 107.484429 
L 152.684146 107.528917 
L 152.798157 107.640496 
L 152.684146 107.729598 
L 152.798157 107.876587 
L 152.798157 108.384658 
L 152.684146 108.527111 
L 152.684146 108.638457 
L 152.798157 108.799077 
L 152.798157 108.852537 
L 152.684146 109.012813 
L 152.684146 109.052986 
L 152.798157 109.159796 
L 152.684146 109.271268 
L 152.684146 109.315756 
L 152.798157 109.449472 
L 152.798157 109.49851 
L 152.684146 109.676715 
L 152.684146 110.122351 
L 152.570135 110.202606 
L 152.684146 110.327459 
L 152.684146 110.380921 
L 152.570135 110.496704 
L 152.570135 110.559012 
L 152.684146 110.666059 
L 152.570135 110.750739 
L 152.684146 110.884329 
L 152.684146 111.432576 
L 152.570135 111.49932 
L 152.684146 111.539624 
L 152.684146 111.985146 
L 152.570135 112.172312 
L 152.684146 112.310461 
L 152.684146 112.363923 
L 152.798157 112.47096 
L 152.684146 112.64905 
L 152.684146 112.791624 
L 152.570135 112.876534 
L 152.684146 113.01025 
L 152.684146 114.427297 
L 152.570135 114.596653 
L 152.570135 114.65897 
L 152.456123 114.828445 
L 152.456123 114.877474 
L 152.570135 114.930942 
L 152.456123 114.988826 
L 152.456123 115.229584 
L 152.342112 115.341056 
L 152.456123 115.461256 
L 152.456123 115.546055 
L 152.342112 115.688617 
L 152.456123 115.808945 
L 152.342112 115.929381 
L 152.342112 116.022786 
L 152.456123 116.098621 
L 152.342112 116.143228 
L 152.342112 116.553228 
L 152.228101 116.597716 
L 152.342112 116.633483 
L 152.342112 116.798293 
L 152.228101 116.927586 
L 152.228101 116.985597 
L 152.342112 117.119185 
L 152.342112 117.172772 
L 152.228101 117.337701 
L 152.228101 117.382193 
L 152.342112 117.524883 
L 152.342112 117.67654 
L 152.228101 117.769945 
L 152.342112 117.952698 
L 152.228101 118.050775 
L 152.342112 118.215707 
L 152.342112 118.27359 
L 152.228101 118.394035 
L 152.456123 118.523202 
L 152.456123 118.558967 
L 152.342112 118.639099 
L 152.456123 118.732751 
L 152.342112 118.741721 
L 152.342112 119.138322 
L 152.228101 119.245494 
L 152.342112 119.361268 
L 152.228101 119.575111 
L 152.228101 120.2126 
L 151.886068 120.439844 
L 151.886068 120.51125 
L 151.430023 120.671635 
L 150.859968 120.863362 
L 150.175901 121.237718 
L 150.175901 121.358291 
L 149.833868 121.58098 
L 149.833868 121.688029 
L 149.719857 121.82617 
L 149.719857 122.169435 
L 149.263812 122.428022 
L 148.693757 123.025191 
L 148.693757 123.069935 
L 148.465734 123.105575 
L 148.579746 123.181281 
L 148.579746 123.511147 
L 147.895679 123.983703 
L 147.895679 124.032743 
L 147.439634 124.184279 
L 146.413534 124.625618 
L 145.729468 124.85285 
L 145.729468 124.924392 
L 145.159412 125.240862 
L 145.159412 125.374443 
L 144.93139 125.583989 
L 144.93139 125.686618 
L 144.475345 125.958469 
L 144.475345 126.061101 
L 144.247323 126.194682 
L 144.247323 126.239431 
L 144.019301 126.426729 
L 144.019301 126.729791 
L 143.90529 126.814466 
L 144.019301 126.948154 
L 144.019301 126.98821 
L 144.589357 127.32288 
L 144.589357 127.376204 
L 147.211612 128.156172 
L 150.745957 128.597605 
L 150.745957 128.655477 
L 152.228101 128.896353 
L 152.228101 128.936413 
L 153.254201 129.154927 
L 153.254201 129.208388 
L 153.710246 129.395677 
L 153.710246 129.435734 
L 154.622335 129.725659 
L 154.622335 129.774558 
L 155.078379 129.944039 
L 155.078379 129.993216 
L 155.534423 130.135638 
L 155.534423 130.18011 
L 155.876457 130.421012 
L 155.876457 130.550303 
L 155.990468 130.683876 
L 155.990468 130.822282 
L 156.21849 130.906962 
L 156.104479 130.978368 
L 156.21849 131.027546 
L 156.21849 131.121059 
L 156.104479 131.223555 
L 156.21849 131.393036 
L 156.21849 131.504646 
L 156.446512 131.656038 
L 156.332501 131.803292 
L 156.332501 131.98148 
L 156.446512 132.039631 
L 156.332501 132.137562 
L 156.560523 132.266854 
L 156.446512 132.391723 
L 156.560523 132.556654 
L 156.560523 132.851022 
L 156.674535 132.975748 
L 156.674535 133.02036 
L 156.560523 133.189846 
L 156.560523 133.23888 
L 156.674535 133.323704 
L 156.560523 133.461966 
L 156.560523 133.591111 
L 156.788546 133.800657 
L 156.788546 133.894455 
L 156.674535 134.036996 
L 156.674535 134.090457 
L 156.788546 134.22432 
L 156.788546 134.282186 
L 156.902557 134.358019 
L 156.674535 134.456237 
L 156.788546 134.612323 
L 156.788546 134.652238 
L 156.902557 134.741468 
L 156.788546 134.759432 
L 156.788546 134.804046 
L 156.902557 134.870904 
L 156.788546 134.910822 
L 156.788546 135.067053 
L 156.674535 135.178378 
L 156.788546 135.281003 
L 156.674535 135.463905 
L 156.674535 135.548563 
L 156.560523 135.6867 
L 156.560523 136.128015 
L 156.446512 136.221962 
L 156.560523 136.324312 
L 156.332501 136.520589 
L 156.560523 136.70349 
L 156.446512 136.864 
L 156.446512 136.922011 
L 156.332501 137.046729 
L 156.446512 137.216214 
L 156.446512 137.291918 
L 156.332501 137.367749 
L 156.446512 137.408089 
L 156.446512 137.893892 
L 156.332501 138.00109 
L 156.332501 138.058952 
L 156.21849 138.179421 
L 156.21849 138.23728 
L 156.104479 138.402364 
L 156.104479 138.660927 
L 155.648435 138.834836 
L 155.306401 139.080173 
L 155.306401 139.124635 
L 155.420412 139.24951 
L 154.964368 139.432401 
L 154.622335 139.583788 
L 154.622335 139.641955 
L 153.824257 139.856071 
L 152.342112 140.457937 
L 152.342112 140.498046 
L 149.947879 140.734383 
L 143.791279 140.926124 
L 132.162145 141.425576 
L 132.162145 141.479022 
L 126.575601 141.934045 
L 126.575601 141.974115 
L 125.43549 142.139218 
L 125.43549 142.188105 
L 124.181367 142.353031 
L 124.181367 142.406615 
L 122.015156 142.63851 
L 122.015156 142.718923 
L 121.901145 142.807991 
L 122.243178 143.093331 
L 119.164878 143.383253 
L 115.858556 143.56172 
L 115.858556 143.619607 
L 111.754156 143.887182 
L 109.701956 144.154808 
L 106.851678 144.404406 
L 103.089311 144.743398 
L 102.177222 145.037627 
L 100.239034 145.300937 
L 100.239034 145.349818 
L 98.984911 145.568343 
L 98.984911 145.630777 
L 98.300845 145.80026 
L 97.730789 145.943108 
L 97.730789 146.000957 
L 97.274745 146.197395 
L 97.388756 146.246433 
L 97.046722 146.4246 
L 97.046722 146.46479 
L 96.8187 146.611903 
L 96.8187 146.799203 
L 95.906611 147.280643 
L 93.854411 147.650974 
L 93.854411 147.700007 
L 92.7143 148.056623 
L 92.144244 148.297675 
L 91.6882 148.592017 
L 91.6882 148.636628 
L 91.118144 148.997668 
L 91.118144 149.06469 
L 90.890122 149.211928 
L 90.776111 149.354619 
L 90.776111 149.407914 
L 90.6621 149.586533 
L 90.6621 149.671211 
L 90.548089 149.818278 
L 90.548089 149.853914 
L 90.206056 150.045807 
L 90.206056 150.206431 
L 89.750011 150.473813 
L 89.750011 150.523011 
L 87.469789 151.776205 
L 87.469789 151.816395 
L 86.671711 152.467353 
L 86.671711 152.498738 
L 86.443689 152.699266 
L 86.329678 152.855349 
L 86.329678 153.024998 
L 86.101655 153.194311 
L 86.101655 153.328322 
L 85.873633 153.488952 
L 85.873633 153.577884 
L 85.759622 153.756507 
L 85.759622 153.81435 
L 85.645611 153.983832 
L 85.645611 154.03729 
L 85.303578 154.282766 
L 85.303578 154.492268 
L 84.961544 154.773216 
L 84.961544 154.884685 
L 84.847533 155.014101 
L 84.847533 155.058717 
L 84.733522 155.183755 
L 84.733522 155.237044 
L 84.5055 155.420088 
L 84.5055 155.468955 
L 84.277478 155.674199 
L 84.277478 155.772274 
L 84.163467 155.919682 
L 84.163467 155.981941 
L 83.821433 156.182637 
L 83.821433 156.236096 
L 82.225278 156.914166 
L 81.769233 157.096863 
L 81.769233 157.1459 
L 81.085166 157.426958 
L 81.085166 157.467017 
L 80.629122 157.636667 
L 79.717033 158.260941 
L 79.489011 158.488431 
L 79.489011 158.57324 
L 79.375 158.724593 
L 79.375 158.773757 
L 79.260989 158.961234 
L 79.260989 159.00585 
L 79.146978 159.152961 
L 79.146978 159.28237 
L 78.690933 159.518874 
L 78.690933 159.567682 
L 78.576922 159.723943 
L 78.576922 159.781953 
L 78.006866 160.178741 
L 78.006866 160.26359 
L 77.436811 160.50429 
L 77.436811 160.584724 
L 77.208789 160.736385 
L 77.208789 160.789846 
L 76.980766 160.923507 
L 76.980766 160.959274 
L 76.866755 161.061949 
L 76.866755 161.16015 
L 76.752744 161.280595 
L 76.752744 161.400732 
L 76.638733 161.579549 
L 76.638733 161.677569 
L 76.524722 161.815648 
L 76.524722 162.168007 
L 76.410711 162.310877 
L 76.410711 162.417922 
L 76.2967 162.551764 
L 76.2967 162.730219 
L 76.182689 162.872904 
L 76.182689 163.051362 
L 76.068678 163.167074 
L 76.068678 164.228884 
L 75.954666 164.344777 
L 75.954666 164.880139 
L 75.840655 165.027063 
L 75.840655 165.120902 
L 75.726644 165.263709 
L 75.726644 165.312746 
L 75.384611 165.598241 
L 75.384611 165.642852 
L 74.814555 166.129051 
L 74.814555 166.173349 
L 74.700544 166.365195 
L 74.700544 166.427814 
L 74.586533 166.552481 
L 74.586533 166.592669 
L 74.130489 166.762143 
L 73.674444 167.061045 
L 73.674444 167.16386 
L 73.446422 167.368976 
L 73.446422 167.404617 
L 73.2184 167.596275 
L 73.2184 167.801591 
L 72.534333 168.457379 
L 72.534333 168.524237 
L 72.420322 168.716089 
L 72.420322 168.818586 
L 72.306311 168.965827 
L 72.306311 169.081845 
L 72.420322 169.224533 
L 72.420322 169.398438 
L 72.306311 169.514651 
L 72.306311 169.839958 
L 72.1923 169.964823 
L 72.1923 170.607298 
L 72.078289 170.776777 
L 72.078289 171.160357 
L 71.964277 171.338809 
L 71.964277 171.410214 
L 72.078289 171.477071 
L 71.964277 171.570719 
L 72.078289 171.682314 
L 72.078289 171.825 
L 71.964277 171.976658 
L 71.964277 172.012109 
L 71.850266 172.141716 
L 71.850266 172.21755 
L 71.964277 172.382407 
L 71.964277 172.565479 
L 71.736255 172.788552 
L 71.736255 173.484296 
L 71.622244 173.635763 
L 71.622244 173.890241 
L 71.736255 174.077474 
L 71.736255 174.278373 
L 71.850266 174.420863 
L 71.850266 175.023081 
L 71.394222 175.295359 
L 71.394222 175.500281 
L 69.912077 176.401597 
L 69.912077 176.463832 
L 70.026089 176.624322 
L 69.798066 176.75816 
L 69.798066 176.79835 
L 69.684055 176.927641 
L 69.684055 177.057258 
L 68.657955 177.757332 
L 68.657955 177.819969 
L 68.315922 178.069828 
L 68.315922 178.109892 
L 68.201911 178.252497 
L 68.0879 178.408778 
L 68.0879 178.462235 
L 67.973888 178.636256 
L 67.973888 178.68951 
L 67.745866 178.899176 
L 67.745866 178.930597 
L 67.517844 179.091021 
L 67.517844 179.189292 
L 67.403833 179.367534 
L 67.403833 179.550611 
L 67.289822 179.688665 
L 67.289822 179.751304 
L 67.403833 179.858146 
L 67.289822 180.009804 
L 67.289822 180.219682 
L 67.175811 180.366919 
L 67.175811 180.44275 
L 67.289822 180.576589 
L 67.289822 180.893176 
L 67.0618 181.02681 
L 67.0618 181.071424 
L 66.833777 181.276876 
L 66.833777 181.321282 
L 66.719766 181.45512 
L 66.719766 181.656029 
L 66.605755 181.847754 
L 66.605755 182.182082 
L 66.491744 182.29852 
L 66.491744 182.628422 
L 66.263722 182.829117 
L 66.263722 182.882366 
L 66.0357 183.065577 
L 66.0357 183.185682 
L 65.807677 183.413379 
L 65.807677 183.520418 
L 65.579655 183.671871 
L 65.579655 183.868143 
L 65.465644 183.975401 
L 65.465644 184.3053 
L 65.351633 184.425741 
L 65.351633 186.419744 
L 65.237622 186.468778 
L 65.351633 186.50433 
L 65.351633 186.584793 
L 65.237622 186.669382 
L 65.351633 186.812282 
L 65.237622 187.003915 
L 65.351633 187.164423 
L 65.351633 187.503598 
L 65.237622 187.552549 
L 65.351633 187.606009 
L 65.351633 187.833714 
L 65.237622 187.940761 
L 65.351633 188.078809 
L 65.351633 188.471358 
L 65.237622 188.618595 
L 65.351633 188.770124 
L 65.351633 188.810314 
L 65.237622 188.94415 
L 65.351633 189.069235 
L 65.351633 189.261081 
L 65.237622 189.385948 
L 65.351633 189.550782 
L 65.351633 189.738077 
L 65.237622 189.822881 
L 65.351633 189.979182 
L 65.351633 191.062818 
L 65.237622 191.147719 
L 65.351633 191.25034 
L 65.237622 191.308353 
L 65.351633 191.357388 
L 65.351633 191.562414 
L 65.237622 191.647091 
L 65.351633 191.767754 
L 65.351633 191.923617 
L 65.237622 192.053034 
L 65.351633 192.191295 
L 65.351633 193.163559 
L 65.237622 193.248586 
L 65.351633 193.404674 
L 65.351633 194.176125 
L 65.237622 194.225162 
L 65.351633 194.274424 
L 65.351633 194.488513 
L 65.237622 194.591137 
L 65.351633 194.716001 
L 65.351633 194.755839 
L 65.237622 194.827472 
L 65.351633 194.98333 
L 65.351633 195.166205 
L 65.237622 195.220018 
L 65.351633 195.260082 
L 65.351633 195.589971 
L 65.237622 195.710415 
L 65.237622 195.773076 
L 65.351633 195.919956 
L 65.351633 196.812327 
L 65.237622 196.865556 
L 65.351633 196.92799 
L 65.351633 197.271499 
L 65.237622 197.293742 
L 65.351633 197.369802 
L 65.237622 197.414413 
L 65.351633 197.614881 
L 65.351633 198.109924 
L 65.237622 198.216971 
L 65.351633 198.390876 
L 65.351633 199.144856 
L 65.237622 199.242827 
L 65.351633 199.38132 
L 65.351633 199.434546 
L 65.237622 199.595177 
L 65.237622 199.639787 
L 65.351633 199.800528 
L 65.351633 199.844905 
L 65.237622 199.969773 
L 65.237622 200.014386 
L 65.351633 200.170698 
L 65.351633 200.219735 
L 65.237622 200.339948 
L 65.351633 200.46039 
L 65.351633 200.594227 
L 65.237622 200.687881 
L 65.351633 200.830803 
L 65.351633 201.383616 
L 65.237622 201.553328 
L 65.351633 201.637771 
L 65.237622 201.669223 
L 65.237622 201.740391 
L 65.351633 201.883082 
L 65.351633 202.382772 
L 65.237622 202.427386 
L 65.351633 202.471999 
L 65.351633 202.9936 
L 65.237622 203.025051 
L 65.351633 203.096221 
L 65.351633 203.662544 
L 65.237622 203.734189 
L 65.351633 203.774015 
L 65.351633 204.978189 
L 65.237622 205.045043 
L 65.351633 205.089656 
L 65.351633 205.611496 
L 65.237622 205.633739 
L 65.351633 205.718543 
L 65.351633 206.097568 
L 65.237622 206.209277 
L 65.351633 206.356264 
L 65.351633 206.525742 
L 65.237622 206.664006 
L 65.351633 206.84676 
L 65.351633 207.007391 
L 65.237622 207.034061 
L 65.351633 207.114441 
L 65.351633 207.377812 
L 65.351633 207.377812 
" clip-path="url(#pc7731e5582)" style="fill: none; stroke: #006400; stroke-width: 1.5; stroke-linecap: square"/>
   </g>
   <g id="patch_3">
    <path d="M 60.654375 216.117812 
L 60.654375 23.837812 
" style="fill: none; stroke: #000000; stroke-width: 0.8; stroke-linejoin: miter; stroke-linecap: square"/>
   </g>
   <g id="patch_4">
    <path d="M 60.654375 216.117812 
L 161.485804 216.117812 
" style="fill: none; stroke: #000000; stroke-width: 0.8; stroke-linejoin: miter; stroke-linecap: square"/>
   </g>
  </g>
  <g id="axes_2">
   <g id="patch_5">
    <path d="M 237.345804 216.117812 
L 489.424375 216.117812 
L 489.424375 23.837812 
L 237.345804 23.837812 
z
" style="fill: #ffffff"/>
   </g>
   <g id="matplotlib.axis_3">
    <g id="xtick_3">
     <g id="line2d_22">
      <path d="M 265.172659 216.117812 
L 265.172659 23.837812 
" clip-path="url(#pdfeda3493f)" style="fill: none; stroke: #b0b0b0; stroke-width: 0.8; stroke-linecap: square"/>
     </g>
     <g id="line2d_23">
      <g>
       <use xlink:href="#m610f983eac" x="265.172659" y="216.117812" style="stroke: #000000; stroke-width: 0.8"/>
      </g>
     </g>
     <g id="text_13">
      <!-- 2025-11-15 -->
      <g transform="translate(230.303284 232.235937) scale(0.12 -0.12)">
       <defs>
        <path id="DejaVuSans-2d" d="M 313 2009 
L 1997 2009 
L 1997 1497 
L 313 1497 
L 313 2009 
z
" transform="scale(0.015625)"/>
       </defs>
       <use xlink:href="#DejaVuSans-32"/>
       <use xlink:href="#DejaVuSans-30" transform="translate(63.623047 0)"/>
       <use xlink:href="#DejaVuSans-32" transform="translate(127.246094 0)"/>
       <use xlink:href="#DejaVuSans-35" transform="translate(190.869141 0)"/>
       <use xlink:href="#DejaVuSans-2d" transform="translate(254.492188 0)"/>
       <use xlink:href="#DejaVuSans-31" transform="translate(290.576172 0)"/>
       <use xlink:href="#DejaVuSans-31" transform="translate(354.199219 0)"/>
       <use xlink:href="#DejaVuSans-2d" transform="translate(417.822266 0)"/>
       <use xlink:href="#DejaVuSans-31" transform="translate(453.90625 0)"/>
       <use xlink:href="#DejaVuSans-35" transform="translate(517.529297 0)"/>
      </g>
     </g>
    </g>
    <g id="xtick_4">
     <g id="line2d_24">
      <path d="M 361.338997 216.117812 
L 361.338997 23.837812 
" clip-path="url(#pdfeda3493f)" style="fill: none; stroke: #b0b0b0; stroke-width: 0.8; stroke-linecap: square"/>
     </g>
     <g id="line2d_25">
      <g>
       <use xlink:href="#m610f983eac" x="361.338997" y="216.117812" style="stroke: #000000; stroke-width: 0.8"/>
      </g>
     </g>
     <g id="text_14">
      <!-- 2026-01-01 -->
      <g transform="translate(326.469622 232.235937) scale(0.12 -0.12)">
       <use xlink:href="#DejaVuSans-32"/>
       <use xlink:href="#DejaVuSans-30" transform="translate(63.623047 0)"/>
       <use xlink:href="#DejaVuSans-32" transform="translate(127.246094 0)"/>
       <use xlink:href="#DejaVuSans-36" transform="translate(190.869141 0)"/>
       <use xlink:href="#DejaVuSans-2d" transform="translate(254.492188 0)"/>
       <use xlink:href="#DejaVuSans-30" transform="translate(290.576172 0)"/>
       <use xlink:href="#DejaVuSans-31" transform="translate(354.199219 0)"/>
       <use xlink:href="#DejaVuSans-2d" transform="translate(417.822266 0)"/>
       <use xlink:href="#DejaVuSans-30" transform="translate(453.90625 0)"/>
       <use xlink:href="#DejaVuSans-31" transform="translate(517.529297 0)"/>
      </g>
     </g>
    </g>
    <g id="xtick_5">
     <g id="line2d_26">
      <path d="M 453.413151 216.117812 
L 453.413151 23.837812 
" clip-path="url(#pdfeda3493f)" style="fill: none; stroke: #b0b0b0; stroke-width: 0.8; stroke-linecap: square"/>
     </g>
     <g id="line2d_27">
      <g>
       <use xlink:href="#m610f983eac" x="453.413151" y="216.117812" style="stroke: #000000; stroke-width: 0.8"/>
      </g>
     </g>
     <g id="text_15">
      <!-- 2026-02-15 -->
      <g transform="translate(418.543776 232.235937) scale(0.12 -0.12)">
       <use xlink:href="#DejaVuSans-32"/>
       <use xlink:href="#DejaVuSans-30" transform="translate(63.623047 0)"/>
       <use xlink:href="#DejaVuSans-32" transform="translate(127.246094 0)"/>
       <use xlink:href="#DejaVuSans-36" transform="translate(190.869141 0)"/>
       <use xlink:href="#DejaVuSans-2d" transform="translate(254.492188 0)"/>
       <use xlink:href="#DejaVuSans-30" transform="translate(290.576172 0)"/>
       <use xlink:href="#DejaVuSans-32" transform="translate(354.199219 0)"/>
       <use xlink:href="#DejaVuSans-2d" transform="translate(417.822266 0)"/>
       <use xlink:href="#DejaVuSans-31" transform="translate(453.90625 0)"/>
       <use xlink:href="#DejaVuSans-35" transform="translate(517.529297 0)"/>
      </g>
     </g>
    </g>
    <g id="text_16">
     <!-- Date -->
     <g transform="translate(346.653996 255.369375) scale(0.14 -0.14)">
      <defs>
       <path id="DejaVuSans-61" d="M 2194 1759 
Q 1497 1759 1228 1600 
Q 959 1441 959 1056 
Q 959 750 1161 570 
Q 1363 391 1709 391 
Q 2188 391 2477 730 
Q 2766 1069 2766 1631 
L 2766 1759 
L 2194 1759 
z
M 3341 1997 
L 3341 0 
L 2766 0 
L 2766 531 
Q 2569 213 2275 61 
Q 1981 -91 1556 -91 
Q 1019 -91 701 211 
Q 384 513 384 1019 
Q 384 1609 779 1909 
Q 1175 2209 1959 2209 
L 2766 2209 
L 2766 2266 
Q 2766 2663 2505 2880 
Q 2244 3097 1772 3097 
Q 1472 3097 1187 3025 
Q 903 2953 641 2809 
L 641 3341 
Q 956 3463 1253 3523 
Q 1550 3584 1831 3584 
Q 2591 3584 2966 3190 
Q 3341 2797 3341 1997 
z
" transform="scale(0.015625)"/>
      </defs>
      <use xlink:href="#DejaVuSans-44"/>
      <use xlink:href="#DejaVuSans-61" transform="translate(77.001953 0)"/>
      <use xlink:href="#DejaVuSans-74" transform="translate(138.28125 0)"/>
      <use xlink:href="#DejaVuSans-65" transform="translate(177.490234 0)"/>
     </g>
    </g>
   </g>
   <g id="matplotlib.axis_4">
    <g id="ytick_9">
     <g id="line2d_28">
      <path d="M 237.345804 46.853384 
L 489.424375 46.853384 
" clip-path="url(#pdfeda3493f)" style="fill: none; stroke: #b0b0b0; stroke-width: 0.8; stroke-linecap: square"/>
     </g>
     <g id="line2d_29">
      <g>
       <use xlink:href="#m5ef28a7ae8" x="237.345804" y="46.853384" style="stroke: #000000; stroke-width: 0.8"/>
      </g>
     </g>
     <g id="text_17">
      <!-- 105 -->
      <g transform="translate(207.440804 51.412447) scale(0.12 -0.12)">
       <use xlink:href="#DejaVuSans-31"/>
       <use xlink:href="#DejaVuSans-30" transform="translate(63.623047 0)"/>
       <use xlink:href="#DejaVuSans-35" transform="translate(127.246094 0)"/>
      </g>
     </g>
    </g>
    <g id="ytick_10">
     <g id="line2d_30">
      <path d="M 237.345804 90.962232 
L 489.424375 90.962232 
" clip-path="url(#pdfeda3493f)" style="fill: none; stroke: #b0b0b0; stroke-width: 0.8; stroke-linecap: square"/>
     </g>
     <g id="line2d_31">
      <g>
       <use xlink:href="#m5ef28a7ae8" x="237.345804" y="90.962232" style="stroke: #000000; stroke-width: 0.8"/>
      </g>
     </g>
     <g id="text_18">
      <!-- 110 -->
      <g transform="translate(207.440804 95.521294) scale(0.12 -0.12)">
       <use xlink:href="#DejaVuSans-31"/>
       <use xlink:href="#DejaVuSans-31" transform="translate(63.623047 0)"/>
       <use xlink:href="#DejaVuSans-30" transform="translate(127.246094 0)"/>
      </g>
     </g>
    </g>
    <g id="ytick_11">
     <g id="line2d_32">
      <path d="M 237.345804 135.071079 
L 489.424375 135.071079 
" clip-path="url(#pdfeda3493f)" style="fill: none; stroke: #b0b0b0; stroke-width: 0.8; stroke-linecap: square"/>
     </g>
     <g id="line2d_33">
      <g>
       <use xlink:href="#m5ef28a7ae8" x="237.345804" y="135.071079" style="stroke: #000000; stroke-width: 0.8"/>
      </g>
     </g>
     <g id="text_19">
      <!-- 115 -->
      <g transform="translate(207.440804 139.630141) scale(0.12 -0.12)">
       <use xlink:href="#DejaVuSans-31"/>
       <use xlink:href="#DejaVuSans-31" transform="translate(63.623047 0)"/>
       <use xlink:href="#DejaVuSans-35" transform="translate(127.246094 0)"/>
      </g>
     </g>
    </g>
    <g id="ytick_12">
     <g id="line2d_34">
      <path d="M 237.345804 179.179926 
L 489.424375 179.179926 
" clip-path="url(#pdfeda3493f)" style="fill: none; stroke: #b0b0b0; stroke-width: 0.8; stroke-linecap: square"/>
     </g>
     <g id="line2d_35">
      <g>
       <use xlink:href="#m5ef28a7ae8" x="237.345804" y="179.179926" style="stroke: #000000; stroke-width: 0.8"/>
      </g>
     </g>
     <g id="text_20">
      <!-- 120 -->
      <g transform="translate(207.440804 183.738988) scale(0.12 -0.12)">
       <use xlink:href="#DejaVuSans-31"/>
       <use xlink:href="#DejaVuSans-32" transform="translate(63.623047 0)"/>
       <use xlink:href="#DejaVuSans-30" transform="translate(127.246094 0)"/>
      </g>
     </g>
    </g>
    <g id="text_21">
     <!-- Anoxic Depth [m] -->
     <g transform="translate(194.529241 181.255156) rotate(-90) scale(0.14 -0.14)">
      <defs>
       <path id="DejaVuSans-41" d="M 2188 4044 
L 1331 1722 
L 3047 1722 
L 2188 4044 
z
M 1831 4666 
L 2547 4666 
L 4325 0 
L 3669 0 
L 3244 1197 
L 1141 1197 
L 716 0 
L 50 0 
L 1831 4666 
z
" transform="scale(0.015625)"/>
       <path id="DejaVuSans-63" d="M 3122 3366 
L 3122 2828 
Q 2878 2963 2633 3030 
Q 2388 3097 2138 3097 
Q 1578 3097 1268 2742 
Q 959 2388 959 1747 
Q 959 1106 1268 751 
Q 1578 397 2138 397 
Q 2388 397 2633 464 
Q 2878 531 3122 666 
L 3122 134 
Q 2881 22 2623 -34 
Q 2366 -91 2075 -91 
Q 1284 -91 818 406 
Q 353 903 353 1747 
Q 353 2603 823 3093 
Q 1294 3584 2113 3584 
Q 2378 3584 2631 3529 
Q 2884 3475 3122 3366 
z
" transform="scale(0.015625)"/>
      </defs>
      <use xlink:href="#DejaVuSans-41"/>
      <use xlink:href="#DejaVuSans-6e" transform="translate(68.408203 0)"/>
      <use xlink:href="#DejaVuSans-6f" transform="translate(131.787109 0)"/>
      <use xlink:href="#DejaVuSans-78" transform="translate(189.84375 0)"/>
      <use xlink:href="#DejaVuSans-69" transform="translate(249.023438 0)"/>
      <use xlink:href="#DejaVuSans-63" transform="translate(276.806641 0)"/>
      <use xlink:href="#DejaVuSans-20" transform="translate(331.787109 0)"/>
      <use xlink:href="#DejaVuSans-44" transform="translate(363.574219 0)"/>
      <use xlink:href="#DejaVuSans-65" transform="translate(440.576172 0)"/>
      <use xlink:href="#DejaVuSans-70" transform="translate(502.099609 0)"/>
      <use xlink:href="#DejaVuSans-74" transform="translate(565.576172 0)"/>
      <use xlink:href="#DejaVuSans-68" transform="translate(604.785156 0)"/>
      <use xlink:href="#DejaVuSans-20" transform="translate(668.164062 0)"/>
      <use xlink:href="#DejaVuSans-5b" transform="translate(699.951172 0)"/>
      <use xlink:href="#DejaVuSans-6d" transform="translate(738.964844 0)"/>
      <use xlink:href="#DejaVuSans-5d" transform="translate(836.376953 0)"/>
     </g>
    </g>
   </g>
   <g id="line2d_36">
    <path d="M 248.80392 107.794937 
L 263.126567 109.426809 
L 277.449213 84.234818 
L 287.679674 120.581042 
L 289.725766 115.454228 
L 328.60152 66.460097 
L 334.739797 96.856823 
L 373.615551 79.754034 
L 383.846012 92.279704 
L 385.892105 66.958459 
L 387.938197 98.839105 
L 420.675674 48.458579 
L 443.182689 67.899146 
L 449.320966 207.377813 
L 477.966258 108.968218 
" clip-path="url(#pdfeda3493f)" style="fill: none; stroke: #808080; stroke-width: 1.5; stroke-linecap: square"/>
    <defs>
     <path id="m62827a3064" d="M 0 3 
C 0.795609 3 1.55874 2.683901 2.12132 2.12132 
C 2.683901 1.55874 3 0.795609 3 0 
C 3 -0.795609 2.683901 -1.55874 2.12132 -2.12132 
C 1.55874 -2.683901 0.795609 -3 0 -3 
C -0.795609 -3 -1.55874 -2.683901 -2.12132 -2.12132 
C -2.683901 -1.55874 -3 -0.795609 -3 0 
C -3 0.795609 -2.683901 1.55874 -2.12132 2.12132 
C -1.55874 2.683901 -0.795609 3 0 3 
z
" style="stroke: #ffffff; stroke-width: 0.75"/>
    </defs>
    <g clip-path="url(#pdfeda3493f)">
     <use xlink:href="#m62827a3064" x="248.80392" y="107.794937" style="fill: #808080; stroke: #ffffff; stroke-width: 0.75"/>
     <use xlink:href="#m62827a3064" x="263.126567" y="109.426809" style="fill: #808080; stroke: #ffffff; stroke-width: 0.75"/>
     <use xlink:href="#m62827a3064" x="277.449213" y="84.234818" style="fill: #808080; stroke: #ffffff; stroke-width: 0.75"/>
     <use xlink:href="#m62827a3064" x="287.679674" y="120.581042" style="fill: #808080; stroke: #ffffff; stroke-width: 0.75"/>
     <use xlink:href="#m62827a3064" x="289.725766" y="115.454228" style="fill: #808080; stroke: #ffffff; stroke-width: 0.75"/>
     <use xlink:href="#m62827a3064" x="328.60152" y="66.460097" style="fill: #808080; stroke: #ffffff; stroke-width: 0.75"/>
     <use xlink:href="#m62827a3064" x="334.739797" y="96.856823" style="fill: #808080; stroke: #ffffff; stroke-width: 0.75"/>
     <use xlink:href="#m62827a3064" x="373.615551" y="79.754034" style="fill: #808080; stroke: #ffffff; stroke-width: 0.75"/>
     <use xlink:href="#m62827a3064" x="383.846012" y="92.279704" style="fill: #808080; stroke: #ffffff; stroke-width: 0.75"/>
     <use xlink:href="#m62827a3064" x="385.892105" y="66.958459" style="fill: #808080; stroke: #ffffff; stroke-width: 0.75"/>
     <use xlink:href="#m62827a3064" x="387.938197" y="98.839105" style="fill: #808080; stroke: #ffffff; stroke-width: 0.75"/>
     <use xlink:href="#m62827a3064" x="420.675674" y="48.458579" style="fill: #808080; stroke: #ffffff; stroke-width: 0.75"/>
     <use xlink:href="#m62827a3064" x="443.182689" y="67.899146" style="fill: #808080; stroke: #ffffff; stroke-width: 0.75"/>
     <use xlink:href="#m62827a3064" x="449.320966" y="207.377813" style="fill: #808080; stroke: #ffffff; stroke-width: 0.75"/>
     <use xlink:href="#m62827a3064" x="477.966258" y="108.968218" style="fill: #808080; stroke: #ffffff; stroke-width: 0.75"/>
    </g>
   </g>
   <g id="LineCollection_1">
    <path d="M 248.80392 99.780393 
L 248.80392 115.809481 
" clip-path="url(#pdfeda3493f)" style="fill: none; stroke: #808080; stroke-width: 1.5; stroke-linecap: square"/>
    <path d="M 263.126567 102.416256 
L 263.126567 116.437363 
" clip-path="url(#pdfeda3493f)" style="fill: none; stroke: #808080; stroke-width: 1.5; stroke-linecap: square"/>
    <path d="M 277.449213 64.664522 
L 277.449213 103.805115 
" clip-path="url(#pdfeda3493f)" style="fill: none; stroke: #808080; stroke-width: 1.5; stroke-linecap: square"/>
    <path d="M 287.679674 92.669175 
L 287.679674 148.492908 
" clip-path="url(#pdfeda3493f)" style="fill: none; stroke: #808080; stroke-width: 1.5; stroke-linecap: square"/>
    <path clip-path="url(#pdfeda3493f)" style="fill: none; stroke: #808080; stroke-width: 1.5; stroke-linecap: square"/>
    <path d="M 328.60152 64.870074 
L 328.60152 68.05012 
" clip-path="url(#pdfeda3493f)" style="fill: none; stroke: #808080; stroke-width: 1.5; stroke-linecap: square"/>
    <path clip-path="url(#pdfeda3493f)" style="fill: none; stroke: #808080; stroke-width: 1.5; stroke-linecap: square"/>
    <path d="M 373.615551 73.25332 
L 373.615551 86.254747 
" clip-path="url(#pdfeda3493f)" style="fill: none; stroke: #808080; stroke-width: 1.5; stroke-linecap: square"/>
    <path d="M 383.846012 72.726495 
L 383.846012 111.832912 
" clip-path="url(#pdfeda3493f)" style="fill: none; stroke: #808080; stroke-width: 1.5; stroke-linecap: square"/>
    <path clip-path="url(#pdfeda3493f)" style="fill: none; stroke: #808080; stroke-width: 1.5; stroke-linecap: square"/>
    <path clip-path="url(#pdfeda3493f)" style="fill: none; stroke: #808080; stroke-width: 1.5; stroke-linecap: square"/>
    <path d="M 420.675674 32.577813 
L 420.675674 64.339345 
" clip-path="url(#pdfeda3493f)" style="fill: none; stroke: #808080; stroke-width: 1.5; stroke-linecap: square"/>
    <path clip-path="url(#pdfeda3493f)" style="fill: none; stroke: #808080; stroke-width: 1.5; stroke-linecap: square"/>
    <path clip-path="url(#pdfeda3493f)" style="fill: none; stroke: #808080; stroke-width: 1.5; stroke-linecap: square"/>
    <path d="M 477.966258 98.401542 
L 477.966258 119.534893 
" clip-path="url(#pdfeda3493f)" style="fill: none; stroke: #808080; stroke-width: 1.5; stroke-linecap: square"/>
   </g>
   <g id="PathCollection_1">
    <defs>
     <path id="m5d1018dfcb" d="M -2.5 5 
L 0 2.5 
L 2.5 5 
L 5 2.5 
L 2.5 0 
L 5 -2.5 
L 2.5 -5 
L 0 -2.5 
L -2.5 -5 
L -5 -2.5 
L -2.5 0 
L -5 2.5 
z
" style="stroke: #ffffff; stroke-width: 0.8"/>
    </defs>
    <g clip-path="url(#pdfeda3493f)">
     <use xlink:href="#m5d1018dfcb" x="449.320966" y="207.377813" style="fill: #32cd32; stroke: #ffffff; stroke-width: 0.8"/>
    </g>
   </g>
   <g id="line2d_37"/>
   <g id="patch_6">
    <path d="M 237.345804 216.117813 
L 237.345804 23.837813 
" style="fill: none; stroke: #000000; stroke-width: 0.8; stroke-linejoin: miter; stroke-linecap: square"/>
   </g>
   <g id="patch_7">
    <path d="M 237.345804 216.117812 
L 489.424375 216.117812 
" style="fill: none; stroke: #000000; stroke-width: 0.8; stroke-linejoin: miter; stroke-linecap: square"/>
   </g>
   <g id="text_22">
    <!-- South Basin -->
    <g transform="translate(321.696808 17.837812) scale(0.14 -0.14)">
     <defs>
      <path id="DejaVuSans-53" d="M 3425 4513 
L 3425 3897 
Q 3066 4069 2747 4153 
Q 2428 4238 2131 4238 
Q 1616 4238 1336 4038 
Q 1056 3838 1056 3469 
Q 1056 3159 1242 3001 
Q 1428 2844 1947 2747 
L 2328 2669 
Q 3034 2534 3370 2195 
Q 3706 1856 3706 1288 
Q 3706 609 3251 259 
Q 2797 -91 1919 -91 
Q 1588 -91 1214 -16 
Q 841 59 441 206 
L 441 856 
Q 825 641 1194 531 
Q 1563 422 1919 422 
Q 2459 422 2753 634 
Q 3047 847 3047 1241 
Q 3047 1584 2836 1778 
Q 2625 1972 2144 2069 
L 1759 2144 
Q 1053 2284 737 2584 
Q 422 2884 422 3419 
Q 422 4038 858 4394 
Q 1294 4750 2059 4750 
Q 2388 4750 2728 4690 
Q 3069 4631 3425 4513 
z
" transform="scale(0.015625)"/>
      <path id="DejaVuSans-75" d="M 544 1381 
L 544 3500 
L 1119 3500 
L 1119 1403 
Q 1119 906 1312 657 
Q 1506 409 1894 409 
Q 2359 409 2629 706 
Q 2900 1003 2900 1516 
L 2900 3500 
L 3475 3500 
L 3475 0 
L 2900 0 
L 2900 538 
Q 2691 219 2414 64 
Q 2138 -91 1772 -91 
Q 1169 -91 856 284 
Q 544 659 544 1381 
z
M 1991 3584 
L 1991 3584 
z
" transform="scale(0.015625)"/>
      <path id="DejaVuSans-42" d="M 1259 2228 
L 1259 519 
L 2272 519 
Q 2781 519 3026 730 
Q 3272 941 3272 1375 
Q 3272 1813 3026 2020 
Q 2781 2228 2272 2228 
L 1259 2228 
z
M 1259 4147 
L 1259 2741 
L 2194 2741 
Q 2656 2741 2882 2914 
Q 3109 3088 3109 3444 
Q 3109 3797 2882 3972 
Q 2656 4147 2194 4147 
L 1259 4147 
z
M 628 4666 
L 2241 4666 
Q 2963 4666 3353 4366 
Q 3744 4066 3744 3513 
Q 3744 3084 3544 2831 
Q 3344 2578 2956 2516 
Q 3422 2416 3680 2098 
Q 3938 1781 3938 1306 
Q 3938 681 3513 340 
Q 3088 0 2303 0 
L 628 0 
L 628 4666 
z
" transform="scale(0.015625)"/>
     </defs>
     <use xlink:href="#DejaVuSans-53"/>
     <use xlink:href="#DejaVuSans-6f" transform="translate(63.476562 0)"/>
     <use xlink:href="#DejaVuSans-75" transform="translate(124.658203 0)"/>
     <use xlink:href="#DejaVuSans-74" transform="translate(188.037109 0)"/>
     <use xlink:href="#DejaVuSans-68" transform="translate(227.246094 0)"/>
     <use xlink:href="#DejaVuSans-20" transform="translate(290.625 0)"/>
     <use xlink:href="#DejaVuSans-42" transform="translate(322.412109 0)"/>
     <use xlink:href="#DejaVuSans-61" transform="translate(391.015625 0)"/>
     <use xlink:href="#DejaVuSans-73" transform="translate(452.294922 0)"/>
     <use xlink:href="#DejaVuSans-69" transform="translate(504.394531 0)"/>
     <use xlink:href="#DejaVuSans-6e" transform="translate(532.177734 0)"/>
    </g>
   </g>
  </g>
 </g>
 <defs>
  <clipPath id="pc7731e5582">
   <rect x="60.654375" y="23.837812" width="100.831429" height="192.28"/>
  </clipPath>
  <clipPath id="pdfeda3493f">
   <rect x="237.345804" y="23.837812" width="252.078571" height="192.28"/>
  </clipPath>
 </defs>
</svg>
