<?xml version="1.0" encoding="utf-8" standalone="no"?>
<!DOCTYPE svg PUBLIC "-//W3C//DTD SVG 1.1//EN"
  "http://www.w3.org/Graphics/SVG/1.1/DTD/svg11.dtd">
<svg xmlns:xlink="http://www.w3.org/1999/xlink" width="352.669375pt" height="280.669375pt" viewBox="0 0 352.669375 280.669375" xmlns="http://www.w3.org/2000/svg" version="1.1">
 <metadata>
  <rdf:RDF xmlns:dc="http://purl.org/dc/elements/1.1/" xmlns:cc="http://creativecommons.org/ns#" xmlns:rdf="http://www.w3.org/1999/02/22-rdf-syntax-ns#">
   <cc:Work>
    <dc:type rdf:resource="http://purl.org/dc/dcmitype/StillImage"/>
    <dc:date>2026-03-15T19:08:48.132655</dc:date>
    <dc:format>image/svg+xml</dc:format>
    <dc:creator>
     <cc:Agent>
      <dc:title>Matplotlib v3.10.6, https://matplotlib.org/</dc:title>
     </cc:Agent>
    </dc:creator>
   </cc:Work>
  </rdf:RDF>
 </metadata>
 <defs>
  <style type="text/css">*{stroke-linejoin: round; stroke-linecap: butt}</style>
 </defs>
 <g id="figure_1">
  <g id="patch_1">
   <path d="M -0 280.669375 
L 352.669375 280.669375 
L 352.669375 0 
L -0 0 
z
" style="fill: #ffffff"/>
  </g>
  <g id="axes_1">
   <g id="patch_2">
    <path d="M 30.749375 249.92 
L 182.709375 249.92 
L 182.709375 7.2 
L 30.749375 7.2 
z
" style="fill: #ffffff"/>
   </g>
   <g id="matplotlib.axis_1">
    <g id="text_1">
     <!-- Temperature [°C] -->
     <g transform="translate(46.317187 270.557813) scale(0.14 -0.14)">
      <defs>
       <path id="DejaVuSans-54" d="M -19 4666 
L 3928 4666 
L 3928 4134 
L 2272 4134 
L 2272 0 
L 1638 0 
L 1638 4134 
L -19 4134 
L -19 4666 
z
" transform="scale(0.015625)"/>
       <path id="DejaVuSans-65" d="M 3597 1894 
L 3597 1613 
L 953 1613 
Q 991 1019 1311 708 
Q 1631 397 2203 397 
Q 2534 397 2845 478 
Q 3156 559 3463 722 
L 3463 178 
Q 3153 47 2828 -22 
Q 2503 -91 2169 -91 
Q 1331 -91 842 396 
Q 353 884 353 1716 
Q 353 2575 817 3079 
Q 1281 3584 2069 3584 
Q 2775 3584 3186 3129 
Q 3597 2675 3597 1894 
z
M 3022 2063 
Q 3016 2534 2758 2815 
Q 2500 3097 2075 3097 
Q 1594 3097 1305 2825 
Q 1016 2553 972 2059 
L 3022 2063 
z
" transform="scale(0.015625)"/>
       <path id="DejaVuSans-6d" d="M 3328 2828 
Q 3544 3216 3844 3400 
Q 4144 3584 4550 3584 
Q 5097 3584 5394 3201 
Q 5691 2819 5691 2113 
L 5691 0 
L 5113 0 
L 5113 2094 
Q 5113 2597 4934 2840 
Q 4756 3084 4391 3084 
Q 3944 3084 3684 2787 
Q 3425 2491 3425 1978 
L 3425 0 
L 2847 0 
L 2847 2094 
Q 2847 2600 2669 2842 
Q 2491 3084 2119 3084 
Q 1678 3084 1418 2786 
Q 1159 2488 1159 1978 
L 1159 0 
L 581 0 
L 581 3500 
L 1159 3500 
L 1159 2956 
Q 1356 3278 1631 3431 
Q 1906 3584 2284 3584 
Q 2666 3584 2933 3390 
Q 3200 3197 3328 2828 
z
" transform="scale(0.015625)"/>
       <path id="DejaVuSans-70" d="M 1159 525 
L 1159 -1331 
L 581 -1331 
L 581 3500 
L 1159 3500 
L 1159 2969 
Q 1341 3281 1617 3432 
Q 1894 3584 2278 3584 
Q 2916 3584 3314 3078 
Q 3713 2572 3713 1747 
Q 3713 922 3314 415 
Q 2916 -91 2278 -91 
Q 1894 -91 1617 61 
Q 1341 213 1159 525 
z
M 3116 1747 
Q 3116 2381 2855 2742 
Q 2594 3103 2138 3103 
Q 1681 3103 1420 2742 
Q 1159 2381 1159 1747 
Q 1159 1113 1420 752 
Q 1681 391 2138 391 
Q 2594 391 2855 752 
Q 3116 1113 3116 1747 
z
" transform="scale(0.015625)"/>
       <path id="DejaVuSans-72" d="M 2631 2963 
Q 2534 3019 2420 3045 
Q 2306 3072 2169 3072 
Q 1681 3072 1420 2755 
Q 1159 2438 1159 1844 
L 1159 0 
L 581 0 
L 581 3500 
L 1159 3500 
L 1159 2956 
Q 1341 3275 1631 3429 
Q 1922 3584 2338 3584 
Q 2397 3584 2469 3576 
Q 2541 3569 2628 3553 
L 2631 2963 
z
" transform="scale(0.015625)"/>
       <path id="DejaVuSans-61" d="M 2194 1759 
Q 1497 1759 1228 1600 
Q 959 1441 959 1056 
Q 959 750 1161 570 
Q 1363 391 1709 391 
Q 2188 391 2477 730 
Q 2766 1069 2766 1631 
L 2766 1759 
L 2194 1759 
z
M 3341 1997 
L 3341 0 
L 2766 0 
L 2766 531 
Q 2569 213 2275 61 
Q 1981 -91 1556 -91 
Q 1019 -91 701 211 
Q 384 513 384 1019 
Q 384 1609 779 1909 
Q 1175 2209 1959 2209 
L 2766 2209 
L 2766 2266 
Q 2766 2663 2505 2880 
Q 2244 3097 1772 3097 
Q 1472 3097 1187 3025 
Q 903 2953 641 2809 
L 641 3341 
Q 956 3463 1253 3523 
Q 1550 3584 1831 3584 
Q 2591 3584 2966 3190 
Q 3341 2797 3341 1997 
z
" transform="scale(0.015625)"/>
       <path id="DejaVuSans-74" d="M 1172 4494 
L 1172 3500 
L 2356 3500 
L 2356 3053 
L 1172 3053 
L 1172 1153 
Q 1172 725 1289 603 
Q 1406 481 1766 481 
L 2356 481 
L 2356 0 
L 1766 0 
Q 1100 0 847 248 
Q 594 497 594 1153 
L 594 3053 
L 172 3053 
L 172 3500 
L 594 3500 
L 594 4494 
L 1172 4494 
z
" transform="scale(0.015625)"/>
       <path id="DejaVuSans-75" d="M 544 1381 
L 544 3500 
L 1119 3500 
L 1119 1403 
Q 1119 906 1312 657 
Q 1506 409 1894 409 
Q 2359 409 2629 706 
Q 2900 1003 2900 1516 
L 2900 3500 
L 3475 3500 
L 3475 0 
L 2900 0 
L 2900 538 
Q 2691 219 2414 64 
Q 2138 -91 1772 -91 
Q 1169 -91 856 284 
Q 544 659 544 1381 
z
M 1991 3584 
L 1991 3584 
z
" transform="scale(0.015625)"/>
       <path id="DejaVuSans-20" transform="scale(0.015625)"/>
       <path id="DejaVuSans-5b" d="M 550 4863 
L 1875 4863 
L 1875 4416 
L 1125 4416 
L 1125 -397 
L 1875 -397 
L 1875 -844 
L 550 -844 
L 550 4863 
z
" transform="scale(0.015625)"/>
       <path id="DejaVuSans-b0" d="M 1600 4347 
Q 1350 4347 1178 4173 
Q 1006 4000 1006 3750 
Q 1006 3503 1178 3333 
Q 1350 3163 1600 3163 
Q 1850 3163 2022 3333 
Q 2194 3503 2194 3750 
Q 2194 3997 2020 4172 
Q 1847 4347 1600 4347 
z
M 1600 4750 
Q 1800 4750 1984 4673 
Q 2169 4597 2303 4453 
Q 2447 4313 2519 4134 
Q 2591 3956 2591 3750 
Q 2591 3338 2302 3052 
Q 2013 2766 1594 2766 
Q 1172 2766 890 3047 
Q 609 3328 609 3750 
Q 609 4169 896 4459 
Q 1184 4750 1600 4750 
z
" transform="scale(0.015625)"/>
       <path id="DejaVuSans-43" d="M 4122 4306 
L 4122 3641 
Q 3803 3938 3442 4084 
Q 3081 4231 2675 4231 
Q 1875 4231 1450 3742 
Q 1025 3253 1025 2328 
Q 1025 1406 1450 917 
Q 1875 428 2675 428 
Q 3081 428 3442 575 
Q 3803 722 4122 1019 
L 4122 359 
Q 3791 134 3420 21 
Q 3050 -91 2638 -91 
Q 1578 -91 968 557 
Q 359 1206 359 2328 
Q 359 3453 968 4101 
Q 1578 4750 2638 4750 
Q 3056 4750 3426 4639 
Q 3797 4528 4122 4306 
z
" transform="scale(0.015625)"/>
       <path id="DejaVuSans-5d" d="M 1947 4863 
L 1947 -844 
L 622 -844 
L 622 -397 
L 1369 -397 
L 1369 4416 
L 622 4416 
L 622 4863 
L 1947 4863 
z
" transform="scale(0.015625)"/>
      </defs>
      <use xlink:href="#DejaVuSans-54"/>
      <use xlink:href="#DejaVuSans-65" transform="translate(44.083984 0)"/>
      <use xlink:href="#DejaVuSans-6d" transform="translate(105.607422 0)"/>
      <use xlink:href="#DejaVuSans-70" transform="translate(203.019531 0)"/>
      <use xlink:href="#DejaVuSans-65" transform="translate(266.496094 0)"/>
      <use xlink:href="#DejaVuSans-72" transform="translate(328.019531 0)"/>
      <use xlink:href="#DejaVuSans-61" transform="translate(369.132812 0)"/>
      <use xlink:href="#DejaVuSans-74" transform="translate(430.412109 0)"/>
      <use xlink:href="#DejaVuSans-75" transform="translate(469.621094 0)"/>
      <use xlink:href="#DejaVuSans-72" transform="translate(533 0)"/>
      <use xlink:href="#DejaVuSans-65" transform="translate(571.863281 0)"/>
      <use xlink:href="#DejaVuSans-20" transform="translate(633.386719 0)"/>
      <use xlink:href="#DejaVuSans-5b" transform="translate(665.173828 0)"/>
      <use xlink:href="#DejaVuSans-b0" transform="translate(704.1875 0)"/>
      <use xlink:href="#DejaVuSans-43" transform="translate(754.1875 0)"/>
      <use xlink:href="#DejaVuSans-5d" transform="translate(824.011719 0)"/>
     </g>
    </g>
   </g>
   <g id="matplotlib.axis_2">
    <g id="text_2">
     <!-- Depth [m] -->
     <g transform="translate(17.837813 164.386875) rotate(-90) scale(0.14 -0.14)">
      <defs>
       <path id="DejaVuSans-44" d="M 1259 4147 
L 1259 519 
L 2022 519 
Q 2988 519 3436 956 
Q 3884 1394 3884 2338 
Q 3884 3275 3436 3711 
Q 2988 4147 2022 4147 
L 1259 4147 
z
M 628 4666 
L 1925 4666 
Q 3281 4666 3915 4102 
Q 4550 3538 4550 2338 
Q 4550 1131 3912 565 
Q 3275 0 1925 0 
L 628 0 
L 628 4666 
z
" transform="scale(0.015625)"/>
       <path id="DejaVuSans-68" d="M 3513 2113 
L 3513 0 
L 2938 0 
L 2938 2094 
Q 2938 2591 2744 2837 
Q 2550 3084 2163 3084 
Q 1697 3084 1428 2787 
Q 1159 2491 1159 1978 
L 1159 0 
L 581 0 
L 581 4863 
L 1159 4863 
L 1159 2956 
Q 1366 3272 1645 3428 
Q 1925 3584 2291 3584 
Q 2894 3584 3203 3211 
Q 3513 2838 3513 2113 
z
" transform="scale(0.015625)"/>
      </defs>
      <use xlink:href="#DejaVuSans-44"/>
      <use xlink:href="#DejaVuSans-65" transform="translate(77.001953 0)"/>
      <use xlink:href="#DejaVuSans-70" transform="translate(138.525391 0)"/>
      <use xlink:href="#DejaVuSans-74" transform="translate(202.001953 0)"/>
      <use xlink:href="#DejaVuSans-68" transform="translate(241.210938 0)"/>
      <use xlink:href="#DejaVuSans-20" transform="translate(304.589844 0)"/>
      <use xlink:href="#DejaVuSans-5b" transform="translate(336.376953 0)"/>
      <use xlink:href="#DejaVuSans-6d" transform="translate(375.390625 0)"/>
      <use xlink:href="#DejaVuSans-5d" transform="translate(472.802734 0)"/>
     </g>
    </g>
   </g>
   <g id="line2d_1">
    <path d="M 173.366666 18.232727 
L 173.70388 18.34893 
L 174.24717 18.54475 
L 174.153499 18.967051 
L 173.816285 19.138479 
L 173.92869 19.230291 
L 173.591475 19.517922 
L 173.816285 19.701546 
L 173.591475 19.836054 
L 173.70388 19.909561 
L 173.254261 20.221755 
L 172.823376 20.521581 
L 172.935781 20.650138 
L 172.710971 20.699107 
L 172.823376 20.772626 
L 172.823376 20.986738 
L 172.935781 21.158167 
L 173.029451 21.311145 
L 172.823376 21.378551 
L 172.935781 21.439701 
L 172.935781 21.97228 
L 172.823376 22.137437 
L 172.935781 22.253814 
L 172.823376 22.321061 
L 173.029451 22.449617 
L 172.935781 22.498588 
L 173.029451 23.263746 
L 173.254261 23.416883 
L 173.029451 23.661657 
L 173.029451 23.753469 
L 173.141856 23.790229 
L 173.029451 23.839183 
L 172.935781 24.133086 
L 173.141856 24.218801 
L 173.029451 24.347372 
L 173.141856 24.500334 
L 173.141856 24.732913 
L 172.935781 24.861464 
L 173.141856 24.959569 
L 173.029451 25.100335 
L 173.141856 25.167583 
L 172.935781 25.381869 
L 173.029451 25.461486 
L 172.935781 25.602252 
L 173.029451 25.994065 
L 173.141856 26.024728 
L 173.029451 26.098247 
L 173.029451 26.269697 
L 173.141856 26.343021 
L 173.029451 26.459397 
L 173.141856 26.606262 
L 173.141856 26.685879 
L 173.029451 26.839014 
L 173.029451 27.071593 
L 173.141856 27.230827 
L 173.029451 27.365496 
L 172.935781 27.506239 
L 173.141856 27.579806 
L 173.029451 27.653302 
L 172.935781 28.087995 
L 172.823376 28.235009 
L 172.823376 28.326821 
L 172.935781 28.504348 
L 172.823376 28.608355 
L 172.935781 28.669655 
L 172.823376 28.730804 
L 172.935781 28.804349 
L 172.823376 28.87177 
L 172.935781 28.93292 
L 173.029451 28.994245 
L 172.935781 29.049297 
L 172.935781 29.104349 
L 172.823376 29.257485 
L 172.935781 29.337128 
L 172.823376 29.386031 
L 172.823376 29.441109 
L 172.710971 29.612511 
L 172.710971 29.808531 
L 172.823376 29.863557 
L 172.710971 29.924907 
L 172.710971 29.986057 
L 173.029451 30.267766 
L 172.486162 30.49442 
L 170.275535 30.818801 
L 170.050725 31.045455 
L 170.050725 31.265838 
L 170.387939 31.419005 
L 170.387939 31.474028 
L 169.825916 31.719003 
L 169.825916 32.117087 
L 169.713511 32.17211 
L 169.825916 32.227337 
L 169.825916 32.337646 
L 169.601106 32.392697 
L 169.713511 32.441622 
L 169.825916 32.564127 
L 169.601106 32.680472 
L 169.93832 32.992844 
L 169.93832 33.096881 
L 170.050725 33.152078 
L 169.93832 33.20713 
L 169.93832 33.249987 
L 169.601106 33.433783 
L 169.601106 33.482769 
L 169.93832 33.746155 
L 169.713511 33.954342 
L 169.713511 34.027861 
L 169.488701 34.236048 
L 169.488701 34.352425 
L 169.282626 34.456431 
L 169.376297 34.511658 
L 169.282626 34.695281 
L 169.282626 34.738171 
L 169.170221 34.921936 
L 169.170221 34.995455 
L 169.488701 35.111833 
L 169.282626 35.172982 
L 169.376297 35.246468 
L 169.376297 36.19598 
L 169.488701 36.342845 
L 169.376297 36.410266 
L 169.488701 36.465319 
L 169.488701 36.753299 
L 169.282626 36.900336 
L 169.282626 38.113055 
L 169.170221 38.162046 
L 169.282626 38.229469 
L 169.282626 38.290755 
L 168.945412 38.560266 
L 169.057816 38.621416 
L 168.833007 38.780861 
L 168.945412 38.848109 
L 168.945412 38.95835 
L 168.833007 39.062531 
L 169.057816 39.111525 
L 168.945412 39.178908 
L 168.945412 39.295284 
L 168.833007 39.356646 
L 168.945412 39.564797 
L 168.945412 39.626121 
L 169.057816 39.675116 
L 168.945412 39.748634 
L 169.057816 39.803822 
L 169.057816 39.877381 
L 169.488701 40.159051 
L 169.376297 40.312187 
L 169.376297 41.004522 
L 169.601106 41.224907 
L 169.488701 41.280174 
L 169.601106 41.341458 
L 169.601106 41.39651 
L 169.488701 41.457833 
L 169.601106 41.525256 
L 169.488701 41.610969 
L 169.601106 41.788671 
L 169.282626 42.082746 
L 169.376297 42.137841 
L 169.282626 42.205262 
L 169.170221 42.395114 
L 169.170221 42.462536 
L 168.945412 42.578911 
L 169.057816 42.640236 
L 169.282626 42.830133 
L 169.376297 44.607011 
L 169.488701 44.674213 
L 169.282626 44.729438 
L 169.376297 44.790763 
L 169.282626 44.913236 
L 169.376297 45.097035 
L 169.376297 45.37282 
L 169.488701 45.525956 
L 169.376297 45.636282 
L 169.376297 46.959804 
L 169.488701 47.143728 
L 169.488701 47.192683 
L 169.282626 47.321477 
L 169.376297 47.529666 
L 169.376297 48.350872 
L 169.601106 48.559236 
L 169.601106 48.694079 
L 169.376297 48.951395 
L 169.282626 49.931936 
L 169.057816 50.170906 
L 169.057816 50.250523 
L 169.282626 50.465159 
L 169.170221 50.624391 
L 169.376297 50.679674 
L 169.282626 50.722476 
L 169.282626 51.108539 
L 169.057816 51.175959 
L 169.170221 51.255806 
L 169.282626 51.40279 
L 169.170221 51.592685 
L 169.170221 51.647912 
L 169.282626 51.801223 
L 169.376297 52.181189 
L 169.488701 52.25471 
L 169.282626 52.475322 
L 169.488701 52.695999 
L 169.170221 52.953314 
L 169.170221 53.069864 
L 169.057816 53.204764 
L 169.376297 53.505116 
L 169.376297 53.805407 
L 169.488701 53.854421 
L 169.376297 53.921784 
L 169.376297 54.179275 
L 169.488701 54.308081 
L 169.376297 54.455118 
L 169.376297 54.53485 
L 169.601106 54.596002 
L 169.282626 54.663421 
L 169.376297 54.718708 
L 169.376297 54.914816 
L 169.488701 54.963772 
L 169.282626 55.025154 
L 169.376297 55.092517 
L 169.376297 55.325444 
L 169.488701 55.448093 
L 169.376297 55.601462 
L 169.282626 55.944607 
L 169.170221 56.054885 
L 169.282626 56.11621 
L 169.170221 56.171497 
L 169.170221 56.318474 
L 169.282626 56.490078 
L 169.282626 56.931542 
L 169.057816 57.146 
L 169.376297 57.268651 
L 169.282626 57.323877 
L 169.282626 57.507675 
L 169.170221 57.569061 
L 169.282626 57.636421 
L 169.170221 57.697744 
L 169.170221 57.759068 
L 169.057816 57.979799 
L 169.057816 58.096112 
L 168.833007 58.335436 
L 168.833007 58.562265 
L 168.945412 58.672481 
L 168.945412 58.789032 
L 169.057816 58.850357 
L 168.945412 59.034154 
L 168.945412 59.230322 
L 168.720602 59.33474 
L 168.833007 59.389728 
L 168.833007 59.555299 
L 168.720602 59.71464 
L 168.608197 59.775963 
L 168.720602 59.898613 
L 168.608197 60.076552 
L 168.608197 60.143974 
L 168.833007 60.192865 
L 168.720602 60.260285 
L 168.608197 60.382999 
L 168.720602 60.493453 
L 168.720602 60.554711 
L 168.383388 60.848958 
L 168.383388 60.91638 
L 168.158578 61.032928 
L 168.608197 61.223003 
L 168.495793 61.284219 
L 168.495793 61.504883 
L 168.383388 61.639968 
L 168.383388 61.701224 
L 168.270983 61.768644 
L 168.383388 61.830038 
L 168.495793 61.885092 
L 168.383388 61.946415 
L 168.383388 62.118192 
L 168.495793 62.173177 
L 168.270983 62.461571 
L 168.270983 62.583976 
L 168.383388 62.639204 
L 168.270983 62.694429 
L 168.158578 62.853905 
L 168.158578 62.958017 
L 168.383388 63.148159 
L 168.383388 63.209413 
L 168.270983 63.326033 
L 168.383388 63.387288 
L 168.270983 63.448682 
L 168.270983 63.571259 
L 168.064908 63.730665 
L 168.270983 63.908542 
L 168.158578 63.96969 
L 168.270983 64.024989 
L 168.270983 64.074118 
L 168.158578 64.239623 
L 168.270983 64.39896 
L 168.158578 64.448088 
L 168.270983 64.515511 
L 168.158578 64.693384 
L 168.270983 64.809762 
L 168.158578 64.932409 
L 168.158578 65.269691 
L 168.270983 65.324919 
L 168.158578 65.374047 
L 168.064908 65.932134 
L 167.952503 66.03624 
L 168.064908 66.201747 
L 168.064908 66.25095 
L 167.952503 66.312273 
L 168.158578 66.440947 
L 168.064908 66.661752 
L 168.158578 66.772132 
L 168.064908 66.962125 
L 168.064908 67.078826 
L 167.840098 67.14617 
L 167.952503 67.207495 
L 167.840098 67.281089 
L 167.952503 67.342414 
L 167.727693 67.520287 
L 167.952503 67.734924 
L 167.952503 68.053837 
L 167.727693 68.115159 
L 167.840098 68.182582 
L 168.064908 68.366557 
L 167.840098 68.48928 
L 167.952503 68.556625 
L 167.952503 68.746695 
L 167.840098 68.80192 
L 167.952503 68.851128 
L 167.952503 68.912375 
L 167.840098 69.041197 
L 167.840098 69.249656 
L 168.064908 69.464293 
L 168.064908 69.617603 
L 167.840098 69.832314 
L 167.840098 69.991817 
L 167.952503 70.053142 
L 167.840098 70.145127 
L 167.952503 70.194083 
L 167.952503 70.273874 
L 167.727693 70.408794 
L 167.727693 70.463941 
L 167.952503 70.72169 
L 167.952503 70.776916 
L 167.615289 71.108017 
L 167.840098 71.371864 
L 167.727693 71.426834 
L 167.840098 71.488241 
L 167.840098 71.770471 
L 167.952503 71.831715 
L 167.840098 71.893038 
L 167.727693 72.009587 
L 167.840098 72.181448 
L 167.727693 72.242688 
L 167.840098 72.445129 
L 167.840098 72.506453 
L 167.952503 72.696607 
L 167.952503 72.763946 
L 167.727693 72.948089 
L 167.840098 73.015512 
L 167.502884 73.432581 
L 167.502884 73.487808 
L 167.390479 73.549131 
L 167.502884 73.610456 
L 167.502884 73.67178 
L 167.390479 73.831271 
L 167.502884 73.886499 
L 167.390479 73.947822 
L 167.502884 74.137983 
L 167.502884 74.193209 
L 167.390479 74.248434 
L 167.502884 74.315942 
L 167.390479 74.377265 
L 167.502884 74.432408 
L 167.502884 74.812807 
L 167.615289 74.880145 
L 167.502884 74.953837 
L 167.615289 75.137811 
L 167.502884 75.205231 
L 167.727693 75.499659 
L 167.502884 75.714551 
L 167.615289 75.775877 
L 167.502884 75.831015 
L 167.502884 76.186765 
L 167.278074 76.43833 
L 167.278074 76.677528 
L 167.16567 76.85549 
L 167.278074 76.996518 
L 167.16567 77.064027 
L 167.502884 77.254187 
L 167.390479 77.376922 
L 167.390479 77.474917 
L 167.278074 77.524045 
L 167.390479 77.579273 
L 167.390479 77.634499 
L 167.278074 77.793995 
L 167.390479 77.910368 
L 167.390479 77.984061 
L 167.278074 78.06394 
L 167.390479 78.247914 
L 167.390479 78.376834 
L 167.278074 78.432059 
L 167.390479 78.481015 
L 167.390479 78.54234 
L 167.502884 78.597568 
L 167.390479 78.659155 
L 167.390479 79.211155 
L 167.278074 79.278667 
L 167.390479 79.432061 
L 167.390479 79.634501 
L 167.615289 79.904365 
L 167.615289 79.953494 
L 167.390479 80.131458 
L 167.502884 80.266291 
L 167.390479 80.370564 
L 167.615289 80.646606 
L 167.615289 80.922832 
L 167.502884 80.978057 
L 167.840098 81.033289 
L 167.502884 81.229531 
L 167.615289 81.425874 
L 167.615289 81.499488 
L 167.727693 81.628409 
L 167.615289 81.708293 
L 167.727693 81.763332 
L 167.727693 81.971964 
L 167.615289 82.09461 
L 167.727693 82.229534 
L 167.615289 82.297224 
L 167.727693 82.364551 
L 167.390479 82.511854 
L 167.502884 82.573084 
L 167.390479 82.757325 
L 167.390479 82.812455 
L 167.278074 82.861583 
L 167.390479 82.910539 
L 167.390479 83.033458 
L 167.278074 83.106879 
L 167.615289 83.2359 
L 167.390479 83.303318 
L 167.502884 83.505837 
L 167.502884 83.622387 
L 167.615289 83.68981 
L 167.502884 83.751133 
L 167.502884 83.824923 
L 167.615289 84.0028 
L 167.502884 84.064199 
L 167.727693 84.205317 
L 167.727693 84.28501 
L 168.064908 84.49365 
L 168.064908 84.696088 
L 167.840098 84.739215 
L 167.952503 84.825007 
L 167.952503 84.935459 
L 167.840098 84.996782 
L 167.952503 85.064379 
L 169.601106 85.35883 
L 169.93832 85.549079 
L 170.387939 85.837488 
L 170.70642 86.003273 
L 170.70642 86.070694 
L 171.043634 86.267041 
L 173.366666 86.635096 
L 175.464888 86.8805 
L 175.464888 86.935827 
L 175.802102 87.328486 
L 175.146408 87.598509 
L 171.811733 87.862217 
L 165.947951 88.279366 
L 165.404662 88.488067 
L 164.842638 88.721228 
L 164.955043 88.831786 
L 164.299348 89.015746 
L 163.40011 89.359458 
L 162.407201 89.586444 
L 156.768229 90.12032 
L 153.995578 90.420862 
L 145.134336 91.623775 
L 142.605229 91.887669 
L 141.705991 92.538061 
L 141.705991 92.722205 
L 140.825487 92.973866 
L 140.169792 93.15789 
L 140.282197 93.231694 
L 139.944983 93.372692 
L 139.158149 93.673372 
L 139.270554 93.716516 
L 139.158149 93.759545 
L 137.940431 94.483621 
L 137.940431 94.544944 
L 137.734356 94.593957 
L 137.84676 94.6432 
L 137.84676 94.907246 
L 137.734356 95.005388 
L 136.067018 95.250828 
L 135.186514 95.674327 
L 135.186514 95.723455 
L 134.736895 95.864561 
L 132.975887 96.331076 
L 132.975887 96.386416 
L 132.189054 96.662532 
L 130.858931 96.85281 
L 130.315641 97.04914 
L 129.753617 97.270034 
L 129.866022 97.319164 
L 129.978427 97.362312 
L 129.866022 97.411323 
L 129.866022 97.448082 
L 128.423494 97.828831 
L 127.54299 98.405695 
L 127.54299 98.589839 
L 127.430586 98.700288 
L 127.54299 98.755516 
L 127.430586 98.81074 
L 126.662486 99.246609 
L 126.774891 99.344867 
L 124.451859 99.964973 
L 124.451859 100.020079 
L 123.777431 100.277903 
L 123.889836 100.321056 
L 123.777431 100.369888 
L 123.777431 100.431385 
L 123.665026 100.547812 
L 123.777431 100.707514 
L 123.665026 100.75664 
L 123.777431 100.812042 
L 123.327812 101.161854 
L 123.440217 101.210985 
L 122.110093 101.640746 
L 122.016423 101.701946 
L 121.117185 101.929226 
L 121.117185 101.965985 
L 120.798705 102.144026 
L 120.892375 102.248504 
L 120.573895 102.352729 
L 120.6863 102.414229 
L 120.124276 102.751844 
L 120.124276 102.843829 
L 119.580986 103.083363 
L 119.580986 103.157055 
L 118.250863 103.955103 
L 118.250863 104.047261 
L 118.138459 104.206839 
L 118.138459 104.280406 
L 117.801244 104.605781 
L 117.801244 104.654909 
L 117.913649 104.722506 
L 117.257955 105.084684 
L 116.358716 105.354872 
L 116.358716 105.434662 
L 116.133907 105.575945 
L 116.246312 105.637143 
L 116.246312 105.710962 
L 116.040236 105.907471 
L 116.133907 105.956601 
L 116.040236 106.011825 
L 116.133907 106.152939 
L 115.927831 106.379981 
L 115.927831 106.466043 
L 115.253403 106.797686 
L 115.365808 106.865283 
L 114.372899 107.270485 
L 114.372899 107.337905 
L 114.148089 107.466819 
L 114.148089 107.614203 
L 113.810875 107.865935 
L 112.930371 108.148623 
L 112.162272 108.387848 
L 112.049867 108.498297 
L 111.056958 108.823577 
L 111.056958 108.903672 
L 110.832149 109.130842 
L 111.056958 109.321087 
L 111.056958 109.370215 
L 110.944554 109.536064 
L 110.944554 109.597387 
L 110.607339 109.898113 
L 110.607339 110.143887 
L 110.38253 110.211477 
L 110.494935 110.297366 
L 110.38253 110.371056 
L 110.494935 110.444751 
L 110.38253 110.641261 
L 110.494935 110.702626 
L 110.38253 110.757849 
L 110.38253 111.151008 
L 110.494935 111.304492 
L 110.494935 111.384281 
L 110.38253 111.544033 
L 110.494935 111.611455 
L 110.270125 111.783399 
L 110.38253 111.844899 
L 110.15772 111.90012 
L 110.270125 111.961445 
L 110.270125 112.07207 
L 110.15772 112.133391 
L 110.270125 112.194755 
L 110.38253 112.262623 
L 110.270125 112.409695 
L 110.270125 112.526418 
L 110.15772 112.599971 
L 110.270125 112.796486 
L 110.270125 112.956376 
L 110.045316 113.017557 
L 110.15772 113.072922 
L 110.15772 113.128185 
L 109.951645 113.336888 
L 109.951645 113.410717 
L 109.614431 113.69311 
L 109.614431 113.766802 
L 109.389621 113.932649 
L 109.389621 114.221181 
L 109.277216 114.356194 
L 109.277216 114.436296 
L 109.052407 114.583676 
L 109.164812 114.669426 
L 108.827597 114.829312 
L 108.940002 115.00736 
L 108.827597 115.185404 
L 108.733927 115.35735 
L 108.396712 115.49863 
L 108.396712 115.627548 
L 107.722284 116.118815 
L 107.722284 116.186268 
L 106.504565 116.8986 
L 106.504565 116.960097 
L 105.961276 117.291788 
L 106.073681 117.365482 
L 104.518748 118.311221 
L 104.518748 118.440169 
L 104.406343 118.64292 
L 104.518748 118.70442 
L 104.293938 118.771836 
L 104.518748 118.839435 
L 104.406343 118.90093 
L 104.406343 119.208067 
L 104.181534 119.343077 
L 104.293938 119.404577 
L 104.293938 119.465754 
L 104.069129 119.588569 
L 104.069129 119.656164 
L 103.863054 119.77898 
L 103.956724 119.834207 
L 103.863054 119.9018 
L 102.739006 120.16603 
L 102.420526 120.288697 
L 102.195716 120.356434 
L 102.308121 120.417786 
L 101.858502 120.792481 
L 101.858502 120.853978 
L 101.427617 121.179251 
L 101.427617 121.246846 
L 100.303569 121.652364 
L 100.303569 121.701343 
L 99.985089 121.867336 
L 100.097494 121.928686 
L 99.985089 122.112677 
L 99.985089 122.266632 
L 99.53547 122.64118 
L 99.647875 122.708626 
L 99.53547 122.76385 
L 99.53547 123.058791 
L 98.99218 123.371863 
L 98.99218 123.439609 
L 98.205347 123.74688 
L 98.205347 124.035399 
L 97.886867 124.354724 
L 97.886867 124.404004 
L 97.662057 124.637292 
L 97.662057 124.827706 
L 97.437248 124.938326 
L 97.549653 125.116373 
L 97.324843 125.300685 
L 97.549653 125.417412 
L 97.324843 125.595453 
L 97.437248 125.693711 
L 97.324843 125.86583 
L 97.437248 125.914961 
L 97.324843 125.982553 
L 97.549653 126.093008 
L 97.437248 126.148405 
L 97.437248 126.265128 
L 97.549653 126.33255 
L 97.212438 126.547695 
L 97.212438 126.657835 
L 97.324843 126.756404 
L 97.212438 126.80553 
L 97.324843 126.872971 
L 97.324843 127.321549 
L 97.437248 127.389146 
L 97.212438 127.628683 
L 97.212438 127.843661 
L 97.100034 127.92972 
L 97.212438 127.97885 
L 97.212438 128.15707 
L 96.987629 128.37814 
L 96.987629 128.507232 
L 96.556744 128.746923 
L 96.107125 129.145891 
L 96.21953 129.207375 
L 96.107125 129.268869 
L 96.21953 129.336466 
L 96.107125 129.397961 
L 96.21953 129.502316 
L 96.107125 129.545185 
L 96.107125 129.60057 
L 95.45143 130.061187 
L 95.45143 130.147248 
L 95.226621 130.331546 
L 94.439788 130.841287 
L 94.439788 130.890576 
L 94.121307 131.185349 
L 94.121307 131.31444 
L 93.671688 131.6031 
L 93.671688 131.676954 
L 93.222069 131.861261 
L 93.222069 131.916486 
L 93.109664 132.09454 
L 93.015994 132.450801 
L 92.004351 133.157383 
L 92.004351 133.2619 
L 91.891946 133.304928 
L 92.004351 133.366263 
L 92.004351 133.409294 
L 91.891946 133.458419 
L 92.004351 133.49518 
L 92.004351 133.556842 
L 91.891946 133.716592 
L 92.004351 133.784189 
L 91.891946 133.839412 
L 91.685871 134.072851 
L 91.685871 134.14028 
L 91.798276 134.220246 
L 91.573466 134.459783 
L 91.573466 134.65646 
L 91.348657 134.76708 
L 91.461061 134.81621 
L 91.348657 134.865169 
L 91.348657 134.93293 
L 90.674228 135.578022 
L 90.468153 135.707109 
L 90.580557 135.774706 
L 89.906129 136.075561 
L 89.906129 136.186354 
L 89.45651 136.499578 
L 89.568914 136.610205 
L 89.45651 136.733022 
L 89.568914 136.794521 
L 89.45651 136.843647 
L 89.025625 137.113845 
L 88.238791 137.322707 
L 88.032716 137.414861 
L 88.145121 137.470088 
L 88.145121 137.64221 
L 88.032716 137.783663 
L 88.145121 137.906315 
L 88.032716 137.967809 
L 88.145121 138.01711 
L 88.238791 138.121469 
L 88.032716 138.21989 
L 88.032716 138.287314 
L 87.920311 138.453161 
L 87.920311 138.594792 
L 88.032716 138.760645 
L 87.133478 139.368626 
L 87.133478 139.577679 
L 86.477783 139.817207 
L 85.91576 140.014053 
L 85.91576 140.075375 
L 85.709684 140.179898 
L 85.803355 140.241397 
L 85.709684 140.953921 
L 85.597279 141.009144 
L 85.709684 141.052352 
L 85.803355 142.05982 
L 85.91576 142.109125 
L 85.803355 142.152152 
L 85.709684 142.385594 
L 85.597279 142.576182 
L 85.597279 142.637502 
L 85.484875 142.797428 
L 85.484875 142.840459 
L 85.597279 142.889589 
L 85.484875 142.957181 
L 85.484875 143.092192 
L 81.944125 144.149052 
L 81.944125 144.345563 
L 81.719315 144.554791 
L 81.83172 144.646772 
L 81.494506 144.757389 
L 81.60691 144.831083 
L 80.614002 145.40839 
L 80.726406 145.476168 
L 80.389192 145.666748 
L 80.389192 145.715875 
L 80.164383 145.875441 
L 80.276787 145.949316 
L 80.051978 146.17056 
L 79.714763 146.361139 
L 79.621093 146.483956 
L 79.171474 146.649969 
L 79.171474 146.809721 
L 78.946664 147.012498 
L 78.946664 147.067723 
L 78.721855 147.3259 
L 78.834259 147.479741 
L 78.60945 147.72519 
L 78.60945 147.835814 
L 78.06616 148.075517 
L 78.178565 148.143113 
L 77.841351 148.450415 
L 77.953756 148.511914 
L 77.616541 148.807032 
L 77.616541 148.867983 
L 77.073252 149.236961 
L 76.623632 149.421267 
L 76.623632 149.470208 
L 75.293509 149.912673 
L 74.956295 150.084972 
L 75.0687 150.152569 
L 74.956295 150.300124 
L 74.956295 150.594876 
L 75.0687 150.66266 
L 74.75022 150.908277 
L 74.956295 151.080403 
L 74.75022 151.344691 
L 74.862625 151.418559 
L 74.75022 151.602683 
L 74.862625 151.664182 
L 74.75022 151.713496 
L 74.637815 151.867148 
L 74.75022 151.934745 
L 74.52541 152.125153 
L 74.75022 152.186655 
L 71.977569 153.034458 
L 72.089974 153.102054 
L 71.752759 153.317388 
L 71.752759 153.378885 
L 70.647446 153.999573 
L 70.759851 154.048511 
L 70.759851 154.110008 
L 70.085422 154.54639 
L 69.991751 154.65074 
L 69.654537 154.841319 
L 69.879347 155.02564 
L 69.542132 155.253151 
L 69.654537 155.375973 
L 69.542132 155.468128 
L 69.654537 155.517432 
L 69.654537 155.812371 
L 69.542132 155.916895 
L 69.654537 155.984687 
L 69.542132 156.052083 
L 69.542132 156.187466 
L 69.429728 156.261155 
L 69.542132 156.334828 
L 69.204918 156.611489 
L 69.204918 156.851007 
L 68.980109 157.029219 
L 68.980109 157.182873 
L 68.774033 157.373652 
L 68.774033 157.459515 
L 68.661628 157.520835 
L 68.774033 157.717522 
L 68.774033 157.760552 
L 68.549224 157.938765 
L 68.661628 158.012633 
L 68.212009 158.381426 
L 68.212009 158.467114 
L 68.099605 158.633333 
L 68.099605 158.713296 
L 67.9872 158.854578 
L 67.9872 158.928269 
L 67.649985 159.223374 
L 67.556315 159.622838 
L 67.44391 159.788858 
L 67.44391 159.844284 
L 67.556315 159.930146 
L 67.44391 159.967076 
L 67.44391 160.108361 
L 67.219101 160.354167 
L 67.219101 160.415664 
L 67.106696 160.581684 
L 67.106696 160.796835 
L 66.994291 160.93202 
L 67.106696 160.987247 
L 66.994291 161.054838 
L 66.994291 161.122809 
L 67.106696 161.177834 
L 66.994291 161.245628 
L 66.994291 161.337583 
L 66.769482 161.54663 
L 66.769482 161.601855 
L 66.544672 161.835263 
L 66.657077 161.890868 
L 66.544672 161.958663 
L 66.544672 162.210165 
L 66.769482 162.339465 
L 66.657077 162.400958 
L 66.657077 162.468756 
L 66.544672 162.579173 
L 66.881886 162.677611 
L 66.544672 162.874287 
L 66.544672 162.929512 
L 66.338597 163.083365 
L 66.432267 163.150552 
L 65.776573 163.661004 
L 65.439358 163.771619 
L 65.664168 163.925279 
L 65.326954 164.152616 
L 65.551763 164.300178 
L 65.439358 164.367769 
L 65.439358 164.693544 
L 64.671259 165.209885 
L 64.671259 165.33267 
L 64.22164 165.769265 
L 64.22164 165.892084 
L 63.790755 166.260877 
L 63.790755 166.322373 
L 63.565946 166.525323 
L 63.565946 166.580548 
L 63.003922 166.980173 
L 63.116327 167.041498 
L 63.003922 167.244451 
L 63.003922 167.336398 
L 62.891517 167.379425 
L 63.003922 167.428766 
L 63.003922 167.484165 
L 62.891517 167.613253 
L 62.891517 167.957493 
L 62.779112 168.123339 
L 62.891517 168.246123 
L 62.779112 168.356956 
L 62.891517 168.399989 
L 62.779112 168.449114 
L 62.891517 168.529079 
L 62.779112 168.566009 
L 62.779112 168.682731 
L 62.573037 168.756378 
L 62.685442 168.824187 
L 62.685442 169.106932 
L 62.573037 169.205184 
L 62.685442 169.254488 
L 62.685442 169.309713 
L 62.573037 169.506608 
L 62.685442 169.653954 
L 62.685442 169.770675 
L 62.573037 169.930384 
L 62.573037 170.114913 
L 62.460632 170.293302 
L 62.460632 170.410023 
L 62.348227 170.588453 
L 62.460632 170.680573 
L 62.235823 170.797288 
L 62.235823 170.913794 
L 62.348227 171.080035 
L 62.348227 171.141532 
L 62.235823 171.203025 
L 62.348227 171.258253 
L 62.348227 171.344313 
L 62.123418 171.485766 
L 62.235823 171.547266 
L 62.123418 171.602488 
L 62.123418 171.670256 
L 62.235823 171.799349 
L 62.235823 171.860671 
L 62.460632 171.934543 
L 62.235823 172.081876 
L 62.235823 172.131221 
L 62.348227 172.23575 
L 62.235823 172.42028 
L 62.235823 172.53086 
L 62.348227 172.592186 
L 62.235823 172.647582 
L 62.235823 172.709078 
L 61.898608 173.09634 
L 61.898608 173.286926 
L 61.355319 173.698746 
L 61.355319 173.753971 
L 60.9057 173.932351 
L 60.025196 174.245952 
L 59.800386 174.44219 
L 59.800386 174.509958 
L 59.463172 174.780765 
L 59.463172 174.878973 
L 59.125958 175.050863 
L 59.032287 175.241669 
L 58.582668 175.548964 
L 58.582668 175.641122 
L 58.470263 175.794947 
L 58.470263 175.905348 
L 58.357858 175.954695 
L 58.470263 176.003603 
L 58.470263 176.071197 
L 58.357858 176.255905 
L 58.357858 176.397365 
L 58.470263 176.452369 
L 58.245454 176.72901 
L 58.245454 176.90113 
L 58.133049 177.055004 
L 58.245454 177.233399 
L 58.133049 177.405292 
L 58.133049 177.460741 
L 58.020644 177.509815 
L 58.133049 177.577636 
L 58.133049 177.645005 
L 58.245454 177.712827 
L 58.020644 177.927746 
L 58.133049 178.04487 
L 58.133049 178.106366 
L 58.245454 178.161594 
L 58.133049 178.223087 
L 58.133049 178.345854 
L 58.020644 178.462798 
L 58.020644 178.59816 
L 57.908239 178.727247 
L 58.133049 178.806816 
L 58.020644 178.868309 
L 58.020644 179.003897 
L 57.908239 179.064989 
L 58.020644 179.120391 
L 58.133049 179.17602 
L 58.020644 179.366604 
L 58.133049 179.501794 
L 57.908239 179.747599 
L 58.020644 179.851901 
L 58.020644 179.919723 
L 57.589759 180.356283 
L 57.702164 180.454487 
L 57.589759 180.515806 
L 57.702164 180.583805 
L 56.915331 181.333531 
L 56.802926 181.45675 
L 56.802926 181.579569 
L 55.697612 182.010012 
L 55.697612 182.095842 
L 55.266727 182.520263 
L 55.379132 182.569394 
L 55.266727 182.630887 
L 55.266727 182.729142 
L 55.154323 182.845803 
L 55.154323 183.073553 
L 55.041918 183.141144 
L 55.154323 183.202411 
L 55.154323 183.626847 
L 54.929513 183.805058 
L 55.041918 183.860227 
L 54.929513 183.909351 
L 54.929513 184.099937 
L 54.817108 184.167528 
L 54.929513 184.235358 
L 54.817108 184.358348 
L 54.817108 184.690393 
L 54.704704 184.862276 
L 54.704704 185.440132 
L 54.592299 185.606151 
L 54.592299 185.956724 
L 54.367489 186.018214 
L 54.479894 186.067283 
L 54.479894 186.18424 
L 54.367489 186.350023 
L 54.367489 186.466981 
L 54.479894 186.534752 
L 54.273819 186.69426 
L 54.367489 186.749899 
L 54.367489 187.100236 
L 54.161414 187.167998 
L 54.273819 187.223226 
L 54.273819 187.315384 
L 54.161414 187.41381 
L 54.367489 187.524201 
L 54.273819 187.684362 
L 54.273819 188.465174 
L 54.161414 188.569697 
L 54.161414 188.686179 
L 53.936604 189.067585 
L 53.936604 189.134938 
L 53.8242 189.202703 
L 53.936604 189.276397 
L 53.8242 189.399387 
L 53.8242 189.528476 
L 53.59939 189.645365 
L 53.711795 189.707106 
L 53.711795 189.755992 
L 53.59939 189.811213 
L 53.711795 189.879226 
L 53.711795 190.143503 
L 53.59939 190.327747 
L 53.711795 190.401683 
L 53.59939 190.537042 
L 53.59939 190.936681 
L 53.486985 190.998174 
L 53.59939 191.127025 
L 53.486985 191.207227 
L 53.711795 191.262458 
L 53.59939 191.329805 
L 53.59939 191.502169 
L 53.711795 191.637534 
L 53.59939 191.760523 
L 53.59939 191.963304 
L 53.374581 192.079949 
L 53.486985 192.23385 
L 53.374581 192.387501 
L 53.149771 192.62104 
L 53.262176 192.676268 
L 53.149771 192.725637 
L 53.0561 192.836187 
L 52.943696 192.897925 
L 53.0561 192.953153 
L 53.0561 193.039213 
L 52.831291 193.236064 
L 52.943696 193.297564 
L 52.831291 193.377349 
L 52.943696 193.426408 
L 52.943696 193.697203 
L 53.0561 193.905839 
L 53.0561 194.035103 
L 52.943696 194.090324 
L 53.0561 194.145973 
L 53.0561 194.207222 
L 52.943696 194.256346 
L 53.0561 194.311996 
L 53.0561 194.42262 
L 52.831291 194.631418 
L 52.943696 194.760511 
L 52.831291 194.828349 
L 52.943696 194.889849 
L 52.943696 195.055624 
L 53.0561 195.117372 
L 52.831291 195.338612 
L 52.943696 195.510661 
L 52.831291 195.627379 
L 52.831291 195.842778 
L 52.494077 196.09485 
L 52.494077 196.162618 
L 52.606481 196.340839 
L 52.606481 196.402086 
L 52.044457 196.66677 
L 52.156862 196.715651 
L 52.156862 196.893868 
L 51.932053 197.134251 
L 51.932053 197.232003 
L 51.725977 197.453419 
L 51.725977 197.631887 
L 51.613573 197.69338 
L 51.725977 197.761152 
L 51.613573 197.810276 
L 51.501168 197.976043 
L 51.501168 198.172726 
L 51.276358 198.406588 
L 51.051549 198.578448 
L 51.163953 198.732533 
L 51.163953 199.095239 
L 51.276358 199.14437 
L 51.163953 199.193414 
L 51.163953 199.255164 
L 51.051549 199.390348 
L 51.051549 199.580681 
L 50.714334 199.759062 
L 50.620664 199.943373 
L 50.508259 200.06052 
L 50.620664 200.12202 
L 49.496616 201.234586 
L 49.402946 201.73265 
L 49.290541 201.849367 
L 49.402946 201.978461 
L 49.402946 202.175318 
L 49.290541 202.224442 
L 49.402946 202.279844 
L 48.185227 203.091537 
L 48.185227 203.263832 
L 48.072822 203.331162 
L 48.185227 203.392662 
L 48.185227 203.447887 
L 48.072822 203.613906 
L 48.072822 203.656936 
L 47.735608 203.866238 
L 47.848013 203.934009 
L 47.960418 204.11223 
L 47.960418 204.173465 
L 47.848013 204.302552 
L 47.960418 204.41945 
L 47.398394 204.813061 
L 47.510799 204.874299 
L 47.510799 204.929698 
L 47.285989 205.06514 
L 46.855104 205.495601 
L 46.967509 205.556838 
L 46.742699 205.692281 
L 46.742699 205.747417 
L 46.630295 205.913699 
L 46.630295 205.981292 
L 46.405485 206.159414 
L 46.405485 206.208541 
L 46.29308 206.2642 
L 46.405485 206.325436 
L 46.29308 206.460883 
L 46.29308 206.620808 
L 46.180676 206.725067 
L 46.180676 206.915917 
L 45.955866 207.149527 
L 45.955866 207.204661 
L 45.749791 207.39524 
L 45.843461 207.450733 
L 45.637386 207.567622 
L 45.637386 207.62302 
L 45.524981 207.794871 
L 45.524981 208.133279 
L 45.637386 208.194513 
L 45.412576 208.311493 
L 45.412576 208.409922 
L 45.075362 208.600231 
L 44.962957 208.747783 
L 45.075362 208.895343 
L 45.075362 208.975572 
L 44.962957 209.098561 
L 44.962957 209.233481 
L 44.850553 209.3995 
L 44.850553 209.633558 
L 44.738148 209.774839 
L 44.738148 209.903661 
L 44.625743 209.977522 
L 44.738148 210.131179 
L 44.625743 210.266537 
L 44.532072 210.930893 
L 44.082453 211.114923 
L 44.082453 211.164224 
L 43.745239 211.280934 
L 42.864735 211.637785 
L 42.97714 211.699014 
L 42.75233 211.766601 
L 42.864735 211.834372 
L 42.864735 212.06189 
L 42.97714 212.111021 
L 42.864735 212.307701 
L 42.864735 212.430693 
L 42.97714 212.486096 
L 42.864735 212.547588 
L 42.75233 212.609081 
L 42.864735 212.658212 
L 42.864735 212.71361 
L 42.75233 212.842969 
L 42.864735 213.01482 
L 42.639926 213.242604 
L 42.75233 213.285637 
L 42.639926 213.346857 
L 42.639926 213.580473 
L 42.75233 213.734304 
L 42.75233 213.814092 
L 42.527521 214.047701 
L 42.527521 214.269396 
L 42.639926 214.324798 
L 42.415116 214.496636 
L 42.415116 214.669031 
L 42.302711 214.797842 
L 42.415116 214.847422 
L 42.302711 215.019263 
L 42.302711 215.154726 
L 42.415116 215.209852 
L 42.302711 215.265248 
L 41.759422 215.708174 
L 41.759422 215.929145 
L 41.871826 216.033951 
L 41.759422 216.218159 
L 41.759422 216.415294 
L 41.647017 216.470238 
L 41.759422 216.525917 
L 41.759422 217.171263 
L 41.871826 217.28189 
L 41.759422 217.454006 
L 41.759422 217.509404 
L 41.871826 217.58937 
L 41.759422 217.786329 
L 41.759422 217.866012 
L 41.871826 217.982911 
L 41.759422 218.142937 
L 41.759422 218.198336 
L 41.871826 218.253285 
L 41.759422 218.382825 
L 41.871826 218.5423 
L 41.871826 218.720691 
L 41.759422 218.769814 
L 41.871826 218.825217 
L 41.871826 219.305098 
L 41.759422 219.347843 
L 41.871826 219.409624 
L 41.871826 219.520248 
L 41.759422 219.655431 
L 41.871826 219.821176 
L 41.759422 219.864484 
L 41.871826 219.90142 
L 41.871826 219.999567 
L 41.984231 220.171972 
L 41.984231 220.221274 
L 41.871826 220.350078 
L 41.871826 220.405302 
L 41.759422 220.460697 
L 41.871826 220.52248 
L 41.871826 220.706686 
L 41.759422 220.848249 
L 41.871826 220.903652 
L 41.759422 220.970958 
L 41.759422 221.026357 
L 41.871826 221.093955 
L 41.759422 221.12507 
L 41.759422 221.223324 
L 41.871826 221.278727 
L 41.759422 221.333838 
L 41.759422 221.45683 
L 41.647017 221.518323 
L 41.759422 221.573551 
L 41.759422 221.62895 
L 41.871826 221.715298 
L 41.759422 221.887129 
L 41.759422 222.428226 
L 41.871826 222.477357 
L 41.759422 222.538849 
L 41.647017 222.704868 
L 41.647017 222.920017 
L 41.534612 223.061472 
L 41.534612 223.122968 
L 41.759422 223.196841 
L 41.647017 223.270814 
L 41.534612 223.418366 
L 41.534612 223.731658 
L 41.422207 223.866728 
L 41.534612 223.996109 
L 41.534612 224.137567 
L 41.422207 224.254572 
L 41.422207 224.396031 
L 41.534612 224.457243 
L 41.422207 224.605083 
L 41.534612 224.672392 
L 41.422207 224.85078 
L 41.534612 224.998628 
L 41.309803 225.102858 
L 41.422207 225.151989 
L 41.422207 225.397973 
L 41.309803 225.465563 
L 41.422207 225.539432 
L 41.309803 225.70545 
L 41.309803 225.896036 
L 41.422207 225.957536 
L 41.309803 226.018854 
L 41.309803 226.166875 
L 41.422207 226.338708 
L 41.309803 226.473891 
L 41.309803 226.517212 
L 41.422207 226.572324 
L 41.309803 226.640204 
L 41.422207 226.707511 
L 41.309803 226.762906 
L 41.309803 226.836771 
L 41.197398 226.880088 
L 41.309803 226.941122 
L 41.309803 227.230429 
L 41.197398 227.291629 
L 41.309803 227.353129 
L 41.084993 227.599106 
L 41.084993 227.660602 
L 40.972588 227.703921 
L 41.084993 227.752759 
L 41.197398 227.967913 
L 41.084993 228.1463 
L 41.084993 228.361449 
L 40.972588 228.490829 
L 40.972588 228.675317 
L 41.084993 228.85981 
L 40.878918 228.994696 
L 40.972588 229.038197 
L 40.878918 229.099516 
L 40.878918 229.27181 
L 40.766513 229.327031 
L 40.972588 229.443933 
L 40.878918 229.664882 
L 40.316894 230.108 
L 40.316894 230.169026 
L 40.204489 230.328947 
L 39.75487 230.59948 
L 39.661199 230.765499 
L 39.548795 230.90725 
L 39.548795 231.140569 
L 39.661199 231.23273 
L 39.548795 231.374185 
L 39.661199 231.552406 
L 39.661199 231.607804 
L 39.43639 231.76145 
L 39.548795 231.816853 
L 39.43639 231.872247 
L 38.331076 232.579452 
L 38.443481 232.751451 
L 38.331076 232.936061 
L 38.443481 233.046862 
L 38.218672 233.261704 
L 38.106267 233.415654 
L 38.106267 233.593744 
L 37.769052 233.704356 
L 37.881457 233.827653 
L 37.881457 233.889149 
L 37.769052 234.067362 
L 37.881457 234.116192 
L 37.769052 234.300677 
L 37.769052 234.349978 
L 37.881457 234.405207 
L 37.769052 234.460601 
L 37.769052 234.522399 
L 37.881457 234.583899 
L 37.769052 234.64509 
L 37.769052 235.112321 
L 37.656648 235.186008 
L 37.769052 235.235313 
L 37.769052 235.290841 
L 37.656648 235.333564 
L 37.769052 235.3769 
L 37.769052 235.622582 
L 37.656648 235.813164 
L 37.769052 235.97919 
L 37.769052 236.188242 
L 37.881457 236.262111 
L 37.769052 236.446421 
L 37.769052 236.98142 
L 37.881457 237.036648 
L 37.656648 237.252269 
L 37.769052 237.424393 
L 37.656648 237.479308 
L 37.769052 237.540808 
L 37.769052 237.725296 
L 37.881457 237.811666 
L 37.769052 237.965009 
L 37.769052 238.647564 
L 37.881457 238.697002 
L 37.769052 238.745992 
L 37.656648 238.887273 
L 37.656648 238.887273 
" clip-path="url(#padb98f534f)" style="fill: none; stroke: #1f77b4; stroke-width: 2; stroke-linecap: square"/>
   </g>
   <g id="patch_3">
    <path d="M 30.749375 249.92 
L 30.749375 7.2 
" style="fill: none; stroke: #000000; stroke-width: 0.8; stroke-linejoin: miter; stroke-linecap: square"/>
   </g>
   <g id="patch_4">
    <path d="M 30.749375 249.92 
L 182.709375 249.92 
" style="fill: none; stroke: #000000; stroke-width: 0.8; stroke-linejoin: miter; stroke-linecap: square"/>
   </g>
  </g>
  <g id="axes_2">
   <g id="patch_5">
    <path d="M 193.509375 249.92 
L 345.469375 249.92 
L 345.469375 7.2 
L 193.509375 7.2 
z
" style="fill: #ffffff"/>
   </g>
   <g id="matplotlib.axis_3">
    <g id="text_3">
     <!-- Conductivity [mS/cm] -->
     <g transform="translate(193.514219 270.557813) scale(0.14 -0.14)">
      <defs>
       <path id="DejaVuSans-6f" d="M 1959 3097 
Q 1497 3097 1228 2736 
Q 959 2375 959 1747 
Q 959 1119 1226 758 
Q 1494 397 1959 397 
Q 2419 397 2687 759 
Q 2956 1122 2956 1747 
Q 2956 2369 2687 2733 
Q 2419 3097 1959 3097 
z
M 1959 3584 
Q 2709 3584 3137 3096 
Q 3566 2609 3566 1747 
Q 3566 888 3137 398 
Q 2709 -91 1959 -91 
Q 1206 -91 779 398 
Q 353 888 353 1747 
Q 353 2609 779 3096 
Q 1206 3584 1959 3584 
z
" transform="scale(0.015625)"/>
       <path id="DejaVuSans-6e" d="M 3513 2113 
L 3513 0 
L 2938 0 
L 2938 2094 
Q 2938 2591 2744 2837 
Q 2550 3084 2163 3084 
Q 1697 3084 1428 2787 
Q 1159 2491 1159 1978 
L 1159 0 
L 581 0 
L 581 3500 
L 1159 3500 
L 1159 2956 
Q 1366 3272 1645 3428 
Q 1925 3584 2291 3584 
Q 2894 3584 3203 3211 
Q 3513 2838 3513 2113 
z
" transform="scale(0.015625)"/>
       <path id="DejaVuSans-64" d="M 2906 2969 
L 2906 4863 
L 3481 4863 
L 3481 0 
L 2906 0 
L 2906 525 
Q 2725 213 2448 61 
Q 2172 -91 1784 -91 
Q 1150 -91 751 415 
Q 353 922 353 1747 
Q 353 2572 751 3078 
Q 1150 3584 1784 3584 
Q 2172 3584 2448 3432 
Q 2725 3281 2906 2969 
z
M 947 1747 
Q 947 1113 1208 752 
Q 1469 391 1925 391 
Q 2381 391 2643 752 
Q 2906 1113 2906 1747 
Q 2906 2381 2643 2742 
Q 2381 3103 1925 3103 
Q 1469 3103 1208 2742 
Q 947 2381 947 1747 
z
" transform="scale(0.015625)"/>
       <path id="DejaVuSans-63" d="M 3122 3366 
L 3122 2828 
Q 2878 2963 2633 3030 
Q 2388 3097 2138 3097 
Q 1578 3097 1268 2742 
Q 959 2388 959 1747 
Q 959 1106 1268 751 
Q 1578 397 2138 397 
Q 2388 397 2633 464 
Q 2878 531 3122 666 
L 3122 134 
Q 2881 22 2623 -34 
Q 2366 -91 2075 -91 
Q 1284 -91 818 406 
Q 353 903 353 1747 
Q 353 2603 823 3093 
Q 1294 3584 2113 3584 
Q 2378 3584 2631 3529 
Q 2884 3475 3122 3366 
z
" transform="scale(0.015625)"/>
       <path id="DejaVuSans-69" d="M 603 3500 
L 1178 3500 
L 1178 0 
L 603 0 
L 603 3500 
z
M 603 4863 
L 1178 4863 
L 1178 4134 
L 603 4134 
L 603 4863 
z
" transform="scale(0.015625)"/>
       <path id="DejaVuSans-76" d="M 191 3500 
L 800 3500 
L 1894 563 
L 2988 3500 
L 3597 3500 
L 2284 0 
L 1503 0 
L 191 3500 
z
" transform="scale(0.015625)"/>
       <path id="DejaVuSans-79" d="M 2059 -325 
Q 1816 -950 1584 -1140 
Q 1353 -1331 966 -1331 
L 506 -1331 
L 506 -850 
L 844 -850 
Q 1081 -850 1212 -737 
Q 1344 -625 1503 -206 
L 1606 56 
L 191 3500 
L 800 3500 
L 1894 763 
L 2988 3500 
L 3597 3500 
L 2059 -325 
z
" transform="scale(0.015625)"/>
       <path id="DejaVuSans-53" d="M 3425 4513 
L 3425 3897 
Q 3066 4069 2747 4153 
Q 2428 4238 2131 4238 
Q 1616 4238 1336 4038 
Q 1056 3838 1056 3469 
Q 1056 3159 1242 3001 
Q 1428 2844 1947 2747 
L 2328 2669 
Q 3034 2534 3370 2195 
Q 3706 1856 3706 1288 
Q 3706 609 3251 259 
Q 2797 -91 1919 -91 
Q 1588 -91 1214 -16 
Q 841 59 441 206 
L 441 856 
Q 825 641 1194 531 
Q 1563 422 1919 422 
Q 2459 422 2753 634 
Q 3047 847 3047 1241 
Q 3047 1584 2836 1778 
Q 2625 1972 2144 2069 
L 1759 2144 
Q 1053 2284 737 2584 
Q 422 2884 422 3419 
Q 422 4038 858 4394 
Q 1294 4750 2059 4750 
Q 2388 4750 2728 4690 
Q 3069 4631 3425 4513 
z
" transform="scale(0.015625)"/>
       <path id="DejaVuSans-2f" d="M 1625 4666 
L 2156 4666 
L 531 -594 
L 0 -594 
L 1625 4666 
z
" transform="scale(0.015625)"/>
      </defs>
      <use xlink:href="#DejaVuSans-43"/>
      <use xlink:href="#DejaVuSans-6f" transform="translate(69.824219 0)"/>
      <use xlink:href="#DejaVuSans-6e" transform="translate(131.005859 0)"/>
      <use xlink:href="#DejaVuSans-64" transform="translate(194.384766 0)"/>
      <use xlink:href="#DejaVuSans-75" transform="translate(257.861328 0)"/>
      <use xlink:href="#DejaVuSans-63" transform="translate(321.240234 0)"/>
      <use xlink:href="#DejaVuSans-74" transform="translate(376.220703 0)"/>
      <use xlink:href="#DejaVuSans-69" transform="translate(415.429688 0)"/>
      <use xlink:href="#DejaVuSans-76" transform="translate(443.212891 0)"/>
      <use xlink:href="#DejaVuSans-69" transform="translate(502.392578 0)"/>
      <use xlink:href="#DejaVuSans-74" transform="translate(530.175781 0)"/>
      <use xlink:href="#DejaVuSans-79" transform="translate(569.384766 0)"/>
      <use xlink:href="#DejaVuSans-20" transform="translate(628.564453 0)"/>
      <use xlink:href="#DejaVuSans-5b" transform="translate(660.351562 0)"/>
      <use xlink:href="#DejaVuSans-6d" transform="translate(699.365234 0)"/>
      <use xlink:href="#DejaVuSans-53" transform="translate(796.777344 0)"/>
      <use xlink:href="#DejaVuSans-2f" transform="translate(860.253906 0)"/>
      <use xlink:href="#DejaVuSans-63" transform="translate(893.945312 0)"/>
      <use xlink:href="#DejaVuSans-6d" transform="translate(948.925781 0)"/>
      <use xlink:href="#DejaVuSans-5d" transform="translate(1046.337891 0)"/>
     </g>
    </g>
   </g>
   <g id="matplotlib.axis_4"/>
   <g id="line2d_2">
    <path d="M 207.049183 18.232727 
L 207.164309 18.410081 
L 205.358924 18.710094 
L 205.679184 18.905901 
L 204.765851 19.028201 
L 204.882348 19.077155 
L 204.765851 19.138479 
L 205.309501 19.340396 
L 205.204953 19.46898 
L 206.455051 19.634124 
L 206.396802 19.768807 
L 206.940453 19.909561 
L 206.940453 20.087087 
L 207.484103 20.154334 
L 207.463194 20.221755 
L 207.463194 20.276807 
L 208.614896 20.429769 
L 208.027754 20.564438 
L 209.156874 20.699107 
L 209.115054 20.772626 
L 209.040068 20.833776 
L 208.027754 21.078566 
L 208.027754 21.158167 
L 207.484103 21.311145 
L 207.440611 21.439701 
L 206.853469 21.586565 
L 207.463194 21.678378 
L 207.503519 21.813047 
L 208.533911 22.045625 
L 207.521596 22.137437 
L 208.027754 22.321061 
L 208.027754 22.737439 
L 209.115054 22.872108 
L 209.076222 22.94547 
L 209.040068 23.178032 
L 209.546225 23.263746 
L 209.040068 23.349461 
L 209.076222 23.416883 
L 209.156874 23.490228 
L 208.614896 23.594409 
L 208.614896 23.704495 
L 209.721434 23.888138 
L 209.658705 23.943364 
L 209.115054 23.998417 
L 209.600457 24.133086 
L 209.600457 24.500334 
L 209.115054 24.628906 
L 209.156874 24.91044 
L 208.592314 24.959569 
L 209.156874 25.100335 
L 209.006324 25.314621 
L 209.006324 25.381869 
L 208.027754 25.528907 
L 208.027754 26.606262 
L 208.533911 26.685879 
L 207.503519 26.839014 
L 207.463194 26.967586 
L 206.853469 27.071593 
L 206.898633 27.114451 
L 207.463194 27.230827 
L 206.940453 27.322639 
L 206.979285 27.365496 
L 207.049183 27.653302 
L 207.015439 27.800166 
L 208.027754 27.996159 
L 208.027754 28.326821 
L 207.503519 28.381874 
L 208.027754 28.436926 
L 207.521596 28.504348 
L 209.040068 28.87177 
L 209.040068 28.93292 
L 210.124691 29.153304 
L 210.202355 29.257485 
L 209.600457 29.337128 
L 210.124691 29.386031 
L 210.052383 29.441109 
L 210.052383 29.502433 
L 209.040068 29.686057 
L 209.040068 29.863557 
L 208.027754 30.07787 
L 208.027754 30.169856 
L 208.533911 30.206589 
L 208.027754 30.267766 
L 208.027754 30.439194 
L 206.509282 30.622985 
L 206.509282 30.714794 
L 204.99081 30.935177 
L 205.496967 30.990403 
L 205.406582 31.045455 
L 204.358113 31.265838 
L 204.358113 31.321094 
L 204.222201 31.419005 
L 202.460023 31.590403 
L 202.460023 31.645658 
L 201.953866 31.780298 
L 201.953866 31.841448 
L 201.503949 32.031344 
L 201.503949 32.392697 
L 202.78541 32.613081 
L 202.261176 32.753992 
L 202.261176 33.041829 
L 202.047599 33.096881 
L 204.222201 33.249987 
L 204.075833 33.305038 
L 205.769513 33.57455 
L 205.853152 33.684829 
L 205.309501 33.813433 
L 205.204953 34.168627 
L 205.092041 34.236048 
L 206.334073 34.395281 
L 205.769513 34.456431 
L 205.679184 34.511658 
L 204.640393 34.628034 
L 205.406582 34.799495 
L 203.67855 35.111833 
L 203.309645 35.246468 
L 203.309645 35.30786 
L 202.78541 35.418105 
L 203.1349 35.460996 
L 203.1349 35.564969 
L 204.222201 35.705944 
L 204.075833 35.785526 
L 204.484653 36.048942 
L 203.472338 36.116189 
L 204.882348 36.342845 
L 204.765851 36.410266 
L 204.640393 36.551208 
L 206.898633 36.851207 
L 206.940453 36.967619 
L 206.455051 37.102427 
L 206.979285 37.279954 
L 205.930816 37.494414 
L 205.853152 37.672114 
L 205.853152 37.776121 
L 206.396802 37.874242 
L 206.334073 37.923159 
L 205.309501 38.058003 
L 205.406582 38.229469 
L 204.882348 38.351905 
L 204.882348 38.486747 
L 203.833879 38.725597 
L 204.222201 38.780861 
L 203.1349 39.062531 
L 203.67855 39.178908 
L 203.67855 39.23396 
L 203.511273 39.295284 
L 203.67855 39.454518 
L 203.67855 39.509783 
L 204.358113 39.748634 
L 203.1349 39.944589 
L 203.67855 40.012012 
L 202.78541 40.208005 
L 203.833879 40.379608 
L 203.309645 40.502082 
L 204.882348 40.820724 
L 204.882348 41.114802 
L 203.309645 41.39651 
L 203.309645 41.457833 
L 204.484653 41.67212 
L 204.484653 41.727347 
L 204.99081 41.788671 
L 204.484653 41.855917 
L 204.99081 42.027562 
L 204.765851 42.137841 
L 204.765851 42.395114 
L 204.882348 42.578911 
L 204.99081 42.695332 
L 203.833879 42.879088 
L 205.309501 43.148775 
L 204.882348 43.209924 
L 205.406582 43.344768 
L 205.406582 43.657183 
L 204.882348 43.755222 
L 205.496967 43.877869 
L 205.406582 44.006487 
L 205.496967 44.061668 
L 204.882348 44.226999 
L 204.882348 44.282225 
L 204.765851 44.435408 
L 205.930816 44.607011 
L 206.003124 44.729438 
L 205.496967 44.790763 
L 207.015439 44.913236 
L 206.979285 44.96851 
L 205.309501 45.097035 
L 205.204953 45.201217 
L 205.309501 45.37282 
L 205.309501 45.421775 
L 205.853152 45.575085 
L 205.853152 45.636282 
L 205.309501 45.764933 
L 205.769513 45.936582 
L 205.853152 46.059056 
L 204.765851 46.273517 
L 204.765851 46.414458 
L 204.222201 46.475782 
L 205.309501 46.745294 
L 204.765851 46.959804 
L 205.309501 47.027178 
L 203.67855 47.321477 
L 204.765851 47.462319 
L 204.882348 47.597038 
L 204.882348 47.731931 
L 204.358113 47.799303 
L 205.204953 48.001618 
L 205.204953 48.142509 
L 205.769513 48.191463 
L 205.309501 48.24664 
L 204.075833 48.350872 
L 205.204953 48.455054 
L 205.309501 48.559236 
L 205.853152 48.620437 
L 204.765851 48.7615 
L 206.455051 48.951395 
L 204.640393 49.270036 
L 204.640393 49.33136 
L 204.504899 49.435542 
L 205.092041 49.539775 
L 204.504899 49.619339 
L 204.640393 49.668469 
L 204.765851 49.790943 
L 203.833879 49.931936 
L 204.765851 50.017771 
L 204.358113 50.09129 
L 204.358113 50.170906 
L 204.075833 50.250523 
L 204.222201 50.324217 
L 204.640393 50.52021 
L 204.640393 50.624391 
L 204.504899 50.722476 
L 204.640393 50.771659 
L 205.309501 50.936936 
L 205.406582 51.255806 
L 205.930816 51.40279 
L 205.930816 51.470211 
L 206.334073 51.647912 
L 205.679184 51.801223 
L 205.769513 52.058541 
L 206.455051 52.181189 
L 206.396802 52.542744 
L 206.334073 52.64687 
L 205.769513 52.806276 
L 205.769513 52.861502 
L 204.765851 53.069864 
L 203.511273 53.272129 
L 203.67855 53.437637 
L 202.591249 53.682759 
L 202.382153 53.805407 
L 202.382153 53.854421 
L 201.253033 54.04449 
L 201.817593 54.130205 
L 201.503949 54.179275 
L 201.503949 54.308081 
L 202.047599 54.455118 
L 204.222201 55.153841 
L 204.765851 55.270391 
L 204.765851 55.325444 
L 203.1349 55.601462 
L 203.1349 55.668824 
L 203.67855 55.742342 
L 203.309645 55.877246 
L 203.833879 55.944607 
L 203.67855 55.999833 
L 203.67855 56.171497 
L 203.511273 56.318474 
L 203.511273 56.373824 
L 203.67855 56.435086 
L 204.222201 56.551402 
L 203.309645 56.729277 
L 203.833879 56.796699 
L 203.67855 56.864121 
L 203.67855 56.931542 
L 203.511273 56.992865 
L 204.222201 57.146 
L 203.67855 57.201228 
L 205.309501 57.323877 
L 204.222201 57.507675 
L 204.765851 57.636421 
L 204.640393 57.697744 
L 204.075833 57.851053 
L 204.222201 57.979799 
L 204.222201 58.041186 
L 203.67855 58.157562 
L 203.67855 58.402793 
L 204.075833 58.476313 
L 202.591249 58.789032 
L 202.591249 58.850357 
L 203.1349 58.917842 
L 202.591249 58.979102 
L 203.67855 59.162965 
L 203.67855 59.230322 
L 202.946713 59.33474 
L 203.1349 59.389728 
L 203.67855 59.444955 
L 203.1349 59.500247 
L 201.503949 59.71464 
L 202.047599 59.843386 
L 202.047599 59.898613 
L 201.503949 59.978402 
L 202.78541 60.192865 
L 201.736942 60.321675 
L 202.78541 60.493453 
L 201.503949 60.848958 
L 201.736942 60.91638 
L 202.047599 60.965333 
L 200.960298 61.149375 
L 201.212707 61.223003 
L 201.212707 61.284219 
L 201.736942 61.345476 
L 201.503949 61.412897 
L 201.503949 61.504883 
L 200.416648 61.639968 
L 200.960298 61.768644 
L 200.688473 61.830038 
L 201.503949 62.056799 
L 201.503949 62.265231 
L 200.960298 62.393975 
L 201.503949 62.522652 
L 201.503949 62.583976 
L 200.960298 62.694429 
L 201.503949 62.853905 
L 201.503949 62.958017 
L 202.591249 63.148159 
L 202.047599 63.270736 
L 202.591249 63.326033 
L 201.503949 63.510006 
L 201.503949 63.626555 
L 202.047599 63.730665 
L 201.736942 63.847216 
L 202.78541 64.024989 
L 202.591249 64.184396 
L 202.78541 64.239623 
L 202.591249 64.300876 
L 204.222201 64.515511 
L 203.472338 64.632132 
L 203.978495 64.74234 
L 203.978495 64.809762 
L 203.833879 64.864987 
L 204.765851 65.067426 
L 204.222201 65.159412 
L 204.358113 65.214465 
L 204.358113 65.374047 
L 203.472338 65.466106 
L 203.978495 65.527183 
L 203.978495 65.588507 
L 203.67855 65.797044 
L 203.978495 65.987185 
L 203.833879 66.091468 
L 204.358113 66.201747 
L 203.833879 66.25095 
L 204.358113 66.312273 
L 204.882348 66.379621 
L 203.67855 66.539029 
L 204.222201 66.661752 
L 203.833879 66.772132 
L 204.484653 66.833455 
L 204.358113 66.900876 
L 204.358113 67.023524 
L 203.833879 67.078826 
L 204.882348 67.281089 
L 204.882348 67.458888 
L 205.406582 67.581536 
L 205.309501 67.630666 
L 204.222201 67.832931 
L 204.358113 67.894332 
L 204.882348 67.986242 
L 204.358113 68.115159 
L 204.882348 68.23781 
L 204.882348 68.31133 
L 204.358113 68.366557 
L 204.882348 68.433977 
L 204.765851 68.48928 
L 204.222201 68.556625 
L 204.765851 68.611852 
L 204.640393 68.69774 
L 204.222201 68.746695 
L 204.765851 68.851128 
L 203.833879 69.041197 
L 204.358113 69.18841 
L 204.358113 69.310981 
L 204.882348 69.464293 
L 203.67855 69.672828 
L 204.222201 69.832314 
L 203.67855 69.991817 
L 204.222201 70.053142 
L 203.833879 70.194083 
L 204.358113 70.273874 
L 203.833879 70.408794 
L 203.833879 70.463941 
L 203.1349 70.531538 
L 203.67855 70.592864 
L 200.688473 70.917776 
L 200.960298 71.040597 
L 200.960298 71.175521 
L 202.047599 71.292071 
L 201.503949 71.426834 
L 201.503949 71.549739 
L 202.591249 71.770471 
L 202.047599 71.893038 
L 202.047599 71.95436 
L 204.075833 72.242688 
L 203.67855 72.383805 
L 205.930816 72.696607 
L 205.853152 72.948089 
L 204.765851 73.113595 
L 204.882348 73.162806 
L 204.882348 73.22413 
L 204.765851 73.383536 
L 204.882348 73.432581 
L 204.358113 73.549131 
L 204.882348 73.610456 
L 204.765851 73.67178 
L 203.1349 73.831271 
L 203.1349 73.886499 
L 203.309645 73.947822 
L 202.78541 74.015334 
L 203.67855 74.137983 
L 203.1349 74.193209 
L 203.67855 74.248434 
L 203.67855 74.377265 
L 203.511273 74.530577 
L 206.455051 74.812807 
L 205.406582 75.015162 
L 205.406582 75.082584 
L 204.882348 75.137811 
L 206.940453 75.450704 
L 206.396802 75.610024 
L 206.455051 75.665336 
L 206.979285 75.714551 
L 206.455051 75.775877 
L 206.455051 75.978315 
L 205.930816 76.100876 
L 205.930816 76.186765 
L 204.765851 76.327966 
L 204.765851 76.43833 
L 203.67855 76.548608 
L 204.075833 76.597825 
L 204.765851 76.78798 
L 205.309501 76.929096 
L 204.882348 76.996518 
L 206.396802 77.254187 
L 206.334073 77.376922 
L 206.940453 77.579273 
L 206.940453 77.689724 
L 207.463194 77.793995 
L 206.940453 77.910368 
L 206.940453 78.131364 
L 207.503519 78.309238 
L 207.503519 78.376834 
L 206.940453 78.54234 
L 206.898633 78.597568 
L 207.463194 78.714117 
L 206.396802 78.910458 
L 206.455051 79.211155 
L 205.930816 79.358368 
L 207.463194 79.634501 
L 207.463194 79.714119 
L 209.721434 80.008718 
L 209.600457 80.131458 
L 210.202355 80.266291 
L 210.202355 80.370564 
L 211.17316 80.573087 
L 211.17316 80.70793 
L 211.415114 80.824574 
L 210.850554 80.873703 
L 211.289656 80.922832 
L 212.544234 81.125271 
L 212.376957 81.1805 
L 212.544234 81.229531 
L 213.464258 81.425874 
L 212.920607 81.560814 
L 212.920607 81.628409 
L 212.544234 81.708293 
L 213.108794 81.830754 
L 213.108794 81.916642 
L 214.237914 82.09461 
L 214.007908 82.156015 
L 214.802474 82.364551 
L 214.551559 82.456534 
L 215.638859 82.757325 
L 215.638859 82.812455 
L 216.72616 82.972134 
L 216.18251 83.106879 
L 216.18251 83.2359 
L 217.463972 83.505837 
L 218.189834 83.622387 
L 218.189834 83.68981 
L 219.560909 84.15009 
L 220.085143 84.28501 
L 219.883515 84.548876 
L 219.988063 84.598006 
L 219.883515 84.640863 
L 221.577195 84.874135 
L 221.619014 84.935459 
L 222.706315 85.138006 
L 222.182081 85.279036 
L 223.754784 85.432527 
L 223.835435 85.499951 
L 224.337266 85.549079 
L 228.142819 85.788458 
L 238.957579 86.377403 
L 244.199922 86.635096 
L 257.305781 87.193571 
L 265.654698 87.727341 
L 270.411639 87.97873 
L 273.265804 88.395983 
L 273.265804 88.549283 
L 274.081279 88.653632 
L 273.809454 88.721228 
L 273.265804 88.776456 
L 273.557045 88.831786 
L 274.334358 89.015746 
L 274.081279 89.126193 
L 274.081279 89.230544 
L 272.508576 89.475898 
L 272.508576 89.586444 
L 271.460108 89.801218 
L 271.460108 89.942483 
L 272.309729 90.059012 
L 271.803572 90.12032 
L 273.032811 90.292061 
L 272.508576 90.353447 
L 273.557045 90.470092 
L 273.265804 90.537682 
L 273.265804 90.617285 
L 273.809454 90.67268 
L 273.265804 90.721629 
L 273.032811 90.905654 
L 273.265804 91.022367 
L 273.265804 91.083683 
L 275.77496 91.396534 
L 275.440405 91.451751 
L 277.071357 91.69118 
L 276.90408 91.746284 
L 277.46864 91.887669 
L 276.90408 91.954979 
L 277.615007 92.010093 
L 276.358987 92.169778 
L 276.358987 92.341726 
L 275.85283 92.409145 
L 277.75092 92.76517 
L 277.877459 92.851119 
L 276.527706 92.973866 
L 276.68554 93.022881 
L 276.212038 93.15789 
L 276.212038 93.231694 
L 275.193292 93.575402 
L 275.457395 93.673372 
L 275.265034 93.716516 
L 277.016992 93.857513 
L 275.738536 94.029457 
L 276.082901 94.201337 
L 275.193292 94.299481 
L 275.376447 94.360914 
L 275.376447 94.416138 
L 277.159042 94.907246 
L 276.374805 95.005388 
L 276.83351 95.048238 
L 276.83351 95.250828 
L 277.417316 95.385838 
L 277.417316 95.447159 
L 276.374805 95.674327 
L 276.83351 95.772696 
L 275.457395 95.932264 
L 275.9161 95.981104 
L 276.374805 96.128475 
L 276.527706 96.226725 
L 275.638097 96.386416 
L 275.638097 96.496866 
L 275.376447 96.619681 
L 276.671614 96.809783 
L 276.527706 96.895663 
L 276.972511 96.950889 
L 276.527706 97.000016 
L 276.082901 97.092285 
L 276.082901 97.214812 
L 276.972511 97.362312 
L 276.239891 97.448082 
L 276.527706 97.491109 
L 277.417316 97.626121 
L 277.292215 97.828831 
L 277.292215 97.945261 
L 278.209625 98.086543 
L 278.106046 98.129396 
L 277.632544 98.276894 
L 277.632544 98.405695 
L 277.159042 98.528515 
L 277.292215 98.589839 
L 276.83351 98.65116 
L 277.292215 98.700288 
L 277.292215 98.755516 
L 276.038421 98.988895 
L 275.738536 99.117811 
L 276.374805 99.203578 
L 276.212038 99.246609 
L 276.374805 99.344867 
L 275.638097 99.522898 
L 275.638097 99.664121 
L 276.972511 100.056836 
L 276.082901 100.148991 
L 276.972511 100.277903 
L 276.972511 100.321056 
L 277.417316 100.369888 
L 276.972511 100.431385 
L 276.972511 100.609431 
L 279.127035 100.891829 
L 278.66833 100.934805 
L 278.66833 101.032818 
L 280.044445 101.210985 
L 280.000054 101.26023 
L 280.000054 101.370678 
L 279.05305 101.517933 
L 279.127035 101.82488 
L 279.526552 101.874004 
L 278.579548 102.045771 
L 280.044445 102.303603 
L 280.000054 102.414229 
L 279.952704 102.512483 
L 279.463419 102.573804 
L 279.902088 102.623055 
L 279.902088 102.751844 
L 279.789609 102.948353 
L 279.72688 103.083363 
L 280.29144 103.157055 
L 280.246275 103.218376 
L 280.197347 103.384223 
L 282.696957 103.770965 
L 282.754975 104.047261 
L 282.696957 104.722506 
L 283.25538 104.857517 
L 283.25538 105.084684 
L 282.594845 105.164467 
L 282.594845 105.354872 
L 282.032167 105.508352 
L 283.866987 105.784652 
L 283.76913 106.011825 
L 282.594845 106.30032 
L 282.594845 106.466043 
L 281.42056 106.680966 
L 281.42056 106.865283 
L 282.032167 107.000421 
L 282.032167 107.067883 
L 282.643774 107.1353 
L 282.594845 107.202892 
L 280.29144 107.540511 
L 280.246275 107.724697 
L 280.29144 107.78615 
L 282.007703 107.994843 
L 282.007703 108.197443 
L 282.643774 108.265033 
L 282.594845 108.320255 
L 282.594845 108.387848 
L 281.42056 108.70107 
L 281.42056 108.903672 
L 283.866987 109.247527 
L 283.76913 109.321087 
L 283.76913 109.664847 
L 283.181987 109.824421 
L 287.536627 110.444751 
L 287.536627 110.518441 
L 286.925021 110.586035 
L 287.536627 110.641261 
L 285.530557 110.942127 
L 285.530557 110.997392 
L 285.701807 111.077182 
L 285.37248 111.224702 
L 285.530557 111.304492 
L 286.1177 111.384281 
L 283.866987 111.783399 
L 283.76913 112.133391 
L 284.356272 112.262623 
L 284.24336 112.336177 
L 284.356272 112.409695 
L 285.93704 112.667705 
L 285.93704 112.913345 
L 286.1177 113.017557 
L 286.1177 113.072922 
L 287.066161 113.177448 
L 287.066161 113.287761 
L 287.944365 113.410717 
L 287.400715 113.48427 
L 287.944365 113.552 
L 287.400715 113.69311 
L 287.400715 113.766802 
L 288.195281 113.834393 
L 287.630721 113.883382 
L 287.879127 113.932649 
L 285.37248 114.356194 
L 285.37248 114.436296 
L 285.226113 114.583676 
L 285.226113 114.669426 
L 285.37248 114.737156 
L 284.943415 114.88454 
L 284.943415 115.00736 
L 284.356272 115.124081 
L 284.943415 115.185404 
L 284.356272 115.308222 
L 284.80792 115.35735 
L 284.24336 115.42494 
L 284.80792 115.49863 
L 284.80792 115.627548 
L 285.769763 115.879453 
L 285.769763 116.002128 
L 287.066161 116.186268 
L 287.066161 116.241633 
L 288.235606 116.652967 
L 288.235606 116.714604 
L 288.759841 116.782196 
L 288.235606 116.8986 
L 288.488016 116.960097 
L 288.195281 117.107477 
L 288.759841 117.236533 
L 288.759841 117.291788 
L 288.488016 117.426802 
L 288.488016 117.549761 
L 289.031666 117.691043 
L 289.031666 117.752221 
L 287.400715 118.016316 
L 287.400715 118.13318 
L 286.313414 118.311221 
L 286.313414 118.440169 
L 285.769763 118.64292 
L 285.614435 118.70442 
L 286.313414 118.839435 
L 286.313414 118.968524 
L 286.857064 119.103539 
L 286.857064 119.164891 
L 287.400715 119.293952 
L 286.857064 119.343077 
L 287.400715 119.404577 
L 288.488016 119.588569 
L 288.488016 119.711387 
L 289.575316 119.9018 
L 289.575316 119.994093 
L 289.031666 120.04307 
L 289.575316 120.098293 
L 290.662617 120.288697 
L 290.662617 120.356434 
L 291.206268 120.417786 
L 289.888961 120.651197 
L 289.888961 120.792481 
L 290.118967 120.915151 
L 290.118967 121.179251 
L 292.147201 121.535498 
L 291.749918 121.59699 
L 292.293568 121.750467 
L 291.749918 121.867336 
L 291.749918 121.928686 
L 292.293568 121.996104 
L 291.749918 122.112677 
L 292.953715 122.395544 
L 293.380869 122.512265 
L 293.92452 122.64118 
L 294.002184 122.708626 
L 294.526418 122.76385 
L 294.46817 122.812977 
L 292.953715 123.107917 
L 293.568335 123.181606 
L 293.47795 123.236827 
L 293.568335 123.304422 
L 294.526418 123.507198 
L 293.47795 123.70385 
L 294.074492 123.85718 
L 294.002184 123.986271 
L 293.47795 124.152269 
L 293.47795 124.207342 
L 292.837219 124.25037 
L 292.953715 124.459227 
L 292.429481 124.514474 
L 294.002184 124.827706 
L 294.002184 124.938326 
L 294.46817 125.018118 
L 294.405441 125.116373 
L 294.526418 125.239191 
L 295.574887 125.417412 
L 295.555471 125.693711 
L 297.671824 125.914961 
L 297.671824 125.982553 
L 298.629908 126.148405 
L 298.123751 126.203631 
L 298.629908 126.33255 
L 298.273723 126.461637 
L 298.196059 126.707276 
L 298.196059 126.80553 
L 298.720293 126.872971 
L 298.629908 126.934468 
L 298.720293 127.321549 
L 296.623356 127.628683 
L 296.623356 127.690024 
L 295.574887 127.843661 
L 295.555471 128.26142 
L 296.099121 128.37814 
L 296.099121 128.507232 
L 295.555471 128.580919 
L 296.099121 128.746923 
L 296.099121 128.875677 
L 295.534561 129.016961 
L 298.273723 129.397961 
L 298.123751 129.60057 
L 299.136065 129.834007 
L 299.244527 130.147248 
L 299.642222 130.282418 
L 300.654537 130.503663 
L 300.654537 130.571094 
L 300.50269 130.626478 
L 301.666852 130.841287 
L 299.642222 131.062693 
L 299.768762 131.124016 
L 301.160694 131.425045 
L 300.81723 131.548037 
L 301.666852 131.676954 
L 301.160694 131.799766 
L 301.160694 131.861261 
L 300.654537 131.916486 
L 300.81723 131.984078 
L 299.904674 132.229726 
L 300.292996 132.279017 
L 300.991975 132.346611 
L 300.81723 132.395739 
L 300.654537 132.518393 
L 302.173009 132.801121 
L 302.173009 132.874985 
L 300.81723 133.089791 
L 301.666852 133.366263 
L 301.341465 133.409294 
L 303.185323 133.655095 
L 303.185323 133.716592 
L 303.691481 133.784189 
L 303.185323 133.839412 
L 303.691481 133.894635 
L 303.185323 133.956132 
L 303.201651 134.011363 
L 303.185323 134.220246 
L 302.914168 134.281566 
L 301.865699 134.459783 
L 301.666852 134.607166 
L 302.173009 134.76708 
L 302.173009 134.81621 
L 300.654537 135.098782 
L 299.524119 135.338488 
L 299.524119 135.387616 
L 299.642222 135.442841 
L 299.136065 135.491971 
L 299.244527 135.578022 
L 299.136065 135.707109 
L 298.629908 135.774706 
L 299.136065 135.909887 
L 298.629908 136.026604 
L 304.703795 136.843647 
L 304.703795 136.898875 
L 304.197638 136.954269 
L 305.71611 137.113845 
L 305.71611 137.218359 
L 306.728424 137.470088 
L 306.222267 137.574615 
L 306.374114 137.64221 
L 307.234582 137.728438 
L 306.728424 137.783663 
L 306.728424 137.838724 
L 303.691481 138.453161 
L 304.197638 138.65002 
L 303.438402 138.821793 
L 302.914168 138.98154 
L 304.197638 139.13536 
L 303.962636 139.209052 
L 303.691481 139.368626 
L 303.438402 139.442665 
L 304.197638 139.510086 
L 303.691481 139.577679 
L 304.197638 139.639 
L 303.691481 139.71286 
L 304.703795 139.860232 
L 304.197638 139.915455 
L 304.486871 139.958482 
L 305.011105 140.075375 
L 305.011105 140.179898 
L 304.197638 140.401149 
L 305.884829 140.76351 
L 305.71611 140.886502 
L 307.234582 141.181443 
L 307.234582 141.23667 
L 308.331256 141.427081 
L 308.246896 141.574288 
L 308.753054 141.635963 
L 308.680745 141.703731 
L 308.680745 141.869407 
L 309.20498 141.918534 
L 308.680745 141.967662 
L 308.246896 142.109125 
L 308.156511 142.385594 
L 307.234582 142.459283 
L 307.234582 142.637502 
L 306.222267 142.889589 
L 306.222267 142.957181 
L 305.884829 143.092192 
L 305.884829 143.153683 
L 306.222267 143.362721 
L 306.222267 143.417765 
L 306.8634 143.553121 
L 306.728424 143.663733 
L 306.728424 143.743515 
L 307.740739 143.976938 
L 307.234582 144.149052 
L 308.156511 144.345563 
L 308.156511 144.400959 
L 309.729214 144.646772 
L 309.765368 145.003024 
L 310.253448 145.144474 
L 309.729214 145.273388 
L 309.729214 145.359446 
L 311.301917 145.58069 
L 311.301917 145.758903 
L 312.408634 145.949316 
L 312.87462 146.06012 
L 312.802312 146.109237 
L 312.802312 146.225954 
L 312.296155 146.299466 
L 313.398854 146.545445 
L 313.495935 146.60067 
L 312.408634 146.809721 
L 312.350386 146.870858 
L 313.398854 147.067723 
L 313.398854 147.135315 
L 312.87462 147.258122 
L 312.87462 147.381127 
L 313.923089 147.540877 
L 313.308469 147.66387 
L 313.308469 147.72519 
L 312.87462 147.884927 
L 312.952284 147.940334 
L 311.864984 148.143113 
L 314.826941 148.511914 
L 314.826941 148.579505 
L 315.333098 148.739252 
L 314.971557 148.867983 
L 315.839256 149.126342 
L 314.971557 149.285898 
L 314.971557 149.470208 
L 315.495792 149.593375 
L 316.54426 149.789859 
L 316.54426 149.974354 
L 317.068495 150.084972 
L 316.757837 150.23253 
L 316.757837 150.300124 
L 316.987843 150.385822 
L 316.757837 150.42904 
L 317.301488 150.533567 
L 317.301488 150.594876 
L 316.757837 150.730064 
L 316.757837 150.79156 
L 317.845138 150.982159 
L 317.592729 151.080403 
L 317.845138 151.246438 
L 317.845138 151.295374 
L 317.301488 151.344691 
L 317.845138 151.479879 
L 317.845138 151.535281 
L 317.301488 151.713496 
L 316.757837 151.867148 
L 317.068495 151.934745 
L 316.214187 152.125153 
L 318.388789 152.438722 
L 317.845138 152.493752 
L 316.757837 152.678242 
L 318.388789 152.881182 
L 317.845138 152.985335 
L 318.116963 153.102054 
L 317.592729 153.169817 
L 319.165432 153.575372 
L 318.932439 153.624494 
L 319.165432 153.710555 
L 320.213901 153.815269 
L 320.01974 153.913518 
L 320.213901 153.999573 
L 319.165432 154.16523 
L 319.689666 154.214529 
L 321.262369 154.417498 
L 321.107041 154.485089 
L 321.650691 154.7246 
L 322.835072 154.841319 
L 322.737992 154.903012 
L 322.835072 154.964511 
L 322.835072 155.111694 
L 322.310838 155.253151 
L 322.737992 155.375973 
L 321.650691 155.560657 
L 322.194341 155.70804 
L 322.194341 155.812371 
L 322.737992 155.861496 
L 322.633444 155.916895 
L 322.068884 155.984687 
L 322.194341 156.052083 
L 321.650691 156.261155 
L 321.650691 156.396343 
L 322.068884 156.438979 
L 320.375204 156.549796 
L 320.939764 156.611489 
L 320.759104 156.789707 
L 321.650691 157.029219 
L 322.737992 157.250464 
L 322.068884 157.459515 
L 323.762564 157.717522 
L 323.825293 157.815949 
L 324.368943 157.938765 
L 324.368943 158.086321 
L 325.456244 158.270631 
L 324.912594 158.381426 
L 324.891684 158.516611 
L 325.456244 158.633333 
L 325.456244 158.786984 
L 325.999894 158.928269 
L 325.999894 159.303337 
L 325.456244 159.456989 
L 325.456244 159.622838 
L 324.912594 159.788858 
L 324.912594 159.844284 
L 324.368943 159.967076 
L 324.93201 160.108361 
L 324.93201 160.182224 
L 323.359307 160.464788 
L 323.359307 160.581684 
L 324.443929 160.888992 
L 324.443929 160.93202 
L 324.950087 161.054838 
L 324.407775 161.177834 
L 324.368943 161.337583 
L 325.456244 161.466465 
L 325.456244 161.54663 
L 325.999894 161.601855 
L 325.456244 161.77397 
L 325.456244 161.958663 
L 326.504713 162.210165 
L 324.950087 162.400958 
L 324.912594 162.530046 
L 323.762564 162.739102 
L 324.327124 162.824988 
L 323.825293 162.929512 
L 323.883541 162.972539 
L 323.883541 163.027936 
L 323.359307 163.150552 
L 323.431615 163.310677 
L 323.883541 163.47042 
L 323.883541 163.661004 
L 323.825293 163.771619 
L 323.281642 163.876146 
L 324.368943 163.980501 
L 323.825293 164.035897 
L 324.407775 164.152616 
L 323.883541 164.251048 
L 324.443929 164.367769 
L 323.937772 164.441635 
L 325.999894 164.804159 
L 325.999894 164.921049 
L 325.456244 165.111459 
L 325.456244 165.209885 
L 324.93201 165.33267 
L 324.950087 165.486529 
L 325.456244 165.566107 
L 324.912594 165.719966 
L 324.93201 165.892084 
L 326.543545 166.082871 
L 326.543545 166.125692 
L 327.087195 166.168722 
L 326.543545 166.217847 
L 326.543545 166.260877 
L 325.456244 166.469927 
L 326.468559 166.580548 
L 326.468559 166.648139 
L 326.974716 166.783108 
L 326.974716 166.936933 
L 327.630846 167.041498 
L 327.630846 167.133827 
L 328.174496 167.182955 
L 327.553181 167.336398 
L 327.553181 167.379425 
L 328.60165 167.484165 
L 328.493188 167.551756 
L 328.493188 167.613253 
L 327.480873 167.84687 
L 327.98703 167.957493 
L 327.98703 168.184839 
L 327.028947 168.356956 
L 327.028947 168.449114 
L 328.077416 168.621234 
L 327.480873 168.682731 
L 327.98703 168.824187 
L 327.480873 168.885684 
L 328.077416 169.05763 
L 328.077416 169.106932 
L 327.480873 169.205184 
L 327.630846 169.254488 
L 327.630846 169.309713 
L 328.077416 169.506608 
L 328.077416 169.561583 
L 327.028947 169.770675 
L 327.028947 170.053591 
L 327.553181 170.182463 
L 327.480873 170.231805 
L 326.468559 170.354798 
L 326.974716 170.410023 
L 326.504713 170.588453 
L 326.504713 170.735791 
L 325.980478 170.858784 
L 325.962401 171.02481 
L 325.456244 171.141532 
L 325.456244 171.203025 
L 325.980478 171.344313 
L 325.980478 171.442739 
L 326.504713 171.547266 
L 325.980478 171.602488 
L 326.504713 171.725483 
L 325.962401 171.860671 
L 325.999894 171.934543 
L 325.456244 172.081876 
L 325.456244 172.352468 
L 324.912594 172.53086 
L 324.93201 172.709078 
L 325.456244 172.905756 
L 325.456244 173.231746 
L 326.504713 173.286926 
L 325.980478 173.354517 
L 325.456244 173.409742 
L 327.028947 173.637253 
L 328.077416 173.753971 
L 328.077416 173.815245 
L 328.493188 173.883058 
L 327.98703 173.932351 
L 328.077416 173.98757 
L 328.077416 174.042963 
L 329.125884 174.245952 
L 329.125884 174.380871 
L 328.718146 174.509958 
L 329.261797 174.626893 
L 328.60165 174.731199 
L 328.718146 174.780765 
L 329.805447 174.928095 
L 329.261797 174.989591 
L 329.261797 175.050863 
L 330.174353 175.180175 
L 330.174353 175.241669 
L 329.505502 175.419655 
L 330.349098 175.641122 
L 330.174353 175.794947 
L 330.349098 175.905348 
L 330.174353 175.954695 
L 331.222822 176.132913 
L 331.436399 176.255905 
L 331.436399 176.341966 
L 331.222822 176.397365 
L 331.747056 176.526455 
L 331.747056 176.58168 
L 331.222822 176.64927 
L 331.980049 176.845905 
L 331.101844 176.94438 
L 331.101844 177.055004 
L 331.666405 177.110406 
L 331.436399 177.183873 
L 331.436399 177.288397 
L 330.892748 177.405292 
L 330.892748 177.460741 
L 331.436399 177.509815 
L 331.222822 177.577636 
L 329.805447 177.927746 
L 330.892748 178.106366 
L 330.349098 178.161594 
L 330.892748 178.284584 
L 330.892748 178.345854 
L 330.349098 178.407573 
L 330.892748 178.462798 
L 330.349098 178.55513 
L 330.892748 178.59816 
L 330.698587 178.659479 
L 329.805447 178.806816 
L 330.698587 179.003897 
L 330.892748 179.17602 
L 330.349098 179.255806 
L 330.537284 179.30488 
L 330.892748 179.433973 
L 330.174353 179.501794 
L 330.517817 179.575482 
L 331.023974 179.692147 
L 329.650119 179.919723 
L 329.650119 180.024246 
L 329.805447 180.08574 
L 328.843604 180.313484 
L 329.408164 180.454487 
L 329.972724 180.515806 
L 328.718146 180.768117 
L 329.650119 181.026291 
L 329.650119 181.106251 
L 330.740526 181.253801 
L 329.408164 181.54281 
L 329.566241 181.653428 
L 329.408164 181.702322 
L 328.718146 181.79447 
L 329.650119 182.010012 
L 329.125884 182.095842 
L 330.01166 182.175858 
L 329.650119 182.341875 
L 330.892748 182.520263 
L 330.537284 182.569394 
L 330.537284 182.729142 
L 329.805447 182.919725 
L 329.261797 182.968795 
L 329.650119 183.017922 
L 332.523699 183.429988 
L 332.523699 183.497524 
L 331.980049 183.559079 
L 332.523699 183.626847 
L 330.892748 183.860227 
L 330.892748 183.970847 
L 331.436399 184.099937 
L 331.436399 184.167528 
L 330.349098 184.358348 
L 330.349098 184.444174 
L 331.980049 184.690393 
L 331.980049 184.967036 
L 331.436399 185.182187 
L 331.980049 185.304944 
L 331.980049 185.37887 
L 333.319759 185.550752 
L 333.06735 185.667647 
L 332.523699 185.79064 
L 333.360085 185.895228 
L 332.795525 186.018214 
L 333.06735 186.067283 
L 332.795525 186.18424 
L 333.06735 186.245733 
L 332.795525 186.288766 
L 330.349098 186.534752 
L 330.01166 186.805124 
L 330.01166 186.860523 
L 330.174353 186.922016 
L 330.01166 186.977415 
L 329.650119 187.032403 
L 329.805447 187.100236 
L 330.349098 187.167998 
L 329.972724 187.223226 
L 329.805447 187.315384 
L 331.222822 187.475074 
L 331.222822 187.622868 
L 332.27129 187.825824 
L 332.795525 187.985334 
L 333.843993 188.188289 
L 333.843993 188.249785 
L 334.368228 188.360411 
L 334.154651 188.403439 
L 335.241952 188.569697 
L 335.241952 188.643149 
L 335.940931 188.803071 
L 335.940931 188.833968 
L 335.416696 188.88303 
L 335.940931 188.944589 
L 335.940931 188.999751 
L 333.611 189.399387 
L 333.843993 189.479349 
L 332.523699 189.755992 
L 333.06735 189.879226 
L 330.892748 190.143503 
L 331.222822 190.229318 
L 330.349098 190.401683 
L 330.349098 190.604393 
L 330.174353 190.702822 
L 330.349098 190.752192 
L 330.01166 190.868913 
L 330.01166 190.936681 
L 330.174353 190.998174 
L 329.650119 191.127025 
L 329.125884 191.207227 
L 329.650119 191.329805 
L 329.650119 191.502169 
L 328.718146 191.637534 
L 330.698587 191.834214 
L 330.698587 191.901808 
L 330.174353 192.018697 
L 330.174353 192.153887 
L 329.650119 192.23385 
L 330.174353 192.28273 
L 329.125884 192.455265 
L 329.408164 192.510242 
L 329.408164 192.565889 
L 331.436399 192.836187 
L 331.436399 193.039213 
L 332.542446 193.236064 
L 332.542446 193.297564 
L 333.319759 193.426408 
L 332.795525 193.487904 
L 332.795525 193.635461 
L 332.523699 193.697203 
L 333.319759 193.838491 
L 333.611 193.905839 
L 333.319759 193.979704 
L 333.611 194.035103 
L 333.319759 194.090324 
L 333.319759 194.145973 
L 333.843993 194.256346 
L 333.319759 194.42262 
L 333.06735 194.514774 
L 333.611 194.57627 
L 333.319759 194.631418 
L 333.319759 194.760511 
L 333.774095 194.828349 
L 333.319759 195.000473 
L 333.319759 195.055624 
L 332.27129 195.27077 
L 332.27129 195.338612 
L 333.319759 195.455511 
L 332.795525 195.510661 
L 332.795525 195.627379 
L 334.892462 196.09485 
L 333.048603 196.402086 
L 333.06735 196.457481 
L 331.747056 196.66677 
L 332.27129 196.770875 
L 331.747056 196.96798 
L 332.27129 197.084702 
L 332.27129 197.189224 
L 332.795525 197.343046 
L 332.795525 197.392174 
L 331.747056 197.570139 
L 331.747056 197.631887 
L 331.222822 197.761152 
L 331.747056 197.920647 
L 331.747056 197.976043 
L 332.795525 198.062103 
L 332.523699 198.099035 
L 332.27129 198.228122 
L 332.27129 198.28987 
L 332.036289 198.406588 
L 332.036289 198.473926 
L 333.319759 198.787757 
L 333.319759 198.861369 
L 333.554761 198.91075 
L 332.27129 199.095239 
L 332.795525 199.255164 
L 332.795525 199.322501 
L 331.980049 199.525456 
L 332.795525 199.691297 
L 332.27129 199.759062 
L 334.154651 200.06052 
L 334.154651 200.275415 
L 333.843993 200.435588 
L 333.843993 200.496829 
L 333.06735 200.619818 
L 334.154651 200.804378 
L 335.241952 201.185458 
L 334.892462 201.234586 
L 334.368228 201.283713 
L 334.892462 201.345209 
L 335.241952 201.486665 
L 335.416696 201.560356 
L 335.073232 201.64659 
L 335.416696 201.695717 
L 335.073232 201.73265 
L 335.073232 201.788128 
L 336.329252 202.046486 
L 336.465165 202.11408 
L 336.329252 202.175318 
L 335.785602 202.279844 
L 335.785602 202.347435 
L 335.940931 202.390461 
L 335.416696 202.433746 
L 335.57939 202.49498 
L 335.416696 202.630161 
L 335.416696 202.691653 
L 335.940931 202.833109 
L 335.940931 202.906967 
L 336.085547 202.956094 
L 335.940931 203.042413 
L 334.368228 203.263832 
L 335.241952 203.447887 
L 335.241952 203.497444 
L 333.843993 203.749523 
L 333.843993 203.798387 
L 333.319759 203.866238 
L 333.843993 203.989237 
L 333.843993 204.11223 
L 334.567075 204.173465 
L 334.060918 204.234958 
L 333.843993 204.302552 
L 334.368228 204.358215 
L 333.319759 204.560989 
L 333.843993 204.622224 
L 333.319759 204.677881 
L 333.843993 204.813061 
L 333.843993 204.929698 
L 334.368228 205.015751 
L 333.319759 205.200233 
L 334.567075 205.391078 
L 334.567075 205.495601 
L 335.073232 205.556838 
L 334.567075 205.61859 
L 334.892462 205.747417 
L 334.368228 205.981292 
L 334.368228 206.030327 
L 333.843993 206.116384 
L 334.368228 206.2642 
L 333.843993 206.325436 
L 334.368228 206.399123 
L 333.843993 206.460883 
L 334.892462 206.565146 
L 334.368228 206.620808 
L 334.567075 206.663571 
L 334.060918 206.786827 
L 334.060918 206.915917 
L 333.843993 207.038906 
L 333.843993 207.149527 
L 333.319759 207.290982 
L 333.843993 207.450733 
L 333.843993 207.499763 
L 333.554761 207.62302 
L 334.368228 207.794871 
L 334.368228 207.862465 
L 334.892462 207.905495 
L 333.774095 208.133279 
L 334.060918 208.194513 
L 333.554761 208.249731 
L 334.567075 208.465047 
L 335.241952 208.600231 
L 333.554761 208.797355 
L 334.060918 208.852576 
L 334.060918 208.895343 
L 333.554761 209.036798 
L 333.554761 209.165888 
L 334.567075 209.504294 
L 334.060918 209.633558 
L 335.940931 209.977522 
L 335.940931 210.045119 
L 335.416696 210.168108 
L 336.085547 210.321761 
L 336.989399 210.512522 
L 337.097862 210.752235 
L 336.591704 210.875224 
L 336.591704 210.985837 
L 335.57939 211.225717 
L 336.085547 211.280934 
L 335.940931 211.342694 
L 335.940931 211.478042 
L 336.591704 211.637785 
L 336.591704 211.766601 
L 337.097862 211.889868 
L 337.097862 211.951364 
L 336.085547 212.111021 
L 336.465165 212.209446 
L 335.940931 212.258577 
L 336.085547 212.307701 
L 336.085547 212.430693 
L 335.57939 212.486096 
L 336.085547 212.658212 
L 335.940931 212.71361 
L 336.465165 212.768831 
L 335.940931 212.959417 
L 335.940931 213.076585 
L 335.416696 213.187209 
L 335.57939 213.242604 
L 335.57939 213.285637 
L 335.416696 213.402256 
L 333.843993 213.630051 
L 334.892462 213.814092 
L 334.368228 213.881856 
L 335.073232 213.980107 
L 334.892462 214.047701 
L 334.567075 214.133935 
L 334.892462 214.269396 
L 334.567075 214.39211 
L 334.567075 214.496636 
L 334.060918 214.669031 
L 334.060918 214.736346 
L 334.368228 214.847422 
L 332.542446 215.080759 
L 333.048603 215.209852 
L 332.542446 215.265248 
L 333.048603 215.382241 
L 332.795525 215.437364 
L 333.554761 215.554074 
L 332.795525 215.763399 
L 334.060918 215.929145 
L 333.554761 215.972178 
L 334.060918 216.033951 
L 334.060918 216.162935 
L 334.567075 216.328957 
L 335.073232 216.470238 
L 335.073232 216.525917 
L 337.604019 216.919181 
L 337.604019 217.171263 
L 336.591704 217.349479 
L 337.513634 217.454006 
L 336.085547 217.675427 
L 336.085547 217.786329 
L 335.57939 217.915143 
L 336.220522 218.087433 
L 336.085547 218.142937 
L 336.220522 218.198336 
L 336.220522 218.253285 
L 336.591704 218.339515 
L 335.731237 218.49955 
L 335.073232 218.603796 
L 335.57939 218.665572 
L 334.567075 218.868247 
L 335.073232 219.028171 
L 335.073232 219.305098 
L 334.060918 219.45847 
L 334.567075 219.587556 
L 334.567075 219.655431 
L 334.060918 219.821176 
L 334.263381 219.864484 
L 334.060918 219.90142 
L 334.060918 219.95044 
L 333.048603 220.055251 
L 333.048603 220.122841 
L 333.554761 220.276495 
L 333.554761 220.405302 
L 333.048603 220.460697 
L 333.774095 220.639092 
L 333.774095 220.706686 
L 334.567075 220.848249 
L 334.060918 220.903652 
L 336.085547 221.180011 
L 334.567075 221.333838 
L 335.073232 221.45683 
L 335.073232 221.518323 
L 334.892462 221.573551 
L 335.073232 221.62895 
L 336.085547 221.887129 
L 336.591704 222.047339 
L 337.097862 222.096466 
L 336.709808 222.16406 
L 336.820291 222.293039 
L 336.709808 222.342166 
L 336.220522 222.538849 
L 336.220522 222.588147 
L 335.731237 222.649643 
L 336.085547 222.704868 
L 336.085547 222.82786 
L 335.940931 222.876987 
L 338.562102 223.024539 
L 337.688378 223.122968 
L 338.240797 223.270814 
L 336.709808 223.571907 
L 336.709808 223.676433 
L 336.591704 223.823698 
L 336.989399 223.965561 
L 336.872903 223.996109 
L 336.989399 224.044949 
L 336.989399 224.088266 
L 337.513634 224.137567 
L 337.097862 224.17461 
L 337.199093 224.254572 
L 337.688378 224.396031 
L 337.199093 224.537202 
L 337.293793 224.672392 
L 336.220522 224.739982 
L 336.709808 224.801478 
L 336.989399 224.85078 
L 336.465165 224.998628 
L 338.110176 225.269173 
L 337.604019 225.397973 
L 338.177664 225.539432 
L 338.110176 225.600924 
L 338.177664 225.650052 
L 337.097862 225.840637 
L 337.513634 225.957536 
L 337.604019 226.166875 
L 336.989399 226.338708 
L 336.591704 226.517212 
L 336.591704 226.836771 
L 336.085547 226.990715 
L 336.465165 227.09495 
L 335.416696 227.291629 
L 335.57939 227.353129 
L 336.085547 227.420719 
L 335.57939 227.482215 
L 336.085547 227.599106 
L 335.416696 227.703921 
L 335.785602 227.752759 
L 335.416696 227.845095 
L 336.329252 227.967913 
L 334.368228 228.361449 
L 334.368228 228.416844 
L 332.795525 228.60743 
L 333.048603 228.742621 
L 332.795525 228.85981 
L 333.843993 229.038197 
L 333.843993 229.099516 
L 333.06735 229.228486 
L 332.523699 229.27181 
L 332.795525 229.327031 
L 333.319759 229.376339 
L 333.048603 229.443933 
L 333.048603 229.517329 
L 333.28481 229.585094 
L 333.048603 229.664882 
L 335.241952 230.015673 
L 334.698301 230.108 
L 335.785602 230.328947 
L 335.940931 230.482593 
L 335.940931 230.537988 
L 335.416696 230.691637 
L 335.57939 230.833089 
L 337.513634 231.140569 
L 337.513634 231.23273 
L 337.960204 231.288125 
L 336.989399 231.484812 
L 336.989399 231.712327 
L 336.591704 231.872247 
L 337.513634 232.001333 
L 335.57939 232.44397 
L 335.57939 232.511564 
L 334.698301 232.696048 
L 334.892462 232.825138 
L 334.892462 232.868168 
L 334.060918 233.046862 
L 334.567075 233.102083 
L 334.368228 233.151385 
L 334.368228 233.212407 
L 333.843993 233.261704 
L 334.060918 233.34776 
L 334.060918 233.415654 
L 335.073232 233.655237 
L 334.060918 233.772254 
L 335.940931 234.011837 
L 335.785602 234.067362 
L 335.785602 234.116192 
L 335.416696 234.239185 
L 335.940931 234.405207 
L 334.567075 234.583899 
L 335.57939 234.774481 
L 335.416696 234.93393 
L 335.416696 234.995728 
L 334.892462 235.112321 
L 334.892462 235.290841 
L 334.698301 235.333564 
L 335.785602 235.481123 
L 335.241952 235.567661 
L 335.416696 235.622582 
L 335.241952 235.70254 
L 335.57939 235.923791 
L 335.57939 236.046783 
L 335.416696 236.120648 
L 336.329252 236.262111 
L 336.329252 236.446421 
L 336.872903 236.557218 
L 336.872903 236.673939 
L 336.989399 236.827592 
L 336.989399 236.882991 
L 335.57939 237.116607 
L 335.241952 237.190777 
L 335.57939 237.313158 
L 335.57939 237.424393 
L 335.416696 237.540808 
L 335.940931 237.596512 
L 334.567075 237.854692 
L 334.567075 237.909789 
L 336.196655 238.1434 
L 335.618325 238.27249 
L 335.770909 238.340083 
L 335.649689 238.450881 
L 335.940931 238.494218 
L 335.817581 238.549135 
L 335.686756 238.604841 
L 336.709808 238.745992 
L 336.591704 238.795116 
L 336.465165 238.863021 
L 336.591704 238.782751 
L 336.465165 238.862713 
L 336.872903 238.887273 
L 336.872903 238.887273 
" clip-path="url(#peb83bb5f16)" style="fill: none; stroke: #ff7f0e; stroke-width: 2; stroke-linecap: square"/>
   </g>
   <g id="patch_6">
    <path d="M 193.509375 249.92 
L 193.509375 7.2 
" style="fill: none; stroke: #000000; stroke-width: 0.8; stroke-linejoin: miter; stroke-linecap: square"/>
   </g>
   <g id="patch_7">
    <path d="M 193.509375 249.92 
L 345.469375 249.92 
" style="fill: none; stroke: #000000; stroke-width: 0.8; stroke-linejoin: miter; stroke-linecap: square"/>
   </g>
  </g>
 </g>
 <defs>
  <clipPath id="padb98f534f">
   <rect x="30.749375" y="7.2" width="151.96" height="242.72"/>
  </clipPath>
  <clipPath id="peb83bb5f16">
   <rect x="193.509375" y="7.2" width="151.96" height="242.72"/>
  </clipPath>
 </defs>
</svg>
