<?xml version="1.0" encoding="utf-8" standalone="no"?>
<!DOCTYPE svg PUBLIC "-//W3C//DTD SVG 1.1//EN"
  "http://www.w3.org/Graphics/SVG/1.1/DTD/svg11.dtd">
<svg xmlns:xlink="http://www.w3.org/1999/xlink" width="227.619375pt" height="278.323125pt" viewBox="0 0 227.619375 278.323125" xmlns="http://www.w3.org/2000/svg" version="1.1">
 <metadata>
  <rdf:RDF xmlns:dc="http://purl.org/dc/elements/1.1/" xmlns:cc="http://creativecommons.org/ns#" xmlns:rdf="http://www.w3.org/1999/02/22-rdf-syntax-ns#">
   <cc:Work>
    <dc:type rdf:resource="http://purl.org/dc/dcmitype/StillImage"/>
    <dc:date>2026-03-15T19:00:55.762549</dc:date>
    <dc:format>image/svg+xml</dc:format>
    <dc:creator>
     <cc:Agent>
      <dc:title>Matplotlib v3.10.6, https://matplotlib.org/</dc:title>
     </cc:Agent>
    </dc:creator>
   </cc:Work>
  </rdf:RDF>
 </metadata>
 <defs>
  <style type="text/css">*{stroke-linejoin: round; stroke-linecap: butt}</style>
 </defs>
 <g id="figure_1">
  <g id="patch_1">
   <path d="M 0 278.323125 
L 227.619375 278.323125 
L 227.619375 0 
L 0 0 
z
" style="fill: #ffffff"/>
  </g>
  <g id="axes_1">
   <g id="patch_2">
    <path d="M 53.019375 228.96 
L 220.419375 228.96 
L 220.419375 7.2 
L 53.019375 7.2 
z
" style="fill: #ffffff"/>
   </g>
   <g id="FillBetweenPolyCollection_1">
    <defs>
     <path id="m950604036b" d="M 148.586764 -244.693595 
L 148.586764 -244.693595 
L 148.586764 -244.693595 
L 148.586764 -244.693595 
z
" style="stroke: #7f7f7f; stroke-opacity: 0.2"/>
    </defs>
    <g clip-path="url(#pd5099b2a88)">
     <use xlink:href="#m950604036b" x="0" y="278.323125" style="fill: #7f7f7f; fill-opacity: 0.2; stroke: #7f7f7f; stroke-opacity: 0.2"/>
    </g>
   </g>
   <g id="FillBetweenPolyCollection_2"/>
   <g id="FillBetweenPolyCollection_3"/>
   <g id="matplotlib.axis_1">
    <g id="xtick_1">
     <g id="line2d_1">
      <path d="M 103.351068 228.96 
L 103.351068 7.2 
" clip-path="url(#pd5099b2a88)" style="fill: none; stroke: #b0b0b0; stroke-width: 0.8; stroke-linecap: square"/>
     </g>
     <g id="line2d_2">
      <defs>
       <path id="m2daf3b2e59" d="M 0 0 
L 0 3.5 
" style="stroke: #000000; stroke-width: 0.8"/>
      </defs>
      <g>
       <use xlink:href="#m2daf3b2e59" x="103.351068" y="228.96" style="stroke: #000000; stroke-width: 0.8"/>
      </g>
     </g>
     <g id="text_1">
      <!-- 4 -->
      <g transform="translate(99.533568 245.078125) scale(0.12 -0.12)">
       <defs>
        <path id="DejaVuSans-34" d="M 2419 4116 
L 825 1625 
L 2419 1625 
L 2419 4116 
z
M 2253 4666 
L 3047 4666 
L 3047 1625 
L 3713 1625 
L 3713 1100 
L 3047 1100 
L 3047 0 
L 2419 0 
L 2419 1100 
L 313 1100 
L 313 1709 
L 2253 4666 
z
" transform="scale(0.015625)"/>
       </defs>
       <use xlink:href="#DejaVuSans-34"/>
      </g>
     </g>
    </g>
    <g id="xtick_2">
     <g id="line2d_3">
      <path d="M 159.197607 228.96 
L 159.197607 7.2 
" clip-path="url(#pd5099b2a88)" style="fill: none; stroke: #b0b0b0; stroke-width: 0.8; stroke-linecap: square"/>
     </g>
     <g id="line2d_4">
      <g>
       <use xlink:href="#m2daf3b2e59" x="159.197607" y="228.96" style="stroke: #000000; stroke-width: 0.8"/>
      </g>
     </g>
     <g id="text_2">
      <!-- 6 -->
      <g transform="translate(155.380107 245.078125) scale(0.12 -0.12)">
       <defs>
        <path id="DejaVuSans-36" d="M 2113 2584 
Q 1688 2584 1439 2293 
Q 1191 2003 1191 1497 
Q 1191 994 1439 701 
Q 1688 409 2113 409 
Q 2538 409 2786 701 
Q 3034 994 3034 1497 
Q 3034 2003 2786 2293 
Q 2538 2584 2113 2584 
z
M 3366 4563 
L 3366 3988 
Q 3128 4100 2886 4159 
Q 2644 4219 2406 4219 
Q 1781 4219 1451 3797 
Q 1122 3375 1075 2522 
Q 1259 2794 1537 2939 
Q 1816 3084 2150 3084 
Q 2853 3084 3261 2657 
Q 3669 2231 3669 1497 
Q 3669 778 3244 343 
Q 2819 -91 2113 -91 
Q 1303 -91 875 529 
Q 447 1150 447 2328 
Q 447 3434 972 4092 
Q 1497 4750 2381 4750 
Q 2619 4750 2861 4703 
Q 3103 4656 3366 4563 
z
" transform="scale(0.015625)"/>
       </defs>
       <use xlink:href="#DejaVuSans-36"/>
      </g>
     </g>
    </g>
    <g id="xtick_3">
     <g id="line2d_5">
      <path d="M 215.044146 228.96 
L 215.044146 7.2 
" clip-path="url(#pd5099b2a88)" style="fill: none; stroke: #b0b0b0; stroke-width: 0.8; stroke-linecap: square"/>
     </g>
     <g id="line2d_6">
      <g>
       <use xlink:href="#m2daf3b2e59" x="215.044146" y="228.96" style="stroke: #000000; stroke-width: 0.8"/>
      </g>
     </g>
     <g id="text_3">
      <!-- 8 -->
      <g transform="translate(211.226646 245.078125) scale(0.12 -0.12)">
       <defs>
        <path id="DejaVuSans-38" d="M 2034 2216 
Q 1584 2216 1326 1975 
Q 1069 1734 1069 1313 
Q 1069 891 1326 650 
Q 1584 409 2034 409 
Q 2484 409 2743 651 
Q 3003 894 3003 1313 
Q 3003 1734 2745 1975 
Q 2488 2216 2034 2216 
z
M 1403 2484 
Q 997 2584 770 2862 
Q 544 3141 544 3541 
Q 544 4100 942 4425 
Q 1341 4750 2034 4750 
Q 2731 4750 3128 4425 
Q 3525 4100 3525 3541 
Q 3525 3141 3298 2862 
Q 3072 2584 2669 2484 
Q 3125 2378 3379 2068 
Q 3634 1759 3634 1313 
Q 3634 634 3220 271 
Q 2806 -91 2034 -91 
Q 1263 -91 848 271 
Q 434 634 434 1313 
Q 434 1759 690 2068 
Q 947 2378 1403 2484 
z
M 1172 3481 
Q 1172 3119 1398 2916 
Q 1625 2713 2034 2713 
Q 2441 2713 2670 2916 
Q 2900 3119 2900 3481 
Q 2900 3844 2670 4047 
Q 2441 4250 2034 4250 
Q 1625 4250 1398 4047 
Q 1172 3844 1172 3481 
z
" transform="scale(0.015625)"/>
       </defs>
       <use xlink:href="#DejaVuSans-38"/>
      </g>
     </g>
    </g>
    <g id="text_4">
     <!-- Dissolved Oxygen [mg/L] -->
     <g transform="translate(48.553281 268.211563) scale(0.14 -0.14)">
      <defs>
       <path id="DejaVuSans-44" d="M 1259 4147 
L 1259 519 
L 2022 519 
Q 2988 519 3436 956 
Q 3884 1394 3884 2338 
Q 3884 3275 3436 3711 
Q 2988 4147 2022 4147 
L 1259 4147 
z
M 628 4666 
L 1925 4666 
Q 3281 4666 3915 4102 
Q 4550 3538 4550 2338 
Q 4550 1131 3912 565 
Q 3275 0 1925 0 
L 628 0 
L 628 4666 
z
" transform="scale(0.015625)"/>
       <path id="DejaVuSans-69" d="M 603 3500 
L 1178 3500 
L 1178 0 
L 603 0 
L 603 3500 
z
M 603 4863 
L 1178 4863 
L 1178 4134 
L 603 4134 
L 603 4863 
z
" transform="scale(0.015625)"/>
       <path id="DejaVuSans-73" d="M 2834 3397 
L 2834 2853 
Q 2591 2978 2328 3040 
Q 2066 3103 1784 3103 
Q 1356 3103 1142 2972 
Q 928 2841 928 2578 
Q 928 2378 1081 2264 
Q 1234 2150 1697 2047 
L 1894 2003 
Q 2506 1872 2764 1633 
Q 3022 1394 3022 966 
Q 3022 478 2636 193 
Q 2250 -91 1575 -91 
Q 1294 -91 989 -36 
Q 684 19 347 128 
L 347 722 
Q 666 556 975 473 
Q 1284 391 1588 391 
Q 1994 391 2212 530 
Q 2431 669 2431 922 
Q 2431 1156 2273 1281 
Q 2116 1406 1581 1522 
L 1381 1569 
Q 847 1681 609 1914 
Q 372 2147 372 2553 
Q 372 3047 722 3315 
Q 1072 3584 1716 3584 
Q 2034 3584 2315 3537 
Q 2597 3491 2834 3397 
z
" transform="scale(0.015625)"/>
       <path id="DejaVuSans-6f" d="M 1959 3097 
Q 1497 3097 1228 2736 
Q 959 2375 959 1747 
Q 959 1119 1226 758 
Q 1494 397 1959 397 
Q 2419 397 2687 759 
Q 2956 1122 2956 1747 
Q 2956 2369 2687 2733 
Q 2419 3097 1959 3097 
z
M 1959 3584 
Q 2709 3584 3137 3096 
Q 3566 2609 3566 1747 
Q 3566 888 3137 398 
Q 2709 -91 1959 -91 
Q 1206 -91 779 398 
Q 353 888 353 1747 
Q 353 2609 779 3096 
Q 1206 3584 1959 3584 
z
" transform="scale(0.015625)"/>
       <path id="DejaVuSans-6c" d="M 603 4863 
L 1178 4863 
L 1178 0 
L 603 0 
L 603 4863 
z
" transform="scale(0.015625)"/>
       <path id="DejaVuSans-76" d="M 191 3500 
L 800 3500 
L 1894 563 
L 2988 3500 
L 3597 3500 
L 2284 0 
L 1503 0 
L 191 3500 
z
" transform="scale(0.015625)"/>
       <path id="DejaVuSans-65" d="M 3597 1894 
L 3597 1613 
L 953 1613 
Q 991 1019 1311 708 
Q 1631 397 2203 397 
Q 2534 397 2845 478 
Q 3156 559 3463 722 
L 3463 178 
Q 3153 47 2828 -22 
Q 2503 -91 2169 -91 
Q 1331 -91 842 396 
Q 353 884 353 1716 
Q 353 2575 817 3079 
Q 1281 3584 2069 3584 
Q 2775 3584 3186 3129 
Q 3597 2675 3597 1894 
z
M 3022 2063 
Q 3016 2534 2758 2815 
Q 2500 3097 2075 3097 
Q 1594 3097 1305 2825 
Q 1016 2553 972 2059 
L 3022 2063 
z
" transform="scale(0.015625)"/>
       <path id="DejaVuSans-64" d="M 2906 2969 
L 2906 4863 
L 3481 4863 
L 3481 0 
L 2906 0 
L 2906 525 
Q 2725 213 2448 61 
Q 2172 -91 1784 -91 
Q 1150 -91 751 415 
Q 353 922 353 1747 
Q 353 2572 751 3078 
Q 1150 3584 1784 3584 
Q 2172 3584 2448 3432 
Q 2725 3281 2906 2969 
z
M 947 1747 
Q 947 1113 1208 752 
Q 1469 391 1925 391 
Q 2381 391 2643 752 
Q 2906 1113 2906 1747 
Q 2906 2381 2643 2742 
Q 2381 3103 1925 3103 
Q 1469 3103 1208 2742 
Q 947 2381 947 1747 
z
" transform="scale(0.015625)"/>
       <path id="DejaVuSans-20" transform="scale(0.015625)"/>
       <path id="DejaVuSans-4f" d="M 2522 4238 
Q 1834 4238 1429 3725 
Q 1025 3213 1025 2328 
Q 1025 1447 1429 934 
Q 1834 422 2522 422 
Q 3209 422 3611 934 
Q 4013 1447 4013 2328 
Q 4013 3213 3611 3725 
Q 3209 4238 2522 4238 
z
M 2522 4750 
Q 3503 4750 4090 4092 
Q 4678 3434 4678 2328 
Q 4678 1225 4090 567 
Q 3503 -91 2522 -91 
Q 1538 -91 948 565 
Q 359 1222 359 2328 
Q 359 3434 948 4092 
Q 1538 4750 2522 4750 
z
" transform="scale(0.015625)"/>
       <path id="DejaVuSans-78" d="M 3513 3500 
L 2247 1797 
L 3578 0 
L 2900 0 
L 1881 1375 
L 863 0 
L 184 0 
L 1544 1831 
L 300 3500 
L 978 3500 
L 1906 2253 
L 2834 3500 
L 3513 3500 
z
" transform="scale(0.015625)"/>
       <path id="DejaVuSans-79" d="M 2059 -325 
Q 1816 -950 1584 -1140 
Q 1353 -1331 966 -1331 
L 506 -1331 
L 506 -850 
L 844 -850 
Q 1081 -850 1212 -737 
Q 1344 -625 1503 -206 
L 1606 56 
L 191 3500 
L 800 3500 
L 1894 763 
L 2988 3500 
L 3597 3500 
L 2059 -325 
z
" transform="scale(0.015625)"/>
       <path id="DejaVuSans-67" d="M 2906 1791 
Q 2906 2416 2648 2759 
Q 2391 3103 1925 3103 
Q 1463 3103 1205 2759 
Q 947 2416 947 1791 
Q 947 1169 1205 825 
Q 1463 481 1925 481 
Q 2391 481 2648 825 
Q 2906 1169 2906 1791 
z
M 3481 434 
Q 3481 -459 3084 -895 
Q 2688 -1331 1869 -1331 
Q 1566 -1331 1297 -1286 
Q 1028 -1241 775 -1147 
L 775 -588 
Q 1028 -725 1275 -790 
Q 1522 -856 1778 -856 
Q 2344 -856 2625 -561 
Q 2906 -266 2906 331 
L 2906 616 
Q 2728 306 2450 153 
Q 2172 0 1784 0 
Q 1141 0 747 490 
Q 353 981 353 1791 
Q 353 2603 747 3093 
Q 1141 3584 1784 3584 
Q 2172 3584 2450 3431 
Q 2728 3278 2906 2969 
L 2906 3500 
L 3481 3500 
L 3481 434 
z
" transform="scale(0.015625)"/>
       <path id="DejaVuSans-6e" d="M 3513 2113 
L 3513 0 
L 2938 0 
L 2938 2094 
Q 2938 2591 2744 2837 
Q 2550 3084 2163 3084 
Q 1697 3084 1428 2787 
Q 1159 2491 1159 1978 
L 1159 0 
L 581 0 
L 581 3500 
L 1159 3500 
L 1159 2956 
Q 1366 3272 1645 3428 
Q 1925 3584 2291 3584 
Q 2894 3584 3203 3211 
Q 3513 2838 3513 2113 
z
" transform="scale(0.015625)"/>
       <path id="DejaVuSans-5b" d="M 550 4863 
L 1875 4863 
L 1875 4416 
L 1125 4416 
L 1125 -397 
L 1875 -397 
L 1875 -844 
L 550 -844 
L 550 4863 
z
" transform="scale(0.015625)"/>
       <path id="DejaVuSans-6d" d="M 3328 2828 
Q 3544 3216 3844 3400 
Q 4144 3584 4550 3584 
Q 5097 3584 5394 3201 
Q 5691 2819 5691 2113 
L 5691 0 
L 5113 0 
L 5113 2094 
Q 5113 2597 4934 2840 
Q 4756 3084 4391 3084 
Q 3944 3084 3684 2787 
Q 3425 2491 3425 1978 
L 3425 0 
L 2847 0 
L 2847 2094 
Q 2847 2600 2669 2842 
Q 2491 3084 2119 3084 
Q 1678 3084 1418 2786 
Q 1159 2488 1159 1978 
L 1159 0 
L 581 0 
L 581 3500 
L 1159 3500 
L 1159 2956 
Q 1356 3278 1631 3431 
Q 1906 3584 2284 3584 
Q 2666 3584 2933 3390 
Q 3200 3197 3328 2828 
z
" transform="scale(0.015625)"/>
       <path id="DejaVuSans-2f" d="M 1625 4666 
L 2156 4666 
L 531 -594 
L 0 -594 
L 1625 4666 
z
" transform="scale(0.015625)"/>
       <path id="DejaVuSans-4c" d="M 628 4666 
L 1259 4666 
L 1259 531 
L 3531 531 
L 3531 0 
L 628 0 
L 628 4666 
z
" transform="scale(0.015625)"/>
       <path id="DejaVuSans-5d" d="M 1947 4863 
L 1947 -844 
L 622 -844 
L 622 -397 
L 1369 -397 
L 1369 4416 
L 622 4416 
L 622 4863 
L 1947 4863 
z
" transform="scale(0.015625)"/>
      </defs>
      <use xlink:href="#DejaVuSans-44"/>
      <use xlink:href="#DejaVuSans-69" transform="translate(77.001953 0)"/>
      <use xlink:href="#DejaVuSans-73" transform="translate(104.785156 0)"/>
      <use xlink:href="#DejaVuSans-73" transform="translate(156.884766 0)"/>
      <use xlink:href="#DejaVuSans-6f" transform="translate(208.984375 0)"/>
      <use xlink:href="#DejaVuSans-6c" transform="translate(270.166016 0)"/>
      <use xlink:href="#DejaVuSans-76" transform="translate(297.949219 0)"/>
      <use xlink:href="#DejaVuSans-65" transform="translate(357.128906 0)"/>
      <use xlink:href="#DejaVuSans-64" transform="translate(418.652344 0)"/>
      <use xlink:href="#DejaVuSans-20" transform="translate(482.128906 0)"/>
      <use xlink:href="#DejaVuSans-4f" transform="translate(513.916016 0)"/>
      <use xlink:href="#DejaVuSans-78" transform="translate(592.626953 0)"/>
      <use xlink:href="#DejaVuSans-79" transform="translate(651.806641 0)"/>
      <use xlink:href="#DejaVuSans-67" transform="translate(710.986328 0)"/>
      <use xlink:href="#DejaVuSans-65" transform="translate(774.462891 0)"/>
      <use xlink:href="#DejaVuSans-6e" transform="translate(835.986328 0)"/>
      <use xlink:href="#DejaVuSans-20" transform="translate(899.365234 0)"/>
      <use xlink:href="#DejaVuSans-5b" transform="translate(931.152344 0)"/>
      <use xlink:href="#DejaVuSans-6d" transform="translate(970.166016 0)"/>
      <use xlink:href="#DejaVuSans-67" transform="translate(1067.578125 0)"/>
      <use xlink:href="#DejaVuSans-2f" transform="translate(1131.054688 0)"/>
      <use xlink:href="#DejaVuSans-4c" transform="translate(1164.746094 0)"/>
      <use xlink:href="#DejaVuSans-5d" transform="translate(1220.458984 0)"/>
     </g>
    </g>
   </g>
   <g id="matplotlib.axis_2">
    <g id="ytick_1">
     <g id="line2d_7">
      <path d="M 53.019375 34.92 
L 220.419375 34.92 
" clip-path="url(#pd5099b2a88)" style="fill: none; stroke: #b0b0b0; stroke-width: 0.8; stroke-linecap: square"/>
     </g>
     <g id="line2d_8">
      <defs>
       <path id="mcf3a1e2b96" d="M 0 0 
L -3.5 0 
" style="stroke: #000000; stroke-width: 0.8"/>
      </defs>
      <g>
       <use xlink:href="#mcf3a1e2b96" x="53.019375" y="34.92" style="stroke: #000000; stroke-width: 0.8"/>
      </g>
     </g>
     <g id="text_5">
      <!-- 55 -->
      <g transform="translate(30.749375 39.479063) scale(0.12 -0.12)">
       <defs>
        <path id="DejaVuSans-35" d="M 691 4666 
L 3169 4666 
L 3169 4134 
L 1269 4134 
L 1269 2991 
Q 1406 3038 1543 3061 
Q 1681 3084 1819 3084 
Q 2600 3084 3056 2656 
Q 3513 2228 3513 1497 
Q 3513 744 3044 326 
Q 2575 -91 1722 -91 
Q 1428 -91 1123 -41 
Q 819 9 494 109 
L 494 744 
Q 775 591 1075 516 
Q 1375 441 1709 441 
Q 2250 441 2565 725 
Q 2881 1009 2881 1497 
Q 2881 1984 2565 2268 
Q 2250 2553 1709 2553 
Q 1456 2553 1204 2497 
Q 953 2441 691 2322 
L 691 4666 
z
" transform="scale(0.015625)"/>
       </defs>
       <use xlink:href="#DejaVuSans-35"/>
       <use xlink:href="#DejaVuSans-35" transform="translate(63.623047 0)"/>
      </g>
     </g>
    </g>
    <g id="ytick_2">
     <g id="line2d_9">
      <path d="M 53.019375 90.36 
L 220.419375 90.36 
" clip-path="url(#pd5099b2a88)" style="fill: none; stroke: #b0b0b0; stroke-width: 0.8; stroke-linecap: square"/>
     </g>
     <g id="line2d_10">
      <g>
       <use xlink:href="#mcf3a1e2b96" x="53.019375" y="90.36" style="stroke: #000000; stroke-width: 0.8"/>
      </g>
     </g>
     <g id="text_6">
      <!-- 65 -->
      <g transform="translate(30.749375 94.919063) scale(0.12 -0.12)">
       <use xlink:href="#DejaVuSans-36"/>
       <use xlink:href="#DejaVuSans-35" transform="translate(63.623047 0)"/>
      </g>
     </g>
    </g>
    <g id="ytick_3">
     <g id="line2d_11">
      <path d="M 53.019375 145.8 
L 220.419375 145.8 
" clip-path="url(#pd5099b2a88)" style="fill: none; stroke: #b0b0b0; stroke-width: 0.8; stroke-linecap: square"/>
     </g>
     <g id="line2d_12">
      <g>
       <use xlink:href="#mcf3a1e2b96" x="53.019375" y="145.8" style="stroke: #000000; stroke-width: 0.8"/>
      </g>
     </g>
     <g id="text_7">
      <!-- 75 -->
      <g transform="translate(30.749375 150.359062) scale(0.12 -0.12)">
       <defs>
        <path id="DejaVuSans-37" d="M 525 4666 
L 3525 4666 
L 3525 4397 
L 1831 0 
L 1172 0 
L 2766 4134 
L 525 4134 
L 525 4666 
z
" transform="scale(0.015625)"/>
       </defs>
       <use xlink:href="#DejaVuSans-37"/>
       <use xlink:href="#DejaVuSans-35" transform="translate(63.623047 0)"/>
      </g>
     </g>
    </g>
    <g id="ytick_4">
     <g id="line2d_13">
      <path d="M 53.019375 201.24 
L 220.419375 201.24 
" clip-path="url(#pd5099b2a88)" style="fill: none; stroke: #b0b0b0; stroke-width: 0.8; stroke-linecap: square"/>
     </g>
     <g id="line2d_14">
      <g>
       <use xlink:href="#mcf3a1e2b96" x="53.019375" y="201.24" style="stroke: #000000; stroke-width: 0.8"/>
      </g>
     </g>
     <g id="text_8">
      <!-- 85 -->
      <g transform="translate(30.749375 205.799063) scale(0.12 -0.12)">
       <use xlink:href="#DejaVuSans-38"/>
       <use xlink:href="#DejaVuSans-35" transform="translate(63.623047 0)"/>
      </g>
     </g>
    </g>
    <g id="text_9">
     <!-- Depth [m] -->
     <g transform="translate(17.837812 153.906875) rotate(-90) scale(0.14 -0.14)">
      <defs>
       <path id="DejaVuSans-70" d="M 1159 525 
L 1159 -1331 
L 581 -1331 
L 581 3500 
L 1159 3500 
L 1159 2969 
Q 1341 3281 1617 3432 
Q 1894 3584 2278 3584 
Q 2916 3584 3314 3078 
Q 3713 2572 3713 1747 
Q 3713 922 3314 415 
Q 2916 -91 2278 -91 
Q 1894 -91 1617 61 
Q 1341 213 1159 525 
z
M 3116 1747 
Q 3116 2381 2855 2742 
Q 2594 3103 2138 3103 
Q 1681 3103 1420 2742 
Q 1159 2381 1159 1747 
Q 1159 1113 1420 752 
Q 1681 391 2138 391 
Q 2594 391 2855 752 
Q 3116 1113 3116 1747 
z
" transform="scale(0.015625)"/>
       <path id="DejaVuSans-74" d="M 1172 4494 
L 1172 3500 
L 2356 3500 
L 2356 3053 
L 1172 3053 
L 1172 1153 
Q 1172 725 1289 603 
Q 1406 481 1766 481 
L 2356 481 
L 2356 0 
L 1766 0 
Q 1100 0 847 248 
Q 594 497 594 1153 
L 594 3053 
L 172 3053 
L 172 3500 
L 594 3500 
L 594 4494 
L 1172 4494 
z
" transform="scale(0.015625)"/>
       <path id="DejaVuSans-68" d="M 3513 2113 
L 3513 0 
L 2938 0 
L 2938 2094 
Q 2938 2591 2744 2837 
Q 2550 3084 2163 3084 
Q 1697 3084 1428 2787 
Q 1159 2491 1159 1978 
L 1159 0 
L 581 0 
L 581 4863 
L 1159 4863 
L 1159 2956 
Q 1366 3272 1645 3428 
Q 1925 3584 2291 3584 
Q 2894 3584 3203 3211 
Q 3513 2838 3513 2113 
z
" transform="scale(0.015625)"/>
      </defs>
      <use xlink:href="#DejaVuSans-44"/>
      <use xlink:href="#DejaVuSans-65" transform="translate(77.001953 0)"/>
      <use xlink:href="#DejaVuSans-70" transform="translate(138.525391 0)"/>
      <use xlink:href="#DejaVuSans-74" transform="translate(202.001953 0)"/>
      <use xlink:href="#DejaVuSans-68" transform="translate(241.210938 0)"/>
      <use xlink:href="#DejaVuSans-20" transform="translate(304.589844 0)"/>
      <use xlink:href="#DejaVuSans-5b" transform="translate(336.376953 0)"/>
      <use xlink:href="#DejaVuSans-6d" transform="translate(375.390625 0)"/>
      <use xlink:href="#DejaVuSans-5d" transform="translate(472.802734 0)"/>
     </g>
    </g>
   </g>
   <g id="line2d_15">
    <path d="M 212.810284 7.285619 
L 212.810284 7.484201 
L 211.414121 7.962336 
L 211.134888 8.201204 
L 211.134888 8.460258 
L 210.576423 8.738893 
L 210.576423 9.03731 
L 209.180259 9.7743 
L 202.478674 10.112456 
L 202.478674 10.231702 
L 201.640976 10.311384 
L 201.640976 10.490906 
L 200.524046 10.729611 
L 200.524046 11.128432 
L 198.848649 11.506155 
L 198.848649 11.705075 
L 196.614788 11.864434 
L 196.614788 12.043586 
L 194.380926 12.243091 
L 194.380926 12.362707 
L 192.984763 12.621172 
L 192.984763 12.840458 
L 192.426297 13.119074 
L 192.426297 13.397696 
L 191.030134 13.676871 
L 191.030134 13.935719 
L 189.63397 14.154433 
L 189.63397 14.333959 
L 188.51704 14.453769 
L 188.51704 14.652335 
L 187.958574 14.831494 
L 187.958574 15.011028 
L 187.120876 15.38931 
L 187.120876 15.548688 
L 186.841644 15.887225 
L 186.283178 16.026257 
L 186.283178 16.623272 
L 185.724713 16.842935 
L 186.003945 17.121564 
L 185.724713 17.49985 
L 185.724713 17.938235 
L 185.44548 18.137175 
L 185.44548 18.595148 
L 185.166247 18.654871 
L 185.166247 18.774687 
L 184.607782 18.953846 
L 184.607782 19.232094 
L 184.328549 19.490935 
L 184.328549 19.729996 
L 184.049317 19.949275 
L 184.049317 20.267841 
L 183.770084 20.446611 
L 183.770084 20.626335 
L 181.815455 20.805098 
L 181.815455 21.004413 
L 180.419292 21.262864 
L 180.419292 21.502307 
L 178.743895 21.741367 
L 178.743895 22.019606 
L 177.068499 22.278838 
L 177.068499 22.478329 
L 173.717707 22.975637 
L 173.717707 23.134623 
L 172.321543 23.334121 
L 172.321543 23.573174 
L 170.92538 23.832008 
L 170.92538 24.090835 
L 169.249984 24.309535 
L 169.249984 24.568343 
L 167.295355 24.787213 
L 167.295355 24.986521 
L 163.944563 25.364807 
L 163.944563 25.544354 
L 162.269166 25.703725 
L 162.269166 25.882871 
L 161.152236 26.400531 
L 161.152236 26.679711 
L 160.314538 26.918205 
L 160.314538 27.13708 
L 158.918374 27.376503 
L 158.918374 27.535853 
L 157.522211 27.794282 
L 156.126047 27.89413 
L 156.126047 28.033321 
L 155.288349 28.252433 
L 155.288349 28.471718 
L 154.450651 28.710784 
L 154.450651 28.94985 
L 153.054488 29.228478 
L 153.054488 29.487325 
L 152.496022 29.885761 
L 151.379091 30.144194 
L 151.379091 30.284185 
L 151.099859 30.423203 
L 151.099859 30.981023 
L 150.541393 31.219693 
L 150.541393 32.036345 
L 149.982928 32.255463 
L 149.982928 32.494522 
L 149.14523 32.952873 
L 149.14523 33.051943 
L 148.586764 33.410652 
L 148.586764 33.530061 
L 148.307532 33.570022 
L 148.586764 33.62953 
L 148.586764 33.729393 
L 148.307532 33.74878 
L 148.028299 34.067935 
L 148.028299 35.780555 
L 147.749066 36.517923 
L 147.749066 37.155446 
L 146.911368 37.453442 
L 146.911368 37.752828 
L 146.352903 38.050824 
L 146.352903 38.270109 
L 146.07367 38.469054 
L 146.07367 38.628831 
L 145.794438 38.827928 
L 145.794438 39.963348 
L 146.07367 40.162696 
L 145.794438 40.361219 
L 145.235972 40.540949 
L 145.235972 41.557375 
L 144.956739 41.815811 
L 144.956739 42.035096 
L 145.515205 42.57255 
L 145.515205 42.751702 
L 145.235972 42.871524 
L 145.235972 43.150152 
L 144.956739 43.32931 
L 144.956739 43.488693 
L 145.235972 43.647657 
L 144.956739 43.867349 
L 144.956739 44.205471 
L 145.235972 44.544006 
L 145.235972 44.882948 
L 144.956739 45.042326 
L 144.956739 45.181915 
L 145.235972 45.361066 
L 145.235972 45.579928 
L 144.956739 45.759072 
L 144.956739 45.938215 
L 145.235972 46.177683 
L 145.235972 46.655745 
L 145.515205 46.874556 
L 145.515205 47.153545 
L 146.632136 47.47225 
L 147.749066 47.6316 
L 147.749066 47.79097 
L 148.586764 48.030021 
L 148.586764 48.209165 
L 148.865997 48.368535 
L 148.865997 48.965483 
L 148.586764 49.324756 
L 147.469834 49.622721 
L 147.469834 49.802845 
L 146.632136 50.001777 
L 146.632136 50.141352 
L 146.07367 50.32051 
L 146.07367 50.579349 
L 145.515205 50.817984 
L 145.515205 51.037234 
L 145.235972 51.296468 
L 145.235972 51.535492 
L 146.632136 51.774529 
L 146.632136 51.973439 
L 147.469834 52.21249 
L 147.469834 52.391642 
L 148.307532 52.551004 
L 148.307532 52.73072 
L 148.865997 52.87017 
L 148.865997 53.069241 
L 149.703695 53.308299 
L 149.703695 53.567565 
L 150.262161 53.766042 
L 150.262161 53.985269 
L 151.379091 54.184746 
L 151.379091 54.323741 
L 153.892186 54.662227 
L 155.846815 54.881504 
L 155.846815 55.18047 
L 156.963745 55.459498 
L 156.963745 55.718459 
L 158.359909 55.977262 
L 158.359909 56.176173 
L 160.035305 56.375648 
L 160.035305 56.535025 
L 161.152236 56.694387 
L 161.152236 56.973007 
L 162.548399 57.152164 
L 162.548399 57.391229 
L 162.827632 57.590726 
L 162.827632 57.809438 
L 163.66533 58.029155 
L 163.66533 58.207433 
L 163.944563 58.367229 
L 163.944563 58.546937 
L 164.223795 58.786422 
L 164.223795 59.044812 
L 164.782261 59.622334 
L 165.340726 59.842041 
L 165.340726 60.040529 
L 165.061493 60.180125 
L 165.061493 60.757709 
L 165.340726 61.036343 
L 165.340726 61.912864 
L 165.619959 62.311696 
L 165.061493 62.490965 
L 165.061493 63.885114 
L 164.503028 64.064243 
L 164.503028 64.204259 
L 163.944563 64.821515 
L 163.944563 65.319418 
L 163.66533 65.558475 
L 163.66533 65.79754 
L 163.386097 65.996915 
L 163.386097 66.15584 
L 162.827632 66.315217 
L 163.106865 66.495384 
L 162.827632 66.633962 
L 162.827632 67.431277 
L 162.269166 67.729789 
L 162.269166 68.427628 
L 161.989934 68.606771 
L 161.989934 68.765685 
L 161.710701 68.925054 
L 161.710701 69.064643 
L 161.431468 69.283348 
L 161.431468 70.06042 
L 161.152236 70.299471 
L 161.152236 70.996856 
L 161.431468 71.156676 
L 161.431468 71.355148 
L 161.152236 71.514969 
L 161.152236 71.674346 
L 161.431468 71.973311 
L 161.431468 72.232149 
L 160.873003 72.431653 
L 160.873003 72.670703 
L 161.152236 72.929548 
L 161.152236 73.168152 
L 160.873003 73.427996 
L 161.152236 73.626927 
L 160.873003 73.825961 
L 160.873003 74.024891 
L 160.59377 74.244623 
L 160.59377 74.443091 
L 160.873003 74.722731 
L 160.873003 74.961782 
L 160.59377 75.160249 
L 160.59377 75.379975 
L 160.873003 75.578999 
L 160.873003 75.758592 
L 160.59377 76.016973 
L 160.59377 76.216927 
L 160.314538 76.435173 
L 160.314538 76.654908 
L 160.59377 76.893965 
L 160.59377 77.531449 
L 160.035305 77.790392 
L 160.035305 77.989322 
L 159.756072 78.208606 
L 159.756072 78.448132 
L 159.47684 78.68719 
L 159.47684 78.966374 
L 159.197607 79.204976 
L 159.197607 79.603402 
L 159.756072 79.882021 
L 159.756072 80.041861 
L 159.197607 80.201237 
L 159.197607 80.699132 
L 158.918374 80.917951 
L 158.918374 81.39608 
L 158.639141 81.655497 
L 158.080676 81.874216 
L 158.080676 82.11328 
L 156.963745 82.293002 
L 156.40528 82.57162 
L 156.40528 82.730989 
L 155.567582 82.910719 
L 155.567582 83.109649 
L 155.009116 83.38884 
L 155.009116 83.607558 
L 153.892186 83.906515 
L 153.892186 84.185699 
L 153.612953 84.444544 
L 153.054488 84.703389 
L 153.054488 84.902885 
L 152.21679 85.162201 
L 151.379091 85.282016 
L 151.379091 85.42114 
L 150.820626 85.560171 
L 150.820626 85.70023 
L 150.541393 85.899261 
L 150.541393 86.217999 
L 149.982928 86.576298 
L 149.982928 86.836151 
L 149.703695 87.074714 
L 149.703695 87.293891 
L 148.865997 87.492905 
L 148.865997 87.732428 
L 148.307532 87.911104 
L 147.469834 88.07048 
L 147.469834 88.32989 
L 146.911368 88.52882 
L 146.911368 88.847579 
L 146.632136 89.206458 
L 146.632136 89.545468 
L 146.07367 89.744486 
L 146.07367 89.884082 
L 145.515205 90.023106 
L 145.515205 90.302303 
L 145.235972 90.441898 
L 145.235972 90.60079 
L 144.956739 90.800206 
L 144.956739 90.999715 
L 144.677507 91.238772 
L 144.677507 91.996092 
L 144.398274 92.195029 
L 144.398274 92.414313 
L 143.839809 92.991916 
L 143.839809 93.171638 
L 143.560576 93.39044 
L 143.560576 93.649766 
L 143.839809 93.868567 
L 143.839809 94.168015 
L 143.560576 94.486767 
L 143.560576 95.024795 
L 143.002111 95.343547 
L 143.002111 95.542485 
L 143.281343 95.761768 
L 143.281343 96.399265 
L 143.002111 96.558626 
L 143.002111 97.514937 
L 142.722878 97.933646 
L 142.722878 98.63105 
L 142.443645 98.850325 
L 142.443645 99.965936 
L 141.88518 100.225331 
L 141.88518 100.464395 
L 141.605947 100.662833 
L 141.605947 101.320659 
L 141.326714 101.4998 
L 141.326714 101.67945 
L 140.768249 102.058109 
L 140.768249 102.277385 
L 139.930551 103.054484 
L 139.930551 103.931625 
L 139.651318 104.050371 
L 139.651318 104.210243 
L 139.372086 104.349838 
L 139.372086 105.126916 
L 138.81362 105.306638 
L 138.81362 105.485289 
L 138.255155 105.664935 
L 138.255155 105.824296 
L 137.696689 106.043065 
L 137.696689 106.382654 
L 136.579759 106.701398 
L 136.579759 106.88054 
L 135.742061 107.119089 
L 135.183595 107.319091 
L 135.183595 107.797219 
L 134.62513 108.016001 
L 134.62513 108.195142 
L 134.066664 108.335239 
L 134.066664 108.554514 
L 133.787432 108.773798 
L 133.787432 108.952947 
L 132.949734 109.11182 
L 132.949734 109.749826 
L 132.670501 109.988944 
L 132.670501 110.387375 
L 132.391268 110.607163 
L 132.391268 111.204533 
L 131.832803 111.344121 
L 131.832803 111.483717 
L 131.55357 111.682719 
L 131.832803 111.842081 
L 131.55357 112.081144 
L 131.55357 112.359769 
L 131.274337 112.698867 
L 131.274337 113.257174 
L 130.715872 113.655089 
L 130.715872 114.392634 
L 130.436639 114.65147 
L 130.436639 116.166593 
L 130.157407 116.346307 
L 130.157407 117.082758 
L 129.878174 117.342675 
L 130.157407 117.581225 
L 129.598941 118.219226 
L 129.598941 118.597346 
L 129.319709 118.857279 
L 129.319709 119.494266 
L 129.040476 119.693768 
L 129.040476 119.933341 
L 128.482011 120.232304 
L 128.482011 120.909935 
L 128.202778 121.14899 
L 128.202778 121.387535 
L 127.923545 121.587037 
L 127.923545 121.785966 
L 127.644312 122.005257 
L 127.644312 123.022497 
L 127.36508 123.281342 
L 127.36508 123.539656 
L 127.085847 123.779276 
L 127.085847 124.715711 
L 126.806614 124.915213 
L 126.806614 126.36994 
L 126.527382 126.569395 
L 126.527382 126.987645 
L 126.248149 127.187139 
L 126.248149 128.024128 
L 126.527382 128.26372 
L 126.527382 128.542373 
L 126.248149 128.722059 
L 126.248149 129.738214 
L 125.968916 130.016866 
L 125.968916 130.296587 
L 125.689684 130.5549 
L 126.248149 131.013238 
L 125.968916 131.192959 
L 125.410451 131.352335 
L 125.410451 131.471584 
L 125.689684 131.652363 
L 125.689684 131.811198 
L 125.131218 132.010709 
L 125.131218 132.866944 
L 124.29352 133.345062 
L 124.29352 134.002903 
L 123.735055 134.202933 
L 123.735055 134.780537 
L 123.455822 134.999283 
L 123.455822 135.517544 
L 123.176589 135.85718 
L 122.897357 135.996236 
L 122.897357 136.175932 
L 122.618124 136.394675 
L 122.618124 136.673874 
L 122.897357 136.912937 
L 122.897357 138.527581 
L 122.618124 138.706769 
L 122.618124 139.783348 
L 122.897357 139.942723 
L 122.897357 140.121892 
L 122.618124 140.261496 
L 122.618124 143.828722 
L 122.338891 144.028765 
L 122.338891 144.646456 
L 121.780426 144.865188 
L 121.780426 145.423575 
L 121.501193 145.623063 
L 121.501193 145.782452 
L 121.22196 146.161103 
L 121.22196 147.417447 
L 120.942728 147.65651 
L 120.942728 148.174209 
L 120.663495 148.33414 
L 120.942728 148.652892 
L 120.942728 150.12794 
L 120.663495 150.366437 
L 120.663495 150.606624 
L 120.384262 150.845137 
L 120.384262 151.064411 
L 120.10503 151.423289 
L 120.10503 151.622217 
L 120.384262 151.801939 
L 120.384262 152.000875 
L 120.10503 152.14047 
L 120.10503 153.197876 
L 119.825797 153.416023 
L 119.825797 154.672367 
L 119.546564 154.891641 
L 119.546564 155.569262 
L 119.267332 155.748984 
L 119.267332 156.445812 
L 118.988099 156.625525 
L 118.988099 156.884368 
L 118.708866 157.103651 
L 118.708866 157.264159 
L 118.429634 157.422959 
L 118.429634 157.642801 
L 118.150401 157.881296 
L 118.150401 158.558916 
L 117.871168 158.818316 
L 117.871168 159.156822 
L 117.591935 159.376097 
L 117.591935 159.595371 
L 117.03347 159.814645 
L 117.03347 159.974021 
L 116.195772 160.153153 
L 116.195772 160.313091 
L 115.637307 160.571944 
L 115.637307 160.811564 
L 115.078841 161.070407 
L 115.078841 161.28969 
L 113.682678 162.266289 
L 113.682678 162.446001 
L 113.403445 162.665293 
L 113.403445 162.924128 
L 113.124212 163.183546 
L 113.124212 164.240409 
L 112.84498 164.399199 
L 112.84498 164.598692 
L 112.565747 164.837746 
L 112.565747 165.037231 
L 112.007282 165.256506 
L 112.007282 165.675282 
L 111.448816 165.934117 
L 111.448816 166.153399 
L 110.890351 166.333692 
L 110.890351 166.512277 
L 110.052653 166.990959 
L 110.052653 167.170696 
L 109.214955 167.967532 
L 109.214955 168.147253 
L 108.935722 168.34619 
L 108.935722 168.505565 
L 108.377257 168.724848 
L 108.377257 168.903986 
L 107.818791 169.243666 
L 107.818791 169.442602 
L 107.539558 169.701427 
L 107.539558 169.940499 
L 106.981093 170.220282 
L 106.981093 170.458769 
L 106.422628 170.618171 
L 106.422628 170.818274 
L 105.026464 170.998004 
L 105.026464 171.157389 
L 103.351068 171.376671 
L 103.071835 171.555836 
L 101.675672 171.875152 
L 101.675672 172.053721 
L 100.000276 172.253223 
L 100.000276 172.432976 
L 98.32488 172.671451 
L 98.32488 172.91107 
L 96.649483 173.190848 
L 96.649483 173.370013 
L 95.532553 173.569515 
L 95.532553 173.768452 
L 94.415622 174.067406 
L 94.415622 174.326241 
L 93.019458 174.665328 
L 93.019458 174.845066 
L 91.623295 175.004433 
L 91.623295 175.184145 
L 90.506364 175.362709 
L 90.506364 175.562803 
L 89.668666 175.742533 
L 89.668666 175.961223 
L 88.830968 176.140379 
L 88.830968 176.380035 
L 87.99327 176.638851 
L 87.99327 176.937821 
L 87.155572 177.157103 
L 87.155572 177.356614 
L 86.317874 177.576491 
L 86.317874 177.774833 
L 85.759408 177.974938 
L 85.759408 178.273909 
L 85.200943 178.4932 
L 85.200943 178.711887 
L 84.363245 178.95212 
L 84.363245 179.130671 
L 83.80478 179.330173 
L 83.246314 179.649511 
L 83.246314 179.789097 
L 82.687849 179.968212 
L 82.408616 180.187494 
L 82.408616 180.386421 
L 81.850151 180.62604 
L 81.850151 180.865112 
L 81.570918 181.104166 
L 81.570918 181.364174 
L 81.291685 181.523542 
L 81.291685 181.722444 
L 80.73322 182.24127 
L 80.73322 183.73664 
L 81.012453 183.915193 
L 81.012453 184.314197 
L 81.291685 184.652728 
L 81.012453 184.87201 
L 81.012453 185.46995 
L 80.73322 185.710183 
L 80.73322 185.888724 
L 80.453987 186.128362 
L 80.453987 186.387205 
L 80.174754 186.64722 
L 80.174754 186.886284 
L 79.895522 187.085178 
L 79.895522 187.344022 
L 79.616289 187.523733 
L 79.616289 188.062384 
L 79.337056 188.261268 
L 79.337056 188.460769 
L 79.057824 188.639925 
L 79.057824 189.457722 
L 78.778591 190.015526 
L 78.778591 190.793799 
L 78.499358 190.952561 
L 78.499358 191.172447 
L 78.778591 191.331784 
L 78.778591 191.570838 
L 78.499358 191.79012 
L 78.499358 192.947053 
L 78.220126 193.186109 
L 78.220126 193.823576 
L 77.940893 194.023685 
L 77.940893 194.262124 
L 77.382428 194.461633 
L 77.382428 194.680915 
L 77.103195 194.960732 
L 77.103195 195.439423 
L 76.544729 195.697639 
L 76.544729 195.936702 
L 76.265497 196.176322 
L 76.544729 196.456112 
L 76.265497 196.674774 
L 76.265497 196.93422 
L 75.986264 197.113301 
L 76.265497 197.372126 
L 76.265497 197.571618 
L 75.986264 197.751339 
L 75.986264 197.950275 
L 75.707031 198.129996 
L 75.707031 198.967555 
L 75.427799 199.126922 
L 75.427799 199.545063 
L 75.148566 200.084335 
L 75.148566 202.695814 
L 75.427799 202.935505 
L 75.427799 205.406813 
L 75.707031 205.626066 
L 75.707031 205.826183 
L 75.427799 206.044813 
L 75.427799 206.204744 
L 75.148566 206.364091 
L 75.148566 206.542613 
L 74.869333 206.762519 
L 74.869333 207.021918 
L 74.590101 207.260971 
L 74.590101 207.580279 
L 74.310868 207.779771 
L 74.310868 207.978697 
L 73.752403 208.197315 
L 73.752403 208.397433 
L 73.47317 208.637032 
L 73.47317 208.856297 
L 73.193937 209.035424 
L 73.193937 209.194799 
L 72.914704 209.414062 
L 72.914704 209.633281 
L 72.356239 209.872324 
L 72.356239 210.570906 
L 72.077006 210.750044 
L 72.077006 210.949526 
L 71.797774 211.18857 
L 71.797774 211.407852 
L 71.518541 211.64746 
L 71.518541 211.866733 
L 71.239308 212.045879 
L 71.239308 212.60422 
L 70.680843 212.803069 
L 70.680843 213.022984 
L 70.960076 213.22311 
L 70.960076 214.079104 
L 70.680843 214.319436 
L 70.680843 214.497858 
L 70.40161 214.677658 
L 70.680843 214.838234 
L 70.122378 215.495415 
L 70.122378 216.37318 
L 69.843145 216.651704 
L 69.843145 217.947586 
L 70.122378 218.106961 
L 70.122378 218.924095 
L 70.40161 219.184144 
L 70.40161 220.320027 
L 70.680843 220.439928 
L 70.680843 222.433752 
L 70.960076 222.712923 
L 70.960076 223.211384 
L 71.239308 223.391105 
L 71.239308 225.444223 
L 70.40161 225.663515 
L 70.40161 225.863015 
L 69.563912 226.042812 
L 69.563912 226.262084 
L 68.446981 226.481931 
L 68.446981 226.680857 
L 67.330051 226.880358 
L 67.330051 227.079859 
L 66.21312 227.298469 
L 65.933887 227.617774 
L 65.375422 227.81671 
L 65.375422 228.036645 
L 64.258491 228.255828 
L 64.258491 228.4751 
L 63.420793 228.654911 
L 63.420793 228.853747 
L 63.420793 228.853747 
" clip-path="url(#pd5099b2a88)" style="fill: none; stroke: #7f7f7f; stroke-width: 1.5; stroke-linecap: square"/>
   </g>
   <g id="line2d_16">
    <path d="M 210.576423 7.365004 
L 210.855655 7.564505 
L 210.855655 8.221228 
L 211.134888 8.400394 
L 211.134888 8.838625 
L 211.414121 9.017804 
L 211.134888 9.336362 
L 211.134888 9.555649 
L 210.855655 9.794362 
L 210.855655 10.013102 
L 210.29719 10.271976 
L 210.29719 10.471869 
L 210.017957 10.690598 
L 210.017957 10.909891 
L 208.342561 11.108462 
L 208.342561 11.287621 
L 207.22563 11.507271 
L 207.22563 11.944916 
L 206.667165 12.18436 
L 205.550234 12.402358 
L 205.550234 12.622016 
L 204.712536 12.880486 
L 204.712536 13.119541 
L 203.316372 13.338229 
L 203.316372 13.57765 
L 201.082511 13.776198 
L 201.082511 13.995838 
L 198.290184 14.214553 
L 196.335555 14.573056 
L 196.335555 14.732427 
L 194.101694 14.931361 
L 194.101694 15.150075 
L 192.70553 15.349567 
L 192.426297 15.548501 
L 191.030134 15.946959 
L 191.030134 16.145892 
L 189.913203 16.345015 
L 189.913203 16.544332 
L 189.075505 16.882862 
L 188.237807 17.062014 
L 188.237807 17.281685 
L 187.679342 17.500028 
L 187.679342 17.719314 
L 187.120876 17.937656 
L 187.120876 18.157321 
L 186.562411 18.33648 
L 186.562411 18.555766 
L 186.003945 18.754713 
L 186.003945 19.471349 
L 185.44548 19.670847 
L 185.44548 20.287986 
L 185.166247 20.526665 
L 185.166247 20.706212 
L 184.607782 20.925498 
L 184.607782 21.14383 
L 183.770084 21.323365 
L 183.770084 21.562049 
L 183.490851 21.741591 
L 183.490851 22.060333 
L 183.211619 22.259447 
L 183.211619 22.45799 
L 182.094688 22.677487 
L 182.094688 22.876593 
L 180.698524 23.11566 
L 180.698524 23.314214 
L 179.023128 23.533885 
L 179.023128 23.732439 
L 177.347732 23.911984 
L 177.347732 24.111102 
L 175.951568 24.449631 
L 175.951568 24.628776 
L 174.834638 24.847476 
L 174.834638 25.066742 
L 173.717707 25.286021 
L 173.717707 25.504727 
L 172.042311 25.704198 
L 172.042311 25.923281 
L 170.366915 26.161931 
L 170.366915 26.400573 
L 168.133053 26.59987 
L 168.133053 26.779001 
L 165.899192 27.097325 
L 165.899192 27.256689 
L 163.386097 27.476358 
L 163.386097 27.655125 
L 160.59377 27.873858 
L 160.59377 28.073356 
L 158.359909 28.312821 
L 158.359909 28.551494 
L 155.567582 28.750826 
L 155.567582 28.969718 
L 153.892186 29.169037 
L 153.892186 29.347787 
L 152.496022 29.686698 
L 152.496022 29.865461 
L 150.541393 30.085134 
L 150.820626 30.263904 
L 148.865997 30.483195 
L 148.865997 30.662749 
L 146.911368 30.861292 
L 146.911368 31.080583 
L 145.235972 31.279529 
L 145.235972 31.47943 
L 144.119041 31.718092 
L 143.560576 32.076408 
L 143.560576 32.275354 
L 142.164413 32.474858 
L 142.164413 32.693578 
L 141.605947 33.092028 
L 141.605947 33.311712 
L 141.047482 33.510251 
L 141.047482 33.689403 
L 140.489016 33.908688 
L 140.489016 34.107633 
L 139.930551 34.286791 
L 139.372086 34.605539 
L 139.651318 34.805444 
L 139.092853 35.003982 
L 139.092853 35.22326 
L 138.534388 35.441979 
L 138.534388 35.661667 
L 138.255155 35.840415 
L 138.255155 36.0597 
L 137.975922 36.278427 
L 137.975922 36.697209 
L 137.138224 37.413835 
L 137.417457 37.613345 
L 137.417457 38.230502 
L 137.138224 38.40966 
L 137.138224 39.625163 
L 136.579759 39.803913 
L 136.579759 40.023191 
L 135.742061 40.242305 
L 135.742061 40.461153 
L 135.183595 40.640291 
L 135.183595 40.819845 
L 134.62513 41.018932 
L 134.62513 41.23821 
L 133.787432 41.417361 
L 133.787432 41.636491 
L 132.391268 41.835577 
L 132.391268 42.133986 
L 131.274337 42.313716 
L 131.274337 42.51264 
L 130.157407 42.73152 
L 130.157407 42.930864 
L 129.319709 43.170335 
L 129.319709 43.369413 
L 128.761243 43.588119 
L 128.761243 43.807803 
L 128.202778 44.02666 
L 128.202778 44.245365 
L 127.36508 44.583886 
L 127.36508 44.743257 
L 126.806614 44.942761 
L 126.806614 45.121905 
L 126.248149 45.320836 
L 126.248149 45.540529 
L 125.968916 45.759384 
L 125.968916 45.958294 
L 125.410451 46.197325 
L 125.410451 46.376864 
L 125.689684 46.595712 
L 125.689684 46.775259 
L 125.968916 47.093985 
L 125.968916 47.750751 
L 126.806614 47.970419 
L 126.806614 48.16889 
L 127.923545 48.408339 
L 127.923545 48.58705 
L 129.319709 48.786525 
L 129.319709 48.965668 
L 131.274337 49.224921 
L 130.995105 49.403638 
L 132.670501 49.802058 
L 134.066664 49.96185 
L 134.066664 50.160924 
L 135.462828 50.360292 
L 135.462828 50.579584 
L 136.579759 50.858197 
L 136.579759 51.057687 
L 137.975922 51.455663 
L 137.975922 51.635224 
L 140.209784 52.152868 
L 140.209784 52.332018 
L 141.88518 52.571069 
L 141.88518 52.750213 
L 142.722878 52.969924 
L 142.722878 53.208548 
L 143.839809 53.427806 
L 143.839809 53.646496 
L 145.235972 53.826205 
L 145.235972 54.025116 
L 146.07367 54.224577 
L 146.07367 54.941476 
L 147.749066 55.180084 
L 147.749066 55.419128 
L 149.703695 55.61861 
L 149.703695 55.798191 
L 151.937557 56.036819 
L 151.937557 56.235744 
L 153.892186 56.395114 
L 153.892186 56.595041 
L 155.567582 56.773767 
L 155.567582 56.973271 
L 157.242978 57.311798 
L 157.242978 57.511176 
L 158.359909 57.730013 
L 158.359909 57.988419 
L 159.47684 58.208129 
L 159.47684 58.447194 
L 160.035305 58.646552 
L 160.035305 58.86583 
L 160.873003 59.044552 
L 160.873003 59.264266 
L 161.989934 59.443416 
L 161.989934 59.801861 
L 162.269166 59.941328 
L 162.269166 60.180379 
L 162.827632 60.359665 
L 162.827632 60.558596 
L 163.386097 60.797654 
L 163.386097 61.415365 
L 163.66533 61.634515 
L 163.66533 62.391817 
L 164.223795 62.610641 
L 164.223795 62.869919 
L 163.944563 63.088742 
L 163.944563 64.124502 
L 163.66533 64.30379 
L 163.66533 64.502721 
L 163.944563 64.721998 
L 163.944563 65.020949 
L 164.223795 65.220323 
L 164.223795 65.41937 
L 163.66533 65.877132 
L 163.944563 66.077072 
L 163.944563 66.733886 
L 163.66533 66.933835 
L 163.66533 67.451499 
L 163.386097 67.590641 
L 163.386097 67.809792 
L 163.106865 67.989507 
L 163.106865 68.407268 
L 162.827632 68.626544 
L 162.827632 70.837369 
L 162.548399 70.997183 
L 162.548399 71.19622 
L 162.269166 71.415489 
L 162.269166 71.634653 
L 161.989934 71.853922 
L 161.989934 72.052967 
L 161.710701 72.371252 
L 161.710701 72.570643 
L 161.989934 72.78992 
L 161.989934 73.42741 
L 161.710701 73.66693 
L 161.710701 73.905987 
L 161.431468 74.084682 
L 161.710701 74.324195 
L 161.710701 74.722629 
L 161.431468 75.061715 
L 161.431468 75.65908 
L 161.152236 75.838222 
L 161.152236 76.037718 
L 161.431468 76.236642 
L 161.431468 76.45546 
L 161.152236 76.675189 
L 161.152236 76.894007 
L 160.873003 77.133523 
L 160.873003 77.331987 
L 161.152236 77.809641 
L 161.152236 78.029838 
L 160.873003 78.228873 
L 161.152236 78.428726 
L 161.152236 80.021508 
L 161.431468 80.180877 
L 161.431468 80.440744 
L 161.152236 80.599649 
L 161.152236 81.63601 
L 161.431468 81.85482 
L 161.431468 82.053736 
L 161.152236 82.273479 
L 161.152236 82.551624 
L 161.431468 82.731339 
L 161.431468 82.910481 
L 160.873003 83.109984 
L 160.873003 83.309382 
L 160.59377 83.52819 
L 160.59377 83.74795 
L 160.035305 83.987007 
L 160.035305 84.643809 
L 158.918374 84.843312 
L 158.359909 85.162064 
L 158.359909 85.540716 
L 157.242978 85.719873 
L 157.242978 85.91929 
L 156.40528 86.138087 
L 156.40528 86.317716 
L 155.846815 86.516747 
L 155.846815 86.736497 
L 155.567582 86.975081 
L 155.567582 87.174018 
L 153.892186 87.712032 
L 153.892186 87.931775 
L 153.33372 88.110442 
L 153.33372 88.329726 
L 152.496022 88.529213 
L 152.496022 88.728137 
L 151.937557 89.146931 
L 151.937557 89.345861 
L 151.658324 89.505714 
L 151.658324 89.724513 
L 150.820626 90.203111 
L 150.820626 90.421918 
L 150.541393 90.641201 
L 150.541393 90.880258 
L 149.982928 91.099541 
L 149.982928 91.298464 
L 149.424463 91.537999 
L 149.424463 91.756796 
L 148.586764 91.956291 
L 148.865997 92.155221 
L 148.586764 92.354724 
L 148.586764 92.673951 
L 148.028299 92.832839 
L 148.028299 93.031784 
L 147.469834 93.231279 
L 147.469834 93.410917 
L 147.190601 93.590158 
L 147.190601 93.789095 
L 146.911368 94.008379 
L 146.911368 94.227662 
L 146.632136 94.446953 
L 146.632136 94.685534 
L 146.352903 95.004762 
L 146.352903 95.203699 
L 145.794438 95.422975 
L 145.794438 95.642251 
L 145.515205 95.861542 
L 145.794438 96.041184 
L 145.235972 96.20006 
L 145.235972 96.798474 
L 144.956739 96.996925 
L 144.956739 97.71463 
L 144.398274 97.933898 
L 144.398274 98.172955 
L 144.119041 98.371396 
L 144.119041 98.59116 
L 143.560576 98.790655 
L 143.560576 98.969812 
L 142.722878 99.188598 
L 142.722878 99.388025 
L 142.443645 99.606811 
L 142.443645 100.265145 
L 141.605947 100.504193 
L 141.605947 101.061994 
L 141.047482 101.301543 
L 141.047482 101.440646 
L 140.768249 101.61981 
L 140.768249 101.839093 
L 140.489016 102.078157 
L 140.489016 102.416196 
L 140.768249 102.616193 
L 140.489016 102.835468 
L 139.930551 103.054759 
L 139.930551 103.253697 
L 139.651318 103.453207 
L 139.651318 104.030796 
L 139.372086 104.249576 
L 139.372086 104.648496 
L 139.651318 105.127679 
L 139.092853 105.325629 
L 139.092853 106.561566 
L 138.81362 106.760553 
L 138.81362 107.657952 
L 138.255155 107.876162 
L 138.255155 108.095437 
L 137.975922 108.27566 
L 137.975922 108.47459 
L 137.696689 108.654312 
L 137.696689 108.853249 
L 137.417457 109.07203 
L 137.417457 109.272035 
L 136.858991 109.490753 
L 136.858991 109.81007 
L 136.300526 109.989235 
L 136.300526 110.20851 
L 136.021293 110.406951 
L 136.021293 110.626226 
L 135.462828 110.846014 
L 135.462828 111.424176 
L 134.904362 111.642953 
L 134.904362 111.842396 
L 134.62513 112.021545 
L 134.62513 112.280456 
L 134.345897 112.459605 
L 134.345897 113.455986 
L 134.066664 113.655488 
L 134.066664 114.293493 
L 133.787432 114.632591 
L 133.787432 115.229968 
L 134.066664 115.40969 
L 134.066664 115.608635 
L 133.508199 115.82791 
L 133.508199 117.22329 
L 133.228966 117.442 
L 133.228966 118.458197 
L 132.949734 118.677989 
L 132.949734 118.85713 
L 132.670501 119.076413 
L 132.670501 119.554525 
L 132.391268 119.733721 
L 132.391268 120.112882 
L 132.112036 120.311285 
L 132.112036 120.969119 
L 131.832803 121.208686 
L 131.832803 121.387834 
L 131.274337 121.886292 
L 131.274337 122.065456 
L 130.995105 122.264951 
L 130.995105 123.260819 
L 130.715872 123.460843 
L 130.715872 123.680126 
L 130.436639 123.879064 
L 130.436639 125.752021 
L 130.157407 125.952048 
L 130.157407 126.708832 
L 129.598941 126.88798 
L 129.878174 127.047883 
L 129.598941 127.227613 
L 129.598941 128.641663 
L 129.319709 128.841686 
L 129.319709 129.140657 
L 129.040476 129.319814 
L 129.040476 129.518786 
L 128.761243 129.71828 
L 128.761243 129.897967 
L 129.040476 130.076585 
L 129.040476 130.295867 
L 128.761243 130.476129 
L 128.761243 131.153742 
L 128.482011 131.352147 
L 128.482011 132.07042 
L 128.202778 132.268831 
L 128.202778 132.887645 
L 128.482011 133.066801 
L 128.482011 133.286076 
L 128.202778 133.465241 
L 128.202778 133.644419 
L 128.482011 134.102765 
L 128.482011 134.520977 
L 128.761243 134.700706 
L 128.761243 134.920518 
L 128.482011 135.11891 
L 128.482011 135.278823 
L 128.202778 135.557468 
L 128.202778 135.777281 
L 128.482011 135.996034 
L 128.482011 136.155949 
L 128.202778 136.495038 
L 127.644312 136.653882 
L 127.644312 137.172668 
L 127.085847 137.391943 
L 127.085847 137.590347 
L 126.806614 137.770618 
L 126.806614 138.587293 
L 126.527382 138.925825 
L 126.527382 139.324807 
L 126.248149 139.523757 
L 126.248149 139.743032 
L 125.968916 139.942542 
L 125.968916 140.121682 
L 125.689684 140.32172 
L 125.689684 140.480543 
L 125.410451 140.659691 
L 125.410451 141.377967 
L 124.851986 141.616469 
L 125.131218 141.816509 
L 124.572753 141.995666 
L 124.572753 142.633187 
L 124.29352 142.852478 
L 124.29352 143.470757 
L 124.014287 143.749389 
L 124.014287 144.745761 
L 123.735055 144.945263 
L 123.735055 148.074495 
L 123.455822 148.314114 
L 124.014287 148.632286 
L 124.014287 149.031829 
L 123.176589 149.23021 
L 123.176589 149.589079 
L 123.455822 149.768792 
L 123.176589 149.928725 
L 123.176589 150.107873 
L 122.897357 150.346936 
L 122.897357 150.565661 
L 122.618124 150.805281 
L 122.618124 151.323534 
L 122.338891 151.50269 
L 122.338891 151.681846 
L 121.780426 151.901681 
L 121.780426 152.060501 
L 121.501193 152.26055 
L 121.501193 152.439711 
L 120.942728 152.83815 
L 120.942728 153.057425 
L 120.663495 153.376183 
L 120.10503 153.555335 
L 120.10503 153.775163 
L 118.988099 153.974654 
L 118.988099 154.193374 
L 117.871168 154.413212 
L 117.871168 154.631913 
L 116.754237 154.831398 
L 116.754237 155.011095 
L 115.637307 155.210032 
L 115.637307 155.409525 
L 115.078841 155.628808 
L 115.078841 155.92777 
L 114.520376 156.087145 
L 114.520376 156.306436 
L 114.241143 156.505938 
L 114.241143 156.725796 
L 113.682678 156.924158 
L 113.682678 157.164354 
L 113.403445 157.362723 
L 113.403445 157.582006 
L 112.565747 157.782076 
L 112.565747 157.960655 
L 112.007282 158.179946 
L 112.007282 158.499262 
L 111.448816 158.717984 
L 111.448816 158.917482 
L 110.890351 159.116984 
L 110.890351 159.336266 
L 110.331885 159.57533 
L 110.331885 159.755051 
L 109.77342 159.953988 
L 109.77342 160.17327 
L 109.214955 160.392562 
L 109.214955 160.592064 
L 108.656489 161.290611 
L 108.656489 161.529101 
L 108.377257 161.728603 
L 108.377257 161.947303 
L 108.098024 162.127033 
L 108.098024 162.327109 
L 107.539558 162.525463 
L 107.539558 162.724965 
L 107.260326 162.924467 
L 107.260326 163.123962 
L 106.981093 163.422931 
L 106.981093 163.642222 
L 106.70186 163.821378 
L 106.70186 164.040652 
L 106.422628 164.26052 
L 106.422628 164.458868 
L 106.143395 164.638601 
L 106.143395 164.877656 
L 105.58493 165.096361 
L 105.58493 165.295871 
L 105.305697 165.535512 
L 105.305697 165.735006 
L 104.747232 166.033397 
L 104.747232 166.453349 
L 104.188766 166.891326 
L 104.188766 167.110599 
L 103.351068 167.329283 
L 103.351068 167.549138 
L 102.792603 167.748615 
L 102.792603 167.967298 
L 101.954905 168.166808 
L 101.675672 168.486097 
L 101.675672 169.083986 
L 101.396439 169.282905 
L 101.396439 169.960488 
L 101.117207 170.159424 
L 101.117207 170.379283 
L 100.558741 170.797472 
L 99.721043 171.077248 
L 99.721043 171.735086 
L 99.162578 171.894462 
L 99.162578 172.133525 
L 98.604112 172.352791 
L 98.604112 172.512739 
L 98.32488 172.732014 
L 98.32488 172.971059 
L 97.766414 173.150813 
L 97.766414 173.389853 
L 97.487182 173.688823 
L 97.487182 173.867979 
L 96.928716 174.067481 
L 96.928716 174.246055 
L 96.370251 174.465919 
L 96.370251 174.66543 
L 95.532553 174.904493 
L 95.532553 175.103986 
L 94.694855 175.323268 
L 94.694855 175.52277 
L 94.415622 175.74146 
L 94.415622 176.060803 
L 93.577924 176.260305 
L 93.577924 176.858228 
L 93.298691 177.117645 
L 93.298691 177.317147 
L 93.019458 177.53643 
L 93.019458 177.755703 
L 92.740226 177.95464 
L 92.740226 178.173931 
L 92.18176 178.392618 
L 92.18176 179.17026 
L 91.902528 179.349416 
L 91.902528 179.529734 
L 91.623295 179.729236 
L 91.623295 180.366738 
L 91.344062 180.585421 
L 91.344062 181.323503 
L 91.06483 181.562556 
L 91.06483 183.017809 
L 90.785597 183.256872 
L 90.785597 184.174117 
L 90.506364 184.374223 
L 90.506364 184.612673 
L 90.227131 184.772652 
L 90.227131 185.629396 
L 89.947899 185.829503 
L 89.947899 186.029005 
L 89.110201 186.566431 
L 89.110201 186.746185 
L 88.830968 186.96486 
L 88.830968 187.205086 
L 88.551735 187.40398 
L 88.551735 187.982739 
L 87.99327 188.201421 
L 87.99327 188.441084 
L 87.434805 188.699309 
L 87.434805 188.9186 
L 87.155572 189.139058 
L 87.155572 189.297822 
L 86.597106 189.537487 
L 86.597106 189.717208 
L 86.038641 189.955659 
L 86.038641 190.593725 
L 85.759408 190.813007 
L 85.759408 191.032289 
L 85.480176 191.371424 
L 85.480176 191.551146 
L 85.200943 191.769823 
L 85.200943 192.008877 
L 84.92171 192.208378 
L 84.92171 192.388714 
L 84.363245 192.607372 
L 84.363245 192.806933 
L 84.084012 193.006425 
L 84.084012 193.205927 
L 83.246314 193.444374 
L 81.850151 194.600682 
L 81.291685 194.840919 
L 81.291685 195.039246 
L 81.012453 195.238748 
L 81.012453 196.355504 
L 81.291685 196.53528 
L 81.291685 196.715001 
L 81.012453 196.934284 
L 81.012453 197.571711 
L 80.73322 197.770638 
L 81.012453 197.989298 
L 80.453987 198.229548 
L 80.453987 198.449453 
L 79.895522 198.627977 
L 79.337056 198.986853 
L 79.337056 199.14621 
L 78.220126 199.345692 
L 78.220126 199.545184 
L 77.66166 199.944178 
L 77.66166 200.163469 
L 77.103195 200.342625 
L 77.103195 200.561898 
L 76.823962 200.78118 
L 76.823962 200.980681 
L 76.544729 201.159828 
L 76.265497 201.498933 
L 76.265497 201.678635 
L 75.986264 201.897909 
L 75.986264 202.576136 
L 75.427799 202.755219 
L 75.427799 202.95535 
L 75.148566 203.133857 
L 75.148566 203.831849 
L 74.869333 204.011014 
L 74.869333 204.669482 
L 74.590101 204.868974 
L 74.590101 205.327224 
L 74.310868 205.526141 
L 74.310868 207.280945 
L 74.590101 207.500217 
L 74.590101 207.879501 
L 74.310868 208.098147 
L 74.590101 208.337756 
L 74.590101 208.537248 
L 74.869333 208.855988 
L 74.869333 209.454546 
L 74.590101 209.713307 
L 74.590101 209.91217 
L 74.310868 210.171651 
L 74.590101 210.331601 
L 74.031635 210.591074 
L 74.031635 210.750441 
L 73.47317 210.949933 
L 73.47317 211.168566 
L 73.193937 211.468101 
L 73.193937 211.647256 
L 72.635472 211.827608 
L 72.635472 212.444677 
L 72.356239 212.664611 
L 72.356239 212.863461 
L 72.077006 213.082743 
L 72.077006 213.761578 
L 71.518541 214.358873 
L 71.518541 215.734462 
L 71.239308 215.99387 
L 71.239308 216.492341 
L 71.518541 216.711623 
L 71.518541 216.951241 
L 71.239308 217.150177 
L 71.239308 219.003739 
L 71.518541 219.223662 
L 71.518541 219.423163 
L 71.239308 219.642455 
L 71.239308 221.437382 
L 70.960076 221.636318 
L 71.239308 221.856146 
L 71.239308 222.076054 
L 70.960076 222.274327 
L 70.960076 222.494145 
L 69.843145 222.693061 
L 69.843145 222.872107 
L 68.446981 223.051889 
L 68.446981 223.251373 
L 67.888516 223.470625 
L 67.888516 223.789264 
L 67.330051 223.949286 
L 67.330051 224.56757 
L 67.050818 224.746067 
L 67.050818 224.925788 
L 66.492352 225.165509 
L 66.492352 225.384791 
L 65.933887 225.643539 
L 65.933887 225.863471 
L 64.816956 226.062972 
L 64.816956 226.381702 
L 63.979258 226.560744 
L 63.979258 226.760906 
L 62.862327 226.940052 
L 62.862327 227.159324 
L 62.024629 227.379161 
L 62.024629 227.578097 
L 61.466164 227.817725 
L 61.466164 228.017226 
L 60.628466 228.634945 
L 60.628466 228.95426 
L 60.628466 228.95426 
" clip-path="url(#pd5099b2a88)" style="fill: none; stroke: #bcbd22; stroke-width: 1.5; stroke-linecap: square"/>
   </g>
   <g id="line2d_17">
    <path d="M 195.218624 7.37483 
L 195.218624 7.73277 
L 194.380926 7.911929 
L 194.380926 8.111428 
L 193.822461 8.330508 
L 193.822461 8.588978 
L 193.263996 8.76849 
L 193.263996 8.987398 
L 192.984763 9.166551 
L 192.984763 9.405618 
L 192.70553 9.6247 
L 192.70553 10.799315 
L 192.147065 11.018601 
L 192.147065 11.675309 
L 191.867832 11.914383 
L 191.867832 12.134033 
L 191.588599 12.332609 
L 191.588599 12.551895 
L 191.867832 12.850318 
L 191.867832 13.069969 
L 191.588599 13.268537 
L 191.588599 13.487823 
L 191.867832 13.706551 
L 191.867832 13.945978 
L 191.309367 14.164891 
L 191.309367 14.383985 
L 191.588599 14.602891 
L 191.588599 16.892954 
L 191.867832 17.112039 
L 191.588599 17.290815 
L 191.588599 17.709028 
L 191.309367 18.047931 
L 191.309367 18.247429 
L 191.588599 18.505898 
L 191.588599 18.685057 
L 191.867832 18.924497 
L 191.867832 19.580832 
L 192.426297 19.780323 
L 192.426297 20.019385 
L 192.147065 20.238092 
L 192.147065 20.457372 
L 191.867832 20.795902 
L 191.867832 20.975054 
L 192.70553 21.19434 
L 192.70553 21.612001 
L 192.984763 21.831287 
L 192.70553 22.010445 
L 192.70553 22.647964 
L 192.147065 22.866705 
L 192.147065 23.105791 
L 191.309367 23.444355 
L 191.309367 23.62352 
L 190.192436 23.822646 
L 190.192436 24.0815 
L 189.354738 24.300221 
L 189.354738 24.480339 
L 188.237807 24.679279 
L 188.237807 24.918346 
L 187.120876 25.136678 
L 187.120876 25.375745 
L 185.724713 25.595024 
L 185.724713 25.913759 
L 185.44548 26.073116 
L 185.44548 26.27203 
L 184.607782 26.470956 
L 184.607782 26.709995 
L 183.211619 26.909096 
L 183.211619 27.187724 
L 181.536222 27.406444 
L 181.536222 27.645498 
L 179.581594 27.864756 
L 179.581594 28.084399 
L 177.068499 28.303086 
L 177.068499 28.68129 
L 175.11387 28.841019 
L 175.11387 29.059327 
L 173.159242 29.258817 
L 173.159242 29.457356 
L 171.763078 29.656288 
L 171.763078 29.856581 
L 170.087682 30.074906 
L 170.087682 30.274397 
L 168.412286 30.473329 
L 168.412286 30.672813 
L 167.295355 30.891514 
L 167.295355 31.190467 
L 166.73689 31.40918 
L 167.016122 31.628829 
L 165.899192 31.847683 
L 165.899192 32.106888 
L 165.340726 32.325169 
L 165.340726 32.52464 
L 165.061493 32.764077 
L 165.061493 33.420934 
L 164.503028 33.938627 
L 164.223795 34.177686 
L 164.223795 34.3964 
L 163.944563 34.595904 
L 163.944563 34.794843 
L 163.386097 34.994742 
L 163.386097 35.631291 
L 162.827632 35.850576 
L 162.827632 36.090045 
L 161.989934 36.647448 
L 161.989934 36.866168 
L 161.710701 37.105233 
L 161.710701 37.743148 
L 161.431468 37.941681 
L 161.431468 38.519296 
L 160.873003 38.818255 
L 160.873003 39.017187 
L 161.431468 39.236465 
L 161.431468 39.515079 
L 161.152236 39.773918 
L 161.152236 39.973422 
L 160.873003 40.212488 
L 160.873003 40.470926 
L 160.314538 40.69021 
L 160.314538 40.869778 
L 160.035305 41.10885 
L 160.035305 41.287591 
L 158.918374 41.606777 
L 158.918374 41.745808 
L 158.080676 41.965093 
L 158.080676 42.144251 
L 157.522211 42.323004 
L 157.522211 42.522906 
L 156.40528 42.721838 
L 156.40528 42.921321 
L 155.567582 43.160374 
L 155.567582 43.379072 
L 155.288349 43.637905 
L 155.288349 43.876963 
L 155.009116 44.255611 
L 155.009116 44.872747 
L 154.729884 45.052463 
L 154.729884 45.271182 
L 155.009116 45.49046 
L 155.009116 47.044027 
L 155.288349 47.283072 
L 155.288349 47.481989 
L 155.567582 47.740962 
L 155.567582 47.960498 
L 156.126047 48.19913 
L 156.126047 48.457928 
L 156.684513 48.677584 
L 156.684513 48.916167 
L 157.801443 49.155177 
L 157.801443 49.473875 
L 158.918374 49.6728 
L 158.918374 49.852366 
L 160.035305 50.031652 
L 160.035305 50.231006 
L 160.59377 50.410164 
L 160.59377 50.629456 
L 161.710701 50.827978 
L 161.710701 51.047263 
L 161.989934 51.266971 
L 161.989934 52.122697 
L 162.827632 52.322187 
L 162.827632 52.540886 
L 162.269166 52.740809 
L 162.548399 52.999641 
L 163.106865 53.218911 
L 163.106865 53.417843 
L 163.386097 53.616905 
L 163.386097 53.816264 
L 163.944563 54.015327 
L 163.944563 54.214258 
L 164.503028 54.493429 
L 164.503028 54.871511 
L 164.782261 55.110555 
L 164.782261 55.54911 
L 165.061493 55.808386 
L 165.061493 56.047452 
L 165.340726 56.22661 
L 165.340726 56.465675 
L 165.619959 56.704309 
L 165.619959 57.262106 
L 165.899192 57.461448 
L 165.899192 59.094169 
L 165.619959 59.313882 
L 165.619959 60.727908 
L 165.340726 60.987184 
L 165.340726 61.206454 
L 165.061493 61.40494 
L 165.061493 61.663771 
L 164.782261 61.863699 
L 164.782261 62.95903 
L 164.503028 63.177736 
L 164.503028 63.377666 
L 164.223795 63.61629 
L 164.223795 63.875121 
L 163.944563 64.094398 
L 163.944563 64.313095 
L 163.66533 64.493253 
L 163.66533 64.692185 
L 163.106865 65.389585 
L 163.106865 66.485433 
L 162.827632 66.724053 
L 162.827632 66.922983 
L 162.269166 67.162048 
L 162.269166 67.440674 
L 162.548399 67.640624 
L 162.548399 67.859447 
L 161.989934 68.058377 
L 161.989934 69.532877 
L 162.269166 69.752045 
L 161.989934 70.130249 
L 162.269166 70.349977 
L 162.269166 70.608808 
L 161.989934 70.807853 
L 161.989934 71.823863 
L 162.269166 72.043586 
L 162.269166 72.760257 
L 163.106865 72.939965 
L 163.106865 73.158676 
L 162.827632 73.377938 
L 162.827632 73.596753 
L 163.106865 73.816022 
L 163.106865 74.015395 
L 163.386097 74.234672 
L 163.386097 75.66858 
L 163.106865 75.848195 
L 163.106865 77.083201 
L 163.386097 77.302492 
L 163.386097 77.542024 
L 163.106865 77.860337 
L 162.548399 78.059282 
L 162.548399 78.278566 
L 161.710701 78.498318 
L 161.710701 78.697256 
L 160.873003 78.916063 
L 160.873003 79.11556 
L 160.314538 79.294703 
L 160.314538 79.53423 
L 159.756072 79.91289 
L 159.756072 80.091584 
L 159.47684 80.43011 
L 158.918374 80.649393 
L 158.918374 80.848339 
L 158.639141 81.067622 
L 158.639141 81.26714 
L 158.359909 81.506676 
L 158.359909 81.765071 
L 158.080676 81.924928 
L 158.080676 82.163985 
L 157.522211 82.40305 
L 157.522211 82.602538 
L 156.963745 82.921233 
L 156.963745 83.597766 
L 156.684513 83.777466 
L 156.684513 83.956616 
L 156.40528 84.135758 
L 156.40528 84.315474 
L 156.126047 84.494631 
L 156.126047 85.132128 
L 155.846815 85.471125 
L 155.846815 85.689937 
L 155.567582 85.948775 
L 155.567582 86.168051 
L 155.288349 86.367554 
L 155.288349 86.606618 
L 155.009116 86.826374 
L 155.009116 87.423746 
L 154.729884 87.602903 
L 154.729884 88.259805 
L 154.450651 88.459218 
L 154.450651 88.678969 
L 154.171418 88.897777 
L 154.171418 89.097273 
L 153.892186 89.296218 
L 153.892186 89.954061 
L 153.612953 90.193125 
L 153.612953 90.531643 
L 153.892186 90.731146 
L 153.892186 90.930084 
L 153.33372 91.14936 
L 153.33372 91.767077 
L 153.054488 91.966015 
L 153.054488 92.125863 
L 152.496022 92.324879 
L 152.496022 92.464954 
L 152.21679 92.663412 
L 152.496022 93.002502 
L 152.496022 93.221221 
L 152.21679 93.460843 
L 151.379091 93.739468 
L 151.379091 93.978525 
L 151.099859 94.197801 
L 151.099859 94.397296 
L 150.541393 94.656624 
L 150.541393 94.895213 
L 149.982928 95.114013 
L 149.982928 95.333765 
L 149.424463 95.652524 
L 148.865997 95.811885 
L 148.865997 96.011308 
L 148.307532 96.170191 
L 148.307532 96.349913 
L 147.749066 96.509283 
L 147.749066 96.728567 
L 147.190601 97.146788 
L 147.190601 97.386331 
L 146.632136 97.644682 
L 146.632136 98.222821 
L 146.07367 98.46187 
L 146.07367 98.700926 
L 145.794438 98.939983 
L 145.794438 99.159252 
L 145.235972 99.398308 
L 145.235972 99.597811 
L 144.956739 99.75718 
L 144.956739 99.956117 
L 144.677507 100.115485 
L 144.677507 100.2952 
L 144.398274 100.474357 
L 144.398274 100.81239 
L 143.839809 101.012384 
L 143.839809 101.211322 
L 143.560576 101.490997 
L 143.560576 101.729076 
L 143.281343 101.988979 
L 143.281343 102.207682 
L 143.002111 102.406691 
L 143.002111 102.666022 
L 142.722878 102.86503 
L 142.722878 103.543141 
L 142.443645 103.741575 
L 142.443645 103.961362 
L 142.164413 104.160369 
L 142.164413 104.340021 
L 141.88518 104.518688 
L 141.88518 105.136902 
L 141.605947 105.375966 
L 141.605947 105.635376 
L 141.326714 106.014027 
L 141.326714 106.731204 
L 140.768249 106.950487 
L 140.768249 107.169763 
L 140.489016 107.368708 
L 140.489016 107.906235 
L 140.209784 108.066104 
L 140.209784 108.245333 
L 139.651318 108.504679 
L 139.651318 108.704181 
L 139.372086 108.963018 
L 139.651318 109.222931 
L 139.651318 109.700549 
L 139.092853 109.959386 
L 139.092853 110.656277 
L 138.81362 110.876065 
L 139.092853 111.194817 
L 139.092853 111.374531 
L 138.255155 111.553687 
L 137.975922 111.732838 
L 137.975922 112.270865 
L 137.417457 112.470368 
L 137.417457 112.729212 
L 136.858991 112.928707 
L 136.858991 113.167263 
L 136.300526 113.745925 
L 136.300526 113.965201 
L 136.021293 114.183919 
L 136.021293 114.403202 
L 135.742061 114.602697 
L 135.742061 114.84125 
L 135.462828 115.040753 
L 135.462828 115.259989 
L 135.183595 115.478754 
L 135.183595 115.897539 
L 134.904362 116.096988 
L 134.345897 116.356398 
L 134.345897 116.933979 
L 134.066664 117.133489 
L 134.066664 117.770961 
L 133.787432 117.990238 
L 133.787432 118.229302 
L 133.508199 118.468915 
L 133.508199 118.82722 
L 133.228966 119.026715 
L 133.228966 119.604861 
L 132.949734 119.823062 
L 132.949734 120.003293 
L 132.670501 120.222568 
L 132.670501 120.401725 
L 132.391268 120.64078 
L 132.391268 120.839773 
L 132.112036 121.039212 
L 132.112036 121.756954 
L 131.832803 122.015263 
L 131.832803 122.235066 
L 131.55357 122.434561 
L 131.55357 122.673096 
L 131.274337 122.912672 
L 131.274337 123.112167 
L 130.995105 123.310582 
L 130.995105 124.068398 
L 130.436639 124.24812 
L 130.715872 124.44705 
L 130.715872 124.82571 
L 130.436639 125.044985 
L 130.436639 125.244479 
L 129.878174 125.463754 
L 130.157407 125.662691 
L 129.878174 125.901795 
L 129.878174 126.679395 
L 129.598941 126.918451 
L 129.598941 127.157514 
L 129.319709 127.37627 
L 129.319709 127.914296 
L 128.761243 128.094538 
L 128.761243 128.671597 
L 128.482011 129.209631 
L 128.482011 129.428907 
L 128.202778 129.667978 
L 128.202778 130.106528 
L 127.923545 130.326334 
L 127.923545 130.564867 
L 127.644312 130.764892 
L 127.644312 131.003948 
L 127.085847 131.502413 
L 127.085847 131.641467 
L 126.806614 131.880531 
L 126.806614 132.039906 
L 126.527382 132.27897 
L 126.527382 132.518568 
L 126.248149 132.717536 
L 126.248149 133.315469 
L 125.968916 133.495152 
L 125.968916 133.694646 
L 125.410451 134.01339 
L 125.410451 134.232666 
L 125.689684 134.471737 
L 125.689684 136.265017 
L 125.410451 136.704114 
L 125.410451 137.122359 
L 125.689684 137.302047 
L 125.689684 137.521339 
L 125.410451 137.759853 
L 125.410451 139.713596 
L 125.131218 139.892774 
L 125.131218 140.829239 
L 124.851986 141.029286 
L 124.851986 141.36781 
L 125.131218 141.546986 
L 125.131218 141.726134 
L 124.851986 141.926174 
L 124.851986 142.145457 
L 124.29352 142.404293 
L 124.29352 142.663694 
L 124.014287 142.941771 
L 124.014287 143.201172 
L 123.176589 143.380328 
L 123.176589 143.580371 
L 122.618124 143.758978 
L 122.338891 144.018388 
L 122.338891 144.177763 
L 122.059659 144.35692 
L 121.22196 144.536641 
L 121.22196 144.756467 
L 120.663495 144.935056 
L 120.663495 145.154322 
L 120.10503 145.373579 
L 120.10503 145.592853 
L 119.546564 145.812128 
L 119.546564 145.991275 
L 118.988099 146.370483 
L 118.429634 146.54964 
L 118.429634 146.768931 
L 118.150401 146.968978 
L 118.150401 147.167361 
L 117.871168 147.347083 
L 117.871168 147.56692 
L 117.591935 147.765865 
L 117.591935 148.143961 
L 117.312703 148.344018 
L 117.312703 148.782028 
L 117.03347 148.941404 
L 117.03347 149.320619 
L 117.312703 149.539902 
L 117.03347 149.798762 
L 117.03347 150.018052 
L 116.754237 150.257108 
L 116.754237 150.795134 
L 117.03347 151.094104 
L 117.03347 151.274385 
L 116.754237 151.452973 
L 116.754237 151.672256 
L 117.03347 151.892099 
L 117.03347 158.190781 
L 117.591935 158.907976 
L 117.03347 159.087132 
L 117.03347 160.742488 
L 117.312703 161.080439 
L 117.312703 161.260161 
L 117.03347 161.479443 
L 117.03347 162.077393 
L 116.754237 162.276895 
L 116.754237 163.273833 
L 116.475005 163.572228 
L 116.475005 163.751942 
L 116.754237 163.951455 
L 116.754237 165.087979 
L 116.475005 165.306666 
L 116.475005 166.004645 
L 116.754237 166.163433 
L 116.754237 166.741593 
L 116.475005 166.960867 
L 116.475005 167.200495 
L 116.754237 167.419778 
L 116.754237 167.639052 
L 116.475005 167.858334 
L 116.475005 168.575524 
L 116.195772 168.775026 
L 116.195772 170.60894 
L 115.916539 170.808434 
L 115.916539 171.147513 
L 115.637307 171.32666 
L 115.637307 171.486631 
L 114.799609 171.746013 
L 114.799609 171.964131 
L 113.682678 172.223553 
L 113.682678 172.422467 
L 112.565747 172.622548 
L 112.565747 172.861602 
L 111.728049 173.040751 
L 111.728049 173.219874 
L 110.890351 173.419947 
L 110.890351 173.63923 
L 110.052653 173.838157 
L 110.052653 174.057422 
L 109.494187 174.256343 
L 109.494187 174.495996 
L 109.214955 174.735616 
L 109.214955 174.934552 
L 108.656489 175.153826 
L 108.935722 175.373117 
L 108.656489 175.55283 
L 108.656489 175.731986 
L 107.818791 176.211279 
L 107.818791 177.107597 
L 107.539558 177.287318 
L 107.539558 177.90503 
L 107.260326 178.124313 
L 107.260326 179.041535 
L 106.981093 179.200918 
L 106.981093 179.459739 
L 106.70186 179.658675 
L 106.70186 179.878564 
L 105.864162 180.097856 
L 105.864162 180.296759 
L 104.747232 180.71616 
L 103.071835 181.034902 
L 103.071835 181.214605 
L 101.954905 181.354209 
L 101.954905 181.552537 
L 100.837974 181.792774 
L 100.837974 182.012084 
L 99.721043 182.230784 
L 99.721043 182.490247 
L 98.32488 182.689765 
L 98.32488 182.928218 
L 96.370251 183.148085 
L 96.370251 183.32777 
L 94.136389 183.60633 
L 94.415622 183.765696 
L 92.740226 183.945455 
L 92.740226 184.105386 
L 91.902528 184.324057 
L 91.902528 184.543944 
L 91.06483 184.961558 
L 90.506364 185.221572 
L 90.506364 185.421074 
L 90.227131 185.679303 
L 90.227131 185.999215 
L 89.668666 186.21847 
L 89.668666 186.39702 
L 89.389433 186.576759 
L 89.389433 186.776312 
L 89.668666 186.936252 
L 89.668666 187.353873 
L 89.389433 187.573164 
L 89.389433 188.949375 
L 88.830968 189.1884 
L 88.830968 189.408302 
L 88.551735 189.626948 
L 88.551735 189.827024 
L 87.99327 190.006107 
L 87.99327 190.204942 
L 88.272503 190.42481 
L 88.272503 190.663827 
L 89.110201 190.903437 
L 89.110201 191.222169 
L 91.06483 191.42168 
L 91.06483 191.600213 
L 92.18176 191.779934 
L 92.18176 191.999831 
L 93.298691 192.159206 
L 93.298691 192.338967 
L 94.136389 192.557635 
L 94.136389 192.757129 
L 94.974087 193.016538 
L 94.974087 193.255609 
L 95.532553 193.634259 
L 96.091018 193.813363 
L 96.091018 194.053033 
L 96.370251 194.271699 
L 96.370251 194.471209 
L 96.649483 194.6911 
L 96.649483 195.109893 
L 96.928716 195.309395 
L 96.928716 195.487914 
L 97.207949 195.688034 
L 97.207949 196.206287 
L 97.487182 196.385378 
L 97.487182 199.296529 
L 97.207949 199.515802 
L 97.207949 199.695533 
L 96.928716 199.874679 
L 96.928716 201.010582 
L 96.649483 201.369458 
L 96.649483 201.58874 
L 96.370251 201.769089 
L 96.370251 202.287341 
L 96.091018 202.506623 
L 96.091018 203.005087 
L 95.811785 203.20396 
L 95.811785 203.642524 
L 95.532553 203.961904 
L 95.532553 204.540063 
L 95.25332 204.799463 
L 95.25332 205.456677 
L 94.974087 205.656821 
L 94.974087 205.876094 
L 94.694855 206.05525 
L 94.694855 206.734076 
L 94.415622 206.932935 
L 94.415622 207.1121 
L 94.136389 207.310957 
L 94.136389 207.968794 
L 93.857156 208.207876 
L 93.857156 208.467911 
L 93.577924 208.706337 
L 93.857156 209.206083 
L 93.019458 209.424655 
L 93.019458 209.803941 
L 92.740226 209.962687 
L 92.740226 210.162818 
L 92.460993 210.321545 
L 92.460993 210.540827 
L 92.18176 210.680421 
L 92.18176 211.059078 
L 91.902528 211.438931 
L 91.902528 211.677363 
L 91.623295 211.916426 
L 91.623295 212.135698 
L 91.344062 212.395748 
L 91.344062 212.575479 
L 91.06483 212.794761 
L 91.06483 213.631111 
L 90.785597 214.110436 
L 90.785597 214.289522 
L 90.506364 214.468669 
L 90.506364 215.147506 
L 90.227131 215.286445 
L 90.227131 215.526163 
L 89.947899 215.784916 
L 89.947899 216.004845 
L 89.389433 216.184 
L 89.389433 216.523106 
L 88.830968 216.72197 
L 88.830968 216.981388 
L 87.99327 217.140764 
L 87.99327 217.319919 
L 87.155572 217.49965 
L 87.155572 217.678805 
L 86.317874 217.878317 
L 86.317874 218.077828 
L 85.200943 218.29711 
L 85.200943 218.516392 
L 84.363245 218.735692 
L 84.363245 219.114924 
L 83.525547 219.294089 
L 83.525547 219.513381 
L 82.408616 219.693111 
L 82.408616 219.912384 
L 80.73322 220.111885 
L 80.73322 220.331157 
L 79.337056 220.530746 
L 79.337056 220.728933 
L 78.220126 220.92975 
L 78.220126 221.128588 
L 77.103195 221.38866 
L 77.103195 221.548035 
L 76.544729 221.706747 
L 76.544729 221.886468 
L 75.707031 222.085404 
L 75.707031 222.284896 
L 75.148566 222.52517 
L 75.148566 222.743797 
L 74.590101 222.982185 
L 74.590101 223.262 
L 74.031635 223.461482 
L 74.031635 223.701172 
L 73.752403 224.019812 
L 73.193937 224.198948 
L 73.193937 224.358304 
L 72.635472 224.777038 
L 72.635472 224.956731 
L 72.356239 225.176652 
L 72.356239 225.355129 
L 71.797774 225.554611 
L 71.797774 225.734312 
L 71.239308 226.093171 
L 70.960076 226.471798 
L 70.40161 226.671941 
L 70.40161 226.910323 
L 70.122378 227.13015 
L 70.122378 227.350086 
L 69.563912 227.608267 
L 69.563912 227.826867 
L 69.284679 228.027021 
L 69.284679 228.266638 
L 68.446981 228.944265 
L 68.446981 228.944265 
" clip-path="url(#pd5099b2a88)" style="fill: none; stroke: #17becf; stroke-width: 1.5; stroke-linecap: square"/>
   </g>
   <g id="line2d_18"/>
   <g id="line2d_19"/>
   <g id="line2d_20"/>
   <g id="patch_3">
    <path d="M 53.019375 228.96 
L 53.019375 7.2 
" style="fill: none; stroke: #000000; stroke-width: 0.8; stroke-linejoin: miter; stroke-linecap: square"/>
   </g>
   <g id="patch_4">
    <path d="M 220.419375 228.96 
L 220.419375 7.2 
" style="fill: none; stroke: #000000; stroke-width: 0.8; stroke-linejoin: miter; stroke-linecap: square"/>
   </g>
   <g id="patch_5">
    <path d="M 53.019375 228.96 
L 220.419375 228.96 
" style="fill: none; stroke: #000000; stroke-width: 0.8; stroke-linejoin: miter; stroke-linecap: square"/>
   </g>
   <g id="patch_6">
    <path d="M 53.019375 7.2 
L 220.419375 7.2 
" style="fill: none; stroke: #000000; stroke-width: 0.8; stroke-linejoin: miter; stroke-linecap: square"/>
   </g>
   <g id="legend_1">
    <g id="patch_7">
     <path d="M 145.673125 223.96 
L 212.619375 223.96 
Q 215.419375 223.96 215.419375 221.16 
L 215.419375 160.911875 
Q 215.419375 158.111875 212.619375 158.111875 
L 145.673125 158.111875 
Q 142.873125 158.111875 142.873125 160.911875 
L 142.873125 221.16 
Q 142.873125 223.96 145.673125 223.96 
z
" style="fill: #4d4d4d; opacity: 0.5; stroke: #4d4d4d; stroke-linejoin: miter"/>
    </g>
    <g id="patch_8">
     <path d="M 143.673125 221.96 
L 210.619375 221.96 
Q 213.419375 221.96 213.419375 219.16 
L 213.419375 158.911875 
Q 213.419375 156.111875 210.619375 156.111875 
L 143.673125 156.111875 
Q 140.873125 156.111875 140.873125 158.911875 
L 140.873125 219.16 
Q 140.873125 221.96 143.673125 221.96 
z
" style="fill: #ffffff; stroke: #cccccc; stroke-linejoin: miter"/>
    </g>
    <g id="line2d_21">
     <path d="M 146.473125 167.449688 
L 153.473125 167.449688 
L 160.473125 167.449688 
" style="fill: none; stroke: #7f7f7f; stroke-width: 1.5; stroke-linecap: square"/>
    </g>
    <g id="text_10">
     <!-- 10:47 -->
     <g transform="translate(167.473125 172.349688) scale(0.14 -0.14)">
      <defs>
       <path id="DejaVuSans-31" d="M 794 531 
L 1825 531 
L 1825 4091 
L 703 3866 
L 703 4441 
L 1819 4666 
L 2450 4666 
L 2450 531 
L 3481 531 
L 3481 0 
L 794 0 
L 794 531 
z
" transform="scale(0.015625)"/>
       <path id="DejaVuSans-30" d="M 2034 4250 
Q 1547 4250 1301 3770 
Q 1056 3291 1056 2328 
Q 1056 1369 1301 889 
Q 1547 409 2034 409 
Q 2525 409 2770 889 
Q 3016 1369 3016 2328 
Q 3016 3291 2770 3770 
Q 2525 4250 2034 4250 
z
M 2034 4750 
Q 2819 4750 3233 4129 
Q 3647 3509 3647 2328 
Q 3647 1150 3233 529 
Q 2819 -91 2034 -91 
Q 1250 -91 836 529 
Q 422 1150 422 2328 
Q 422 3509 836 4129 
Q 1250 4750 2034 4750 
z
" transform="scale(0.015625)"/>
       <path id="DejaVuSans-3a" d="M 750 794 
L 1409 794 
L 1409 0 
L 750 0 
L 750 794 
z
M 750 3309 
L 1409 3309 
L 1409 2516 
L 750 2516 
L 750 3309 
z
" transform="scale(0.015625)"/>
      </defs>
      <use xlink:href="#DejaVuSans-31"/>
      <use xlink:href="#DejaVuSans-30" transform="translate(63.623047 0)"/>
      <use xlink:href="#DejaVuSans-3a" transform="translate(127.246094 0)"/>
      <use xlink:href="#DejaVuSans-34" transform="translate(160.9375 0)"/>
      <use xlink:href="#DejaVuSans-37" transform="translate(224.560547 0)"/>
     </g>
    </g>
    <g id="line2d_22">
     <path d="M 146.473125 187.999063 
L 153.473125 187.999063 
L 160.473125 187.999063 
" style="fill: none; stroke: #bcbd22; stroke-width: 1.5; stroke-linecap: square"/>
    </g>
    <g id="text_11">
     <!-- 11:02 -->
     <g transform="translate(167.473125 192.899063) scale(0.14 -0.14)">
      <defs>
       <path id="DejaVuSans-32" d="M 1228 531 
L 3431 531 
L 3431 0 
L 469 0 
L 469 531 
Q 828 903 1448 1529 
Q 2069 2156 2228 2338 
Q 2531 2678 2651 2914 
Q 2772 3150 2772 3378 
Q 2772 3750 2511 3984 
Q 2250 4219 1831 4219 
Q 1534 4219 1204 4116 
Q 875 4013 500 3803 
L 500 4441 
Q 881 4594 1212 4672 
Q 1544 4750 1819 4750 
Q 2544 4750 2975 4387 
Q 3406 4025 3406 3419 
Q 3406 3131 3298 2873 
Q 3191 2616 2906 2266 
Q 2828 2175 2409 1742 
Q 1991 1309 1228 531 
z
" transform="scale(0.015625)"/>
      </defs>
      <use xlink:href="#DejaVuSans-31"/>
      <use xlink:href="#DejaVuSans-31" transform="translate(63.623047 0)"/>
      <use xlink:href="#DejaVuSans-3a" transform="translate(127.246094 0)"/>
      <use xlink:href="#DejaVuSans-30" transform="translate(160.9375 0)"/>
      <use xlink:href="#DejaVuSans-32" transform="translate(224.560547 0)"/>
     </g>
    </g>
    <g id="line2d_23">
     <path d="M 146.473125 208.548438 
L 153.473125 208.548438 
L 160.473125 208.548438 
" style="fill: none; stroke: #17becf; stroke-width: 1.5; stroke-linecap: square"/>
    </g>
    <g id="text_12">
     <!-- 11:17 -->
     <g transform="translate(167.473125 213.448438) scale(0.14 -0.14)">
      <use xlink:href="#DejaVuSans-31"/>
      <use xlink:href="#DejaVuSans-31" transform="translate(63.623047 0)"/>
      <use xlink:href="#DejaVuSans-3a" transform="translate(127.246094 0)"/>
      <use xlink:href="#DejaVuSans-31" transform="translate(160.9375 0)"/>
      <use xlink:href="#DejaVuSans-37" transform="translate(224.560547 0)"/>
     </g>
    </g>
   </g>
  </g>
 </g>
 <defs>
  <clipPath id="pd5099b2a88">
   <rect x="53.019375" y="7.2" width="167.4" height="221.76"/>
  </clipPath>
 </defs>
</svg>
