<?xml version="1.0" encoding="utf-8" standalone="no"?>
<!DOCTYPE svg PUBLIC "-//W3C//DTD SVG 1.1//EN"
  "http://www.w3.org/Graphics/SVG/1.1/DTD/svg11.dtd">
<svg xmlns:xlink="http://www.w3.org/1999/xlink" width="424.8pt" height="136.8pt" viewBox="0 0 424.8 136.8" xmlns="http://www.w3.org/2000/svg" version="1.1">
 <metadata>
  <rdf:RDF xmlns:dc="http://purl.org/dc/elements/1.1/" xmlns:cc="http://creativecommons.org/ns#" xmlns:rdf="http://www.w3.org/1999/02/22-rdf-syntax-ns#">
   <cc:Work>
    <dc:type rdf:resource="http://purl.org/dc/dcmitype/StillImage"/>
    <dc:date>2026-03-15T18:36:37.469886</dc:date>
    <dc:format>image/svg+xml</dc:format>
    <dc:creator>
     <cc:Agent>
      <dc:title>Matplotlib v3.10.6, https://matplotlib.org/</dc:title>
     </cc:Agent>
    </dc:creator>
   </cc:Work>
  </rdf:RDF>
 </metadata>
 <defs>
  <style type="text/css">*{stroke-linejoin: round; stroke-linecap: butt}</style>
 </defs>
 <g id="figure_1">
  <g id="patch_1">
   <path d="M 0 136.8 
L 424.8 136.8 
L 424.8 0 
L 0 0 
z
" style="fill: #ffffff"/>
  </g>
  <g id="axes_1">
   <g id="patch_2">
    <path d="M 7.2 129.6 
L 162.4 129.6 
L 162.4 7.2 
L 7.2 7.2 
z
" style="fill: #ffffff"/>
   </g>
   <g id="patch_3">
    <path d="M 7.2 129.6 
L 162.4 129.6 
L 162.4 7.2 
L 7.2 7.2 
z
" clip-path="url(#p76f603f2d4)" style="fill: #1f77b4; opacity: 0.5; stroke: #1f77b4; stroke-linejoin: miter"/>
   </g>
   <g id="PathCollection_1">
    <defs>
     <path id="mf97175d2cc" d="M -3 3 
L 3 -3 
M -3 -3 
L 3 3 
" style="stroke: #000000; stroke-width: 1.5"/>
    </defs>
    <g clip-path="url(#p76f603f2d4)">
     <use xlink:href="#mf97175d2cc" x="84.8" y="68.4" style="stroke: #000000; stroke-width: 1.5"/>
    </g>
   </g>
   <g id="matplotlib.axis_1"/>
   <g id="matplotlib.axis_2"/>
   <g id="patch_4">
    <path d="M 7.2 129.6 
L 7.2 7.2 
" style="fill: none; stroke: #000000; stroke-width: 0.8; stroke-linejoin: miter; stroke-linecap: square"/>
   </g>
   <g id="patch_5">
    <path d="M 162.4 129.6 
L 162.4 7.2 
" style="fill: none; stroke: #000000; stroke-width: 0.8; stroke-linejoin: miter; stroke-linecap: square"/>
   </g>
   <g id="patch_6">
    <path d="M 7.2 129.6 
L 162.4 129.6 
" style="fill: none; stroke: #000000; stroke-width: 0.8; stroke-linejoin: miter; stroke-linecap: square"/>
   </g>
   <g id="patch_7">
    <path d="M 7.2 7.2 
L 162.4 7.2 
" style="fill: none; stroke: #000000; stroke-width: 0.8; stroke-linejoin: miter; stroke-linecap: square"/>
   </g>
  </g>
  <g id="axes_2">
   <g id="patch_8">
    <path d="M 262.4 129.6 
L 417.6 129.6 
L 417.6 7.2 
L 262.4 7.2 
z
" style="fill: #ffffff"/>
   </g>
   <g id="patch_9">
    <path d="M 262.4 129.6 
L 313.616 129.6 
L 313.616 99 
L 262.4 99 
z
" clip-path="url(#pa7020547b4)" style="fill: #d62728; opacity: 0.3; stroke: #d62728; stroke-linejoin: miter"/>
   </g>
   <g id="patch_10">
    <path d="M 313.616 129.6 
L 366.384 129.6 
L 366.384 99 
L 313.616 99 
z
" clip-path="url(#pa7020547b4)" style="fill: #d62728; opacity: 0.6; stroke: #d62728; stroke-linejoin: miter"/>
   </g>
   <g id="patch_11">
    <path d="M 366.384 129.6 
L 417.6 129.6 
L 417.6 99 
L 366.384 99 
z
" clip-path="url(#pa7020547b4)" style="fill: #1f77b4; opacity: 0.2; stroke: #1f77b4; stroke-linejoin: miter"/>
   </g>
   <g id="patch_12">
    <path d="M 262.4 99 
L 313.616 99 
L 313.616 68.4 
L 262.4 68.4 
z
" clip-path="url(#pa7020547b4)" style="fill: #1f77b4; opacity: 0.2; stroke: #1f77b4; stroke-linejoin: miter"/>
   </g>
   <g id="patch_13">
    <path d="M 313.616 99 
L 366.384 99 
L 366.384 68.4 
L 313.616 68.4 
z
" clip-path="url(#pa7020547b4)" style="fill: #1f77b4; opacity: 0.5; stroke: #1f77b4; stroke-linejoin: miter"/>
   </g>
   <g id="patch_14">
    <path d="M 366.384 99 
L 417.6 99 
L 417.6 68.4 
L 366.384 68.4 
z
" clip-path="url(#pa7020547b4)" style="fill: #1f77b4; opacity: 0.3; stroke: #1f77b4; stroke-linejoin: miter"/>
   </g>
   <g id="patch_15">
    <path d="M 262.4 68.4 
L 313.616 68.4 
L 313.616 37.8 
L 262.4 37.8 
z
" clip-path="url(#pa7020547b4)" style="fill: #d62728; opacity: 0.2; stroke: #d62728; stroke-linejoin: miter"/>
   </g>
   <g id="patch_16">
    <path d="M 313.616 68.4 
L 366.384 68.4 
L 366.384 37.8 
L 313.616 37.8 
z
" clip-path="url(#pa7020547b4)" style="fill: #1f77b4; opacity: 0.6; stroke: #1f77b4; stroke-linejoin: miter"/>
   </g>
   <g id="patch_17">
    <path d="M 366.384 68.4 
L 417.6 68.4 
L 417.6 37.8 
L 366.384 37.8 
z
" clip-path="url(#pa7020547b4)" style="fill: #1f77b4; opacity: 0.4; stroke: #1f77b4; stroke-linejoin: miter"/>
   </g>
   <g id="patch_18">
    <path d="M 262.4 37.8 
L 313.616 37.8 
L 313.616 7.2 
L 262.4 7.2 
z
" clip-path="url(#pa7020547b4)" style="fill: #d62728; opacity: 0.5; stroke: #d62728; stroke-linejoin: miter"/>
   </g>
   <g id="patch_19">
    <path d="M 313.616 37.8 
L 366.384 37.8 
L 366.384 7.2 
L 313.616 7.2 
z
" clip-path="url(#pa7020547b4)" style="fill: #d62728; opacity: 0.4; stroke: #d62728; stroke-linejoin: miter"/>
   </g>
   <g id="patch_20">
    <path d="M 366.384 37.8 
L 417.6 37.8 
L 417.6 7.2 
L 366.384 7.2 
z
" clip-path="url(#pa7020547b4)" style="fill: #d62728; opacity: 0.3; stroke: #d62728; stroke-linejoin: miter"/>
   </g>
   <g id="matplotlib.axis_3"/>
   <g id="matplotlib.axis_4"/>
   <g id="patch_21">
    <path d="M 262.4 129.6 
L 262.4 7.2 
" style="fill: none; stroke: #000000; stroke-width: 0.8; stroke-linejoin: miter; stroke-linecap: square"/>
   </g>
   <g id="patch_22">
    <path d="M 417.6 129.6 
L 417.6 7.2 
" style="fill: none; stroke: #000000; stroke-width: 0.8; stroke-linejoin: miter; stroke-linecap: square"/>
   </g>
   <g id="patch_23">
    <path d="M 262.4 129.6 
L 417.6 129.6 
" style="fill: none; stroke: #000000; stroke-width: 0.8; stroke-linejoin: miter; stroke-linecap: square"/>
   </g>
   <g id="patch_24">
    <path d="M 262.4 7.2 
L 417.6 7.2 
" style="fill: none; stroke: #000000; stroke-width: 0.8; stroke-linejoin: miter; stroke-linecap: square"/>
   </g>
  </g>
 </g>
 <defs>
  <clipPath id="p76f603f2d4">
   <rect x="7.2" y="7.2" width="155.2" height="122.4"/>
  </clipPath>
  <clipPath id="pa7020547b4">
   <rect x="262.4" y="7.2" width="155.2" height="122.4"/>
  </clipPath>
 </defs>
</svg>
