<?xml version="1.0" encoding="utf-8" standalone="no"?>
<!DOCTYPE svg PUBLIC "-//W3C//DTD SVG 1.1//EN"
  "http://www.w3.org/Graphics/SVG/1.1/DTD/svg11.dtd">
<svg xmlns:xlink="http://www.w3.org/1999/xlink" width="352.669375pt" height="282.96pt" viewBox="0 0 352.669375 282.96" xmlns="http://www.w3.org/2000/svg" version="1.1">
 <metadata>
  <rdf:RDF xmlns:dc="http://purl.org/dc/elements/1.1/" xmlns:cc="http://creativecommons.org/ns#" xmlns:rdf="http://www.w3.org/1999/02/22-rdf-syntax-ns#">
   <cc:Work>
    <dc:type rdf:resource="http://purl.org/dc/dcmitype/StillImage"/>
    <dc:date>2026-03-15T18:58:31.041393</dc:date>
    <dc:format>image/svg+xml</dc:format>
    <dc:creator>
     <cc:Agent>
      <dc:title>Matplotlib v3.10.6, https://matplotlib.org/</dc:title>
     </cc:Agent>
    </dc:creator>
   </cc:Work>
  </rdf:RDF>
 </metadata>
 <defs>
  <style type="text/css">*{stroke-linejoin: round; stroke-linecap: butt}</style>
 </defs>
 <g id="figure_1">
  <g id="patch_1">
   <path d="M -0 282.96 
L 352.669375 282.96 
L 352.669375 0 
L -0 0 
z
" style="fill: #ffffff"/>
  </g>
  <g id="axes_1">
   <g id="patch_2">
    <path d="M 30.749375 249.12 
L 182.709375 249.12 
L 182.709375 7.2 
L 30.749375 7.2 
z
" style="fill: #ffffff"/>
   </g>
   <g id="patch_3">
    <path d="M 30.749375 159.809641 
L 182.709375 159.809641 
L 182.709375 178.691416 
L 30.749375 178.691416 
z
" clip-path="url(#pddc45c9ab5)" style="fill: #808080; opacity: 0.3; stroke: #808080; stroke-linejoin: miter"/>
   </g>
   <g id="matplotlib.axis_1"/>
   <g id="matplotlib.axis_2">
    <g id="text_1">
     <!-- Depth [m] -->
     <g transform="translate(17.837813 163.986875) rotate(-90) scale(0.14 -0.14)">
      <defs>
       <path id="DejaVuSans-44" d="M 1259 4147 
L 1259 519 
L 2022 519 
Q 2988 519 3436 956 
Q 3884 1394 3884 2338 
Q 3884 3275 3436 3711 
Q 2988 4147 2022 4147 
L 1259 4147 
z
M 628 4666 
L 1925 4666 
Q 3281 4666 3915 4102 
Q 4550 3538 4550 2338 
Q 4550 1131 3912 565 
Q 3275 0 1925 0 
L 628 0 
L 628 4666 
z
" transform="scale(0.015625)"/>
       <path id="DejaVuSans-65" d="M 3597 1894 
L 3597 1613 
L 953 1613 
Q 991 1019 1311 708 
Q 1631 397 2203 397 
Q 2534 397 2845 478 
Q 3156 559 3463 722 
L 3463 178 
Q 3153 47 2828 -22 
Q 2503 -91 2169 -91 
Q 1331 -91 842 396 
Q 353 884 353 1716 
Q 353 2575 817 3079 
Q 1281 3584 2069 3584 
Q 2775 3584 3186 3129 
Q 3597 2675 3597 1894 
z
M 3022 2063 
Q 3016 2534 2758 2815 
Q 2500 3097 2075 3097 
Q 1594 3097 1305 2825 
Q 1016 2553 972 2059 
L 3022 2063 
z
" transform="scale(0.015625)"/>
       <path id="DejaVuSans-70" d="M 1159 525 
L 1159 -1331 
L 581 -1331 
L 581 3500 
L 1159 3500 
L 1159 2969 
Q 1341 3281 1617 3432 
Q 1894 3584 2278 3584 
Q 2916 3584 3314 3078 
Q 3713 2572 3713 1747 
Q 3713 922 3314 415 
Q 2916 -91 2278 -91 
Q 1894 -91 1617 61 
Q 1341 213 1159 525 
z
M 3116 1747 
Q 3116 2381 2855 2742 
Q 2594 3103 2138 3103 
Q 1681 3103 1420 2742 
Q 1159 2381 1159 1747 
Q 1159 1113 1420 752 
Q 1681 391 2138 391 
Q 2594 391 2855 752 
Q 3116 1113 3116 1747 
z
" transform="scale(0.015625)"/>
       <path id="DejaVuSans-74" d="M 1172 4494 
L 1172 3500 
L 2356 3500 
L 2356 3053 
L 1172 3053 
L 1172 1153 
Q 1172 725 1289 603 
Q 1406 481 1766 481 
L 2356 481 
L 2356 0 
L 1766 0 
Q 1100 0 847 248 
Q 594 497 594 1153 
L 594 3053 
L 172 3053 
L 172 3500 
L 594 3500 
L 594 4494 
L 1172 4494 
z
" transform="scale(0.015625)"/>
       <path id="DejaVuSans-68" d="M 3513 2113 
L 3513 0 
L 2938 0 
L 2938 2094 
Q 2938 2591 2744 2837 
Q 2550 3084 2163 3084 
Q 1697 3084 1428 2787 
Q 1159 2491 1159 1978 
L 1159 0 
L 581 0 
L 581 4863 
L 1159 4863 
L 1159 2956 
Q 1366 3272 1645 3428 
Q 1925 3584 2291 3584 
Q 2894 3584 3203 3211 
Q 3513 2838 3513 2113 
z
" transform="scale(0.015625)"/>
       <path id="DejaVuSans-20" transform="scale(0.015625)"/>
       <path id="DejaVuSans-5b" d="M 550 4863 
L 1875 4863 
L 1875 4416 
L 1125 4416 
L 1125 -397 
L 1875 -397 
L 1875 -844 
L 550 -844 
L 550 4863 
z
" transform="scale(0.015625)"/>
       <path id="DejaVuSans-6d" d="M 3328 2828 
Q 3544 3216 3844 3400 
Q 4144 3584 4550 3584 
Q 5097 3584 5394 3201 
Q 5691 2819 5691 2113 
L 5691 0 
L 5113 0 
L 5113 2094 
Q 5113 2597 4934 2840 
Q 4756 3084 4391 3084 
Q 3944 3084 3684 2787 
Q 3425 2491 3425 1978 
L 3425 0 
L 2847 0 
L 2847 2094 
Q 2847 2600 2669 2842 
Q 2491 3084 2119 3084 
Q 1678 3084 1418 2786 
Q 1159 2488 1159 1978 
L 1159 0 
L 581 0 
L 581 3500 
L 1159 3500 
L 1159 2956 
Q 1356 3278 1631 3431 
Q 1906 3584 2284 3584 
Q 2666 3584 2933 3390 
Q 3200 3197 3328 2828 
z
" transform="scale(0.015625)"/>
       <path id="DejaVuSans-5d" d="M 1947 4863 
L 1947 -844 
L 622 -844 
L 622 -397 
L 1369 -397 
L 1369 4416 
L 622 4416 
L 622 4863 
L 1947 4863 
z
" transform="scale(0.015625)"/>
      </defs>
      <use xlink:href="#DejaVuSans-44"/>
      <use xlink:href="#DejaVuSans-65" transform="translate(77.001953 0)"/>
      <use xlink:href="#DejaVuSans-70" transform="translate(138.525391 0)"/>
      <use xlink:href="#DejaVuSans-74" transform="translate(202.001953 0)"/>
      <use xlink:href="#DejaVuSans-68" transform="translate(241.210938 0)"/>
      <use xlink:href="#DejaVuSans-20" transform="translate(304.589844 0)"/>
      <use xlink:href="#DejaVuSans-5b" transform="translate(336.376953 0)"/>
      <use xlink:href="#DejaVuSans-6d" transform="translate(375.390625 0)"/>
      <use xlink:href="#DejaVuSans-5d" transform="translate(472.802734 0)"/>
     </g>
    </g>
   </g>
   <g id="line2d_1">
    <path d="M 175.763342 18.196364 
L 175.802102 18.202303 
L 175.117809 18.230519 
L 173.71842 18.372444 
L 173.791058 18.384226 
L 175.317292 18.51711 
L 174.347663 18.543792 
L 174.374129 18.606047 
L 173.163971 18.677071 
L 173.008263 18.862054 
L 173.037925 18.873904 
L 173.267362 18.940497 
L 173.200408 19.012895 
L 173.225435 19.021758 
L 172.960385 19.045398 
L 169.919398 19.296681 
L 169.400882 19.426717 
L 169.686278 19.444453 
L 170.348224 19.505105 
L 169.728298 19.555473 
L 169.567658 19.601429 
L 169.759628 19.663695 
L 170.288892 19.765938 
L 169.982939 19.811816 
L 169.616781 19.939404 
L 169.626581 19.963212 
L 169.850257 20.08364 
L 170.167275 20.19067 
L 170.032712 20.247126 
L 169.240979 20.413946 
L 169.329234 20.49882 
L 170.568204 20.738448 
L 170.535168 20.760811 
L 170.454861 20.856094 
L 170.493028 20.900669 
L 170.508075 20.925951 
L 170.457944 21.005124 
L 170.257433 21.24996 
L 170.304701 21.279789 
L 170.332102 21.326108 
L 170.267854 21.384434 
L 170.171511 21.545274 
L 170.229516 21.591316 
L 170.217471 21.638954 
L 170.151122 21.66431 
L 169.516492 21.727034 
L 169.209046 21.810636 
L 169.636465 21.774822 
L 169.419284 21.841957 
L 169.610322 21.914979 
L 169.415719 21.849408 
L 169.467184 21.976136 
L 169.484713 22.101636 
L 169.59997 22.273268 
L 169.069371 22.556616 
L 169.33851 22.589662 
L 170.031067 22.661712 
L 169.84362 22.74088 
L 169.302343 22.921488 
L 169.475369 22.978305 
L 169.473054 22.993258 
L 169.376519 23.030614 
L 169.25149 23.091829 
L 169.445089 23.127654 
L 169.313079 23.172499 
L 170.034621 23.316706 
L 170.028951 23.327199 
L 169.919342 23.352637 
L 169.761498 23.437628 
L 169.804963 23.489842 
L 169.904589 23.533282 
L 169.677445 23.5618 
L 168.868415 23.629322 
L 169.30597 23.695177 
L 168.72269 23.749048 
L 169.170509 23.821068 
L 169.782657 23.916932 
L 169.529536 23.957285 
L 168.007974 24.166879 
L 167.895669 24.202818 
L 168.132467 24.253696 
L 168.167634 24.270144 
L 168.060726 24.352517 
L 167.797355 24.39156 
L 168.218946 24.421622 
L 169.179679 24.564363 
L 169.250909 24.591351 
L 169.040926 24.637778 
L 167.272916 24.888102 
L 167.305504 24.898625 
L 167.477883 24.945228 
L 167.436688 25.032355 
L 167.085044 25.494166 
L 167.093511 25.63686 
L 166.665544 25.875255 
L 166.695676 25.917187 
L 166.592033 25.993594 
L 166.358384 26.251521 
L 166.380522 26.307266 
L 166.293012 26.340372 
L 165.770081 26.534875 
L 165.801751 26.554329 
L 165.826768 26.582779 
L 165.738958 26.653141 
L 165.371347 26.74596 
L 165.270721 26.796837 
L 165.475175 26.834267 
L 165.990344 26.925567 
L 165.884182 26.982487 
L 165.638047 27.090506 
L 165.687375 27.125046 
L 165.991617 27.189542 
L 165.67404 27.234516 
L 165.016499 27.394803 
L 164.921001 27.512786 
L 164.968548 27.529208 
L 165.321817 27.572506 
L 164.927972 27.632341 
L 164.873406 27.678809 
L 164.903588 27.749193 
L 164.846914 27.939337 
L 164.859007 27.943843 
L 165.173017 28.036957 
L 164.950337 28.094008 
L 164.71162 28.243743 
L 164.698529 28.827666 
L 164.871714 29.195065 
L 165.068929 29.493517 
L 165.036771 29.511518 
L 164.957309 29.698774 
L 164.96057 29.700274 
L 164.930181 29.811346 
L 164.950638 29.706277 
L 164.922606 29.814345 
L 164.924402 29.929775 
L 165.022698 30.114154 
L 164.995821 30.141132 
L 164.836911 30.35429 
L 164.843611 30.358791 
L 164.81127 30.553538 
L 164.787439 30.761042 
L 164.775001 30.764044 
L 164.340318 31.014894 
L 164.61965 31.103371 
L 164.682071 31.122863 
L 164.517456 31.194872 
L 164.239418 31.364701 
L 164.287855 31.391875 
L 164.381546 31.503642 
L 164.362388 31.517215 
L 164.162566 31.745684 
L 164.357255 31.795085 
L 164.397716 31.883583 
L 164.358693 31.910631 
L 164.181365 32.021524 
L 164.27697 32.061884 
L 164.369404 32.09477 
L 164.131959 32.144113 
L 163.833577 32.253552 
L 163.90049 32.295622 
L 164.047949 32.384396 
L 163.972233 32.435489 
L 163.701643 32.664519 
L 163.755119 32.706545 
L 163.87727 32.844627 
L 163.867036 32.85361 
L 163.734147 33.074013 
L 163.771906 33.094988 
L 163.845014 33.192314 
L 163.823246 33.22976 
L 163.823705 33.375545 
L 163.818047 33.378555 
L 163.789748 33.492785 
L 163.806974 33.503314 
L 163.817322 33.659474 
L 163.815051 33.660973 
L 163.735284 33.744931 
L 163.808274 33.786925 
L 163.857725 33.810927 
L 163.73561 33.882978 
L 163.598435 34.045026 
L 163.599904 34.046526 
L 163.624604 34.187453 
L 163.623286 34.188952 
L 163.61997 34.296872 
L 163.630793 34.311846 
L 163.649108 34.472315 
L 163.641677 34.554824 
L 163.623422 34.580336 
L 163.542578 35.119588 
L 163.561046 35.122594 
L 163.657046 35.203709 
L 163.627594 35.247184 
L 163.495773 35.422052 
L 163.496638 35.423548 
L 163.438447 35.573408 
L 163.288947 35.70236 
L 163.354643 35.741339 
L 163.805894 35.895579 
L 163.626279 35.982306 
L 163.653349 36.080864 
L 163.667227 36.085342 
L 163.706433 36.170492 
L 163.662149 36.091312 
L 163.660456 36.215375 
L 163.47863 36.388977 
L 162.921493 36.648616 
L 162.939225 36.662075 
L 163.091805 36.6995 
L 163.319209 36.807468 
L 163.198444 36.828439 
L 161.856206 37.012118 
L 161.908317 37.073271 
L 162.271544 37.356036 
L 162.262218 37.365003 
L 161.811569 37.784564 
L 161.954668 37.838297 
L 162.720447 38.073574 
L 162.76063 38.269562 
L 162.716538 38.283042 
L 162.013041 38.373012 
L 162.207042 38.500448 
L 161.716219 38.641583 
L 161.861253 38.720814 
L 162.008271 38.789569 
L 161.910358 38.852755 
L 161.88715 38.87236 
L 161.975017 38.92362 
L 161.959496 38.95075 
L 162.012349 39.018627 
L 161.937794 39.060823 
L 161.871267 39.096934 
L 162.001594 39.154043 
L 162.004832 39.18261 
L 161.912163 39.22474 
L 161.776256 39.364697 
L 161.779581 39.369194 
L 161.728621 39.555037 
L 161.722615 39.90049 
L 161.708696 40.101373 
L 161.705744 40.221984 
L 161.699559 40.108939 
L 161.703813 40.223486 
L 161.695992 40.333172 
L 161.700876 40.343707 
L 161.497104 40.868291 
L 161.117584 40.994757 
L 161.146059 41.023341 
L 161.407233 41.125781 
L 161.839496 41.204178 
L 161.664889 41.249456 
L 160.964456 41.412431 
L 160.967319 41.418442 
L 160.964928 41.421446 
L 161.04417 41.501018 
L 161.332223 41.549197 
L 161.553746 41.62012 
L 161.481838 41.677444 
L 161.179489 42.01016 
L 161.152103 42.108063 
L 161.143628 42.120088 
L 161.030621 42.28065 
L 161.04495 42.288138 
L 161.442374 42.351194 
L 161.914872 42.500965 
L 161.911871 42.505491 
L 161.886281 42.570117 
L 161.844608 42.598547 
L 161.731678 42.671811 
L 161.868029 42.715245 
L 162.218393 42.769285 
L 161.755382 42.814302 
L 161.174934 42.963988 
L 161.17713 42.966975 
L 161.340603 43.146646 
L 161.250847 43.1841 
L 161.290794 43.353637 
L 161.359676 43.403138 
L 161.311206 43.474975 
L 161.319098 43.515394 
L 161.38129 43.558859 
L 161.464987 43.651782 
L 161.419365 43.696611 
L 161.38686 43.853334 
L 161.387774 43.895214 
L 161.328945 43.946147 
L 161.268399 44.019641 
L 161.287762 44.073536 
L 161.413525 44.228707 
L 161.396733 44.249637 
L 160.532373 44.791428 
L 160.599714 44.8273 
L 160.840981 44.872236 
L 161.173549 45.011447 
L 161.1701 45.020398 
L 161.105238 45.267307 
L 161.029466 45.424426 
L 161.034456 45.427451 
L 161.065171 45.569323 
L 161.063221 45.570819 
L 161.092864 45.627516 
L 161.077144 45.681219 
L 160.804718 46.411577 
L 159.787304 46.578057 
L 159.895314 46.633583 
L 159.899693 46.789219 
L 159.897086 46.814656 
L 159.938122 46.855048 
L 159.949804 46.886469 
L 159.940284 46.943356 
L 159.883573 46.974839 
L 159.793319 47.022817 
L 159.954292 47.05126 
L 160.353952 47.179518 
L 160.250383 47.198896 
L 159.543937 47.384479 
L 159.54643 47.387467 
L 159.674683 47.517444 
L 159.590225 47.533914 
L 159.530952 47.548885 
L 159.766035 47.620649 
L 159.994307 47.695316 
L 159.941498 47.756614 
L 159.466925 48.039416 
L 159.51836 48.061966 
L 159.62209 48.263394 
L 159.60575 48.275365 
L 159.488975 48.32468 
L 159.425401 48.452958 
L 159.454592 48.517155 
L 159.432885 48.460414 
L 159.495631 48.539589 
L 159.450573 48.915443 
L 159.129378 49.074182 
L 159.537459 48.996169 
L 159.231663 49.099744 
L 159.753322 49.24477 
L 159.744835 49.256681 
L 159.537863 49.314818 
L 159.779178 49.361167 
L 160.102353 49.422646 
L 159.917711 49.485729 
L 159.788251 49.622119 
L 159.797274 49.638578 
L 159.94524 49.779361 
L 159.875931 49.79879 
L 159.636694 49.946792 
L 159.638844 49.948291 
L 159.919128 50.041274 
L 159.807435 50.132962 
L 159.724858 50.314478 
L 159.727365 50.315968 
L 159.723364 50.442982 
L 159.664928 50.378551 
L 159.722318 50.444486 
L 159.718601 50.593123 
L 159.735091 50.450505 
L 159.742393 50.60656 
L 159.760003 50.645363 
L 159.672405 50.693194 
L 159.613313 50.825288 
L 159.616596 50.832783 
L 159.62239 50.882196 
L 159.69154 50.91212 
L 159.729685 51.029094 
L 159.719658 51.041062 
L 159.717583 51.050033 
L 159.820387 51.070945 
L 159.907899 51.09185 
L 159.605692 51.13515 
L 159.614331 51.151579 
L 159.627035 51.179997 
L 159.706553 51.199477 
L 159.817337 51.237031 
L 159.611053 51.297343 
L 158.526529 51.691063 
L 159.718979 51.363537 
L 158.630492 51.713688 
L 159.664996 51.836581 
L 159.537645 51.994952 
L 158.580219 52.096752 
L 158.391658 52.218986 
L 158.394014 52.232537 
L 158.372262 52.359694 
L 158.370506 52.361185 
L 158.269488 52.459726 
L 158.348389 52.482152 
L 159.041125 52.647471 
L 158.977578 52.680455 
L 158.451669 52.986801 
L 158.455487 52.988302 
L 158.480103 53.081167 
L 158.470543 53.106576 
L 158.447937 53.238366 
L 158.480425 53.253333 
L 158.63151 53.308643 
L 158.452015 53.356427 
L 158.423575 53.368379 
L 158.687096 53.420737 
L 158.646487 53.44319 
L 158.088533 53.69443 
L 158.126162 53.712335 
L 158.315349 53.779402 
L 158.157088 53.831774 
L 157.959633 53.983234 
L 157.961954 53.986213 
L 157.942831 54.178029 
L 157.939792 54.17953 
L 157.850243 54.320784 
L 157.851459 54.578285 
L 157.855172 54.579786 
L 157.96559 54.708064 
L 157.797938 54.64567 
L 157.895124 54.718424 
L 156.96971 54.913456 
L 156.973098 54.91948 
L 156.905731 55.024688 
L 156.924303 55.058924 
L 157.034983 55.208988 
L 157.031391 55.210483 
L 156.524917 55.469767 
L 157.082367 55.252398 
L 156.547374 55.480269 
L 156.894092 55.543253 
L 156.735073 55.623965 
L 156.786063 55.656794 
L 156.644081 55.703033 
L 156.6423 55.708997 
L 156.552748 55.843945 
L 156.20479 56.213095 
L 156.264534 56.234278 
L 156.637604 56.318574 
L 156.514674 56.39219 
L 156.051276 56.677817 
L 155.950019 56.76349 
L 155.318369 57.070375 
L 155.366661 57.082346 
L 155.968811 57.245249 
L 155.946789 57.279602 
L 155.932538 57.316955 
L 156.058973 57.358842 
L 156.28706 57.394779 
L 155.965366 57.456254 
L 155.829285 57.590769 
L 155.818689 57.698136 
L 155.800591 57.713091 
L 155.5627 57.771496 
L 153.054991 57.970725 
L 152.755355 57.993174 
L 153.061589 58.081586 
L 153.306116 58.149179 
L 153.078488 58.195782 
L 152.646618 58.359292 
L 152.422784 58.488123 
L 152.502729 58.518101 
L 152.632927 58.564643 
L 152.45063 58.618787 
L 151.159327 58.814214 
L 151.23673 58.848813 
L 151.831652 58.906054 
L 151.590158 59.040341 
L 151.349836 59.120113 
L 151.591915 59.153214 
L 151.761794 59.273602 
L 151.751073 59.282611 
L 151.587496 59.33514 
L 151.760037 59.4027 
L 151.682647 59.514053 
L 151.675821 59.515559 
L 151.50018 59.658582 
L 151.491871 59.690145 
L 151.587815 59.724719 
L 151.583528 59.729232 
L 151.602993 59.748793 
L 151.516085 59.821037 
L 151.530276 59.836087 
L 151.618787 59.858663 
L 151.667321 59.941384 
L 151.601272 59.902297 
L 151.634884 59.971424 
L 151.446441 60.023969 
L 151.400529 60.037475 
L 151.631094 60.073513 
L 151.66862 60.13069 
L 151.524999 60.165324 
L 151.523969 60.166829 
L 151.638423 60.184889 
L 151.748322 60.199939 
L 151.280374 60.248085 
L 151.292559 60.260113 
L 151.240692 60.323166 
L 151.212293 60.335163 
L 151.176555 60.35915 
L 151.245253 60.440135 
L 151.423954 60.590258 
L 151.410462 60.602253 
L 151.279077 60.665219 
L 149.798979 60.962038 
L 148.18496 61.209313 
L 147.657488 61.326403 
L 147.662408 61.356425 
L 147.660177 61.550049 
L 147.676478 61.55758 
L 147.911559 61.968748 
L 147.847917 61.997239 
L 147.645604 62.124437 
L 147.6748 62.166295 
L 147.702444 62.296289 
L 147.695152 62.303751 
L 147.727333 62.411094 
L 147.723652 62.335072 
L 147.735227 62.41408 
L 147.678889 62.512856 
L 147.675833 62.514356 
L 147.681619 62.637288 
L 147.709785 62.766787 
L 147.701592 62.774229 
L 147.631589 62.99811 
L 147.633829 62.999607 
L 147.682544 63.096821 
L 147.601241 63.122188 
L 146.481606 63.399489 
L 146.498293 63.430792 
L 146.470627 63.640224 
L 146.476976 63.643218 
L 146.470458 63.767139 
L 146.472401 63.649204 
L 146.468031 63.768628 
L 146.46457 63.82228 
L 146.526122 63.867067 
L 146.911843 64.064777 
L 146.882184 64.117078 
L 147.061585 64.52856 
L 147.400917 64.701926 
L 147.384932 64.728846 
L 146.038473 65.005892 
L 140.082208 65.608307 
L 139.982738 65.659349 
L 139.891648 65.819455 
L 139.894033 65.820949 
L 140.088944 65.931506 
L 139.879783 65.841869 
L 139.978701 65.964372 
L 138.494337 66.245202 
L 136.816248 66.716901 
L 136.888785 67.01872 
L 136.919707 67.069449 
L 136.870559 67.129096 
L 136.951471 67.284173 
L 136.958956 67.296153 
L 136.881564 67.369668 
L 136.881222 67.372673 
L 136.828211 67.526543 
L 136.835467 67.529516 
L 137.076529 67.602431 
L 136.989918 67.677134 
L 136.842579 67.743156 
L 137.020011 67.785183 
L 137.055425 67.803177 
L 136.840767 67.865955 
L 135.905787 67.958207 
L 135.60452 68.002964 
L 135.953357 68.064293 
L 136.983078 68.243546 
L 136.976844 68.246528 
L 136.987886 68.251 
L 136.747623 68.444743 
L 136.525301 68.561187 
L 136.127282 68.652229 
L 136.388448 68.695567 
L 136.759139 68.752443 
L 136.481768 68.812363 
L 135.64589 68.879602 
L 135.716422 68.979361 
L 135.626756 69.006164 
L 135.996967 69.049372 
L 136.550672 69.19717 
L 136.565562 69.203142 
L 136.362031 69.230019 
L 136.317362 69.24198 
L 136.894341 69.270403 
L 137.019369 69.279383 
L 135.783323 69.321289 
L 136.383402 69.360145 
L 136.828096 69.424402 
L 136.288691 69.46186 
L 135.835402 69.5608 
L 136.159872 69.584664 
L 136.155839 69.630791 
L 136.398193 69.709762 
L 136.459515 69.757648 
L 136.370329 69.823658 
L 136.264515 69.888005 
L 136.37445 69.935718 
L 136.569417 69.989375 
L 136.343341 70.038628 
L 136.108828 70.116372 
L 136.134417 70.17016 
L 136.096268 70.20006 
L 136.229167 70.232968 
L 136.592987 70.324288 
L 136.179616 70.277866 
L 136.269379 70.343778 
L 135.752418 70.373808 
L 136.617364 70.442945 
L 136.657861 70.538862 
L 136.545582 70.561273 
L 136.249567 70.60461 
L 136.611904 70.663134 
L 136.657355 70.675183 
L 136.369552 70.724922 
L 136.300348 70.747506 
L 136.560366 70.807574 
L 136.666886 70.939038 
L 136.658848 70.943522 
L 136.704443 71.079815 
L 136.58422 71.151827 
L 135.659244 71.295713 
L 136.036154 71.384999 
L 137.221494 71.488159 
L 136.57214 71.537764 
L 136.523365 71.548291 
L 137.020694 71.603923 
L 137.378214 71.684903 
L 137.071883 71.716348 
L 136.503465 71.750771 
L 135.298712 71.890339 
L 135.136592 72.155393 
L 135.138314 72.15689 
L 135.132052 72.162879 
L 135.636889 72.302246 
L 136.449617 72.417972 
L 136.222138 72.458504 
L 136.000998 72.608316 
L 136.00644 72.612817 
L 135.943746 72.827685 
L 135.991303 72.84561 
L 136.436066 73.022515 
L 136.335445 73.082578 
L 135.758316 73.208678 
L 136.151899 73.247661 
L 136.229507 73.262649 
L 135.798498 73.328532 
L 135.103195 73.362983 
L 136.054579 73.41861 
L 136.007351 73.429166 
L 135.854121 73.448781 
L 136.645835 73.481996 
L 136.70467 73.489543 
L 135.864988 73.534729 
L 134.691075 73.706596 
L 134.689358 73.708091 
L 134.828844 73.724544 
L 135.214277 73.764932 
L 135.093882 73.853369 
L 135.116285 73.928457 
L 135.150765 73.954004 
L 135.069184 74.039723 
L 135.062022 74.041229 
L 134.825787 74.121022 
L 134.964146 74.171978 
L 135.426426 74.42315 
L 135.400051 74.508255 
L 135.38118 74.52466 
L 135.265328 74.605168 
L 135.200533 74.658905 
L 135.294626 74.711212 
L 135.319425 74.73366 
L 135.13728 74.783063 
L 134.438833 74.917632 
L 134.548141 74.96994 
L 134.826769 75.092888 
L 134.73392 75.134833 
L 134.231955 75.371438 
L 134.235096 75.374422 
L 134.897475 75.538393 
L 134.449874 75.58038 
L 133.898461 75.638489 
L 134.009554 75.720244 
L 133.794366 75.809881 
L 134.134889 75.763496 
L 134.012366 75.833855 
L 134.987701 75.905744 
L 134.453408 75.973231 
L 133.490016 76.060415 
L 133.607108 76.188973 
L 133.381977 76.253354 
L 132.860667 76.347873 
L 132.871279 76.427264 
L 133.015804 76.479716 
L 133.153321 76.563808 
L 133.123674 76.614812 
L 132.619541 76.884078 
L 132.706354 76.905069 
L 133.644979 77.113342 
L 133.51482 77.22116 
L 132.952942 77.642243 
L 133.018161 77.679545 
L 133.580805 77.860774 
L 133.523499 77.881761 
L 132.554836 77.995724 
L 132.427617 78.025698 
L 132.471854 78.117283 
L 132.326116 78.270675 
L 132.330982 78.273683 
L 132.39943 78.362173 
L 132.337526 78.403988 
L 132.266174 78.487638 
L 132.330052 78.541561 
L 132.431947 78.973575 
L 131.710202 79.319884 
L 131.712739 79.322875 
L 131.719141 79.44795 
L 131.709749 79.456863 
L 131.734816 79.562769 
L 131.753591 79.573259 
L 131.982628 79.68109 
L 131.912946 79.715395 
L 131.908447 79.736254 
L 131.983091 79.788346 
L 131.986113 79.807685 
L 132.023493 80.055719 
L 132.018636 80.057217 
L 132.022494 80.063205 
L 131.994675 80.185504 
L 132.034113 80.328558 
L 132.033145 80.845334 
L 132.000179 80.964738 
L 132.007234 80.967714 
L 131.99757 81.326422 
L 131.985246 81.3294 
L 131.814938 81.390509 
L 131.877125 81.475694 
L 131.854217 81.69222 
L 131.850536 81.693714 
L 131.680424 81.825313 
L 131.855702 81.701185 
L 131.747462 81.846229 
L 132.013813 81.963995 
L 131.999245 82.004336 
L 132.01828 82.064194 
L 131.961945 82.10761 
L 131.891373 82.186909 
L 132.02701 82.231751 
L 132.10767 82.279499 
L 131.944155 82.318276 
L 131.857519 82.379595 
L 131.948778 82.429116 
L 131.796223 82.495145 
L 132.095879 82.574436 
L 132.081155 82.704463 
L 132.081326 82.774998 
L 132.110488 82.814052 
L 132.16697 82.869575 
L 132.196012 82.881574 
L 132.292182 82.986516 
L 132.259661 83.020942 
L 132.27747 83.203798 
L 132.291127 83.209812 
L 132.424511 83.386181 
L 132.372734 83.407222 
L 132.221282 83.54976 
L 132.231102 83.567814 
L 132.467235 83.802241 
L 132.462184 83.806751 
L 132.525845 83.860874 
L 132.527746 83.894014 
L 132.465707 83.988997 
L 132.463748 83.990503 
L 132.404958 84.119814 
L 132.409429 84.127328 
L 132.340055 84.23555 
L 132.335353 84.237053 
L 132.204067 84.438411 
L 132.210267 84.441414 
L 132.308268 84.718753 
L 132.319231 84.811815 
L 132.307881 84.832852 
L 132.288081 84.918521 
L 132.323512 84.948597 
L 132.480544 85.064495 
L 132.463704 85.099089 
L 132.523251 85.20143 
L 132.528551 85.202935 
L 132.569973 85.291697 
L 132.540141 85.320242 
L 132.477069 85.527824 
L 132.219348 85.690181 
L 132.225966 85.703711 
L 132.24747 85.854645 
L 132.238461 85.857666 
L 132.249278 85.898416 
L 132.308911 85.943546 
L 132.3167 86.279603 
L 132.372503 86.353569 
L 132.389832 86.361113 
L 132.509995 86.584463 
L 132.50849 86.585967 
L 132.541306 86.614537 
L 132.599021 86.649101 
L 132.631248 86.697305 
L 132.55784 86.750214 
L 132.20056 87.005838 
L 132.204042 87.008856 
L 132.213627 87.091777 
L 132.171536 87.124966 
L 132.186912 87.17482 
L 132.240292 87.209588 
L 132.380511 87.31827 
L 132.338965 87.350014 
L 132.232978 87.43946 
L 132.296045 87.475833 
L 132.359427 87.506083 
L 132.249608 87.548265 
L 132.290452 87.587351 
L 131.926318 87.623472 
L 131.547272 87.733871 
L 131.616329 87.759608 
L 132.055917 87.820136 
L 131.717454 87.894139 
L 130.598432 87.980144 
L 131.302944 88.026977 
L 131.502049 88.159873 
L 131.192797 88.093483 
L 131.496522 88.164398 
L 131.501529 88.205148 
L 131.410132 88.229345 
L 130.254202 88.332408 
L 131.170249 88.377779 
L 131.589697 88.424527 
L 131.177136 88.487845 
L 130.448891 88.637242 
L 130.336198 88.65984 
L 130.642564 88.730677 
L 130.905371 88.813797 
L 130.843672 88.86375 
L 130.663581 88.909069 
L 130.394767 88.954226 
L 130.734803 89.005297 
L 131.727454 89.181562 
L 131.462254 89.228361 
L 131.303494 89.244958 
L 131.621805 89.320383 
L 131.619497 89.327925 
L 131.126436 89.361139 
L 130.563591 89.400451 
L 131.316335 89.463994 
L 131.679393 89.49875 
L 131.354093 89.575677 
L 129.978837 89.637434 
L 130.018279 89.7509 
L 130.009041 89.829505 
L 129.970259 89.855125 
L 129.851752 90.025761 
L 129.787645 90.228969 
L 129.859054 90.031836 
L 129.79077 90.23048 
L 129.920443 90.398285 
L 129.893218 90.417943 
L 129.86735 90.460284 
L 129.977587 90.478431 
L 130.140298 90.573565 
L 130.114019 90.602238 
L 130.143508 90.649022 
L 130.049425 90.698796 
L 130.011055 90.728953 
L 130.13852 90.777242 
L 130.139544 90.784794 
L 130.145348 90.798393 
L 130.043937 90.831632 
L 129.988094 90.854288 
L 130.075877 90.908631 
L 130.069971 90.938809 
L 129.947475 91.032626 
L 129.892024 91.179161 
L 129.897557 91.182167 
L 129.938432 91.314332 
L 129.899871 91.427285 
L 129.897839 91.428795 
L 129.833557 91.52102 
L 129.88347 91.55119 
L 130.014017 91.600877 
L 130.093873 91.668578 
L 130.062024 91.733247 
L 129.991335 91.924471 
L 130.023935 91.94708 
L 130.030795 91.974212 
L 129.950223 92.025379 
L 129.854158 92.113917 
L 129.915909 92.143924 
L 129.919533 92.252041 
L 129.910861 92.256547 
L 129.903725 92.342138 
L 129.927125 92.367685 
L 129.913264 92.477411 
L 129.939946 92.384221 
L 129.931712 92.499928 
L 129.965442 92.635117 
L 129.920354 92.65468 
L 129.878621 92.776498 
L 129.885236 93.236264 
L 129.887609 93.23777 
L 129.79503 93.287447 
L 129.787793 93.301 
L 129.771563 93.311541 
L 129.868598 93.395886 
L 129.915798 93.454628 
L 129.887679 93.519434 
L 129.781765 93.706166 
L 129.78709 93.707673 
L 129.836763 93.830019 
L 129.828594 93.833044 
L 129.796394 93.937541 
L 129.820307 93.955709 
L 129.947194 94.135632 
L 129.929075 94.150772 
L 129.912036 94.265495 
L 129.917271 94.158339 
L 129.889597 94.276022 
L 129.806579 94.398062 
L 129.818952 94.413189 
L 129.880153 94.591354 
L 129.811903 94.422266 
L 129.873717 94.594368 
L 129.62427 94.79962 
L 129.795614 94.837265 
L 129.851123 95.018462 
L 129.829891 95.030536 
L 129.666604 95.128579 
L 129.800816 95.185951 
L 129.762364 95.237297 
L 129.984763 95.441206 
L 129.932502 95.512413 
L 129.895812 95.521493 
L 129.596482 95.654463 
L 129.776458 95.746776 
L 129.885232 95.878494 
L 129.951898 96.474132 
L 129.650143 96.666919 
L 129.739746 96.6958 
L 129.905627 96.836999 
L 129.952675 96.90383 
L 129.908643 96.970646 
L 129.77661 97.06034 
L 129.508215 97.15767 
L 129.677483 97.186498 
L 129.913813 97.330832 
L 129.947352 97.432466 
L 129.954291 97.435506 
L 129.985081 97.499442 
L 129.900649 97.531452 
L 129.143603 97.698647 
L 129.361137 97.738097 
L 129.364794 97.741133 
L 129.151107 97.762392 
L 128.057934 97.900925 
L 128.135521 97.919175 
L 128.620356 97.982947 
L 128.356886 98.074007 
L 128.573834 98.099948 
L 128.634171 98.11065 
L 128.326208 98.173441 
L 128.14364 98.29124 
L 128.166579 98.320118 
L 128.264761 98.423005 
L 128.964079 98.500601 
L 128.4563 98.552608 
L 128.18864 98.586268 
L 128.751004 98.618373 
L 128.739764 98.642799 
L 129.396293 98.735609 
L 128.947208 98.767558 
L 128.218238 98.816309 
L 128.236715 98.909276 
L 128.036012 99.110763 
L 128.044118 99.124581 
L 128.286239 99.34367 
L 128.270213 99.366472 
L 128.161295 99.517507 
L 128.247327 99.557126 
L 128.301062 99.586047 
L 128.17348 99.64993 
L 128.177222 99.652971 
L 128.200442 99.683396 
L 128.082496 99.718479 
L 127.854758 99.776774 
L 128.116795 99.824352 
L 128.776152 99.986818 
L 128.637412 100.20173 
L 128.498265 100.335879 
L 128.504003 100.346542 
L 128.438652 100.645648 
L 128.637038 100.862588 
L 128.619648 100.873174 
L 128.436008 101.05067 
L 128.303716 101.088626 
L 127.979797 101.140243 
L 128.042659 101.237543 
L 128.201697 101.573857 
L 128.19521 101.576914 
L 127.632683 101.660977 
L 128.13621 101.711144 
L 128.230245 101.732336 
L 128.000414 101.800394 
L 127.369489 101.926391 
L 127.546237 101.98909 
L 127.19735 102.197495 
L 126.944101 102.317742 
L 126.992134 102.354099 
L 126.99648 102.369238 
L 126.8699 102.40862 
L 126.873787 102.417728 
L 126.983865 102.435971 
L 128.328065 102.673747 
L 128.412675 102.735731 
L 128.391509 102.800959 
L 128.384507 102.803997 
L 128.497561 102.881493 
L 128.511554 102.89363 
L 128.401603 102.964827 
L 127.625042 103.016266 
L 126.6863 103.120849 
L 127.147575 103.145137 
L 127.402177 103.272465 
L 127.413219 103.281536 
L 127.297558 103.337458 
L 127.232861 103.361637 
L 127.534405 103.40854 
L 127.992526 103.478301 
L 127.776483 103.535844 
L 127.299442 103.679507 
L 127.319035 103.709825 
L 127.281294 103.731065 
L 127.214625 103.744719 
L 126.643806 103.965441 
L 126.692103 103.985145 
L 127.871664 104.094522 
L 127.311631 104.194583 
L 126.638991 104.350529 
L 126.649978 104.361153 
L 126.746397 104.424915 
L 126.984071 104.55069 
L 126.909037 104.597591 
L 126.715021 104.679396 
L 126.833815 104.732484 
L 127.132159 104.796188 
L 127.031228 104.873498 
L 126.592717 104.925022 
L 126.190003 104.974956 
L 126.484432 105.044531 
L 126.781983 105.121887 
L 126.516201 105.167395 
L 124.216787 105.454482 
L 124.141885 105.475689 
L 124.442108 105.524197 
L 126.011581 105.767144 
L 125.967608 105.786775 
L 125.643961 105.962219 
L 125.848671 106.041385 
L 125.984393 106.105172 
L 125.815203 106.155158 
L 124.249016 106.313741 
L 123.936952 106.357683 
L 124.099644 106.436565 
L 123.172254 106.763298 
L 123.18132 106.782947 
L 123.214539 106.928644 
L 123.19829 106.943928 
L 123.112202 107.032523 
L 123.199702 107.073644 
L 123.412825 107.120848 
L 123.059843 107.155834 
L 122.749124 107.300154 
L 122.851305 107.350263 
L 123.440634 107.479791 
L 123.146669 107.533296 
L 122.928576 107.676946 
L 122.91815 107.718159 
L 123.014048 107.748661 
L 123.055881 107.76847 
L 122.906986 107.826344 
L 122.555366 107.867518 
L 122.78816 107.953238 
L 122.950055 108.090406 
L 122.943645 108.104076 
L 123.015767 108.336381 
L 123.28504 108.543464 
L 123.256194 108.564892 
L 123.295391 108.713815 
L 123.342357 108.846644 
L 123.336346 108.849696 
L 122.778272 108.982805 
L 123.058775 109.042544 
L 123.228501 109.086883 
L 123.180956 109.172345 
L 123.269538 109.2595 
L 123.286635 109.322351 
L 123.200825 109.345381 
L 122.885813 109.536943 
L 122.327587 109.977243 
L 122.335134 109.986398 
L 122.337497 110.050544 
L 122.306326 110.093336 
L 122.279134 110.128493 
L 122.388421 110.145307 
L 124.170984 110.421346 
L 124.178694 110.432111 
L 124.053703 110.464399 
L 123.357561 110.669394 
L 123.429431 110.75076 
L 123.407125 110.772255 
L 123.518343 110.833527 
L 123.68002 110.990893 
L 123.581926 111.016831 
L 123.485584 111.068676 
L 123.625755 111.11589 
L 123.856523 111.216401 
L 123.527624 111.179806 
L 123.673747 111.239341 
L 123.276469 111.380794 
L 123.346706 111.446639 
L 123.358983 111.449702 
L 123.427308 111.547943 
L 123.36286 111.560251 
L 123.128919 111.601765 
L 123.248733 111.693712 
L 123.191325 111.834104 
L 123.244604 111.852386 
L 123.256601 111.87221 
L 123.199898 111.913455 
L 123.198714 111.953194 
L 123.143 112.031041 
L 123.192042 112.069169 
L 123.263708 112.27693 
L 123.261414 112.278465 
L 123.254305 112.301479 
L 123.372478 112.341322 
L 124.351094 112.480162 
L 124.605008 112.519782 
L 123.985525 112.559467 
L 123.111937 112.672537 
L 123.132305 112.696921 
L 123.129364 112.776288 
L 123.062053 112.793148 
L 122.92195 112.823848 
L 123.039677 112.90824 
L 123.106363 113.083648 
L 123.104398 113.085175 
L 123.071811 113.181491 
L 123.086349 113.202911 
L 123.107941 113.307093 
L 123.080923 113.320913 
L 122.957608 113.495675 
L 123.172475 113.388488 
L 122.997772 113.509451 
L 123.165112 113.537011 
L 123.048404 113.635056 
L 123.070097 113.713179 
L 122.975596 113.737653 
L 122.851206 113.778989 
L 122.95114 113.855631 
L 123.243863 114.030413 
L 122.89707 113.89855 
L 123.12456 114.062638 
L 122.660315 114.19885 
L 122.760633 114.217169 
L 122.909414 114.243141 
L 122.725866 114.322803 
L 122.695723 114.338164 
L 122.917447 114.368915 
L 123.162503 114.419636 
L 123.051819 114.493177 
L 123.048389 114.502346 
L 123.227301 114.542049 
L 123.600754 114.719328 
L 123.589575 114.723923 
L 123.549416 114.843653 
L 123.593798 114.73005 
L 123.558403 114.855926 
L 123.741266 114.929502 
L 123.543944 114.964808 
L 123.270619 115.023132 
L 123.522833 115.078186 
L 123.70939 115.11327 
L 123.553901 115.194207 
L 123.51151 115.309428 
L 123.404581 115.395507 
L 123.506523 115.4414 
L 123.841343 115.522231 
L 123.513231 115.554241 
L 122.973269 115.690739 
L 122.977552 115.693824 
L 123.028314 115.858165 
L 123.02007 115.861222 
L 122.870483 115.897865 
L 122.996325 115.97867 
L 122.994353 116.003081 
L 122.892953 116.053508 
L 122.855651 116.191496 
L 122.950605 116.260066 
L 123.077043 116.278269 
L 122.94172 116.319164 
L 123.037275 116.378237 
L 122.614859 116.556003 
L 122.746566 116.604493 
L 122.954939 116.683429 
L 122.927191 116.744363 
L 122.904613 116.987242 
L 122.913133 117.192062 
L 122.926135 117.195087 
L 123.155377 117.253878 
L 122.988264 117.325908 
L 123.039964 117.362031 
L 123.085708 117.375625 
L 123.113954 117.413507 
L 123.016979 117.469759 
L 122.858286 117.572545 
L 122.888036 117.616141 
L 122.966313 117.688349 
L 122.919176 117.738142 
L 122.914754 117.742671 
L 122.970179 117.787975 
L 122.985104 117.825656 
L 123.067833 117.938558 
L 122.972687 117.965689 
L 122.950616 118.071455 
L 122.996969 118.007952 
L 122.965598 118.080532 
L 123.616598 118.180037 
L 123.983596 118.214549 
L 123.815661 118.297015 
L 123.736661 118.327095 
L 123.898605 118.378396 
L 123.897013 118.382929 
L 123.890236 118.393511 
L 123.776264 118.407108 
L 123.63817 118.432785 
L 123.921548 118.494598 
L 123.920949 118.502121 
L 124.006184 118.578779 
L 123.862558 118.616351 
L 123.868214 118.714102 
L 123.891339 118.649428 
L 123.890681 118.72614 
L 124.799402 118.900729 
L 124.524306 118.947457 
L 124.502122 118.953488 
L 124.693151 119.00922 
L 124.794559 119.063429 
L 124.622427 119.107096 
L 124.587798 119.120654 
L 124.751656 119.164344 
L 124.701681 119.20655 
L 124.715488 119.211076 
L 124.448248 119.245767 
L 124.462687 119.271409 
L 124.064122 119.383071 
L 124.085739 119.422323 
L 124.091064 119.505326 
L 124.069249 119.440429 
L 124.066031 119.53551 
L 124.054367 119.549093 
L 124.25005 119.595878 
L 124.660212 119.641154 
L 124.144907 119.698566 
L 124.124048 119.70461 
L 124.52477 119.743894 
L 125.153598 119.795216 
L 124.851013 119.870719 
L 124.790381 119.884321 
L 124.992973 119.902465 
L 125.259047 119.929695 
L 124.706139 119.96907 
L 125.207475 120.025148 
L 125.214386 120.028178 
L 124.994037 120.076581 
L 123.983305 120.259675 
L 124.201514 120.305048 
L 124.21426 120.3126 
L 124.086677 120.366885 
L 124.141795 120.4045 
L 124.166978 120.425567 
L 124.04113 120.440633 
L 123.962042 120.476849 
L 124.173233 120.514656 
L 125.228475 120.629683 
L 125.075882 120.658346 
L 124.864021 120.677922 
L 125.106434 120.754571 
L 124.895414 120.783117 
L 124.885882 120.846324 
L 124.813199 120.855371 
L 124.551102 120.882521 
L 124.997571 120.935337 
L 124.961291 120.951944 
L 124.955046 120.954963 
L 125.15524 121.013889 
L 125.054901 121.062199 
L 124.627059 121.154025 
L 125.083835 121.16907 
L 125.661119 121.197674 
L 125.187823 121.282154 
L 125.116956 121.423199 
L 125.228121 121.318472 
L 125.146808 121.429265 
L 125.74748 121.587951 
L 125.747754 121.590966 
L 125.629984 121.619603 
L 125.446743 121.652764 
L 125.51066 121.740261 
L 125.720328 121.865303 
L 125.712752 121.87582 
L 125.716723 121.878824 
L 125.573234 121.910378 
L 124.801484 122.083726 
L 124.807645 122.086745 
L 125.183954 122.238998 
L 125.166267 122.248033 
L 125.023549 122.275131 
L 125.295099 122.31879 
L 125.295361 122.326322 
L 125.35246 122.451544 
L 125.30169 122.465111 
L 125.365888 122.553847 
L 125.031034 122.650046 
L 125.430774 123.156732 
L 125.735385 123.238042 
L 125.64414 123.29691 
L 125.227805 123.436152 
L 125.291864 123.488986 
L 125.587952 123.759467 
L 125.274272 123.508612 
L 125.540794 123.791303 
L 125.534024 123.794336 
L 125.634233 123.820106 
L 125.642087 123.873117 
L 125.652155 123.877655 
L 125.547756 123.926015 
L 125.604029 123.977395 
L 125.763766 124.019698 
L 125.918502 124.072547 
L 125.781718 124.135994 
L 125.694949 124.395888 
L 125.701453 124.398908 
L 125.689766 124.407971 
L 125.667406 124.516915 
L 125.676984 124.530571 
L 125.664627 124.648735 
L 125.758087 125.132241 
L 125.737155 125.136799 
L 125.564386 125.302294 
L 125.576874 125.306835 
L 125.612802 125.529371 
L 125.564393 125.312887 
L 125.601399 125.535433 
L 125.609237 125.577837 
L 125.670582 125.624699 
L 125.669551 125.742416 
L 125.61864 125.675997 
L 125.663432 125.749976 
L 125.645272 125.95437 
L 125.674362 125.967973 
L 125.732965 126.09342 
L 125.667868 125.974019 
L 125.70451 126.110044 
L 125.49593 126.283927 
L 125.557257 126.314175 
L 125.648371 126.448865 
L 125.64275 126.456428 
L 125.613612 126.586339 
L 125.617455 126.589356 
L 125.582504 126.693348 
L 125.607092 126.598406 
L 125.576372 126.696359 
L 125.564572 126.768663 
L 125.618229 126.804862 
L 125.625383 126.92577 
L 125.573969 126.851662 
L 125.622893 126.928798 
L 125.507146 127.036229 
L 125.309436 127.179777 
L 125.291311 127.210062 
L 125.420971 127.368985 
L 125.325949 127.524513 
L 125.43464 127.376542 
L 125.376999 127.533576 
L 126.844582 127.671158 
L 126.792298 127.761991 
L 126.640385 127.858686 
L 126.764126 127.910053 
L 126.821276 127.938745 
L 126.66662 127.994657 
L 126.78627 128.024902 
L 126.808576 128.033985 
L 126.499834 128.064292 
L 125.196434 128.236974 
L 125.198764 128.25511 
L 125.186163 128.270222 
L 125.248905 128.33824 
L 125.250416 128.353366 
L 125.179793 128.403304 
L 125.647557 128.442643 
L 126.671874 128.47593 
L 126.287718 128.565212 
L 126.169146 128.634651 
L 125.591082 128.669329 
L 126.594615 128.722116 
L 126.914136 128.841632 
L 126.911815 128.853755 
L 126.816752 129.044425 
L 126.827835 129.047448 
L 127.01574 129.112431 
L 126.922204 129.175956 
L 126.671826 129.206258 
L 126.717341 129.310832 
L 126.834679 129.363846 
L 126.903137 129.383566 
L 126.718314 129.439776 
L 126.799381 129.47015 
L 126.932776 129.505031 
L 126.675217 129.535295 
L 126.256274 129.588167 
L 126.75585 129.63194 
L 126.967583 129.77126 
L 126.996936 129.800163 
L 126.857612 129.845802 
L 126.839925 129.859486 
L 126.978626 129.92783 
L 127.202891 130.608141 
L 128.232043 130.725859 
L 128.086379 130.763584 
L 127.861684 130.811959 
L 128.082354 130.87556 
L 128.22705 131.097725 
L 128.210341 131.106792 
L 127.807239 131.262685 
L 128.286524 131.177837 
L 128.044946 131.286916 
L 128.580284 131.415472 
L 128.420414 131.442681 
L 128.368088 131.478993 
L 128.511734 131.536471 
L 128.569166 131.56521 
L 128.4218 131.618184 
L 127.916987 131.728755 
L 128.132359 131.790625 
L 128.633118 131.876681 
L 128.371837 131.931181 
L 127.872443 132.003771 
L 128.154813 132.059698 
L 128.860248 132.203536 
L 128.734664 132.220142 
L 128.404645 132.262347 
L 128.823001 132.322545 
L 128.941922 132.346662 
L 128.676598 132.38441 
L 128.59953 132.405564 
L 129.021067 132.446364 
L 129.102409 132.458444 
L 128.571811 132.5173 
L 128.573666 132.518808 
L 128.967339 132.622673 
L 128.622521 132.634701 
L 127.705992 132.66328 
L 129.598838 132.726507 
L 132.491558 132.753646 
L 131.249349 132.851729 
L 131.746122 132.883334 
L 130.582516 132.917924 
L 129.130934 132.969109 
L 130.785231 133.024932 
L 131.91647 133.077812 
L 131.679434 133.162405 
L 131.682919 133.166928 
L 131.525193 133.186523 
L 130.601693 133.327792 
L 131.617249 133.231675 
L 130.638882 133.354846 
L 130.634412 133.372895 
L 130.524057 133.393954 
L 130.290661 133.52915 
L 130.26442 133.538158 
L 130.650418 133.559175 
L 132.14419 133.658253 
L 131.428611 133.689733 
L 130.288113 133.845776 
L 130.291051 133.850285 
L 130.727707 134.005336 
L 133.012053 134.166149 
L 132.743292 134.251738 
L 133.358162 134.339035 
L 133.687663 134.378065 
L 133.244474 134.433505 
L 133.462589 134.458996 
L 133.36195 134.464994 
L 134.340945 134.525032 
L 134.319701 134.532548 
L 133.393711 134.674745 
L 133.97141 134.700529 
L 134.414181 134.81353 
L 134.308901 134.827014 
L 133.306087 134.866011 
L 134.534583 134.921717 
L 135.078207 135.063934 
L 135.365608 135.11366 
L 135.095638 135.178272 
L 135.050481 135.238428 
L 135.139187 135.27914 
L 135.283872 135.342603 
L 135.093537 135.380391 
L 135.067131 135.389458 
L 135.283096 135.455989 
L 136.225262 135.623845 
L 136.246991 135.784678 
L 136.154856 135.792202 
L 135.101604 135.835957 
L 136.322638 135.893571 
L 136.98921 136.039012 
L 136.0901 135.960373 
L 136.675617 136.067702 
L 136.242208 136.102491 
L 136.759499 136.161606 
L 136.731578 136.175268 
L 136.54441 136.195003 
L 136.14649 136.214746 
L 137.313926 136.273902 
L 137.492818 136.301157 
L 137.057116 136.366069 
L 136.381669 136.455052 
L 136.662954 136.497305 
L 137.051773 136.531967 
L 136.53515 136.598173 
L 136.185887 136.711603 
L 136.237422 136.740442 
L 136.474402 136.828294 
L 136.263684 136.870632 
L 136.017263 136.915985 
L 136.194734 136.991531 
L 136.199895 137.002105 
L 136.09556 137.021728 
L 135.918454 137.050405 
L 136.504958 137.085122 
L 136.705852 137.106254 
L 136.246115 137.174246 
L 136.272412 137.183322 
L 137.091236 137.42074 
L 136.231317 137.249902 
L 136.781019 137.443381 
L 136.424418 137.470528 
L 136.516127 137.564212 
L 136.490161 137.629297 
L 136.436409 137.642921 
L 136.264274 137.70188 
L 136.358041 137.769775 
L 136.395651 137.798462 
L 136.263065 137.845273 
L 135.877952 137.883028 
L 136.684124 137.908677 
L 137.483663 137.931304 
L 136.996995 138.024822 
L 137.131228 138.056534 
L 136.842405 138.113949 
L 136.360278 138.22111 
L 136.59647 138.251316 
L 136.986656 138.26946 
L 136.422111 138.34527 
L 136.293328 138.365006 
L 136.85724 138.421195 
L 137.235062 138.498451 
L 136.83385 138.446979 
L 136.893391 138.534745 
L 135.960015 138.642126 
L 136.655417 138.664869 
L 137.908191 138.796915 
L 138.340766 138.86363 
L 137.936438 138.916674 
L 137.278445 138.971244 
L 137.481441 139.048564 
L 138.514769 139.166927 
L 137.863852 139.204925 
L 137.188009 139.334217 
L 137.200806 139.343334 
L 137.837329 139.393433 
L 140.357793 139.457071 
L 138.851515 139.520777 
L 134.159783 139.749091 
L 130.994956 140.012594 
L 128.500078 140.502416 
L 128.534905 140.541843 
L 128.552326 140.572157 
L 128.39659 140.600957 
L 127.22125 140.696497 
L 127.525323 140.822501 
L 127.534394 140.828569 
L 127.423147 140.899782 
L 126.97251 140.996576 
L 126.276866 141.182391 
L 126.454449 141.211135 
L 126.239097 141.2596 
L 127.586585 141.294457 
L 127.701215 141.30354 
L 127.14939 141.362499 
L 127.192252 141.386636 
L 127.094504 141.461921 
L 126.969211 141.501018 
L 127.281378 141.537151 
L 127.920498 141.589965 
L 127.437671 141.655126 
L 125.438321 141.777685 
L 124.10575 141.940271 
L 124.107152 141.941783 
L 124.594946 142.111172 
L 124.011709 142.015927 
L 124.416876 142.191281 
L 123.909023 142.425535 
L 123.866562 142.466482 
L 123.972124 142.519482 
L 124.097731 142.60251 
L 124.036082 142.665866 
L 124.035623 142.668885 
L 123.957713 142.714201 
L 123.944229 142.7278 
L 123.879341 142.806474 
L 123.971572 142.836709 
L 124.298853 142.94994 
L 124.262326 143.01645 
L 124.261962 143.08904 
L 124.320266 143.110184 
L 124.450556 143.16451 
L 124.302006 143.21727 
L 122.935513 143.522583 
L 123.114261 143.576973 
L 123.536018 143.657148 
L 123.401316 143.729761 
L 123.238977 143.784039 
L 123.013318 143.909259 
L 123.056389 143.924403 
L 123.189006 143.948614 
L 122.783476 143.989396 
L 122.513341 144.13124 
L 122.496727 144.138806 
L 122.755603 144.182722 
L 122.83676 144.209997 
L 122.690391 144.278044 
L 122.689851 144.281063 
L 122.388633 144.515896 
L 122.389818 144.5174 
L 122.340915 144.624479 
L 122.127748 144.857199 
L 121.79441 144.97129 
L 121.902067 145.016458 
L 122.062459 145.070928 
L 121.868444 145.120946 
L 121.42896 145.309701 
L 121.430172 145.312718 
L 121.525213 145.582648 
L 121.532945 145.636846 
L 121.500411 145.694048 
L 121.382914 145.780055 
L 121.47374 145.831509 
L 121.53383 145.970429 
L 121.547426 146.026036 
L 121.601699 146.05462 
L 121.622942 146.083274 
L 121.513185 146.143808 
L 121.428479 146.233127 
L 121.461939 146.275334 
L 121.561835 146.364085 
L 121.517847 146.418136 
L 121.368456 146.507024 
L 120.986315 146.67628 
L 120.879041 146.805903 
L 120.938826 146.842182 
L 120.991288 146.882924 
L 120.949359 146.961193 
L 120.946073 146.991343 
L 121.020144 147.041192 
L 121.015615 147.048757 
L 121.030861 147.092628 
L 120.944147 147.133421 
L 120.797927 147.247854 
L 120.80863 147.27495 
L 120.908238 147.369974 
L 120.957459 147.424367 
L 120.897211 147.481862 
L 120.553625 147.585031 
L 119.975342 147.650079 
L 120.178609 147.711873 
L 120.360895 147.802383 
L 120.277542 147.838681 
L 120.166201 147.870451 
L 119.896311 148.034986 
L 119.905634 148.051571 
L 119.867279 148.163102 
L 119.863648 148.164609 
L 119.854937 148.285354 
L 119.808103 148.329098 
L 119.924337 148.372742 
L 120.179941 148.528835 
L 120.178306 148.533342 
L 120.182316 148.536347 
L 120.04537 148.573952 
L 119.966612 148.650797 
L 119.981987 148.701993 
L 120.036302 148.777065 
L 119.928127 148.816013 
L 119.511014 149.207226 
L 120.007194 148.890852 
L 119.541749 149.222248 
L 119.631643 149.371345 
L 119.538987 149.228258 
L 119.627292 149.374362 
L 119.598483 149.586107 
L 119.626788 149.762362 
L 118.951458 150.048445 
L 119.010881 150.086078 
L 118.677531 150.388054 
L 118.564325 150.531085 
L 118.564803 150.532587 
L 118.746078 150.769373 
L 118.690001 150.802628 
L 117.567137 151.079659 
L 117.57375 151.084184 
L 116.977805 151.43596 
L 116.48835 151.647108 
L 116.491279 151.648612 
L 116.560161 151.722477 
L 116.489397 151.764812 
L 116.403722 151.902227 
L 116.438093 151.942925 
L 116.415899 152.067798 
L 116.407389 152.072302 
L 116.332599 152.198673 
L 116.32574 152.200182 
L 115.92768 152.355724 
L 116.075083 152.409877 
L 116.08371 152.415891 
L 115.890345 152.47457 
L 115.508225 152.685852 
L 115.686456 152.833995 
L 115.783018 152.915227 
L 115.742598 152.958859 
L 115.141698 153.334837 
L 115.14858 153.339364 
L 115.064832 153.493649 
L 114.801872 153.858929 
L 113.112322 153.946518 
L 113.438204 154.032845 
L 113.778781 154.069116 
L 113.88337 154.087233 
L 113.505349 154.152223 
L 113.509807 154.155248 
L 114.207423 154.427291 
L 113.934455 154.457524 
L 112.081173 154.616594 
L 112.104998 154.652902 
L 112.122951 154.737484 
L 112.088721 154.773738 
L 112.05575 155.324385 
L 112.079682 155.446935 
L 112.041871 155.339516 
L 112.072095 155.449959 
L 112.095419 155.5891 
L 112.08194 155.454497 
L 112.099109 155.590612 
L 112.118847 155.632963 
L 112.060866 155.690516 
L 112.065316 155.695062 
L 112.069479 155.965023 
L 112.074045 155.966542 
L 112.138518 156.100015 
L 112.148401 156.224269 
L 112.144021 156.350448 
L 112.138118 156.230337 
L 112.141321 156.35197 
L 112.138913 156.488494 
L 112.176498 156.374788 
L 112.145285 156.491526 
L 112.116897 156.597749 
L 112.137182 156.496074 
L 112.090776 156.609888 
L 111.944111 156.643265 
L 111.983061 156.750927 
L 111.95257 157.083038 
L 111.531248 157.262504 
L 111.092043 157.312771 
L 111.169847 157.405384 
L 111.161674 157.425074 
L 111.360905 157.45081 
L 111.778973 157.555386 
L 111.60792 157.579728 
L 110.772068 157.719597 
L 110.788068 157.736256 
L 110.787041 157.74231 
L 110.880258 157.795253 
L 111.4477 157.889211 
L 111.93896 158.040923 
L 111.938605 158.042437 
L 111.725364 158.087861 
L 110.832054 158.216328 
L 111.257312 158.263175 
L 111.686715 158.290398 
L 110.831749 158.352472 
L 109.764715 158.513015 
L 109.765652 158.514529 
L 109.800039 158.673753 
L 109.797621 158.675269 
L 109.702464 158.837081 
L 109.707086 158.83859 
L 109.73359 158.941258 
L 109.718946 158.956354 
L 109.719772 159.130686 
L 109.721896 159.132204 
L 109.711431 159.147384 
L 109.736127 159.263932 
L 109.690199 159.402868 
L 109.718238 159.54923 
L 109.712463 159.55681 
L 109.688905 159.662879 
L 109.705472 159.943466 
L 109.771946 160.151683 
L 109.833411 160.273992 
L 109.826163 160.283019 
L 109.734725 160.845621 
L 109.814504 161.227362 
L 109.79797 161.23489 
L 109.749333 161.524965 
L 109.338561 161.789066 
L 109.301929 161.963125 
L 108.960841 162.141785 
L 109.081229 162.153912 
L 109.126446 162.161491 
L 108.921835 162.249352 
L 108.628539 162.434162 
L 108.92745 162.25692 
L 108.747351 162.47966 
L 108.908834 162.596164 
L 108.884216 162.614286 
L 108.878695 162.63242 
L 108.802888 162.685358 
L 108.440249 162.873751 
L 108.47025 162.902676 
L 108.89857 163.091835 
L 109.334434 163.255175 
L 109.322069 163.264267 
L 108.503673 163.417239 
L 109.030017 163.447415 
L 109.217163 163.464006 
L 107.836709 163.494148 
L 105.61242 163.602756 
L 106.047078 163.620923 
L 108.293054 163.777248 
L 109.00367 163.842396 
L 108.764463 163.913379 
L 106.755128 164.050555 
L 105.41072 164.108154 
L 105.683073 164.181198 
L 104.825328 164.266235 
L 105.431126 164.31163 
L 106.466363 164.369133 
L 106.035316 164.444967 
L 105.495388 164.567673 
L 105.555264 164.590346 
L 105.611036 164.640208 
L 105.388084 164.664396 
L 105.287568 164.679521 
L 105.535497 164.729484 
L 105.518688 164.764289 
L 106.397945 164.898734 
L 105.934312 164.919944 
L 105.847504 164.92904 
L 106.307709 165.011039 
L 106.520405 165.080773 
L 106.421585 165.136705 
L 104.858329 165.222889 
L 104.295315 165.286514 
L 104.7926 165.338044 
L 104.990964 165.37137 
L 104.512443 165.422797 
L 103.986246 165.486351 
L 104.800336 165.516742 
L 104.313912 165.542656 
L 105.164165 165.641909 
L 105.172662 165.64801 
L 104.984654 165.672397 
L 102.751322 165.909134 
L 105.046934 165.740751 
L 102.917818 165.950288 
L 103.313244 166.009776 
L 103.226693 166.097796 
L 103.303312 166.129571 
L 103.328237 166.134113 
L 104.01953 166.26813 
L 103.82756 166.326077 
L 103.01286 166.418731 
L 103.621777 166.459647 
L 106.22203 166.620992 
L 103.475904 166.483921 
L 104.868655 166.67727 
L 102.689423 166.759277 
L 103.979839 166.811005 
L 104.281066 166.829291 
L 103.039257 166.890254 
L 102.358243 166.928399 
L 102.548797 167.016875 
L 102.093582 167.105164 
L 101.314645 167.229942 
L 102.126736 167.140121 
L 101.698139 167.319911 
L 102.365424 167.462906 
L 102.251723 167.502532 
L 101.61468 167.621163 
L 101.920357 167.665239 
L 102.743913 167.770157 
L 102.345627 167.791421 
L 102.282947 167.799015 
L 102.984598 167.855276 
L 102.464898 167.894853 
L 102.562038 167.907034 
L 102.035124 167.970872 
L 101.650434 167.990571 
L 102.48218 168.051107 
L 102.416195 168.06775 
L 102.317345 168.123851 
L 102.466074 168.168047 
L 102.466105 168.171101 
L 102.860148 168.37488 
L 102.737027 168.479647 
L 102.735788 168.481169 
L 102.857699 168.499438 
L 103.370766 168.546657 
L 102.920816 168.615228 
L 102.345916 168.700286 
L 102.766446 168.754938 
L 102.9372 168.786816 
L 102.845294 168.873334 
L 102.901308 169.00409 
L 102.766186 168.931036 
L 102.843948 169.022379 
L 101.458598 169.178984 
L 101.734454 169.309604 
L 101.725874 169.314174 
L 101.85255 169.369074 
L 102.69722 169.604773 
L 102.424831 169.666832 
L 102.07353 169.701676 
L 102.446199 169.765435 
L 102.42732 169.777604 
L 102.071037 169.92216 
L 102.257779 169.938838 
L 102.558596 169.963073 
L 102.303332 170.049378 
L 102.131082 170.064525 
L 102.630429 170.14489 
L 102.701474 170.155517 
L 101.935418 170.202611 
L 99.352014 170.271013 
L 98.831737 170.286213 
L 101.87278 170.334802 
L 102.668871 170.359088 
L 101.536046 170.437961 
L 101.43882 170.460681 
L 101.786134 170.498555 
L 102.024724 170.518259 
L 100.707086 170.548573 
L 98.754584 170.57584 
L 101.739481 170.637925 
L 101.693515 170.647007 
L 101.109872 170.665169 
L 99.197284 170.715079 
L 100.473758 170.784827 
L 102.022319 170.869834 
L 101.283583 170.916941 
L 97.403965 170.991349 
L 99.84626 171.058089 
L 101.271597 171.112631 
L 99.815738 171.165553 
L 96.952107 171.324351 
L 96.957841 171.327379 
L 97.369998 171.354614 
L 97.640071 171.381813 
L 96.816654 171.430128 
L 94.997622 171.486035 
L 96.754329 171.541978 
L 96.910186 171.560131 
L 96.67207 171.647902 
L 95.044263 171.918295 
L 94.541302 171.947031 
L 95.664419 172.005935 
L 95.678997 172.01197 
L 95.426975 172.030061 
L 94.43402 172.076745 
L 94.815265 172.167053 
L 95.814181 172.272266 
L 96.714123 172.35048 
L 96.241533 172.398795 
L 96.026168 172.427513 
L 96.315945 172.504594 
L 96.19432 172.534782 
L 93.338998 172.774497 
L 93.203784 172.803247 
L 93.218836 172.898577 
L 93.141277 173.139306 
L 93.262492 173.163401 
L 93.666544 173.251114 
L 93.403151 173.302644 
L 93.237264 173.335895 
L 93.656562 173.385589 
L 93.584614 173.400608 
L 93.451056 173.426099 
L 93.764878 173.484488 
L 93.913209 173.52941 
L 93.750347 173.592435 
L 93.62251 173.62101 
L 93.989501 173.652636 
L 94.624517 173.789766 
L 94.615238 173.80329 
L 94.556489 174.199229 
L 94.578718 174.205232 
L 95.067379 174.254713 
L 95.218192 174.274186 
L 94.387049 174.314649 
L 88.531079 174.551383 
L 88.537093 174.560407 
L 88.543053 174.569423 
L 88.356593 174.600937 
L 87.141401 174.786948 
L 87.141511 174.788455 
L 87.042941 174.815624 
L 86.514637 174.954892 
L 86.5597 174.994049 
L 86.571325 175.112823 
L 86.558265 175.120345 
L 86.1457 175.245645 
L 85.913016 175.295701 
L 86.056457 175.366877 
L 86.09616 175.404658 
L 86.03623 175.480083 
L 85.946467 175.673433 
L 85.988635 175.69467 
L 86.093813 175.808247 
L 86.086729 175.832401 
L 86.055628 176.003477 
L 85.920934 176.670692 
L 85.685618 176.694941 
L 85.949758 176.778231 
L 85.837879 176.852488 
L 86.092078 176.911466 
L 86.219225 177.030821 
L 86.180745 177.070183 
L 85.91218 177.142874 
L 85.645028 177.292697 
L 85.604367 177.316959 
L 85.798344 177.368541 
L 85.903441 177.415518 
L 85.79063 177.480643 
L 85.534087 177.706871 
L 85.576862 177.880689 
L 85.5364 177.903386 
L 85.486971 177.967086 
L 85.562896 178.012642 
L 85.670633 178.085594 
L 85.603646 178.143266 
L 85.506873 178.308039 
L 85.513929 178.314065 
L 85.468272 178.454646 
L 85.431727 178.500227 
L 85.483746 178.56551 
L 85.248164 178.764053 
L 85.27629 178.809452 
L 85.33386 178.997812 
L 85.147732 179.170615 
L 85.345701 179.01 
L 85.236662 179.22051 
L 85.302235 179.253794 
L 85.154229 179.315991 
L 85.011447 179.436124 
L 85.201002 179.464896 
L 85.264301 179.476994 
L 84.937232 179.535944 
L 84.976059 179.548045 
L 85.09278 179.588903 
L 84.937916 179.640426 
L 84.934465 179.651037 
L 84.4906 179.804466 
L 84.474055 179.833335 
L 84.571983 179.884987 
L 84.568926 179.892577 
L 84.577438 180.077448 
L 84.574189 180.078963 
L 84.53709 180.207751 
L 84.540874 180.210784 
L 84.415508 180.262402 
L 83.605839 180.537436 
L 83.687189 180.554088 
L 83.702586 180.563176 
L 83.472988 180.623808 
L 80.7789 180.860154 
L 80.782576 180.87833 
L 80.628447 180.94212 
L 79.721575 181.214818 
L 79.566497 181.362007 
L 79.380895 181.554081 
L 79.385857 181.557124 
L 79.623262 181.818047 
L 79.567734 181.874327 
L 79.46335 181.932039 
L 79.281321 181.992655 
L 79.524349 182.031936 
L 79.757461 182.102923 
L 79.666997 182.160574 
L 79.562224 182.212356 
L 79.62523 182.301976 
L 79.544023 182.495674 
L 79.42793 182.679234 
L 78.990047 182.968374 
L 78.799793 183.09391 
L 78.669711 183.19705 
L 78.700131 183.239529 
L 78.726639 183.262245 
L 78.600438 183.32119 
L 78.129963 183.505523 
L 77.840871 184.196342 
L 77.844404 184.197854 
L 77.924435 184.330329 
L 77.917654 184.33642 
L 77.277218 184.933123 
L 75.80816 185.347784 
L 75.826576 185.372115 
L 75.661954 185.553348 
L 75.112942 185.78612 
L 75.000116 186.242146 
L 74.697998 186.288744 
L 74.797918 186.375834 
L 73.475699 186.755201 
L 71.317193 187.042063 
L 70.478649 187.161397 
L 68.823129 187.425854 
L 68.782565 187.562015 
L 68.476216 187.775245 
L 67.964773 187.973331 
L 67.294076 188.228113 
L 66.095035 189.059138 
L 66.211331 189.114878 
L 66.240225 189.132984 
L 66.108413 189.202571 
L 66.010647 189.258755 
L 65.130961 189.541041 
L 66.051302 189.308806 
L 65.232558 189.563798 
L 65.902072 189.624593 
L 65.140825 189.662517 
L 64.018833 189.811924 
L 63.986186 189.855651 
L 64.064261 189.912889 
L 64.2678 189.98067 
L 65.46917 190.195038 
L 65.129646 190.244864 
L 63.799236 190.406753 
L 63.905852 190.430827 
L 64.012111 190.444357 
L 63.57893 190.508871 
L 62.996445 190.694449 
L 62.318432 191.15376 
L 62.323702 191.161321 
L 61.888819 191.786351 
L 61.692509 192.029802 
L 61.622926 192.100908 
L 61.609526 192.105441 
L 61.309318 192.575945 
L 61.312064 192.577451 
L 61.310833 192.639251 
L 61.252305 192.666418 
L 60.140516 192.755569 
L 56.56992 193.10189 
L 56.00185 193.437154 
L 55.962551 193.476516 
L 55.905545 193.491644 
L 54.98981 193.867948 
L 54.777748 193.928449 
L 54.706347 193.963205 
L 54.73377 194.055297 
L 53.935051 195.046084 
L 54.036624 195.105207 
L 54.210637 195.293505 
L 54.165069 195.325112 
L 53.91882 195.463813 
L 53.953434 195.50468 
L 54.073028 195.648688 
L 53.950358 195.88695 
L 53.781262 196.083497 
L 53.730831 196.191127 
L 53.734281 196.307646 
L 53.615187 196.67054 
L 53.62131 196.673577 
L 53.621119 196.676613 
L 53.542 196.731169 
L 53.53595 196.738736 
L 53.171599 196.952819 
L 53.228835 197.071173 
L 53.205738 197.169326 
L 53.176688 197.18443 
L 52.850855 197.563795 
L 52.832293 197.755076 
L 52.627504 197.955452 
L 52.417088 198.407098 
L 52.347403 198.55038 
L 52.349836 198.553411 
L 52.285166 198.633518 
L 52.275014 198.636532 
L 51.93334 198.808335 
L 51.64378 200.014256 
L 51.68423 200.082124 
L 51.582999 200.125897 
L 51.523304 200.234 
L 51.537309 200.254924 
L 51.564277 200.292316 
L 51.487822 200.353966 
L 51.18225 200.502451 
L 51.210263 200.543102 
L 51.276479 200.732119 
L 51.274341 200.733628 
L 51.25543 200.807569 
L 51.286208 200.843786 
L 51.34133 200.982536 
L 51.337608 200.985541 
L 51.286297 201.691634 
L 51.218847 201.911753 
L 51.074378 202.173054 
L 51.080521 202.176097 
L 51.062804 202.28107 
L 51.056042 202.288669 
L 50.937739 202.644301 
L 50.795833 202.840418 
L 50.893269 202.887489 
L 51.021342 202.942252 
L 50.9432 203.032043 
L 50.94743 203.89459 
L 50.873564 204.107815 
L 50.811845 204.199066 
L 50.798052 204.202109 
L 50.659866 204.307165 
L 50.688583 204.342221 
L 50.88947 204.481332 
L 50.831198 204.531648 
L 50.584292 205.015398 
L 50.58744 205.016916 
L 50.595783 205.045767 
L 50.556985 205.123249 
L 50.562505 205.329218 
L 50.670195 205.43555 
L 50.609338 205.473483 
L 50.549919 205.505375 
L 50.60787 205.593552 
L 50.176328 205.769603 
L 49.937612 205.912209 
L 49.945073 205.919792 
L 49.930555 206.004674 
L 49.969027 206.036474 
L 49.970808 206.142483 
L 49.95981 206.153123 
L 49.593109 206.374753 
L 49.68979 206.4172 
L 49.749296 206.543282 
L 49.962646 206.61922 
L 49.821717 206.693666 
L 49.807926 206.71948 
L 49.876544 206.772601 
L 49.866261 206.795354 
L 49.417203 207.169819 
L 49.434908 207.186483 
L 49.84318 207.253129 
L 49.7059 207.336625 
L 49.682932 207.367056 
L 49.785131 207.414208 
L 49.807873 207.430917 
L 49.69815 207.485569 
L 49.310456 207.7529 
L 49.319499 207.758998 
L 49.449602 207.851817 
L 49.667072 207.917046 
L 49.374565 207.945873 
L 48.639546 207.991419 
L 49.115476 208.073556 
L 49.367032 208.199906 
L 49.624355 208.260815 
L 49.234085 208.295854 
L 48.583937 208.426851 
L 48.589853 208.431418 
L 48.540281 208.506079 
L 48.615114 208.551838 
L 48.532883 208.763369 
L 48.226143 208.929311 
L 48.240732 208.949139 
L 48.335611 209.124779 
L 48.357768 209.193458 
L 48.310593 209.246673 
L 48.283363 209.391111 
L 48.285059 209.392634 
L 48.298039 209.500618 
L 48.288871 209.515822 
L 48.28857 209.731764 
L 48.285879 209.733281 
L 48.281895 209.848698 
L 48.288295 209.851745 
L 48.269218 209.959946 
L 48.264468 209.96299 
L 48.243278 210.423769 
L 48.277101 210.62175 
L 48.26557 210.626325 
L 48.159998 210.687179 
L 47.944986 210.808981 
L 47.979304 210.862448 
L 47.988664 210.929586 
L 47.936714 210.964599 
L 47.815054 211.080274 
L 47.839051 211.107683 
L 47.946399 211.276552 
L 47.890072 211.293303 
L 47.31938 211.486841 
L 47.436706 211.560019 
L 47.753132 211.645258 
L 47.609297 211.715272 
L 47.158521 211.983778 
L 47.664534 211.791558 
L 47.28699 212.049267 
L 47.566262 212.149878 
L 47.509857 212.195586 
L 47.312646 212.349494 
L 47.345511 212.363217 
L 47.349282 212.366265 
L 47.160927 212.398237 
L 47.13053 212.408882 
L 47.217209 212.4757 
L 47.205712 212.501502 
L 47.166176 212.69792 
L 47.052271 212.836115 
L 46.95891 212.934921 
L 46.971504 212.966909 
L 47.018667 213.062679 
L 47.026794 213.067231 
L 47.192321 213.241982 
L 47.128497 213.272443 
L 46.936998 213.35613 
L 47.003316 213.432228 
L 47.166884 213.698604 
L 47.16409 213.700122 
L 46.413425 213.920503 
L 46.560893 213.979674 
L 46.737863 214.145307 
L 46.836595 214.347129 
L 46.640897 214.547467 
L 46.728896 214.606795 
L 46.530455 214.866358 
L 46.278378 215.007618 
L 46.313858 215.038053 
L 46.543487 215.177904 
L 46.504669 215.203718 
L 46.31017 215.36799 
L 46.346029 215.406048 
L 46.349643 215.439537 
L 46.262464 215.479096 
L 46.109591 215.648038 
L 46.04169 215.842542 
L 46.068989 215.889659 
L 46.056017 215.854702 
L 46.112571 215.926104 
L 46.161856 216.059838 
L 46.30822 216.523234 
L 46.392665 216.55673 
L 46.31599 216.636039 
L 46.227775 216.692422 
L 46.2234 216.693944 
L 46.048846 216.870356 
L 46.050317 216.871879 
L 46.059259 216.874926 
L 45.955001 216.957186 
L 45.745977 217.10493 
L 45.754922 217.111025 
L 45.768544 217.146099 
L 45.838561 217.178138 
L 45.969165 217.31538 
L 45.966701 217.318426 
L 45.873419 217.38695 
L 46.028563 217.420462 
L 46.060796 217.446369 
L 45.90311 217.495225 
L 45.902563 217.498282 
L 45.62917 217.669766 
L 45.648753 217.689605 
L 45.76822 217.979595 
L 45.71241 218.002433 
L 44.113926 218.186018 
L 43.807973 218.274921 
L 43.878496 218.310058 
L 43.875529 218.313109 
L 44.019222 218.348138 
L 44.230021 218.408921 
L 44.167045 218.47902 
L 44.169965 218.482072 
L 44.052456 218.544597 
L 44.070613 218.59945 
L 44.117749 218.63452 
L 45.083986 218.871704 
L 45.495825 218.957028 
L 45.134064 218.985901 
L 44.043648 219.136435 
L 44.050041 219.141017 
L 44.829824 219.270831 
L 45.480569 219.331899 
L 44.871703 219.380776 
L 43.576238 219.510618 
L 43.805965 219.527379 
L 44.227654 219.563922 
L 43.323935 219.615694 
L 43.248333 219.62179 
L 43.936351 219.69343 
L 43.931407 219.698005 
L 43.925385 219.702581 
L 43.825647 219.720878 
L 43.431082 219.780339 
L 43.766395 219.836902 
L 43.823723 219.853754 
L 43.618364 219.92116 
L 43.264607 219.995967 
L 43.6811 219.959363 
L 43.668967 220.02488 
L 43.924707 220.144818 
L 43.924083 220.152418 
L 43.815791 220.201147 
L 42.967157 220.375452 
L 43.236559 220.447102 
L 43.683315 220.512611 
L 43.578228 220.605499 
L 43.590731 220.772979 
L 43.558933 220.783628 
L 43.400021 220.902301 
L 43.416803 220.923619 
L 43.283154 220.979938 
L 42.777008 221.03781 
L 43.268011 221.092701 
L 43.490173 221.141461 
L 43.180593 221.19017 
L 42.175232 221.381075 
L 42.195991 221.394851 
L 42.315542 221.433113 
L 42.083926 221.485047 
L 42.076729 221.489626 
L 42.179919 221.565801 
L 42.159466 221.574927 
L 42.340487 221.707099 
L 42.250437 221.726823 
L 42.152133 221.760214 
L 42.249327 221.837633 
L 42.459549 221.928835 
L 42.262134 221.994379 
L 41.906573 222.151057 
L 41.907182 222.152579 
L 41.919976 222.295659 
L 41.91198 222.303263 
L 41.697799 222.374794 
L 41.954984 222.405221 
L 43.152859 222.590599 
L 43.221249 222.611873 
L 43.004764 222.662078 
L 41.295736 222.843118 
L 41.361823 222.93931 
L 41.445354 223.008022 
L 41.452129 223.009549 
L 41.625364 223.095002 
L 41.531888 223.139347 
L 41.392876 223.169982 
L 41.603948 223.231167 
L 41.62444 223.243378 
L 41.420071 223.270852 
L 41.104114 223.309011 
L 41.390398 223.382255 
L 42.200428 223.47674 
L 41.950319 223.548343 
L 41.781326 223.5971 
L 41.727246 223.615382 
L 41.831151 223.661072 
L 41.758647 223.711371 
L 41.773 223.741901 
L 41.852573 223.767858 
L 41.965007 223.818299 
L 41.931668 223.899368 
L 41.988478 224.22253 
L 42.492982 224.331271 
L 43.083779 224.389473 
L 42.606114 224.446059 
L 41.755642 224.560767 
L 41.980642 224.615921 
L 42.027639 224.631235 
L 41.774288 224.667974 
L 41.695609 224.686334 
L 42.005464 224.750528 
L 42.114491 224.793298 
L 42.021369 224.863639 
L 41.968572 224.931091 
L 42.038461 224.972441 
L 42.116943 225.022884 
L 41.997503 225.076336 
L 41.860813 225.125212 
L 42.048852 225.177134 
L 42.226971 225.258115 
L 42.066321 225.337724 
L 42.023208 225.371381 
L 42.139209 225.432513 
L 42.445427 225.625114 
L 42.437548 225.628171 
L 42.371213 225.770215 
L 42.404115 225.95662 
L 42.379061 226.199516 
L 42.356933 226.315514 
L 42.317626 226.326197 
L 42.022199 226.382662 
L 41.784142 226.430035 
L 42.010816 226.494321 
L 42.179345 226.575565 
L 42.097662 226.623033 
L 41.91411 226.66581 
L 42.226 226.700917 
L 42.491304 226.803115 
L 42.456405 226.838246 
L 42.40735 226.904039 
L 42.443824 226.953047 
L 42.468451 226.974483 
L 42.298732 227.00663 
L 41.88081 227.06782 
L 42.072636 227.133578 
L 42.19571 227.284759 
L 42.191891 227.287818 
L 42.266686 227.350581 
L 42.269752 227.367422 
L 42.448585 227.709741 
L 42.084071 228.616145 
L 42.095423 228.620729 
L 42.235832 228.790418 
L 42.231568 228.793483 
L 42.237897 228.804209 
L 42.175851 228.944948 
L 41.98321 229.054749 
L 42.109839 229.126426 
L 42.119832 229.166172 
L 42.045077 229.213689 
L 41.951883 229.319728 
L 41.979313 229.348917 
L 42.054042 229.448206 
L 42.041082 229.480193 
L 42.039074 229.525944 
L 42.095642 229.574873 
L 42.178734 229.663691 
L 42.093113 229.695782 
L 40.226039 230.124808 
L 40.381924 230.144688 
L 40.957649 230.291592 
L 40.83513 230.346659 
L 40.436814 230.455381 
L 40.49513 230.521119 
L 40.375753 230.621894 
L 40.459676 230.678421 
L 40.512076 230.742608 
L 40.441851 230.786931 
L 38.614766 231.353152 
L 38.738409 231.415549 
L 38.783227 231.439926 
L 38.604169 231.499485 
L 38.61139 231.505606 
L 38.639487 231.527038 
L 38.702185 231.54235 
L 38.711637 231.546945 
L 39.074541 231.669312 
L 39.029007 231.707474 
L 38.995359 231.849553 
L 39.003506 231.854144 
L 39.001962 231.901604 
L 38.928156 231.933722 
L 38.32331 232.427624 
L 38.333729 232.438335 
L 38.572178 232.534698 
L 38.435316 232.586694 
L 38.300933 232.663165 
L 38.389871 232.706015 
L 38.443385 232.732035 
L 38.266687 232.77335 
L 38.080324 232.906232 
L 38.111477 232.933683 
L 38.317521 233.19651 
L 38.276253 233.224039 
L 38.25295 233.263787 
L 38.364654 233.300459 
L 38.361767 233.31116 
L 38.55749 233.327974 
L 39.184008 233.37846 
L 38.754184 233.445813 
L 38.981378 233.471833 
L 39.146322 233.542304 
L 39.051149 233.588343 
L 38.775198 233.752479 
L 38.806579 233.781502 
L 38.886516 233.963375 
L 39.099534 234.049247 
L 39.025176 234.113676 
L 38.901602 234.256255 
L 38.903608 234.257789 
L 38.983596 234.41063 
L 38.980234 234.412155 
L 38.976696 234.491536 
L 39.007724 234.523628 
L 38.961079 234.743527 
L 38.955028 234.74505 
L 38.897247 234.793824 
L 38.966434 234.856459 
L 38.97214 235.099762 
L 38.935881 235.110472 
L 38.008216 235.391225 
L 38.08617 235.463 
L 38.152998 235.504247 
L 38.02919 235.560676 
L 38.011449 235.583532 
L 38.116545 235.63381 
L 38.202475 235.670383 
L 38.041927 235.722228 
L 38.003593 235.792449 
L 38.040626 235.838273 
L 38.052964 235.947955 
L 38.072824 235.88406 
L 38.05566 235.949474 
L 38.061852 235.952512 
L 37.999491 236.040536 
L 38.006038 236.046606 
L 37.988808 236.081506 
L 38.03665 236.139139 
L 38.032708 236.154297 
L 38.118596 236.330926 
L 38.113599 236.333976 
L 38.047022 236.501747 
L 38.079669 236.521506 
L 38.229204 236.664336 
L 38.228248 236.665857 
L 38.170811 236.81986 
L 38.184945 236.82596 
L 38.104488 237.028595 
L 37.786632 237.401792 
L 37.80637 237.488669 
L 37.773272 237.522224 
L 37.660988 237.612393 
L 37.700083 237.667403 
L 37.933807 237.831784 
L 39.441203 238.120373 
L 39.5287 238.123636 
L 39.5287 238.123636 
" clip-path="url(#pddc45c9ab5)" style="fill: none; stroke: #191970; stroke-width: 1.5; stroke-linecap: square"/>
   </g>
   <g id="patch_4">
    <path d="M 30.749375 249.12 
L 30.749375 7.2 
" style="fill: none; stroke: #000000; stroke-width: 0.8; stroke-linejoin: miter; stroke-linecap: square"/>
   </g>
   <g id="patch_5">
    <path d="M 30.749375 249.12 
L 182.709375 249.12 
" style="fill: none; stroke: #000000; stroke-width: 0.8; stroke-linejoin: miter; stroke-linecap: square"/>
   </g>
  </g>
  <g id="axes_2">
   <g id="patch_6">
    <path d="M 193.509375 249.12 
L 345.469375 249.12 
L 345.469375 7.2 
L 193.509375 7.2 
z
" style="fill: #ffffff"/>
   </g>
   <g id="patch_7">
    <path d="M 193.509375 7.2 
L 345.469375 7.2 
L 345.469375 249.12 
L 193.509375 249.12 
z
" clip-path="url(#p4cc03d006f)" style="fill: #808080; opacity: 0.2; stroke: #808080; stroke-linejoin: miter"/>
   </g>
   <g id="matplotlib.axis_3"/>
   <g id="matplotlib.axis_4"/>
   <g id="line2d_2">
    <path d="M 337.624843 7.208976 
L 337.614124 7.634759 
L 337.661566 7.809297 
L 337.611973 8.080893 
L 337.658232 8.54648 
L 337.63615 8.701543 
L 337.747232 9.649181 
L 337.695061 9.764984 
L 337.697331 10.208772 
L 337.707296 10.343816 
L 337.739391 10.536898 
L 337.738179 10.788103 
L 337.767213 10.904166 
L 337.74849 10.923515 
L 337.747971 11.078326 
L 337.984695 11.504788 
L 338.289528 11.795697 
L 338.303183 11.950834 
L 338.281674 12.202802 
L 338.304692 12.435091 
L 338.395751 12.724925 
L 338.424434 13.033742 
L 338.443798 13.14943 
L 338.211707 13.650801 
L 337.952541 14.094404 
L 337.966449 14.306568 
L 337.967906 14.48021 
L 337.967701 14.653937 
L 337.928791 14.847062 
L 338.165257 15.194936 
L 338.192653 15.330323 
L 337.806458 15.833681 
L 337.711823 16.027377 
L 337.675921 16.298576 
L 337.616775 16.550415 
L 337.677883 16.724671 
L 337.633944 16.995654 
L 337.646947 17.59552 
L 337.626768 17.808118 
L 337.603028 18.001223 
L 337.580497 18.13635 
L 337.570909 18.271431 
L 337.525111 18.907761 
L 337.565813 19.119832 
L 337.724747 19.795512 
L 337.838354 19.988982 
L 337.881753 20.628565 
L 337.842655 20.783817 
L 337.986218 21.559362 
L 338.031683 21.772417 
L 337.992429 21.830467 
L 338.046943 21.888491 
L 338.102226 22.120424 
L 338.172592 22.795913 
L 338.193435 23.374508 
L 338.187152 23.606055 
L 338.210475 23.857162 
L 338.50271 25.074846 
L 338.026529 26.116549 
L 338.012044 26.386384 
L 337.949091 26.849137 
L 337.992983 27.080787 
L 337.968926 27.235436 
L 338.183643 27.75828 
L 338.249714 27.93287 
L 338.079203 28.943996 
L 337.921428 29.235667 
L 337.871169 29.371727 
L 337.656317 29.779106 
L 337.282113 29.992141 
L 335.828152 30.552604 
L 335.670865 30.784175 
L 335.579231 30.919209 
L 335.732019 31.034915 
L 336.071475 31.324177 
L 336.022762 31.36275 
L 335.651319 31.84551 
L 335.735087 32.096765 
L 335.669158 32.754858 
L 335.663699 32.909953 
L 335.653504 33.278475 
L 335.665117 33.685812 
L 335.674205 33.821641 
L 335.668431 33.996301 
L 335.636496 34.229091 
L 335.602359 34.403667 
L 335.15271 35.469209 
L 335.068279 35.643661 
L 334.879127 36.012208 
L 334.810754 36.264583 
L 334.621071 36.497626 
L 334.364135 36.750093 
L 334.084636 36.88604 
L 333.537749 37.080254 
L 333.77938 37.157942 
L 334.468866 37.332739 
L 334.429933 37.371584 
L 333.497646 37.915235 
L 333.364201 38.20631 
L 333.30588 38.497231 
L 333.284523 38.671727 
L 332.367027 39.913447 
L 331.871612 40.360156 
L 331.646697 40.632002 
L 331.800032 41.001183 
L 332.209083 41.331525 
L 333.197258 42.282328 
L 333.229247 42.708397 
L 333.199657 43.017991 
L 333.109709 43.114751 
L 332.927854 43.637584 
L 332.028687 44.646652 
L 330.845822 45.639016 
L 330.797754 45.756029 
L 330.622358 46.185245 
L 330.690031 46.692535 
L 330.831356 46.926536 
L 330.959466 47.14079 
L 330.99672 47.315826 
L 331.024592 47.354697 
L 330.970959 47.393561 
L 330.867019 47.548942 
L 330.879716 47.568352 
L 330.891332 47.723524 
L 331.02661 47.839791 
L 332.49166 48.63325 
L 332.476353 48.652594 
L 332.533734 48.768667 
L 332.967333 49.136467 
L 334.572767 49.698153 
L 334.532609 49.775641 
L 334.008593 50.240424 
L 333.786642 50.74406 
L 334.225294 50.899089 
L 334.847505 51.073631 
L 335.638287 51.345397 
L 335.616362 51.36481 
L 334.606947 52.12268 
L 334.65372 52.452969 
L 334.167911 52.70536 
L 332.495032 53.092934 
L 330.967309 53.421827 
L 330.975191 53.441166 
L 331.16615 53.518512 
L 332.699727 53.692479 
L 334.951771 54.0017 
L 334.972209 54.040337 
L 334.877399 54.07897 
L 334.30544 54.175541 
L 332.053687 54.291397 
L 316.71657 54.851141 
L 316.826222 54.928379 
L 317.493131 55.044265 
L 318.365018 55.237489 
L 318.336358 55.256816 
L 317.675755 55.372801 
L 314.71117 55.798728 
L 314.773784 55.837503 
L 315.808297 55.953877 
L 319.513356 56.128542 
L 327.282022 56.516961 
L 327.306961 56.555822 
L 327.219733 56.594687 
L 326.163806 56.730782 
L 322.771692 57.158714 
L 322.872015 57.236545 
L 324.011011 57.431199 
L 333.235557 58.597641 
L 333.778556 58.869084 
L 333.192573 59.449877 
L 330.943791 60.261411 
L 329.167461 60.415816 
L 327.138273 60.647436 
L 327.095535 60.705343 
L 327.152126 60.743947 
L 327.410341 60.879064 
L 327.370308 60.917668 
L 326.845919 60.99488 
L 323.619139 61.265291 
L 323.732211 61.342619 
L 323.480628 61.400634 
L 320.694219 61.555458 
L 318.460851 61.768652 
L 318.209871 61.885081 
L 316.079739 62.040523 
L 313.577106 62.274068 
L 313.96137 62.351953 
L 316.864941 62.761331 
L 316.856346 62.780835 
L 316.338854 62.956371 
L 314.195987 63.443835 
L 314.245504 63.56071 
L 314.176377 63.638609 
L 313.813796 63.73594 
L 310.285726 64.299463 
L 310.405571 64.357671 
L 311.808455 64.571044 
L 319.490856 65.520847 
L 319.49987 65.637222 
L 319.473447 65.656624 
L 318.468269 66.200456 
L 314.572978 67.3663 
L 314.09565 67.948362 
L 314.081659 68.12284 
L 314.06777 68.200328 
L 314.092733 68.219695 
L 314.638499 68.626335 
L 314.587103 68.858593 
L 314.615591 68.994129 
L 314.668763 69.168368 
L 314.62788 69.187729 
L 313.744214 69.362082 
L 312.900306 69.575241 
L 312.905762 69.633389 
L 312.963603 69.672163 
L 314.278672 70.234774 
L 314.151077 70.312349 
L 313.614818 70.506228 
L 313.721658 70.564394 
L 314.781369 71.029434 
L 315.041229 71.300295 
L 315.046612 71.667718 
L 315.030666 71.822389 
L 315.362622 71.919117 
L 317.118745 72.073972 
L 318.985291 72.325732 
L 319.127803 72.403264 
L 319.018195 72.442051 
L 317.917109 72.558489 
L 316.032934 72.791553 
L 316.19115 72.869266 
L 317.151787 73.219329 
L 317.150755 73.375044 
L 317.12327 73.41397 
L 317.214169 73.452896 
L 318.130977 73.725396 
L 319.070131 74.075555 
L 319.078944 74.114434 
L 319.024751 74.153304 
L 318.949975 74.289285 
L 318.984607 74.308704 
L 319.816338 74.73561 
L 319.752062 74.793758 
L 319.607192 74.929415 
L 319.420659 75.123068 
L 319.136792 75.490945 
L 318.431994 75.645784 
L 312.955333 76.362574 
L 310.009003 76.653396 
L 308.136276 77.11917 
L 307.321921 77.352219 
L 307.311073 77.391061 
L 307.397018 77.429903 
L 308.514837 77.682368 
L 311.00261 78.284267 
L 311.192873 78.497636 
L 311.174693 78.517028 
L 310.785173 78.691519 
L 309.557809 78.962806 
L 306.199764 79.563286 
L 305.639872 79.854335 
L 305.581169 79.990331 
L 305.616298 80.009775 
L 306.276715 80.107061 
L 310.61083 80.379914 
L 309.731629 80.477524 
L 307.410281 80.653417 
L 307.517422 80.69252 
L 311.449148 81.357861 
L 312.22438 82.02279 
L 312.194796 82.04233 
L 311.684805 82.198596 
L 310.766989 82.471685 
L 310.796949 82.510654 
L 310.86924 82.666401 
L 310.842492 82.685856 
L 310.641618 82.860948 
L 310.725892 82.899861 
L 311.531712 83.19148 
L 311.42936 83.230323 
L 310.165863 83.346843 
L 302.269678 83.870676 
L 299.949483 84.76426 
L 298.628219 85.368381 
L 299.038783 85.700304 
L 300.07351 86.012973 
L 301.779071 86.540663 
L 301.653507 86.852996 
L 301.450424 87.125564 
L 301.247914 87.572151 
L 301.440854 87.998674 
L 301.620818 88.09561 
L 301.975543 88.270182 
L 305.495181 89.55707 
L 305.684981 89.811468 
L 305.703131 90.04627 
L 305.170492 90.49577 
L 300.09508 91.878 
L 300.178127 91.936241 
L 301.44869 92.149819 
L 303.711889 92.460506 
L 303.667031 92.499367 
L 303.530918 92.557674 
L 302.698558 92.713244 
L 302.8143 92.771614 
L 303.988364 92.888406 
L 309.086761 93.395234 
L 309.091584 93.434264 
L 309.031746 93.453783 
L 308.342734 93.66862 
L 308.35357 93.688154 
L 308.754216 93.766289 
L 311.436329 93.961624 
L 318.138716 94.469443 
L 318.103804 94.508476 
L 317.731887 94.625525 
L 314.9793 94.89844 
L 298.474716 96.124353 
L 298.287058 96.260677 
L 298.336868 96.319118 
L 298.616058 96.397032 
L 300.840417 96.611349 
L 307.224672 97.118725 
L 307.132199 97.177283 
L 305.912618 97.333411 
L 296.722077 98.290751 
L 296.416583 98.427607 
L 296.439719 98.486259 
L 296.501749 98.564458 
L 297.169416 98.857802 
L 297.579004 99.09237 
L 297.748098 99.268276 
L 297.695472 99.326891 
L 297.467304 99.56115 
L 296.812872 99.892912 
L 295.687673 100.322013 
L 294.870875 100.711781 
L 294.948664 100.906503 
L 295.087485 101.179125 
L 294.703367 101.393351 
L 293.726333 101.588262 
L 290.690027 102.154243 
L 290.546828 102.271522 
L 290.594147 102.310623 
L 291.525452 103.053398 
L 292.132748 103.248665 
L 293.331076 103.677664 
L 293.439074 103.755612 
L 293.718592 104.008842 
L 293.823721 104.222986 
L 294.007581 104.398201 
L 295.293692 104.82703 
L 296.300972 105.119692 
L 296.433598 105.373514 
L 296.3684 105.510205 
L 295.963029 105.725003 
L 292.756345 106.680399 
L 292.377754 106.97258 
L 292.305862 107.225585 
L 292.260499 107.381351 
L 292.306135 107.595462 
L 292.699661 107.712303 
L 293.740246 107.829221 
L 296.700173 108.19949 
L 296.698278 108.316419 
L 296.603013 108.569774 
L 296.644717 108.589263 
L 298.58292 109.192954 
L 298.53503 109.231872 
L 297.833881 109.329171 
L 295.991125 109.562696 
L 296.035636 109.582159 
L 297.027755 109.9132 
L 297.870171 110.049595 
L 299.935521 110.303025 
L 299.705301 110.34203 
L 296.136136 110.61511 
L 296.37395 110.693105 
L 297.560326 110.94667 
L 297.52136 110.985688 
L 296.923309 111.161197 
L 296.456157 111.375503 
L 296.3112 111.531221 
L 295.376021 111.686828 
L 292.434807 112.01698 
L 292.454108 112.075189 
L 292.705125 112.13339 
L 297.102542 112.715046 
L 297.033459 112.850741 
L 296.316688 113.530022 
L 296.266524 113.880523 
L 297.020764 114.290867 
L 297.085864 115.190905 
L 297.268016 115.444559 
L 297.38943 115.8922 
L 297.330257 115.989362 
L 297.370584 116.028213 
L 297.507665 116.125313 
L 299.255326 116.766039 
L 299.204978 116.960306 
L 299.026445 117.154637 
L 298.870866 117.407273 
L 298.812015 117.562817 
L 298.677837 117.913019 
L 298.550274 118.322197 
L 298.956227 118.478234 
L 300.462226 118.731889 
L 302.022376 119.044121 
L 302.071249 119.219858 
L 301.774446 119.415213 
L 301.344004 119.551964 
L 299.328935 120.137258 
L 298.727152 120.370984 
L 296.346184 121.012839 
L 296.417131 121.187894 
L 297.026807 121.401775 
L 299.478267 122.043751 
L 299.641749 122.2771 
L 299.376595 122.549424 
L 299.192144 122.763313 
L 299.140764 123.152228 
L 299.070137 123.502264 
L 298.933865 123.677312 
L 298.82324 123.891381 
L 298.771865 124.008158 
L 298.73606 124.163893 
L 299.282897 124.729212 
L 299.429393 125.080637 
L 299.20443 125.217336 
L 296.964684 125.842325 
L 294.468698 126.193391 
L 292.748156 126.48551 
L 291.612137 126.932638 
L 291.356203 127.243339 
L 291.601291 127.631742 
L 292.80473 128.721703 
L 292.922695 129.01448 
L 293.10829 129.287976 
L 293.217851 129.405237 
L 294.785777 130.460256 
L 294.768248 130.479774 
L 294.314002 130.791946 
L 294.338981 130.811453 
L 294.775518 131.162584 
L 294.805815 131.338062 
L 295.126521 131.591304 
L 295.496441 131.727545 
L 296.65387 132.077486 
L 298.175123 132.524071 
L 298.302788 132.737508 
L 298.155191 133.009012 
L 297.673712 133.280439 
L 294.814561 133.959672 
L 294.93616 134.037356 
L 295.934121 134.251133 
L 296.717597 134.503998 
L 296.898697 134.737681 
L 296.852693 134.87408 
L 296.202579 135.283806 
L 295.480851 135.65476 
L 295.312997 135.947498 
L 295.432241 136.278957 
L 295.337896 136.473594 
L 294.803651 136.784603 
L 294.883802 136.823463 
L 295.65989 136.959445 
L 297.515263 137.250569 
L 297.520489 137.328177 
L 297.487998 137.34758 
L 296.542584 137.851836 
L 296.634087 137.910031 
L 297.52058 138.181688 
L 297.381854 138.239901 
L 296.10574 138.395141 
L 295.137265 138.589205 
L 295.3528 138.686275 
L 296.189706 138.996892 
L 296.555773 139.366123 
L 298.340889 139.774491 
L 298.197092 139.832868 
L 296.795051 140.027493 
L 287.351117 140.903696 
L 276.586616 141.429548 
L 276.987937 141.487936 
L 280.83218 141.62415 
L 292.947343 142.013182 
L 298.160997 142.363249 
L 298.108745 142.402156 
L 297.496331 142.499407 
L 292.860412 143.063079 
L 291.700129 143.412629 
L 291.251832 143.684299 
L 291.272483 143.703705 
L 291.661957 143.897816 
L 293.357325 144.169573 
L 294.539265 144.402608 
L 294.523886 144.422027 
L 294.154399 144.499704 
L 292.003712 144.635645 
L 282.616798 144.907482 
L 276.152818 145.140356 
L 276.208179 145.159763 
L 277.798385 145.237389 
L 292.473598 145.761282 
L 292.935475 145.935813 
L 292.912665 145.955207 
L 292.064108 146.168537 
L 287.989193 146.343006 
L 278.641913 146.924334 
L 279.545773 147.273736 
L 281.476797 147.48746 
L 287.002589 147.895748 
L 293.27919 148.420985 
L 294.234364 148.712662 
L 294.514887 149.004364 
L 294.428738 149.062745 
L 293.21179 149.296442 
L 290.372178 149.51067 
L 283.131779 149.78317 
L 269.605651 150.289091 
L 268.558932 150.464013 
L 268.573528 150.483447 
L 268.877608 150.580638 
L 270.435245 150.736195 
L 275.427145 150.988824 
L 287.41026 151.62985 
L 290.149043 151.940344 
L 290.301269 152.03731 
L 290.23743 152.076092 
L 289.703117 152.211799 
L 288.028929 152.386147 
L 283.884644 152.618515 
L 273.815864 153.179912 
L 269.902922 153.896588 
L 267.140315 154.284468 
L 266.193164 154.633549 
L 266.027561 154.749944 
L 266.075103 154.788732 
L 266.346083 154.866294 
L 269.886443 155.466772 
L 269.847976 155.524803 
L 269.735606 155.602171 
L 268.78271 155.776253 
L 265.256761 156.085796 
L 255.029208 156.802104 
L 255.253611 156.840858 
L 258.025482 156.976458 
L 262.152429 157.247643 
L 265.755608 157.712674 
L 265.764889 157.848365 
L 265.362819 158.39126 
L 264.313876 158.93413 
L 263.803769 159.205307 
L 263.451034 159.553619 
L 263.352198 159.766218 
L 263.072288 159.940087 
L 261.875371 160.712295 
L 261.696472 160.90562 
L 261.200658 161.467364 
L 259.395717 161.89426 
L 256.148434 162.262822 
L 252.46354 162.708539 
L 252.498089 162.727907 
L 253.342679 162.86346 
L 258.799615 163.48258 
L 258.853747 163.559899 
L 258.813423 163.579224 
L 257.868259 163.733742 
L 251.860346 164.370487 
L 251.952426 164.428314 
L 254.113162 164.94893 
L 254.055225 165.045356 
L 253.841666 165.392584 
L 253.874879 165.411866 
L 254.347697 165.835983 
L 254.312938 166.028649 
L 254.116227 166.279085 
L 254.147343 166.298341 
L 254.703209 166.452314 
L 256.993676 166.683174 
L 261.905697 167.164176 
L 263.214866 167.453109 
L 264.654741 167.839039 
L 264.649849 167.95497 
L 264.429146 168.090316 
L 263.233691 168.322488 
L 260.989418 168.748466 
L 260.823222 168.903388 
L 260.846423 168.942126 
L 260.901884 169.019616 
L 262.176392 169.639355 
L 262.438628 169.968341 
L 262.407656 169.987686 
L 261.916708 170.219686 
L 260.00577 170.355011 
L 250.873823 170.741452 
L 251.347364 170.818766 
L 252.503725 170.973372 
L 252.402132 171.012013 
L 250.637023 171.166564 
L 246.70777 171.552927 
L 246.149733 171.765291 
L 246.217045 171.881081 
L 246.714227 172.035418 
L 249.005366 172.498271 
L 248.98726 172.517564 
L 248.254713 172.768581 
L 246.467009 173.155341 
L 245.071921 173.504159 
L 245.081174 173.892049 
L 245.176093 174.628992 
L 244.962632 174.996801 
L 244.90223 175.209509 
L 244.652314 176.290075 
L 244.697497 176.521281 
L 244.615511 176.752381 
L 244.232392 177.310677 
L 244.256615 177.329917 
L 244.326502 177.483849 
L 244.3044 177.503096 
L 244.319724 177.618596 
L 244.410561 177.791829 
L 244.961384 178.157975 
L 245.629812 178.409013 
L 247.017374 178.931579 
L 247.49701 179.242084 
L 247.540934 179.436348 
L 247.230538 179.727735 
L 246.532532 179.960703 
L 245.35189 180.329039 
L 245.133902 180.522495 
L 245.158544 180.561151 
L 245.321805 180.657742 
L 246.47451 180.870081 
L 247.489068 181.139853 
L 247.025893 181.351517 
L 246.338032 181.678081 
L 246.616487 181.946705 
L 247.471463 182.253617 
L 248.721677 182.675468 
L 248.889946 182.848166 
L 248.926424 183.001745 
L 248.789084 183.136179 
L 248.506282 183.405192 
L 247.918321 183.828567 
L 247.296756 184.136871 
L 247.4076 184.214018 
L 248.006929 184.368354 
L 252.00071 185.160382 
L 252.645377 185.604721 
L 252.780708 185.70126 
L 252.833295 185.874926 
L 252.899344 186.106327 
L 252.850083 186.741622 
L 252.839292 186.87619 
L 252.800535 187.029921 
L 252.695272 187.337031 
L 252.656398 187.490478 
L 252.041569 188.850357 
L 251.988418 189.061021 
L 251.938123 189.19515 
L 251.954498 189.444628 
L 252.06882 190.002772 
L 252.108657 190.253431 
L 252.104013 190.292008 
L 252.163855 190.330589 
L 252.485716 191.140941 
L 252.476166 191.295069 
L 252.574112 191.583729 
L 253.277855 191.910554 
L 256.269368 192.524876 
L 256.145624 192.601666 
L 255.952764 192.65927 
L 254.273064 192.870479 
L 248.925316 193.177854 
L 227.035645 194.354914 
L 220.93301 195.052248 
L 220.275845 195.400622 
L 219.926789 195.613218 
L 218.69908 196.172775 
L 218.664599 196.422982 
L 218.349857 196.576793 
L 216.98906 196.807373 
L 213.534165 197.325763 
L 213.39286 197.440924 
L 213.426437 197.479307 
L 213.577373 197.575267 
L 215.290901 197.920883 
L 215.077449 197.978487 
L 211.575409 198.574194 
L 211.095564 198.824479 
L 210.366743 199.442612 
L 207.707051 200.374058 
L 207.511931 200.626518 
L 207.427899 200.936736 
L 207.333422 201.246331 
L 207.701516 202.075527 
L 207.572567 202.537786 
L 207.57568 202.67262 
L 207.603476 203.231256 
L 207.652148 203.269797 
L 207.582138 203.327617 
L 207.418841 203.674725 
L 207.308831 203.925613 
L 207.067513 204.350945 
L 206.448061 204.622158 
L 204.57088 205.204761 
L 203.956698 205.632324 
L 203.968745 205.651751 
L 204.891272 206.892818 
L 204.881771 207.337601 
L 204.808124 207.492292 
L 204.571541 208.187645 
L 204.547162 208.36142 
L 204.592703 208.747605 
L 204.578609 208.921395 
L 204.594996 209.133925 
L 204.475589 209.366047 
L 204.37544 209.656593 
L 204.103014 210.161179 
L 204.151509 210.394238 
L 204.201428 210.510828 
L 204.375958 210.724619 
L 204.671752 211.016246 
L 204.864211 211.30761 
L 204.906722 211.501685 
L 204.866445 211.71502 
L 204.923885 211.831303 
L 204.878119 213.185689 
L 204.780244 213.379424 
L 204.839971 213.55399 
L 204.835549 213.709229 
L 204.820105 214.15607 
L 204.6593 214.836802 
L 204.542068 215.03137 
L 204.486982 215.128685 
L 204.377497 215.303775 
L 204.422125 215.459284 
L 204.461455 215.653502 
L 204.7307 216.351635 
L 204.282073 216.777802 
L 204.29119 216.952306 
L 204.41521 217.0493 
L 204.968924 217.496362 
L 204.925816 218.704775 
L 204.883369 218.821477 
L 204.902691 218.840922 
L 204.871744 218.977018 
L 204.842818 219.171374 
L 204.796796 219.404246 
L 204.774956 220.082388 
L 204.732314 220.198601 
L 204.715214 220.392345 
L 204.684642 220.586267 
L 204.570394 221.479571 
L 204.646334 221.71286 
L 204.760727 222.062838 
L 204.908163 222.237937 
L 204.873631 222.257396 
L 204.799723 222.413064 
L 204.756186 222.70483 
L 204.782752 222.840993 
L 204.787904 222.996579 
L 204.675591 223.074334 
L 203.767392 223.268607 
L 202.672241 223.540446 
L 202.698634 223.579265 
L 203.323195 223.850902 
L 203.421971 223.986655 
L 203.287561 224.297024 
L 204.020437 224.549352 
L 204.416476 224.821192 
L 204.365486 224.898866 
L 203.678649 225.326057 
L 203.538011 225.617205 
L 203.693377 225.733555 
L 204.335407 226.024229 
L 205.612385 226.894895 
L 205.654839 227.243184 
L 205.612054 227.359319 
L 205.656303 227.863249 
L 205.613859 228.018364 
L 205.326958 228.503367 
L 204.417966 229.085522 
L 203.510209 229.531743 
L 203.366802 230.384662 
L 203.381986 230.442805 
L 203.319413 230.481569 
L 203.048947 230.79172 
L 202.24216 231.451643 
L 202.272229 231.626664 
L 202.498584 231.801701 
L 203.654355 232.42327 
L 203.860249 232.714508 
L 203.839661 232.947416 
L 202.92151 234.07255 
L 202.865485 234.266222 
L 202.867287 234.382436 
L 202.853714 234.576192 
L 202.288689 235.587641 
L 202.213737 235.743883 
L 201.881661 236.719964 
L 202.028251 237.030792 
L 202.071525 237.20508 
L 202.139626 237.379154 
L 202.117063 237.398486 
L 202.136404 237.533773 
L 202.078058 237.649708 
L 202.15465 238.132807 
L 202.146651 238.30681 
L 202.063905 238.558343 
L 201.857934 238.945882 
L 201.635676 239.256422 
L 201.632978 239.956319 
L 201.79232 240.209197 
L 202.427214 240.987972 
L 202.440702 241.065904 
L 202.479005 241.085384 
L 202.554026 241.202237 
L 202.529057 241.221709 
L 202.58118 241.319058 
L 202.525994 241.455309 
L 202.415263 241.72768 
L 202.338086 241.863793 
L 202.049837 242.504371 
L 202.045899 242.65949 
L 201.82833 243.047235 
L 201.77339 243.202231 
L 201.566903 243.570094 
L 201.727415 244.420309 
L 201.762682 244.555396 
L 201.547617 245.814222 
L 201.495197 245.930839 
L 201.4652 246.066965 
L 201.319973 246.436714 
L 201.288729 246.728823 
L 201.370444 246.962372 
L 201.536759 247.467964 
L 201.447691 247.584594 
L 200.784821 248.283727 
L 200.643204 248.904902 
L 200.416648 249.11844 
L 200.416648 249.11844 
" clip-path="url(#p4cc03d006f)" style="fill: none; stroke: #191970; stroke-width: 1.5; stroke-linecap: square"/>
   </g>
   <g id="patch_8">
    <path d="M 193.509375 249.12 
L 193.509375 7.2 
" style="fill: none; stroke: #000000; stroke-width: 0.8; stroke-linejoin: miter; stroke-linecap: square"/>
   </g>
   <g id="patch_9">
    <path d="M 345.469375 249.12 
L 345.469375 7.2 
" style="fill: none; stroke: #000000; stroke-width: 0.8; stroke-linejoin: miter; stroke-linecap: square"/>
   </g>
   <g id="patch_10">
    <path d="M 193.509375 249.12 
L 345.469375 249.12 
" style="fill: none; stroke: #000000; stroke-width: 0.8; stroke-linejoin: miter; stroke-linecap: square"/>
   </g>
   <g id="patch_11">
    <path d="M 193.509375 7.2 
L 345.469375 7.2 
" style="fill: none; stroke: #000000; stroke-width: 0.8; stroke-linejoin: miter; stroke-linecap: square"/>
   </g>
  </g>
  <g id="text_2">
   <!-- Temperature [°C] -->
   <g transform="translate(133.857188 272.848437) scale(0.14 -0.14)">
    <defs>
     <path id="DejaVuSans-54" d="M -19 4666 
L 3928 4666 
L 3928 4134 
L 2272 4134 
L 2272 0 
L 1638 0 
L 1638 4134 
L -19 4134 
L -19 4666 
z
" transform="scale(0.015625)"/>
     <path id="DejaVuSans-72" d="M 2631 2963 
Q 2534 3019 2420 3045 
Q 2306 3072 2169 3072 
Q 1681 3072 1420 2755 
Q 1159 2438 1159 1844 
L 1159 0 
L 581 0 
L 581 3500 
L 1159 3500 
L 1159 2956 
Q 1341 3275 1631 3429 
Q 1922 3584 2338 3584 
Q 2397 3584 2469 3576 
Q 2541 3569 2628 3553 
L 2631 2963 
z
" transform="scale(0.015625)"/>
     <path id="DejaVuSans-61" d="M 2194 1759 
Q 1497 1759 1228 1600 
Q 959 1441 959 1056 
Q 959 750 1161 570 
Q 1363 391 1709 391 
Q 2188 391 2477 730 
Q 2766 1069 2766 1631 
L 2766 1759 
L 2194 1759 
z
M 3341 1997 
L 3341 0 
L 2766 0 
L 2766 531 
Q 2569 213 2275 61 
Q 1981 -91 1556 -91 
Q 1019 -91 701 211 
Q 384 513 384 1019 
Q 384 1609 779 1909 
Q 1175 2209 1959 2209 
L 2766 2209 
L 2766 2266 
Q 2766 2663 2505 2880 
Q 2244 3097 1772 3097 
Q 1472 3097 1187 3025 
Q 903 2953 641 2809 
L 641 3341 
Q 956 3463 1253 3523 
Q 1550 3584 1831 3584 
Q 2591 3584 2966 3190 
Q 3341 2797 3341 1997 
z
" transform="scale(0.015625)"/>
     <path id="DejaVuSans-75" d="M 544 1381 
L 544 3500 
L 1119 3500 
L 1119 1403 
Q 1119 906 1312 657 
Q 1506 409 1894 409 
Q 2359 409 2629 706 
Q 2900 1003 2900 1516 
L 2900 3500 
L 3475 3500 
L 3475 0 
L 2900 0 
L 2900 538 
Q 2691 219 2414 64 
Q 2138 -91 1772 -91 
Q 1169 -91 856 284 
Q 544 659 544 1381 
z
M 1991 3584 
L 1991 3584 
z
" transform="scale(0.015625)"/>
     <path id="DejaVuSans-b0" d="M 1600 4347 
Q 1350 4347 1178 4173 
Q 1006 4000 1006 3750 
Q 1006 3503 1178 3333 
Q 1350 3163 1600 3163 
Q 1850 3163 2022 3333 
Q 2194 3503 2194 3750 
Q 2194 3997 2020 4172 
Q 1847 4347 1600 4347 
z
M 1600 4750 
Q 1800 4750 1984 4673 
Q 2169 4597 2303 4453 
Q 2447 4313 2519 4134 
Q 2591 3956 2591 3750 
Q 2591 3338 2302 3052 
Q 2013 2766 1594 2766 
Q 1172 2766 890 3047 
Q 609 3328 609 3750 
Q 609 4169 896 4459 
Q 1184 4750 1600 4750 
z
" transform="scale(0.015625)"/>
     <path id="DejaVuSans-43" d="M 4122 4306 
L 4122 3641 
Q 3803 3938 3442 4084 
Q 3081 4231 2675 4231 
Q 1875 4231 1450 3742 
Q 1025 3253 1025 2328 
Q 1025 1406 1450 917 
Q 1875 428 2675 428 
Q 3081 428 3442 575 
Q 3803 722 4122 1019 
L 4122 359 
Q 3791 134 3420 21 
Q 3050 -91 2638 -91 
Q 1578 -91 968 557 
Q 359 1206 359 2328 
Q 359 3453 968 4101 
Q 1578 4750 2638 4750 
Q 3056 4750 3426 4639 
Q 3797 4528 4122 4306 
z
" transform="scale(0.015625)"/>
    </defs>
    <use xlink:href="#DejaVuSans-54"/>
    <use xlink:href="#DejaVuSans-65" transform="translate(44.083984 0)"/>
    <use xlink:href="#DejaVuSans-6d" transform="translate(105.607422 0)"/>
    <use xlink:href="#DejaVuSans-70" transform="translate(203.019531 0)"/>
    <use xlink:href="#DejaVuSans-65" transform="translate(266.496094 0)"/>
    <use xlink:href="#DejaVuSans-72" transform="translate(328.019531 0)"/>
    <use xlink:href="#DejaVuSans-61" transform="translate(369.132812 0)"/>
    <use xlink:href="#DejaVuSans-74" transform="translate(430.412109 0)"/>
    <use xlink:href="#DejaVuSans-75" transform="translate(469.621094 0)"/>
    <use xlink:href="#DejaVuSans-72" transform="translate(533 0)"/>
    <use xlink:href="#DejaVuSans-65" transform="translate(571.863281 0)"/>
    <use xlink:href="#DejaVuSans-20" transform="translate(633.386719 0)"/>
    <use xlink:href="#DejaVuSans-5b" transform="translate(665.173828 0)"/>
    <use xlink:href="#DejaVuSans-b0" transform="translate(704.1875 0)"/>
    <use xlink:href="#DejaVuSans-43" transform="translate(754.1875 0)"/>
    <use xlink:href="#DejaVuSans-5d" transform="translate(824.011719 0)"/>
   </g>
  </g>
 </g>
 <defs>
  <clipPath id="pddc45c9ab5">
   <rect x="30.749375" y="7.2" width="151.96" height="241.92"/>
  </clipPath>
  <clipPath id="p4cc03d006f">
   <rect x="193.509375" y="7.2" width="151.96" height="241.92"/>
  </clipPath>
 </defs>
</svg>
