<?xml version="1.0" encoding="utf-8" standalone="no"?>
<!DOCTYPE svg PUBLIC "-//W3C//DTD SVG 1.1//EN"
  "http://www.w3.org/Graphics/SVG/1.1/DTD/svg11.dtd">
<svg xmlns:xlink="http://www.w3.org/1999/xlink" width="424.8pt" height="136.8pt" viewBox="0 0 424.8 136.8" xmlns="http://www.w3.org/2000/svg" version="1.1">
 <metadata>
  <rdf:RDF xmlns:dc="http://purl.org/dc/elements/1.1/" xmlns:cc="http://creativecommons.org/ns#" xmlns:rdf="http://www.w3.org/1999/02/22-rdf-syntax-ns#">
   <cc:Work>
    <dc:type rdf:resource="http://purl.org/dc/dcmitype/StillImage"/>
    <dc:date>2026-03-15T18:36:10.567398</dc:date>
    <dc:format>image/svg+xml</dc:format>
    <dc:creator>
     <cc:Agent>
      <dc:title>Matplotlib v3.10.6, https://matplotlib.org/</dc:title>
     </cc:Agent>
    </dc:creator>
   </cc:Work>
  </rdf:RDF>
 </metadata>
 <defs>
  <style type="text/css">*{stroke-linejoin: round; stroke-linecap: butt}</style>
 </defs>
 <g id="figure_1">
  <g id="patch_1">
   <path d="M 0 136.8 
L 424.8 136.8 
L 424.8 0 
L 0 0 
z
" style="fill: #ffffff"/>
  </g>
  <g id="axes_1">
   <g id="patch_2">
    <path d="M 35.996 18.327273 
L 32.24 19.996364 
L 32.24 18.883636 
L 15.546667 18.883636 
L 15.546667 17.770909 
L 32.24 17.770909 
L 32.24 16.658182 
z
" clip-path="url(#p49a625432b)" style="fill: #2ca02c; stroke: #2ca02c; stroke-linejoin: miter"/>
   </g>
   <g id="patch_3">
    <path d="M 61.036 18.327273 
L 57.28 19.996364 
L 57.28 18.883636 
L 40.586667 18.883636 
L 40.586667 17.770909 
L 57.28 17.770909 
L 57.28 16.658182 
z
" clip-path="url(#p49a625432b)" style="fill: #2ca02c; stroke: #2ca02c; stroke-linejoin: miter"/>
   </g>
   <g id="patch_4">
    <path d="M 86.076 18.327273 
L 82.32 19.996364 
L 82.32 18.883636 
L 65.626667 18.883636 
L 65.626667 17.770909 
L 82.32 17.770909 
L 82.32 16.658182 
z
" clip-path="url(#p49a625432b)" style="fill: #2ca02c; stroke: #2ca02c; stroke-linejoin: miter"/>
   </g>
   <g id="line2d_1">
    <path d="M 11.373333 42.250909 
L 12.906395 42.864045 
L 14.439456 43.47718 
L 15.972517 44.090315 
L 17.505578 44.703451 
L 19.038639 45.316586 
L 20.571701 45.929722 
L 22.104762 46.542857 
L 23.637823 47.155993 
L 25.170884 47.769128 
L 26.703946 48.382263 
L 28.237007 48.995399 
L 29.770068 49.608534 
L 31.303129 50.22167 
L 32.83619 50.834805 
L 34.369252 51.447941 
L 35.902313 52.061076 
L 37.435374 52.674212 
L 38.968435 53.287347 
L 40.501497 53.900482 
L 42.034558 54.513618 
L 43.567619 55.126753 
L 45.10068 55.739889 
L 46.633741 56.353024 
L 48.166803 56.96616 
L 49.699864 57.579295 
L 51.232925 58.19243 
L 52.765986 58.805566 
L 54.299048 59.418701 
L 55.832109 60.031837 
L 57.36517 60.644972 
L 58.898231 61.258108 
L 60.431293 61.871243 
L 61.964354 62.484378 
L 63.497415 63.097514 
L 65.030476 63.710649 
L 66.563537 64.323785 
L 68.096599 64.93692 
L 69.62966 65.550056 
L 71.162721 66.163191 
L 72.695782 66.776327 
L 74.228844 67.389462 
L 75.761905 68.002597 
L 77.294966 68.615733 
L 78.828027 69.228868 
L 80.361088 69.842004 
L 81.89415 70.455139 
L 83.427211 71.068275 
L 84.960272 71.68141 
L 86.493333 72.294545 
" clip-path="url(#p49a625432b)" style="fill: none; stroke: #191970; stroke-width: 2; stroke-linecap: square"/>
   </g>
  </g>
  <g id="axes_2">
   <g id="line2d_2">
    <path d="M 174.84 72.294545 
L 176.373061 71.68141 
L 177.906122 71.068275 
L 179.439184 70.455139 
L 180.972245 69.842004 
L 182.505306 69.228868 
L 184.038367 68.615733 
L 185.571429 68.002597 
L 187.10449 67.389462 
L 188.637551 66.776327 
L 190.170612 66.163191 
L 191.703673 65.550056 
L 193.236735 64.93692 
L 194.769796 64.323785 
L 196.302857 63.710649 
L 197.835918 63.097514 
L 199.36898 62.484378 
L 200.902041 61.871243 
L 202.435102 61.258108 
L 203.968163 60.644972 
L 205.501224 60.031837 
L 207.034286 59.418701 
L 208.567347 58.805566 
L 210.100408 58.19243 
L 211.633469 57.579295 
L 213.166531 56.96616 
L 214.699592 56.353024 
L 216.232653 55.739889 
L 217.765714 55.126753 
L 219.298776 54.513618 
L 220.831837 53.900482 
L 222.364898 53.287347 
L 223.897959 52.674212 
L 225.43102 52.061076 
L 226.964082 51.447941 
L 228.497143 50.834805 
L 230.030204 50.22167 
L 231.563265 49.608534 
L 233.096327 48.995399 
L 234.629388 48.382263 
L 236.162449 47.769128 
L 237.69551 47.155993 
L 239.228571 46.542857 
L 240.761633 45.929722 
L 242.294694 45.316586 
L 243.827755 44.703451 
L 245.360816 44.090315 
L 246.893878 43.47718 
L 248.426939 42.864045 
L 249.96 42.250909 
" clip-path="url(#pc9804e3b7f)" style="fill: none; stroke: #191970; stroke-width: 2; stroke-linecap: square"/>
   </g>
  </g>
  <g id="axes_3">
   <g id="line2d_3">
    <path d="M 338.306667 42.250909 
L 339.839728 42.864045 
L 341.372789 43.47718 
L 342.90585 44.090315 
L 344.438912 44.703451 
L 345.971973 45.316586 
L 347.505034 45.929722 
L 349.038095 46.542857 
L 350.571156 47.155993 
L 352.104218 47.769128 
L 353.637279 48.382263 
L 355.17034 48.995399 
L 356.703401 49.608534 
L 358.236463 50.22167 
L 359.769524 50.834805 
L 361.302585 51.447941 
L 362.835646 52.061076 
L 364.368707 52.674212 
L 365.901769 53.287347 
L 367.43483 53.900482 
L 368.967891 54.513618 
L 370.500952 55.126753 
L 372.034014 55.739889 
L 373.567075 56.353024 
L 375.100136 56.96616 
L 376.633197 57.579295 
L 378.166259 58.19243 
L 379.69932 58.805566 
L 381.232381 59.418701 
L 382.765442 60.031837 
L 384.298503 60.644972 
L 385.831565 61.258108 
L 387.364626 61.871243 
L 388.897687 62.484378 
L 390.430748 63.097514 
L 391.96381 63.710649 
L 393.496871 64.323785 
L 395.029932 64.93692 
L 396.562993 65.550056 
L 398.096054 66.163191 
L 399.629116 66.776327 
L 401.162177 67.389462 
L 402.695238 68.002597 
L 404.228299 68.615733 
L 405.761361 69.228868 
L 407.294422 69.842004 
L 408.827483 70.455139 
L 410.360544 71.068275 
L 411.893605 71.68141 
L 413.426667 72.294545 
" clip-path="url(#pfa5f23a6d1)" style="fill: none; stroke: #191970; stroke-width: 2; stroke-linecap: square"/>
   </g>
  </g>
 </g>
 <defs>
  <clipPath id="p49a625432b">
   <rect x="7.2" y="7.2" width="83.466667" height="122.4"/>
  </clipPath>
  <clipPath id="pc9804e3b7f">
   <rect x="170.666667" y="7.2" width="83.466667" height="122.4"/>
  </clipPath>
  <clipPath id="pfa5f23a6d1">
   <rect x="334.133333" y="7.2" width="83.466667" height="122.4"/>
  </clipPath>
 </defs>
</svg>
