<?xml version="1.0" encoding="utf-8" standalone="no"?>
<!DOCTYPE svg PUBLIC "-//W3C//DTD SVG 1.1//EN"
  "http://www.w3.org/Graphics/SVG/1.1/DTD/svg11.dtd">
<svg xmlns:xlink="http://www.w3.org/1999/xlink" width="205.349375pt" height="259.709375pt" viewBox="0 0 205.349375 259.709375" xmlns="http://www.w3.org/2000/svg" version="1.1">
 <metadata>
  <rdf:RDF xmlns:dc="http://purl.org/dc/elements/1.1/" xmlns:cc="http://creativecommons.org/ns#" xmlns:rdf="http://www.w3.org/1999/02/22-rdf-syntax-ns#">
   <cc:Work>
    <dc:type rdf:resource="http://purl.org/dc/dcmitype/StillImage"/>
    <dc:date>2026-03-15T19:08:52.134412</dc:date>
    <dc:format>image/svg+xml</dc:format>
    <dc:creator>
     <cc:Agent>
      <dc:title>Matplotlib v3.10.6, https://matplotlib.org/</dc:title>
     </cc:Agent>
    </dc:creator>
   </cc:Work>
  </rdf:RDF>
 </metadata>
 <defs>
  <style type="text/css">*{stroke-linejoin: round; stroke-linecap: butt}</style>
 </defs>
 <g id="figure_1">
  <g id="patch_1">
   <path d="M 0 259.709375 
L 205.349375 259.709375 
L 205.349375 0 
L 0 0 
z
" style="fill: #ffffff"/>
  </g>
  <g id="axes_1">
   <g id="patch_2">
    <path d="M 30.749375 228.96 
L 198.149375 228.96 
L 198.149375 7.2 
L 30.749375 7.2 
z
" style="fill: #ffffff"/>
   </g>
   <g id="patch_3">
    <path d="M 30.749375 17.28 
L 198.149375 17.28 
L 198.149375 75.038323 
L 30.749375 75.038323 
z
" clip-path="url(#paa4e2ff15b)" style="fill: #808080; opacity: 0.3; stroke: #808080; stroke-linejoin: miter"/>
   </g>
   <g id="patch_4">
    <path d="M 30.749375 75.038323 
L 198.149375 75.038323 
L 198.149375 218.653613 
L 30.749375 218.653613 
z
" clip-path="url(#paa4e2ff15b)" style="fill: #1f77b4; opacity: 0.3; stroke: #1f77b4; stroke-linejoin: miter"/>
   </g>
   <g id="matplotlib.axis_1">
    <g id="text_1">
     <!-- Density [kg/m^3] -->
     <g transform="translate(52.157031 249.597812) scale(0.14 -0.14)">
      <defs>
       <path id="DejaVuSans-44" d="M 1259 4147 
L 1259 519 
L 2022 519 
Q 2988 519 3436 956 
Q 3884 1394 3884 2338 
Q 3884 3275 3436 3711 
Q 2988 4147 2022 4147 
L 1259 4147 
z
M 628 4666 
L 1925 4666 
Q 3281 4666 3915 4102 
Q 4550 3538 4550 2338 
Q 4550 1131 3912 565 
Q 3275 0 1925 0 
L 628 0 
L 628 4666 
z
" transform="scale(0.015625)"/>
       <path id="DejaVuSans-65" d="M 3597 1894 
L 3597 1613 
L 953 1613 
Q 991 1019 1311 708 
Q 1631 397 2203 397 
Q 2534 397 2845 478 
Q 3156 559 3463 722 
L 3463 178 
Q 3153 47 2828 -22 
Q 2503 -91 2169 -91 
Q 1331 -91 842 396 
Q 353 884 353 1716 
Q 353 2575 817 3079 
Q 1281 3584 2069 3584 
Q 2775 3584 3186 3129 
Q 3597 2675 3597 1894 
z
M 3022 2063 
Q 3016 2534 2758 2815 
Q 2500 3097 2075 3097 
Q 1594 3097 1305 2825 
Q 1016 2553 972 2059 
L 3022 2063 
z
" transform="scale(0.015625)"/>
       <path id="DejaVuSans-6e" d="M 3513 2113 
L 3513 0 
L 2938 0 
L 2938 2094 
Q 2938 2591 2744 2837 
Q 2550 3084 2163 3084 
Q 1697 3084 1428 2787 
Q 1159 2491 1159 1978 
L 1159 0 
L 581 0 
L 581 3500 
L 1159 3500 
L 1159 2956 
Q 1366 3272 1645 3428 
Q 1925 3584 2291 3584 
Q 2894 3584 3203 3211 
Q 3513 2838 3513 2113 
z
" transform="scale(0.015625)"/>
       <path id="DejaVuSans-73" d="M 2834 3397 
L 2834 2853 
Q 2591 2978 2328 3040 
Q 2066 3103 1784 3103 
Q 1356 3103 1142 2972 
Q 928 2841 928 2578 
Q 928 2378 1081 2264 
Q 1234 2150 1697 2047 
L 1894 2003 
Q 2506 1872 2764 1633 
Q 3022 1394 3022 966 
Q 3022 478 2636 193 
Q 2250 -91 1575 -91 
Q 1294 -91 989 -36 
Q 684 19 347 128 
L 347 722 
Q 666 556 975 473 
Q 1284 391 1588 391 
Q 1994 391 2212 530 
Q 2431 669 2431 922 
Q 2431 1156 2273 1281 
Q 2116 1406 1581 1522 
L 1381 1569 
Q 847 1681 609 1914 
Q 372 2147 372 2553 
Q 372 3047 722 3315 
Q 1072 3584 1716 3584 
Q 2034 3584 2315 3537 
Q 2597 3491 2834 3397 
z
" transform="scale(0.015625)"/>
       <path id="DejaVuSans-69" d="M 603 3500 
L 1178 3500 
L 1178 0 
L 603 0 
L 603 3500 
z
M 603 4863 
L 1178 4863 
L 1178 4134 
L 603 4134 
L 603 4863 
z
" transform="scale(0.015625)"/>
       <path id="DejaVuSans-74" d="M 1172 4494 
L 1172 3500 
L 2356 3500 
L 2356 3053 
L 1172 3053 
L 1172 1153 
Q 1172 725 1289 603 
Q 1406 481 1766 481 
L 2356 481 
L 2356 0 
L 1766 0 
Q 1100 0 847 248 
Q 594 497 594 1153 
L 594 3053 
L 172 3053 
L 172 3500 
L 594 3500 
L 594 4494 
L 1172 4494 
z
" transform="scale(0.015625)"/>
       <path id="DejaVuSans-79" d="M 2059 -325 
Q 1816 -950 1584 -1140 
Q 1353 -1331 966 -1331 
L 506 -1331 
L 506 -850 
L 844 -850 
Q 1081 -850 1212 -737 
Q 1344 -625 1503 -206 
L 1606 56 
L 191 3500 
L 800 3500 
L 1894 763 
L 2988 3500 
L 3597 3500 
L 2059 -325 
z
" transform="scale(0.015625)"/>
       <path id="DejaVuSans-20" transform="scale(0.015625)"/>
       <path id="DejaVuSans-5b" d="M 550 4863 
L 1875 4863 
L 1875 4416 
L 1125 4416 
L 1125 -397 
L 1875 -397 
L 1875 -844 
L 550 -844 
L 550 4863 
z
" transform="scale(0.015625)"/>
       <path id="DejaVuSans-6b" d="M 581 4863 
L 1159 4863 
L 1159 1991 
L 2875 3500 
L 3609 3500 
L 1753 1863 
L 3688 0 
L 2938 0 
L 1159 1709 
L 1159 0 
L 581 0 
L 581 4863 
z
" transform="scale(0.015625)"/>
       <path id="DejaVuSans-67" d="M 2906 1791 
Q 2906 2416 2648 2759 
Q 2391 3103 1925 3103 
Q 1463 3103 1205 2759 
Q 947 2416 947 1791 
Q 947 1169 1205 825 
Q 1463 481 1925 481 
Q 2391 481 2648 825 
Q 2906 1169 2906 1791 
z
M 3481 434 
Q 3481 -459 3084 -895 
Q 2688 -1331 1869 -1331 
Q 1566 -1331 1297 -1286 
Q 1028 -1241 775 -1147 
L 775 -588 
Q 1028 -725 1275 -790 
Q 1522 -856 1778 -856 
Q 2344 -856 2625 -561 
Q 2906 -266 2906 331 
L 2906 616 
Q 2728 306 2450 153 
Q 2172 0 1784 0 
Q 1141 0 747 490 
Q 353 981 353 1791 
Q 353 2603 747 3093 
Q 1141 3584 1784 3584 
Q 2172 3584 2450 3431 
Q 2728 3278 2906 2969 
L 2906 3500 
L 3481 3500 
L 3481 434 
z
" transform="scale(0.015625)"/>
       <path id="DejaVuSans-2f" d="M 1625 4666 
L 2156 4666 
L 531 -594 
L 0 -594 
L 1625 4666 
z
" transform="scale(0.015625)"/>
       <path id="DejaVuSans-6d" d="M 3328 2828 
Q 3544 3216 3844 3400 
Q 4144 3584 4550 3584 
Q 5097 3584 5394 3201 
Q 5691 2819 5691 2113 
L 5691 0 
L 5113 0 
L 5113 2094 
Q 5113 2597 4934 2840 
Q 4756 3084 4391 3084 
Q 3944 3084 3684 2787 
Q 3425 2491 3425 1978 
L 3425 0 
L 2847 0 
L 2847 2094 
Q 2847 2600 2669 2842 
Q 2491 3084 2119 3084 
Q 1678 3084 1418 2786 
Q 1159 2488 1159 1978 
L 1159 0 
L 581 0 
L 581 3500 
L 1159 3500 
L 1159 2956 
Q 1356 3278 1631 3431 
Q 1906 3584 2284 3584 
Q 2666 3584 2933 3390 
Q 3200 3197 3328 2828 
z
" transform="scale(0.015625)"/>
       <path id="DejaVuSans-5e" d="M 2988 4666 
L 4684 2925 
L 4056 2925 
L 2681 4159 
L 1306 2925 
L 678 2925 
L 2375 4666 
L 2988 4666 
z
" transform="scale(0.015625)"/>
       <path id="DejaVuSans-33" d="M 2597 2516 
Q 3050 2419 3304 2112 
Q 3559 1806 3559 1356 
Q 3559 666 3084 287 
Q 2609 -91 1734 -91 
Q 1441 -91 1130 -33 
Q 819 25 488 141 
L 488 750 
Q 750 597 1062 519 
Q 1375 441 1716 441 
Q 2309 441 2620 675 
Q 2931 909 2931 1356 
Q 2931 1769 2642 2001 
Q 2353 2234 1838 2234 
L 1294 2234 
L 1294 2753 
L 1863 2753 
Q 2328 2753 2575 2939 
Q 2822 3125 2822 3475 
Q 2822 3834 2567 4026 
Q 2313 4219 1838 4219 
Q 1578 4219 1281 4162 
Q 984 4106 628 3988 
L 628 4550 
Q 988 4650 1302 4700 
Q 1616 4750 1894 4750 
Q 2613 4750 3031 4423 
Q 3450 4097 3450 3541 
Q 3450 3153 3228 2886 
Q 3006 2619 2597 2516 
z
" transform="scale(0.015625)"/>
       <path id="DejaVuSans-5d" d="M 1947 4863 
L 1947 -844 
L 622 -844 
L 622 -397 
L 1369 -397 
L 1369 4416 
L 622 4416 
L 622 4863 
L 1947 4863 
z
" transform="scale(0.015625)"/>
      </defs>
      <use xlink:href="#DejaVuSans-44"/>
      <use xlink:href="#DejaVuSans-65" transform="translate(77.001953 0)"/>
      <use xlink:href="#DejaVuSans-6e" transform="translate(138.525391 0)"/>
      <use xlink:href="#DejaVuSans-73" transform="translate(201.904297 0)"/>
      <use xlink:href="#DejaVuSans-69" transform="translate(254.003906 0)"/>
      <use xlink:href="#DejaVuSans-74" transform="translate(281.787109 0)"/>
      <use xlink:href="#DejaVuSans-79" transform="translate(320.996094 0)"/>
      <use xlink:href="#DejaVuSans-20" transform="translate(380.175781 0)"/>
      <use xlink:href="#DejaVuSans-5b" transform="translate(411.962891 0)"/>
      <use xlink:href="#DejaVuSans-6b" transform="translate(450.976562 0)"/>
      <use xlink:href="#DejaVuSans-67" transform="translate(508.886719 0)"/>
      <use xlink:href="#DejaVuSans-2f" transform="translate(572.363281 0)"/>
      <use xlink:href="#DejaVuSans-6d" transform="translate(606.054688 0)"/>
      <use xlink:href="#DejaVuSans-5e" transform="translate(703.466797 0)"/>
      <use xlink:href="#DejaVuSans-33" transform="translate(787.255859 0)"/>
      <use xlink:href="#DejaVuSans-5d" transform="translate(850.878906 0)"/>
     </g>
    </g>
   </g>
   <g id="matplotlib.axis_2">
    <g id="text_2">
     <!-- Depth [m] -->
     <g transform="translate(17.837813 153.906875) rotate(-90) scale(0.14 -0.14)">
      <defs>
       <path id="DejaVuSans-70" d="M 1159 525 
L 1159 -1331 
L 581 -1331 
L 581 3500 
L 1159 3500 
L 1159 2969 
Q 1341 3281 1617 3432 
Q 1894 3584 2278 3584 
Q 2916 3584 3314 3078 
Q 3713 2572 3713 1747 
Q 3713 922 3314 415 
Q 2916 -91 2278 -91 
Q 1894 -91 1617 61 
Q 1341 213 1159 525 
z
M 3116 1747 
Q 3116 2381 2855 2742 
Q 2594 3103 2138 3103 
Q 1681 3103 1420 2742 
Q 1159 2381 1159 1747 
Q 1159 1113 1420 752 
Q 1681 391 2138 391 
Q 2594 391 2855 752 
Q 3116 1113 3116 1747 
z
" transform="scale(0.015625)"/>
       <path id="DejaVuSans-68" d="M 3513 2113 
L 3513 0 
L 2938 0 
L 2938 2094 
Q 2938 2591 2744 2837 
Q 2550 3084 2163 3084 
Q 1697 3084 1428 2787 
Q 1159 2491 1159 1978 
L 1159 0 
L 581 0 
L 581 4863 
L 1159 4863 
L 1159 2956 
Q 1366 3272 1645 3428 
Q 1925 3584 2291 3584 
Q 2894 3584 3203 3211 
Q 3513 2838 3513 2113 
z
" transform="scale(0.015625)"/>
      </defs>
      <use xlink:href="#DejaVuSans-44"/>
      <use xlink:href="#DejaVuSans-65" transform="translate(77.001953 0)"/>
      <use xlink:href="#DejaVuSans-70" transform="translate(138.525391 0)"/>
      <use xlink:href="#DejaVuSans-74" transform="translate(202.001953 0)"/>
      <use xlink:href="#DejaVuSans-68" transform="translate(241.210938 0)"/>
      <use xlink:href="#DejaVuSans-20" transform="translate(304.589844 0)"/>
      <use xlink:href="#DejaVuSans-5b" transform="translate(336.376953 0)"/>
      <use xlink:href="#DejaVuSans-6d" transform="translate(375.390625 0)"/>
      <use xlink:href="#DejaVuSans-5d" transform="translate(472.802734 0)"/>
     </g>
    </g>
   </g>
   <g id="line2d_1">
    <path d="M 38.385074 17.323078 
L 38.683642 23.299821 
L 38.779341 23.657723 
L 38.923155 25.184492 
L 39.128305 26.241486 
L 39.285997 26.705692 
L 39.588437 28.059159 
L 39.780291 29.642118 
L 39.837999 30.005749 
L 39.867646 30.257504 
L 39.965931 30.587529 
L 40.089869 31.49382 
L 40.11694 31.812572 
L 40.28828 32.864282 
L 40.456624 33.407004 
L 40.471263 33.597301 
L 40.519669 33.977641 
L 40.651506 34.626764 
L 40.786634 35.947129 
L 40.80412 36.210183 
L 40.828166 38.174303 
L 40.883675 38.375772 
L 40.858532 38.677936 
L 40.896036 39.349496 
L 40.930709 40.68705 
L 40.868577 41.117995 
L 40.852568 43.065684 
L 40.841668 43.323168 
L 40.787656 45.209589 
L 40.802259 45.825293 
L 40.77967 46.03806 
L 40.80799 47.140885 
L 40.765344 47.353493 
L 40.490934 50.875055 
L 40.448228 51.09912 
L 40.404785 52.868412 
L 40.535396 55.382786 
L 40.697181 56.155716 
L 40.909979 58.513564 
L 40.992344 58.883175 
L 41.801945 66.025509 
L 41.963362 67.073116 
L 42.014398 67.851854 
L 42.087945 68.160023 
L 42.296731 68.894048 
L 42.302082 69.53832 
L 42.332702 69.829857 
L 42.355686 70.261201 
L 41.866642 71.729325 
L 42.024173 72.463349 
L 42.082618 72.676433 
L 42.629359 73.70192 
L 43.542556 74.77228 
L 45.010751 75.596137 
L 46.700196 76.358314 
L 47.745186 76.761818 
L 48.768945 77.114859 
L 58.881804 79.805231 
L 63.327545 80.741268 
L 67.941558 81.710808 
L 76.50521 83.370048 
L 78.37217 83.756809 
L 84.83839 85.197295 
L 86.14092 85.460821 
L 87.625765 85.701894 
L 98.595477 88.426623 
L 100.948932 89.357351 
L 101.3598 89.564593 
L 102.003036 89.973873 
L 102.746623 90.388988 
L 103.861382 91.033689 
L 104.781399 91.656152 
L 105.795536 92.267254 
L 107.490168 93.26545 
L 107.962042 93.568046 
L 109.47445 94.308431 
L 110.360659 94.745721 
L 110.741497 94.95323 
L 111.271445 95.457992 
L 111.788483 95.990767 
L 112.48754 96.517816 
L 112.756969 96.843072 
L 114.457476 98.284497 
L 115.20056 98.968599 
L 115.518799 99.316294 
L 116.586015 100.281088 
L 116.828043 100.527751 
L 117.279874 100.987522 
L 119.947238 104.005345 
L 120.258404 104.392479 
L 120.51383 104.695181 
L 120.74868 104.908548 
L 121.151596 105.334864 
L 122.202889 106.518492 
L 126.499101 110.372192 
L 126.862898 110.72575 
L 127.471848 111.241835 
L 127.635637 111.421337 
L 132.840779 115.74717 
L 134.097397 117.306859 
L 134.887105 118.053338 
L 138.56235 122.396491 
L 138.816267 122.755654 
L 139.049489 123.030636 
L 142.366686 126.526896 
L 142.770993 126.880491 
L 143.694838 127.828916 
L 144.07917 128.289121 
L 144.427181 128.676273 
L 144.83427 129.046894 
L 145.938452 129.944727 
L 146.868977 130.668786 
L 149.587803 132.964362 
L 150.288534 133.446995 
L 152.707175 135.2937 
L 153.240744 135.709034 
L 154.213297 136.326617 
L 154.816761 136.736377 
L 155.414488 137.100924 
L 156.383504 137.825274 
L 157.806564 138.869169 
L 158.360917 139.251103 
L 159.017135 139.806616 
L 160.069669 140.581379 
L 160.485227 140.951834 
L 160.917278 141.33932 
L 161.101774 141.597415 
L 162.032418 142.596593 
L 162.826147 143.612809 
L 163.647333 144.668168 
L 164.37013 145.521424 
L 164.528592 145.712381 
L 164.611739 145.89761 
L 165.206289 146.678172 
L 165.586838 147.244972 
L 166.730663 148.906947 
L 166.964509 149.322444 
L 167.03063 149.535677 
L 167.129548 149.766128 
L 167.147411 150.164555 
L 167.306566 150.613618 
L 167.437353 150.99554 
L 167.468517 151.259373 
L 167.738806 152.090347 
L 168.074288 152.893154 
L 168.423096 153.482731 
L 169.628526 155.745435 
L 170.208361 156.739369 
L 170.465243 157.182875 
L 170.584387 157.418705 
L 170.810142 157.946554 
L 170.854816 158.103775 
L 171.827571 159.956619 
L 171.880272 160.130906 
L 172.110315 160.568624 
L 172.36061 161.023614 
L 172.880282 161.916503 
L 173.014041 162.152335 
L 173.052879 162.449914 
L 175.782406 167.178157 
L 176.013753 168.014656 
L 176.260907 168.772758 
L 176.282214 169.019942 
L 176.364577 169.626554 
L 176.440838 170.159749 
L 176.45485 170.3227 
L 176.770158 171.41233 
L 176.819841 171.687471 
L 177.071509 172.383617 
L 177.357965 173.3722 
L 177.449546 173.675284 
L 177.510926 174.310122 
L 177.718821 175.326656 
L 177.753194 175.961121 
L 177.844023 176.618104 
L 177.92757 176.921473 
L 177.977721 177.236075 
L 178.079197 177.601125 
L 178.594606 179.29143 
L 178.622778 179.414849 
L 179.062321 180.470674 
L 179.535413 181.588243 
L 179.700106 182.0599 
L 179.862207 182.363441 
L 179.989964 182.739554 
L 180.700069 183.986326 
L 180.839394 184.227958 
L 181.842883 186.339763 
L 181.998865 186.609097 
L 182.388584 187.339428 
L 182.557512 187.631427 
L 183.008273 188.282897 
L 183.237313 188.760285 
L 183.291083 188.945427 
L 183.468734 189.406194 
L 183.681226 189.838306 
L 183.848856 190.164289 
L 184.141013 190.540385 
L 184.220641 190.787761 
L 184.256732 191.04046 
L 184.39481 191.444803 
L 184.683552 191.79274 
L 184.796948 192.073606 
L 184.897095 192.287244 
L 185.268082 193.511344 
L 185.314612 193.764183 
L 185.476063 194.275391 
L 185.533715 194.657061 
L 185.705391 195.022107 
L 185.762169 195.454874 
L 185.830228 195.673591 
L 185.903456 195.904017 
L 186.064306 196.392797 
L 186.244665 197.201502 
L 186.250685 197.656193 
L 186.382742 198.004631 
L 186.44187 198.352968 
L 186.697143 199.678127 
L 186.738401 199.880384 
L 186.943836 201.312672 
L 186.88426 201.947197 
L 186.857108 202.155023 
L 186.942555 203.845482 
L 186.927481 203.991561 
L 187.054039 204.42392 
L 187.434321 208.198211 
L 187.499219 208.405875 
L 188.715049 214.100796 
L 188.851229 214.594894 
L 188.917667 214.836457 
L 189.061726 215.184638 
L 189.237154 215.718484 
L 189.483591 216.482045 
L 189.781158 217.139098 
L 190.038116 217.858181 
L 190.158484 218.318426 
L 190.47971 218.857566 
L 190.478503 218.857847 
L 190.540284 218.88 
L 190.540284 218.88 
" clip-path="url(#paa4e2ff15b)" style="fill: none; stroke: #800080; stroke-width: 2; stroke-linecap: square"/>
   </g>
   <g id="patch_5">
    <path d="M 30.749375 228.96 
L 30.749375 7.2 
" style="fill: none; stroke: #000000; stroke-width: 0.8; stroke-linejoin: miter; stroke-linecap: square"/>
   </g>
   <g id="patch_6">
    <path d="M 30.749375 228.96 
L 198.149375 228.96 
" style="fill: none; stroke: #000000; stroke-width: 0.8; stroke-linejoin: miter; stroke-linecap: square"/>
   </g>
  </g>
 </g>
 <defs>
  <clipPath id="paa4e2ff15b">
   <rect x="30.749375" y="7.2" width="167.4" height="221.76"/>
  </clipPath>
 </defs>
</svg>
