<?xml version="1.0" encoding="utf-8" standalone="no"?>
<!DOCTYPE svg PUBLIC "-//W3C//DTD SVG 1.1//EN"
  "http://www.w3.org/Graphics/SVG/1.1/DTD/svg11.dtd">
<svg xmlns:xlink="http://www.w3.org/1999/xlink" width="352.669375pt" height="136.669375pt" viewBox="0 0 352.669375 136.669375" xmlns="http://www.w3.org/2000/svg" version="1.1">
 <metadata>
  <rdf:RDF xmlns:dc="http://purl.org/dc/elements/1.1/" xmlns:cc="http://creativecommons.org/ns#" xmlns:rdf="http://www.w3.org/1999/02/22-rdf-syntax-ns#">
   <cc:Work>
    <dc:type rdf:resource="http://purl.org/dc/dcmitype/StillImage"/>
    <dc:date>2026-03-15T18:34:28.439544</dc:date>
    <dc:format>image/svg+xml</dc:format>
    <dc:creator>
     <cc:Agent>
      <dc:title>Matplotlib v3.10.6, https://matplotlib.org/</dc:title>
     </cc:Agent>
    </dc:creator>
   </cc:Work>
  </rdf:RDF>
 </metadata>
 <defs>
  <style type="text/css">*{stroke-linejoin: round; stroke-linecap: butt}</style>
 </defs>
 <g id="figure_1">
  <g id="patch_1">
   <path d="M 0 136.669375 
L 352.669375 136.669375 
L 352.669375 0 
L 0 0 
z
" style="fill: #ffffff"/>
  </g>
  <g id="axes_1">
   <g id="patch_2">
    <path d="M 24.749375 111.92 
L 126.269375 111.92 
L 126.269375 7.2 
L 24.749375 7.2 
z
" style="fill: #ffffff"/>
   </g>
   <g id="patch_3">
    <path d="M 63.607732 111.92 
L 87.411018 111.92 
L 87.411018 7.2 
L 63.607732 7.2 
z
" clip-path="url(#p89bbea056a)" style="fill: #db7093; opacity: 0.7; stroke: #db7093; stroke-linejoin: miter"/>
   </g>
   <g id="matplotlib.axis_1">
    <g id="text_1">
     <!-- Month -->
     <g transform="translate(53.569844 126.557812) scale(0.14 -0.14)">
      <defs>
       <path id="DejaVuSans-4d" d="M 628 4666 
L 1569 4666 
L 2759 1491 
L 3956 4666 
L 4897 4666 
L 4897 0 
L 4281 0 
L 4281 4097 
L 3078 897 
L 2444 897 
L 1241 4097 
L 1241 0 
L 628 0 
L 628 4666 
z
" transform="scale(0.015625)"/>
       <path id="DejaVuSans-6f" d="M 1959 3097 
Q 1497 3097 1228 2736 
Q 959 2375 959 1747 
Q 959 1119 1226 758 
Q 1494 397 1959 397 
Q 2419 397 2687 759 
Q 2956 1122 2956 1747 
Q 2956 2369 2687 2733 
Q 2419 3097 1959 3097 
z
M 1959 3584 
Q 2709 3584 3137 3096 
Q 3566 2609 3566 1747 
Q 3566 888 3137 398 
Q 2709 -91 1959 -91 
Q 1206 -91 779 398 
Q 353 888 353 1747 
Q 353 2609 779 3096 
Q 1206 3584 1959 3584 
z
" transform="scale(0.015625)"/>
       <path id="DejaVuSans-6e" d="M 3513 2113 
L 3513 0 
L 2938 0 
L 2938 2094 
Q 2938 2591 2744 2837 
Q 2550 3084 2163 3084 
Q 1697 3084 1428 2787 
Q 1159 2491 1159 1978 
L 1159 0 
L 581 0 
L 581 3500 
L 1159 3500 
L 1159 2956 
Q 1366 3272 1645 3428 
Q 1925 3584 2291 3584 
Q 2894 3584 3203 3211 
Q 3513 2838 3513 2113 
z
" transform="scale(0.015625)"/>
       <path id="DejaVuSans-74" d="M 1172 4494 
L 1172 3500 
L 2356 3500 
L 2356 3053 
L 1172 3053 
L 1172 1153 
Q 1172 725 1289 603 
Q 1406 481 1766 481 
L 2356 481 
L 2356 0 
L 1766 0 
Q 1100 0 847 248 
Q 594 497 594 1153 
L 594 3053 
L 172 3053 
L 172 3500 
L 594 3500 
L 594 4494 
L 1172 4494 
z
" transform="scale(0.015625)"/>
       <path id="DejaVuSans-68" d="M 3513 2113 
L 3513 0 
L 2938 0 
L 2938 2094 
Q 2938 2591 2744 2837 
Q 2550 3084 2163 3084 
Q 1697 3084 1428 2787 
Q 1159 2491 1159 1978 
L 1159 0 
L 581 0 
L 581 4863 
L 1159 4863 
L 1159 2956 
Q 1366 3272 1645 3428 
Q 1925 3584 2291 3584 
Q 2894 3584 3203 3211 
Q 3513 2838 3513 2113 
z
" transform="scale(0.015625)"/>
      </defs>
      <use xlink:href="#DejaVuSans-4d"/>
      <use xlink:href="#DejaVuSans-6f" transform="translate(86.279297 0)"/>
      <use xlink:href="#DejaVuSans-6e" transform="translate(147.460938 0)"/>
      <use xlink:href="#DejaVuSans-74" transform="translate(210.839844 0)"/>
      <use xlink:href="#DejaVuSans-68" transform="translate(250.048828 0)"/>
     </g>
    </g>
   </g>
   <g id="matplotlib.axis_2">
    <g id="text_2">
     <!-- Stratification -->
     <g transform="translate(17.837813 104.560156) rotate(-90) scale(0.14 -0.14)">
      <defs>
       <path id="DejaVuSans-53" d="M 3425 4513 
L 3425 3897 
Q 3066 4069 2747 4153 
Q 2428 4238 2131 4238 
Q 1616 4238 1336 4038 
Q 1056 3838 1056 3469 
Q 1056 3159 1242 3001 
Q 1428 2844 1947 2747 
L 2328 2669 
Q 3034 2534 3370 2195 
Q 3706 1856 3706 1288 
Q 3706 609 3251 259 
Q 2797 -91 1919 -91 
Q 1588 -91 1214 -16 
Q 841 59 441 206 
L 441 856 
Q 825 641 1194 531 
Q 1563 422 1919 422 
Q 2459 422 2753 634 
Q 3047 847 3047 1241 
Q 3047 1584 2836 1778 
Q 2625 1972 2144 2069 
L 1759 2144 
Q 1053 2284 737 2584 
Q 422 2884 422 3419 
Q 422 4038 858 4394 
Q 1294 4750 2059 4750 
Q 2388 4750 2728 4690 
Q 3069 4631 3425 4513 
z
" transform="scale(0.015625)"/>
       <path id="DejaVuSans-72" d="M 2631 2963 
Q 2534 3019 2420 3045 
Q 2306 3072 2169 3072 
Q 1681 3072 1420 2755 
Q 1159 2438 1159 1844 
L 1159 0 
L 581 0 
L 581 3500 
L 1159 3500 
L 1159 2956 
Q 1341 3275 1631 3429 
Q 1922 3584 2338 3584 
Q 2397 3584 2469 3576 
Q 2541 3569 2628 3553 
L 2631 2963 
z
" transform="scale(0.015625)"/>
       <path id="DejaVuSans-61" d="M 2194 1759 
Q 1497 1759 1228 1600 
Q 959 1441 959 1056 
Q 959 750 1161 570 
Q 1363 391 1709 391 
Q 2188 391 2477 730 
Q 2766 1069 2766 1631 
L 2766 1759 
L 2194 1759 
z
M 3341 1997 
L 3341 0 
L 2766 0 
L 2766 531 
Q 2569 213 2275 61 
Q 1981 -91 1556 -91 
Q 1019 -91 701 211 
Q 384 513 384 1019 
Q 384 1609 779 1909 
Q 1175 2209 1959 2209 
L 2766 2209 
L 2766 2266 
Q 2766 2663 2505 2880 
Q 2244 3097 1772 3097 
Q 1472 3097 1187 3025 
Q 903 2953 641 2809 
L 641 3341 
Q 956 3463 1253 3523 
Q 1550 3584 1831 3584 
Q 2591 3584 2966 3190 
Q 3341 2797 3341 1997 
z
" transform="scale(0.015625)"/>
       <path id="DejaVuSans-69" d="M 603 3500 
L 1178 3500 
L 1178 0 
L 603 0 
L 603 3500 
z
M 603 4863 
L 1178 4863 
L 1178 4134 
L 603 4134 
L 603 4863 
z
" transform="scale(0.015625)"/>
       <path id="DejaVuSans-66" d="M 2375 4863 
L 2375 4384 
L 1825 4384 
Q 1516 4384 1395 4259 
Q 1275 4134 1275 3809 
L 1275 3500 
L 2222 3500 
L 2222 3053 
L 1275 3053 
L 1275 0 
L 697 0 
L 697 3053 
L 147 3053 
L 147 3500 
L 697 3500 
L 697 3744 
Q 697 4328 969 4595 
Q 1241 4863 1831 4863 
L 2375 4863 
z
" transform="scale(0.015625)"/>
       <path id="DejaVuSans-63" d="M 3122 3366 
L 3122 2828 
Q 2878 2963 2633 3030 
Q 2388 3097 2138 3097 
Q 1578 3097 1268 2742 
Q 959 2388 959 1747 
Q 959 1106 1268 751 
Q 1578 397 2138 397 
Q 2388 397 2633 464 
Q 2878 531 3122 666 
L 3122 134 
Q 2881 22 2623 -34 
Q 2366 -91 2075 -91 
Q 1284 -91 818 406 
Q 353 903 353 1747 
Q 353 2603 823 3093 
Q 1294 3584 2113 3584 
Q 2378 3584 2631 3529 
Q 2884 3475 3122 3366 
z
" transform="scale(0.015625)"/>
      </defs>
      <use xlink:href="#DejaVuSans-53"/>
      <use xlink:href="#DejaVuSans-74" transform="translate(63.476562 0)"/>
      <use xlink:href="#DejaVuSans-72" transform="translate(102.685547 0)"/>
      <use xlink:href="#DejaVuSans-61" transform="translate(143.798828 0)"/>
      <use xlink:href="#DejaVuSans-74" transform="translate(205.078125 0)"/>
      <use xlink:href="#DejaVuSans-69" transform="translate(244.287109 0)"/>
      <use xlink:href="#DejaVuSans-66" transform="translate(272.070312 0)"/>
      <use xlink:href="#DejaVuSans-69" transform="translate(307.275391 0)"/>
      <use xlink:href="#DejaVuSans-63" transform="translate(335.058594 0)"/>
      <use xlink:href="#DejaVuSans-61" transform="translate(390.039062 0)"/>
      <use xlink:href="#DejaVuSans-74" transform="translate(451.318359 0)"/>
      <use xlink:href="#DejaVuSans-69" transform="translate(490.527344 0)"/>
      <use xlink:href="#DejaVuSans-6f" transform="translate(518.310547 0)"/>
      <use xlink:href="#DejaVuSans-6e" transform="translate(579.492188 0)"/>
     </g>
    </g>
   </g>
   <g id="line2d_1">
    <path d="M 24.749375 77.013333 
L 41.025127 76.90446 
L 44.687171 76.665666 
L 47.33198 76.271986 
L 49.366449 75.745981 
L 51.197471 75.029249 
L 52.825046 74.137735 
L 54.249175 73.117585 
L 55.673303 71.838388 
L 57.097431 70.273127 
L 58.725006 68.113738 
L 60.352581 65.560733 
L 62.183603 62.26352 
L 64.624966 57.365276 
L 68.693904 49.148189 
L 70.321479 46.377947 
L 71.542161 44.671142 
L 72.762842 43.359342 
L 73.780076 42.607711 
L 74.593864 42.246573 
L 75.407652 42.106667 
L 76.221439 42.190678 
L 77.035227 42.496993 
L 77.849014 43.019749 
L 78.866249 43.962084 
L 79.883483 45.199323 
L 81.104165 47.023135 
L 82.73174 49.909756 
L 84.969656 54.399971 
L 89.24204 63.030694 
L 91.073062 66.234613 
L 92.700638 68.691049 
L 94.328213 70.750734 
L 95.955788 72.420262 
L 97.379916 73.584668 
L 99.007491 74.61704 
L 100.635066 75.381077 
L 102.466088 75.98569 
L 104.500557 76.421797 
L 107.145367 76.741672 
L 110.807411 76.930709 
L 117.521159 77.006792 
L 126.269375 77.013333 
L 126.269375 77.013333 
" clip-path="url(#p89bbea056a)" style="fill: none; stroke: #000000; stroke-width: 2; stroke-linecap: square"/>
   </g>
   <g id="patch_4">
    <path d="M 24.749375 111.92 
L 24.749375 7.2 
" style="fill: none; stroke: #000000; stroke-width: 2; stroke-linejoin: miter; stroke-linecap: square"/>
   </g>
   <g id="patch_5">
    <path d="M 24.749375 111.92 
L 126.269375 111.92 
" style="fill: none; stroke: #000000; stroke-width: 2; stroke-linejoin: miter; stroke-linecap: square"/>
   </g>
  </g>
  <g id="axes_2">
   <g id="patch_6">
    <path d="M 243.949375 111.92 
L 345.469375 111.92 
L 345.469375 7.2 
L 243.949375 7.2 
z
" style="fill: #ffffff"/>
   </g>
   <g id="patch_7">
    <path d="M 271.618153 111.92 
L 317.800597 111.92 
L 317.800597 7.2 
L 271.618153 7.2 
z
" clip-path="url(#p83aa2cd08e)" style="fill: #db7093; opacity: 0.7; stroke: #db7093; stroke-linejoin: miter"/>
   </g>
   <g id="matplotlib.axis_3">
    <g id="text_3">
     <!-- Month -->
     <g transform="translate(272.769844 126.557812) scale(0.14 -0.14)">
      <use xlink:href="#DejaVuSans-4d"/>
      <use xlink:href="#DejaVuSans-6f" transform="translate(86.279297 0)"/>
      <use xlink:href="#DejaVuSans-6e" transform="translate(147.460938 0)"/>
      <use xlink:href="#DejaVuSans-74" transform="translate(210.839844 0)"/>
      <use xlink:href="#DejaVuSans-68" transform="translate(250.048828 0)"/>
     </g>
    </g>
   </g>
   <g id="matplotlib.axis_4">
    <g id="text_4">
     <!-- Stratification -->
     <g transform="translate(237.037812 104.560156) rotate(-90) scale(0.14 -0.14)">
      <use xlink:href="#DejaVuSans-53"/>
      <use xlink:href="#DejaVuSans-74" transform="translate(63.476562 0)"/>
      <use xlink:href="#DejaVuSans-72" transform="translate(102.685547 0)"/>
      <use xlink:href="#DejaVuSans-61" transform="translate(143.798828 0)"/>
      <use xlink:href="#DejaVuSans-74" transform="translate(205.078125 0)"/>
      <use xlink:href="#DejaVuSans-69" transform="translate(244.287109 0)"/>
      <use xlink:href="#DejaVuSans-66" transform="translate(272.070312 0)"/>
      <use xlink:href="#DejaVuSans-69" transform="translate(307.275391 0)"/>
      <use xlink:href="#DejaVuSans-63" transform="translate(335.058594 0)"/>
      <use xlink:href="#DejaVuSans-61" transform="translate(390.039062 0)"/>
      <use xlink:href="#DejaVuSans-74" transform="translate(451.318359 0)"/>
      <use xlink:href="#DejaVuSans-69" transform="translate(490.527344 0)"/>
      <use xlink:href="#DejaVuSans-6f" transform="translate(518.310547 0)"/>
      <use xlink:href="#DejaVuSans-6e" transform="translate(579.492188 0)"/>
     </g>
    </g>
   </g>
   <g id="line2d_2">
    <path d="M 243.949375 77.013333 
L 247.204525 76.253015 
L 250.052782 75.366587 
L 252.697591 74.324658 
L 255.342401 73.044164 
L 257.987211 71.503461 
L 260.63202 69.689624 
L 263.27683 67.60183 
L 266.125086 65.063959 
L 269.380237 61.849056 
L 273.856068 57.071268 
L 279.959475 50.574069 
L 282.807732 47.869578 
L 285.249094 45.861858 
L 287.283563 44.468211 
L 289.114585 43.46635 
L 290.945607 42.728157 
L 292.573183 42.307726 
L 294.200758 42.117662 
L 295.828333 42.161611 
L 297.455908 42.438729 
L 299.083483 42.943707 
L 300.711058 43.666941 
L 302.54208 44.724393 
L 304.576549 46.1728 
L 306.814465 48.05118 
L 309.459275 50.574069 
L 313.121319 54.414764 
L 321.462642 63.291678 
L 324.717792 66.368514 
L 327.566048 68.759584 
L 330.210858 70.700615 
L 332.855668 72.366429 
L 335.500477 73.764778 
L 338.145287 74.913704 
L 340.993543 75.900803 
L 344.045247 76.710563 
L 345.469375 77.013333 
L 345.469375 77.013333 
" clip-path="url(#p83aa2cd08e)" style="fill: none; stroke: #000000; stroke-width: 2; stroke-linecap: square"/>
   </g>
   <g id="patch_8">
    <path d="M 243.949375 111.92 
L 243.949375 7.2 
" style="fill: none; stroke: #000000; stroke-width: 2; stroke-linejoin: miter; stroke-linecap: square"/>
   </g>
   <g id="patch_9">
    <path d="M 243.949375 111.92 
L 345.469375 111.92 
" style="fill: none; stroke: #000000; stroke-width: 2; stroke-linejoin: miter; stroke-linecap: square"/>
   </g>
  </g>
 </g>
 <defs>
  <clipPath id="p89bbea056a">
   <rect x="24.749375" y="7.2" width="101.52" height="104.72"/>
  </clipPath>
  <clipPath id="p83aa2cd08e">
   <rect x="243.949375" y="7.2" width="101.52" height="104.72"/>
  </clipPath>
 </defs>
</svg>
