<?xml version="1.0" encoding="utf-8" standalone="no"?>
<!DOCTYPE svg PUBLIC "-//W3C//DTD SVG 1.1//EN"
  "http://www.w3.org/Graphics/SVG/1.1/DTD/svg11.dtd">
<svg xmlns:xlink="http://www.w3.org/1999/xlink" width="231.373138pt" height="278.323125pt" viewBox="0 0 231.373138 278.323125" xmlns="http://www.w3.org/2000/svg" version="1.1">
 <metadata>
  <rdf:RDF xmlns:dc="http://purl.org/dc/elements/1.1/" xmlns:cc="http://creativecommons.org/ns#" xmlns:rdf="http://www.w3.org/1999/02/22-rdf-syntax-ns#">
   <cc:Work>
    <dc:type rdf:resource="http://purl.org/dc/dcmitype/StillImage"/>
    <dc:date>2026-03-15T19:00:35.634754</dc:date>
    <dc:format>image/svg+xml</dc:format>
    <dc:creator>
     <cc:Agent>
      <dc:title>Matplotlib v3.10.6, https://matplotlib.org/</dc:title>
     </cc:Agent>
    </dc:creator>
   </cc:Work>
  </rdf:RDF>
 </metadata>
 <defs>
  <style type="text/css">*{stroke-linejoin: round; stroke-linecap: butt}</style>
 </defs>
 <g id="figure_1">
  <g id="patch_1">
   <path d="M 0 278.323125 
L 231.373138 278.323125 
L 231.373138 0 
L 0 0 
z
" style="fill: #ffffff"/>
  </g>
  <g id="axes_1">
   <g id="patch_2">
    <path d="M 53.019375 228.96 
L 220.419375 228.96 
L 220.419375 7.2 
L 53.019375 7.2 
z
" style="fill: #ffffff"/>
   </g>
   <g id="FillBetweenPolyCollection_1"/>
   <g id="FillBetweenPolyCollection_2"/>
   <g id="matplotlib.axis_1">
    <g id="xtick_1">
     <g id="line2d_1">
      <path d="M 58.547347 228.96 
L 58.547347 7.2 
" clip-path="url(#pabc0ad279b)" style="fill: none; stroke: #b0b0b0; stroke-width: 0.8; stroke-linecap: square"/>
     </g>
     <g id="line2d_2">
      <defs>
       <path id="md6cd2b582e" d="M 0 0 
L 0 3.5 
" style="stroke: #000000; stroke-width: 0.8"/>
      </defs>
      <g>
       <use xlink:href="#md6cd2b582e" x="58.547347" y="228.96" style="stroke: #000000; stroke-width: 0.8"/>
      </g>
     </g>
     <g id="text_1">
      <!-- 5.6 -->
      <g transform="translate(49.005472 245.078125) scale(0.12 -0.12)">
       <defs>
        <path id="DejaVuSans-35" d="M 691 4666 
L 3169 4666 
L 3169 4134 
L 1269 4134 
L 1269 2991 
Q 1406 3038 1543 3061 
Q 1681 3084 1819 3084 
Q 2600 3084 3056 2656 
Q 3513 2228 3513 1497 
Q 3513 744 3044 326 
Q 2575 -91 1722 -91 
Q 1428 -91 1123 -41 
Q 819 9 494 109 
L 494 744 
Q 775 591 1075 516 
Q 1375 441 1709 441 
Q 2250 441 2565 725 
Q 2881 1009 2881 1497 
Q 2881 1984 2565 2268 
Q 2250 2553 1709 2553 
Q 1456 2553 1204 2497 
Q 953 2441 691 2322 
L 691 4666 
z
" transform="scale(0.015625)"/>
        <path id="DejaVuSans-2e" d="M 684 794 
L 1344 794 
L 1344 0 
L 684 0 
L 684 794 
z
" transform="scale(0.015625)"/>
        <path id="DejaVuSans-36" d="M 2113 2584 
Q 1688 2584 1439 2293 
Q 1191 2003 1191 1497 
Q 1191 994 1439 701 
Q 1688 409 2113 409 
Q 2538 409 2786 701 
Q 3034 994 3034 1497 
Q 3034 2003 2786 2293 
Q 2538 2584 2113 2584 
z
M 3366 4563 
L 3366 3988 
Q 3128 4100 2886 4159 
Q 2644 4219 2406 4219 
Q 1781 4219 1451 3797 
Q 1122 3375 1075 2522 
Q 1259 2794 1537 2939 
Q 1816 3084 2150 3084 
Q 2853 3084 3261 2657 
Q 3669 2231 3669 1497 
Q 3669 778 3244 343 
Q 2819 -91 2113 -91 
Q 1303 -91 875 529 
Q 447 1150 447 2328 
Q 447 3434 972 4092 
Q 1497 4750 2381 4750 
Q 2619 4750 2861 4703 
Q 3103 4656 3366 4563 
z
" transform="scale(0.015625)"/>
       </defs>
       <use xlink:href="#DejaVuSans-35"/>
       <use xlink:href="#DejaVuSans-2e" transform="translate(63.623047 0)"/>
       <use xlink:href="#DejaVuSans-36" transform="translate(95.410156 0)"/>
      </g>
     </g>
    </g>
    <g id="xtick_2">
     <g id="line2d_3">
      <path d="M 110.575319 228.96 
L 110.575319 7.2 
" clip-path="url(#pabc0ad279b)" style="fill: none; stroke: #b0b0b0; stroke-width: 0.8; stroke-linecap: square"/>
     </g>
     <g id="line2d_4">
      <g>
       <use xlink:href="#md6cd2b582e" x="110.575319" y="228.96" style="stroke: #000000; stroke-width: 0.8"/>
      </g>
     </g>
     <g id="text_2">
      <!-- 5.7 -->
      <g transform="translate(101.033444 245.078125) scale(0.12 -0.12)">
       <defs>
        <path id="DejaVuSans-37" d="M 525 4666 
L 3525 4666 
L 3525 4397 
L 1831 0 
L 1172 0 
L 2766 4134 
L 525 4134 
L 525 4666 
z
" transform="scale(0.015625)"/>
       </defs>
       <use xlink:href="#DejaVuSans-35"/>
       <use xlink:href="#DejaVuSans-2e" transform="translate(63.623047 0)"/>
       <use xlink:href="#DejaVuSans-37" transform="translate(95.410156 0)"/>
      </g>
     </g>
    </g>
    <g id="xtick_3">
     <g id="line2d_5">
      <path d="M 162.603291 228.96 
L 162.603291 7.2 
" clip-path="url(#pabc0ad279b)" style="fill: none; stroke: #b0b0b0; stroke-width: 0.8; stroke-linecap: square"/>
     </g>
     <g id="line2d_6">
      <g>
       <use xlink:href="#md6cd2b582e" x="162.603291" y="228.96" style="stroke: #000000; stroke-width: 0.8"/>
      </g>
     </g>
     <g id="text_3">
      <!-- 5.8 -->
      <g transform="translate(153.061416 245.078125) scale(0.12 -0.12)">
       <defs>
        <path id="DejaVuSans-38" d="M 2034 2216 
Q 1584 2216 1326 1975 
Q 1069 1734 1069 1313 
Q 1069 891 1326 650 
Q 1584 409 2034 409 
Q 2484 409 2743 651 
Q 3003 894 3003 1313 
Q 3003 1734 2745 1975 
Q 2488 2216 2034 2216 
z
M 1403 2484 
Q 997 2584 770 2862 
Q 544 3141 544 3541 
Q 544 4100 942 4425 
Q 1341 4750 2034 4750 
Q 2731 4750 3128 4425 
Q 3525 4100 3525 3541 
Q 3525 3141 3298 2862 
Q 3072 2584 2669 2484 
Q 3125 2378 3379 2068 
Q 3634 1759 3634 1313 
Q 3634 634 3220 271 
Q 2806 -91 2034 -91 
Q 1263 -91 848 271 
Q 434 634 434 1313 
Q 434 1759 690 2068 
Q 947 2378 1403 2484 
z
M 1172 3481 
Q 1172 3119 1398 2916 
Q 1625 2713 2034 2713 
Q 2441 2713 2670 2916 
Q 2900 3119 2900 3481 
Q 2900 3844 2670 4047 
Q 2441 4250 2034 4250 
Q 1625 4250 1398 4047 
Q 1172 3844 1172 3481 
z
" transform="scale(0.015625)"/>
       </defs>
       <use xlink:href="#DejaVuSans-35"/>
       <use xlink:href="#DejaVuSans-2e" transform="translate(63.623047 0)"/>
       <use xlink:href="#DejaVuSans-38" transform="translate(95.410156 0)"/>
      </g>
     </g>
    </g>
    <g id="xtick_4">
     <g id="line2d_7">
      <path d="M 214.631263 228.96 
L 214.631263 7.2 
" clip-path="url(#pabc0ad279b)" style="fill: none; stroke: #b0b0b0; stroke-width: 0.8; stroke-linecap: square"/>
     </g>
     <g id="line2d_8">
      <g>
       <use xlink:href="#md6cd2b582e" x="214.631263" y="228.96" style="stroke: #000000; stroke-width: 0.8"/>
      </g>
     </g>
     <g id="text_4">
      <!-- 5.9 -->
      <g transform="translate(205.089388 245.078125) scale(0.12 -0.12)">
       <defs>
        <path id="DejaVuSans-39" d="M 703 97 
L 703 672 
Q 941 559 1184 500 
Q 1428 441 1663 441 
Q 2288 441 2617 861 
Q 2947 1281 2994 2138 
Q 2813 1869 2534 1725 
Q 2256 1581 1919 1581 
Q 1219 1581 811 2004 
Q 403 2428 403 3163 
Q 403 3881 828 4315 
Q 1253 4750 1959 4750 
Q 2769 4750 3195 4129 
Q 3622 3509 3622 2328 
Q 3622 1225 3098 567 
Q 2575 -91 1691 -91 
Q 1453 -91 1209 -44 
Q 966 3 703 97 
z
M 1959 2075 
Q 2384 2075 2632 2365 
Q 2881 2656 2881 3163 
Q 2881 3666 2632 3958 
Q 2384 4250 1959 4250 
Q 1534 4250 1286 3958 
Q 1038 3666 1038 3163 
Q 1038 2656 1286 2365 
Q 1534 2075 1959 2075 
z
" transform="scale(0.015625)"/>
       </defs>
       <use xlink:href="#DejaVuSans-35"/>
       <use xlink:href="#DejaVuSans-2e" transform="translate(63.623047 0)"/>
       <use xlink:href="#DejaVuSans-39" transform="translate(95.410156 0)"/>
      </g>
     </g>
    </g>
    <g id="text_5">
     <!-- Temperature [°C] -->
     <g transform="translate(76.307187 268.211563) scale(0.14 -0.14)">
      <defs>
       <path id="DejaVuSans-54" d="M -19 4666 
L 3928 4666 
L 3928 4134 
L 2272 4134 
L 2272 0 
L 1638 0 
L 1638 4134 
L -19 4134 
L -19 4666 
z
" transform="scale(0.015625)"/>
       <path id="DejaVuSans-65" d="M 3597 1894 
L 3597 1613 
L 953 1613 
Q 991 1019 1311 708 
Q 1631 397 2203 397 
Q 2534 397 2845 478 
Q 3156 559 3463 722 
L 3463 178 
Q 3153 47 2828 -22 
Q 2503 -91 2169 -91 
Q 1331 -91 842 396 
Q 353 884 353 1716 
Q 353 2575 817 3079 
Q 1281 3584 2069 3584 
Q 2775 3584 3186 3129 
Q 3597 2675 3597 1894 
z
M 3022 2063 
Q 3016 2534 2758 2815 
Q 2500 3097 2075 3097 
Q 1594 3097 1305 2825 
Q 1016 2553 972 2059 
L 3022 2063 
z
" transform="scale(0.015625)"/>
       <path id="DejaVuSans-6d" d="M 3328 2828 
Q 3544 3216 3844 3400 
Q 4144 3584 4550 3584 
Q 5097 3584 5394 3201 
Q 5691 2819 5691 2113 
L 5691 0 
L 5113 0 
L 5113 2094 
Q 5113 2597 4934 2840 
Q 4756 3084 4391 3084 
Q 3944 3084 3684 2787 
Q 3425 2491 3425 1978 
L 3425 0 
L 2847 0 
L 2847 2094 
Q 2847 2600 2669 2842 
Q 2491 3084 2119 3084 
Q 1678 3084 1418 2786 
Q 1159 2488 1159 1978 
L 1159 0 
L 581 0 
L 581 3500 
L 1159 3500 
L 1159 2956 
Q 1356 3278 1631 3431 
Q 1906 3584 2284 3584 
Q 2666 3584 2933 3390 
Q 3200 3197 3328 2828 
z
" transform="scale(0.015625)"/>
       <path id="DejaVuSans-70" d="M 1159 525 
L 1159 -1331 
L 581 -1331 
L 581 3500 
L 1159 3500 
L 1159 2969 
Q 1341 3281 1617 3432 
Q 1894 3584 2278 3584 
Q 2916 3584 3314 3078 
Q 3713 2572 3713 1747 
Q 3713 922 3314 415 
Q 2916 -91 2278 -91 
Q 1894 -91 1617 61 
Q 1341 213 1159 525 
z
M 3116 1747 
Q 3116 2381 2855 2742 
Q 2594 3103 2138 3103 
Q 1681 3103 1420 2742 
Q 1159 2381 1159 1747 
Q 1159 1113 1420 752 
Q 1681 391 2138 391 
Q 2594 391 2855 752 
Q 3116 1113 3116 1747 
z
" transform="scale(0.015625)"/>
       <path id="DejaVuSans-72" d="M 2631 2963 
Q 2534 3019 2420 3045 
Q 2306 3072 2169 3072 
Q 1681 3072 1420 2755 
Q 1159 2438 1159 1844 
L 1159 0 
L 581 0 
L 581 3500 
L 1159 3500 
L 1159 2956 
Q 1341 3275 1631 3429 
Q 1922 3584 2338 3584 
Q 2397 3584 2469 3576 
Q 2541 3569 2628 3553 
L 2631 2963 
z
" transform="scale(0.015625)"/>
       <path id="DejaVuSans-61" d="M 2194 1759 
Q 1497 1759 1228 1600 
Q 959 1441 959 1056 
Q 959 750 1161 570 
Q 1363 391 1709 391 
Q 2188 391 2477 730 
Q 2766 1069 2766 1631 
L 2766 1759 
L 2194 1759 
z
M 3341 1997 
L 3341 0 
L 2766 0 
L 2766 531 
Q 2569 213 2275 61 
Q 1981 -91 1556 -91 
Q 1019 -91 701 211 
Q 384 513 384 1019 
Q 384 1609 779 1909 
Q 1175 2209 1959 2209 
L 2766 2209 
L 2766 2266 
Q 2766 2663 2505 2880 
Q 2244 3097 1772 3097 
Q 1472 3097 1187 3025 
Q 903 2953 641 2809 
L 641 3341 
Q 956 3463 1253 3523 
Q 1550 3584 1831 3584 
Q 2591 3584 2966 3190 
Q 3341 2797 3341 1997 
z
" transform="scale(0.015625)"/>
       <path id="DejaVuSans-74" d="M 1172 4494 
L 1172 3500 
L 2356 3500 
L 2356 3053 
L 1172 3053 
L 1172 1153 
Q 1172 725 1289 603 
Q 1406 481 1766 481 
L 2356 481 
L 2356 0 
L 1766 0 
Q 1100 0 847 248 
Q 594 497 594 1153 
L 594 3053 
L 172 3053 
L 172 3500 
L 594 3500 
L 594 4494 
L 1172 4494 
z
" transform="scale(0.015625)"/>
       <path id="DejaVuSans-75" d="M 544 1381 
L 544 3500 
L 1119 3500 
L 1119 1403 
Q 1119 906 1312 657 
Q 1506 409 1894 409 
Q 2359 409 2629 706 
Q 2900 1003 2900 1516 
L 2900 3500 
L 3475 3500 
L 3475 0 
L 2900 0 
L 2900 538 
Q 2691 219 2414 64 
Q 2138 -91 1772 -91 
Q 1169 -91 856 284 
Q 544 659 544 1381 
z
M 1991 3584 
L 1991 3584 
z
" transform="scale(0.015625)"/>
       <path id="DejaVuSans-20" transform="scale(0.015625)"/>
       <path id="DejaVuSans-5b" d="M 550 4863 
L 1875 4863 
L 1875 4416 
L 1125 4416 
L 1125 -397 
L 1875 -397 
L 1875 -844 
L 550 -844 
L 550 4863 
z
" transform="scale(0.015625)"/>
       <path id="DejaVuSans-b0" d="M 1600 4347 
Q 1350 4347 1178 4173 
Q 1006 4000 1006 3750 
Q 1006 3503 1178 3333 
Q 1350 3163 1600 3163 
Q 1850 3163 2022 3333 
Q 2194 3503 2194 3750 
Q 2194 3997 2020 4172 
Q 1847 4347 1600 4347 
z
M 1600 4750 
Q 1800 4750 1984 4673 
Q 2169 4597 2303 4453 
Q 2447 4313 2519 4134 
Q 2591 3956 2591 3750 
Q 2591 3338 2302 3052 
Q 2013 2766 1594 2766 
Q 1172 2766 890 3047 
Q 609 3328 609 3750 
Q 609 4169 896 4459 
Q 1184 4750 1600 4750 
z
" transform="scale(0.015625)"/>
       <path id="DejaVuSans-43" d="M 4122 4306 
L 4122 3641 
Q 3803 3938 3442 4084 
Q 3081 4231 2675 4231 
Q 1875 4231 1450 3742 
Q 1025 3253 1025 2328 
Q 1025 1406 1450 917 
Q 1875 428 2675 428 
Q 3081 428 3442 575 
Q 3803 722 4122 1019 
L 4122 359 
Q 3791 134 3420 21 
Q 3050 -91 2638 -91 
Q 1578 -91 968 557 
Q 359 1206 359 2328 
Q 359 3453 968 4101 
Q 1578 4750 2638 4750 
Q 3056 4750 3426 4639 
Q 3797 4528 4122 4306 
z
" transform="scale(0.015625)"/>
       <path id="DejaVuSans-5d" d="M 1947 4863 
L 1947 -844 
L 622 -844 
L 622 -397 
L 1369 -397 
L 1369 4416 
L 622 4416 
L 622 4863 
L 1947 4863 
z
" transform="scale(0.015625)"/>
      </defs>
      <use xlink:href="#DejaVuSans-54"/>
      <use xlink:href="#DejaVuSans-65" transform="translate(44.083984 0)"/>
      <use xlink:href="#DejaVuSans-6d" transform="translate(105.607422 0)"/>
      <use xlink:href="#DejaVuSans-70" transform="translate(203.019531 0)"/>
      <use xlink:href="#DejaVuSans-65" transform="translate(266.496094 0)"/>
      <use xlink:href="#DejaVuSans-72" transform="translate(328.019531 0)"/>
      <use xlink:href="#DejaVuSans-61" transform="translate(369.132812 0)"/>
      <use xlink:href="#DejaVuSans-74" transform="translate(430.412109 0)"/>
      <use xlink:href="#DejaVuSans-75" transform="translate(469.621094 0)"/>
      <use xlink:href="#DejaVuSans-72" transform="translate(533 0)"/>
      <use xlink:href="#DejaVuSans-65" transform="translate(571.863281 0)"/>
      <use xlink:href="#DejaVuSans-20" transform="translate(633.386719 0)"/>
      <use xlink:href="#DejaVuSans-5b" transform="translate(665.173828 0)"/>
      <use xlink:href="#DejaVuSans-b0" transform="translate(704.1875 0)"/>
      <use xlink:href="#DejaVuSans-43" transform="translate(754.1875 0)"/>
      <use xlink:href="#DejaVuSans-5d" transform="translate(824.011719 0)"/>
     </g>
    </g>
   </g>
   <g id="matplotlib.axis_2">
    <g id="ytick_1">
     <g id="line2d_9">
      <path d="M 53.019375 34.92 
L 220.419375 34.92 
" clip-path="url(#pabc0ad279b)" style="fill: none; stroke: #b0b0b0; stroke-width: 0.8; stroke-linecap: square"/>
     </g>
     <g id="line2d_10">
      <defs>
       <path id="m1c2745a92a" d="M 0 0 
L -3.5 0 
" style="stroke: #000000; stroke-width: 0.8"/>
      </defs>
      <g>
       <use xlink:href="#m1c2745a92a" x="53.019375" y="34.92" style="stroke: #000000; stroke-width: 0.8"/>
      </g>
     </g>
     <g id="text_6">
      <!-- 50 -->
      <g transform="translate(30.749375 39.479062) scale(0.12 -0.12)">
       <defs>
        <path id="DejaVuSans-30" d="M 2034 4250 
Q 1547 4250 1301 3770 
Q 1056 3291 1056 2328 
Q 1056 1369 1301 889 
Q 1547 409 2034 409 
Q 2525 409 2770 889 
Q 3016 1369 3016 2328 
Q 3016 3291 2770 3770 
Q 2525 4250 2034 4250 
z
M 2034 4750 
Q 2819 4750 3233 4129 
Q 3647 3509 3647 2328 
Q 3647 1150 3233 529 
Q 2819 -91 2034 -91 
Q 1250 -91 836 529 
Q 422 1150 422 2328 
Q 422 3509 836 4129 
Q 1250 4750 2034 4750 
z
" transform="scale(0.015625)"/>
       </defs>
       <use xlink:href="#DejaVuSans-35"/>
       <use xlink:href="#DejaVuSans-30" transform="translate(63.623047 0)"/>
      </g>
     </g>
    </g>
    <g id="ytick_2">
     <g id="line2d_11">
      <path d="M 53.019375 90.36 
L 220.419375 90.36 
" clip-path="url(#pabc0ad279b)" style="fill: none; stroke: #b0b0b0; stroke-width: 0.8; stroke-linecap: square"/>
     </g>
     <g id="line2d_12">
      <g>
       <use xlink:href="#m1c2745a92a" x="53.019375" y="90.36" style="stroke: #000000; stroke-width: 0.8"/>
      </g>
     </g>
     <g id="text_7">
      <!-- 60 -->
      <g transform="translate(30.749375 94.919062) scale(0.12 -0.12)">
       <use xlink:href="#DejaVuSans-36"/>
       <use xlink:href="#DejaVuSans-30" transform="translate(63.623047 0)"/>
      </g>
     </g>
    </g>
    <g id="ytick_3">
     <g id="line2d_13">
      <path d="M 53.019375 145.8 
L 220.419375 145.8 
" clip-path="url(#pabc0ad279b)" style="fill: none; stroke: #b0b0b0; stroke-width: 0.8; stroke-linecap: square"/>
     </g>
     <g id="line2d_14">
      <g>
       <use xlink:href="#m1c2745a92a" x="53.019375" y="145.8" style="stroke: #000000; stroke-width: 0.8"/>
      </g>
     </g>
     <g id="text_8">
      <!-- 70 -->
      <g transform="translate(30.749375 150.359062) scale(0.12 -0.12)">
       <use xlink:href="#DejaVuSans-37"/>
       <use xlink:href="#DejaVuSans-30" transform="translate(63.623047 0)"/>
      </g>
     </g>
    </g>
    <g id="ytick_4">
     <g id="line2d_15">
      <path d="M 53.019375 201.24 
L 220.419375 201.24 
" clip-path="url(#pabc0ad279b)" style="fill: none; stroke: #b0b0b0; stroke-width: 0.8; stroke-linecap: square"/>
     </g>
     <g id="line2d_16">
      <g>
       <use xlink:href="#m1c2745a92a" x="53.019375" y="201.24" style="stroke: #000000; stroke-width: 0.8"/>
      </g>
     </g>
     <g id="text_9">
      <!-- 80 -->
      <g transform="translate(30.749375 205.799062) scale(0.12 -0.12)">
       <use xlink:href="#DejaVuSans-38"/>
       <use xlink:href="#DejaVuSans-30" transform="translate(63.623047 0)"/>
      </g>
     </g>
    </g>
    <g id="text_10">
     <!-- Depth [m] -->
     <g transform="translate(17.837812 153.906875) rotate(-90) scale(0.14 -0.14)">
      <defs>
       <path id="DejaVuSans-44" d="M 1259 4147 
L 1259 519 
L 2022 519 
Q 2988 519 3436 956 
Q 3884 1394 3884 2338 
Q 3884 3275 3436 3711 
Q 2988 4147 2022 4147 
L 1259 4147 
z
M 628 4666 
L 1925 4666 
Q 3281 4666 3915 4102 
Q 4550 3538 4550 2338 
Q 4550 1131 3912 565 
Q 3275 0 1925 0 
L 628 0 
L 628 4666 
z
" transform="scale(0.015625)"/>
       <path id="DejaVuSans-68" d="M 3513 2113 
L 3513 0 
L 2938 0 
L 2938 2094 
Q 2938 2591 2744 2837 
Q 2550 3084 2163 3084 
Q 1697 3084 1428 2787 
Q 1159 2491 1159 1978 
L 1159 0 
L 581 0 
L 581 4863 
L 1159 4863 
L 1159 2956 
Q 1366 3272 1645 3428 
Q 1925 3584 2291 3584 
Q 2894 3584 3203 3211 
Q 3513 2838 3513 2113 
z
" transform="scale(0.015625)"/>
      </defs>
      <use xlink:href="#DejaVuSans-44"/>
      <use xlink:href="#DejaVuSans-65" transform="translate(77.001953 0)"/>
      <use xlink:href="#DejaVuSans-70" transform="translate(138.525391 0)"/>
      <use xlink:href="#DejaVuSans-74" transform="translate(202.001953 0)"/>
      <use xlink:href="#DejaVuSans-68" transform="translate(241.210938 0)"/>
      <use xlink:href="#DejaVuSans-20" transform="translate(304.589844 0)"/>
      <use xlink:href="#DejaVuSans-5b" transform="translate(336.376953 0)"/>
      <use xlink:href="#DejaVuSans-6d" transform="translate(375.390625 0)"/>
      <use xlink:href="#DejaVuSans-5d" transform="translate(472.802734 0)"/>
     </g>
    </g>
   </g>
   <g id="line2d_17">
    <path d="M 189.761892 -1 
L 189.761892 -0.907758 
L 190.07406 -0.728275 
L 189.137557 -0.390075 
L 189.449725 -0.210591 
L 189.449725 0.147725 
L 189.137557 0.326878 
L 189.137557 1.082751 
L 187.628746 2.157997 
L 187.940913 2.356942 
L 187.940913 2.556446 
L 188.253081 2.715263 
L 187.940913 2.914762 
L 187.940913 3.332421 
L 187.00441 3.710503 
L 187.316578 3.889667 
L 185.131403 4.327636 
L 185.131403 4.864783 
L 184.871263 5.044264 
L 185.131403 5.263553 
L 185.755739 5.462175 
L 185.131403 5.880388 
L 184.559095 6.119208 
L 183.622592 6.318696 
L 183.310424 6.636881 
L 183.310424 6.815709 
L 181.749585 7.273468 
L 182.37392 7.771722 
L 182.37392 8.009891 
L 181.749585 8.209716 
L 181.749585 8.627043 
L 182.061753 8.846665 
L 182.061753 9.045604 
L 181.749585 9.344008 
L 179.928606 9.901797 
L 180.552941 10.299686 
L 180.552941 10.71791 
L 179.30427 11.175674 
L 178.107627 12.211041 
L 178.107627 12.429761 
L 177.795459 12.64904 
L 176.858955 12.828183 
L 176.23462 13.066673 
L 176.23462 13.424989 
L 176.858955 13.803662 
L 175.610284 14.300988 
L 175.610284 14.500492 
L 174.985948 14.738982 
L 174.985948 15.157206 
L 175.298116 15.396277 
L 175.298116 15.813935 
L 175.922452 16.01345 
L 175.922452 16.212732 
L 175.610284 16.411323 
L 175.610284 16.849327 
L 176.858955 17.407169 
L 177.795459 17.804719 
L 178.107627 17.984227 
L 178.107627 18.422232 
L 177.795459 18.621165 
L 176.858955 18.820307 
L 176.858955 19.178969 
L 176.546788 19.338341 
L 175.298116 19.557039 
L 174.725809 19.776314 
L 174.725809 19.975253 
L 175.922452 20.353023 
L 175.922452 20.532529 
L 175.298116 20.711328 
L 175.298116 20.890834 
L 175.610284 21.109776 
L 174.725809 21.607456 
L 174.101473 21.786253 
L 174.101473 22.005888 
L 174.413641 22.184701 
L 174.413641 22.404337 
L 173.789305 22.603265 
L 172.540634 22.802182 
L 173.164969 22.981351 
L 173.164969 23.179938 
L 171.916298 23.57871 
L 171.916298 23.797078 
L 170.095319 24.434907 
L 170.407487 24.653632 
L 170.407487 25.011594 
L 171.60413 25.410057 
L 171.916298 25.669264 
L 171.916298 25.888339 
L 171.60413 26.087127 
L 171.34399 26.426013 
L 170.719655 26.585379 
L 170.719655 26.804099 
L 171.031823 27.023032 
L 170.719655 27.222322 
L 170.719655 27.819704 
L 171.031823 28.018649 
L 171.031823 28.217587 
L 171.60413 28.376616 
L 171.031823 28.575544 
L 170.719655 28.854731 
L 170.719655 29.014468 
L 170.407487 29.19326 
L 170.719655 29.392925 
L 170.719655 29.610924 
L 169.470983 30.606725 
L 169.470983 30.806025 
L 169.783151 31.125147 
L 169.470983 31.303937 
L 169.470983 31.483095 
L 169.158816 31.702375 
L 169.158816 31.881533 
L 169.470983 32.100258 
L 169.158816 32.27941 
L 169.470983 32.518482 
L 169.158816 32.677489 
L 169.470983 32.877162 
L 169.158816 33.076296 
L 169.783151 33.295027 
L 169.783151 33.752812 
L 167.337837 34.569434 
L 167.337837 34.768373 
L 167.650004 34.927756 
L 167.650004 35.147041 
L 167.337837 35.325825 
L 167.337837 35.70429 
L 167.025669 36.042819 
L 167.025669 36.62042 
L 167.337837 36.818994 
L 167.337837 37.018303 
L 167.025669 37.217801 
L 166.089165 37.615662 
L 166.089165 37.814794 
L 166.713501 38.014116 
L 166.713501 38.33287 
L 167.025669 38.492253 
L 166.713501 38.691186 
L 167.337837 39.069295 
L 167.337837 39.288579 
L 167.025669 39.507858 
L 167.025669 40.164583 
L 166.401333 40.60295 
L 166.713501 40.881774 
L 167.650004 41.299639 
L 167.962172 41.479179 
L 167.337837 41.677729 
L 164.840494 42.15619 
L 164.580354 42.375282 
L 165.152662 42.733232 
L 165.152662 42.913333 
L 164.580354 43.231133 
L 163.956018 43.430625 
L 163.956018 43.689472 
L 161.198536 44.36649 
L 159.949865 44.784689 
L 159.949865 44.963847 
L 159.325529 45.322151 
L 159.325529 45.600779 
L 160.5742 46.357178 
L 160.5742 46.775784 
L 159.949865 46.995057 
L 159.637697 47.253897 
L 159.637697 47.472617 
L 159.949865 47.691908 
L 159.949865 48.209986 
L 160.262032 48.40911 
L 159.949865 48.567916 
L 159.949865 48.727293 
L 159.637697 48.926791 
L 159.637697 49.901881 
L 160.5742 50.340291 
L 159.949865 50.858537 
L 158.701193 51.714741 
L 158.701193 52.113183 
L 159.013361 52.312128 
L 159.013361 52.969417 
L 158.701193 53.148569 
L 159.013361 53.327733 
L 158.701193 53.547012 
L 158.701193 53.74595 
L 158.076858 53.965223 
L 158.076858 54.164161 
L 157.816718 54.363095 
L 158.076858 54.602559 
L 158.076858 54.840837 
L 158.389025 55.040176 
L 158.076858 55.25906 
L 158.076858 55.757367 
L 158.389025 55.956311 
L 158.389025 56.155815 
L 158.076858 56.354748 
L 156.568046 56.931922 
L 156.568046 57.928142 
L 156.880214 58.127087 
L 156.880214 58.784376 
L 156.568046 59.003655 
L 157.192382 59.222952 
L 156.880214 59.421484 
L 157.192382 59.620428 
L 157.192382 60.736066 
L 156.880214 60.9354 
L 156.880214 61.553531 
L 154.695039 62.170246 
L 154.695039 62.588469 
L 154.434899 62.787403 
L 154.434899 63.106157 
L 154.695039 63.284914 
L 154.695039 63.683356 
L 154.122732 64.101974 
L 154.122732 64.91864 
L 153.810564 65.11773 
L 154.122732 65.436489 
L 153.498396 65.655605 
L 153.498396 66.053638 
L 153.810564 66.252583 
L 153.810564 66.432715 
L 154.122732 66.591123 
L 154.122732 66.791037 
L 153.498396 66.969772 
L 153.498396 67.148929 
L 154.122732 67.567576 
L 153.186228 68.504038 
L 152.87406 68.702557 
L 153.498396 69.081231 
L 153.186228 69.280577 
L 153.498396 69.499868 
L 153.498396 69.877964 
L 153.186228 70.117023 
L 152.561892 70.435764 
L 152.561892 70.954022 
L 153.186228 71.152973 
L 152.87406 71.332125 
L 152.87406 71.730151 
L 152.561892 71.929083 
L 152.561892 72.128586 
L 152.249725 72.348281 
L 152.87406 73.045145 
L 152.561892 73.264423 
L 152.561892 73.463361 
L 152.249725 73.662859 
L 152.87406 74.001406 
L 152.561892 74.2197 
L 152.87406 74.41963 
L 152.87406 74.579007 
L 152.249725 75.096686 
L 152.561892 75.275851 
L 148.243571 76.530573 
L 148.243571 76.690373 
L 148.555739 76.889318 
L 149.492242 77.068071 
L 149.492242 77.267999 
L 147.046927 77.725733 
L 147.046927 77.925236 
L 148.555739 78.32371 
L 148.243571 78.542423 
L 146.110424 78.722101 
L 145.486088 78.940808 
L 143.977277 79.29923 
L 143.352941 79.498155 
L 143.352941 80.15587 
L 143.665109 80.355381 
L 142.416438 80.932954 
L 141.479934 81.152219 
L 141.167767 81.390283 
L 141.167767 81.570436 
L 140.907627 81.789149 
L 141.167767 81.968878 
L 141.167767 82.645515 
L 140.595459 82.844873 
L 140.595459 83.223535 
L 141.167767 83.402704 
L 141.167767 83.602208 
L 141.479934 83.801153 
L 141.479934 84.020437 
L 142.728606 84.936598 
L 142.728606 85.155883 
L 143.040774 85.314831 
L 143.040774 85.75327 
L 143.352941 85.972125 
L 143.040774 86.191403 
L 143.665109 86.331448 
L 143.352941 86.590288 
L 143.977277 87.087775 
L 143.977277 87.586124 
L 141.792102 88.163677 
L 141.167767 88.542764 
L 141.167767 89.139265 
L 140.907627 89.478359 
L 141.167767 89.657963 
L 141.167767 89.856901 
L 141.792102 90.075758 
L 141.479934 90.25535 
L 141.479934 90.454854 
L 141.792102 90.633576 
L 141.479934 90.813169 
L 141.792102 90.991891 
L 141.479934 91.151261 
L 141.792102 91.33099 
L 141.792102 91.61006 
L 141.479934 91.76943 
L 141.792102 92.008502 
L 141.792102 92.387164 
L 142.10427 92.586109 
L 140.907627 93.382521 
L 140.907627 93.602252 
L 141.167767 93.801761 
L 140.907627 94.100163 
L 141.167767 94.299672 
L 141.167767 94.478383 
L 141.479934 94.657994 
L 141.479934 94.85705 
L 142.416438 95.016895 
L 143.040774 95.415351 
L 142.416438 95.852892 
L 142.728606 96.052852 
L 142.728606 96.271571 
L 142.416438 96.570537 
L 142.416438 96.749695 
L 141.479934 97.287712 
L 141.479934 97.486765 
L 141.792102 97.705491 
L 141.792102 97.885665 
L 142.10427 98.104391 
L 141.792102 98.323669 
L 142.10427 98.502381 
L 142.10427 98.781573 
L 141.792102 98.921162 
L 141.792102 99.27993 
L 142.10427 99.458641 
L 141.792102 99.63881 
L 141.792102 102.169059 
L 141.479934 102.327972 
L 141.479934 103.742015 
L 141.792102 103.941526 
L 141.167767 104.339953 
L 141.167767 104.758636 
L 141.479934 104.937905 
L 141.479934 105.455597 
L 141.167767 105.754562 
L 141.167767 105.9535 
L 141.479934 106.13323 
L 141.167767 106.352405 
L 141.479934 106.551916 
L 141.479934 107.527493 
L 141.792102 107.747249 
L 141.479934 107.946281 
L 141.479934 109.141605 
L 141.792102 109.32077 
L 141.167767 109.520259 
L 141.479934 109.719672 
L 141.479934 111.532255 
L 141.167767 111.751532 
L 141.167767 112.369729 
L 141.479934 112.548422 
L 141.479934 113.943723 
L 141.167767 114.163001 
L 141.167767 114.859942 
L 141.479934 115.078668 
L 141.479934 115.616705 
L 142.728606 116.254717 
L 142.416438 116.453737 
L 143.352941 116.673043 
L 143.352941 117.350676 
L 142.10427 118.127184 
L 142.10427 118.486064 
L 142.416438 118.705356 
L 142.416438 119.463158 
L 142.10427 119.641828 
L 143.040774 120.160588 
L 142.728606 120.319476 
L 142.728606 120.757479 
L 142.416438 120.957457 
L 142.416438 121.793985 
L 142.728606 121.992931 
L 142.728606 122.192918 
L 142.416438 122.371584 
L 142.728606 122.670564 
L 142.728606 122.829941 
L 143.040774 123.009105 
L 143.040774 123.208609 
L 142.728606 123.387759 
L 142.728606 125.161248 
L 142.416438 125.360179 
L 142.728606 125.55969 
L 142.728606 126.356573 
L 143.040774 126.495687 
L 142.728606 126.695672 
L 142.728606 127.074333 
L 142.416438 127.372733 
L 142.728606 127.552954 
L 142.416438 127.731613 
L 142.728606 127.950904 
L 142.416438 128.130054 
L 140.283291 128.947232 
L 139.971123 129.146656 
L 139.971123 129.345666 
L 139.658955 129.544669 
L 139.971123 129.823796 
L 139.346788 129.982664 
L 139.658955 130.122761 
L 139.346788 130.342038 
L 139.658955 130.540984 
L 139.346788 130.76026 
L 139.346788 130.959763 
L 139.03462 131.17904 
L 139.346788 131.398332 
L 139.346788 131.816554 
L 138.722452 132.115511 
L 138.098116 132.27537 
L 137.785948 132.474369 
L 137.785948 132.653028 
L 139.03462 133.032217 
L 139.03462 133.410878 
L 139.346788 133.590043 
L 139.346788 133.809327 
L 139.03462 134.008258 
L 139.03462 134.207261 
L 138.722452 134.486445 
L 138.098116 134.665587 
L 138.098116 134.86559 
L 138.410284 135.064035 
L 138.098116 135.24375 
L 138.098116 135.442688 
L 137.785948 135.621837 
L 138.098116 135.802069 
L 137.785948 136.021346 
L 138.410284 136.419803 
L 138.410284 136.698994 
L 138.722452 136.917721 
L 138.410284 137.136493 
L 139.03462 137.674545 
L 138.722452 137.854765 
L 139.03462 138.053711 
L 139.03462 138.213087 
L 139.346788 138.392818 
L 139.346788 138.791259 
L 139.03462 139.110005 
L 139.03462 139.488665 
L 138.722452 139.707942 
L 137.785948 140.086579 
L 138.098116 140.285525 
L 138.098116 140.465248 
L 138.410284 140.643904 
L 137.785948 140.803265 
L 138.098116 140.982939 
L 137.785948 141.142364 
L 137.785948 141.42099 
L 138.098116 141.620501 
L 137.525809 142.019438 
L 137.525809 142.41788 
L 138.098116 142.617397 
L 137.785948 142.796035 
L 137.785948 143.015831 
L 137.525809 143.194982 
L 136.901473 143.39447 
L 136.277137 143.931978 
L 136.589305 144.132002 
L 138.098116 144.689344 
L 138.410284 144.868509 
L 138.410284 145.068012 
L 139.346788 145.466477 
L 139.658955 145.625861 
L 139.658955 145.805583 
L 140.283291 146.42384 
L 142.10427 146.583263 
L 149.492242 146.901686 
L 155.631543 147.480007 
L 157.50455 147.718602 
L 166.713501 148.515722 
L 168.222312 149.034017 
L 168.222312 149.392897 
L 168.846648 149.871043 
L 168.846648 150.269484 
L 163.331683 151.086569 
L 163.956018 151.485591 
L 166.713501 151.903363 
L 167.025669 152.103396 
L 166.401333 152.322664 
L 165.46483 152.522101 
L 165.776997 152.701308 
L 167.025669 153.15969 
L 167.337837 153.31855 
L 167.025669 153.518004 
L 166.401333 153.69771 
L 162.395179 154.015832 
L 158.701193 154.554298 
L 158.389025 154.753793 
L 157.816718 154.932935 
L 158.076858 155.251695 
L 159.013361 155.88979 
L 159.013361 156.109074 
L 158.701193 156.328349 
L 158.701193 156.566885 
L 159.637697 157.085694 
L 159.637697 157.98208 
L 158.701193 158.3409 
L 158.389025 158.539863 
L 158.701193 158.739906 
L 158.701193 158.938844 
L 161.458676 160.074365 
L 161.770844 160.254629 
L 161.770844 160.453567 
L 162.083011 160.633297 
L 163.019515 161.011983 
L 163.331683 161.210394 
L 163.331683 161.370335 
L 164.840494 161.749571 
L 171.031823 162.3268 
L 171.60413 162.506537 
L 171.916298 162.72583 
L 171.916298 163.10449 
L 171.34399 163.323758 
L 171.60413 163.522703 
L 181.489445 164.399568 
L 182.37392 164.578749 
L 182.686088 164.757941 
L 182.37392 164.937628 
L 176.858955 165.754704 
L 171.60413 166.253035 
L 170.407487 166.571755 
L 170.407487 166.771257 
L 170.095319 166.970729 
L 168.846648 167.209216 
L 168.53448 167.40871 
L 167.962172 167.608198 
L 167.962172 167.787354 
L 168.222312 168.007189 
L 167.962172 168.186904 
L 168.53448 168.545233 
L 168.53448 168.844205 
L 162.707347 169.86023 
L 162.395179 170.039378 
L 159.013361 170.538307 
L 157.50455 170.737769 
L 155.319375 171.256513 
L 155.007207 171.475239 
L 153.810564 171.693941 
L 146.422592 172.49117 
L 144.861753 172.810996 
L 144.861753 173.129197 
L 147.046927 173.787107 
L 148.555739 174.305403 
L 148.555739 174.663163 
L 148.867906 174.883008 
L 148.867906 175.042949 
L 149.492242 175.560102 
L 149.492242 175.739823 
L 149.180074 175.939872 
L 147.671263 176.477866 
L 147.671263 176.637242 
L 147.931403 176.796626 
L 147.671263 176.975784 
L 147.671263 177.334654 
L 147.359095 177.553929 
L 149.492242 178.630065 
L 149.492242 178.829568 
L 149.80441 178.989511 
L 149.492242 179.208227 
L 149.492242 179.546759 
L 149.180074 179.766594 
L 151.313221 180.045843 
L 154.434899 180.962064 
L 154.434899 181.141224 
L 157.50455 182.098129 
L 158.076858 182.457023 
L 158.076858 182.856027 
L 157.816718 183.075303 
L 158.389025 183.294037 
L 158.076858 183.473185 
L 158.076858 183.712814 
L 158.389025 183.91176 
L 158.389025 184.150823 
L 158.701193 184.3509 
L 158.701193 185.068091 
L 159.013361 185.207694 
L 159.013361 185.36707 
L 159.325529 185.526455 
L 158.701193 185.725939 
L 159.325529 186.124397 
L 158.701193 186.603071 
L 159.013361 186.842713 
L 159.013361 187.419735 
L 159.637697 187.818762 
L 159.325529 187.978129 
L 159.637697 188.197421 
L 158.389025 188.915141 
L 158.389025 189.054736 
L 158.076858 189.233884 
L 158.076858 189.453167 
L 157.50455 189.732341 
L 157.50455 190.40997 
L 157.192382 190.64959 
L 157.50455 190.868882 
L 156.880214 191.088147 
L 156.880214 191.327211 
L 156.568046 191.506933 
L 156.880214 191.705869 
L 156.568046 191.884441 
L 156.568046 192.064162 
L 155.943711 192.363691 
L 155.007207 192.681839 
L 154.695039 192.842348 
L 151.313221 193.699036 
L 150.740913 193.977631 
L 143.977277 195.473451 
L 143.352941 196.011451 
L 143.352941 196.190025 
L 140.907627 196.708207 
L 138.410284 197.207191 
L 136.589305 197.864403 
L 133.207487 198.502372 
L 131.07434 199.120618 
L 131.07434 199.339314 
L 130.762172 199.638862 
L 129.513501 199.917429 
L 129.513501 200.09715 
L 127.952662 200.55545 
L 127.952662 200.754952 
L 127.692522 200.953881 
L 127.068186 201.173145 
L 126.443851 201.791413 
L 126.443851 201.990915 
L 126.131683 202.210188 
L 124.883011 202.609181 
L 119.992382 203.505359 
L 119.992382 203.665893 
L 118.743711 203.84442 
L 118.119375 204.143965 
L 118.119375 204.323092 
L 117.807207 204.502239 
L 117.807207 204.940803 
L 117.547067 205.140892 
L 117.547067 205.339799 
L 117.807207 205.559684 
L 117.807207 205.798151 
L 117.234899 206.197169 
L 115.67406 206.755503 
L 114.737557 206.894474 
L 111.355739 207.213725 
L 108.598256 207.691738 
L 108.286088 207.870885 
L 108.286088 208.090167 
L 107.401613 208.489145 
L 107.401613 208.807895 
L 106.465109 209.465714 
L 102.146788 210.083875 
L 96.007487 210.621732 
L 87.370844 211.21999 
L 83.728885 211.698012 
L 81.855878 212.355804 
L 81.231543 212.774569 
L 81.231543 213.173006 
L 80.607207 213.651678 
L 79.722732 214.010528 
L 78.47406 214.528744 
L 75.092242 215.306306 
L 73.895599 215.844304 
L 73.583431 216.024015 
L 73.583431 216.262466 
L 71.398256 216.741093 
L 66.195459 217.359276 
L 65.883291 217.578549 
L 64.946788 217.937398 
L 64.63462 218.096715 
L 64.63462 218.375952 
L 64.322452 218.555049 
L 64.63462 218.714432 
L 64.63462 218.913933 
L 64.322452 219.093694 
L 64.322452 219.272799 
L 64.63462 219.511869 
L 64.322452 219.732374 
L 64.322452 220.109797 
L 64.010284 220.309288 
L 64.322452 220.548924 
L 64.322452 220.887453 
L 63.750144 221.266658 
L 63.750144 221.744781 
L 63.437976 222.064086 
L 62.813641 222.303749 
L 62.501473 222.561963 
L 62.501473 223.53912 
L 62.813641 223.698503 
L 62.189305 224.03758 
L 62.501473 224.25687 
L 62.501473 224.456993 
L 62.813641 224.65588 
L 62.813641 224.835658 
L 62.189305 225.034517 
L 62.501473 225.234027 
L 61.877137 225.492851 
L 61.877137 225.872071 
L 61.564969 226.071623 
L 61.564969 226.31125 
L 61.877137 226.53054 
L 61.564969 226.749187 
L 61.564969 226.909187 
L 61.252802 227.087707 
L 61.252802 227.486708 
L 60.940634 227.805448 
L 60.940634 228.184668 
L 61.252802 228.383613 
L 60.628466 228.563315 
L 60.628466 228.922818 
L 60.628466 228.922818 
" clip-path="url(#pabc0ad279b)" style="fill: none; stroke: #8c564b; stroke-width: 1.5; stroke-linecap: square"/>
   </g>
   <g id="line2d_18">
    <path d="M 171.627396 -1 
L 171.916298 -0.760145 
L 171.031823 -0.282593 
L 169.158816 0.035566 
L 169.158816 0.155382 
L 168.53448 0.314184 
L 168.53448 0.473561 
L 168.222312 0.593371 
L 168.222312 1.030811 
L 168.53448 1.18987 
L 168.53448 1.369351 
L 169.158816 1.567976 
L 169.158816 2.105774 
L 170.095319 2.265166 
L 169.783151 2.444319 
L 169.783151 2.603696 
L 168.846648 2.92187 
L 168.53448 3.200818 
L 168.846648 3.320638 
L 168.846648 3.459344 
L 168.53448 3.638497 
L 168.53448 3.937797 
L 168.222312 4.096277 
L 168.222312 4.275435 
L 169.158816 4.83327 
L 168.53448 5.092107 
L 168.846648 5.230815 
L 168.53448 5.430077 
L 168.53448 5.887862 
L 167.650004 6.186821 
L 167.650004 6.365979 
L 167.962172 6.525361 
L 167.962172 6.683843 
L 168.53448 6.86334 
L 167.650004 7.579958 
L 167.650004 7.918493 
L 167.337837 8.097646 
L 167.337837 9.650725 
L 167.650004 9.809542 
L 167.337837 9.968914 
L 167.337837 10.127956 
L 167.025669 10.267547 
L 167.025669 10.406913 
L 167.337837 10.546179 
L 167.337837 10.984519 
L 167.650004 11.123555 
L 167.337837 11.282927 
L 167.650004 11.461754 
L 167.650004 11.621468 
L 167.337837 11.820401 
L 167.650004 11.960003 
L 167.650004 12.297973 
L 167.962172 12.457017 
L 167.650004 12.616727 
L 167.650004 13.014605 
L 167.337837 13.173976 
L 166.401333 13.472934 
L 166.089165 13.631741 
L 166.089165 13.810899 
L 165.776997 13.97061 
L 166.089165 14.149094 
L 165.46483 14.487958 
L 165.46483 14.826493 
L 165.152662 15.085334 
L 165.46483 15.264498 
L 165.152662 15.423869 
L 165.46483 15.562906 
L 165.46483 16.339788 
L 165.776997 16.518952 
L 165.46483 16.67798 
L 165.776997 16.956613 
L 165.776997 17.115646 
L 165.46483 17.314579 
L 165.46483 17.494081 
L 165.776997 17.653809 
L 165.776997 17.832622 
L 165.46483 17.991994 
L 165.776997 18.171157 
L 164.840494 18.648707 
L 164.840494 19.066931 
L 164.580354 19.206522 
L 164.840494 19.345558 
L 164.580354 19.524711 
L 164.580354 19.703869 
L 164.840494 19.84347 
L 164.840494 20.201786 
L 165.152662 20.380949 
L 164.840494 20.540321 
L 164.840494 21.276733 
L 164.580354 21.416325 
L 164.580354 22.372023 
L 164.268186 22.511048 
L 164.580354 22.68986 
L 164.580354 22.909496 
L 164.268186 23.049087 
L 164.268186 23.825061 
L 164.580354 24.00479 
L 164.580354 24.342406 
L 164.268186 24.502131 
L 164.580354 24.661868 
L 163.956018 25.059946 
L 163.643851 25.218397 
L 163.956018 25.378135 
L 163.956018 25.71667 
L 163.019515 26.055188 
L 163.331683 26.214571 
L 163.019515 26.393723 
L 163.019515 26.5531 
L 163.331683 26.792528 
L 163.019515 26.931197 
L 163.956018 27.409345 
L 163.643851 27.568716 
L 163.643851 27.707747 
L 163.956018 27.886911 
L 163.643851 28.085844 
L 163.956018 28.265214 
L 163.956018 28.783266 
L 163.019515 28.92228 
L 162.395179 29.240663 
L 160.5742 29.698776 
L 160.262032 29.997743 
L 160.262032 30.196682 
L 160.886368 30.35607 
L 160.886368 30.734167 
L 161.198536 30.873769 
L 160.886368 31.013156 
L 161.198536 31.311773 
L 161.198536 31.47115 
L 160.886368 31.629956 
L 160.886368 31.989201 
L 161.198536 32.147291 
L 160.5742 32.30702 
L 160.5742 32.904402 
L 160.886368 33.044004 
L 160.886368 33.501789 
L 160.5742 33.66116 
L 160.5742 33.999695 
L 161.198536 34.139669 
L 160.886368 34.298109 
L 160.886368 34.577301 
L 161.198536 34.696557 
L 161.198536 35.532636 
L 161.770844 35.851769 
L 161.198536 36.010939 
L 161.458676 36.190298 
L 161.458676 36.329329 
L 161.198536 36.56876 
L 161.198536 36.906555 
L 160.886368 37.066296 
L 161.198536 37.285021 
L 160.5742 37.603764 
L 160.5742 37.942299 
L 160.886368 38.101682 
L 160.886368 38.818313 
L 161.198536 38.99785 
L 161.198536 39.654766 
L 161.458676 39.833929 
L 161.458676 40.172464 
L 161.198536 40.351617 
L 161.458676 40.590687 
L 160.262032 41.287516 
L 160.262032 41.446893 
L 159.637697 41.745854 
L 159.637697 41.904666 
L 160.262032 42.064055 
L 159.949865 42.243207 
L 159.325529 42.382791 
L 159.637697 42.661425 
L 159.949865 42.781246 
L 159.637697 42.980179 
L 159.949865 43.179123 
L 159.949865 43.478096 
L 159.637697 43.657248 
L 159.637697 43.995783 
L 159.013361 44.334306 
L 159.013361 44.593153 
L 158.389025 44.732737 
L 158.389025 45.270211 
L 159.013361 45.588977 
L 158.701193 45.768129 
L 158.701193 45.927506 
L 158.389025 46.106658 
L 158.701193 46.266041 
L 158.389025 46.464973 
L 158.701193 46.723826 
L 158.389025 46.863416 
L 158.389025 47.221732 
L 159.013361 47.580059 
L 159.013361 47.739052 
L 158.701193 47.918588 
L 154.695039 49.173182 
L 154.434899 49.351948 
L 154.434899 49.532058 
L 155.007207 49.910165 
L 154.434899 50.228908 
L 154.434899 50.607005 
L 154.695039 50.846075 
L 154.695039 51.164829 
L 154.434899 51.324201 
L 154.434899 52.041223 
L 154.122732 52.200203 
L 154.434899 52.378976 
L 154.434899 52.538744 
L 153.810564 52.697718 
L 153.810564 53.295882 
L 153.498396 53.43508 
L 153.498396 53.972554 
L 153.810564 54.152283 
L 153.810564 54.291314 
L 153.498396 54.451078 
L 154.122732 54.650029 
L 153.498396 55.227223 
L 153.498396 55.3866 
L 152.87406 55.704947 
L 153.186228 55.904287 
L 152.87406 56.084004 
L 152.87406 56.780854 
L 152.561892 57.059475 
L 152.561892 57.39801 
L 152.87406 57.556995 
L 152.87406 57.736551 
L 152.249725 57.895916 
L 152.561892 58.055299 
L 152.249725 58.23445 
L 152.249725 59.568808 
L 151.937557 59.748926 
L 152.561892 59.887569 
L 152.249725 60.06672 
L 152.249725 60.246443 
L 152.561892 60.365699 
L 152.249725 60.544851 
L 152.249725 60.863203 
L 152.87406 61.440815 
L 152.561892 61.600588 
L 152.561892 61.79993 
L 152.249725 61.958898 
L 152.561892 62.158812 
L 152.561892 62.337565 
L 151.937557 62.695869 
L 152.249725 62.875033 
L 152.249725 63.05419 
L 151.937557 63.29325 
L 152.249725 63.452633 
L 152.249725 63.61201 
L 151.937557 63.7516 
L 151.937557 63.931164 
L 152.249725 64.050014 
L 151.937557 64.209385 
L 152.249725 64.368768 
L 151.937557 64.547919 
L 151.937557 64.727642 
L 151.625389 64.906794 
L 152.249725 65.085964 
L 151.625389 65.36417 
L 151.937557 65.523962 
L 151.937557 65.882434 
L 151.625389 66.041648 
L 152.249725 66.241574 
L 151.937557 66.400945 
L 152.249725 66.540138 
L 151.313221 66.69893 
L 151.053081 66.858302 
L 151.053081 66.998309 
L 151.625389 67.276537 
L 151.625389 67.415722 
L 151.937557 67.555324 
L 151.937557 68.292713 
L 151.625389 68.452083 
L 149.492242 69.009859 
L 148.867906 69.467631 
L 149.180074 69.627015 
L 148.867906 69.825947 
L 148.867906 70.304078 
L 148.555739 70.463448 
L 148.867906 70.622832 
L 148.555739 70.802398 
L 148.867906 70.921805 
L 148.867906 71.359809 
L 148.555739 71.499398 
L 148.555739 71.678556 
L 148.867906 71.837939 
L 148.555739 72.036871 
L 148.867906 72.236382 
L 148.555739 72.415533 
L 148.555739 72.773848 
L 148.243571 72.953565 
L 148.243571 73.092596 
L 147.931403 73.271747 
L 147.931403 73.550939 
L 148.555739 73.869706 
L 148.555739 74.207821 
L 148.243571 74.367611 
L 148.243571 74.865523 
L 148.555739 75.044687 
L 148.243571 75.204057 
L 148.243571 75.801438 
L 148.555739 75.981168 
L 148.243571 76.160742 
L 148.867906 76.518647 
L 148.555739 76.638456 
L 148.555739 77.554166 
L 148.867906 77.733331 
L 148.867906 77.873351 
L 148.555739 78.052503 
L 148.555739 78.570621 
L 149.180074 78.888962 
L 148.867906 79.048759 
L 149.180074 79.187508 
L 148.867906 79.347305 
L 148.867906 79.605724 
L 148.555739 79.765522 
L 150.428746 80.900981 
L 150.116578 81.079703 
L 150.428746 81.258867 
L 150.428746 81.697865 
L 151.313221 81.857261 
L 151.625389 82.036425 
L 152.561892 82.415107 
L 154.695039 83.789205 
L 154.695039 83.928668 
L 155.631543 84.207881 
L 155.631543 84.347477 
L 155.319375 84.526628 
L 155.319375 85.502671 
L 155.631543 85.780869 
L 155.631543 86.458939 
L 155.319375 86.717342 
L 155.319375 87.116221 
L 156.255878 87.474557 
L 155.943711 87.713178 
L 155.943711 87.893339 
L 156.255878 88.072504 
L 155.943711 88.251216 
L 155.943711 88.649658 
L 155.319375 88.78968 
L 155.631543 88.968844 
L 155.631543 89.148002 
L 155.943711 89.466323 
L 156.255878 89.745522 
L 155.631543 89.904885 
L 155.943711 90.064268 
L 155.943711 90.243426 
L 154.434899 90.860554 
L 154.434899 91.0605 
L 154.122732 91.258989 
L 154.122732 92.215694 
L 154.434899 92.374634 
L 154.434899 92.514674 
L 154.695039 92.674056 
L 154.122732 92.953236 
L 154.122732 93.251199 
L 153.498396 93.550604 
L 153.498396 93.889138 
L 154.122732 94.167898 
L 154.122732 94.307494 
L 153.810564 94.487091 
L 154.434899 94.646035 
L 154.434899 94.864754 
L 154.122732 95.084032 
L 154.122732 95.263637 
L 153.810564 95.423007 
L 153.810564 95.562603 
L 153.498396 95.921477 
L 153.498396 96.359032 
L 153.186228 96.499071 
L 153.186228 96.817375 
L 153.498396 96.977208 
L 153.498396 97.534577 
L 153.186228 97.793416 
L 153.186228 98.929287 
L 153.498396 99.109017 
L 152.87406 99.26838 
L 153.186228 99.427764 
L 153.186228 100.243975 
L 152.87406 100.423126 
L 152.87406 100.801787 
L 152.249725 100.961605 
L 152.249725 101.32003 
L 151.937557 101.45951 
L 151.937557 101.758026 
L 151.625389 102.13668 
L 151.625389 102.315838 
L 151.053081 102.674705 
L 147.046927 103.570968 
L 147.046927 103.750125 
L 146.422592 104.128772 
L 146.422592 104.428205 
L 145.486088 104.806384 
L 145.486088 104.985542 
L 144.861753 105.284039 
L 145.17392 105.463665 
L 145.17392 105.961576 
L 144.861753 106.101164 
L 145.486088 106.459493 
L 145.17392 106.658527 
L 145.17392 107.018334 
L 145.486088 107.177254 
L 145.486088 107.33663 
L 146.422592 107.77512 
L 146.422592 107.994404 
L 146.110424 108.113182 
L 144.289445 108.472021 
L 143.352941 108.96991 
L 143.352941 109.129287 
L 142.416438 109.845993 
L 142.10427 110.085518 
L 142.10427 110.743371 
L 141.792102 110.882959 
L 141.792102 111.419962 
L 141.479934 111.579331 
L 142.10427 111.978822 
L 141.792102 112.157502 
L 142.10427 112.317356 
L 141.792102 112.476726 
L 141.792102 112.795479 
L 141.479934 112.974158 
L 141.479934 113.154352 
L 141.167767 113.313249 
L 141.479934 113.473105 
L 141.479934 114.030923 
L 141.792102 114.189834 
L 141.479934 114.368984 
L 141.479934 114.687737 
L 141.167767 114.827325 
L 141.479934 115.00649 
L 140.907627 115.185634 
L 140.907627 115.345575 
L 141.479934 115.664817 
L 141.479934 116.242416 
L 141.167767 116.401785 
L 141.792102 116.600826 
L 141.479934 116.779976 
L 141.479934 116.939353 
L 141.792102 117.059087 
L 141.479934 117.258106 
L 141.792102 117.417489 
L 141.792102 117.577343 
L 141.479934 117.756016 
L 141.479934 118.852349 
L 141.792102 119.031599 
L 141.792102 119.729493 
L 142.10427 119.868531 
L 141.792102 120.127935 
L 141.792102 120.605583 
L 141.479934 120.784733 
L 141.792102 120.964945 
L 141.792102 121.482636 
L 141.479934 121.641522 
L 141.479934 122.219686 
L 141.167767 122.379539 
L 141.479934 122.518093 
L 141.479934 122.857192 
L 141.167767 123.036826 
L 141.479934 123.19621 
L 141.479934 123.375447 
L 141.792102 123.574393 
L 141.479934 123.713981 
L 141.479934 123.913405 
L 141.167767 124.152541 
L 141.167767 124.312405 
L 141.479934 124.491082 
L 141.167767 124.670232 
L 141.167767 125.188488 
L 141.479934 125.328091 
L 141.479934 126.005647 
L 141.167767 126.244781 
L 141.167767 128.197425 
L 140.595459 128.496383 
L 140.907627 128.635421 
L 140.907627 128.834924 
L 141.167767 129.134396 
L 141.167767 130.429755 
L 141.479934 130.60892 
L 141.167767 130.787574 
L 141.167767 131.326107 
L 140.595459 131.64435 
L 141.167767 131.824086 
L 141.167767 132.142839 
L 140.907627 132.401678 
L 140.907627 132.879807 
L 141.167767 133.079317 
L 140.907627 133.218906 
L 141.167767 133.398069 
L 141.167767 133.577792 
L 141.479934 133.737176 
L 141.479934 134.514777 
L 141.792102 134.693442 
L 141.167767 135.032461 
L 141.479934 135.19191 
L 141.479934 135.390848 
L 141.792102 135.530451 
L 141.792102 135.849706 
L 142.10427 136.008588 
L 141.792102 136.167957 
L 141.792102 136.447148 
L 142.10427 136.586751 
L 142.10427 136.945569 
L 141.792102 137.104434 
L 142.10427 137.284164 
L 141.792102 137.483095 
L 141.792102 137.642471 
L 142.10427 137.822201 
L 141.479934 138.121158 
L 141.792102 138.360736 
L 141.792102 138.679489 
L 141.479934 138.858639 
L 141.479934 139.176885 
L 142.10427 139.516507 
L 141.792102 139.675368 
L 142.10427 139.854533 
L 142.10427 140.592073 
L 142.416438 140.751457 
L 142.10427 140.891045 
L 142.10427 141.070711 
L 142.416438 141.249933 
L 142.10427 141.429591 
L 142.10427 141.587949 
L 142.728606 141.927008 
L 142.728606 142.266106 
L 143.040774 142.505179 
L 142.728606 142.664547 
L 142.728606 143.362473 
L 142.416438 143.521329 
L 142.416438 143.880209 
L 142.10427 144.059358 
L 142.10427 144.657302 
L 143.352941 145.176104 
L 143.665109 145.315193 
L 143.665109 145.454789 
L 143.977277 145.653735 
L 143.977277 145.813111 
L 145.486088 146.291844 
L 144.861753 146.5908 
L 144.861753 146.769958 
L 143.665109 147.089197 
L 143.665109 147.248057 
L 143.977277 147.428304 
L 143.977277 147.587163 
L 144.289445 147.785592 
L 144.289445 147.945486 
L 144.861753 148.244472 
L 144.549585 148.424187 
L 145.17392 148.663268 
L 145.17392 148.862771 
L 147.671263 149.560248 
L 147.671263 149.699843 
L 148.555739 150.058181 
L 148.555739 150.656125 
L 148.867906 150.835856 
L 148.867906 152.110868 
L 149.492242 152.469763 
L 149.180074 152.669258 
L 149.180074 152.967706 
L 149.492242 153.127615 
L 148.867906 153.64533 
L 148.867906 153.824487 
L 148.555739 153.983855 
L 148.867906 154.14324 
L 150.428746 154.521414 
L 151.625389 154.920977 
L 151.313221 155.080345 
L 152.561892 155.877259 
L 152.249725 156.056974 
L 153.186228 156.634596 
L 153.186228 156.774721 
L 154.122732 157.113315 
L 155.007207 157.591997 
L 155.007207 157.850312 
L 155.319375 158.010793 
L 155.319375 158.149292 
L 155.943711 158.607657 
L 155.319375 158.767582 
L 155.631543 158.986309 
L 155.631543 159.165499 
L 155.943711 159.365543 
L 155.631543 159.524911 
L 155.943711 159.723857 
L 155.943711 160.062955 
L 157.50455 160.361435 
L 159.325529 160.779704 
L 159.325529 160.919835 
L 160.262032 161.218831 
L 160.886368 161.537601 
L 160.5742 161.696998 
L 160.5742 161.876155 
L 160.886368 162.055321 
L 160.262032 162.254807 
L 160.262032 162.513652 
L 158.076858 163.091756 
L 154.434899 163.490099 
L 150.740913 163.949453 
L 149.80441 164.128045 
L 147.931403 164.786386 
L 147.931403 165.005129 
L 147.671263 165.18482 
L 147.671263 165.881691 
L 147.359095 166.041058 
L 147.359095 166.201 
L 147.046927 166.420275 
L 147.046927 166.559305 
L 146.73476 166.71978 
L 145.17392 167.217105 
L 145.17392 167.396827 
L 144.549585 167.53584 
L 144.549585 167.695781 
L 143.977277 168.05408 
L 143.977277 168.71193 
L 144.289445 168.89166 
L 144.289445 169.051036 
L 143.977277 169.210404 
L 143.977277 169.36978 
L 143.665109 169.489586 
L 143.977277 169.628624 
L 143.977277 169.947942 
L 143.665109 170.107857 
L 143.977277 170.246913 
L 143.977277 170.505758 
L 144.289445 170.705817 
L 143.977277 170.844856 
L 143.977277 171.064139 
L 144.289445 171.243304 
L 143.977277 171.423567 
L 143.977277 171.74177 
L 143.665109 171.881356 
L 143.665109 172.020952 
L 143.977277 172.14021 
L 143.977277 173.515265 
L 145.486088 174.432553 
L 145.486088 175.050276 
L 145.798256 175.129973 
L 145.486088 175.249779 
L 146.110424 175.528986 
L 146.110424 175.887865 
L 146.422592 176.106592 
L 151.313221 177.142123 
L 151.313221 177.262494 
L 152.561892 177.681871 
L 153.810564 178.060007 
L 154.695039 178.399122 
L 155.007207 178.578295 
L 155.007207 178.916827 
L 155.943711 179.315858 
L 156.568046 179.713756 
L 157.50455 180.093001 
L 157.816718 180.232605 
L 157.816718 180.889893 
L 158.076858 181.029495 
L 158.076858 181.448843 
L 158.389025 181.607665 
L 158.389025 181.806602 
L 158.701193 181.986895 
L 158.701193 182.424899 
L 159.013361 182.64419 
L 158.076858 183.161853 
L 158.389025 183.441616 
L 156.880214 183.899921 
L 156.880214 184.059296 
L 156.255878 184.278562 
L 156.255878 184.437938 
L 155.943711 184.597305 
L 155.943711 185.872876 
L 156.255878 186.012479 
L 156.255878 186.21255 
L 155.007207 186.809888 
L 153.186228 187.407778 
L 152.561892 187.586911 
L 152.561892 187.766068 
L 151.313221 187.946324 
L 149.180074 188.583767 
L 144.549585 189.221131 
L 143.352941 189.46016 
L 143.977277 189.779502 
L 143.977277 189.959224 
L 139.971123 190.79554 
L 137.213641 192.250751 
L 137.213641 192.590425 
L 136.901473 192.768995 
L 136.901473 192.928948 
L 135.964969 193.28722 
L 135.652802 193.467511 
L 135.652802 193.665869 
L 135.028466 193.826371 
L 135.028466 194.104996 
L 134.14399 194.443488 
L 133.207487 194.802919 
L 133.207487 194.941933 
L 130.762172 195.759086 
L 129.825669 196.337218 
L 129.825669 196.477396 
L 129.513501 196.65596 
L 128.576997 196.856018 
L 127.952662 197.234075 
L 127.380354 197.393434 
L 127.380354 197.573155 
L 127.068186 197.733106 
L 127.068186 198.031491 
L 126.131683 198.709677 
L 126.756018 199.068572 
L 126.131683 199.247689 
L 126.131683 199.80609 
L 126.443851 199.965474 
L 125.819515 200.383653 
L 126.131683 200.543037 
L 125.819515 200.702968 
L 126.131683 200.802445 
L 126.131683 201.26079 
L 125.819515 201.381185 
L 125.819515 202.317631 
L 126.131683 202.517168 
L 126.131683 202.855673 
L 125.507347 203.01503 
L 125.507347 203.773503 
L 125.195179 204.032338 
L 125.507347 204.152161 
L 125.195179 204.351654 
L 125.195179 204.510435 
L 125.507347 204.690194 
L 125.507347 204.908882 
L 125.195179 205.068248 
L 125.195179 205.786002 
L 124.570844 206.184987 
L 124.883011 206.344371 
L 124.570844 206.503737 
L 124.570844 206.663113 
L 124.883011 206.802716 
L 122.437697 207.321495 
L 121.189025 207.500582 
L 116.298396 207.879697 
L 111.043571 208.297731 
L 108.598256 208.636757 
L 100.637976 209.912095 
L 99.389305 210.191248 
L 96.007487 210.530247 
L 91.376997 210.848866 
L 84.301193 211.406439 
L 81.543711 211.745495 
L 80.034899 212.084548 
L 79.410564 212.284032 
L 77.849725 212.54283 
L 76.653081 212.881892 
L 76.653081 213.061612 
L 75.716578 213.380336 
L 75.40441 213.539701 
L 75.40441 213.859016 
L 75.092242 214.057335 
L 75.092242 214.277225 
L 73.271263 215.153689 
L 73.583431 215.353809 
L 72.022592 216.270406 
L 72.022592 216.6095 
L 71.086088 216.98813 
L 71.710424 217.327242 
L 71.710424 217.846105 
L 71.398256 218.065377 
L 71.398256 218.384127 
L 71.710424 218.52373 
L 70.513781 219.161144 
L 70.513781 219.321134 
L 69.577277 219.619461 
L 68.016438 219.93873 
L 68.016438 220.078941 
L 68.328606 220.357521 
L 68.952941 220.497184 
L 68.952941 220.636161 
L 69.265109 220.836288 
L 68.952941 221.015382 
L 67.131962 221.573759 
L 67.131962 221.752861 
L 67.70427 221.892471 
L 67.70427 222.072245 
L 66.819795 222.630596 
L 66.507627 222.809687 
L 66.819795 222.949345 
L 66.819795 223.128445 
L 67.131962 223.248888 
L 67.131962 223.447824 
L 66.819795 223.607133 
L 66.819795 224.125383 
L 67.131962 224.544796 
L 67.131962 224.743109 
L 67.392102 224.903056 
L 67.392102 225.04265 
L 67.131962 225.202017 
L 67.131962 225.381172 
L 66.819795 225.561507 
L 66.819795 226.059352 
L 67.392102 226.617804 
L 67.392102 226.796899 
L 67.131962 226.956891 
L 67.131962 227.276206 
L 67.392102 227.455368 
L 67.392102 227.614743 
L 67.131962 227.794456 
L 67.131962 227.973611 
L 66.819795 228.113196 
L 67.131962 228.392393 
L 66.507627 228.691344 
L 66.507627 228.870436 
L 66.507627 228.870436 
" clip-path="url(#pabc0ad279b)" style="fill: none; stroke: #e377c2; stroke-width: 1.5; stroke-linecap: square"/>
   </g>
   <g id="line2d_19"/>
   <g id="line2d_20"/>
   <g id="patch_3">
    <path d="M 53.019375 228.96 
L 53.019375 7.2 
" style="fill: none; stroke: #000000; stroke-width: 0.8; stroke-linejoin: miter; stroke-linecap: square"/>
   </g>
   <g id="patch_4">
    <path d="M 220.419375 228.96 
L 220.419375 7.2 
" style="fill: none; stroke: #000000; stroke-width: 0.8; stroke-linejoin: miter; stroke-linecap: square"/>
   </g>
   <g id="patch_5">
    <path d="M 53.019375 228.96 
L 220.419375 228.96 
" style="fill: none; stroke: #000000; stroke-width: 0.8; stroke-linejoin: miter; stroke-linecap: square"/>
   </g>
   <g id="patch_6">
    <path d="M 53.019375 7.2 
L 220.419375 7.2 
" style="fill: none; stroke: #000000; stroke-width: 0.8; stroke-linejoin: miter; stroke-linecap: square"/>
   </g>
   <g id="legend_1">
    <g id="patch_7">
     <path d="M 64.819375 61.49875 
L 131.765625 61.49875 
Q 134.565625 61.49875 134.565625 58.69875 
L 134.565625 19 
Q 134.565625 16.2 131.765625 16.2 
L 64.819375 16.2 
Q 62.019375 16.2 62.019375 19 
L 62.019375 58.69875 
Q 62.019375 61.49875 64.819375 61.49875 
z
" style="fill: #4d4d4d; opacity: 0.5; stroke: #4d4d4d; stroke-linejoin: miter"/>
    </g>
    <g id="patch_8">
     <path d="M 62.819375 59.49875 
L 129.765625 59.49875 
Q 132.565625 59.49875 132.565625 56.69875 
L 132.565625 17 
Q 132.565625 14.2 129.765625 14.2 
L 62.819375 14.2 
Q 60.019375 14.2 60.019375 17 
L 60.019375 56.69875 
Q 60.019375 59.49875 62.819375 59.49875 
z
" style="fill: #ffffff; stroke: #cccccc; stroke-linejoin: miter"/>
    </g>
    <g id="line2d_21">
     <path d="M 65.619375 25.537813 
L 72.619375 25.537813 
L 79.619375 25.537813 
" style="fill: none; stroke: #8c564b; stroke-width: 1.5; stroke-linecap: square"/>
    </g>
    <g id="text_11">
     <!-- 14:55 -->
     <g transform="translate(86.619375 30.437813) scale(0.14 -0.14)">
      <defs>
       <path id="DejaVuSans-31" d="M 794 531 
L 1825 531 
L 1825 4091 
L 703 3866 
L 703 4441 
L 1819 4666 
L 2450 4666 
L 2450 531 
L 3481 531 
L 3481 0 
L 794 0 
L 794 531 
z
" transform="scale(0.015625)"/>
       <path id="DejaVuSans-34" d="M 2419 4116 
L 825 1625 
L 2419 1625 
L 2419 4116 
z
M 2253 4666 
L 3047 4666 
L 3047 1625 
L 3713 1625 
L 3713 1100 
L 3047 1100 
L 3047 0 
L 2419 0 
L 2419 1100 
L 313 1100 
L 313 1709 
L 2253 4666 
z
" transform="scale(0.015625)"/>
       <path id="DejaVuSans-3a" d="M 750 794 
L 1409 794 
L 1409 0 
L 750 0 
L 750 794 
z
M 750 3309 
L 1409 3309 
L 1409 2516 
L 750 2516 
L 750 3309 
z
" transform="scale(0.015625)"/>
      </defs>
      <use xlink:href="#DejaVuSans-31"/>
      <use xlink:href="#DejaVuSans-34" transform="translate(63.623047 0)"/>
      <use xlink:href="#DejaVuSans-3a" transform="translate(127.246094 0)"/>
      <use xlink:href="#DejaVuSans-35" transform="translate(160.9375 0)"/>
      <use xlink:href="#DejaVuSans-35" transform="translate(224.560547 0)"/>
     </g>
    </g>
    <g id="line2d_22">
     <path d="M 65.619375 46.087188 
L 72.619375 46.087188 
L 79.619375 46.087188 
" style="fill: none; stroke: #e377c2; stroke-width: 1.5; stroke-linecap: square"/>
    </g>
    <g id="text_12">
     <!-- 17:08 -->
     <g transform="translate(86.619375 50.987188) scale(0.14 -0.14)">
      <use xlink:href="#DejaVuSans-31"/>
      <use xlink:href="#DejaVuSans-37" transform="translate(63.623047 0)"/>
      <use xlink:href="#DejaVuSans-3a" transform="translate(127.246094 0)"/>
      <use xlink:href="#DejaVuSans-30" transform="translate(160.9375 0)"/>
      <use xlink:href="#DejaVuSans-38" transform="translate(224.560547 0)"/>
     </g>
    </g>
   </g>
  </g>
 </g>
 <defs>
  <clipPath id="pabc0ad279b">
   <rect x="53.019375" y="7.2" width="167.4" height="221.76"/>
  </clipPath>
 </defs>
</svg>
