<?xml version="1.0" encoding="utf-8" standalone="no"?>
<!DOCTYPE svg PUBLIC "-//W3C//DTD SVG 1.1//EN"
  "http://www.w3.org/Graphics/SVG/1.1/DTD/svg11.dtd">
<svg xmlns:xlink="http://www.w3.org/1999/xlink" width="293.4pt" height="125.28pt" viewBox="0 0 293.4 125.28" xmlns="http://www.w3.org/2000/svg" version="1.1">
 <metadata>
  <rdf:RDF xmlns:dc="http://purl.org/dc/elements/1.1/" xmlns:cc="http://creativecommons.org/ns#" xmlns:rdf="http://www.w3.org/1999/02/22-rdf-syntax-ns#">
   <cc:Work>
    <dc:type rdf:resource="http://purl.org/dc/dcmitype/StillImage"/>
    <dc:date>2026-03-15T18:36:59.729483</dc:date>
    <dc:format>image/svg+xml</dc:format>
    <dc:creator>
     <cc:Agent>
      <dc:title>Matplotlib v3.10.6, https://matplotlib.org/</dc:title>
     </cc:Agent>
    </dc:creator>
   </cc:Work>
  </rdf:RDF>
 </metadata>
 <defs>
  <style type="text/css">*{stroke-linejoin: round; stroke-linecap: butt}</style>
 </defs>
 <g id="figure_1">
  <g id="patch_1">
   <path d="M 0 125.28 
L 293.4 125.28 
L 293.4 0 
L 0 0 
z
" style="fill: #ffffff"/>
  </g>
  <g id="axes_1">
   <g id="patch_2">
    <path d="M 8.595 62.64 
L 21.15 58.482 
L 21.15 61.254 
L 146.7 61.254 
L 146.7 64.026 
L 21.15 64.026 
L 21.15 66.798 
z
" clip-path="url(#pb8950e4ab7)" style="stroke: #000000; stroke-linejoin: miter"/>
   </g>
   <g id="patch_3">
    <path d="M 284.805 62.64 
L 272.25 66.798 
L 272.25 64.026 
L 146.7 64.026 
L 146.7 61.254 
L 272.25 61.254 
L 272.25 58.482 
z
" clip-path="url(#pb8950e4ab7)" style="stroke: #000000; stroke-linejoin: miter"/>
   </g>
   <g id="patch_4">
    <path d="M 63 118.08 
L 104.85 118.08 
L 104.85 7.2 
L 63 7.2 
z
" clip-path="url(#pb8950e4ab7)" style="fill: #c0c0c0; opacity: 0.7; stroke: #c0c0c0; stroke-linejoin: miter"/>
   </g>
   <g id="patch_5">
    <path d="M 160.65 118.08 
L 202.5 118.08 
L 202.5 7.2 
L 160.65 7.2 
z
" clip-path="url(#pb8950e4ab7)" style="fill: #ffa500; opacity: 0.5; stroke: #ffa500; stroke-linejoin: miter"/>
   </g>
   <g id="patch_6">
    <path d="M 230.4 118.08 
L 241.56 118.08 
L 241.56 7.2 
L 230.4 7.2 
z
" clip-path="url(#pb8950e4ab7)" style="fill: #800080; opacity: 0.5; stroke: #800080; stroke-linejoin: miter"/>
   </g>
   <g id="patch_7">
    <path d="M 247.14 118.08 
L 258.3 118.08 
L 258.3 7.2 
L 247.14 7.2 
z
" clip-path="url(#pb8950e4ab7)" style="fill: #e377c2; opacity: 0.5; stroke: #e377c2; stroke-linejoin: miter"/>
   </g>
  </g>
 </g>
 <defs>
  <clipPath id="pb8950e4ab7">
   <rect x="7.2" y="7.2" width="279" height="110.88"/>
  </clipPath>
 </defs>
</svg>
