<?xml version="1.0" encoding="utf-8" standalone="no"?>
<!DOCTYPE svg PUBLIC "-//W3C//DTD SVG 1.1//EN"
  "http://www.w3.org/Graphics/SVG/1.1/DTD/svg11.dtd">
<svg xmlns:xlink="http://www.w3.org/1999/xlink" width="509.04pt" height="278.323125pt" viewBox="0 0 509.04 278.323125" xmlns="http://www.w3.org/2000/svg" version="1.1">
 <metadata>
  <rdf:RDF xmlns:dc="http://purl.org/dc/elements/1.1/" xmlns:cc="http://creativecommons.org/ns#" xmlns:rdf="http://www.w3.org/1999/02/22-rdf-syntax-ns#">
   <cc:Work>
    <dc:type rdf:resource="http://purl.org/dc/dcmitype/StillImage"/>
    <dc:date>2026-05-21T17:24:43.698911</dc:date>
    <dc:format>image/svg+xml</dc:format>
    <dc:creator>
     <cc:Agent>
      <dc:title>Matplotlib v3.10.6, https://matplotlib.org/</dc:title>
     </cc:Agent>
    </dc:creator>
   </cc:Work>
  </rdf:RDF>
 </metadata>
 <defs>
  <style type="text/css">*{stroke-linejoin: round; stroke-linecap: butt}</style>
 </defs>
 <g id="figure_1">
  <g id="patch_1">
   <path d="M 0 278.323125 
L 509.04 278.323125 
L 509.04 0 
L 0 0 
z
" style="fill: #ffffff"/>
  </g>
  <g id="axes_1">
   <g id="patch_2">
    <path d="M 55.44 228.96 
L 501.84 228.96 
L 501.84 7.2 
L 55.44 7.2 
z
" style="fill: #ffffff"/>
   </g>
   <g id="patch_3">
    <path d="M 190.418656 228.96 
L 306.366708 228.96 
L 306.366708 7.2 
L 190.418656 7.2 
z
" clip-path="url(#pef833212cc)" style="fill: #c0c0c0; opacity: 0.3; stroke: #c0c0c0; stroke-linejoin: miter"/>
   </g>
   <g id="FillBetweenPolyCollection_1"/>
   <g id="FillBetweenPolyCollection_2">
    <path d="M 92.114873 42.165578 
L 92.114873 42.456049 
L 109.759142 47.505549 
L 127.403411 57.976013 
L 140.00646 69.050621 
L 142.527069 66.285142 
L 145.047679 67.925976 
L 190.418656 78.404118 
L 197.980486 79.424056 
L 245.872072 94.405411 
L 258.475121 95.500156 
L 260.995731 96.346532 
L 263.516341 95.89837 
L 298.804879 98.539856 
L 303.846098 97.674548 
L 303.846098 97.396711 
L 303.846098 97.396711 
L 298.804879 98.276664 
L 263.516341 94.989225 
L 260.995731 94.962975 
L 258.475121 95.049577 
L 245.872072 94.050668 
L 197.980486 79.242661 
L 190.418656 78.005216 
L 145.047679 67.652643 
L 142.527069 65.855379 
L 140.00646 65.59295 
L 127.403411 57.798639 
L 109.759142 47.384193 
L 92.114873 42.165578 
z
" clip-path="url(#pef833212cc)" style="fill: #1f77b4; fill-opacity: 0.2; stroke: #1f77b4; stroke-opacity: 0.2"/>
    <path d="M 331.572806 97.69766 
L 331.572806 98.056555 
L 339.134636 95.113217 
L 374.423173 89.528226 
L 374.423173 87.271866 
L 374.423173 87.271866 
L 339.134636 93.578469 
L 331.572806 97.69766 
z
" clip-path="url(#pef833212cc)" style="fill: #1f77b4; fill-opacity: 0.2; stroke: #1f77b4; stroke-opacity: 0.2"/>
    <path d="M 424.83537 70.804849 
L 424.83537 73.024197 
L 427.35598 73.304225 
L 445.000248 83.957327 
L 477.768176 38.88155 
L 480.288786 34.119411 
L 480.288786 33.413794 
L 480.288786 33.413794 
L 477.768176 35.424406 
L 445.000248 83.246116 
L 427.35598 71.109779 
L 424.83537 70.804849 
z
" clip-path="url(#pef833212cc)" style="fill: #1f77b4; fill-opacity: 0.2; stroke: #1f77b4; stroke-opacity: 0.2"/>
   </g>
   <g id="matplotlib.axis_1">
    <g id="xtick_1">
     <g id="line2d_1">
      <defs>
       <path id="m50b299c0c1" d="M 0 0 
L 0 3.5 
" style="stroke: #000000; stroke-width: 0.8"/>
      </defs>
      <g>
       <use xlink:href="#m50b299c0c1" x="76.991214" y="228.96" style="stroke: #000000; stroke-width: 0.8"/>
      </g>
     </g>
     <g id="text_1">
      <!-- 2025-11 -->
      <g transform="translate(51.921527 245.078125) scale(0.12 -0.12)">
       <defs>
        <path id="DejaVuSans-32" d="M 1228 531 
L 3431 531 
L 3431 0 
L 469 0 
L 469 531 
Q 828 903 1448 1529 
Q 2069 2156 2228 2338 
Q 2531 2678 2651 2914 
Q 2772 3150 2772 3378 
Q 2772 3750 2511 3984 
Q 2250 4219 1831 4219 
Q 1534 4219 1204 4116 
Q 875 4013 500 3803 
L 500 4441 
Q 881 4594 1212 4672 
Q 1544 4750 1819 4750 
Q 2544 4750 2975 4387 
Q 3406 4025 3406 3419 
Q 3406 3131 3298 2873 
Q 3191 2616 2906 2266 
Q 2828 2175 2409 1742 
Q 1991 1309 1228 531 
z
" transform="scale(0.015625)"/>
        <path id="DejaVuSans-30" d="M 2034 4250 
Q 1547 4250 1301 3770 
Q 1056 3291 1056 2328 
Q 1056 1369 1301 889 
Q 1547 409 2034 409 
Q 2525 409 2770 889 
Q 3016 1369 3016 2328 
Q 3016 3291 2770 3770 
Q 2525 4250 2034 4250 
z
M 2034 4750 
Q 2819 4750 3233 4129 
Q 3647 3509 3647 2328 
Q 3647 1150 3233 529 
Q 2819 -91 2034 -91 
Q 1250 -91 836 529 
Q 422 1150 422 2328 
Q 422 3509 836 4129 
Q 1250 4750 2034 4750 
z
" transform="scale(0.015625)"/>
        <path id="DejaVuSans-35" d="M 691 4666 
L 3169 4666 
L 3169 4134 
L 1269 4134 
L 1269 2991 
Q 1406 3038 1543 3061 
Q 1681 3084 1819 3084 
Q 2600 3084 3056 2656 
Q 3513 2228 3513 1497 
Q 3513 744 3044 326 
Q 2575 -91 1722 -91 
Q 1428 -91 1123 -41 
Q 819 9 494 109 
L 494 744 
Q 775 591 1075 516 
Q 1375 441 1709 441 
Q 2250 441 2565 725 
Q 2881 1009 2881 1497 
Q 2881 1984 2565 2268 
Q 2250 2553 1709 2553 
Q 1456 2553 1204 2497 
Q 953 2441 691 2322 
L 691 4666 
z
" transform="scale(0.015625)"/>
        <path id="DejaVuSans-2d" d="M 313 2009 
L 1997 2009 
L 1997 1497 
L 313 1497 
L 313 2009 
z
" transform="scale(0.015625)"/>
        <path id="DejaVuSans-31" d="M 794 531 
L 1825 531 
L 1825 4091 
L 703 3866 
L 703 4441 
L 1819 4666 
L 2450 4666 
L 2450 531 
L 3481 531 
L 3481 0 
L 794 0 
L 794 531 
z
" transform="scale(0.015625)"/>
       </defs>
       <use xlink:href="#DejaVuSans-32"/>
       <use xlink:href="#DejaVuSans-30" transform="translate(63.623047 0)"/>
       <use xlink:href="#DejaVuSans-32" transform="translate(127.246094 0)"/>
       <use xlink:href="#DejaVuSans-35" transform="translate(190.869141 0)"/>
       <use xlink:href="#DejaVuSans-2d" transform="translate(254.492188 0)"/>
       <use xlink:href="#DejaVuSans-31" transform="translate(290.576172 0)"/>
       <use xlink:href="#DejaVuSans-31" transform="translate(354.199219 0)"/>
      </g>
     </g>
    </g>
    <g id="xtick_2">
     <g id="line2d_2">
      <g>
       <use xlink:href="#m50b299c0c1" x="152.609509" y="228.96" style="stroke: #000000; stroke-width: 0.8"/>
      </g>
     </g>
     <g id="text_2">
      <!-- 2025-12 -->
      <g transform="translate(127.539821 245.078125) scale(0.12 -0.12)">
       <use xlink:href="#DejaVuSans-32"/>
       <use xlink:href="#DejaVuSans-30" transform="translate(63.623047 0)"/>
       <use xlink:href="#DejaVuSans-32" transform="translate(127.246094 0)"/>
       <use xlink:href="#DejaVuSans-35" transform="translate(190.869141 0)"/>
       <use xlink:href="#DejaVuSans-2d" transform="translate(254.492188 0)"/>
       <use xlink:href="#DejaVuSans-31" transform="translate(290.576172 0)"/>
       <use xlink:href="#DejaVuSans-32" transform="translate(354.199219 0)"/>
      </g>
     </g>
    </g>
    <g id="xtick_3">
     <g id="line2d_3">
      <g>
       <use xlink:href="#m50b299c0c1" x="230.748413" y="228.96" style="stroke: #000000; stroke-width: 0.8"/>
      </g>
     </g>
     <g id="text_3">
      <!-- 2026-01 -->
      <g transform="translate(205.678726 245.078125) scale(0.12 -0.12)">
       <defs>
        <path id="DejaVuSans-36" d="M 2113 2584 
Q 1688 2584 1439 2293 
Q 1191 2003 1191 1497 
Q 1191 994 1439 701 
Q 1688 409 2113 409 
Q 2538 409 2786 701 
Q 3034 994 3034 1497 
Q 3034 2003 2786 2293 
Q 2538 2584 2113 2584 
z
M 3366 4563 
L 3366 3988 
Q 3128 4100 2886 4159 
Q 2644 4219 2406 4219 
Q 1781 4219 1451 3797 
Q 1122 3375 1075 2522 
Q 1259 2794 1537 2939 
Q 1816 3084 2150 3084 
Q 2853 3084 3261 2657 
Q 3669 2231 3669 1497 
Q 3669 778 3244 343 
Q 2819 -91 2113 -91 
Q 1303 -91 875 529 
Q 447 1150 447 2328 
Q 447 3434 972 4092 
Q 1497 4750 2381 4750 
Q 2619 4750 2861 4703 
Q 3103 4656 3366 4563 
z
" transform="scale(0.015625)"/>
       </defs>
       <use xlink:href="#DejaVuSans-32"/>
       <use xlink:href="#DejaVuSans-30" transform="translate(63.623047 0)"/>
       <use xlink:href="#DejaVuSans-32" transform="translate(127.246094 0)"/>
       <use xlink:href="#DejaVuSans-36" transform="translate(190.869141 0)"/>
       <use xlink:href="#DejaVuSans-2d" transform="translate(254.492188 0)"/>
       <use xlink:href="#DejaVuSans-30" transform="translate(290.576172 0)"/>
       <use xlink:href="#DejaVuSans-31" transform="translate(354.199219 0)"/>
      </g>
     </g>
    </g>
    <g id="xtick_4">
     <g id="line2d_4">
      <g>
       <use xlink:href="#m50b299c0c1" x="308.887318" y="228.96" style="stroke: #000000; stroke-width: 0.8"/>
      </g>
     </g>
     <g id="text_4">
      <!-- 2026-02 -->
      <g transform="translate(283.81763 245.078125) scale(0.12 -0.12)">
       <use xlink:href="#DejaVuSans-32"/>
       <use xlink:href="#DejaVuSans-30" transform="translate(63.623047 0)"/>
       <use xlink:href="#DejaVuSans-32" transform="translate(127.246094 0)"/>
       <use xlink:href="#DejaVuSans-36" transform="translate(190.869141 0)"/>
       <use xlink:href="#DejaVuSans-2d" transform="translate(254.492188 0)"/>
       <use xlink:href="#DejaVuSans-30" transform="translate(290.576172 0)"/>
       <use xlink:href="#DejaVuSans-32" transform="translate(354.199219 0)"/>
      </g>
     </g>
    </g>
    <g id="xtick_5">
     <g id="line2d_5">
      <g>
       <use xlink:href="#m50b299c0c1" x="379.464393" y="228.96" style="stroke: #000000; stroke-width: 0.8"/>
      </g>
     </g>
     <g id="text_5">
      <!-- 2026-03 -->
      <g transform="translate(354.394705 245.078125) scale(0.12 -0.12)">
       <defs>
        <path id="DejaVuSans-33" d="M 2597 2516 
Q 3050 2419 3304 2112 
Q 3559 1806 3559 1356 
Q 3559 666 3084 287 
Q 2609 -91 1734 -91 
Q 1441 -91 1130 -33 
Q 819 25 488 141 
L 488 750 
Q 750 597 1062 519 
Q 1375 441 1716 441 
Q 2309 441 2620 675 
Q 2931 909 2931 1356 
Q 2931 1769 2642 2001 
Q 2353 2234 1838 2234 
L 1294 2234 
L 1294 2753 
L 1863 2753 
Q 2328 2753 2575 2939 
Q 2822 3125 2822 3475 
Q 2822 3834 2567 4026 
Q 2313 4219 1838 4219 
Q 1578 4219 1281 4162 
Q 984 4106 628 3988 
L 628 4550 
Q 988 4650 1302 4700 
Q 1616 4750 1894 4750 
Q 2613 4750 3031 4423 
Q 3450 4097 3450 3541 
Q 3450 3153 3228 2886 
Q 3006 2619 2597 2516 
z
" transform="scale(0.015625)"/>
       </defs>
       <use xlink:href="#DejaVuSans-32"/>
       <use xlink:href="#DejaVuSans-30" transform="translate(63.623047 0)"/>
       <use xlink:href="#DejaVuSans-32" transform="translate(127.246094 0)"/>
       <use xlink:href="#DejaVuSans-36" transform="translate(190.869141 0)"/>
       <use xlink:href="#DejaVuSans-2d" transform="translate(254.492188 0)"/>
       <use xlink:href="#DejaVuSans-30" transform="translate(290.576172 0)"/>
       <use xlink:href="#DejaVuSans-33" transform="translate(354.199219 0)"/>
      </g>
     </g>
    </g>
    <g id="xtick_6">
     <g id="line2d_6">
      <g>
       <use xlink:href="#m50b299c0c1" x="457.603298" y="228.96" style="stroke: #000000; stroke-width: 0.8"/>
      </g>
     </g>
     <g id="text_6">
      <!-- 2026-04 -->
      <g transform="translate(432.53361 245.078125) scale(0.12 -0.12)">
       <defs>
        <path id="DejaVuSans-34" d="M 2419 4116 
L 825 1625 
L 2419 1625 
L 2419 4116 
z
M 2253 4666 
L 3047 4666 
L 3047 1625 
L 3713 1625 
L 3713 1100 
L 3047 1100 
L 3047 0 
L 2419 0 
L 2419 1100 
L 313 1100 
L 313 1709 
L 2253 4666 
z
" transform="scale(0.015625)"/>
       </defs>
       <use xlink:href="#DejaVuSans-32"/>
       <use xlink:href="#DejaVuSans-30" transform="translate(63.623047 0)"/>
       <use xlink:href="#DejaVuSans-32" transform="translate(127.246094 0)"/>
       <use xlink:href="#DejaVuSans-36" transform="translate(190.869141 0)"/>
       <use xlink:href="#DejaVuSans-2d" transform="translate(254.492188 0)"/>
       <use xlink:href="#DejaVuSans-30" transform="translate(290.576172 0)"/>
       <use xlink:href="#DejaVuSans-34" transform="translate(354.199219 0)"/>
      </g>
     </g>
    </g>
    <g id="text_7">
     <!-- Time -->
     <g transform="translate(261.512969 268.211563) scale(0.14 -0.14)">
      <defs>
       <path id="DejaVuSans-54" d="M -19 4666 
L 3928 4666 
L 3928 4134 
L 2272 4134 
L 2272 0 
L 1638 0 
L 1638 4134 
L -19 4134 
L -19 4666 
z
" transform="scale(0.015625)"/>
       <path id="DejaVuSans-69" d="M 603 3500 
L 1178 3500 
L 1178 0 
L 603 0 
L 603 3500 
z
M 603 4863 
L 1178 4863 
L 1178 4134 
L 603 4134 
L 603 4863 
z
" transform="scale(0.015625)"/>
       <path id="DejaVuSans-6d" d="M 3328 2828 
Q 3544 3216 3844 3400 
Q 4144 3584 4550 3584 
Q 5097 3584 5394 3201 
Q 5691 2819 5691 2113 
L 5691 0 
L 5113 0 
L 5113 2094 
Q 5113 2597 4934 2840 
Q 4756 3084 4391 3084 
Q 3944 3084 3684 2787 
Q 3425 2491 3425 1978 
L 3425 0 
L 2847 0 
L 2847 2094 
Q 2847 2600 2669 2842 
Q 2491 3084 2119 3084 
Q 1678 3084 1418 2786 
Q 1159 2488 1159 1978 
L 1159 0 
L 581 0 
L 581 3500 
L 1159 3500 
L 1159 2956 
Q 1356 3278 1631 3431 
Q 1906 3584 2284 3584 
Q 2666 3584 2933 3390 
Q 3200 3197 3328 2828 
z
" transform="scale(0.015625)"/>
       <path id="DejaVuSans-65" d="M 3597 1894 
L 3597 1613 
L 953 1613 
Q 991 1019 1311 708 
Q 1631 397 2203 397 
Q 2534 397 2845 478 
Q 3156 559 3463 722 
L 3463 178 
Q 3153 47 2828 -22 
Q 2503 -91 2169 -91 
Q 1331 -91 842 396 
Q 353 884 353 1716 
Q 353 2575 817 3079 
Q 1281 3584 2069 3584 
Q 2775 3584 3186 3129 
Q 3597 2675 3597 1894 
z
M 3022 2063 
Q 3016 2534 2758 2815 
Q 2500 3097 2075 3097 
Q 1594 3097 1305 2825 
Q 1016 2553 972 2059 
L 3022 2063 
z
" transform="scale(0.015625)"/>
      </defs>
      <use xlink:href="#DejaVuSans-54"/>
      <use xlink:href="#DejaVuSans-69" transform="translate(57.958984 0)"/>
      <use xlink:href="#DejaVuSans-6d" transform="translate(85.742188 0)"/>
      <use xlink:href="#DejaVuSans-65" transform="translate(183.154297 0)"/>
     </g>
    </g>
   </g>
   <g id="matplotlib.axis_2">
    <g id="ytick_1">
     <g id="line2d_7">
      <defs>
       <path id="ma6be377813" d="M 0 0 
L -3.5 0 
" style="stroke: #000000; stroke-width: 0.8"/>
      </defs>
      <g>
       <use xlink:href="#ma6be377813" x="55.44" y="187.108055" style="stroke: #000000; stroke-width: 0.8"/>
      </g>
     </g>
     <g id="text_8">
      <!-- −5 -->
      <g transform="translate(30.749375 191.667117) scale(0.12 -0.12)">
       <defs>
        <path id="DejaVuSans-2212" d="M 678 2272 
L 4684 2272 
L 4684 1741 
L 678 1741 
L 678 2272 
z
" transform="scale(0.015625)"/>
       </defs>
       <use xlink:href="#DejaVuSans-2212"/>
       <use xlink:href="#DejaVuSans-35" transform="translate(83.789062 0)"/>
      </g>
     </g>
    </g>
    <g id="ytick_2">
     <g id="line2d_8">
      <g>
       <use xlink:href="#ma6be377813" x="55.44" y="145.056951" style="stroke: #000000; stroke-width: 0.8"/>
      </g>
     </g>
     <g id="text_9">
      <!-- 0 -->
      <g transform="translate(40.805 149.616014) scale(0.12 -0.12)">
       <use xlink:href="#DejaVuSans-30"/>
      </g>
     </g>
    </g>
    <g id="ytick_3">
     <g id="line2d_9">
      <g>
       <use xlink:href="#ma6be377813" x="55.44" y="103.005847" style="stroke: #000000; stroke-width: 0.8"/>
      </g>
     </g>
     <g id="text_10">
      <!-- 5 -->
      <g transform="translate(40.805 107.56491) scale(0.12 -0.12)">
       <use xlink:href="#DejaVuSans-35"/>
      </g>
     </g>
    </g>
    <g id="ytick_4">
     <g id="line2d_10">
      <g>
       <use xlink:href="#ma6be377813" x="55.44" y="60.954744" style="stroke: #000000; stroke-width: 0.8"/>
      </g>
     </g>
     <g id="text_11">
      <!-- 10 -->
      <g transform="translate(33.17 65.513806) scale(0.12 -0.12)">
       <use xlink:href="#DejaVuSans-31"/>
       <use xlink:href="#DejaVuSans-30" transform="translate(63.623047 0)"/>
      </g>
     </g>
    </g>
    <g id="ytick_5">
     <g id="line2d_11">
      <g>
       <use xlink:href="#ma6be377813" x="55.44" y="18.90364" style="stroke: #000000; stroke-width: 0.8"/>
      </g>
     </g>
     <g id="text_12">
      <!-- 15 -->
      <g transform="translate(33.17 23.462702) scale(0.12 -0.12)">
       <use xlink:href="#DejaVuSans-31"/>
       <use xlink:href="#DejaVuSans-35" transform="translate(63.623047 0)"/>
      </g>
     </g>
    </g>
    <g id="text_13">
     <!-- Temperature [°C] -->
     <g transform="translate(17.837812 178.492188) rotate(-90) scale(0.14 -0.14)">
      <defs>
       <path id="DejaVuSans-70" d="M 1159 525 
L 1159 -1331 
L 581 -1331 
L 581 3500 
L 1159 3500 
L 1159 2969 
Q 1341 3281 1617 3432 
Q 1894 3584 2278 3584 
Q 2916 3584 3314 3078 
Q 3713 2572 3713 1747 
Q 3713 922 3314 415 
Q 2916 -91 2278 -91 
Q 1894 -91 1617 61 
Q 1341 213 1159 525 
z
M 3116 1747 
Q 3116 2381 2855 2742 
Q 2594 3103 2138 3103 
Q 1681 3103 1420 2742 
Q 1159 2381 1159 1747 
Q 1159 1113 1420 752 
Q 1681 391 2138 391 
Q 2594 391 2855 752 
Q 3116 1113 3116 1747 
z
" transform="scale(0.015625)"/>
       <path id="DejaVuSans-72" d="M 2631 2963 
Q 2534 3019 2420 3045 
Q 2306 3072 2169 3072 
Q 1681 3072 1420 2755 
Q 1159 2438 1159 1844 
L 1159 0 
L 581 0 
L 581 3500 
L 1159 3500 
L 1159 2956 
Q 1341 3275 1631 3429 
Q 1922 3584 2338 3584 
Q 2397 3584 2469 3576 
Q 2541 3569 2628 3553 
L 2631 2963 
z
" transform="scale(0.015625)"/>
       <path id="DejaVuSans-61" d="M 2194 1759 
Q 1497 1759 1228 1600 
Q 959 1441 959 1056 
Q 959 750 1161 570 
Q 1363 391 1709 391 
Q 2188 391 2477 730 
Q 2766 1069 2766 1631 
L 2766 1759 
L 2194 1759 
z
M 3341 1997 
L 3341 0 
L 2766 0 
L 2766 531 
Q 2569 213 2275 61 
Q 1981 -91 1556 -91 
Q 1019 -91 701 211 
Q 384 513 384 1019 
Q 384 1609 779 1909 
Q 1175 2209 1959 2209 
L 2766 2209 
L 2766 2266 
Q 2766 2663 2505 2880 
Q 2244 3097 1772 3097 
Q 1472 3097 1187 3025 
Q 903 2953 641 2809 
L 641 3341 
Q 956 3463 1253 3523 
Q 1550 3584 1831 3584 
Q 2591 3584 2966 3190 
Q 3341 2797 3341 1997 
z
" transform="scale(0.015625)"/>
       <path id="DejaVuSans-74" d="M 1172 4494 
L 1172 3500 
L 2356 3500 
L 2356 3053 
L 1172 3053 
L 1172 1153 
Q 1172 725 1289 603 
Q 1406 481 1766 481 
L 2356 481 
L 2356 0 
L 1766 0 
Q 1100 0 847 248 
Q 594 497 594 1153 
L 594 3053 
L 172 3053 
L 172 3500 
L 594 3500 
L 594 4494 
L 1172 4494 
z
" transform="scale(0.015625)"/>
       <path id="DejaVuSans-75" d="M 544 1381 
L 544 3500 
L 1119 3500 
L 1119 1403 
Q 1119 906 1312 657 
Q 1506 409 1894 409 
Q 2359 409 2629 706 
Q 2900 1003 2900 1516 
L 2900 3500 
L 3475 3500 
L 3475 0 
L 2900 0 
L 2900 538 
Q 2691 219 2414 64 
Q 2138 -91 1772 -91 
Q 1169 -91 856 284 
Q 544 659 544 1381 
z
M 1991 3584 
L 1991 3584 
z
" transform="scale(0.015625)"/>
       <path id="DejaVuSans-20" transform="scale(0.015625)"/>
       <path id="DejaVuSans-5b" d="M 550 4863 
L 1875 4863 
L 1875 4416 
L 1125 4416 
L 1125 -397 
L 1875 -397 
L 1875 -844 
L 550 -844 
L 550 4863 
z
" transform="scale(0.015625)"/>
       <path id="DejaVuSans-b0" d="M 1600 4347 
Q 1350 4347 1178 4173 
Q 1006 4000 1006 3750 
Q 1006 3503 1178 3333 
Q 1350 3163 1600 3163 
Q 1850 3163 2022 3333 
Q 2194 3503 2194 3750 
Q 2194 3997 2020 4172 
Q 1847 4347 1600 4347 
z
M 1600 4750 
Q 1800 4750 1984 4673 
Q 2169 4597 2303 4453 
Q 2447 4313 2519 4134 
Q 2591 3956 2591 3750 
Q 2591 3338 2302 3052 
Q 2013 2766 1594 2766 
Q 1172 2766 890 3047 
Q 609 3328 609 3750 
Q 609 4169 896 4459 
Q 1184 4750 1600 4750 
z
" transform="scale(0.015625)"/>
       <path id="DejaVuSans-43" d="M 4122 4306 
L 4122 3641 
Q 3803 3938 3442 4084 
Q 3081 4231 2675 4231 
Q 1875 4231 1450 3742 
Q 1025 3253 1025 2328 
Q 1025 1406 1450 917 
Q 1875 428 2675 428 
Q 3081 428 3442 575 
Q 3803 722 4122 1019 
L 4122 359 
Q 3791 134 3420 21 
Q 3050 -91 2638 -91 
Q 1578 -91 968 557 
Q 359 1206 359 2328 
Q 359 3453 968 4101 
Q 1578 4750 2638 4750 
Q 3056 4750 3426 4639 
Q 3797 4528 4122 4306 
z
" transform="scale(0.015625)"/>
       <path id="DejaVuSans-5d" d="M 1947 4863 
L 1947 -844 
L 622 -844 
L 622 -397 
L 1369 -397 
L 1369 4416 
L 622 4416 
L 622 4863 
L 1947 4863 
z
" transform="scale(0.015625)"/>
      </defs>
      <use xlink:href="#DejaVuSans-54"/>
      <use xlink:href="#DejaVuSans-65" transform="translate(44.083984 0)"/>
      <use xlink:href="#DejaVuSans-6d" transform="translate(105.607422 0)"/>
      <use xlink:href="#DejaVuSans-70" transform="translate(203.019531 0)"/>
      <use xlink:href="#DejaVuSans-65" transform="translate(266.496094 0)"/>
      <use xlink:href="#DejaVuSans-72" transform="translate(328.019531 0)"/>
      <use xlink:href="#DejaVuSans-61" transform="translate(369.132812 0)"/>
      <use xlink:href="#DejaVuSans-74" transform="translate(430.412109 0)"/>
      <use xlink:href="#DejaVuSans-75" transform="translate(469.621094 0)"/>
      <use xlink:href="#DejaVuSans-72" transform="translate(533 0)"/>
      <use xlink:href="#DejaVuSans-65" transform="translate(571.863281 0)"/>
      <use xlink:href="#DejaVuSans-20" transform="translate(633.386719 0)"/>
      <use xlink:href="#DejaVuSans-5b" transform="translate(665.173828 0)"/>
      <use xlink:href="#DejaVuSans-b0" transform="translate(704.1875 0)"/>
      <use xlink:href="#DejaVuSans-43" transform="translate(754.1875 0)"/>
      <use xlink:href="#DejaVuSans-5d" transform="translate(824.011719 0)"/>
     </g>
    </g>
   </g>
   <g id="line2d_12">
    <path d="M 75.730909 53.928705 
L 75.958464 55.003344 
L 76.413574 58.431677 
L 76.588617 59.377827 
L 77.533845 66.386345 
L 77.603862 66.538196 
L 77.656375 66.479791 
L 77.918938 65.586205 
L 78.21651 63.150746 
L 78.671621 56.924846 
L 79.424303 48.298529 
L 79.459311 48.234285 
L 79.511824 48.368615 
L 79.984438 52.036405 
L 81.017188 62.993054 
L 81.752366 73.721926 
L 81.979921 74.697278 
L 81.997425 74.668076 
L 82.119955 74.066511 
L 82.662586 71.017806 
L 82.837628 71.233902 
L 83.292739 75.742715 
L 83.83537 83.551371 
L 84.41301 92.522274 
L 84.658069 93.380817 
L 84.885624 93.345774 
L 84.973145 93.29321 
L 85.025658 93.374977 
L 85.148187 93.649477 
L 85.690819 96.429522 
L 85.725827 96.417841 
L 85.760836 96.499607 
L 86.145929 96.797469 
L 86.285963 96.12582 
L 86.35598 96.376958 
L 86.636047 97.048608 
L 87.213687 100.044749 
L 87.353721 100.126515 
L 87.983874 101.668389 
L 88.351462 102.462687 
L 88.789068 106.077914 
L 88.859085 105.774212 
L 89.3317 103.017528 
L 89.419221 103.379635 
L 89.594263 105.283616 
L 90.539492 120.182555 
L 90.749543 120.78412 
L 90.767047 120.772439 
L 90.81956 120.7958 
L 90.854568 120.714034 
L 91.047115 119.627714 
L 91.449712 117.361627 
L 91.659763 117.063765 
L 91.939831 116.917754 
L 92.149881 117.163052 
L 92.447453 118.407064 
L 92.64 118.804213 
L 92.657504 118.792533 
L 92.902564 118.167606 
L 93.112614 117.893106 
L 93.865296 117.274021 
L 94.320407 116.491403 
L 94.635483 116.59069 
L 95.073089 116.99952 
L 95.335652 116.952797 
L 95.703241 116.713339 
L 95.895788 115.936562 
L 96.858521 109.576332 
L 97.173597 104.66453 
L 97.943783 92.323699 
L 98.451406 86.909619 
L 98.71397 86.611757 
L 98.871508 86.565034 
L 99.116567 86.074438 
L 99.396635 85.578001 
L 99.484156 85.630565 
L 100.026787 88.258759 
L 100.972016 96.435362 
L 101.094545 96.283511 
L 101.357109 95.413287 
L 101.514647 95.05118 
L 101.532151 95.057021 
L 101.619673 95.314 
L 101.829723 96.371118 
L 101.882236 96.283511 
L 101.987261 95.740351 
L 102.267329 92.411305 
L 102.914986 83.516329 
L 103.212558 82.377445 
L 103.317583 82.476732 
L 103.615155 83.919319 
L 103.982744 88.67927 
L 104.647905 97.644332 
L 104.99799 99.565833 
L 105.383083 100.476941 
L 105.400587 100.4711 
L 105.558125 100.33677 
L 105.925714 98.426949 
L 106.310807 95.284797 
L 106.608379 91.768858 
L 107.238532 81.174316 
L 107.623625 76.449407 
L 108.201265 71.695296 
L 108.393811 71.134615 
L 108.411316 71.140455 
L 108.621366 71.531764 
L 108.796409 72.01652 
L 109.79415 80.432581 
L 110.039209 82.324881 
L 110.301773 83.66234 
L 110.319277 83.644818 
L 110.37179 83.720744 
L 110.49432 83.890116 
L 110.581841 83.732425 
L 110.721875 82.815477 
L 111.194489 76.011375 
L 112.734862 52.567885 
L 113.189972 48.03571 
L 113.277493 48.082434 
L 113.330006 48.059072 
L 113.365014 48.146678 
L 113.47004 48.234285 
L 113.767612 50.366042 
L 114.240226 54.068875 
L 114.345251 54.436823 
L 114.467781 55.231121 
L 114.660327 58.203901 
L 115.395505 71.193019 
L 115.885624 76.34428 
L 115.973145 76.659663 
L 116.078171 76.612939 
L 116.515776 75.509098 
L 116.795844 72.653127 
L 117.180937 69.70955 
L 117.23345 69.58106 
L 117.285963 69.70955 
L 117.408492 70.772508 
L 117.671056 75.736875 
L 118.231191 86.249651 
L 118.703806 96.715703 
L 120.016623 127.862722 
L 120.454229 130.029522 
L 121.346945 140.010819 
L 121.644517 141.319075 
L 121.854568 141.885597 
L 122.082123 142.405395 
L 122.099627 142.393715 
L 122.362191 142.019927 
L 122.939831 139.49102 
L 123.675008 132.178801 
L 124.130119 125.760167 
L 124.655246 118.62316 
L 124.79528 118.272734 
L 124.847792 118.313617 
L 124.952818 118.553075 
L 125.145364 120.129991 
L 125.600474 125.240369 
L 126.545703 133.673951 
L 127.403411 143.666929 
L 127.64847 145.302249 
L 127.823512 146.049824 
L 128.10358 146.984293 
L 128.576194 147.422326 
L 128.873766 147.994688 
L 129.223851 149.799381 
L 129.766482 153.327002 
L 130.536669 155.669014 
L 130.816736 159.027262 
L 131.306855 166.234354 
L 131.814478 173.914521 
L 132.252084 177.412939 
L 132.549656 177.996982 
L 132.812219 177.582312 
L 132.987261 176.916503 
L 133.179808 175.088448 
L 133.634918 168.021526 
L 134.020011 158.542507 
L 135.070265 132.523386 
L 136.155528 116.555647 
L 136.558125 112.864495 
L 136.750672 112.420622 
L 136.78568 112.449824 
L 136.855697 112.373899 
L 137.608379 109.056534 
L 137.643388 109.120779 
L 137.800926 109.599694 
L 137.958464 109.722343 
L 138.256036 109.646418 
L 138.413574 110.037726 
L 139.236273 114.669188 
L 140.058972 123.009324 
L 140.409057 126.291646 
L 140.899176 129.468841 
L 141.49432 131.437066 
L 141.739379 131.349459 
L 141.861909 131.215129 
L 141.896917 131.279374 
L 142.264506 131.816694 
L 142.299514 131.75829 
L 142.40454 131.261853 
L 142.947171 126.846487 
L 143.034692 126.653753 
L 143.087205 126.712157 
L 143.297256 127.588222 
L 143.559819 129.573968 
L 144.137459 136.605847 
L 145.012671 151.463904 
L 145.310243 151.925298 
L 145.345251 151.890256 
L 145.555302 151.241968 
L 145.940395 148.333433 
L 146.378001 142.498842 
L 146.798103 134.19959 
L 147.515776 118.179287 
L 148.198442 111.690568 
L 148.35598 111.427749 
L 148.373484 111.451111 
L 148.706064 111.930026 
L 149.14367 113.588708 
L 149.441242 115.492689 
L 149.773823 116.748382 
L 150.001378 117.776298 
L 150.491496 119.943098 
L 150.579018 119.83797 
L 150.736556 119.049512 
L 151.821818 110.709376 
L 152.171903 108.19215 
L 152.627013 106.772925 
L 152.679526 106.813808 
L 152.802055 107.070787 
L 153.222157 109.54713 
L 153.554737 112.899538 
L 153.957335 116.432998 
L 155.147623 122.022291 
L 155.235144 121.887961 
L 155.567724 120.78996 
L 155.655246 120.959333 
L 156.302902 123.295505 
L 156.372919 123.50576 
L 156.58297 124.562878 
L 156.950559 126.186518 
L 157.510695 127.962009 
L 157.685737 129.387075 
L 158.263377 134.888761 
L 158.280881 134.87708 
L 158.368402 134.637622 
L 158.823512 132.44162 
L 158.963546 132.161279 
L 159.418656 131.232651 
L 159.716228 131.150885 
L 160.031304 131.139204 
L 160.153834 130.835501 
L 160.433902 129.159298 
L 160.731474 127.851041 
L 160.906516 127.810158 
L 161.186584 127.383807 
L 162.306855 122.851632 
L 163.094545 117.139691 
L 163.287092 115.948243 
L 163.56716 114.546539 
L 163.759706 114.353805 
L 163.89974 114.856082 
L 164.267329 118.477149 
L 164.722439 122.769866 
L 165.037516 124.597921 
L 165.125037 124.504474 
L 165.300079 123.651771 
L 165.912727 121.292237 
L 166.105274 120.708194 
L 166.385342 118.243532 
L 166.630401 113.577028 
L 167.365579 97.036927 
L 167.680655 93.386657 
L 167.873202 92.954465 
L 168.240791 91.979114 
L 168.380824 90.863591 
L 169.343557 81.454657 
L 169.798667 78.289143 
L 170.498837 69.902284 
L 170.901434 65.451876 
L 171.269023 62.776958 
L 171.304032 62.753596 
L 171.33904 62.852884 
L 171.426561 63.501172 
L 171.776646 67.250728 
L 172.284269 74.411097 
L 172.721875 82.202232 
L 173.544574 100.033068 
L 173.964675 106.475063 
L 174.507307 110.247982 
L 174.997425 113.016346 
L 175.049938 112.975463 
L 175.137459 112.759367 
L 175.277493 111.427749 
L 175.890141 105.739169 
L 176.327747 103.286188 
L 176.537798 102.112261 
L 176.870378 99.209567 
L 177.255471 96.12582 
L 177.658069 94.63651 
L 177.710582 94.525541 
L 177.74559 94.630669 
L 177.973145 95.524255 
L 178.008154 95.483372 
L 178.445759 94.075828 
L 178.620802 93.918137 
L 178.90087 94.443775 
L 179.443501 96.616416 
L 179.496014 96.575533 
L 179.583535 96.412001 
L 180.073653 94.729957 
L 180.126166 94.78252 
L 180.301208 95.372404 
L 180.493755 96.283511 
L 181.246437 100.576228 
L 181.333958 100.494462 
L 181.526505 100.32509 
L 181.736556 100.33677 
L 181.876589 100.839047 
L 182.139153 102.813113 
L 183.959593 118.208489 
L 186.130119 127.144349 
L 186.812784 129.544766 
L 187.092851 131.098321 
L 188.055584 136.489039 
L 188.230627 136.997156 
L 188.720745 138.13604 
L 189.473427 138.965382 
L 189.963546 138.696722 
L 190.138588 138.206125 
L 191.083817 135.402719 
L 191.538927 135.209984 
L 191.696465 135.215825 
L 192.134071 134.993888 
L 192.151575 135.028931 
L 192.186584 135.075654 
L 192.239097 134.970527 
L 192.694207 133.11327 
L 193.009283 129.135936 
L 193.674444 120.369449 
L 193.937007 119.195522 
L 193.954512 119.224724 
L 194.077041 119.516746 
L 194.147058 119.470023 
L 194.217075 119.394097 
L 194.252084 119.464182 
L 194.777211 121.993089 
L 195.179808 125.415581 
L 195.93249 137.499433 
L 196.370096 143.071205 
L 196.63266 144.642281 
L 196.860215 145.565069 
L 197.052761 145.384015 
L 197.262812 145.226324 
L 197.280316 145.243845 
L 197.315325 145.261366 
L 197.367837 145.197122 
L 197.54288 144.782451 
L 197.857956 143.520918 
L 198.138024 142.417076 
L 198.295562 141.698703 
L 198.558125 139.823925 
L 198.803185 137.102284 
L 200.098498 125.631677 
L 200.588617 121.081982 
L 201.008718 117.011201 
L 201.236273 116.310349 
L 201.586358 115.445966 
L 201.638871 115.679583 
L 201.848922 116.742541 
L 202.269023 118.48883 
L 202.566595 119.201363 
L 202.776646 120.486258 
L 203.074218 124.340942 
L 203.651858 132.389056 
L 204.124472 135.174942 
L 204.264506 134.982208 
L 204.667103 133.989334 
L 205.157222 133.942611 
L 205.612332 133.843323 
L 205.76987 133.545461 
L 206.067442 133.11911 
L 206.22498 133.265121 
L 206.557561 134.322239 
L 207.467781 136.997156 
L 207.747849 137.125646 
L 208.185455 137.522795 
L 208.500531 138.959541 
L 208.728086 139.502701 
L 208.850615 139.426776 
L 209.918374 137.04972 
L 210.23345 135.653857 
L 210.548526 134.287196 
L 210.741073 134.19959 
L 211.003636 134.316398 
L 211.2662 134.520813 
L 211.633789 134.859558 
L 211.931361 134.672665 
L 211.948865 134.690186 
L 212.106403 134.970527 
L 212.491496 136.78106 
L 213.051632 139.642872 
L 213.226674 139.596148 
L 213.751801 139.21068 
L 214.189407 139.607829 
L 214.627013 140.501415 
L 214.749543 140.56566 
L 214.784551 140.594862 
L 214.854568 140.524777 
L 215.012106 140.361245 
L 215.222157 140.121787 
L 215.344687 140.191872 
L 215.537233 140.723351 
L 216.027352 142.370353 
L 216.219898 143.082885 
L 216.657504 144.490429 
L 216.97258 144.969345 
L 217.777775 145.617633 
L 218.407928 146.651389 
L 218.7055 146.744836 
L 218.863038 146.686431 
L 218.880542 146.703953 
L 219.353156 147.299677 
L 219.983309 149.536562 
L 220.333394 150.59952 
L 220.543444 150.786414 
L 220.560949 150.774733 
L 220.700982 150.570318 
L 221.068571 150.079722 
L 221.313631 149.974594 
L 221.821254 149.524881 
L 222.328876 148.736423 
L 222.538927 148.479444 
L 222.766482 148.216624 
L 222.783986 148.234146 
L 223.116567 148.718901 
L 223.991779 151.020031 
L 224.954512 154.711184 
L 225.497143 156.568441 
L 225.56716 156.439951 
L 225.794715 155.213461 
L 226.897482 149.279583 
L 226.949994 149.297104 
L 227.05502 149.390551 
L 227.3876 151.020031 
L 227.737685 154.086258 
L 228.140282 156.679409 
L 228.857956 160.282955 
L 229.733168 171.782764 
L 230.240791 177.132599 
L 230.48585 178.10211 
L 230.713405 178.353249 
L 230.888447 178.487579 
L 230.958464 178.36493 
L 231.238532 177.337014 
L 231.623625 175.748416 
L 231.72865 175.573204 
L 231.921197 174.767224 
L 232.271282 172.81652 
L 232.533845 169.172091 
L 232.88393 159.476975 
L 233.286527 151.738404 
L 233.584099 149.227019 
L 233.829159 147.182868 
L 234.214252 140.326202 
L 234.581841 134.74859 
L 234.984438 130.356586 
L 235.054455 130.187214 
L 235.089464 130.26898 
L 235.229497 130.958151 
L 235.492061 134.234632 
L 237.067442 160.744349 
L 237.365014 164.347895 
L 237.960158 175.894427 
L 238.25773 179.626463 
L 238.502789 180.3974 
L 238.852874 181.793263 
L 239.237967 184.111914 
L 239.885624 192.773273 
L 240.025658 193.036092 
L 240.095675 192.878401 
L 240.2007 192.270996 
L 240.813348 187.020448 
L 240.865861 187.084693 
L 241.075912 187.919875 
L 241.443501 190.588952 
L 242.353721 199.77011 
L 242.72131 207.117372 
L 243.228933 215.264773 
L 243.649034 218.658064 
L 243.789068 218.88 
L 243.824077 218.856638 
L 243.929102 218.488691 
L 244.104145 217.157073 
L 244.699289 208.536597 
L 245.469475 195.348903 
L 246.449712 188.755056 
L 246.502225 188.766737 
L 246.589746 188.825142 
L 246.624754 188.79594 
L 246.747284 188.521439 
L 246.904822 187.540247 
L 247.202394 184.456499 
L 247.832547 174.597852 
L 248.410186 164.342055 
L 248.917809 157.818293 
L 249.758012 144.122482 
L 250.195618 137.820657 
L 251.806008 106.247287 
L 252.121084 103.292029 
L 252.313631 102.556134 
L 252.366143 102.655422 
L 252.506177 102.725507 
L 252.576194 102.725507 
L 252.593698 102.783911 
L 252.786245 104.676211 
L 253.241355 110.318067 
L 253.92402 121.928844 
L 254.50166 131.583077 
L 254.921762 136.015964 
L 255.201829 138.760966 
L 255.849486 145.44242 
L 256.147058 146.610506 
L 256.374613 146.990134 
L 256.56716 148.134858 
L 257.634918 158.402336 
L 257.844969 158.781964 
L 258.002507 158.670996 
L 258.160045 158.162878 
L 258.650164 154.962322 
L 259.035257 150.681286 
L 259.332829 145.103675 
L 260.155528 132.500024 
L 260.313066 131.956864 
L 260.348075 131.863417 
L 260.418091 131.927662 
L 260.505613 132.056152 
L 260.57563 131.980226 
L 260.733168 132.149598 
L 260.873202 132.482503 
L 260.925714 132.377375 
L 261.118261 131.49547 
L 261.625884 127.418849 
L 261.678396 127.436371 
L 261.870943 127.477254 
L 261.993473 127.821839 
L 262.291045 129.1885 
L 262.711146 132.009428 
L 262.72865 132.067832 
L 262.816172 132.009428 
L 263.026222 131.530513 
L 263.078735 131.571396 
L 263.148752 131.477949 
L 263.411316 129.422117 
L 264.041468 124.013878 
L 264.251519 123.050207 
L 264.79415 120.094949 
L 266.194489 103.683337 
L 266.754625 101.049303 
L 266.894658 101.131069 
L 267.31476 102.515251 
L 267.507307 104.588604 
L 268.312501 116.783424 
L 269.467781 144.566355 
L 270.027916 148.181582 
L 270.115438 148.385997 
L 270.763094 150.552797 
L 271.078171 150.541116 
L 271.270717 150.435988 
L 271.463264 150.260775 
L 271.585793 150.196531 
L 271.690819 150.196531 
L 271.708323 150.237414 
L 271.830853 150.558637 
L 272.250954 152.176437 
L 272.35598 151.831851 
L 272.793586 149.957073 
L 273.003636 149.010923 
L 273.38873 147.07774 
L 273.546268 146.890847 
L 273.581276 146.908368 
L 273.686302 146.984293 
L 273.738814 147.106942 
L 274.351462 148.952519 
L 274.456488 148.724742 
L 274.771564 147.743549 
L 274.824077 147.796113 
L 275.20917 148.812348 
L 275.611767 150.704648 
L 276.381954 154.226428 
L 276.749543 155.07329 
L 277.554737 156.907186 
L 278.009848 159.155752 
L 278.499966 161.591212 
L 279.130119 163.098043 
L 279.585229 165.148034 
L 280.232885 168.588048 
L 280.547962 169.061123 
L 280.652987 169.306421 
L 281.090593 170.170805 
L 281.458182 170.497869 
L 281.965805 170.602997 
L 282.123343 170.585475 
L 282.333394 170.147443 
L 282.578453 169.69773 
L 282.770999 169.540038 
L 283.051067 168.74574 
L 283.296126 168.07993 
L 283.43616 168.06825 
L 283.646211 168.20258 
L 283.803749 167.828792 
L 284.766482 164.6808 
L 284.836499 164.733363 
L 284.994037 164.885215 
L 285.04655 164.838491 
L 285.239097 164.470544 
L 285.309113 164.511427 
L 285.641694 164.815129 
L 285.676702 164.774246 
L 285.886753 164.026671 
L 286.201829 162.735936 
L 286.289351 162.759298 
L 286.376872 162.92283 
L 286.709452 163.571118 
L 287.269588 163.985788 
L 287.357109 163.898182 
L 287.549656 163.185649 
L 287.777211 161.632095 
L 288.127295 159.062305 
L 288.80996 155.359472 
L 289.545138 148.894114 
L 290.560384 139.21068 
L 291.138024 133.942611 
L 291.995731 126.969136 
L 292.450841 124.726411 
L 292.748413 124.159889 
L 293.080994 122.530408 
L 293.781163 117.659489 
L 294.148752 113.501102 
L 294.516341 110.942993 
L 294.55135 110.837865 
L 294.621366 110.954674 
L 294.936443 111.503675 
L 295.33904 114.657507 
L 295.846663 124.767294 
L 296.441807 135.455282 
L 296.861909 140.221074 
L 297.211993 142.487161 
L 297.40454 142.73246 
L 297.422044 142.697417 
L 297.632095 142.031608 
L 297.772129 141.102979 
L 298.909904 130.444193 
L 299.049938 130.432512 
L 299.22498 130.67781 
L 299.294997 130.742055 
L 299.330006 130.701172 
L 299.697595 130.122969 
L 300.222722 129.451319 
L 300.450277 128.557733 
L 300.730344 126.250763 
L 301.202959 122.507047 
L 301.518035 120.089108 
L 301.973145 117.291542 
L 302.130683 116.906073 
L 302.165692 116.987839 
L 302.32323 117.764617 
L 302.813348 121.934685 
L 303.548526 130.286501 
L 304.581276 141.11466 
L 304.773823 141.727905 
L 305.036386 141.92648 
L 305.246437 141.552693 
L 305.579018 139.49102 
L 306.051632 138.287892 
L 306.279187 138.165242 
L 306.646776 138.276211 
L 307.066877 139.263244 
L 307.101886 139.21652 
L 308.292174 134.88292 
L 308.519729 134.404005 
L 308.659763 133.837483 
L 308.939831 131.688204 
L 309.587487 124.98339 
L 309.657504 125.070996 
L 310.637741 130.882225 
L 311.512953 138.772647 
L 311.880542 141.827193 
L 312.03808 141.973204 
L 312.055584 141.92648 
L 312.16061 141.418363 
L 312.423173 138.235328 
L 312.895788 132.949738 
L 313.088334 130.917268 
L 313.753495 120.830843 
L 314.541186 104.115529 
L 314.68122 103.455561 
L 314.751237 103.508124 
L 314.873766 103.969519 
L 315.153834 106.416659 
L 316.081558 116.806786 
L 316.344122 121.776993 
L 317.149317 139.555265 
L 317.551914 142.931034 
L 317.691948 143.538439 
L 317.814478 143.637726 
L 317.831982 143.626046 
L 318.199571 142.767502 
L 318.549656 141.984884 
L 318.777211 141.51765 
L 318.952253 141.465086 
L 319.109791 141.476767 
L 319.372355 141.669501 
L 319.862473 142.574768 
L 320.002507 142.224342 
L 320.790198 138.924499 
L 321.157787 135.636336 
L 321.525375 129.912713 
L 323.258295 101.615825 
L 323.520858 100.284207 
L 323.590875 100.179079 
L 323.713405 99.536631 
L 324.045985 95.72283 
L 324.711146 88.463174 
L 324.991214 88.258759 
L 325.008718 88.282121 
L 325.183761 89.415164 
L 325.393811 92.925263 
L 325.901434 100.126515 
L 326.391553 106.218084 
L 326.864167 118.611479 
L 327.24926 125.900337 
L 327.564337 128.160584 
L 327.651858 128.148903 
L 327.669362 128.119701 
L 327.774387 127.506456 
L 328.632095 120.982694 
L 329.629836 116.257786 
L 329.664845 116.228583 
L 329.717357 116.298669 
L 329.874896 117.057925 
L 330.330006 121.887961 
L 331.327747 134.929644 
L 331.537798 135.589612 
L 331.572806 135.583772 
L 331.590311 135.542889 
L 331.992908 133.516259 
L 332.272976 132.143758 
L 332.483027 130.298182 
L 332.938137 123.073569 
L 333.2007 114.242837 
L 333.848357 94.192637 
L 334.478509 81.881008 
L 334.671056 79.252814 
L 335.161174 72.851702 
L 335.406234 71.485041 
L 335.458746 71.47336 
L 335.476251 71.531764 
L 335.686302 74.066511 
L 336.29895 81.834285 
L 336.964111 86.816172 
L 337.034128 86.623438 
L 337.104145 86.763609 
L 337.716793 88.860323 
L 337.734297 88.848642 
L 338.11939 87.557907 
L 338.381954 86.565034 
L 338.69703 86.354778 
L 339.169644 84.456638 
L 339.60725 82.009498 
L 339.887318 81.162635 
L 339.957335 81.22688 
L 340.237403 81.758359 
L 340.815042 84.252223 
L 341.112614 85.548799 
L 341.270152 86.185406 
L 341.480203 88.00178 
L 341.830288 92.767572 
L 342.758012 105.306977 
L 344.595957 127.261158 
L 344.963546 129.246904 
L 345.138588 129.474681 
L 345.22611 129.638213 
L 345.278622 129.603171 
L 345.418656 129.264426 
L 345.68122 127.418849 
L 346.101321 121.216311 
L 346.661457 113.185719 
L 347.099063 108.525055 
L 347.239097 108.822917 
L 347.361626 108.571778 
L 347.799232 107.035745 
L 348.254342 106.989021 
L 348.306855 107.123351 
L 349.269588 112.011792 
L 349.322101 112.093558 
L 349.514647 113.285006 
L 349.532151 113.244123 
L 349.794715 112.38558 
L 349.829723 112.338856 
L 349.882236 112.438144 
L 350.074783 112.747686 
L 350.512388 113.834007 
L 350.687431 115.072178 
L 351.475121 123.032686 
L 351.562643 123.546643 
L 352.017753 129.013287 
L 352.280316 130.975672 
L 353.068007 133.732355 
L 353.173032 133.749877 
L 353.295562 133.679791 
L 353.418091 133.235919 
L 353.978227 130.181373 
L 354.065748 129.953596 
L 354.345816 126.823125 
L 354.94096 120.433694 
L 355.238532 117.647808 
L 356.673879 101.650867 
L 357.058972 100.751441 
L 357.531587 100.050589 
L 357.951688 99.501589 
L 358.284269 98.683928 
L 358.511824 98.491194 
L 359.019447 97.819545 
L 359.124472 97.790342 
L 359.352027 97.661853 
L 359.544574 95.973968 
L 360.227239 90.226984 
L 360.43729 89.724707 
L 360.472298 89.829835 
L 361.102451 93.01287 
L 361.382518 94.77084 
L 361.400023 94.764999 
L 361.557561 94.50218 
L 361.80262 92.896061 
L 362.170209 90.02841 
L 362.677832 87.376854 
L 363.062925 84.573447 
L 363.74559 77.418919 
L 364.65581 68.856847 
L 365.320971 62.420692 
L 366.283704 50.985128 
L 366.59878 49.338126 
L 366.738814 49.016902 
L 366.773823 49.051945 
L 366.913857 49.577584 
L 367.17642 50.389404 
L 367.211429 50.406925 
L 367.246437 50.307638 
L 367.456488 49.805361 
L 367.544009 49.992254 
L 367.684043 50.547095 
L 367.999119 54.238248 
L 368.54175 64.032651 
L 369.539492 81.308646 
L 370.27467 88.626706 
L 370.747284 91.424273 
L 371.009848 92.230252 
L 371.079864 92.33538 
L 371.219898 93.01287 
L 371.464958 94.175116 
L 371.499966 94.116711 
L 371.604992 93.380817 
L 371.850051 88.836962 
L 372.392682 77.267068 
L 372.79528 72.711531 
L 373.12786 70.398721 
L 373.635483 68.09175 
L 373.723004 67.875654 
L 374.03808 66.707568 
L 374.388165 65.977514 
L 374.563207 65.837344 
L 374.598216 65.77894 
L 374.650728 65.901589 
L 374.685737 65.91911 
L 374.720745 65.849025 
L 374.790762 65.91911 
L 374.913292 65.743897 
L 375.018317 65.504439 
L 375.123343 65.37595 
L 375.158351 65.387631 
L 375.368402 65.685493 
L 375.420915 65.627088 
L 375.508436 65.697174 
L 375.665974 65.878227 
L 375.718487 65.790621 
L 375.946042 65.457716 
L 375.98105 65.504439 
L 376.10358 66.05344 
L 376.156093 66.170249 
L 376.208605 66.065121 
L 376.401152 65.796461 
L 376.488673 65.632929 
L 376.541186 65.755578 
L 376.768741 66.409706 
L 376.978792 69.388326 
L 377.818995 81.717476 
L 377.959029 81.898529 
L 378.011542 81.834285 
L 378.221592 81.080869 
L 378.50166 79.714208 
L 379.044291 74.971778 
L 379.131813 74.925055 
L 379.166821 74.954257 
L 379.359368 74.960097 
L 379.604427 74.527905 
L 379.674444 74.738161 
L 379.831982 74.895853 
L 379.849486 74.878331 
L 380.147058 75.065225 
L 380.357109 76.186588 
L 380.672185 79.760932 
L 381.494884 94.981095 
L 382.002507 103.916955 
L 382.125037 103.99288 
L 382.142541 103.975359 
L 382.317583 103.321231 
L 382.84271 99.706004 
L 383.192795 98.590481 
L 383.54288 97.661853 
L 383.577888 97.656013 
L 383.595392 97.603449 
L 384.155528 94.554744 
L 385.205782 83.25935 
L 385.310807 82.996531 
L 385.36332 83.037414 
L 385.433337 82.844679 
L 385.765918 81.752519 
L 385.800926 81.828444 
L 385.853439 81.723317 
L 386.080994 81.285284 
L 386.098498 81.308646 
L 386.133506 81.390412 
L 386.203523 81.308646 
L 386.256036 81.337848 
L 386.308549 81.256082 
L 386.571112 81.145114 
L 386.97371 80.929018 
L 387.078735 80.68372 
L 387.113744 80.724603 
L 387.288786 81.139273 
L 388.041468 83.434563 
L 388.21651 84.147095 
L 388.269023 84.07701 
L 388.321536 83.901797 
L 388.374049 84.018606 
L 388.619108 84.690256 
L 388.636612 84.649373 
L 388.689125 84.7545 
L 389.809396 87.627992 
L 390.176985 88.912887 
L 390.334523 89.012175 
L 390.369531 88.912887 
L 390.702112 87.902493 
L 390.877154 87.540386 
L 391.052196 86.676002 
L 391.699853 82.873881 
L 391.979921 82.500094 
L 392.102451 82.576019 
L 392.137459 82.681147 
L 392.207476 82.540977 
L 392.294997 82.669466 
L 392.330006 82.546817 
L 392.820124 81.110071 
L 392.942654 81.045827 
L 393.327747 80.041272 
L 393.71284 78.92575 
L 394.062925 78.452675 
L 394.115438 78.365069 
L 394.535539 75.906247 
L 394.885624 73.803692 
L 394.955641 73.587596 
L 395.218204 72.472074 
L 395.393247 71.969797 
L 395.77834 70.498008 
L 395.918374 70.719944 
L 395.953382 70.603136 
L 395.988391 70.52137 
L 396.075912 70.603136 
L 396.198442 70.562253 
L 396.443501 70.170944 
L 396.951124 69.324081 
L 397.458746 67.875654 
L 397.563772 67.583633 
L 397.756318 67.215686 
L 397.861344 67.093037 
L 398.368967 65.685493 
L 398.561513 64.96712 
L 398.684043 64.844471 
L 398.929102 64.651736 
L 399.244178 63.769831 
L 399.401717 63.670544 
L 399.524246 63.670544 
L 399.996861 64.254587 
L 400.451971 64.073534 
L 400.5745 64.272108 
L 400.889577 66.263695 
L 401.27467 68.500581 
L 401.554737 70.322795 
L 401.72978 70.900998 
L 401.852309 70.79003 
L 401.939831 70.731625 
L 401.992343 70.784189 
L 402.06236 70.725785 
L 402.272411 70.480487 
L 402.429949 70.614817 
L 402.780034 71.730339 
L 402.97258 71.642732 
L 403.21764 70.474646 
L 403.602733 65.399312 
L 404.46044 53.514034 
L 404.530457 53.420588 
L 404.547962 53.478992 
L 405.003072 55.651632 
L 405.808267 58.706178 
L 406.350898 61.007307 
L 406.630966 62.046904 
L 406.928538 63.804874 
L 407.716228 68.991177 
L 408.031304 71.368232 
L 408.801491 80.058794 
L 409.309113 87.844088 
L 409.431643 88.089386 
L 409.449147 88.083546 
L 409.729215 87.45862 
L 411.077041 77.804387 
L 411.56716 70.445444 
L 411.794715 66.257855 
L 411.829723 66.357142 
L 411.952253 67.490186 
L 412.197312 72.641446 
L 412.687431 89.63126 
L 413.317583 109.202545 
L 414.332829 131.559715 
L 414.507871 131.933503 
L 414.560384 131.828375 
L 414.735426 130.81214 
L 415.032998 127.448051 
L 416.660892 107.199277 
L 417.028481 104.810541 
L 417.711146 98.829939 
L 418.446324 95.693628 
L 418.533845 95.752032 
L 418.656375 96.009011 
L 418.953947 96.873395 
L 419.46157 98.654726 
L 419.496578 98.608003 
L 419.689125 97.807864 
L 419.881671 95.699468 
L 420.459311 88.597504 
L 420.669362 88.071865 
L 420.774387 88.235397 
L 420.914421 88.433972 
L 420.931925 88.416451 
L 421.176985 88.153631 
L 421.509565 86.559193 
L 421.73712 85.513756 
L 422.052196 84.310627 
L 422.087205 84.33983 
L 422.419785 85.093245 
L 422.454794 85.116607 
L 422.472298 85.175011 
L 423.259989 87.581269 
L 423.294997 87.557907 
L 423.312501 87.546226 
L 423.34751 87.645514 
L 423.505048 87.738961 
L 423.557561 87.797365 
L 423.610073 87.744801 
L 423.662586 87.686397 
L 423.715099 87.779844 
L 424.71284 92.276975 
L 424.905387 92.189369 
L 425.097933 91.570283 
L 425.272976 90.71758 
L 425.798103 87.365173 
L 425.920632 86.78113 
L 426.008154 86.880417 
L 426.498272 86.459906 
L 426.533281 86.500789 
L 426.568289 86.611757 
L 426.638306 86.494949 
L 426.673315 86.419023 
L 426.725827 86.547513 
L 426.743331 86.565034 
L 426.760836 86.51831 
L 426.970887 85.992672 
L 427.11092 85.846661 
L 427.128425 85.870023 
L 427.250954 85.846661 
L 427.268458 85.82914 
L 427.320971 85.893384 
L 427.478509 85.922586 
L 427.618543 85.823299 
L 427.81109 85.578001 
L 428.021141 85.531278 
L 428.073653 85.56632 
L 428.091158 85.618884 
L 428.72131 87.300928 
L 428.913857 87.949216 
L 429.17642 87.703918 
L 429.211429 87.627992 
L 429.263941 87.517024 
L 429.333958 87.540386 
L 429.386471 87.616311 
L 429.456488 87.569588 
L 429.666539 87.283407 
L 429.701547 87.388535 
L 430.436725 89.245792 
L 430.594263 89.456047 
L 430.629272 89.426845 
L 430.891835 87.931695 
L 431.399458 84.053649 
L 432.047115 78.411792 
L 432.099627 78.38259 
L 432.117132 78.435154 
L 432.27467 78.645409 
L 432.397199 78.779739 
L 432.677267 79.176889 
L 432.747284 79.299538 
L 432.817301 79.404665 
L 432.869814 79.346261 
L 433.027352 78.978314 
L 433.167386 78.277462 
L 433.237403 78.38259 
L 433.412445 78.954952 
L 433.587487 79.387144 
L 433.604992 79.352102 
L 433.797538 79.679166 
L 434.462699 83.469605 
L 434.55022 83.551371 
L 434.67275 83.749946 
L 434.725263 83.679861 
L 434.882801 83.580574 
L 435.075347 83.744106 
L 435.302902 84.363191 
L 435.442936 84.88299 
L 435.600474 85.683129 
L 435.880542 87.213322 
L 436.143106 88.737674 
L 436.353156 89.929122 
L 436.475686 90.408038 
L 436.685737 91.38339 
L 437.158351 93.585232 
L 437.19336 93.526828 
L 437.298385 93.217285 
L 437.438419 92.446348 
L 438.366143 85.16333 
L 439.643953 71.350711 
L 439.92402 67.566112 
L 440.064054 66.754292 
L 440.099063 66.876941 
L 440.204088 69.277358 
L 440.851745 85.618884 
L 441.236838 91.482677 
L 442.094545 102.941603 
L 442.409622 113.448538 
L 442.759706 122.320153 
L 443.232321 127.150189 
L 443.564901 128.791351 
L 444.037516 132.383216 
L 444.685172 134.351441 
L 444.825206 134.351441 
L 445.035257 134.053579 
L 445.070265 134.059419 
L 445.105274 133.989334 
L 445.857956 129.573968 
L 445.980486 129.644054 
L 446.243049 130.158011 
L 446.488108 131.36114 
L 446.750672 133.206716 
L 447.065748 135.408559 
L 447.153269 135.320953 
L 447.468346 134.462409 
L 447.888447 132.295609 
L 447.975968 132.529226 
L 448.501095 134.853718 
L 448.5186 134.836197 
L 448.798667 133.691472 
L 449.726392 126.507742 
L 450.041468 125.929539 
L 450.093981 126.005465 
L 450.199006 126.06971 
L 450.234015 126.046348 
L 450.269023 125.982103 
L 450.304032 126.093071 
L 450.356544 126.309167 
L 450.409057 126.063869 
L 450.549091 124.884102 
L 451.161739 119.645236 
L 451.49432 117.758776 
L 451.94943 113.255804 
L 452.194489 111.404387 
L 452.28201 111.240855 
L 452.334523 111.3051 
L 452.474557 111.456951 
L 452.509565 111.421909 
L 452.719616 110.598408 
L 452.772129 110.849546 
L 453.052196 112.601676 
L 453.419785 114.161071 
L 453.559819 113.933294 
L 453.857391 113.150676 
L 453.874896 113.156517 
L 454.049938 113.559506 
L 454.750107 117.092967 
L 454.837628 117.034563 
L 454.907645 116.929435 
L 454.977662 116.981999 
L 455.100192 117.063765 
L 455.25773 117.758776 
L 455.327747 117.39667 
L 455.520294 116.485562 
L 455.537798 116.491403 
L 455.607815 116.742541 
L 456.045421 120.240959 
L 456.62306 124.300059 
L 457.165692 126.315008 
L 457.253213 126.052188 
L 457.463264 125.719284 
L 458.11092 122.477845 
L 458.916115 113.407655 
L 459.14367 112.671761 
L 459.178679 112.683442 
L 459.528763 113.349251 
L 459.59878 113.308368 
L 459.773823 113.004665 
L 460.088899 111.5796 
L 460.403975 109.617215 
L 460.929102 105.049998 
L 461.08664 104.711253 
L 461.156657 104.541881 
L 461.454229 102.22907 
L 461.856827 99.203727 
L 462.381954 95.59434 
L 463.344687 83.767467 
L 464.167386 70.696583 
L 464.97258 56.784676 
L 465.305161 53.99295 
L 465.970322 47.772891 
L 466.075347 47.49839 
L 466.232885 47.212209 
L 466.495449 47.317337 
L 466.652987 47.907221 
L 467.108097 51.090256 
L 467.230627 50.792394 
L 467.423173 49.39069 
L 467.913292 40.58916 
L 468.333394 34.08292 
L 468.858521 27.518276 
L 469.313631 22.740803 
L 469.733732 19.949077 
L 469.751237 19.954917 
L 469.838758 19.727141 
L 469.89127 19.692098 
L 469.926279 19.744662 
L 470.171338 20.67329 
L 471.04655 26.811584 
L 471.309113 28.52867 
L 471.939266 33.790899 
L 472.254342 35.140038 
L 472.306855 35.052432 
L 472.65694 34.567676 
L 472.814478 33.872665 
L 473.234579 30.204874 
L 473.56716 27.296339 
L 474.337346 24.668145 
L 474.547397 23.943932 
L 474.774952 23.272282 
L 474.897482 23.009463 
L 475.457617 22.127558 
L 475.702676 22.145079 
L 475.825206 22.711601 
L 476.017753 23.406612 
L 476.350333 23.669432 
L 476.507871 23.575985 
L 476.525375 23.64607 
L 476.560384 23.821283 
L 476.612897 23.535102 
L 476.910469 22.991942 
L 477.015494 23.067867 
L 477.365579 23.932251 
L 477.470604 23.879687 
L 477.715663 23.897208 
L 477.873202 24.206751 
L 478.240791 25.322274 
L 478.258295 25.310593 
L 478.310807 25.252188 
L 479.06349 22.069153 
L 479.308549 20.696652 
L 479.483591 19.458481 
L 479.658634 17.95165 
L 479.816172 17.309202 
L 479.886189 17.28 
L 479.921197 17.361766 
L 480.061231 18.243671 
L 480.376307 23.482538 
L 480.848922 34.369101 
L 481.199006 40.805256 
L 481.549091 45.197261 
L 481.549091 45.197261 
" clip-path="url(#pef833212cc)" style="fill: none; stroke: #000000; stroke-width: 1.5; stroke-linecap: square"/>
   </g>
   <g id="line2d_13">
    <path d="M 92.114873 42.310813 
L 109.759142 47.444871 
L 127.403411 57.887326 
L 140.00646 67.321785 
L 142.527069 66.07026 
L 145.047679 67.78931 
L 190.418656 78.204667 
L 197.980486 79.333359 
L 245.872072 94.22804 
L 258.475121 95.274867 
L 260.995731 95.654754 
L 263.516341 95.443797 
L 298.804879 98.40826 
L 303.846098 97.53563 
L 318.969757 98.223796 
L 331.572806 97.877108 
L 339.134636 94.345843 
L 374.423173 88.400046 
L 399.629272 74.877864 
L 424.83537 71.914523 
L 427.35598 72.207002 
L 445.000248 83.601721 
L 477.768176 37.152978 
L 480.288786 33.766602 
" clip-path="url(#pef833212cc)" style="fill: none; stroke: #1f77b4; stroke-width: 1.5; stroke-linecap: square"/>
    <defs>
     <path id="m321081b342" d="M 0 3 
C 0.795609 3 1.55874 2.683901 2.12132 2.12132 
C 2.683901 1.55874 3 0.795609 3 0 
C 3 -0.795609 2.683901 -1.55874 2.12132 -2.12132 
C 1.55874 -2.683901 0.795609 -3 0 -3 
C -0.795609 -3 -1.55874 -2.683901 -2.12132 -2.12132 
C -2.683901 -1.55874 -3 -0.795609 -3 0 
C -3 0.795609 -2.683901 1.55874 -2.12132 2.12132 
C -1.55874 2.683901 -0.795609 3 0 3 
z
" style="stroke: #ffffff; stroke-width: 0.75"/>
    </defs>
    <g clip-path="url(#pef833212cc)">
     <use xlink:href="#m321081b342" x="92.114873" y="42.310813" style="fill: #1f77b4; stroke: #ffffff; stroke-width: 0.75"/>
     <use xlink:href="#m321081b342" x="109.759142" y="47.444871" style="fill: #1f77b4; stroke: #ffffff; stroke-width: 0.75"/>
     <use xlink:href="#m321081b342" x="127.403411" y="57.887326" style="fill: #1f77b4; stroke: #ffffff; stroke-width: 0.75"/>
     <use xlink:href="#m321081b342" x="140.00646" y="67.321785" style="fill: #1f77b4; stroke: #ffffff; stroke-width: 0.75"/>
     <use xlink:href="#m321081b342" x="142.527069" y="66.07026" style="fill: #1f77b4; stroke: #ffffff; stroke-width: 0.75"/>
     <use xlink:href="#m321081b342" x="145.047679" y="67.78931" style="fill: #1f77b4; stroke: #ffffff; stroke-width: 0.75"/>
     <use xlink:href="#m321081b342" x="190.418656" y="78.204667" style="fill: #1f77b4; stroke: #ffffff; stroke-width: 0.75"/>
     <use xlink:href="#m321081b342" x="197.980486" y="79.333359" style="fill: #1f77b4; stroke: #ffffff; stroke-width: 0.75"/>
     <use xlink:href="#m321081b342" x="245.872072" y="94.22804" style="fill: #1f77b4; stroke: #ffffff; stroke-width: 0.75"/>
     <use xlink:href="#m321081b342" x="258.475121" y="95.274867" style="fill: #1f77b4; stroke: #ffffff; stroke-width: 0.75"/>
     <use xlink:href="#m321081b342" x="260.995731" y="95.654754" style="fill: #1f77b4; stroke: #ffffff; stroke-width: 0.75"/>
     <use xlink:href="#m321081b342" x="263.516341" y="95.443797" style="fill: #1f77b4; stroke: #ffffff; stroke-width: 0.75"/>
     <use xlink:href="#m321081b342" x="298.804879" y="98.40826" style="fill: #1f77b4; stroke: #ffffff; stroke-width: 0.75"/>
     <use xlink:href="#m321081b342" x="303.846098" y="97.53563" style="fill: #1f77b4; stroke: #ffffff; stroke-width: 0.75"/>
     <use xlink:href="#m321081b342" x="318.969757" y="98.223796" style="fill: #1f77b4; stroke: #ffffff; stroke-width: 0.75"/>
     <use xlink:href="#m321081b342" x="331.572806" y="97.877108" style="fill: #1f77b4; stroke: #ffffff; stroke-width: 0.75"/>
     <use xlink:href="#m321081b342" x="339.134636" y="94.345843" style="fill: #1f77b4; stroke: #ffffff; stroke-width: 0.75"/>
     <use xlink:href="#m321081b342" x="374.423173" y="88.400046" style="fill: #1f77b4; stroke: #ffffff; stroke-width: 0.75"/>
     <use xlink:href="#m321081b342" x="399.629272" y="74.877864" style="fill: #1f77b4; stroke: #ffffff; stroke-width: 0.75"/>
     <use xlink:href="#m321081b342" x="424.83537" y="71.914523" style="fill: #1f77b4; stroke: #ffffff; stroke-width: 0.75"/>
     <use xlink:href="#m321081b342" x="427.35598" y="72.207002" style="fill: #1f77b4; stroke: #ffffff; stroke-width: 0.75"/>
     <use xlink:href="#m321081b342" x="445.000248" y="83.601721" style="fill: #1f77b4; stroke: #ffffff; stroke-width: 0.75"/>
     <use xlink:href="#m321081b342" x="477.768176" y="37.152978" style="fill: #1f77b4; stroke: #ffffff; stroke-width: 0.75"/>
     <use xlink:href="#m321081b342" x="480.288786" y="33.766602" style="fill: #1f77b4; stroke: #ffffff; stroke-width: 0.75"/>
    </g>
   </g>
   <g id="patch_4">
    <path d="M 55.44 228.96 
L 55.44 7.2 
" style="fill: none; stroke: #000000; stroke-width: 0.8; stroke-linejoin: miter; stroke-linecap: square"/>
   </g>
   <g id="patch_5">
    <path d="M 55.44 228.96 
L 501.84 228.96 
" style="fill: none; stroke: #000000; stroke-width: 0.8; stroke-linejoin: miter; stroke-linecap: square"/>
   </g>
   <g id="legend_1">
    <g id="patch_6">
     <path d="M 372.035 213.872 
L 495.44 213.872 
Q 497.84 213.872 497.84 211.472 
L 497.84 177.4445 
Q 497.84 175.0445 495.44 175.0445 
L 372.035 175.0445 
Q 369.635 175.0445 369.635 177.4445 
L 369.635 211.472 
Q 369.635 213.872 372.035 213.872 
z
" style="fill: #4d4d4d; opacity: 0.5; stroke: #4d4d4d; stroke-linejoin: miter"/>
    </g>
    <g id="patch_7">
     <path d="M 370.035 211.872 
L 493.44 211.872 
Q 495.84 211.872 495.84 209.472 
L 495.84 175.4445 
Q 495.84 173.0445 493.44 173.0445 
L 370.035 173.0445 
Q 367.635 173.0445 367.635 175.4445 
L 367.635 209.472 
Q 367.635 211.872 370.035 211.872 
z
" style="fill: #ffffff; stroke: #cccccc; stroke-linejoin: miter"/>
    </g>
    <g id="line2d_14">
     <path d="M 372.435 182.762625 
L 384.435 182.762625 
L 396.435 182.762625 
" style="fill: none; stroke: #000000; stroke-width: 1.5; stroke-linecap: square"/>
    </g>
    <g id="text_14">
     <!-- Air -->
     <g transform="translate(406.035 186.962625) scale(0.12 -0.12)">
      <defs>
       <path id="DejaVuSans-41" d="M 2188 4044 
L 1331 1722 
L 3047 1722 
L 2188 4044 
z
M 1831 4666 
L 2547 4666 
L 4325 0 
L 3669 0 
L 3244 1197 
L 1141 1197 
L 716 0 
L 50 0 
L 1831 4666 
z
" transform="scale(0.015625)"/>
      </defs>
      <use xlink:href="#DejaVuSans-41"/>
      <use xlink:href="#DejaVuSans-69" transform="translate(68.408203 0)"/>
      <use xlink:href="#DejaVuSans-72" transform="translate(96.191406 0)"/>
     </g>
    </g>
    <g id="line2d_15">
     <path d="M 372.435 200.376375 
L 384.435 200.376375 
L 396.435 200.376375 
" style="fill: none; stroke: #1f77b4; stroke-width: 1.5; stroke-linecap: square"/>
     <g>
      <use xlink:href="#m321081b342" x="384.435" y="200.376375" style="fill: #1f77b4; stroke: #ffffff; stroke-width: 0.75"/>
     </g>
    </g>
    <g id="text_15">
     <!-- Water Surface -->
     <g transform="translate(406.035 204.576375) scale(0.12 -0.12)">
      <defs>
       <path id="DejaVuSans-57" d="M 213 4666 
L 850 4666 
L 1831 722 
L 2809 4666 
L 3519 4666 
L 4500 722 
L 5478 4666 
L 6119 4666 
L 4947 0 
L 4153 0 
L 3169 4050 
L 2175 0 
L 1381 0 
L 213 4666 
z
" transform="scale(0.015625)"/>
       <path id="DejaVuSans-53" d="M 3425 4513 
L 3425 3897 
Q 3066 4069 2747 4153 
Q 2428 4238 2131 4238 
Q 1616 4238 1336 4038 
Q 1056 3838 1056 3469 
Q 1056 3159 1242 3001 
Q 1428 2844 1947 2747 
L 2328 2669 
Q 3034 2534 3370 2195 
Q 3706 1856 3706 1288 
Q 3706 609 3251 259 
Q 2797 -91 1919 -91 
Q 1588 -91 1214 -16 
Q 841 59 441 206 
L 441 856 
Q 825 641 1194 531 
Q 1563 422 1919 422 
Q 2459 422 2753 634 
Q 3047 847 3047 1241 
Q 3047 1584 2836 1778 
Q 2625 1972 2144 2069 
L 1759 2144 
Q 1053 2284 737 2584 
Q 422 2884 422 3419 
Q 422 4038 858 4394 
Q 1294 4750 2059 4750 
Q 2388 4750 2728 4690 
Q 3069 4631 3425 4513 
z
" transform="scale(0.015625)"/>
       <path id="DejaVuSans-66" d="M 2375 4863 
L 2375 4384 
L 1825 4384 
Q 1516 4384 1395 4259 
Q 1275 4134 1275 3809 
L 1275 3500 
L 2222 3500 
L 2222 3053 
L 1275 3053 
L 1275 0 
L 697 0 
L 697 3053 
L 147 3053 
L 147 3500 
L 697 3500 
L 697 3744 
Q 697 4328 969 4595 
Q 1241 4863 1831 4863 
L 2375 4863 
z
" transform="scale(0.015625)"/>
       <path id="DejaVuSans-63" d="M 3122 3366 
L 3122 2828 
Q 2878 2963 2633 3030 
Q 2388 3097 2138 3097 
Q 1578 3097 1268 2742 
Q 959 2388 959 1747 
Q 959 1106 1268 751 
Q 1578 397 2138 397 
Q 2388 397 2633 464 
Q 2878 531 3122 666 
L 3122 134 
Q 2881 22 2623 -34 
Q 2366 -91 2075 -91 
Q 1284 -91 818 406 
Q 353 903 353 1747 
Q 353 2603 823 3093 
Q 1294 3584 2113 3584 
Q 2378 3584 2631 3529 
Q 2884 3475 3122 3366 
z
" transform="scale(0.015625)"/>
      </defs>
      <use xlink:href="#DejaVuSans-57"/>
      <use xlink:href="#DejaVuSans-61" transform="translate(92.501953 0)"/>
      <use xlink:href="#DejaVuSans-74" transform="translate(153.78125 0)"/>
      <use xlink:href="#DejaVuSans-65" transform="translate(192.990234 0)"/>
      <use xlink:href="#DejaVuSans-72" transform="translate(254.513672 0)"/>
      <use xlink:href="#DejaVuSans-20" transform="translate(295.626953 0)"/>
      <use xlink:href="#DejaVuSans-53" transform="translate(327.414062 0)"/>
      <use xlink:href="#DejaVuSans-75" transform="translate(390.890625 0)"/>
      <use xlink:href="#DejaVuSans-72" transform="translate(454.269531 0)"/>
      <use xlink:href="#DejaVuSans-66" transform="translate(495.382812 0)"/>
      <use xlink:href="#DejaVuSans-61" transform="translate(530.587891 0)"/>
      <use xlink:href="#DejaVuSans-63" transform="translate(591.867188 0)"/>
      <use xlink:href="#DejaVuSans-65" transform="translate(646.847656 0)"/>
     </g>
    </g>
   </g>
  </g>
 </g>
 <defs>
  <clipPath id="pef833212cc">
   <rect x="55.44" y="7.2" width="446.4" height="221.76"/>
  </clipPath>
 </defs>
</svg>
