<?xml version="1.0" encoding="utf-8" standalone="no"?>
<!DOCTYPE svg PUBLIC "-//W3C//DTD SVG 1.1//EN"
  "http://www.w3.org/Graphics/SVG/1.1/DTD/svg11.dtd">
<svg xmlns:xlink="http://www.w3.org/1999/xlink" width="249.12375pt" height="333.79375pt" viewBox="0 0 249.12375 333.79375" xmlns="http://www.w3.org/2000/svg" version="1.1">
 <metadata>
  <rdf:RDF xmlns:dc="http://purl.org/dc/elements/1.1/" xmlns:cc="http://creativecommons.org/ns#" xmlns:rdf="http://www.w3.org/1999/02/22-rdf-syntax-ns#">
   <cc:Work>
    <dc:type rdf:resource="http://purl.org/dc/dcmitype/StillImage"/>
    <dc:date>2026-05-26T11:14:48.419822</dc:date>
    <dc:format>image/svg+xml</dc:format>
    <dc:creator>
     <cc:Agent>
      <dc:title>Matplotlib v3.10.6, https://matplotlib.org/</dc:title>
     </cc:Agent>
    </dc:creator>
   </cc:Work>
  </rdf:RDF>
 </metadata>
 <defs>
  <style type="text/css">*{stroke-linejoin: round; stroke-linecap: butt}</style>
 </defs>
 <g id="figure_1">
  <g id="patch_1">
   <path d="M 0 333.79375 
L 249.12375 333.79375 
L 249.12375 0 
L 0 0 
z
" style="fill: #ffffff"/>
  </g>
  <g id="axes_1">
   <g id="patch_2">
    <path d="M 74.52375 284.4 
L 241.92375 284.4 
L 241.92375 7.2 
L 74.52375 7.2 
z
" style="fill: #ffffff"/>
   </g>
   <g id="matplotlib.axis_1">
    <g id="xtick_1">
     <g id="line2d_1">
      <defs>
       <path id="m8c303fadbf" d="M 0 0 
L 0 3.5 
" style="stroke: #000000; stroke-width: 0.8"/>
      </defs>
      <g>
       <use xlink:href="#m8c303fadbf" x="116.37375" y="284.4" style="stroke: #000000; stroke-width: 0.8"/>
      </g>
     </g>
     <g id="text_1">
      <!-- + -->
      <g transform="translate(111.345938 300.518125) scale(0.12 -0.12)">
       <defs>
        <path id="DejaVuSans-2b" d="M 2944 4013 
L 2944 2272 
L 4684 2272 
L 4684 1741 
L 2944 1741 
L 2944 0 
L 2419 0 
L 2419 1741 
L 678 1741 
L 678 2272 
L 2419 2272 
L 2419 4013 
L 2944 4013 
z
" transform="scale(0.015625)"/>
       </defs>
       <use xlink:href="#DejaVuSans-2b"/>
      </g>
     </g>
    </g>
    <g id="xtick_2">
     <g id="line2d_2">
      <g>
       <use xlink:href="#m8c303fadbf" x="200.07375" y="284.4" style="stroke: #000000; stroke-width: 0.8"/>
      </g>
     </g>
     <g id="text_2">
      <!-- - -->
      <g transform="translate(197.909063 300.518125) scale(0.12 -0.12)">
       <defs>
        <path id="DejaVuSans-2d" d="M 313 2009 
L 1997 2009 
L 1997 1497 
L 313 1497 
L 313 2009 
z
" transform="scale(0.015625)"/>
       </defs>
       <use xlink:href="#DejaVuSans-2d"/>
      </g>
     </g>
    </g>
    <g id="text_3">
     <!-- $dO_{2}/dt$ [mg/L/s] -->
     <g transform="translate(104.18375 323.65375) scale(0.14 -0.14)">
      <defs>
       <path id="DejaVuSans-Oblique-64" d="M 2675 525 
Q 2444 222 2128 65 
Q 1813 -91 1428 -91 
Q 903 -91 598 267 
Q 294 625 294 1247 
Q 294 1766 478 2236 
Q 663 2706 1013 3078 
Q 1244 3325 1534 3454 
Q 1825 3584 2144 3584 
Q 2481 3584 2739 3421 
Q 2997 3259 3138 2956 
L 3513 4863 
L 4091 4863 
L 3144 0 
L 2566 0 
L 2675 525 
z
M 891 1350 
Q 891 897 1095 644 
Q 1300 391 1663 391 
Q 1931 391 2161 520 
Q 2391 650 2566 903 
Q 2750 1166 2856 1509 
Q 2963 1853 2963 2188 
Q 2963 2622 2758 2865 
Q 2553 3109 2194 3109 
Q 1922 3109 1687 2981 
Q 1453 2853 1288 2613 
Q 1106 2353 998 2009 
Q 891 1666 891 1350 
z
" transform="scale(0.015625)"/>
       <path id="DejaVuSans-Oblique-4f" d="M 2919 4238 
Q 2400 4238 2003 3986 
Q 1606 3734 1313 3219 
Q 1125 2891 1026 2522 
Q 928 2153 928 1778 
Q 928 1128 1239 775 
Q 1550 422 2119 422 
Q 2631 422 3032 676 
Q 3434 931 3719 1434 
Q 3909 1772 4009 2142 
Q 4109 2513 4109 2881 
Q 4109 3528 3796 3883 
Q 3484 4238 2919 4238 
z
M 2100 -91 
Q 1241 -91 748 418 
Q 256 928 256 1813 
Q 256 2319 448 2847 
Q 641 3375 978 3788 
Q 1375 4272 1862 4511 
Q 2350 4750 2938 4750 
Q 3794 4750 4287 4245 
Q 4781 3741 4781 2869 
Q 4781 2331 4593 1812 
Q 4406 1294 4056 872 
Q 3656 384 3173 146 
Q 2691 -91 2100 -91 
z
" transform="scale(0.015625)"/>
       <path id="DejaVuSans-32" d="M 1228 531 
L 3431 531 
L 3431 0 
L 469 0 
L 469 531 
Q 828 903 1448 1529 
Q 2069 2156 2228 2338 
Q 2531 2678 2651 2914 
Q 2772 3150 2772 3378 
Q 2772 3750 2511 3984 
Q 2250 4219 1831 4219 
Q 1534 4219 1204 4116 
Q 875 4013 500 3803 
L 500 4441 
Q 881 4594 1212 4672 
Q 1544 4750 1819 4750 
Q 2544 4750 2975 4387 
Q 3406 4025 3406 3419 
Q 3406 3131 3298 2873 
Q 3191 2616 2906 2266 
Q 2828 2175 2409 1742 
Q 1991 1309 1228 531 
z
" transform="scale(0.015625)"/>
       <path id="DejaVuSans-2f" d="M 1625 4666 
L 2156 4666 
L 531 -594 
L 0 -594 
L 1625 4666 
z
" transform="scale(0.015625)"/>
       <path id="DejaVuSans-Oblique-74" d="M 2706 3500 
L 2619 3053 
L 1472 3053 
L 1100 1153 
Q 1081 1047 1072 975 
Q 1063 903 1063 863 
Q 1063 663 1183 572 
Q 1303 481 1569 481 
L 2150 481 
L 2053 0 
L 1503 0 
Q 991 0 739 200 
Q 488 400 488 806 
Q 488 878 497 964 
Q 506 1050 525 1153 
L 897 3053 
L 409 3053 
L 500 3500 
L 978 3500 
L 1172 4494 
L 1747 4494 
L 1556 3500 
L 2706 3500 
z
" transform="scale(0.015625)"/>
       <path id="DejaVuSans-20" transform="scale(0.015625)"/>
       <path id="DejaVuSans-5b" d="M 550 4863 
L 1875 4863 
L 1875 4416 
L 1125 4416 
L 1125 -397 
L 1875 -397 
L 1875 -844 
L 550 -844 
L 550 4863 
z
" transform="scale(0.015625)"/>
       <path id="DejaVuSans-6d" d="M 3328 2828 
Q 3544 3216 3844 3400 
Q 4144 3584 4550 3584 
Q 5097 3584 5394 3201 
Q 5691 2819 5691 2113 
L 5691 0 
L 5113 0 
L 5113 2094 
Q 5113 2597 4934 2840 
Q 4756 3084 4391 3084 
Q 3944 3084 3684 2787 
Q 3425 2491 3425 1978 
L 3425 0 
L 2847 0 
L 2847 2094 
Q 2847 2600 2669 2842 
Q 2491 3084 2119 3084 
Q 1678 3084 1418 2786 
Q 1159 2488 1159 1978 
L 1159 0 
L 581 0 
L 581 3500 
L 1159 3500 
L 1159 2956 
Q 1356 3278 1631 3431 
Q 1906 3584 2284 3584 
Q 2666 3584 2933 3390 
Q 3200 3197 3328 2828 
z
" transform="scale(0.015625)"/>
       <path id="DejaVuSans-67" d="M 2906 1791 
Q 2906 2416 2648 2759 
Q 2391 3103 1925 3103 
Q 1463 3103 1205 2759 
Q 947 2416 947 1791 
Q 947 1169 1205 825 
Q 1463 481 1925 481 
Q 2391 481 2648 825 
Q 2906 1169 2906 1791 
z
M 3481 434 
Q 3481 -459 3084 -895 
Q 2688 -1331 1869 -1331 
Q 1566 -1331 1297 -1286 
Q 1028 -1241 775 -1147 
L 775 -588 
Q 1028 -725 1275 -790 
Q 1522 -856 1778 -856 
Q 2344 -856 2625 -561 
Q 2906 -266 2906 331 
L 2906 616 
Q 2728 306 2450 153 
Q 2172 0 1784 0 
Q 1141 0 747 490 
Q 353 981 353 1791 
Q 353 2603 747 3093 
Q 1141 3584 1784 3584 
Q 2172 3584 2450 3431 
Q 2728 3278 2906 2969 
L 2906 3500 
L 3481 3500 
L 3481 434 
z
" transform="scale(0.015625)"/>
       <path id="DejaVuSans-4c" d="M 628 4666 
L 1259 4666 
L 1259 531 
L 3531 531 
L 3531 0 
L 628 0 
L 628 4666 
z
" transform="scale(0.015625)"/>
       <path id="DejaVuSans-73" d="M 2834 3397 
L 2834 2853 
Q 2591 2978 2328 3040 
Q 2066 3103 1784 3103 
Q 1356 3103 1142 2972 
Q 928 2841 928 2578 
Q 928 2378 1081 2264 
Q 1234 2150 1697 2047 
L 1894 2003 
Q 2506 1872 2764 1633 
Q 3022 1394 3022 966 
Q 3022 478 2636 193 
Q 2250 -91 1575 -91 
Q 1294 -91 989 -36 
Q 684 19 347 128 
L 347 722 
Q 666 556 975 473 
Q 1284 391 1588 391 
Q 1994 391 2212 530 
Q 2431 669 2431 922 
Q 2431 1156 2273 1281 
Q 2116 1406 1581 1522 
L 1381 1569 
Q 847 1681 609 1914 
Q 372 2147 372 2553 
Q 372 3047 722 3315 
Q 1072 3584 1716 3584 
Q 2034 3584 2315 3537 
Q 2597 3491 2834 3397 
z
" transform="scale(0.015625)"/>
       <path id="DejaVuSans-5d" d="M 1947 4863 
L 1947 -844 
L 622 -844 
L 622 -397 
L 1369 -397 
L 1369 4416 
L 622 4416 
L 622 4863 
L 1947 4863 
z
" transform="scale(0.015625)"/>
      </defs>
      <use xlink:href="#DejaVuSans-Oblique-64" transform="translate(0 0.015625)"/>
      <use xlink:href="#DejaVuSans-Oblique-4f" transform="translate(63.476562 0.015625)"/>
      <use xlink:href="#DejaVuSans-32" transform="translate(142.1875 -16.390625) scale(0.7)"/>
      <use xlink:href="#DejaVuSans-2f" transform="translate(189.458008 0.015625)"/>
      <use xlink:href="#DejaVuSans-Oblique-64" transform="translate(223.149414 0.015625)"/>
      <use xlink:href="#DejaVuSans-Oblique-74" transform="translate(286.625977 0.015625)"/>
      <use xlink:href="#DejaVuSans-20" transform="translate(325.834961 0.015625)"/>
      <use xlink:href="#DejaVuSans-5b" transform="translate(357.62207 0.015625)"/>
      <use xlink:href="#DejaVuSans-6d" transform="translate(396.635742 0.015625)"/>
      <use xlink:href="#DejaVuSans-67" transform="translate(494.047852 0.015625)"/>
      <use xlink:href="#DejaVuSans-2f" transform="translate(557.524414 0.015625)"/>
      <use xlink:href="#DejaVuSans-4c" transform="translate(591.21582 0.015625)"/>
      <use xlink:href="#DejaVuSans-2f" transform="translate(646.928711 0.015625)"/>
      <use xlink:href="#DejaVuSans-73" transform="translate(680.620117 0.015625)"/>
      <use xlink:href="#DejaVuSans-5d" transform="translate(732.719727 0.015625)"/>
     </g>
    </g>
   </g>
   <g id="matplotlib.axis_2">
    <g id="ytick_1">
     <g id="line2d_3">
      <defs>
       <path id="m26662e2ca0" d="M 0 0 
L -3.5 0 
" style="stroke: #000000; stroke-width: 0.8"/>
      </defs>
      <g>
       <use xlink:href="#m26662e2ca0" x="74.52375" y="259.245923" style="stroke: #000000; stroke-width: 0.8"/>
      </g>
     </g>
     <g id="text_4">
      <!-- −0.04 -->
      <g transform="translate(30.749375 263.804986) scale(0.12 -0.12)">
       <defs>
        <path id="DejaVuSans-2212" d="M 678 2272 
L 4684 2272 
L 4684 1741 
L 678 1741 
L 678 2272 
z
" transform="scale(0.015625)"/>
        <path id="DejaVuSans-30" d="M 2034 4250 
Q 1547 4250 1301 3770 
Q 1056 3291 1056 2328 
Q 1056 1369 1301 889 
Q 1547 409 2034 409 
Q 2525 409 2770 889 
Q 3016 1369 3016 2328 
Q 3016 3291 2770 3770 
Q 2525 4250 2034 4250 
z
M 2034 4750 
Q 2819 4750 3233 4129 
Q 3647 3509 3647 2328 
Q 3647 1150 3233 529 
Q 2819 -91 2034 -91 
Q 1250 -91 836 529 
Q 422 1150 422 2328 
Q 422 3509 836 4129 
Q 1250 4750 2034 4750 
z
" transform="scale(0.015625)"/>
        <path id="DejaVuSans-2e" d="M 684 794 
L 1344 794 
L 1344 0 
L 684 0 
L 684 794 
z
" transform="scale(0.015625)"/>
        <path id="DejaVuSans-34" d="M 2419 4116 
L 825 1625 
L 2419 1625 
L 2419 4116 
z
M 2253 4666 
L 3047 4666 
L 3047 1625 
L 3713 1625 
L 3713 1100 
L 3047 1100 
L 3047 0 
L 2419 0 
L 2419 1100 
L 313 1100 
L 313 1709 
L 2253 4666 
z
" transform="scale(0.015625)"/>
       </defs>
       <use xlink:href="#DejaVuSans-2212"/>
       <use xlink:href="#DejaVuSans-30" transform="translate(83.789062 0)"/>
       <use xlink:href="#DejaVuSans-2e" transform="translate(147.412109 0)"/>
       <use xlink:href="#DejaVuSans-30" transform="translate(179.199219 0)"/>
       <use xlink:href="#DejaVuSans-34" transform="translate(242.822266 0)"/>
      </g>
     </g>
    </g>
    <g id="ytick_2">
     <g id="line2d_4">
      <g>
       <use xlink:href="#m26662e2ca0" x="74.52375" y="225.564273" style="stroke: #000000; stroke-width: 0.8"/>
      </g>
     </g>
     <g id="text_5">
      <!-- −0.03 -->
      <g transform="translate(30.749375 230.123336) scale(0.12 -0.12)">
       <defs>
        <path id="DejaVuSans-33" d="M 2597 2516 
Q 3050 2419 3304 2112 
Q 3559 1806 3559 1356 
Q 3559 666 3084 287 
Q 2609 -91 1734 -91 
Q 1441 -91 1130 -33 
Q 819 25 488 141 
L 488 750 
Q 750 597 1062 519 
Q 1375 441 1716 441 
Q 2309 441 2620 675 
Q 2931 909 2931 1356 
Q 2931 1769 2642 2001 
Q 2353 2234 1838 2234 
L 1294 2234 
L 1294 2753 
L 1863 2753 
Q 2328 2753 2575 2939 
Q 2822 3125 2822 3475 
Q 2822 3834 2567 4026 
Q 2313 4219 1838 4219 
Q 1578 4219 1281 4162 
Q 984 4106 628 3988 
L 628 4550 
Q 988 4650 1302 4700 
Q 1616 4750 1894 4750 
Q 2613 4750 3031 4423 
Q 3450 4097 3450 3541 
Q 3450 3153 3228 2886 
Q 3006 2619 2597 2516 
z
" transform="scale(0.015625)"/>
       </defs>
       <use xlink:href="#DejaVuSans-2212"/>
       <use xlink:href="#DejaVuSans-30" transform="translate(83.789062 0)"/>
       <use xlink:href="#DejaVuSans-2e" transform="translate(147.412109 0)"/>
       <use xlink:href="#DejaVuSans-30" transform="translate(179.199219 0)"/>
       <use xlink:href="#DejaVuSans-33" transform="translate(242.822266 0)"/>
      </g>
     </g>
    </g>
    <g id="ytick_3">
     <g id="line2d_5">
      <g>
       <use xlink:href="#m26662e2ca0" x="74.52375" y="191.882624" style="stroke: #000000; stroke-width: 0.8"/>
      </g>
     </g>
     <g id="text_6">
      <!-- −0.02 -->
      <g transform="translate(30.749375 196.441686) scale(0.12 -0.12)">
       <use xlink:href="#DejaVuSans-2212"/>
       <use xlink:href="#DejaVuSans-30" transform="translate(83.789062 0)"/>
       <use xlink:href="#DejaVuSans-2e" transform="translate(147.412109 0)"/>
       <use xlink:href="#DejaVuSans-30" transform="translate(179.199219 0)"/>
       <use xlink:href="#DejaVuSans-32" transform="translate(242.822266 0)"/>
      </g>
     </g>
    </g>
    <g id="ytick_4">
     <g id="line2d_6">
      <g>
       <use xlink:href="#m26662e2ca0" x="74.52375" y="158.200974" style="stroke: #000000; stroke-width: 0.8"/>
      </g>
     </g>
     <g id="text_7">
      <!-- −0.01 -->
      <g transform="translate(30.749375 162.760037) scale(0.12 -0.12)">
       <defs>
        <path id="DejaVuSans-31" d="M 794 531 
L 1825 531 
L 1825 4091 
L 703 3866 
L 703 4441 
L 1819 4666 
L 2450 4666 
L 2450 531 
L 3481 531 
L 3481 0 
L 794 0 
L 794 531 
z
" transform="scale(0.015625)"/>
       </defs>
       <use xlink:href="#DejaVuSans-2212"/>
       <use xlink:href="#DejaVuSans-30" transform="translate(83.789062 0)"/>
       <use xlink:href="#DejaVuSans-2e" transform="translate(147.412109 0)"/>
       <use xlink:href="#DejaVuSans-30" transform="translate(179.199219 0)"/>
       <use xlink:href="#DejaVuSans-31" transform="translate(242.822266 0)"/>
      </g>
     </g>
    </g>
    <g id="ytick_5">
     <g id="line2d_7">
      <g>
       <use xlink:href="#m26662e2ca0" x="74.52375" y="124.519325" style="stroke: #000000; stroke-width: 0.8"/>
      </g>
     </g>
     <g id="text_8">
      <!-- 0.00 -->
      <g transform="translate(40.805 129.078387) scale(0.12 -0.12)">
       <use xlink:href="#DejaVuSans-30"/>
       <use xlink:href="#DejaVuSans-2e" transform="translate(63.623047 0)"/>
       <use xlink:href="#DejaVuSans-30" transform="translate(95.410156 0)"/>
       <use xlink:href="#DejaVuSans-30" transform="translate(159.033203 0)"/>
      </g>
     </g>
    </g>
    <g id="ytick_6">
     <g id="line2d_8">
      <g>
       <use xlink:href="#m26662e2ca0" x="74.52375" y="90.837675" style="stroke: #000000; stroke-width: 0.8"/>
      </g>
     </g>
     <g id="text_9">
      <!-- 0.01 -->
      <g transform="translate(40.805 95.396738) scale(0.12 -0.12)">
       <use xlink:href="#DejaVuSans-30"/>
       <use xlink:href="#DejaVuSans-2e" transform="translate(63.623047 0)"/>
       <use xlink:href="#DejaVuSans-30" transform="translate(95.410156 0)"/>
       <use xlink:href="#DejaVuSans-31" transform="translate(159.033203 0)"/>
      </g>
     </g>
    </g>
    <g id="ytick_7">
     <g id="line2d_9">
      <g>
       <use xlink:href="#m26662e2ca0" x="74.52375" y="57.156026" style="stroke: #000000; stroke-width: 0.8"/>
      </g>
     </g>
     <g id="text_10">
      <!-- 0.02 -->
      <g transform="translate(40.805 61.715088) scale(0.12 -0.12)">
       <use xlink:href="#DejaVuSans-30"/>
       <use xlink:href="#DejaVuSans-2e" transform="translate(63.623047 0)"/>
       <use xlink:href="#DejaVuSans-30" transform="translate(95.410156 0)"/>
       <use xlink:href="#DejaVuSans-32" transform="translate(159.033203 0)"/>
      </g>
     </g>
    </g>
    <g id="ytick_8">
     <g id="line2d_10">
      <g>
       <use xlink:href="#m26662e2ca0" x="74.52375" y="23.474376" style="stroke: #000000; stroke-width: 0.8"/>
      </g>
     </g>
     <g id="text_11">
      <!-- 0.03 -->
      <g transform="translate(40.805 28.033439) scale(0.12 -0.12)">
       <use xlink:href="#DejaVuSans-30"/>
       <use xlink:href="#DejaVuSans-2e" transform="translate(63.623047 0)"/>
       <use xlink:href="#DejaVuSans-30" transform="translate(95.410156 0)"/>
       <use xlink:href="#DejaVuSans-33" transform="translate(159.033203 0)"/>
      </g>
     </g>
    </g>
    <g id="text_12">
     <!-- N-S Velocity [m/s] -->
     <g transform="translate(17.837813 208.202813) rotate(-90) scale(0.14 -0.14)">
      <defs>
       <path id="DejaVuSans-4e" d="M 628 4666 
L 1478 4666 
L 3547 763 
L 3547 4666 
L 4159 4666 
L 4159 0 
L 3309 0 
L 1241 3903 
L 1241 0 
L 628 0 
L 628 4666 
z
" transform="scale(0.015625)"/>
       <path id="DejaVuSans-53" d="M 3425 4513 
L 3425 3897 
Q 3066 4069 2747 4153 
Q 2428 4238 2131 4238 
Q 1616 4238 1336 4038 
Q 1056 3838 1056 3469 
Q 1056 3159 1242 3001 
Q 1428 2844 1947 2747 
L 2328 2669 
Q 3034 2534 3370 2195 
Q 3706 1856 3706 1288 
Q 3706 609 3251 259 
Q 2797 -91 1919 -91 
Q 1588 -91 1214 -16 
Q 841 59 441 206 
L 441 856 
Q 825 641 1194 531 
Q 1563 422 1919 422 
Q 2459 422 2753 634 
Q 3047 847 3047 1241 
Q 3047 1584 2836 1778 
Q 2625 1972 2144 2069 
L 1759 2144 
Q 1053 2284 737 2584 
Q 422 2884 422 3419 
Q 422 4038 858 4394 
Q 1294 4750 2059 4750 
Q 2388 4750 2728 4690 
Q 3069 4631 3425 4513 
z
" transform="scale(0.015625)"/>
       <path id="DejaVuSans-56" d="M 1831 0 
L 50 4666 
L 709 4666 
L 2188 738 
L 3669 4666 
L 4325 4666 
L 2547 0 
L 1831 0 
z
" transform="scale(0.015625)"/>
       <path id="DejaVuSans-65" d="M 3597 1894 
L 3597 1613 
L 953 1613 
Q 991 1019 1311 708 
Q 1631 397 2203 397 
Q 2534 397 2845 478 
Q 3156 559 3463 722 
L 3463 178 
Q 3153 47 2828 -22 
Q 2503 -91 2169 -91 
Q 1331 -91 842 396 
Q 353 884 353 1716 
Q 353 2575 817 3079 
Q 1281 3584 2069 3584 
Q 2775 3584 3186 3129 
Q 3597 2675 3597 1894 
z
M 3022 2063 
Q 3016 2534 2758 2815 
Q 2500 3097 2075 3097 
Q 1594 3097 1305 2825 
Q 1016 2553 972 2059 
L 3022 2063 
z
" transform="scale(0.015625)"/>
       <path id="DejaVuSans-6c" d="M 603 4863 
L 1178 4863 
L 1178 0 
L 603 0 
L 603 4863 
z
" transform="scale(0.015625)"/>
       <path id="DejaVuSans-6f" d="M 1959 3097 
Q 1497 3097 1228 2736 
Q 959 2375 959 1747 
Q 959 1119 1226 758 
Q 1494 397 1959 397 
Q 2419 397 2687 759 
Q 2956 1122 2956 1747 
Q 2956 2369 2687 2733 
Q 2419 3097 1959 3097 
z
M 1959 3584 
Q 2709 3584 3137 3096 
Q 3566 2609 3566 1747 
Q 3566 888 3137 398 
Q 2709 -91 1959 -91 
Q 1206 -91 779 398 
Q 353 888 353 1747 
Q 353 2609 779 3096 
Q 1206 3584 1959 3584 
z
" transform="scale(0.015625)"/>
       <path id="DejaVuSans-63" d="M 3122 3366 
L 3122 2828 
Q 2878 2963 2633 3030 
Q 2388 3097 2138 3097 
Q 1578 3097 1268 2742 
Q 959 2388 959 1747 
Q 959 1106 1268 751 
Q 1578 397 2138 397 
Q 2388 397 2633 464 
Q 2878 531 3122 666 
L 3122 134 
Q 2881 22 2623 -34 
Q 2366 -91 2075 -91 
Q 1284 -91 818 406 
Q 353 903 353 1747 
Q 353 2603 823 3093 
Q 1294 3584 2113 3584 
Q 2378 3584 2631 3529 
Q 2884 3475 3122 3366 
z
" transform="scale(0.015625)"/>
       <path id="DejaVuSans-69" d="M 603 3500 
L 1178 3500 
L 1178 0 
L 603 0 
L 603 3500 
z
M 603 4863 
L 1178 4863 
L 1178 4134 
L 603 4134 
L 603 4863 
z
" transform="scale(0.015625)"/>
       <path id="DejaVuSans-74" d="M 1172 4494 
L 1172 3500 
L 2356 3500 
L 2356 3053 
L 1172 3053 
L 1172 1153 
Q 1172 725 1289 603 
Q 1406 481 1766 481 
L 2356 481 
L 2356 0 
L 1766 0 
Q 1100 0 847 248 
Q 594 497 594 1153 
L 594 3053 
L 172 3053 
L 172 3500 
L 594 3500 
L 594 4494 
L 1172 4494 
z
" transform="scale(0.015625)"/>
       <path id="DejaVuSans-79" d="M 2059 -325 
Q 1816 -950 1584 -1140 
Q 1353 -1331 966 -1331 
L 506 -1331 
L 506 -850 
L 844 -850 
Q 1081 -850 1212 -737 
Q 1344 -625 1503 -206 
L 1606 56 
L 191 3500 
L 800 3500 
L 1894 763 
L 2988 3500 
L 3597 3500 
L 2059 -325 
z
" transform="scale(0.015625)"/>
      </defs>
      <use xlink:href="#DejaVuSans-4e"/>
      <use xlink:href="#DejaVuSans-2d" transform="translate(74.804688 0)"/>
      <use xlink:href="#DejaVuSans-53" transform="translate(110.888672 0)"/>
      <use xlink:href="#DejaVuSans-20" transform="translate(174.365234 0)"/>
      <use xlink:href="#DejaVuSans-56" transform="translate(206.152344 0)"/>
      <use xlink:href="#DejaVuSans-65" transform="translate(266.810547 0)"/>
      <use xlink:href="#DejaVuSans-6c" transform="translate(328.333984 0)"/>
      <use xlink:href="#DejaVuSans-6f" transform="translate(356.117188 0)"/>
      <use xlink:href="#DejaVuSans-63" transform="translate(417.298828 0)"/>
      <use xlink:href="#DejaVuSans-69" transform="translate(472.279297 0)"/>
      <use xlink:href="#DejaVuSans-74" transform="translate(500.0625 0)"/>
      <use xlink:href="#DejaVuSans-79" transform="translate(539.271484 0)"/>
      <use xlink:href="#DejaVuSans-20" transform="translate(598.451172 0)"/>
      <use xlink:href="#DejaVuSans-5b" transform="translate(630.238281 0)"/>
      <use xlink:href="#DejaVuSans-6d" transform="translate(669.251953 0)"/>
      <use xlink:href="#DejaVuSans-2f" transform="translate(766.664062 0)"/>
      <use xlink:href="#DejaVuSans-73" transform="translate(800.355469 0)"/>
      <use xlink:href="#DejaVuSans-5d" transform="translate(852.455078 0)"/>
     </g>
    </g>
   </g>
   <g id="line2d_11">
    <path d="M 74.52375 124.519325 
L 241.92375 124.519325 
" clip-path="url(#p6fc939a148)" style="fill: none; stroke-dasharray: 5.55,2.4; stroke-dashoffset: 0; stroke: #000000; stroke-width: 1.5"/>
   </g>
   <g id="line2d_12">
    <path d="M 116.37375 165.027362 
" clip-path="url(#p6fc939a148)" style="fill: none; stroke: #1f77b4; stroke-width: 2.7; stroke-linecap: square"/>
    <defs>
     <path id="m9bd83a6013" d="M 0 3.383948 
C 0.897434 3.383948 1.758231 3.027394 2.392813 2.392813 
C 3.027394 1.758231 3.383948 0.897434 3.383948 0 
C 3.383948 -0.897434 3.027394 -1.758231 2.392813 -2.392813 
C 1.758231 -3.027394 0.897434 -3.383948 0 -3.383948 
C -0.897434 -3.383948 -1.758231 -3.027394 -2.392813 -2.392813 
C -3.027394 -1.758231 -3.383948 -0.897434 -3.383948 0 
C -3.383948 0.897434 -3.027394 1.758231 -2.392813 2.392813 
C -1.758231 3.027394 -0.897434 3.383948 0 3.383948 
z
" style="stroke: #1f77b4; stroke-width: 2.025"/>
    </defs>
    <g clip-path="url(#p6fc939a148)">
     <use xlink:href="#m9bd83a6013" x="116.37375" y="165.027362" style="fill: #1f77b4; stroke: #1f77b4; stroke-width: 2.025"/>
    </g>
   </g>
   <g id="line2d_13">
    <path d="M 116.37375 171.137903 
L 116.37375 158.916821 
" clip-path="url(#p6fc939a148)" style="fill: none; stroke: #1f77b4; stroke-width: 2.7; stroke-linecap: square"/>
   </g>
   <g id="line2d_14">
    <path clip-path="url(#p6fc939a148)" style="fill: none; stroke: #1f77b4; stroke-width: 2.7; stroke-linecap: square"/>
   </g>
   <g id="line2d_15">
    <path d="M 200.07375 142.740924 
" clip-path="url(#p6fc939a148)" style="fill: none; stroke: #d62728; stroke-width: 2.7; stroke-linecap: square"/>
    <defs>
     <path id="me96df94f1e" d="M 0 3.383948 
C 0.897434 3.383948 1.758231 3.027394 2.392813 2.392813 
C 3.027394 1.758231 3.383948 0.897434 3.383948 0 
C 3.383948 -0.897434 3.027394 -1.758231 2.392813 -2.392813 
C 1.758231 -3.027394 0.897434 -3.383948 0 -3.383948 
C -0.897434 -3.383948 -1.758231 -3.027394 -2.392813 -2.392813 
C -3.027394 -1.758231 -3.383948 -0.897434 -3.383948 0 
C -3.383948 0.897434 -3.027394 1.758231 -2.392813 2.392813 
C -1.758231 3.027394 -0.897434 3.383948 0 3.383948 
z
" style="stroke: #d62728; stroke-width: 2.025"/>
    </defs>
    <g clip-path="url(#p6fc939a148)">
     <use xlink:href="#me96df94f1e" x="200.07375" y="142.740924" style="fill: #d62728; stroke: #d62728; stroke-width: 2.025"/>
    </g>
   </g>
   <g id="line2d_16">
    <path clip-path="url(#p6fc939a148)" style="fill: none; stroke: #d62728; stroke-width: 2.7; stroke-linecap: square"/>
   </g>
   <g id="line2d_17">
    <path d="M 200.07375 149.515645 
L 200.07375 135.966203 
" clip-path="url(#p6fc939a148)" style="fill: none; stroke: #d62728; stroke-width: 2.7; stroke-linecap: square"/>
   </g>
   <g id="patch_3">
    <path d="M 74.52375 284.4 
L 74.52375 7.2 
" style="fill: none; stroke: #000000; stroke-width: 0.8; stroke-linejoin: miter; stroke-linecap: square"/>
   </g>
   <g id="patch_4">
    <path d="M 241.92375 284.4 
L 241.92375 7.2 
" style="fill: none; stroke: #000000; stroke-width: 0.8; stroke-linejoin: miter; stroke-linecap: square"/>
   </g>
   <g id="patch_5">
    <path d="M 74.52375 284.4 
L 241.92375 284.4 
" style="fill: none; stroke: #000000; stroke-width: 0.8; stroke-linejoin: miter; stroke-linecap: square"/>
   </g>
   <g id="patch_6">
    <path d="M 74.52375 7.2 
L 241.92375 7.2 
" style="fill: none; stroke: #000000; stroke-width: 0.8; stroke-linejoin: miter; stroke-linecap: square"/>
   </g>
   <g id="PathCollection_1">
    <defs>
     <path id="C0_0_716ea655e3" d="M 0 2.5 
C 0.663008 2.5 1.29895 2.236584 1.767767 1.767767 
C 2.236584 1.29895 2.5 0.663008 2.5 -0 
C 2.5 -0.663008 2.236584 -1.29895 1.767767 -1.767767 
C 1.29895 -2.236584 0.663008 -2.5 0 -2.5 
C -0.663008 -2.5 -1.29895 -2.236584 -1.767767 -1.767767 
C -2.236584 -1.29895 -2.5 -0.663008 -2.5 0 
C -2.5 0.663008 -2.236584 1.29895 -1.767767 1.767767 
C -1.29895 2.236584 -0.663008 2.5 0 2.5 
z
"/>
    </defs>
    <g clip-path="url(#p6fc939a148)">
     <use xlink:href="#C0_0_716ea655e3" x="115.388995" y="198.61896" style="fill: #1f77b4; fill-opacity: 0.3"/>
    </g>
    <g clip-path="url(#p6fc939a148)">
     <use xlink:href="#C0_0_716ea655e3" x="111.143815" y="152.689428" style="fill: #1f77b4; fill-opacity: 0.3"/>
    </g>
    <g clip-path="url(#p6fc939a148)">
     <use xlink:href="#C0_0_716ea655e3" x="113.096537" y="169.530256" style="fill: #1f77b4; fill-opacity: 0.3"/>
    </g>
    <g clip-path="url(#p6fc939a148)">
     <use xlink:href="#C0_0_716ea655e3" x="120.348108" y="160.038153" style="fill: #1f77b4; fill-opacity: 0.3"/>
    </g>
    <g clip-path="url(#p6fc939a148)">
     <use xlink:href="#C0_0_716ea655e3" x="111.278092" y="184.227703" style="fill: #1f77b4; fill-opacity: 0.3"/>
    </g>
    <g clip-path="url(#p6fc939a148)">
     <use xlink:href="#C0_0_716ea655e3" x="121.891833" y="136.767198" style="fill: #1f77b4; fill-opacity: 0.3"/>
    </g>
    <g clip-path="url(#p6fc939a148)">
     <use xlink:href="#C0_0_716ea655e3" x="121.34335" y="141.666346" style="fill: #1f77b4; fill-opacity: 0.3"/>
    </g>
    <g clip-path="url(#p6fc939a148)">
     <use xlink:href="#C0_0_716ea655e3" x="114.206752" y="112.577651" style="fill: #1f77b4; fill-opacity: 0.3"/>
    </g>
    <g clip-path="url(#p6fc939a148)">
     <use xlink:href="#C0_0_716ea655e3" x="118.694905" y="167.080682" style="fill: #1f77b4; fill-opacity: 0.3"/>
    </g>
    <g clip-path="url(#p6fc939a148)">
     <use xlink:href="#C0_0_716ea655e3" x="114.076115" y="206.580073" style="fill: #1f77b4; fill-opacity: 0.3"/>
    </g>
    <g clip-path="url(#p6fc939a148)">
     <use xlink:href="#C0_0_716ea655e3" x="122.92186" y="181.471932" style="fill: #1f77b4; fill-opacity: 0.3"/>
    </g>
    <g clip-path="url(#p6fc939a148)">
     <use xlink:href="#C0_0_716ea655e3" x="123.619445" y="191.270228" style="fill: #1f77b4; fill-opacity: 0.3"/>
    </g>
    <g clip-path="url(#p6fc939a148)">
     <use xlink:href="#C0_0_716ea655e3" x="120.520005" y="114.108633" style="fill: #1f77b4; fill-opacity: 0.3"/>
    </g>
    <g clip-path="url(#p6fc939a148)">
     <use xlink:href="#C0_0_716ea655e3" x="120.647608" y="158.813368" style="fill: #1f77b4; fill-opacity: 0.3"/>
    </g>
    <g clip-path="url(#p6fc939a148)">
     <use xlink:href="#C0_0_716ea655e3" x="112.643742" y="128.806078" style="fill: #1f77b4; fill-opacity: 0.3"/>
    </g>
    <g clip-path="url(#p6fc939a148)">
     <use xlink:href="#C0_0_716ea655e3" x="114.302966" y="153.608023" style="fill: #1f77b4; fill-opacity: 0.3"/>
    </g>
    <g clip-path="url(#p6fc939a148)">
     <use xlink:href="#C0_0_716ea655e3" x="123.179893" y="122.988341" style="fill: #1f77b4; fill-opacity: 0.3"/>
    </g>
    <g clip-path="url(#p6fc939a148)">
     <use xlink:href="#C0_0_716ea655e3" x="121.81716" y="108.290893" style="fill: #1f77b4; fill-opacity: 0.3"/>
    </g>
    <g clip-path="url(#p6fc939a148)">
     <use xlink:href="#C0_0_716ea655e3" x="118.098373" y="243.936069" style="fill: #1f77b4; fill-opacity: 0.3"/>
    </g>
    <g clip-path="url(#p6fc939a148)">
     <use xlink:href="#C0_0_716ea655e3" x="114.617332" y="110.434273" style="fill: #1f77b4; fill-opacity: 0.3"/>
    </g>
    <g clip-path="url(#p6fc939a148)">
     <use xlink:href="#C0_0_716ea655e3" x="116.979427" y="185.146298" style="fill: #1f77b4; fill-opacity: 0.3"/>
    </g>
    <g clip-path="url(#p6fc939a148)">
     <use xlink:href="#C0_0_716ea655e3" x="109.364513" y="237.505969" style="fill: #1f77b4; fill-opacity: 0.3"/>
    </g>
    <g clip-path="url(#p6fc939a148)">
     <use xlink:href="#C0_0_716ea655e3" x="111.404941" y="200.762324" style="fill: #1f77b4; fill-opacity: 0.3"/>
    </g>
    <g clip-path="url(#p6fc939a148)">
     <use xlink:href="#C0_0_716ea655e3" x="119.103296" y="179.940949" style="fill: #1f77b4; fill-opacity: 0.3"/>
    </g>
    <g clip-path="url(#p6fc939a148)">
     <use xlink:href="#C0_0_716ea655e3" x="119.180514" y="152.995628" style="fill: #1f77b4; fill-opacity: 0.3"/>
    </g>
    <g clip-path="url(#p6fc939a148)">
     <use xlink:href="#C0_0_716ea655e3" x="122.567066" y="207.804862" style="fill: #1f77b4; fill-opacity: 0.3"/>
    </g>
    <g clip-path="url(#p6fc939a148)">
     <use xlink:href="#C0_0_716ea655e3" x="110.907057" y="203.211895" style="fill: #1f77b4; fill-opacity: 0.3"/>
    </g>
    <g clip-path="url(#p6fc939a148)">
     <use xlink:href="#C0_0_716ea655e3" x="117.386628" y="237.19975" style="fill: #1f77b4; fill-opacity: 0.3"/>
    </g>
    <g clip-path="url(#p6fc939a148)">
     <use xlink:href="#C0_0_716ea655e3" x="109.736568" y="249.447624" style="fill: #1f77b4; fill-opacity: 0.3"/>
    </g>
    <g clip-path="url(#p6fc939a148)">
     <use xlink:href="#C0_0_716ea655e3" x="112.006243" y="205.355284" style="fill: #1f77b4; fill-opacity: 0.3"/>
    </g>
    <g clip-path="url(#p6fc939a148)">
     <use xlink:href="#C0_0_716ea655e3" x="117.5626" y="271.8" style="fill: #1f77b4; fill-opacity: 0.3"/>
    </g>
    <g clip-path="url(#p6fc939a148)">
     <use xlink:href="#C0_0_716ea655e3" x="114.480767" y="194.025999" style="fill: #1f77b4; fill-opacity: 0.3"/>
    </g>
    <g clip-path="url(#p6fc939a148)">
     <use xlink:href="#C0_0_716ea655e3" x="121.418049" y="226.482853" style="fill: #1f77b4; fill-opacity: 0.3"/>
    </g>
    <g clip-path="url(#p6fc939a148)">
     <use xlink:href="#C0_0_716ea655e3" x="108.439496" y="58.380816" style="fill: #1f77b4; fill-opacity: 0.3"/>
    </g>
    <g clip-path="url(#p6fc939a148)">
     <use xlink:href="#C0_0_716ea655e3" x="109.291786" y="103.085548" style="fill: #1f77b4; fill-opacity: 0.3"/>
    </g>
    <g clip-path="url(#p6fc939a148)">
     <use xlink:href="#C0_0_716ea655e3" x="121.174066" y="201.068531" style="fill: #1f77b4; fill-opacity: 0.3"/>
    </g>
    <g clip-path="url(#p6fc939a148)">
     <use xlink:href="#C0_0_716ea655e3" x="122.303343" y="163.406316" style="fill: #1f77b4; fill-opacity: 0.3"/>
    </g>
    <g clip-path="url(#p6fc939a148)">
     <use xlink:href="#C0_0_716ea655e3" x="110.927701" y="125.744113" style="fill: #1f77b4; fill-opacity: 0.3"/>
    </g>
    <g clip-path="url(#p6fc939a148)">
     <use xlink:href="#C0_0_716ea655e3" x="109.85234" y="124.825523" style="fill: #1f77b4; fill-opacity: 0.3"/>
    </g>
    <g clip-path="url(#p6fc939a148)">
     <use xlink:href="#C0_0_716ea655e3" x="111.250896" y="126.050308" style="fill: #1f77b4; fill-opacity: 0.3"/>
    </g>
    <g clip-path="url(#p6fc939a148)">
     <use xlink:href="#C0_0_716ea655e3" x="120.598049" y="130.337063" style="fill: #1f77b4; fill-opacity: 0.3"/>
    </g>
    <g clip-path="url(#p6fc939a148)">
     <use xlink:href="#C0_0_716ea655e3" x="110.786224" y="132.786638" style="fill: #1f77b4; fill-opacity: 0.3"/>
    </g>
    <g clip-path="url(#p6fc939a148)">
     <use xlink:href="#C0_0_716ea655e3" x="109.297968" y="120.23257" style="fill: #1f77b4; fill-opacity: 0.3"/>
    </g>
    <g clip-path="url(#p6fc939a148)">
     <use xlink:href="#C0_0_716ea655e3" x="120.23579" y="174.123213" style="fill: #1f77b4; fill-opacity: 0.3"/>
    </g>
    <g clip-path="url(#p6fc939a148)">
     <use xlink:href="#C0_0_716ea655e3" x="113.295901" y="159.425765" style="fill: #1f77b4; fill-opacity: 0.3"/>
    </g>
    <g clip-path="url(#p6fc939a148)">
     <use xlink:href="#C0_0_716ea655e3" x="113.012185" y="173.510809" style="fill: #1f77b4; fill-opacity: 0.3"/>
    </g>
    <g clip-path="url(#p6fc939a148)">
     <use xlink:href="#C0_0_716ea655e3" x="111.378206" y="142.278739" style="fill: #1f77b4; fill-opacity: 0.3"/>
    </g>
    <g clip-path="url(#p6fc939a148)">
     <use xlink:href="#C0_0_716ea655e3" x="121.682041" y="153.608023" style="fill: #1f77b4; fill-opacity: 0.3"/>
    </g>
    <g clip-path="url(#p6fc939a148)">
     <use xlink:href="#C0_0_716ea655e3" x="115.001554" y="157.282385" style="fill: #1f77b4; fill-opacity: 0.3"/>
    </g>
    <g clip-path="url(#p6fc939a148)">
     <use xlink:href="#C0_0_716ea655e3" x="120.672567" y="132.480442" style="fill: #1f77b4; fill-opacity: 0.3"/>
    </g>
    <g clip-path="url(#p6fc939a148)">
     <use xlink:href="#C0_0_716ea655e3" x="114.484669" y="142.584936" style="fill: #1f77b4; fill-opacity: 0.3"/>
    </g>
   </g>
   <g id="PathCollection_2">
    <defs>
     <path id="C1_0_2456eac61f" d="M 0 2.5 
C 0.663008 2.5 1.29895 2.236584 1.767767 1.767767 
C 2.236584 1.29895 2.5 0.663008 2.5 -0 
C 2.5 -0.663008 2.236584 -1.29895 1.767767 -1.767767 
C 1.29895 -2.236584 0.663008 -2.5 0 -2.5 
C -0.663008 -2.5 -1.29895 -2.236584 -1.767767 -1.767767 
C -2.236584 -1.29895 -2.5 -0.663008 -2.5 0 
C -2.5 0.663008 -2.236584 1.29895 -1.767767 1.767767 
C -1.29895 2.236584 -0.663008 2.5 0 2.5 
z
"/>
    </defs>
    <g clip-path="url(#p6fc939a148)">
     <use xlink:href="#C1_0_2456eac61f" x="203.189237" y="85.326137" style="fill: #d62728; fill-opacity: 0.3"/>
    </g>
    <g clip-path="url(#p6fc939a148)">
     <use xlink:href="#C1_0_2456eac61f" x="199.529152" y="83.795148" style="fill: #d62728; fill-opacity: 0.3"/>
    </g>
    <g clip-path="url(#p6fc939a148)">
     <use xlink:href="#C1_0_2456eac61f" x="193.886293" y="46.74533" style="fill: #d62728; fill-opacity: 0.3"/>
    </g>
    <g clip-path="url(#p6fc939a148)">
     <use xlink:href="#C1_0_2456eac61f" x="195.577541" y="101.860761" style="fill: #d62728; fill-opacity: 0.3"/>
    </g>
    <g clip-path="url(#p6fc939a148)">
     <use xlink:href="#C1_0_2456eac61f" x="207.961235" y="179.634755" style="fill: #d62728; fill-opacity: 0.3"/>
    </g>
    <g clip-path="url(#p6fc939a148)">
     <use xlink:href="#C1_0_2456eac61f" x="192.408122" y="192.801217" style="fill: #d62728; fill-opacity: 0.3"/>
    </g>
    <g clip-path="url(#p6fc939a148)">
     <use xlink:href="#C1_0_2456eac61f" x="199.566621" y="171.367442" style="fill: #d62728; fill-opacity: 0.3"/>
    </g>
    <g clip-path="url(#p6fc939a148)">
     <use xlink:href="#C1_0_2456eac61f" x="192.703028" y="176.266587" style="fill: #d62728; fill-opacity: 0.3"/>
    </g>
    <g clip-path="url(#p6fc939a148)">
     <use xlink:href="#C1_0_2456eac61f" x="202.603539" y="134.62382" style="fill: #d62728; fill-opacity: 0.3"/>
    </g>
    <g clip-path="url(#p6fc939a148)">
     <use xlink:href="#C1_0_2456eac61f" x="198.490051" y="126.356505" style="fill: #d62728; fill-opacity: 0.3"/>
    </g>
    <g clip-path="url(#p6fc939a148)">
     <use xlink:href="#C1_0_2456eac61f" x="193.767325" y="142.584936" style="fill: #d62728; fill-opacity: 0.3"/>
    </g>
    <g clip-path="url(#p6fc939a148)">
     <use xlink:href="#C1_0_2456eac61f" x="207.679146" y="151.770843" style="fill: #d62728; fill-opacity: 0.3"/>
    </g>
    <g clip-path="url(#p6fc939a148)">
     <use xlink:href="#C1_0_2456eac61f" x="191.941449" y="128.80608" style="fill: #d62728; fill-opacity: 0.3"/>
    </g>
    <g clip-path="url(#p6fc939a148)">
     <use xlink:href="#C1_0_2456eac61f" x="195.204128" y="144.728315" style="fill: #d62728; fill-opacity: 0.3"/>
    </g>
    <g clip-path="url(#p6fc939a148)">
     <use xlink:href="#C1_0_2456eac61f" x="192.572057" y="114.108633" style="fill: #d62728; fill-opacity: 0.3"/>
    </g>
    <g clip-path="url(#p6fc939a148)">
     <use xlink:href="#C1_0_2456eac61f" x="197.87466" y="136.154805" style="fill: #d62728; fill-opacity: 0.3"/>
    </g>
    <g clip-path="url(#p6fc939a148)">
     <use xlink:href="#C1_0_2456eac61f" x="206.656676" y="139.522968" style="fill: #d62728; fill-opacity: 0.3"/>
    </g>
    <g clip-path="url(#p6fc939a148)">
     <use xlink:href="#C1_0_2456eac61f" x="202.938688" y="223.727095" style="fill: #d62728; fill-opacity: 0.3"/>
    </g>
    <g clip-path="url(#p6fc939a148)">
     <use xlink:href="#C1_0_2456eac61f" x="202.4544" y="193.719805" style="fill: #d62728; fill-opacity: 0.3"/>
    </g>
    <g clip-path="url(#p6fc939a148)">
     <use xlink:href="#C1_0_2456eac61f" x="192.657277" y="86.550919" style="fill: #d62728; fill-opacity: 0.3"/>
    </g>
    <g clip-path="url(#p6fc939a148)">
     <use xlink:href="#C1_0_2456eac61f" x="194.256756" y="88.388105" style="fill: #d62728; fill-opacity: 0.3"/>
    </g>
    <g clip-path="url(#p6fc939a148)">
     <use xlink:href="#C1_0_2456eac61f" x="200.61204" y="111.046664" style="fill: #d62728; fill-opacity: 0.3"/>
    </g>
    <g clip-path="url(#p6fc939a148)">
     <use xlink:href="#C1_0_2456eac61f" x="200.067386" y="74.915446" style="fill: #d62728; fill-opacity: 0.3"/>
    </g>
    <g clip-path="url(#p6fc939a148)">
     <use xlink:href="#C1_0_2456eac61f" x="191.987364" y="19.8" style="fill: #d62728; fill-opacity: 0.3"/>
    </g>
    <g clip-path="url(#p6fc939a148)">
     <use xlink:href="#C1_0_2456eac61f" x="202.862623" y="110.740467" style="fill: #d62728; fill-opacity: 0.3"/>
    </g>
    <g clip-path="url(#p6fc939a148)">
     <use xlink:href="#C1_0_2456eac61f" x="198.523481" y="114.41483" style="fill: #d62728; fill-opacity: 0.3"/>
    </g>
    <g clip-path="url(#p6fc939a148)">
     <use xlink:href="#C1_0_2456eac61f" x="199.960248" y="237.812138" style="fill: #d62728; fill-opacity: 0.3"/>
    </g>
    <g clip-path="url(#p6fc939a148)">
     <use xlink:href="#C1_0_2456eac61f" x="206.989622" y="199.537548" style="fill: #d62728; fill-opacity: 0.3"/>
    </g>
    <g clip-path="url(#p6fc939a148)">
     <use xlink:href="#C1_0_2456eac61f" x="198.177494" y="224.033289" style="fill: #d62728; fill-opacity: 0.3"/>
    </g>
    <g clip-path="url(#p6fc939a148)">
     <use xlink:href="#C1_0_2456eac61f" x="206.04678" y="220.358923" style="fill: #d62728; fill-opacity: 0.3"/>
    </g>
    <g clip-path="url(#p6fc939a148)">
     <use xlink:href="#C1_0_2456eac61f" x="201.576043" y="230.157238" style="fill: #d62728; fill-opacity: 0.3"/>
    </g>
    <g clip-path="url(#p6fc939a148)">
     <use xlink:href="#C1_0_2456eac61f" x="200.813877" y="157.282382" style="fill: #d62728; fill-opacity: 0.3"/>
    </g>
    <g clip-path="url(#p6fc939a148)">
     <use xlink:href="#C1_0_2456eac61f" x="206.039575" y="230.463419" style="fill: #d62728; fill-opacity: 0.3"/>
    </g>
    <g clip-path="url(#p6fc939a148)">
     <use xlink:href="#C1_0_2456eac61f" x="200.202107" y="119.620176" style="fill: #d62728; fill-opacity: 0.3"/>
    </g>
    <g clip-path="url(#p6fc939a148)">
     <use xlink:href="#C1_0_2456eac61f" x="198.344701" y="112.271452" style="fill: #d62728; fill-opacity: 0.3"/>
    </g>
    <g clip-path="url(#p6fc939a148)">
     <use xlink:href="#C1_0_2456eac61f" x="205.261712" y="122.375946" style="fill: #d62728; fill-opacity: 0.3"/>
    </g>
    <g clip-path="url(#p6fc939a148)">
     <use xlink:href="#C1_0_2456eac61f" x="200.658185" y="158.507171" style="fill: #d62728; fill-opacity: 0.3"/>
    </g>
    <g clip-path="url(#p6fc939a148)">
     <use xlink:href="#C1_0_2456eac61f" x="204.408483" y="152.689428" style="fill: #d62728; fill-opacity: 0.3"/>
    </g>
    <g clip-path="url(#p6fc939a148)">
     <use xlink:href="#C1_0_2456eac61f" x="199.413512" y="154.832808" style="fill: #d62728; fill-opacity: 0.3"/>
    </g>
    <g clip-path="url(#p6fc939a148)">
     <use xlink:href="#C1_0_2456eac61f" x="193.67301" y="107.984698" style="fill: #d62728; fill-opacity: 0.3"/>
    </g>
    <g clip-path="url(#p6fc939a148)">
     <use xlink:href="#C1_0_2456eac61f" x="206.37111" y="63.586158" style="fill: #d62728; fill-opacity: 0.3"/>
    </g>
    <g clip-path="url(#p6fc939a148)">
     <use xlink:href="#C1_0_2456eac61f" x="200.645169" y="82.570362" style="fill: #d62728; fill-opacity: 0.3"/>
    </g>
    <g clip-path="url(#p6fc939a148)">
     <use xlink:href="#C1_0_2456eac61f" x="194.614043" y="144.728315" style="fill: #d62728; fill-opacity: 0.3"/>
    </g>
    <g clip-path="url(#p6fc939a148)">
     <use xlink:href="#C1_0_2456eac61f" x="198.754368" y="121.763554" style="fill: #d62728; fill-opacity: 0.3"/>
    </g>
    <g clip-path="url(#p6fc939a148)">
     <use xlink:href="#C1_0_2456eac61f" x="193.796696" y="201.068531" style="fill: #d62728; fill-opacity: 0.3"/>
    </g>
    <g clip-path="url(#p6fc939a148)">
     <use xlink:href="#C1_0_2456eac61f" x="195.932007" y="170.44885" style="fill: #d62728; fill-opacity: 0.3"/>
    </g>
    <g clip-path="url(#p6fc939a148)">
     <use xlink:href="#C1_0_2456eac61f" x="203.371813" y="121.151159" style="fill: #d62728; fill-opacity: 0.3"/>
    </g>
    <g clip-path="url(#p6fc939a148)">
     <use xlink:href="#C1_0_2456eac61f" x="194.096489" y="185.758692" style="fill: #d62728; fill-opacity: 0.3"/>
    </g>
    <g clip-path="url(#p6fc939a148)">
     <use xlink:href="#C1_0_2456eac61f" x="193.049335" y="132.480442" style="fill: #d62728; fill-opacity: 0.3"/>
    </g>
    <g clip-path="url(#p6fc939a148)">
     <use xlink:href="#C1_0_2456eac61f" x="193.037769" y="155.445202" style="fill: #d62728; fill-opacity: 0.3"/>
    </g>
    <g clip-path="url(#p6fc939a148)">
     <use xlink:href="#C1_0_2456eac61f" x="192.177282" y="190.964034" style="fill: #d62728; fill-opacity: 0.3"/>
    </g>
    <g clip-path="url(#p6fc939a148)">
     <use xlink:href="#C1_0_2456eac61f" x="203.648637" y="155.7514" style="fill: #d62728; fill-opacity: 0.3"/>
    </g>
    <g clip-path="url(#p6fc939a148)">
     <use xlink:href="#C1_0_2456eac61f" x="194.159358" y="131.868049" style="fill: #d62728; fill-opacity: 0.3"/>
    </g>
   </g>
  </g>
 </g>
 <defs>
  <clipPath id="p6fc939a148">
   <rect x="74.52375" y="7.2" width="167.4" height="277.2"/>
  </clipPath>
 </defs>
</svg>
