<?xml version="1.0" encoding="utf-8" standalone="no"?>
<!DOCTYPE svg PUBLIC "-//W3C//DTD SVG 1.1//EN"
  "http://www.w3.org/Graphics/SVG/1.1/DTD/svg11.dtd">
<svg xmlns:xlink="http://www.w3.org/1999/xlink" width="567.369821pt" height="222.883125pt" viewBox="0 0 567.369821 222.883125" xmlns="http://www.w3.org/2000/svg" version="1.1">
 <metadata>
  <rdf:RDF xmlns:dc="http://purl.org/dc/elements/1.1/" xmlns:cc="http://creativecommons.org/ns#" xmlns:rdf="http://www.w3.org/1999/02/22-rdf-syntax-ns#">
   <cc:Work>
    <dc:type rdf:resource="http://purl.org/dc/dcmitype/StillImage"/>
    <dc:date>2026-05-29T10:14:24.857024</dc:date>
    <dc:format>image/svg+xml</dc:format>
    <dc:creator>
     <cc:Agent>
      <dc:title>Matplotlib v3.10.6, https://matplotlib.org/</dc:title>
     </cc:Agent>
    </dc:creator>
   </cc:Work>
  </rdf:RDF>
 </metadata>
 <defs>
  <style type="text/css">*{stroke-linejoin: round; stroke-linecap: butt}</style>
 </defs>
 <g id="figure_1">
  <g id="patch_1">
   <path d="M 0 222.883125 
L 567.369821 222.883125 
L 567.369821 0 
L 0 0 
z
" style="fill: #ffffff"/>
  </g>
  <g id="axes_1">
   <g id="patch_2">
    <path d="M 55.44 173.52 
L 557.64 173.52 
L 557.64 7.2 
L 55.44 7.2 
z
" style="fill: #ffffff"/>
   </g>
   <g id="FillBetweenPolyCollection_1"/>
   <g id="matplotlib.axis_1">
    <g id="xtick_1">
     <g id="line2d_1">
      <defs>
       <path id="m022dc990e7" d="M 0 0 
L 0 3.5 
" style="stroke: #000000; stroke-width: 0.8"/>
      </defs>
      <g>
       <use xlink:href="#m022dc990e7" x="81.393995" y="173.52" style="stroke: #000000; stroke-width: 0.8"/>
      </g>
     </g>
     <g id="text_1">
      <!-- 2025-11-02 -->
      <g transform="translate(46.52462 189.638125) scale(0.12 -0.12)">
       <defs>
        <path id="DejaVuSans-32" d="M 1228 531 
L 3431 531 
L 3431 0 
L 469 0 
L 469 531 
Q 828 903 1448 1529 
Q 2069 2156 2228 2338 
Q 2531 2678 2651 2914 
Q 2772 3150 2772 3378 
Q 2772 3750 2511 3984 
Q 2250 4219 1831 4219 
Q 1534 4219 1204 4116 
Q 875 4013 500 3803 
L 500 4441 
Q 881 4594 1212 4672 
Q 1544 4750 1819 4750 
Q 2544 4750 2975 4387 
Q 3406 4025 3406 3419 
Q 3406 3131 3298 2873 
Q 3191 2616 2906 2266 
Q 2828 2175 2409 1742 
Q 1991 1309 1228 531 
z
" transform="scale(0.015625)"/>
        <path id="DejaVuSans-30" d="M 2034 4250 
Q 1547 4250 1301 3770 
Q 1056 3291 1056 2328 
Q 1056 1369 1301 889 
Q 1547 409 2034 409 
Q 2525 409 2770 889 
Q 3016 1369 3016 2328 
Q 3016 3291 2770 3770 
Q 2525 4250 2034 4250 
z
M 2034 4750 
Q 2819 4750 3233 4129 
Q 3647 3509 3647 2328 
Q 3647 1150 3233 529 
Q 2819 -91 2034 -91 
Q 1250 -91 836 529 
Q 422 1150 422 2328 
Q 422 3509 836 4129 
Q 1250 4750 2034 4750 
z
" transform="scale(0.015625)"/>
        <path id="DejaVuSans-35" d="M 691 4666 
L 3169 4666 
L 3169 4134 
L 1269 4134 
L 1269 2991 
Q 1406 3038 1543 3061 
Q 1681 3084 1819 3084 
Q 2600 3084 3056 2656 
Q 3513 2228 3513 1497 
Q 3513 744 3044 326 
Q 2575 -91 1722 -91 
Q 1428 -91 1123 -41 
Q 819 9 494 109 
L 494 744 
Q 775 591 1075 516 
Q 1375 441 1709 441 
Q 2250 441 2565 725 
Q 2881 1009 2881 1497 
Q 2881 1984 2565 2268 
Q 2250 2553 1709 2553 
Q 1456 2553 1204 2497 
Q 953 2441 691 2322 
L 691 4666 
z
" transform="scale(0.015625)"/>
        <path id="DejaVuSans-2d" d="M 313 2009 
L 1997 2009 
L 1997 1497 
L 313 1497 
L 313 2009 
z
" transform="scale(0.015625)"/>
        <path id="DejaVuSans-31" d="M 794 531 
L 1825 531 
L 1825 4091 
L 703 3866 
L 703 4441 
L 1819 4666 
L 2450 4666 
L 2450 531 
L 3481 531 
L 3481 0 
L 794 0 
L 794 531 
z
" transform="scale(0.015625)"/>
       </defs>
       <use xlink:href="#DejaVuSans-32"/>
       <use xlink:href="#DejaVuSans-30" transform="translate(63.623047 0)"/>
       <use xlink:href="#DejaVuSans-32" transform="translate(127.246094 0)"/>
       <use xlink:href="#DejaVuSans-35" transform="translate(190.869141 0)"/>
       <use xlink:href="#DejaVuSans-2d" transform="translate(254.492188 0)"/>
       <use xlink:href="#DejaVuSans-31" transform="translate(290.576172 0)"/>
       <use xlink:href="#DejaVuSans-31" transform="translate(354.199219 0)"/>
       <use xlink:href="#DejaVuSans-2d" transform="translate(417.822266 0)"/>
       <use xlink:href="#DejaVuSans-30" transform="translate(453.90625 0)"/>
       <use xlink:href="#DejaVuSans-32" transform="translate(517.529297 0)"/>
      </g>
     </g>
    </g>
    <g id="xtick_2">
     <g id="line2d_2">
      <g>
       <use xlink:href="#m022dc990e7" x="170.175285" y="173.52" style="stroke: #000000; stroke-width: 0.8"/>
      </g>
     </g>
     <g id="text_2">
      <!-- 2025-11-16 -->
      <g transform="translate(135.30591 189.638125) scale(0.12 -0.12)">
       <defs>
        <path id="DejaVuSans-36" d="M 2113 2584 
Q 1688 2584 1439 2293 
Q 1191 2003 1191 1497 
Q 1191 994 1439 701 
Q 1688 409 2113 409 
Q 2538 409 2786 701 
Q 3034 994 3034 1497 
Q 3034 2003 2786 2293 
Q 2538 2584 2113 2584 
z
M 3366 4563 
L 3366 3988 
Q 3128 4100 2886 4159 
Q 2644 4219 2406 4219 
Q 1781 4219 1451 3797 
Q 1122 3375 1075 2522 
Q 1259 2794 1537 2939 
Q 1816 3084 2150 3084 
Q 2853 3084 3261 2657 
Q 3669 2231 3669 1497 
Q 3669 778 3244 343 
Q 2819 -91 2113 -91 
Q 1303 -91 875 529 
Q 447 1150 447 2328 
Q 447 3434 972 4092 
Q 1497 4750 2381 4750 
Q 2619 4750 2861 4703 
Q 3103 4656 3366 4563 
z
" transform="scale(0.015625)"/>
       </defs>
       <use xlink:href="#DejaVuSans-32"/>
       <use xlink:href="#DejaVuSans-30" transform="translate(63.623047 0)"/>
       <use xlink:href="#DejaVuSans-32" transform="translate(127.246094 0)"/>
       <use xlink:href="#DejaVuSans-35" transform="translate(190.869141 0)"/>
       <use xlink:href="#DejaVuSans-2d" transform="translate(254.492188 0)"/>
       <use xlink:href="#DejaVuSans-31" transform="translate(290.576172 0)"/>
       <use xlink:href="#DejaVuSans-31" transform="translate(354.199219 0)"/>
       <use xlink:href="#DejaVuSans-2d" transform="translate(417.822266 0)"/>
       <use xlink:href="#DejaVuSans-31" transform="translate(453.90625 0)"/>
       <use xlink:href="#DejaVuSans-36" transform="translate(517.529297 0)"/>
      </g>
     </g>
    </g>
    <g id="xtick_3">
     <g id="line2d_3">
      <g>
       <use xlink:href="#m022dc990e7" x="258.956575" y="173.52" style="stroke: #000000; stroke-width: 0.8"/>
      </g>
     </g>
     <g id="text_3">
      <!-- 2025-11-30 -->
      <g transform="translate(224.0872 189.638125) scale(0.12 -0.12)">
       <defs>
        <path id="DejaVuSans-33" d="M 2597 2516 
Q 3050 2419 3304 2112 
Q 3559 1806 3559 1356 
Q 3559 666 3084 287 
Q 2609 -91 1734 -91 
Q 1441 -91 1130 -33 
Q 819 25 488 141 
L 488 750 
Q 750 597 1062 519 
Q 1375 441 1716 441 
Q 2309 441 2620 675 
Q 2931 909 2931 1356 
Q 2931 1769 2642 2001 
Q 2353 2234 1838 2234 
L 1294 2234 
L 1294 2753 
L 1863 2753 
Q 2328 2753 2575 2939 
Q 2822 3125 2822 3475 
Q 2822 3834 2567 4026 
Q 2313 4219 1838 4219 
Q 1578 4219 1281 4162 
Q 984 4106 628 3988 
L 628 4550 
Q 988 4650 1302 4700 
Q 1616 4750 1894 4750 
Q 2613 4750 3031 4423 
Q 3450 4097 3450 3541 
Q 3450 3153 3228 2886 
Q 3006 2619 2597 2516 
z
" transform="scale(0.015625)"/>
       </defs>
       <use xlink:href="#DejaVuSans-32"/>
       <use xlink:href="#DejaVuSans-30" transform="translate(63.623047 0)"/>
       <use xlink:href="#DejaVuSans-32" transform="translate(127.246094 0)"/>
       <use xlink:href="#DejaVuSans-35" transform="translate(190.869141 0)"/>
       <use xlink:href="#DejaVuSans-2d" transform="translate(254.492188 0)"/>
       <use xlink:href="#DejaVuSans-31" transform="translate(290.576172 0)"/>
       <use xlink:href="#DejaVuSans-31" transform="translate(354.199219 0)"/>
       <use xlink:href="#DejaVuSans-2d" transform="translate(417.822266 0)"/>
       <use xlink:href="#DejaVuSans-33" transform="translate(453.90625 0)"/>
       <use xlink:href="#DejaVuSans-30" transform="translate(517.529297 0)"/>
      </g>
     </g>
    </g>
    <g id="xtick_4">
     <g id="line2d_4">
      <g>
       <use xlink:href="#m022dc990e7" x="347.737866" y="173.52" style="stroke: #000000; stroke-width: 0.8"/>
      </g>
     </g>
     <g id="text_4">
      <!-- 2025-12-14 -->
      <g transform="translate(312.868491 189.638125) scale(0.12 -0.12)">
       <defs>
        <path id="DejaVuSans-34" d="M 2419 4116 
L 825 1625 
L 2419 1625 
L 2419 4116 
z
M 2253 4666 
L 3047 4666 
L 3047 1625 
L 3713 1625 
L 3713 1100 
L 3047 1100 
L 3047 0 
L 2419 0 
L 2419 1100 
L 313 1100 
L 313 1709 
L 2253 4666 
z
" transform="scale(0.015625)"/>
       </defs>
       <use xlink:href="#DejaVuSans-32"/>
       <use xlink:href="#DejaVuSans-30" transform="translate(63.623047 0)"/>
       <use xlink:href="#DejaVuSans-32" transform="translate(127.246094 0)"/>
       <use xlink:href="#DejaVuSans-35" transform="translate(190.869141 0)"/>
       <use xlink:href="#DejaVuSans-2d" transform="translate(254.492188 0)"/>
       <use xlink:href="#DejaVuSans-31" transform="translate(290.576172 0)"/>
       <use xlink:href="#DejaVuSans-32" transform="translate(354.199219 0)"/>
       <use xlink:href="#DejaVuSans-2d" transform="translate(417.822266 0)"/>
       <use xlink:href="#DejaVuSans-31" transform="translate(453.90625 0)"/>
       <use xlink:href="#DejaVuSans-34" transform="translate(517.529297 0)"/>
      </g>
     </g>
    </g>
    <g id="xtick_5">
     <g id="line2d_5">
      <g>
       <use xlink:href="#m022dc990e7" x="436.519156" y="173.52" style="stroke: #000000; stroke-width: 0.8"/>
      </g>
     </g>
     <g id="text_5">
      <!-- 2025-12-28 -->
      <g transform="translate(401.649781 189.638125) scale(0.12 -0.12)">
       <defs>
        <path id="DejaVuSans-38" d="M 2034 2216 
Q 1584 2216 1326 1975 
Q 1069 1734 1069 1313 
Q 1069 891 1326 650 
Q 1584 409 2034 409 
Q 2484 409 2743 651 
Q 3003 894 3003 1313 
Q 3003 1734 2745 1975 
Q 2488 2216 2034 2216 
z
M 1403 2484 
Q 997 2584 770 2862 
Q 544 3141 544 3541 
Q 544 4100 942 4425 
Q 1341 4750 2034 4750 
Q 2731 4750 3128 4425 
Q 3525 4100 3525 3541 
Q 3525 3141 3298 2862 
Q 3072 2584 2669 2484 
Q 3125 2378 3379 2068 
Q 3634 1759 3634 1313 
Q 3634 634 3220 271 
Q 2806 -91 2034 -91 
Q 1263 -91 848 271 
Q 434 634 434 1313 
Q 434 1759 690 2068 
Q 947 2378 1403 2484 
z
M 1172 3481 
Q 1172 3119 1398 2916 
Q 1625 2713 2034 2713 
Q 2441 2713 2670 2916 
Q 2900 3119 2900 3481 
Q 2900 3844 2670 4047 
Q 2441 4250 2034 4250 
Q 1625 4250 1398 4047 
Q 1172 3844 1172 3481 
z
" transform="scale(0.015625)"/>
       </defs>
       <use xlink:href="#DejaVuSans-32"/>
       <use xlink:href="#DejaVuSans-30" transform="translate(63.623047 0)"/>
       <use xlink:href="#DejaVuSans-32" transform="translate(127.246094 0)"/>
       <use xlink:href="#DejaVuSans-35" transform="translate(190.869141 0)"/>
       <use xlink:href="#DejaVuSans-2d" transform="translate(254.492188 0)"/>
       <use xlink:href="#DejaVuSans-31" transform="translate(290.576172 0)"/>
       <use xlink:href="#DejaVuSans-32" transform="translate(354.199219 0)"/>
       <use xlink:href="#DejaVuSans-2d" transform="translate(417.822266 0)"/>
       <use xlink:href="#DejaVuSans-32" transform="translate(453.90625 0)"/>
       <use xlink:href="#DejaVuSans-38" transform="translate(517.529297 0)"/>
      </g>
     </g>
    </g>
    <g id="xtick_6">
     <g id="line2d_6">
      <g>
       <use xlink:href="#m022dc990e7" x="525.300446" y="173.52" style="stroke: #000000; stroke-width: 0.8"/>
      </g>
     </g>
     <g id="text_6">
      <!-- 2026-01-11 -->
      <g transform="translate(490.431071 189.638125) scale(0.12 -0.12)">
       <use xlink:href="#DejaVuSans-32"/>
       <use xlink:href="#DejaVuSans-30" transform="translate(63.623047 0)"/>
       <use xlink:href="#DejaVuSans-32" transform="translate(127.246094 0)"/>
       <use xlink:href="#DejaVuSans-36" transform="translate(190.869141 0)"/>
       <use xlink:href="#DejaVuSans-2d" transform="translate(254.492188 0)"/>
       <use xlink:href="#DejaVuSans-30" transform="translate(290.576172 0)"/>
       <use xlink:href="#DejaVuSans-31" transform="translate(354.199219 0)"/>
       <use xlink:href="#DejaVuSans-2d" transform="translate(417.822266 0)"/>
       <use xlink:href="#DejaVuSans-31" transform="translate(453.90625 0)"/>
       <use xlink:href="#DejaVuSans-31" transform="translate(517.529297 0)"/>
      </g>
     </g>
    </g>
    <g id="text_7">
     <!-- Time -->
     <g transform="translate(289.412969 212.771563) scale(0.14 -0.14)">
      <defs>
       <path id="DejaVuSans-54" d="M -19 4666 
L 3928 4666 
L 3928 4134 
L 2272 4134 
L 2272 0 
L 1638 0 
L 1638 4134 
L -19 4134 
L -19 4666 
z
" transform="scale(0.015625)"/>
       <path id="DejaVuSans-69" d="M 603 3500 
L 1178 3500 
L 1178 0 
L 603 0 
L 603 3500 
z
M 603 4863 
L 1178 4863 
L 1178 4134 
L 603 4134 
L 603 4863 
z
" transform="scale(0.015625)"/>
       <path id="DejaVuSans-6d" d="M 3328 2828 
Q 3544 3216 3844 3400 
Q 4144 3584 4550 3584 
Q 5097 3584 5394 3201 
Q 5691 2819 5691 2113 
L 5691 0 
L 5113 0 
L 5113 2094 
Q 5113 2597 4934 2840 
Q 4756 3084 4391 3084 
Q 3944 3084 3684 2787 
Q 3425 2491 3425 1978 
L 3425 0 
L 2847 0 
L 2847 2094 
Q 2847 2600 2669 2842 
Q 2491 3084 2119 3084 
Q 1678 3084 1418 2786 
Q 1159 2488 1159 1978 
L 1159 0 
L 581 0 
L 581 3500 
L 1159 3500 
L 1159 2956 
Q 1356 3278 1631 3431 
Q 1906 3584 2284 3584 
Q 2666 3584 2933 3390 
Q 3200 3197 3328 2828 
z
" transform="scale(0.015625)"/>
       <path id="DejaVuSans-65" d="M 3597 1894 
L 3597 1613 
L 953 1613 
Q 991 1019 1311 708 
Q 1631 397 2203 397 
Q 2534 397 2845 478 
Q 3156 559 3463 722 
L 3463 178 
Q 3153 47 2828 -22 
Q 2503 -91 2169 -91 
Q 1331 -91 842 396 
Q 353 884 353 1716 
Q 353 2575 817 3079 
Q 1281 3584 2069 3584 
Q 2775 3584 3186 3129 
Q 3597 2675 3597 1894 
z
M 3022 2063 
Q 3016 2534 2758 2815 
Q 2500 3097 2075 3097 
Q 1594 3097 1305 2825 
Q 1016 2553 972 2059 
L 3022 2063 
z
" transform="scale(0.015625)"/>
      </defs>
      <use xlink:href="#DejaVuSans-54"/>
      <use xlink:href="#DejaVuSans-69" transform="translate(57.958984 0)"/>
      <use xlink:href="#DejaVuSans-6d" transform="translate(85.742188 0)"/>
      <use xlink:href="#DejaVuSans-65" transform="translate(183.154297 0)"/>
     </g>
    </g>
   </g>
   <g id="matplotlib.axis_2">
    <g id="ytick_1">
     <g id="line2d_7">
      <defs>
       <path id="m5d0439052a" d="M 0 0 
L -3.5 0 
" style="stroke: #000000; stroke-width: 0.8"/>
      </defs>
      <g>
       <use xlink:href="#m5d0439052a" x="55.44" y="130.39407" style="stroke: #000000; stroke-width: 0.8"/>
      </g>
     </g>
     <g id="text_8">
      <!-- −2 -->
      <g transform="translate(30.749375 134.953132) scale(0.12 -0.12)">
       <defs>
        <path id="DejaVuSans-2212" d="M 678 2272 
L 4684 2272 
L 4684 1741 
L 678 1741 
L 678 2272 
z
" transform="scale(0.015625)"/>
       </defs>
       <use xlink:href="#DejaVuSans-2212"/>
       <use xlink:href="#DejaVuSans-32" transform="translate(83.789062 0)"/>
      </g>
     </g>
    </g>
    <g id="ytick_2">
     <g id="line2d_8">
      <g>
       <use xlink:href="#m5d0439052a" x="55.44" y="80.896872" style="stroke: #000000; stroke-width: 0.8"/>
      </g>
     </g>
     <g id="text_9">
      <!-- 0 -->
      <g transform="translate(40.805 85.455934) scale(0.12 -0.12)">
       <use xlink:href="#DejaVuSans-30"/>
      </g>
     </g>
    </g>
    <g id="ytick_3">
     <g id="line2d_9">
      <g>
       <use xlink:href="#m5d0439052a" x="55.44" y="31.399674" style="stroke: #000000; stroke-width: 0.8"/>
      </g>
     </g>
     <g id="text_10">
      <!-- 2 -->
      <g transform="translate(40.805 35.958737) scale(0.12 -0.12)">
       <use xlink:href="#DejaVuSans-32"/>
      </g>
     </g>
    </g>
    <g id="text_11">
     <!-- N/S Wind [m/s] -->
     <g transform="translate(17.837812 142.722188) rotate(-90) scale(0.14 -0.14)">
      <defs>
       <path id="DejaVuSans-4e" d="M 628 4666 
L 1478 4666 
L 3547 763 
L 3547 4666 
L 4159 4666 
L 4159 0 
L 3309 0 
L 1241 3903 
L 1241 0 
L 628 0 
L 628 4666 
z
" transform="scale(0.015625)"/>
       <path id="DejaVuSans-2f" d="M 1625 4666 
L 2156 4666 
L 531 -594 
L 0 -594 
L 1625 4666 
z
" transform="scale(0.015625)"/>
       <path id="DejaVuSans-53" d="M 3425 4513 
L 3425 3897 
Q 3066 4069 2747 4153 
Q 2428 4238 2131 4238 
Q 1616 4238 1336 4038 
Q 1056 3838 1056 3469 
Q 1056 3159 1242 3001 
Q 1428 2844 1947 2747 
L 2328 2669 
Q 3034 2534 3370 2195 
Q 3706 1856 3706 1288 
Q 3706 609 3251 259 
Q 2797 -91 1919 -91 
Q 1588 -91 1214 -16 
Q 841 59 441 206 
L 441 856 
Q 825 641 1194 531 
Q 1563 422 1919 422 
Q 2459 422 2753 634 
Q 3047 847 3047 1241 
Q 3047 1584 2836 1778 
Q 2625 1972 2144 2069 
L 1759 2144 
Q 1053 2284 737 2584 
Q 422 2884 422 3419 
Q 422 4038 858 4394 
Q 1294 4750 2059 4750 
Q 2388 4750 2728 4690 
Q 3069 4631 3425 4513 
z
" transform="scale(0.015625)"/>
       <path id="DejaVuSans-20" transform="scale(0.015625)"/>
       <path id="DejaVuSans-57" d="M 213 4666 
L 850 4666 
L 1831 722 
L 2809 4666 
L 3519 4666 
L 4500 722 
L 5478 4666 
L 6119 4666 
L 4947 0 
L 4153 0 
L 3169 4050 
L 2175 0 
L 1381 0 
L 213 4666 
z
" transform="scale(0.015625)"/>
       <path id="DejaVuSans-6e" d="M 3513 2113 
L 3513 0 
L 2938 0 
L 2938 2094 
Q 2938 2591 2744 2837 
Q 2550 3084 2163 3084 
Q 1697 3084 1428 2787 
Q 1159 2491 1159 1978 
L 1159 0 
L 581 0 
L 581 3500 
L 1159 3500 
L 1159 2956 
Q 1366 3272 1645 3428 
Q 1925 3584 2291 3584 
Q 2894 3584 3203 3211 
Q 3513 2838 3513 2113 
z
" transform="scale(0.015625)"/>
       <path id="DejaVuSans-64" d="M 2906 2969 
L 2906 4863 
L 3481 4863 
L 3481 0 
L 2906 0 
L 2906 525 
Q 2725 213 2448 61 
Q 2172 -91 1784 -91 
Q 1150 -91 751 415 
Q 353 922 353 1747 
Q 353 2572 751 3078 
Q 1150 3584 1784 3584 
Q 2172 3584 2448 3432 
Q 2725 3281 2906 2969 
z
M 947 1747 
Q 947 1113 1208 752 
Q 1469 391 1925 391 
Q 2381 391 2643 752 
Q 2906 1113 2906 1747 
Q 2906 2381 2643 2742 
Q 2381 3103 1925 3103 
Q 1469 3103 1208 2742 
Q 947 2381 947 1747 
z
" transform="scale(0.015625)"/>
       <path id="DejaVuSans-5b" d="M 550 4863 
L 1875 4863 
L 1875 4416 
L 1125 4416 
L 1125 -397 
L 1875 -397 
L 1875 -844 
L 550 -844 
L 550 4863 
z
" transform="scale(0.015625)"/>
       <path id="DejaVuSans-73" d="M 2834 3397 
L 2834 2853 
Q 2591 2978 2328 3040 
Q 2066 3103 1784 3103 
Q 1356 3103 1142 2972 
Q 928 2841 928 2578 
Q 928 2378 1081 2264 
Q 1234 2150 1697 2047 
L 1894 2003 
Q 2506 1872 2764 1633 
Q 3022 1394 3022 966 
Q 3022 478 2636 193 
Q 2250 -91 1575 -91 
Q 1294 -91 989 -36 
Q 684 19 347 128 
L 347 722 
Q 666 556 975 473 
Q 1284 391 1588 391 
Q 1994 391 2212 530 
Q 2431 669 2431 922 
Q 2431 1156 2273 1281 
Q 2116 1406 1581 1522 
L 1381 1569 
Q 847 1681 609 1914 
Q 372 2147 372 2553 
Q 372 3047 722 3315 
Q 1072 3584 1716 3584 
Q 2034 3584 2315 3537 
Q 2597 3491 2834 3397 
z
" transform="scale(0.015625)"/>
       <path id="DejaVuSans-5d" d="M 1947 4863 
L 1947 -844 
L 622 -844 
L 622 -397 
L 1369 -397 
L 1369 4416 
L 622 4416 
L 622 4863 
L 1947 4863 
z
" transform="scale(0.015625)"/>
      </defs>
      <use xlink:href="#DejaVuSans-4e"/>
      <use xlink:href="#DejaVuSans-2f" transform="translate(74.804688 0)"/>
      <use xlink:href="#DejaVuSans-53" transform="translate(108.496094 0)"/>
      <use xlink:href="#DejaVuSans-20" transform="translate(171.972656 0)"/>
      <use xlink:href="#DejaVuSans-57" transform="translate(203.759766 0)"/>
      <use xlink:href="#DejaVuSans-69" transform="translate(300.386719 0)"/>
      <use xlink:href="#DejaVuSans-6e" transform="translate(328.169922 0)"/>
      <use xlink:href="#DejaVuSans-64" transform="translate(391.548828 0)"/>
      <use xlink:href="#DejaVuSans-20" transform="translate(455.025391 0)"/>
      <use xlink:href="#DejaVuSans-5b" transform="translate(486.8125 0)"/>
      <use xlink:href="#DejaVuSans-6d" transform="translate(525.826172 0)"/>
      <use xlink:href="#DejaVuSans-2f" transform="translate(623.238281 0)"/>
      <use xlink:href="#DejaVuSans-73" transform="translate(656.929688 0)"/>
      <use xlink:href="#DejaVuSans-5d" transform="translate(709.029297 0)"/>
     </g>
    </g>
   </g>
   <g id="line2d_10">
    <path d="M 55.44 80.896872 
L 557.64 80.896872 
" clip-path="url(#pc5dd0ab119)" style="fill: none; stroke-dasharray: 5.55,2.4; stroke-dashoffset: 0; stroke: #000000; stroke-width: 1.5"/>
   </g>
   <g id="line2d_11">
    <path d="M 78.267273 101.656656 
L 78.531503 97.979018 
L 78.707656 98.624515 
L 78.795733 98.684274 
L 78.971886 96.843812 
L 79.015924 97.316593 
L 79.456308 103.78767 
L 79.500346 103.900631 
L 79.588423 103.844442 
L 79.852653 104.016224 
L 80.160921 100.17905 
L 80.425151 107.16488 
L 80.46919 107.130201 
L 80.601305 107.599712 
L 80.689381 107.613647 
L 80.865535 110.477876 
L 81.041688 112.000952 
L 81.438033 115.935404 
L 81.482071 115.817399 
L 81.570148 115.613612 
L 81.746301 117.524544 
L 81.79034 115.450245 
L 82.098608 51.931354 
L 82.406877 44.437092 
L 82.450915 44.517704 
L 82.58303 43.234415 
L 82.627068 43.415449 
L 82.759183 43.82603 
L 83.023413 42.215625 
L 83.243605 41.972728 
L 83.772065 46.175327 
L 83.816103 45.770614 
L 83.948218 44.46843 
L 83.992257 44.71448 
L 84.036295 44.771175 
L 84.080333 44.715076 
L 84.256487 42.949831 
L 84.873023 47.966644 
L 84.917062 47.720645 
L 85.137254 46.547026 
L 85.181292 46.671461 
L 85.313407 48.668812 
L 85.357445 48.600732 
L 85.75379 45.640951 
L 85.885905 45.15581 
L 85.929944 45.180143 
L 85.973982 45.20779 
L 86.194174 43.523915 
L 86.238212 43.678667 
L 86.326289 43.931242 
L 86.370327 43.888177 
L 86.590519 43.208931 
L 86.634557 43.387027 
L 86.678595 43.195353 
L 86.766672 42.980336 
L 86.81071 43.071576 
L 87.030902 43.82377 
L 87.515324 40.448854 
L 87.6034 40.578637 
L 87.691477 40.73904 
L 87.867631 40.904991 
L 87.999746 40.765483 
L 88.043784 40.892193 
L 88.087822 40.790045 
L 88.484167 40.596987 
L 88.660321 40.160113 
L 88.880512 40.741282 
L 88.968589 40.537757 
L 89.497049 39.608226 
L 89.541087 39.646472 
L 89.585126 39.675999 
L 89.761279 39.030565 
L 89.805317 39.150065 
L 89.937432 40.619215 
L 90.333777 47.023612 
L 90.686084 54.829682 
L 90.818199 57.406955 
L 91.126468 62.742296 
L 91.566851 71.646286 
L 91.610889 71.549302 
L 91.698966 72.253714 
L 91.743004 71.951257 
L 91.787043 71.386695 
L 91.831081 71.637819 
L 92.051273 74.736385 
L 92.095311 74.638211 
L 92.271464 72.713107 
L 92.315503 73.49219 
L 92.579733 75.259011 
L 93.020116 69.48577 
L 93.328384 63.925317 
L 93.372423 64.179388 
L 93.416461 64.220815 
L 93.460499 64.124191 
L 93.592615 67.717922 
L 93.636653 66.290867 
L 93.812806 51.28718 
L 93.944921 43.144831 
L 93.98896 43.590702 
L 94.032998 44.091435 
L 94.385305 71.337502 
L 94.429343 72.986088 
L 94.561458 100.427089 
L 94.605496 100.389185 
L 94.737611 69.897364 
L 94.78165 70.135488 
L 94.825688 69.970172 
L 94.913765 72.300727 
L 95.530301 112.426333 
L 96.014723 108.939998 
L 96.058761 108.927945 
L 96.234915 109.80123 
L 96.322991 109.297836 
L 96.807413 103.607389 
L 96.851452 104.033935 
L 96.89549 104.404555 
L 96.983567 102.979952 
L 97.027605 103.730286 
L 97.15972 104.662022 
L 97.203758 104.638315 
L 97.247797 104.281232 
L 97.291835 104.414177 
L 97.335873 104.966854 
L 97.379912 104.508803 
L 97.512027 102.628023 
L 97.556065 103.049948 
L 97.644142 104.173864 
L 97.776257 101.884582 
L 97.820295 102.43822 
L 97.908372 102.748676 
L 97.996448 104.103019 
L 98.040487 103.38462 
L 98.084525 102.611253 
L 98.128563 102.79081 
L 98.348755 106.159532 
L 98.392793 105.306824 
L 98.436832 104.247844 
L 98.48087 104.423834 
L 98.657023 105.680866 
L 98.701062 105.829255 
L 98.921253 107.854027 
L 99.053368 107.858438 
L 99.185483 107.979143 
L 99.27356 108.195314 
L 99.713944 110.461465 
L 99.757982 110.414973 
L 100.06625 109.765717 
L 100.154327 110.511849 
L 100.242404 110.423131 
L 100.33048 110.178782 
L 100.374519 110.250302 
L 100.638749 110.384694 
L 100.814902 109.725217 
L 100.947017 108.713411 
L 100.991055 108.812628 
L 101.079132 109.040661 
L 101.3874 110.266182 
L 101.519515 110.6627 
L 101.563554 110.637894 
L 101.871822 110.89624 
L 101.959899 110.624941 
L 102.444321 105.908205 
L 102.532397 106.822979 
L 102.752589 108.093946 
L 102.796627 108.111488 
L 102.840666 108.260588 
L 102.884704 108.181562 
L 102.972781 107.804326 
L 103.016819 107.834675 
L 103.060857 107.944043 
L 103.192972 108.978098 
L 103.237011 108.908591 
L 103.501241 108.273895 
L 103.589317 108.023439 
L 103.853547 108.990281 
L 103.985662 108.154656 
L 104.029701 108.462952 
L 104.249892 107.541098 
L 104.337969 106.446734 
L 104.382007 107.024206 
L 104.470084 107.87358 
L 104.514122 107.545503 
L 104.690276 106.750824 
L 104.866429 106.390374 
L 105.086621 107.382389 
L 105.218736 106.753956 
L 105.262774 107.03935 
L 105.703158 109.474995 
L 106.055464 108.406545 
L 106.231618 108.618971 
L 106.407771 108.795009 
L 106.583924 108.649238 
L 106.804116 108.813093 
L 106.936231 108.564308 
L 107.024308 108.398212 
L 107.244499 108.921247 
L 107.420653 108.482898 
L 107.464691 108.575184 
L 107.508729 108.675826 
L 107.552768 108.59382 
L 107.640844 108.677712 
L 107.728921 108.780792 
L 108.213343 107.748351 
L 108.477573 107.72698 
L 108.741803 108.376085 
L 108.785841 108.329203 
L 108.961995 108.398764 
L 109.226225 109.420398 
L 109.402378 109.878135 
L 109.578531 110.0962 
L 109.62257 110.253363 
L 109.666608 110.181387 
L 109.8868 110.043251 
L 109.930838 109.842538 
L 110.018915 109.932182 
L 110.106991 109.994789 
L 110.195068 109.665741 
L 110.239106 109.709957 
L 110.283145 109.729608 
L 110.547375 108.655333 
L 110.591413 108.676004 
L 110.67949 108.584514 
L 110.94372 108.163823 
L 111.20795 107.392104 
L 111.648333 107.91358 
L 111.824487 107.68893 
L 111.956602 107.442248 
L 112.176793 107.79986 
L 112.308908 108.21733 
L 112.485062 107.846352 
L 112.5291 107.898417 
L 112.705253 107.661372 
L 113.101598 107.188034 
L 113.277752 106.888026 
L 113.409867 106.70096 
L 113.58602 106.109473 
L 113.630058 106.17266 
L 113.762174 106.522291 
L 113.806212 106.458332 
L 114.334672 104.542847 
L 114.37871 104.596151 
L 114.64294 103.700803 
L 114.686979 103.744699 
L 114.775055 103.791787 
L 114.819094 103.758616 
L 114.951209 103.726948 
L 115.039285 103.809336 
L 115.083324 103.759725 
L 115.259477 103.650404 
L 115.523707 103.356156 
L 115.611784 103.36954 
L 115.876014 103.748259 
L 115.96409 103.587297 
L 116.316397 104.959985 
L 116.404474 104.818091 
L 116.448512 104.539139 
L 116.49255 104.690205 
L 116.888896 105.526264 
L 117.197164 105.115463 
L 117.505432 105.297307 
L 117.549471 105.260426 
L 117.681586 104.737999 
L 117.725624 104.902345 
L 117.901777 104.788622 
L 118.166007 105.500069 
L 118.826582 107.878608 
L 118.914659 107.912326 
L 119.090812 108.383344 
L 119.134851 108.611122 
L 119.222927 108.564293 
L 119.751388 108.993547 
L 119.795426 108.915727 
L 119.927541 108.830927 
L 120.059656 108.563823 
L 120.191771 108.308094 
L 120.544078 108.79242 
L 120.676193 108.84321 
L 120.720231 108.668113 
L 120.764269 108.744703 
L 120.852346 108.879457 
L 120.896384 108.8014 
L 121.292729 108.461859 
L 121.512921 108.121878 
L 121.645036 108.494563 
L 121.689074 108.395799 
L 121.733113 108.321087 
L 122.173496 105.871749 
L 122.261573 105.966193 
L 122.481765 105.370748 
L 122.701956 104.774838 
L 122.745995 104.936398 
L 122.834071 105.221498 
L 122.87811 105.046708 
L 123.186378 104.021617 
L 123.230416 104.034342 
L 123.494646 103.925477 
L 123.6708 103.647953 
L 123.758876 103.709161 
L 123.93503 104.048961 
L 124.023106 104.137039 
L 124.067145 104.104983 
L 124.155221 104.027372 
L 124.243298 104.178846 
L 124.287336 104.07683 
L 124.375413 103.944004 
L 124.419451 104.062846 
L 124.46349 103.866458 
L 124.683681 103.288802 
L 124.903873 102.305298 
L 125.035988 101.502445 
L 125.168103 100.44773 
L 125.212141 100.707667 
L 125.25618 100.836215 
L 125.344257 100.767772 
L 125.432333 100.293479 
L 125.564448 98.813927 
L 125.608487 98.832064 
L 125.960793 100.323067 
L 126.04887 100.56505 
L 126.269062 101.527033 
L 126.753483 102.802936 
L 126.885598 102.542582 
L 126.929637 102.636123 
L 127.017713 102.705834 
L 127.061752 102.675761 
L 127.193867 102.530618 
L 127.325982 103.055769 
L 127.37002 102.998755 
L 127.414058 102.949218 
L 127.502135 102.605866 
L 127.546173 102.717095 
L 127.810403 103.677036 
L 127.986557 102.695324 
L 128.030595 102.831458 
L 128.206749 103.247059 
L 128.338864 103.436488 
L 128.42694 103.377595 
L 128.515017 103.17966 
L 128.559055 103.326245 
L 128.69117 103.641433 
L 128.735209 103.591498 
L 129.351745 105.576435 
L 129.439822 105.57569 
L 129.836167 107.504837 
L 130.01232 107.690369 
L 130.100397 107.921947 
L 130.144435 107.860461 
L 130.188474 107.882174 
L 130.364627 108.09899 
L 130.496742 108.197175 
L 130.760972 107.617813 
L 131.069241 108.045693 
L 131.377509 107.644514 
L 132.082122 109.586134 
L 132.126161 109.555245 
L 132.170199 109.394579 
L 132.214237 109.505347 
L 132.390391 109.822995 
L 132.434429 109.748466 
L 132.874812 108.564226 
L 132.962889 108.219388 
L 133.006927 108.280819 
L 133.315196 108.657248 
L 133.491349 108.512536 
L 133.931733 109.753806 
L 134.019809 109.586109 
L 134.195963 109.063731 
L 134.240001 109.223451 
L 134.592308 110.406949 
L 134.680384 110.530744 
L 134.944614 110.842055 
L 135.164806 111.463934 
L 135.208844 111.362681 
L 135.296921 111.349578 
L 135.605189 109.912692 
L 135.737304 110.036192 
L 135.781343 109.986625 
L 136.618071 105.538962 
L 137.058455 107.281823 
L 137.102493 107.126828 
L 137.410761 105.925471 
L 137.498838 106.016919 
L 138.071336 102.840145 
L 138.51172 98.826841 
L 138.599796 99.079167 
L 138.731911 97.912661 
L 138.996141 95.12753 
L 139.04018 95.003509 
L 139.084218 95.049092 
L 139.392486 88.789094 
L 139.83287 80.340721 
L 140.141138 77.463977 
L 140.185177 77.238147 
L 140.273253 77.346897 
L 140.493445 76.333053 
L 140.62556 75.520816 
L 140.713637 75.51937 
L 140.801713 74.993647 
L 140.845752 75.100092 
L 140.977867 75.435815 
L 141.198058 74.671842 
L 141.242097 74.688356 
L 141.330173 74.024043 
L 141.41825 73.312326 
L 141.68248 75.429943 
L 141.726518 75.313515 
L 141.770557 75.348131 
L 141.814595 74.721142 
L 141.858633 74.728979 
L 142.078825 78.408756 
L 142.122863 78.437561 
L 142.21094 79.223466 
L 142.254978 78.860846 
L 142.343055 78.953876 
L 142.783439 85.389086 
L 142.915554 88.396265 
L 142.959592 88.313252 
L 143.047669 88.381899 
L 143.091707 87.857852 
L 143.223822 88.6794 
L 143.26786 88.219383 
L 143.311899 88.48502 
L 143.355937 88.994605 
L 143.444014 88.724497 
L 143.488052 89.086882 
L 143.53209 88.931374 
L 143.576129 88.861845 
L 143.752282 87.834783 
L 143.79632 87.914002 
L 144.412857 105.920132 
L 144.456895 105.766903 
L 144.500934 105.865641 
L 144.544972 105.665613 
L 144.721125 106.747209 
L 144.765164 106.865186 
L 144.809202 106.791241 
L 144.85324 106.712755 
L 144.985355 105.163167 
L 145.073432 105.514276 
L 145.205547 105.605296 
L 145.734007 104.28483 
L 145.778046 104.308231 
L 145.822084 104.357135 
L 145.866122 104.189197 
L 145.910161 104.239837 
L 146.042276 104.348078 
L 146.174391 104.348746 
L 146.394582 104.549755 
L 146.526697 104.916135 
L 146.658812 105.796606 
L 146.702851 105.683552 
L 146.790927 104.795216 
L 146.879004 103.2659 
L 146.967081 103.368177 
L 147.055157 102.928429 
L 147.099196 103.139561 
L 147.143234 103.164553 
L 147.187272 103.378951 
L 147.231311 103.111033 
L 147.979962 91.603826 
L 148.112077 90.230444 
L 148.156116 90.722391 
L 148.200154 91.246952 
L 148.244192 91.104077 
L 148.728614 84.260562 
L 149.124959 81.861579 
L 149.389189 79.634988 
L 149.609381 78.679088 
L 149.741496 78.933071 
L 149.785534 78.891355 
L 149.961688 77.621277 
L 150.005726 77.828416 
L 150.093803 77.879597 
L 150.225918 77.046821 
L 150.269956 77.099318 
L 150.666301 78.331677 
L 150.798416 78.005001 
L 150.886493 78.26636 
L 151.018608 78.68694 
L 151.106684 78.530746 
L 151.50303 77.148138 
L 151.635145 76.514641 
L 152.075528 77.628216 
L 152.383796 76.94899 
L 152.515911 76.920042 
L 152.736103 76.896935 
L 152.956295 77.426281 
L 153.132448 77.905203 
L 153.264563 77.685727 
L 153.660908 77.400463 
L 155.422442 87.093692 
L 155.73071 90.004388 
L 156.25917 95.535541 
L 156.567438 99.426365 
L 156.655515 99.377456 
L 157.007822 100.500687 
L 157.095899 102.101273 
L 157.668397 113.949438 
L 157.712435 114.135254 
L 157.756474 113.954861 
L 157.84455 113.771096 
L 157.888589 113.89816 
L 158.10878 114.630768 
L 158.240895 115.539361 
L 158.284934 115.468938 
L 158.328972 115.385549 
L 158.593202 116.556976 
L 158.63724 116.546356 
L 158.681279 116.598568 
L 158.725317 116.550565 
L 158.989547 116.239797 
L 159.033585 116.405629 
L 159.077624 116.347697 
L 159.385892 115.89093 
L 159.473969 116.047591 
L 159.562045 116.091293 
L 159.650122 115.905655 
L 159.69416 115.942258 
L 159.782237 116.213608 
L 160.178582 118.148317 
L 160.310697 118.648439 
L 160.398774 118.466254 
L 160.442812 118.51486 
L 160.574927 117.723256 
L 160.839157 116.59006 
L 160.883196 116.5965 
L 161.279541 118.214487 
L 161.455694 117.536669 
L 161.499732 117.475198 
L 161.587809 117.711449 
L 161.631847 117.683721 
L 161.852039 116.566388 
L 161.896077 116.66359 
L 162.116269 116.090211 
L 162.248384 116.112828 
L 162.292422 116.098609 
L 162.512614 116.708812 
L 162.776844 116.633845 
L 163.085113 117.527364 
L 163.173189 116.917894 
L 163.217228 116.990337 
L 163.305304 117.075461 
L 163.481458 116.358954 
L 163.525496 116.498879 
L 163.701649 116.751574 
L 163.877803 116.545224 
L 163.921841 116.597258 
L 164.362224 118.467251 
L 164.406263 118.436464 
L 164.450301 118.574326 
L 164.494339 118.428942 
L 164.670493 117.833732 
L 164.714531 117.877858 
L 164.846646 117.747542 
L 165.242991 112.8162 
L 165.331068 113.141696 
L 165.375106 113.044054 
L 165.947605 99.870764 
L 165.991643 99.912913 
L 166.123758 100.82847 
L 166.299911 98.066869 
L 166.34395 98.139368 
L 166.476065 92.801512 
L 166.520103 92.909312 
L 166.60818 93.787497 
L 166.652218 93.424005 
L 166.740295 92.317895 
L 166.784333 92.966916 
L 166.828371 92.998498 
L 166.916448 98.607761 
L 166.960486 97.575529 
L 167.092601 96.514006 
L 167.13664 98.318419 
L 167.180678 97.31109 
L 167.224716 97.298963 
L 167.532985 90.878065 
L 167.6651 92.320057 
L 167.621061 90.599438 
L 167.709138 92.149527 
L 167.753176 91.930202 
L 167.797215 92.20756 
L 167.885291 93.234155 
L 167.973368 89.432697 
L 168.061445 90.953265 
L 168.149521 90.333853 
L 168.281636 93.442586 
L 168.325675 93.333959 
L 168.45779 95.146444 
L 168.942212 87.993364 
L 168.98625 88.003861 
L 169.074327 89.212101 
L 169.118365 88.305929 
L 169.162403 88.007553 
L 169.206442 88.024761 
L 169.25048 88.301393 
L 169.426633 83.201501 
L 169.470672 84.162851 
L 169.690863 88.982895 
L 169.867017 90.327218 
L 169.911055 90.103909 
L 169.955093 89.936853 
L 169.999132 90.093219 
L 170.131247 91.699761 
L 170.175285 91.606387 
L 170.263362 91.940187 
L 170.527592 95.53389 
L 170.57163 95.209677 
L 170.615668 94.867457 
L 170.659707 95.059652 
L 171.012013 97.127811 
L 171.232205 99.113898 
L 171.276243 98.451567 
L 171.408359 95.971747 
L 171.452397 96.205176 
L 171.584512 98.849053 
L 171.936819 105.897898 
L 171.980857 105.678378 
L 172.112972 105.107517 
L 172.15701 105.434671 
L 172.201049 105.120071 
L 172.245087 104.547079 
L 172.289125 105.511131 
L 172.333164 105.465284 
L 172.42124 103.934291 
L 172.465279 102.33189 
L 172.509317 102.420965 
L 172.641432 105.720053 
L 172.68547 104.611332 
L 172.773547 104.007814 
L 172.817585 104.242 
L 172.861624 104.21771 
L 172.905662 103.523838 
L 172.9497 103.661435 
L 173.125854 106.376576 
L 173.169892 106.237491 
L 173.21393 106.068426 
L 173.257969 106.404197 
L 173.390084 109.095573 
L 173.434122 109.023213 
L 173.610275 110.220573 
L 174.182774 103.670872 
L 174.270851 102.944394 
L 174.314889 102.96195 
L 174.402966 104.622489 
L 174.447004 104.3945 
L 174.535081 104.039452 
L 174.579119 104.183884 
L 174.755272 98.763331 
L 174.975464 86.02498 
L 175.327771 47.060877 
L 175.503924 45.504902 
L 175.547962 45.512022 
L 175.636039 45.42426 
L 175.680077 45.342393 
L 175.724116 45.405085 
L 175.812192 45.505462 
L 175.856231 45.42679 
L 176.120461 44.68026 
L 176.428729 42.048493 
L 176.472767 42.073136 
L 176.560844 42.842791 
L 176.604882 42.669486 
L 176.736997 42.372758 
L 176.957189 41.428461 
L 177.001227 41.381158 
L 177.045266 41.464316 
L 177.221419 41.609111 
L 177.397573 42.567022 
L 177.749879 47.541541 
L 177.793918 46.472086 
L 177.970071 43.745511 
L 178.102186 44.497088 
L 178.454493 41.315897 
L 178.542569 41.537288 
L 178.762761 43.382477 
L 179.203144 47.957945 
L 179.291221 47.883063 
L 179.335259 47.849858 
L 179.555451 49.641136 
L 179.687566 50.653409 
L 179.863719 53.16923 
L 179.951796 52.951484 
L 179.995835 53.758437 
L 180.083911 53.71427 
L 180.12795 53.818524 
L 180.171988 53.78964 
L 180.304103 53.315531 
L 180.348141 53.689573 
L 180.436218 53.588401 
L 180.480256 53.599093 
L 182.153713 104.49932 
L 182.461981 108.961181 
L 182.594096 108.865843 
L 182.946403 106.843977 
L 183.078518 105.529616 
L 183.122557 105.892393 
L 183.386787 108.700045 
L 183.430825 108.515512 
L 183.474863 108.581184 
L 183.518902 108.673414 
L 183.56294 108.650612 
L 183.783132 108.313013 
L 183.82717 108.431795 
L 183.915247 108.659815 
L 183.959285 108.400885 
L 184.003323 108.762825 
L 184.796013 113.982772 
L 185.104282 115.178323 
L 185.192358 115.740882 
L 185.280435 115.656158 
L 185.632742 116.150691 
L 186.161202 115.28883 
L 186.337355 115.454511 
L 186.46947 115.191774 
L 186.513509 115.339424 
L 186.557547 115.431845 
L 186.601585 115.272022 
L 186.777739 114.708112 
L 186.909854 115.141772 
L 186.953892 115.105311 
L 187.130045 114.697022 
L 187.394275 113.835451 
L 187.52639 113.962449 
L 187.658505 113.841841 
L 187.702544 113.800122 
L 187.746582 113.936362 
L 187.79062 113.899585 
L 187.966774 113.3435 
L 188.275042 111.494509 
L 188.715426 107.952223 
L 188.847541 107.743357 
L 189.287924 106.608734 
L 189.508116 105.897403 
L 190.168691 100.738778 
L 190.388882 99.36507 
L 190.432921 99.810533 
L 190.476959 99.25904 
L 190.917342 90.357651 
L 191.005419 88.380633 
L 191.049457 88.700445 
L 191.225611 90.554786 
L 191.269649 90.161999 
L 191.357726 92.608287 
L 191.489841 96.520994 
L 191.533879 96.180322 
L 191.621956 95.026475 
L 191.665994 95.734706 
L 191.710033 96.265579 
L 191.754071 96.108574 
L 191.798109 94.340936 
L 191.842148 96.287917 
L 192.062339 102.10615 
L 192.502723 110.839863 
L 192.634838 106.874112 
L 192.810991 95.635122 
L 193.119259 50.34676 
L 193.207336 50.853731 
L 193.427528 55.338948 
L 193.471566 55.297701 
L 193.735796 51.801097 
L 194.264256 49.126754 
L 194.308295 48.735287 
L 194.352333 48.930114 
L 194.396371 48.985984 
L 194.660601 52.369367 
L 194.70464 52.422127 
L 194.836755 51.763724 
L 195.189061 55.300807 
L 195.49733 60.078791 
L 195.76156 63.938536 
L 195.849636 63.882932 
L 196.069828 69.864575 
L 196.201943 73.690118 
L 196.245981 73.550921 
L 196.378096 71.401219 
L 196.422135 71.564668 
L 196.510211 71.616664 
L 196.598288 72.775685 
L 197.302902 98.2459 
L 197.523093 97.043982 
L 197.567132 96.994166 
L 197.655208 96.941238 
L 197.787323 98.678673 
L 197.8754 99.408925 
L 197.919438 99.371148 
L 198.007515 98.664976 
L 198.315783 96.041808 
L 198.535975 97.336113 
L 198.580013 97.145551 
L 198.624052 96.795245 
L 198.66809 96.996597 
L 198.800205 98.7835 
L 199.548857 113.693418 
L 199.945202 116.810705 
L 200.429624 119.716851 
L 200.605777 121.314772 
L 200.649815 121.174952 
L 200.693854 121.345466 
L 200.958084 123.898085 
L 201.178275 125.924198 
L 201.706735 134.391142 
L 202.279234 140.976097 
L 202.499425 141.505898 
L 202.719617 142.870742 
L 203.071924 144.127989 
L 203.160001 143.931544 
L 203.248077 144.019798 
L 203.512307 145.307667 
L 205.141726 158.910107 
L 205.185764 158.91483 
L 205.494032 158.086169 
L 205.670186 157.908603 
L 205.890378 157.816721 
L 205.934416 157.888299 
L 206.198646 157.217169 
L 206.506914 156.52091 
L 206.550953 156.629343 
L 206.639029 156.930562 
L 206.683068 156.91061 
L 207.431719 154.990595 
L 207.607873 153.479141 
L 207.916141 151.310818 
L 208.048256 151.065508 
L 208.136333 150.562218 
L 208.312486 149.949743 
L 208.400563 149.767054 
L 208.884985 151.913374 
L 209.105176 151.713935 
L 209.149215 151.77012 
L 209.325368 151.899766 
L 209.369406 151.866529 
L 209.80979 153.226485 
L 209.941905 152.512815 
L 210.470365 147.889344 
L 210.60248 146.572621 
L 210.910748 142.65549 
L 211.439208 136.097711 
L 211.527285 135.77147 
L 211.571323 135.82903 
L 211.615362 135.912784 
L 211.6594 135.830817 
L 211.747477 135.302598 
L 211.92363 133.222712 
L 212.231898 129.587775 
L 212.71632 127.585451 
L 212.848435 127.556797 
L 212.98055 126.391442 
L 213.200742 124.739263 
L 213.24478 124.824105 
L 213.464972 123.587964 
L 214.874199 110.40274 
L 215.446697 104.297404 
L 215.710927 103.398324 
L 215.754965 103.234343 
L 215.799004 103.327144 
L 215.975157 103.368666 
L 216.15131 103.323178 
L 216.239387 103.613386 
L 216.767847 100.009402 
L 216.811885 100.145562 
L 216.855924 100.089284 
L 216.899962 100.144467 
L 217.032077 100.31657 
L 217.076115 100.112532 
L 217.120154 100.271182 
L 217.20823 100.526605 
L 217.472461 102.514186 
L 217.604576 102.621043 
L 217.780729 102.839906 
L 218.000921 103.48945 
L 218.044959 103.52947 
L 218.793611 110.742034 
L 218.837649 110.600191 
L 218.969764 110.001766 
L 219.101879 106.897626 
L 219.498224 94.02422 
L 219.674377 93.354558 
L 219.718416 93.455088 
L 219.806492 91.838374 
L 219.894569 92.050853 
L 219.938607 92.038367 
L 220.026684 94.479596 
L 220.070722 93.898234 
L 220.202838 89.74995 
L 220.246876 91.578452 
L 220.290914 89.614641 
L 220.555144 51.398863 
L 220.599183 51.594229 
L 221.259758 94.494173 
L 221.479949 97.781652 
L 221.700141 99.063448 
L 221.788218 99.711803 
L 221.832256 99.695319 
L 222.184563 95.57759 
L 222.228601 95.639608 
L 222.272639 95.510664 
L 222.316678 95.200658 
L 222.536869 96.473589 
L 222.580908 96.573813 
L 222.845138 101.032661 
L 222.889176 100.891301 
L 222.977253 100.437911 
L 223.021291 100.674199 
L 223.109368 101.724778 
L 223.153406 101.461115 
L 223.197445 101.201171 
L 223.373598 97.544462 
L 223.417636 97.947915 
L 223.461675 98.190133 
L 223.505713 98.148614 
L 223.637828 96.329713 
L 223.725905 98.075609 
L 223.769943 97.05839 
L 223.902058 96.635166 
L 224.298403 108.345074 
L 224.430518 109.810955 
L 224.518595 109.623518 
L 224.562633 109.66849 
L 224.826863 110.685313 
L 224.91494 110.783749 
L 224.958978 110.736657 
L 225.17917 109.945116 
L 225.311285 110.057493 
L 225.531476 109.444006 
L 225.575515 109.434264 
L 225.663591 109.192492 
L 225.70763 109.373393 
L 225.751668 109.256742 
L 225.795706 109.062331 
L 225.839745 109.12816 
L 225.927821 109.200538 
L 225.97186 109.147896 
L 226.148013 109.075761 
L 226.324167 108.133617 
L 226.368205 108.159125 
L 226.896665 110.007907 
L 227.02878 110.635929 
L 227.337048 106.872202 
L 227.689355 98.748429 
L 227.733393 98.847408 
L 227.777432 99.247279 
L 227.82147 99.170601 
L 227.953585 95.966734 
L 228.438007 83.911318 
L 229.40685 67.320941 
L 229.494927 66.835994 
L 229.538965 66.336584 
L 229.627042 66.561866 
L 229.67108 66.567516 
L 229.979349 68.527307 
L 230.023387 68.180039 
L 230.111464 68.307904 
L 230.19954 66.712888 
L 230.375694 64.096063 
L 230.46377 63.928349 
L 230.816077 59.935179 
L 230.860115 59.985692 
L 230.99223 60.642841 
L 231.124345 60.477745 
L 231.432614 57.745513 
L 231.608767 57.817144 
L 232.005112 54.085882 
L 232.093189 55.096872 
L 232.181266 54.709216 
L 232.313381 53.429801 
L 232.357419 53.70416 
L 233.106071 63.770368 
L 233.546454 74.647617 
L 233.722607 75.268604 
L 234.030876 70.769215 
L 234.162991 68.839843 
L 234.207029 69.078967 
L 234.867604 84.798758 
L 235.043758 89.416129 
L 235.087796 88.996274 
L 235.131834 89.253919 
L 235.528179 97.777321 
L 235.880486 101.048973 
L 235.924524 101.043853 
L 236.276831 102.488344 
L 236.893368 108.004729 
L 237.333751 111.13847 
L 237.597981 112.03485 
L 237.818173 112.093915 
L 237.90625 111.92102 
L 237.994326 111.986933 
L 238.43471 112.461327 
L 238.610863 112.489654 
L 238.831055 112.570359 
L 238.96317 113.442001 
L 239.007208 113.34855 
L 239.095285 113.428758 
L 239.183361 113.613191 
L 239.2274 113.547931 
L 239.359515 113.509961 
L 239.711821 116.057176 
L 240.328358 123.403512 
L 240.724703 125.273808 
L 240.856818 125.762084 
L 240.900857 125.705256 
L 240.944895 125.583281 
L 240.988933 125.666957 
L 241.297202 126.750239 
L 241.737585 128.850762 
L 242.045853 129.281519 
L 242.177968 129.189797 
L 242.310083 129.180306 
L 242.530275 128.328729 
L 242.706428 126.887965 
L 243.19085 122.429017 
L 243.499119 119.89713 
L 243.98354 115.725374 
L 244.027579 115.940701 
L 244.115655 116.260889 
L 244.159694 116.235386 
L 244.512 114.235145 
L 244.600077 114.309386 
L 244.732192 114.61624 
L 244.820269 115.188263 
L 244.864307 115.164555 
L 245.172575 113.700424 
L 245.260652 113.83187 
L 245.392767 114.252639 
L 245.436805 114.071875 
L 245.701035 112.862378 
L 246.405649 111.192885 
L 246.449687 111.215444 
L 246.537764 111.552764 
L 246.581802 111.524799 
L 246.934109 110.894794 
L 247.022186 110.836275 
L 247.154301 110.666039 
L 247.198339 110.72817 
L 247.418531 111.036862 
L 247.462569 110.964317 
L 247.506607 110.994574 
L 247.594684 111.106963 
L 247.638722 111.024023 
L 248.167182 110.113731 
L 248.255259 109.970871 
L 248.563527 108.95601 
L 248.607566 109.094643 
L 249.003911 106.255698 
L 249.047949 106.320509 
L 249.224103 108.131259 
L 249.268141 108.117022 
L 249.532371 106.135161 
L 249.840639 102.124395 
L 249.972754 100.379285 
L 250.016793 100.786331 
L 250.060831 100.806411 
L 250.192946 97.080944 
L 250.589291 85.044331 
L 250.677368 84.303717 
L 250.897559 81.505563 
L 251.117751 81.875675 
L 251.249866 81.26721 
L 251.426019 79.685595 
L 251.514096 79.940218 
L 251.602173 80.318662 
L 251.778326 79.451256 
L 251.822364 79.530816 
L 251.998518 78.041473 
L 252.042556 78.124093 
L 252.086595 78.049773 
L 252.130633 78.125834 
L 252.306786 78.318748 
L 252.350825 78.30131 
L 252.394863 78.778065 
L 252.438901 78.699796 
L 252.526978 78.307508 
L 252.571016 78.333132 
L 252.791208 79.062454 
L 252.879285 78.765937 
L 253.583898 75.734041 
L 253.627936 75.741934 
L 253.716013 76.121485 
L 254.06832 78.304352 
L 254.112358 78.422707 
L 254.156396 78.354581 
L 254.200435 78.28569 
L 254.33255 78.651688 
L 254.420626 78.263183 
L 254.464665 78.346796 
L 254.684856 78.677282 
L 254.728895 78.604381 
L 254.816972 78.365962 
L 255.037163 79.601515 
L 255.081202 79.478674 
L 255.257355 78.42105 
L 255.6537 76.455626 
L 255.741777 76.383276 
L 255.961968 75.153789 
L 256.050045 75.128396 
L 256.138122 74.829066 
L 256.18216 74.912539 
L 256.622543 78.626836 
L 256.71062 78.67731 
L 256.798697 78.435403 
L 256.842735 78.503041 
L 257.23908 80.408487 
L 257.283118 80.186537 
L 257.415233 79.673205 
L 257.459272 79.789516 
L 257.723502 80.95934 
L 257.76754 80.754457 
L 257.943694 79.417061 
L 258.119847 80.382276 
L 258.163885 80.258186 
L 258.956575 92.411318 
L 259.132729 94.224838 
L 259.35292 95.767233 
L 259.485035 95.866029 
L 259.705227 95.60527 
L 259.88138 96.46796 
L 259.969457 96.170651 
L 260.982339 103.523971 
L 261.158492 103.926103 
L 261.290607 103.89643 
L 261.334646 103.86015 
L 261.378684 103.924584 
L 261.510799 104.099739 
L 261.730991 102.324355 
L 262.039259 100.008557 
L 262.127336 100.126103 
L 262.171374 100.05688 
L 262.435604 98.400837 
L 262.699834 98.403791 
L 262.875987 97.538121 
L 262.920026 97.827266 
L 263.140217 98.828236 
L 263.228294 98.95236 
L 263.272332 98.871036 
L 263.492524 98.441462 
L 263.536563 98.464807 
L 264.197138 101.082993 
L 264.241176 101.052358 
L 264.505406 99.020779 
L 264.637521 99.03702 
L 264.857713 98.764763 
L 264.945789 98.448819 
L 264.989828 98.494156 
L 265.210019 100.099749 
L 265.342134 100.792664 
L 265.430211 100.70306 
L 265.474249 100.608002 
L 265.606364 101.940058 
L 265.650403 101.891825 
L 265.738479 101.769272 
L 265.870594 102.292021 
L 265.958671 102.250792 
L 266.002709 102.222127 
L 266.046748 101.98786 
L 266.134824 102.110576 
L 266.178863 102.194047 
L 266.26694 101.787364 
L 266.310978 101.910465 
L 266.443093 102.584052 
L 266.575208 102.457795 
L 266.7954 103.149451 
L 266.839438 103.127164 
L 267.015591 103.054341 
L 267.103668 103.126674 
L 267.455975 104.45309 
L 267.58809 104.428556 
L 267.676166 104.329337 
L 267.720205 104.4257 
L 268.072511 105.875159 
L 268.600971 107.335773 
L 268.821163 107.994111 
L 268.865201 107.961652 
L 269.17347 108.526823 
L 269.305585 108.3714 
L 269.525777 108.179138 
L 269.657892 108.493349 
L 269.70193 108.575701 
L 269.745968 108.518744 
L 269.790007 108.29401 
L 269.878083 108.356033 
L 269.922122 108.430435 
L 269.96616 108.339545 
L 270.098275 108.226784 
L 270.714812 104.726693 
L 270.802888 104.877433 
L 270.890965 105.023863 
L 270.935003 104.99219 
L 271.199233 104.283126 
L 271.243272 104.423307 
L 271.28731 104.310477 
L 271.375387 103.719584 
L 271.507502 102.655207 
L 271.55154 102.680722 
L 271.639617 102.850531 
L 271.81577 102.353696 
L 271.859808 102.459054 
L 271.903847 102.368954 
L 271.947885 102.240888 
L 271.991923 102.343058 
L 272.256154 102.680954 
L 272.564422 100.852767 
L 272.60846 100.928348 
L 272.828652 97.011884 
L 272.87269 97.206646 
L 273.13692 98.790185 
L 273.180959 98.733473 
L 273.66538 90.107928 
L 273.753457 89.263752 
L 273.797495 89.71898 
L 274.017687 92.457751 
L 274.105764 91.349906 
L 274.19384 91.684773 
L 274.414032 92.208142 
L 275.118646 98.110536 
L 275.162684 97.94277 
L 275.647106 103.992975 
L 275.867297 103.7185 
L 275.999412 103.537349 
L 276.131527 103.85937 
L 276.219604 103.907563 
L 276.395757 102.783418 
L 276.704026 103.579741 
L 276.880179 104.468996 
L 277.188447 105.272808 
L 277.276524 105.230255 
L 277.320562 105.189318 
L 277.364601 105.307417 
L 277.408639 105.185069 
L 277.452677 105.121732 
L 277.496716 105.226136 
L 277.716907 105.727348 
L 277.804984 105.837027 
L 277.849023 105.771288 
L 278.377483 104.06157 
L 278.421521 104.037109 
L 278.465559 103.875063 
L 278.509598 103.93489 
L 278.729789 104.201728 
L 278.994019 103.527646 
L 279.038058 103.647693 
L 279.170173 103.943736 
L 279.214211 103.913483 
L 279.434403 103.124581 
L 279.698633 102.393979 
L 279.830748 102.509123 
L 280.050939 102.917911 
L 280.094978 102.875824 
L 280.183054 102.737776 
L 280.227093 102.799821 
L 280.315169 103.202059 
L 280.667476 104.915422 
L 280.799591 105.149599 
L 280.887668 105.035713 
L 280.931706 105.109686 
L 281.10786 105.340289 
L 281.151898 105.288141 
L 281.195936 105.265218 
L 281.37209 104.638796 
L 281.416128 104.732863 
L 281.680358 105.488493 
L 281.724396 105.424443 
L 281.988626 105.125336 
L 282.473048 106.852706 
L 282.561125 106.796203 
L 282.649201 106.963345 
L 282.69324 106.94041 
L 282.95747 107.091334 
L 283.133623 107.239332 
L 283.177661 107.258766 
L 283.309776 107.507511 
L 283.441891 107.286857 
L 283.529968 107.043883 
L 283.574007 107.062965 
L 283.75016 106.996128 
L 284.586888 105.117907 
L 285.203425 102.518296 
L 285.555732 102.160328 
L 285.996115 99.496726 
L 286.480537 97.2693 
L 286.524575 97.309655 
L 286.788805 98.286047 
L 286.832844 98.515507 
L 286.876882 98.473406 
L 287.053035 98.191999 
L 288.374185 102.043832 
L 288.550339 103.452805 
L 288.594377 103.628263 
L 288.638415 103.411733 
L 288.726492 103.09521 
L 288.990722 104.290988 
L 289.03476 104.035397 
L 289.078799 104.175801 
L 289.254952 105.382926 
L 289.431106 106.313672 
L 290.223796 101.092837 
L 290.488026 97.494162 
L 290.664179 96.111968 
L 290.796294 94.283058 
L 290.840332 95.193757 
L 290.884371 95.406277 
L 291.280716 105.366755 
L 291.324754 105.433795 
L 291.412831 105.370146 
L 291.677061 104.008828 
L 291.897252 103.30079 
L 291.941291 103.18538 
L 292.249559 100.702362 
L 292.337636 100.618239 
L 292.381674 100.657363 
L 292.425713 100.755281 
L 292.469751 100.713127 
L 292.689943 100.635377 
L 292.733981 100.708331 
L 292.998211 102.47859 
L 293.042249 102.466907 
L 293.306479 103.669998 
L 293.702824 104.534793 
L 293.834939 104.935735 
L 293.878978 104.887116 
L 294.011093 104.901032 
L 294.231284 104.056213 
L 294.363399 103.048446 
L 294.451476 103.382937 
L 294.539553 103.557223 
L 294.583591 103.445992 
L 294.715706 102.901552 
L 294.803783 102.141527 
L 294.847821 102.204493 
L 294.935898 102.50832 
L 294.979936 102.351878 
L 295.068013 102.273637 
L 295.112051 102.306857 
L 295.15609 102.418193 
L 295.728588 97.91007 
L 295.772626 97.953535 
L 295.860703 98.657307 
L 295.904741 98.531399 
L 296.124933 99.232627 
L 296.168971 99.502746 
L 296.21301 99.286942 
L 296.257048 98.968649 
L 296.345125 99.001079 
L 296.389163 99.005033 
L 296.609355 101.590483 
L 296.653393 101.436184 
L 296.917623 101.327871 
L 297.0057 101.520838 
L 297.093776 102.171756 
L 297.225891 103.165445 
L 297.358006 101.73672 
L 297.842428 92.308238 
L 298.238773 85.970414 
L 298.282812 86.189906 
L 298.635118 83.360349 
L 298.679157 83.41697 
L 298.723195 83.241682 
L 298.811272 82.0071 
L 298.85531 82.212268 
L 298.899348 82.175192 
L 299.339732 77.743228 
L 299.427808 77.464127 
L 299.471847 77.607279 
L 299.515885 77.794671 
L 299.559923 77.630173 
L 299.692038 76.294674 
L 299.868192 72.691052 
L 299.91223 73.326646 
L 300.088383 74.524184 
L 300.132422 74.499322 
L 300.17646 74.671591 
L 300.220498 73.956011 
L 300.264537 74.247164 
L 300.352613 74.604034 
L 300.748958 70.411945 
L 300.96915 68.755728 
L 301.893955 60.514703 
L 301.937994 60.549119 
L 302.202224 59.190369 
L 302.246262 59.108234 
L 302.466454 60.480775 
L 302.55453 60.378226 
L 302.598569 60.543355 
L 302.862799 63.240796 
L 303.435297 60.51224 
L 303.479335 60.59261 
L 303.699527 61.906914 
L 303.787604 62.103041 
L 303.831642 62.00656 
L 303.919719 60.878056 
L 304.007796 61.006172 
L 304.051834 61.033287 
L 304.095872 60.954757 
L 304.183949 60.464403 
L 304.227987 60.713277 
L 304.272026 60.920881 
L 304.316064 60.717309 
L 304.800486 56.115891 
L 305.020677 53.174502 
L 305.064716 53.299977 
L 305.196831 53.938119 
L 305.284907 53.338038 
L 305.328946 53.386511 
L 305.372984 53.330445 
L 305.681252 55.235574 
L 305.769329 55.182769 
L 305.857406 54.734275 
L 305.945482 54.839551 
L 306.077597 55.613313 
L 306.165674 56.638074 
L 306.209712 56.316579 
L 306.297789 54.906596 
L 306.385866 55.093646 
L 306.473942 55.006769 
L 306.517981 54.958567 
L 306.826249 58.396408 
L 306.870288 58.374168 
L 306.958364 59.134201 
L 307.134518 62.142702 
L 307.178556 61.981163 
L 307.222594 61.92565 
L 307.266633 61.471762 
L 307.310671 61.866868 
L 307.883169 69.992811 
L 307.927208 69.987355 
L 307.971246 70.111759 
L 308.191438 72.759074 
L 308.367591 72.189171 
L 308.411629 72.222628 
L 308.499706 72.752354 
L 308.543744 72.385312 
L 308.631821 72.060064 
L 308.896051 74.190348 
L 309.028166 74.1004 
L 309.116243 74.268432 
L 309.204319 73.907726 
L 309.248358 74.043655 
L 309.424511 74.833553 
L 309.46855 74.943729 
L 309.556626 74.557693 
L 309.688741 75.655802 
L 309.820856 76.632549 
L 309.864895 76.34252 
L 310.041048 75.450211 
L 310.085086 75.390331 
L 310.129125 75.450727 
L 310.173163 75.594754 
L 310.26124 75.553227 
L 310.437393 72.918794 
L 310.52547 73.698141 
L 310.569508 73.399806 
L 310.7897 72.45796 
L 310.833738 72.381123 
L 310.877776 72.427197 
L 310.965853 73.138366 
L 311.230083 74.807578 
L 311.362198 75.218285 
L 311.406236 75.454062 
L 311.978735 68.816226 
L 312.022773 68.799245 
L 312.331042 70.568799 
L 312.419118 70.495678 
L 312.507195 69.908541 
L 312.63931 72.017001 
L 312.683348 71.650285 
L 312.859502 69.872301 
L 312.90354 69.984394 
L 312.947578 70.044054 
L 313.211808 71.469088 
L 313.343923 71.786691 
L 313.432 71.160665 
L 313.652192 74.001478 
L 313.740268 73.587648 
L 313.784307 73.833139 
L 313.872383 74.413432 
L 313.916422 74.088821 
L 313.96046 73.610937 
L 314.004498 73.77159 
L 314.136613 74.182541 
L 314.180652 74.241473 
L 314.312767 75.921093 
L 314.75315 69.261855 
L 314.797188 69.870923 
L 314.885265 71.558308 
L 314.929303 71.073226 
L 315.149495 70.557055 
L 315.54584 65.240775 
L 315.589879 65.293815 
L 315.986224 62.447152 
L 316.030262 62.699162 
L 316.0743 63.340328 
L 316.118339 63.042708 
L 316.162377 62.792782 
L 316.206415 63.010883 
L 316.294492 63.36182 
L 316.33853 63.284124 
L 316.382569 63.203408 
L 316.426607 63.495071 
L 316.514684 63.364676 
L 316.558722 63.240439 
L 316.690837 63.977527 
L 316.734875 63.953219 
L 317.043144 62.983737 
L 317.351412 67.024695 
L 317.39545 66.757632 
L 317.439489 67.074685 
L 317.527565 68.255599 
L 318.276217 83.538283 
L 318.364294 82.029983 
L 318.716601 78.304145 
L 318.760639 78.16531 
L 318.804677 78.316208 
L 318.892754 78.555181 
L 319.024869 77.525831 
L 319.068907 77.675863 
L 319.112946 77.829795 
L 319.156984 77.809449 
L 319.201022 77.73001 
L 319.421214 75.678395 
L 319.465252 75.942543 
L 319.509291 75.962572 
L 319.773521 78.32877 
L 319.817559 78.219415 
L 319.861597 78.210421 
L 319.993712 78.706484 
L 320.125827 77.802789 
L 320.169866 77.94316 
L 320.390057 78.672122 
L 320.522172 78.957891 
L 320.566211 78.751012 
L 320.610249 78.760737 
L 320.786402 80.221885 
L 321.050633 82.818507 
L 321.094671 83.015235 
L 321.138709 82.829692 
L 321.226786 81.929809 
L 321.270824 82.24356 
L 321.402939 82.625511 
L 321.491016 82.216571 
L 321.535054 82.330341 
L 321.711208 82.64717 
L 321.755246 82.816845 
L 321.799284 82.661825 
L 321.931399 81.52904 
L 322.019476 81.629479 
L 322.195629 81.976229 
L 322.547936 84.760051 
L 322.591974 84.697195 
L 322.636013 84.820339 
L 323.120434 84.539697 
L 323.164473 84.346768 
L 323.516779 86.254416 
L 323.648894 85.932543 
L 323.692933 85.66444 
L 323.736971 86.153624 
L 323.825048 86.046398 
L 323.913125 86.035482 
L 324.001201 85.548857 
L 324.177355 84.082282 
L 324.221393 84.286133 
L 324.265431 84.518906 
L 324.30947 84.402071 
L 324.617738 83.171403 
L 324.705815 83.399701 
L 324.749853 83.428877 
L 325.454466 86.915065 
L 325.498505 86.981943 
L 325.542543 86.751069 
L 325.63062 86.778457 
L 325.762735 87.148955 
L 325.806773 86.949569 
L 325.850811 87.146874 
L 326.071003 87.32113 
L 326.203118 87.142695 
L 326.247156 87.170157 
L 326.335233 87.345385 
L 326.511386 88.545362 
L 326.599463 88.591536 
L 326.68754 87.716239 
L 326.775617 87.240008 
L 327.127923 89.347523 
L 327.304077 90.673317 
L 327.524268 94.010874 
L 327.788498 97.274649 
L 327.832537 97.114987 
L 328.405035 103.593069 
L 328.449073 103.699098 
L 328.625227 102.549815 
L 329.021572 97.814429 
L 329.109648 97.885307 
L 329.153687 97.801861 
L 329.505993 100.244956 
L 329.550032 100.211054 
L 329.814262 101.882582 
L 330.034454 103.808333 
L 330.078492 103.786889 
L 330.783105 102.478267 
L 330.827144 102.299664 
L 330.871182 102.347699 
L 331.223489 103.002072 
L 331.311565 102.692264 
L 331.663872 101.402383 
L 331.70791 101.532302 
L 331.751949 101.190084 
L 331.795987 101.28556 
L 332.104255 102.074311 
L 332.148294 102.10725 
L 332.764831 95.698341 
L 332.985022 93.796412 
L 333.073099 93.615983 
L 333.909827 83.872323 
L 334.130019 82.997049 
L 334.262134 83.734822 
L 334.306172 83.704263 
L 334.350211 83.802527 
L 334.438287 83.878545 
L 334.526364 84.59638 
L 334.658479 85.995011 
L 334.702517 85.950015 
L 334.790594 85.610088 
L 335.363093 89.359864 
L 335.407131 89.354004 
L 335.495208 89.725922 
L 335.539246 89.523205 
L 335.803476 86.590331 
L 336.287898 80.443872 
L 336.331936 80.491055 
L 336.508089 79.553207 
L 336.596166 79.884917 
L 336.728281 80.936132 
L 336.772319 80.722643 
L 337.432894 75.272976 
L 338.710006 54.751005 
L 338.974236 52.798219 
L 339.062313 52.704303 
L 339.15039 52.647687 
L 339.458658 53.669326 
L 339.502696 53.611794 
L 339.546735 53.280235 
L 339.590773 53.408916 
L 339.899041 55.241519 
L 339.94308 55.101453 
L 340.031156 54.432536 
L 340.075195 54.559912 
L 340.119233 54.676098 
L 340.163271 54.605632 
L 340.20731 54.532725 
L 340.251348 54.651348 
L 340.691731 56.071353 
L 340.73577 56.071439 
L 340.955961 56.486441 
L 341 56.480588 
L 341.088077 56.9777 
L 341.176153 57.436949 
L 341.220192 57.397899 
L 341.440383 55.568863 
L 341.484422 55.894439 
L 341.836728 57.66327 
L 341.880767 57.364925 
L 341.924805 57.669086 
L 342.100958 58.445627 
L 342.32115 60.642336 
L 342.453265 61.402545 
L 342.497303 61.425167 
L 342.761533 62.899105 
L 342.981725 64.459462 
L 343.025763 64.442812 
L 344.17076 73.751746 
L 344.655182 76.028323 
L 345.095565 81.203615 
L 345.712102 84.444472 
L 345.75614 84.391636 
L 346.152485 85.249558 
L 346.460754 87.804269 
L 346.724984 89.841055 
L 347.121329 91.358732 
L 347.385559 92.717701 
L 347.517674 93.386855 
L 347.561712 93.238454 
L 347.649789 93.386574 
L 348.090172 96.01938 
L 348.134211 95.962832 
L 348.266326 96.59164 
L 348.310364 96.337724 
L 348.354402 96.383357 
L 348.442479 96.933486 
L 348.706709 98.940246 
L 348.970939 100.409639 
L 349.059016 100.273024 
L 349.103054 100.196998 
L 349.147092 100.336921 
L 349.191131 100.473057 
L 349.235169 100.362589 
L 349.323246 100.165238 
L 349.367284 100.244488 
L 349.499399 100.484956 
L 349.983821 97.966912 
L 350.071898 98.243323 
L 350.115936 98.228181 
L 350.248051 97.41477 
L 350.468243 95.794231 
L 350.644396 96.334839 
L 350.908626 94.812123 
L 350.952664 94.684721 
L 350.996703 94.829105 
L 351.084779 94.984385 
L 351.128818 94.961211 
L 351.437086 93.489914 
L 351.569201 93.263462 
L 351.613239 93.407715 
L 351.745354 93.264743 
L 351.877469 92.764054 
L 351.965546 92.952798 
L 352.714198 97.54723 
L 352.802275 96.999091 
L 352.846313 97.245085 
L 352.890351 97.255475 
L 352.978428 97.774204 
L 353.066505 98.51817 
L 353.110543 98.402046 
L 353.154581 98.251546 
L 353.903233 103.302183 
L 353.99131 103.43079 
L 354.035348 103.330333 
L 354.431693 101.219888 
L 354.51977 100.956372 
L 354.563808 100.986431 
L 354.651885 101.270507 
L 354.695923 101.482735 
L 354.739961 101.366244 
L 355.092268 99.777269 
L 355.180345 99.81655 
L 355.268421 99.878801 
L 355.31246 99.698768 
L 355.356498 99.860123 
L 355.400536 100.099401 
L 355.444575 99.974155 
L 355.57669 99.088771 
L 355.620728 99.190632 
L 355.973035 101.215191 
L 356.149188 101.042287 
L 356.237265 100.876528 
L 357.294185 107.139127 
L 357.4263 107.111188 
L 357.558415 107.619039 
L 357.646492 107.544213 
L 357.866683 107.448324 
L 358.086875 107.450853 
L 358.21899 107.432042 
L 358.351105 107.339004 
L 358.395144 107.384541 
L 358.527259 107.539651 
L 358.923604 108.684736 
L 358.967642 108.64009 
L 359.055719 108.322508 
L 359.099757 108.506327 
L 359.143795 108.578603 
L 359.408025 107.794858 
L 359.584179 107.998939 
L 359.848409 106.757082 
L 360.200715 104.375975 
L 360.59706 102.937297 
L 360.729175 103.127107 
L 360.86129 102.553358 
L 360.993405 102.176998 
L 361.037444 102.25779 
L 361.12552 101.948555 
L 361.169559 102.045394 
L 361.301674 102.217195 
L 361.477827 101.508835 
L 361.521866 101.666229 
L 361.609942 101.565584 
L 361.874172 102.544615 
L 361.918211 102.527747 
L 362.006287 102.62865 
L 362.182441 102.879681 
L 362.622824 103.926661 
L 362.843016 103.226871 
L 362.887054 103.094789 
L 362.931092 103.133105 
L 362.975131 103.263166 
L 363.283399 102.187038 
L 363.371476 102.223046 
L 363.459552 102.185209 
L 363.547629 101.917142 
L 363.635706 101.583229 
L 363.679744 101.695712 
L 363.723782 101.823986 
L 363.767821 101.652304 
L 363.855897 101.16858 
L 363.899936 101.206212 
L 364.340319 102.809921 
L 364.428396 102.671493 
L 364.560511 102.764442 
L 364.868779 103.428297 
L 365.529354 104.490151 
L 365.705508 104.363052 
L 366.013776 104.190575 
L 366.410121 104.931625 
L 366.498198 104.816893 
L 366.542236 104.892843 
L 366.674351 105.183281 
L 366.718389 105.045197 
L 366.806466 104.931361 
L 366.850504 104.981501 
L 366.938581 105.14619 
L 366.98262 105.104704 
L 367.158773 104.827646 
L 367.290888 104.812686 
L 367.334926 104.826851 
L 367.423003 104.68545 
L 367.467041 104.779555 
L 367.995501 105.726907 
L 368.347808 105.319327 
L 368.523961 105.500761 
L 368.612038 105.278253 
L 368.656076 105.299275 
L 368.744153 105.389066 
L 368.788191 105.158391 
L 368.83223 105.243827 
L 369.008383 105.630771 
L 369.184536 105.55962 
L 369.316651 105.84162 
L 369.448766 106.253821 
L 369.492805 106.2087 
L 369.88915 104.694512 
L 369.933188 104.744377 
L 370.109342 104.921302 
L 370.241457 104.910379 
L 370.329533 105.227576 
L 370.549725 106.177656 
L 370.593763 106.17751 
L 370.902032 107.037884 
L 371.078185 106.76505 
L 371.122223 106.738794 
L 371.386453 106.00375 
L 371.430492 106.036985 
L 371.47453 105.937031 
L 371.562607 105.598825 
L 371.606645 105.704583 
L 371.73876 105.865877 
L 372.047028 105.247861 
L 372.443373 105.906676 
L 372.575488 105.504206 
L 372.839719 107.515059 
L 373.015872 107.374621 
L 373.280102 108.176655 
L 373.368179 108.371894 
L 373.412217 108.283956 
L 373.764524 108.422266 
L 374.11683 107.294763 
L 374.160869 107.280862 
L 374.292984 106.505657 
L 374.38106 106.226222 
L 374.425099 106.320891 
L 374.557214 106.57252 
L 374.64529 106.652198 
L 374.821444 107.279154 
L 374.865482 107.237367 
L 374.953559 107.180405 
L 375.129712 107.568401 
L 375.393942 106.575986 
L 375.43798 106.609885 
L 375.526057 106.505227 
L 375.746249 105.769681 
L 375.834326 105.845358 
L 375.922402 105.776129 
L 376.098556 105.349251 
L 376.274709 105.869471 
L 376.362786 106.07815 
L 376.406824 105.954119 
L 376.803169 104.90714 
L 376.935284 105.05781 
L 377.111437 104.776088 
L 377.287591 104.529359 
L 377.551821 104.937449 
L 377.595859 104.932961 
L 377.683936 105.023374 
L 377.772012 104.912575 
L 377.816051 104.957268 
L 377.860089 105.046782 
L 377.904127 104.90479 
L 378.080281 104.188566 
L 378.388549 105.034296 
L 378.476626 104.928209 
L 378.652779 104.977136 
L 379.181239 102.377432 
L 379.225278 102.377649 
L 379.313354 102.564169 
L 379.357393 102.517451 
L 379.665661 102.177456 
L 380.062006 103.432112 
L 380.238159 103.471564 
L 380.414313 103.855625 
L 380.766619 103.948718 
L 381.383156 102.270551 
L 381.691425 102.793955 
L 381.735463 102.615883 
L 381.779501 102.543305 
L 381.82354 102.638208 
L 381.955655 102.790014 
L 382.263923 103.421414 
L 382.572191 103.119506 
L 382.61623 102.984983 
L 382.704306 103.046463 
L 383.056613 104.009561 
L 383.100651 103.985345 
L 383.188728 103.951419 
L 383.364881 103.7305 
L 383.496996 103.829473 
L 383.541035 103.795197 
L 383.585073 103.87649 
L 383.761226 104.194633 
L 383.849303 104.167478 
L 383.93738 103.728862 
L 383.981418 103.778564 
L 384.069495 104.02495 
L 384.113533 103.961963 
L 384.20161 104.043929 
L 384.289687 104.221413 
L 384.333725 104.136268 
L 384.421802 103.921753 
L 384.686032 104.71073 
L 384.73007 104.798665 
L 384.774108 104.745673 
L 384.818147 104.721511 
L 384.906223 104.415309 
L 384.9943 104.471642 
L 385.038338 104.584758 
L 385.082377 104.507326 
L 385.390645 103.548053 
L 385.478722 103.54669 
L 385.52276 103.589878 
L 385.654875 103.091893 
L 385.78699 103.16026 
L 385.919105 103.34878 
L 385.963143 103.525862 
L 386.007182 103.441872 
L 386.403527 102.473296 
L 386.447565 102.464598 
L 386.57968 102.756679 
L 386.799872 101.369515 
L 386.84391 101.576011 
L 386.931987 101.74973 
L 387.020063 102.649102 
L 387.10814 102.610351 
L 387.152179 102.615215 
L 387.240255 103.148099 
L 387.284294 102.939819 
L 387.328332 102.946918 
L 387.680639 104.434364 
L 387.768715 104.279009 
L 387.856792 104.455299 
L 388.032945 103.901792 
L 388.121022 103.966471 
L 388.209099 104.157089 
L 388.253137 104.085675 
L 388.605444 102.5137 
L 388.781597 103.317216 
L 388.913712 102.853662 
L 388.95775 103.034857 
L 389.001789 102.85469 
L 389.089865 102.733265 
L 389.354095 102.221332 
L 389.442172 102.692964 
L 389.48621 102.634876 
L 389.530249 102.491239 
L 389.574287 102.593355 
L 389.618325 102.698026 
L 389.662364 102.58275 
L 389.882555 102.153921 
L 390.102747 101.010458 
L 390.190824 100.860126 
L 390.234862 100.923201 
L 390.278901 101.167298 
L 390.322939 101.000846 
L 390.411016 100.391089 
L 390.455054 100.488861 
L 390.543131 100.695361 
L 390.587169 100.654333 
L 390.939476 99.209992 
L 390.983514 99.378411 
L 391.115629 99.530496 
L 391.247744 99.640526 
L 391.291782 99.481208 
L 391.335821 99.522643 
L 391.467936 100.046044 
L 392.128511 102.221889 
L 392.216587 102.495552 
L 392.260626 102.294711 
L 392.304664 102.178367 
L 392.436779 102.789582 
L 392.524856 102.736297 
L 392.701009 102.8849 
L 392.789086 103.044237 
L 393.273508 105.747378 
L 393.361584 105.610476 
L 393.493699 105.849081 
L 393.713891 105.289157 
L 393.846006 105.259018 
L 393.934083 104.710632 
L 394.022159 104.852545 
L 394.286389 105.184357 
L 394.374466 105.287039 
L 394.462543 105.39429 
L 394.506581 105.361321 
L 394.550619 105.290741 
L 394.594658 105.414677 
L 394.814849 106.077933 
L 394.991003 105.933922 
L 395.123118 105.524513 
L 395.211194 105.604712 
L 395.343309 105.681708 
L 395.431386 105.753384 
L 395.607539 105.963457 
L 395.783693 105.279106 
L 395.87177 105.422933 
L 395.959846 105.463868 
L 396.047923 105.658687 
L 396.091961 105.554094 
L 396.224076 105.563647 
L 396.620421 106.137932 
L 396.66446 106.112786 
L 396.840613 106.458269 
L 396.92869 106.267385 
L 397.016766 106.337628 
L 397.060805 106.368935 
L 397.236958 106.815063 
L 397.280996 106.909482 
L 397.325035 106.870744 
L 397.589265 106.573404 
L 397.633303 106.603179 
L 397.809456 106.435606 
L 397.941571 106.33342 
L 398.117725 106.379648 
L 398.337916 106.590905 
L 398.734262 107.318388 
L 398.822338 107.357255 
L 399.130607 107.660916 
L 399.703105 107.315943 
L 399.879258 107.687224 
L 400.09945 108.150113 
L 400.187527 108.222676 
L 400.407718 109.399089 
L 401.024255 110.889441 
L 401.244447 110.855686 
L 401.288485 110.972908 
L 401.376562 110.907481 
L 401.552715 111.025331 
L 401.772907 110.45518 
L 401.860984 110.636916 
L 401.94906 110.856631 
L 402.125214 111.338649 
L 402.169252 111.367764 
L 402.21329 111.257005 
L 402.257329 111.43542 
L 402.433482 111.82802 
L 402.47752 111.876858 
L 402.565597 111.685361 
L 402.609635 111.803002 
L 402.785789 111.760886 
L 402.873865 111.666006 
L 403.182134 112.493044 
L 403.446364 113.992162 
L 403.710594 113.679238 
L 403.754632 113.472761 
L 403.79867 113.668764 
L 404.018862 114.556076 
L 404.32713 116.14571 
L 404.723476 116.857798 
L 405.207897 118.821179 
L 406.308856 125.098469 
L 406.440971 125.85115 
L 406.837316 127.977687 
L 406.969431 128.039297 
L 407.894236 131.119781 
L 407.938274 131.232488 
L 408.554811 137.100755 
L 408.598849 137.066682 
L 408.819041 137.669906 
L 408.907118 137.498047 
L 409.743846 132.127417 
L 410.096153 129.316596 
L 410.140191 129.375688 
L 410.272306 130.31992 
L 411.064996 139.399902 
L 411.329226 141.348993 
L 411.637495 144.641154 
L 413.002683 149.868894 
L 413.134798 150.242155 
L 413.35499 150.845778 
L 413.399028 150.772539 
L 413.443067 150.72117 
L 413.487105 150.811085 
L 413.61922 150.871702 
L 413.751335 150.737818 
L 414.059603 149.594676 
L 414.14768 149.492518 
L 414.191718 149.55357 
L 414.235757 149.66625 
L 414.279795 149.58518 
L 414.588063 149.010052 
L 414.632102 149.020124 
L 414.808255 148.540486 
L 414.852293 148.525576 
L 414.94037 148.727265 
L 415.072485 148.276811 
L 415.116523 148.523066 
L 415.292677 149.085247 
L 415.336715 149.067495 
L 415.689022 154.975647 
L 416.217482 164.528078 
L 416.349597 165.96 
L 416.437674 165.70523 
L 416.569789 164.955627 
L 417.450555 155.742157 
L 417.626709 154.853021 
L 417.934977 151.48798 
L 418.63959 144.159967 
L 419.124012 138.427624 
L 419.476319 133.922317 
L 420.445162 125.948491 
L 420.577277 125.212281 
L 420.753431 124.203743 
L 420.973622 123.044913 
L 421.061699 122.760413 
L 421.193814 122.280731 
L 421.237852 122.299251 
L 421.281891 122.238441 
L 421.325929 122.304527 
L 421.414006 122.434266 
L 421.986504 120.599835 
L 422.338811 120.647591 
L 422.779194 121.615291 
L 422.999386 121.563143 
L 423.792076 120.197976 
L 423.924191 119.957627 
L 424.232459 119.287468 
L 424.540728 118.752806 
L 424.628805 118.734885 
L 424.804958 117.718548 
L 425.157265 116.434069 
L 425.245341 116.391009 
L 425.28938 116.465742 
L 425.949955 118.715901 
L 426.3463 120.491573 
L 426.390338 120.411422 
L 426.434376 120.455032 
L 427.183028 123.919854 
L 427.227066 123.862921 
L 427.755527 123.387074 
L 428.019757 123.898988 
L 428.328025 124.848389 
L 428.548217 124.658324 
L 428.592255 124.744776 
L 429.208792 126.661423 
L 429.428983 127.298897 
L 429.605137 127.957823 
L 429.825328 128.862272 
L 429.957443 128.520235 
L 430.221673 127.718631 
L 430.441865 126.783032 
L 430.618019 126.38947 
L 431.014364 125.476066 
L 431.058402 125.507354 
L 431.146479 125.539763 
L 431.234555 125.880164 
L 431.322632 125.831506 
L 431.939169 124.827837 
L 432.291475 123.437599 
L 432.95205 119.925224 
L 433.040127 119.629961 
L 433.348396 118.454792 
L 433.656664 118.194004 
L 433.700702 118.268256 
L 433.832817 118.457043 
L 434.008971 118.499351 
L 434.229162 118.707788 
L 434.449354 117.455544 
L 434.669546 116.514501 
L 434.801661 116.527443 
L 434.977814 116.658943 
L 435.021852 116.69015 
L 435.065891 116.615932 
L 435.109929 116.513891 
L 435.153967 116.555772 
L 435.198006 116.621717 
L 435.242044 116.521546 
L 435.462236 116.421227 
L 435.594351 117.133089 
L 435.814542 117.92699 
L 436.034734 118.402209 
L 436.166849 118.958723 
L 437.664153 127.136292 
L 438.236651 127.943936 
L 438.500881 127.866373 
L 438.588958 127.719105 
L 438.721073 128.21158 
L 438.809149 128.160605 
L 438.941265 128.337292 
L 439.029341 128.580051 
L 439.07338 128.517129 
L 439.205495 128.49424 
L 439.293571 128.196434 
L 439.557801 126.578818 
L 439.60184 126.599924 
L 440.086261 125.552185 
L 440.262415 125.510945 
L 440.306453 125.589514 
L 440.65876 127.612896 
L 440.746836 127.686861 
L 440.790875 127.563495 
L 440.92299 127.262464 
L 441.231258 126.705633 
L 441.935872 120.840445 
L 441.97991 121.085187 
L 442.288178 122.987335 
L 442.332217 122.959621 
L 442.420293 122.756562 
L 442.464332 122.861868 
L 442.948753 125.306787 
L 443.03683 125.27939 
L 443.389137 123.554307 
L 443.521252 123.355102 
L 444.534133 116.284047 
L 445.194709 112.64813 
L 445.723169 108.944705 
L 445.767207 108.952904 
L 445.899322 109.271629 
L 446.251629 111.169869 
L 446.295667 110.998886 
L 446.427782 110.745802 
L 446.515859 110.827259 
L 446.780089 112.284766 
L 447.132395 115.15353 
L 447.220472 115.699683 
L 447.704894 119.964776 
L 447.969124 120.921165 
L 448.189316 120.449471 
L 448.497584 121.252699 
L 448.629699 121.292633 
L 448.673737 121.207675 
L 448.717776 121.247664 
L 448.893929 121.866735 
L 449.466427 126.031739 
L 450.435271 136.320128 
L 450.699501 139.202368 
L 451.051808 142.65331 
L 451.139884 142.966454 
L 451.536229 144.184252 
L 451.624306 144.051205 
L 451.756421 143.606173 
L 452.505073 140.845078 
L 452.593149 141.175345 
L 452.681226 141.062464 
L 452.857379 140.011027 
L 453.033533 139.291538 
L 453.165648 138.739445 
L 453.253724 138.898229 
L 453.473916 139.307292 
L 453.561993 139.94825 
L 453.606031 139.800011 
L 453.870261 140.00914 
L 453.958338 139.73721 
L 454.002376 139.760284 
L 454.17853 140.921917 
L 454.398721 142.344295 
L 454.530836 142.235817 
L 454.618913 141.529194 
L 454.70699 141.562561 
L 454.751028 141.415012 
L 454.795066 141.482713 
L 454.839105 141.568366 
L 454.883143 141.542334 
L 455.279488 140.524891 
L 455.367565 140.2854 
L 455.411603 140.425655 
L 455.587756 140.665772 
L 455.631795 140.61125 
L 455.675833 140.670719 
L 455.76391 140.46454 
L 455.807948 140.495732 
L 455.851986 140.491212 
L 456.02814 139.459353 
L 456.29237 136.984381 
L 456.732753 133.789924 
L 456.952945 132.817233 
L 457.921788 124.140593 
L 458.097942 123.759518 
L 458.318133 122.136622 
L 459.066785 114.866969 
L 459.683322 113.110198 
L 459.859475 112.842208 
L 460.123705 113.57627 
L 460.167744 113.556532 
L 460.343897 113.717415 
L 460.387935 113.578287 
L 460.696204 112.445424 
L 460.78428 112.50273 
L 461.31274 110.923119 
L 461.57697 109.96425 
L 461.621009 109.986109 
L 461.709085 110.276415 
L 461.753124 110.142734 
L 461.8412 109.874186 
L 462.061392 109.334392 
L 462.193507 109.324332 
L 462.325622 109.623535 
L 462.413699 109.668759 
L 462.633891 110.18851 
L 462.721967 109.939879 
L 462.766006 109.747221 
L 462.810044 110.040957 
L 462.898121 109.962305 
L 463.030236 110.516332 
L 463.074274 110.458622 
L 463.250427 109.410433 
L 463.294466 109.506656 
L 463.382542 110.492805 
L 463.690811 103.681828 
L 463.866964 102.913572 
L 463.999079 104.443843 
L 464.087156 102.837816 
L 464.175232 102.874548 
L 464.219271 102.895663 
L 464.263309 103.75435 
L 464.307347 103.496691 
L 464.483501 100.313213 
L 464.527539 98.197776 
L 464.571577 100.106722 
L 464.791769 108.022267 
L 465.011961 100.302728 
L 465.364268 113.614383 
L 465.408306 114.182613 
L 465.452344 113.891288 
L 465.496383 113.634969 
L 466.024843 94.267657 
L 466.068881 95.162707 
L 466.289073 103.502586 
L 466.333111 103.199317 
L 466.465226 96.013241 
L 466.641379 96.169613 
L 466.773494 94.560085 
L 466.861571 93.334247 
L 467.037724 112.498457 
L 467.081763 119.482886 
L 467.125801 117.527851 
L 467.301954 61.902488 
L 467.478108 67.049007 
L 467.742338 56.662932 
L 467.874453 69.29511 
L 468.138683 89.877997 
L 468.446951 99.747894 
L 468.843296 106.345248 
L 468.887335 106.205463 
L 468.975411 107.458241 
L 469.371756 119.375113 
L 469.415795 119.862371 
L 469.503871 119.805677 
L 469.591948 120.053297 
L 470.648868 103.474634 
L 470.692907 103.72761 
L 470.825022 106.002403 
L 470.957137 107.003617 
L 471.001175 107.003684 
L 471.309443 104.342632 
L 471.529635 100.936111 
L 471.573673 101.178928 
L 471.617712 101.082276 
L 471.705788 99.730141 
L 472.058095 90.669897 
L 472.102133 90.471765 
L 472.498478 77.61116 
L 472.894823 67.922203 
L 472.9829 66.541619 
L 473.026938 66.959554 
L 473.070977 67.023766 
L 473.115015 65.928993 
L 473.159053 65.949434 
L 473.379245 70.262959 
L 474.127897 89.766212 
L 474.30405 88.75642 
L 474.348089 88.924197 
L 474.920587 92.824877 
L 474.964625 92.850085 
L 475.052702 92.591971 
L 475.228855 95.87824 
L 475.316932 94.734303 
L 475.669239 88.00881 
L 475.757315 88.287117 
L 475.845392 88.649004 
L 475.88943 88.314975 
L 475.933469 88.379675 
L 476.638082 96.357458 
L 476.726159 96.002019 
L 477.254619 90.58956 
L 477.430772 90.731225 
L 477.739041 93.607394 
L 477.871156 93.282552 
L 477.959232 93.684862 
L 478.047309 93.061682 
L 478.751922 103.347555 
L 479.104229 106.730552 
L 479.148267 106.853939 
L 479.192306 106.783548 
L 479.280383 106.575631 
L 479.456536 107.233318 
L 479.632689 106.792199 
L 479.896919 106.093822 
L 479.940958 106.185255 
L 480.029034 106.114801 
L 481.085954 103.616755 
L 481.129993 103.7775 
L 481.394223 104.211388 
L 481.526338 103.29469 
L 481.570376 102.957343 
L 481.614414 103.198333 
L 481.746529 103.766094 
L 481.790568 103.70583 
L 481.834606 103.54596 
L 481.878644 103.681438 
L 482.010759 104.126556 
L 482.451143 106.403972 
L 482.495181 106.451446 
L 482.627296 106.89423 
L 482.847488 105.865548 
L 482.979603 105.211205 
L 483.243833 106.521342 
L 483.287871 106.446649 
L 483.33191 106.584374 
L 483.552101 107.484101 
L 483.59614 107.430327 
L 483.816331 106.956629 
L 483.948446 107.01849 
L 484.1246 107.2309 
L 484.212676 107.158909 
L 484.344791 106.730593 
L 484.38883 106.799358 
L 484.432868 106.818127 
L 484.785175 106.165302 
L 484.873251 106.048731 
L 485.093443 105.430759 
L 485.225558 104.833119 
L 485.533827 103.58719 
L 485.798057 103.886424 
L 485.886133 104.122322 
L 485.930172 104.090455 
L 486.106325 104.383417 
L 486.194402 104.692041 
L 486.23844 104.551076 
L 486.370555 104.199191 
L 486.50267 104.431512 
L 486.546708 104.367371 
L 486.899015 103.586086 
L 486.943053 103.504577 
L 486.987092 103.636617 
L 487.163245 103.561346 
L 487.207283 103.523801 
L 487.251322 103.581389 
L 487.427475 103.837007 
L 487.55959 103.838225 
L 488.08805 106.385251 
L 488.396319 108.252848 
L 488.528434 108.570334 
L 488.88074 109.597283 
L 489.189009 109.959103 
L 489.277085 110.292416 
L 489.321124 110.24802 
L 489.585354 109.571954 
L 489.67343 109.783308 
L 489.805545 110.174449 
L 489.849584 110.121205 
L 489.981699 110.185874 
L 490.113814 110.171606 
L 490.245929 109.933601 
L 490.598235 111.797735 
L 490.686312 112.009744 
L 490.730351 111.981411 
L 491.214772 110.720912 
L 491.258811 110.778743 
L 491.434964 110.904053 
L 491.479002 110.967619 
L 491.699194 110.454653 
L 491.831309 110.562885 
L 492.491884 111.478371 
L 492.623999 111.768065 
L 492.668037 111.737202 
L 492.888229 112.108906 
L 493.108421 112.781621 
L 493.240536 112.515513 
L 493.284574 112.559957 
L 493.372651 112.490187 
L 493.416689 112.532472 
L 493.768996 112.778587 
L 493.857073 112.724883 
L 493.945149 112.519067 
L 494.121303 112.032201 
L 494.209379 111.955065 
L 494.297456 111.574768 
L 494.649763 109.884582 
L 495.618606 105.836026 
L 495.794759 105.721794 
L 495.838798 105.685128 
L 495.926874 105.86279 
L 495.970913 105.829608 
L 496.323219 105.196637 
L 496.763603 104.407364 
L 496.983795 103.853355 
L 497.292063 103.611697 
L 497.556293 103.277507 
L 497.9086 102.097538 
L 497.952638 102.220291 
L 498.17283 102.670252 
L 498.393021 102.502002 
L 498.525136 101.686226 
L 498.70129 101.180362 
L 498.921481 101.373553 
L 498.96552 101.296186 
L 499.317826 100.585713 
L 499.49398 99.903567 
L 499.538018 99.945825 
L 499.582057 100.078308 
L 499.626095 99.958647 
L 499.802248 99.748465 
L 499.890325 99.727199 
L 500.066478 99.960692 
L 500.991283 96.856608 
L 501.035322 96.905535 
L 501.255513 97.209191 
L 501.60782 98.083566 
L 501.916088 99.404638 
L 502.224357 97.952656 
L 502.312434 97.672019 
L 502.620702 95.81575 
L 503.281277 89.453785 
L 503.325315 88.975584 
L 503.369354 89.190674 
L 503.413392 89.369705 
L 503.45743 89.184204 
L 503.765699 85.882613 
L 503.853775 85.405487 
L 503.897814 85.686367 
L 503.98589 86.678444 
L 504.029929 86.373242 
L 504.426274 79.107401 
L 504.954734 63.740335 
L 505.571271 53.20225 
L 505.659347 52.189848 
L 505.967616 48.843495 
L 506.143769 47.991291 
L 506.187807 48.021518 
L 506.231846 47.996511 
L 506.452037 48.485947 
L 506.584152 48.352564 
L 506.892421 47.284917 
L 507.244727 46.816162 
L 507.376842 46.626628 
L 507.729149 46.106773 
L 508.081456 47.154974 
L 508.213571 47.034834 
L 508.477801 46.607574 
L 508.521839 46.677487 
L 508.697993 47.200853 
L 509.094338 49.968948 
L 509.622798 56.307351 
L 509.666836 55.976255 
L 509.798951 54.473163 
L 509.842989 54.83109 
L 509.931066 54.251662 
L 510.107219 53.592941 
L 510.151258 53.646504 
L 510.503564 52.186331 
L 511.076063 38.945765 
L 511.120101 38.943155 
L 511.208178 38.170349 
L 511.516446 35.606525 
L 511.780676 34.359013 
L 511.912791 33.639073 
L 512.309136 27.420643 
L 513.145865 18.543315 
L 513.322018 20.948686 
L 513.630286 26.353331 
L 513.674325 25.080328 
L 513.718363 26.384724 
L 514.3349 36.164232 
L 514.378938 36.150309 
L 514.59913 40.505694 
L 514.643168 40.473086 
L 515.171628 27.876358 
L 515.303743 29.67886 
L 515.347782 29.278364 
L 515.39182 29.261905 
L 515.479897 28.907191 
L 515.523935 29.083382 
L 515.65605 29.447997 
L 515.744127 28.774775 
L 516.008357 24.536569 
L 516.052395 24.443471 
L 516.096433 24.506303 
L 516.272587 26.014282 
L 516.360663 24.547889 
L 516.536817 20.428946 
L 516.580855 20.864083 
L 516.757009 22.000558 
L 516.845085 22.549393 
L 516.889124 22.188485 
L 516.933162 22.323269 
L 517.153354 24.623594 
L 517.285469 25.179179 
L 517.329507 25.087478 
L 517.417584 23.633918 
L 517.461622 24.140662 
L 517.681814 25.905491 
L 517.902005 26.304039 
L 517.946044 26.172672 
L 518.606619 21.193349 
L 518.782772 19.260778 
L 518.914887 16.837623 
L 519.002964 17.09975 
L 519.09104 16.700752 
L 519.35527 14.76 
L 519.443347 15.041181 
L 519.531424 16.256443 
L 519.707577 19.347116 
L 519.971807 18.702005 
L 520.147961 20.993773 
L 520.324114 22.037966 
L 520.632382 20.862095 
L 520.984689 19.847333 
L 521.160842 20.966496 
L 521.821417 28.963689 
L 522.393916 38.539064 
L 522.614108 42.169962 
L 523.406798 53.170911 
L 523.582951 55.723743 
L 523.891219 61.273139 
L 524.023334 60.445768 
L 524.992178 90.568202 
L 525.388523 100.576264 
L 525.74083 104.036251 
L 526.489481 110.456302 
L 526.665635 110.312719 
L 526.929865 110.017547 
L 527.106018 110.094584 
L 527.238133 109.722841 
L 527.414286 109.389355 
L 527.678516 108.38239 
L 527.986785 106.083121 
L 528.030823 105.99243 
L 528.074861 106.029894 
L 528.1189 106.140855 
L 528.162938 106.075133 
L 528.427168 105.857081 
L 528.559283 105.228323 
L 528.823513 104.120965 
L 528.867552 104.145526 
L 528.955628 104.066288 
L 529.17582 103.899315 
L 529.396012 104.224741 
L 529.44005 104.221658 
L 529.660242 104.644909 
L 529.836395 104.753057 
L 529.880433 104.794153 
L 530.056587 105.260723 
L 530.276778 105.429887 
L 530.320817 105.32804 
L 530.7612 104.473438 
L 530.849277 104.01278 
L 530.893315 104.129114 
L 531.069469 104.377709 
L 531.421775 103.081491 
L 531.730044 100.103562 
L 533.315424 80.172084 
L 533.711769 76.909893 
L 533.887922 75.703724 
L 533.931961 75.629265 
L 534.108114 76.483118 
L 534.152152 76.250793 
L 534.460421 74.1565 
L 534.680612 73.311157 
L 534.812727 73.699707 
L 534.812727 73.699707 
" clip-path="url(#pc5dd0ab119)" style="fill: none; stroke: #7f7f7f; stroke-width: 1.5; stroke-linecap: square"/>
   </g>
   <g id="patch_3">
    <path d="M 55.44 173.52 
L 55.44 7.2 
" style="fill: none; stroke: #000000; stroke-width: 0.8; stroke-linejoin: miter; stroke-linecap: square"/>
   </g>
   <g id="patch_4">
    <path d="M 55.44 173.52 
L 557.64 173.52 
" style="fill: none; stroke: #000000; stroke-width: 0.8; stroke-linejoin: miter; stroke-linecap: square"/>
   </g>
  </g>
 </g>
 <defs>
  <clipPath id="pc5dd0ab119">
   <rect x="55.44" y="7.2" width="502.2" height="166.32"/>
  </clipPath>
 </defs>
</svg>
